<?xml version="1.0"?>
<svg xmlns="http://www.w3.org/2000/svg" height="512px" viewBox="0 0 60 60" width="512px"><g><g id="026---IT-Request"><path id="Shape" d="m36 47h-25c-.7479871.0078786-1.43109767.4262742-1.778 1.089l-2.236 4.919c-.35371046.6192229-.35095003 1.3799386.00724504 1.9965782.35819507.6166397 1.01762953.995905 1.73075496.9954218h27.276c1.1045695 0 2-.8954305 2-2v-5c0-1.1045695-.8954305-2-2-2zm-27.235 6.959 2.235-4.959h25v4.959z" data-original="#000000" class="active-path" data-old_color="#000000" fill="#FFFFFF"/><path id="Shape" d="m40 49v5c0 1.1045695.8954305 2 2 2h9.276c.6963768-.0001642 1.3425342-.3625397 1.7058168-.9566495.3632825-.5941098.3913829-1.334411.0741832-1.9543505l-2.32-5.081c-.3559283-.6231061-1.0184025-1.0077685-1.736-1.008h-7c-1.1045695 0-2 .8954305-2 2zm11.282 5h-9.282v-5l6.958-.082z" data-original="#000000" class="active-path" data-old_color="#000000" fill="#FFFFFF"/><path id="Shape" d="m1 23c-.36904308.0000673-.70805185.2033839-.88190375.5289116-.1738519.3255278-.15428421.7203463.05090375 1.0270884 1.56606998 2.3390575 4.04661667 3.908509 6.831 4.322v6.122c.00299829 2.3751008 1.6735832 4.4215673 4 4.9v3.1h-1.292c-2.01881255-.0147005-3.84341822 1.2005153-4.608 3.069l-4.884 9.817c-.36954121.9240181-.25681365 1.9711501.30092881 2.7953428.55774245.8241927 1.48789784 1.31816 2.48307119 1.3186572h54c1.0093231-.0005892 1.9506992-.5086804 2.5051218-1.3520956.5544226-.8434151.6475704-1.9090929.2478782-2.8359044l-4.816-9.668c-.7539088-1.9039425-2.5972408-3.1516144-4.645-3.144h-1.292v-3.1c2.3264168-.4784327 3.9970017-2.5248992 4-4.9v-6.122c2.7846055-.412893 5.2653753-1.9824856 6.831-4.322.205188-.3067421.2247556-.7015606.0509037-1.0270884-.1738519-.3255277-.5128606-.5288443-.8819037-.5289116h-6v-8h6c.3690431-.0000673.7080518-.2033839.8819037-.5289116.1738519-.3255278.1542843-.7203463-.0509037-1.0270884-1.5656247-2.3395144-4.0463945-3.90910704-6.831-4.322v-4.122c-.0033061-2.76005315-2.2399468-4.99669388-5-5h-36c-2.76005315.00330612-4.99669388 2.23994685-5 5v4.122c-2.78460552.41289296-5.2653753 1.9824856-6.831 4.322-.20518796.3067421-.22475565.7015606-.05090375 1.0270884.1738519.3255277.51286067.5288443.88190375.5289116h6v8zm52.11 23.96 4.817 9.669c.1229724.3078051.0854347.6565434-.1002252.9311278s-.4953145.4393311-.8267748.4398722h-54c-.3184198-.0013014-.61754135-.1528337-.80695273-.408795-.18941137-.2559613-.24688436-.5863135-.15504727-.891205l4.883-9.817c.45306543-1.1413236 1.55905174-1.8885688 2.787-1.883h40.584c1.2553235.0043886 2.3771251.7846339 2.818 1.96zm-40.11-3.96v-3h2c0 .5522847.4477153 1 1 1s1-.4477153 1-1h2c0 .5522847.4477153 1 1 1s1-.4477153 1-1h2c0 .5522847.4477153 1 1 1s1-.4477153 1-1h2c0 .5522847.4477153 1 1 1s1-.4477153 1-1h2c0 .5522847.4477153 1 1 1s1-.4477153 1-1h2c0 .5522847.4477153 1 1 1s1-.4477153 1-1h2c0 .5522847.4477153 1 1 1s1-.4477153 1-1h2c0 .5522847.4477153 1 1 1s1-.4477153 1-1h2v3zm35-5h-36c-1.6568542 0-3-1.3431458-3-3v-6.026c.67537453-.0346942 1.3454795-.1378903 2-.308v2.334c0 1.1045695.8954305 2 2 2h34c1.1045695 0 2-.8954305 2-2v-2.334c.6545052.1701841 1.3246177.2733815 2 .308v6.026c0 1.6568542-1.3431458 3-3 3zm-31.537-13h27.074c.9179636 1.220522 2.1023683 2.2154493 3.463 2.909v3.091h-34v-3.091c1.3606317-.6935507 2.5450364-1.688478 3.463-2.909zm30.537-14.909c-1.3606317.6935507-2.5450364 1.688478-3.463 2.909h-27.074c-.9179636-1.220522-2.1023683-2.2154493-3.463-2.909v-4.091h34zm-4.642 4.909c-1.1209616 2.5488646-1.1209616 5.4511354 0 8h-24.716c1.1209616-2.5488646 1.1209616-5.4511354 0-8zm6.326 4 2.316-3.86v7.72zm1.834-6c-.3513418-.0002845-.677059.1838331-.858.485l-3 5c-.1904131.3169325-.1904131.7130675 0 1.03l3 5c.180941.3011669.5066582.4852845.858.485h6.291c-3.2162395 2.8364566-8.0969703 2.6324408-11.0652745-.4625314s-2.9683042-7.979965 0-11.0749372 7.849035-3.298988 11.0652745-.4625314zm-38.518-11h36c1.6568542 0 3 1.34314575 3 3v4.026c-.6753823.03461854-1.3454948.13781587-2 .308v-3.334c0-1.1045695-.8954305-2-2-2h-34c-1.1045695 0-2 .8954305-2 2v3.334c-.6545205-.17010968-1.32462547-.27330584-2-.308v-4.026c0-1.65685425 1.3431458-3 3-3zm-.377 9.644c2.9122953 1.2411912 4.8187416 4.0829855 4.8626874 7.2484378.0439459 3.1654523-1.7828758 6.0590755-4.6595924 7.3806354-2.87671673 1.3215599-6.26215841.8224438-8.635095-1.2730732h6.291c.35134182.0002845.677059-.1838331.858-.485l3-5c.1904131-.3169325.1904131-.7130675 0-1.03l-3-5c-.180941-.3011669-.50665818-.4852845-.858-.485h-6.291c2.31261586-2.0431449 5.59541113-2.5710707 8.432-1.356zm-.307 7.356-2.316 3.86v-7.72z" data-original="#000000" class="active-path" data-old_color="#000000" fill="#FFFFFF"/><path id="Shape" d="m22 20h5c.5522847 0 1-.4477153 1-1s-.4477153-1-1-1h-5c-.5522847 0-1 .4477153-1 1s.4477153 1 1 1z" data-original="#000000" class="active-path" data-old_color="#000000" fill="#FFFFFF"/><path id="Shape" d="m33 20h5c.5522847 0 1-.4477153 1-1s-.4477153-1-1-1h-5c-.5522847 0-1 .4477153-1 1s.4477153 1 1 1z" data-original="#000000" class="active-path" data-old_color="#000000" fill="#FFFFFF"/></g></g> </svg>
