<?xml version="1.0"?>
<svg xmlns="http://www.w3.org/2000/svg" viewBox="0 0 64 64" width="512px" height="512px"><g><g id="monitor"><rect x="31" y="47" width="2" height="2" data-original="#000000" class="active-path" data-old_color="#000000" fill="#FFFFFF"/><path d="M59,2H5A3,3,0,0,0,2,5V49a3,3,0,0,0,3,3H24.82l-.667,4H23a1,1,0,0,0-.8.4l-3,4A1,1,0,0,0,20,62H44a1,1,0,0,0,.8-1.6l-3-4A1,1,0,0,0,41,56H39.847l-.667-4H59a3,3,0,0,0,3-3V5A3,3,0,0,0,59,2ZM5,4H59a1,1,0,0,1,1,1V44H4V5A1,1,0,0,1,5,4ZM42,60H22l1.5-2h17Zm-4.18-4H26.18l.667-4H37.153ZM59,50H5a1,1,0,0,1-1-1V46H60v3A1,1,0,0,1,59,50Z" data-original="#000000" class="active-path" data-old_color="#000000" fill="#FFFFFF"/><path d="M49,18a4,4,0,1,0-4-4A4,4,0,0,0,49,18Zm0-6a2,2,0,1,1-2,2A2,2,0,0,1,49,12Z" data-original="#000000" class="active-path" data-old_color="#000000" fill="#FFFFFF"/><path d="M40.758,16.97l.668.167-.355.591a1,1,0,0,0,.151,1.221l2.829,2.829a1,1,0,0,0,1.221.151l.591-.355.167.668A1,1,0,0,0,47,23h4a1,1,0,0,0,.97-.758l.167-.668.591.355a1,1,0,0,0,1.221-.151l2.829-2.829a1,1,0,0,0,.151-1.221l-.355-.591.668-.167A1,1,0,0,0,58,16V12a1,1,0,0,0-.758-.97l-.668-.167.355-.591a1,1,0,0,0-.151-1.221L53.949,6.222a1,1,0,0,0-1.221-.151l-.591.355-.167-.668A1,1,0,0,0,51,5H47a1,1,0,0,0-.97.758l-.167.668-.591-.355a1,1,0,0,0-1.221.151L41.222,9.051a1,1,0,0,0-.151,1.221l.355.591-.668.167A1,1,0,0,0,40,12v4A1,1,0,0,0,40.758,16.97ZM42,12.781l1.22-.3a1,1,0,0,0,.615-1.485l-.647-1.078,1.725-1.725,1.078.647a1,1,0,0,0,1.485-.615l.3-1.22h2.438l.3,1.22a1,1,0,0,0,1.485.615l1.078-.647,1.726,1.725-.648,1.078a1,1,0,0,0,.615,1.485l1.22.3v2.438l-1.22.3a1,1,0,0,0-.615,1.485l.648,1.078-1.726,1.726-1.078-.648a1,1,0,0,0-1.485.615l-.3,1.22H47.781l-.3-1.22a1,1,0,0,0-1.485-.615l-1.078.648-1.725-1.726.647-1.078a1,1,0,0,0-.615-1.485l-1.22-.3Z" data-original="#000000" class="active-path" data-old_color="#000000" fill="#FFFFFF"/><path d="M49,30a4,4,0,1,0,4,4A4,4,0,0,0,49,30Zm0,6a2,2,0,1,1,2-2A2,2,0,0,1,49,36Z" data-original="#000000" class="active-path" data-old_color="#000000" fill="#FFFFFF"/><path d="M57.242,31.03l-.668-.167.355-.591a1,1,0,0,0-.151-1.221l-2.829-2.829a1,1,0,0,0-1.221-.151l-.591.355-.167-.668A1,1,0,0,0,51,25H47a1,1,0,0,0-.97.758l-.167.668-.591-.355a1,1,0,0,0-1.221.151l-2.829,2.829a1,1,0,0,0-.151,1.221l.355.591-.668.167A1,1,0,0,0,40,32v4a1,1,0,0,0,.758.97l.668.167-.355.591a1,1,0,0,0,.151,1.221l2.829,2.829a1,1,0,0,0,1.221.151l.591-.355.167.668A1,1,0,0,0,47,43h4a1,1,0,0,0,.97-.758l.167-.668.591.355a1,1,0,0,0,1.221-.151l2.829-2.829a1,1,0,0,0,.151-1.221l-.355-.591.668-.167A1,1,0,0,0,58,36V32A1,1,0,0,0,57.242,31.03ZM56,35.219l-1.22.3a1,1,0,0,0-.615,1.485l.648,1.078-1.726,1.726-1.078-.648a1,1,0,0,0-1.485.615l-.3,1.22H47.781l-.3-1.22a1,1,0,0,0-1.485-.615l-1.078.648-1.725-1.726.647-1.078a1,1,0,0,0-.615-1.485l-1.22-.3V32.781l1.22-.3a1,1,0,0,0,.615-1.485l-.647-1.078,1.725-1.725,1.078.647a1,1,0,0,0,1.485-.615l.3-1.22h2.438l.3,1.22a1,1,0,0,0,1.485.615l1.078-.647,1.726,1.725-.648,1.078a1,1,0,0,0,.615,1.485l1.22.3Z" data-original="#000000" class="active-path" data-old_color="#000000" fill="#FFFFFF"/><path d="M7,18H31a1,1,0,0,0,1-1V13h2v8a1,1,0,0,0,1,1h5V20H36V12a1,1,0,0,0-1-1H32V7a1,1,0,0,0-1-1H7A1,1,0,0,0,6,7V17A1,1,0,0,0,7,18ZM8,8H30v8H8Z" data-original="#000000" class="active-path" data-old_color="#000000" fill="#FFFFFF"/><path d="M7,28H17a1,1,0,0,0,1-1V21a1,1,0,0,0-1-1H7a1,1,0,0,0-1,1v6A1,1,0,0,0,7,28Zm1-6h8v4H8Z" data-original="#000000" class="active-path" data-old_color="#000000" fill="#FFFFFF"/><path d="M31,20H21a1,1,0,0,0-1,1v6a1,1,0,0,0,1,1H31a1,1,0,0,0,1-1V21A1,1,0,0,0,31,20Zm-1,6H22V22h8Z" data-original="#000000" class="active-path" data-old_color="#000000" fill="#FFFFFF"/><path d="M7,42H31a1,1,0,0,0,1-1V37h3a1,1,0,0,0,1-1V28h4V26H35a1,1,0,0,0-1,1v8H32V31a1,1,0,0,0-1-1H7a1,1,0,0,0-1,1V41A1,1,0,0,0,7,42ZM8,32H30v8H8Z" data-original="#000000" class="active-path" data-old_color="#000000" fill="#FFFFFF"/></g></g> </svg>
