<?xml version="1.0"?>
<svg xmlns="http://www.w3.org/2000/svg" height="512px" viewBox="0 0 58 59" width="512px" class=""><g><g id="008---IT-Request"><path id="Shape" d="m29.054 27.782 9.278 9.318c1.209261 1.1572118 3.1227434 1.1320921 4.3012097-.0564653 1.1784663-1.1885573 1.1872704-3.1021842.0197903-4.3015347l-9.265-9.314c-1.058 1.064.252-.252-4.334 4.354z" data-original="#000000" class="active-path" data-old_color="#000000" fill="#FFFFFF"/><path id="Shape" d="m43.886 12.875-4.142 4.163c-.1876539.1887738-.4428243.2949448-.709.295h-4.306c-.5522847 0-1-.4477153-1-1v-4.333c.0011046-.2623399.1052558-.5137394.29-.7l4.152-4.181c-2.587768-.46369694-5.2215273.52806992-6.8607078 2.58346409-1.6391805 2.05539421-2.0201119 4.84379531-.9922922 7.26353591.1572428.3731479.0739358.8042914-.211 1.092-3.751 3.794-4.573 4.6-15.5 15.584-.8057834.7977753-.8122753 2.0977165-.0145 2.9035.7977754.8057834 2.0977165.8122753 2.9035.0145 25.204-25.345 10.274-10.324 15.504-15.582.2882777-.2897229.7238498-.3748575 1.1-.215 2.4201933 1.0193798 5.2046858.627306 7.2492883-1.0207447 2.0446026-1.6480508 3.0189678-4.2858022 2.5367117-6.8672553z" data-original="#000000" class="active-path" data-old_color="#000000" fill="#FFFFFF"/><path id="Shape" d="m52 0h-46c-3.3137085 0-6 2.6862915-6 6v34c0 3.3137085 2.6862915 6 6 6h11s.717 6.453-3.92 10.252c-.3459117.2680162-.4773867.7298086-.3245165 1.1398309.1528703.4100223.5545744.6730274.9915165.6491691 4.921-.341 13.183-2.38 15.253-12.041h23c3.3137085 0 6-2.6862915 6-6v-34c0-3.3137085-2.6862915-6-6-6zm-46 5h-1c-.55228475 0-1-.44771525-1-1s.44771525-1 1-1h1c.55228475 0 1 .44771525 1 1s-.44771525 1-1 1zm3-1c0-.55228475.44771525-1 1-1h5c.5522847 0 1 .44771525 1 1s-.4477153 1-1 1h-5c-.55228475 0-1-.44771525-1-1zm35 39h-1c-.5522847 0-1-.4477153-1-1s.4477153-1 1-1h1c.5522847 0 1 .4477153 1 1s-.4477153 1-1 1zm.071-11.668c1.4392174 1.4533067 1.8682786 3.6271455 1.0891727 5.5182935-.7791058 1.8911481-2.6149024 3.1319219-4.6601727 3.1497065-1.3461419.0040637-2.6374916-.5327976-3.584-1.49l-9.274-9.31-8.73 8.769c-.7545362.7675265-1.7856999 1.1998803-2.862 1.2-1.6370713-.0165481-3.1056304-1.0102761-3.7297442-2.5238012-.6241138-1.513525-.2828397-3.2535518.8667442-4.4191988l10.172-10.221-4.415-4.438c-.201947.207786-.4840922.3177624-.7733874.3014559-.2892952-.0163064-.5572947-.1572923-.7346126-.3864559l-5.028-6.5c-.3072874-.3972977-.2721968-.9608881.082-1.317l2.873-2.888c.3585271-.35730607.9274977-.39037078 1.325-.077l6.464 5.053c.2287535.1785268.3686805.4476136.3834582.7374094s-.0970515.5717205-.3064582.7725906l4.414 4.437.591-.6c-1.16894-3.4094547-.2250467-7.18751806 2.4100574-9.64658865 2.6351042-2.45907059 6.4693118-3.13991523 9.7899426-1.73841135.3062622.12889216.5284989.40149112.5930474.7274408s-.037023.66267303-.2710474.8985592l-5.032 5.068v2.917h2.89l5.029-5.055c.2351077-.2365737.572686-.34035931.9000901-.27672528.3274041.06363408.6015314.28631028.7309099.59372528 1.2561098 2.9557334.869144 6.3538097-1.0193712 8.9514398s-5.0015744 4.0137965-8.2006288 3.7305602zm8.929 11.668h-5c-.5522847 0-1-.4477153-1-1s.4477153-1 1-1h5c.5522847 0 1 .4477153 1 1s-.4477153 1-1 1z" data-original="#000000" class="active-path" data-old_color="#000000" fill="#FFFFFF"/><path id="Shape" d="m26.229 19.12c-5.44-5.478-5.456-5.3-5.391-5.96.0014326-.1328294.0421419-.2622642.117-.372.0229535-.053229.0503854-.1044129.082-.153l-4.882-3.816-1.628 1.636 3.8 4.908c.016-.012.265-.143.285-.15.1184184-.0301806.2391855-.0502527.361-.06.552.014.3-.1 5.8 5.434z" data-original="#000000" class="active-path" data-old_color="#000000" fill="#FFFFFF"/></g></g> </svg>
