<svg width="29" height="27" viewBox="0 0 29 27" fill="none" xmlns="http://www.w3.org/2000/svg">
<path d="M28.0002 24.8L27.6002 21H1.40016L1.00016 24.9C0.900157 25.9 1.70016 26.8 2.70016 26.8H26.3002C27.3002 26.7 28.1002 25.8 28.0002 24.8Z" fill="white"/>
<path d="M9.70018 5.9C9.70018 3.2 11.9002 1 14.5002 1C17.1002 1 19.3002 3.2 19.3002 5.9V10.1H20.3002V5.9C20.3002 2.6 17.7002 0 14.4002 0C11.2002 0 8.50018 2.7 8.50018 5.9V10.1H9.50018V5.9H9.70018Z" fill="white"/>
<path d="M26.2002 8.70001C26.1002 7.80001 25.4002 7.20001 24.5002 7.20001H21.3002V9.70001C21.3002 10.5 20.6002 11.2 19.8002 11.2C19.0002 11.2 18.3002 10.5 18.3002 9.70001V7.20001H10.7002V9.70001C10.7002 10.5 10.0002 11.2 9.20015 11.2C8.40015 11.2 7.70015 10.5 7.70015 9.70001V7.20001H4.40015C3.50015 7.20001 2.80015 7.90001 2.70015 8.70001L1.50015 20.1H27.5002L26.2002 8.70001Z" fill="white"/>
</svg>
