<svg width="69" height="47" viewBox="0 0 69 47" fill="none" xmlns="http://www.w3.org/2000/svg">
<g clip-path="url(#clip0)">
<path d="M33.9 0.300038C46.6 0.300038 56.9 10.7 56.8 23.2C56.7 35.9 46.4 46.2 33.8 46.1C21.1 46 10.8 35.7 10.9 23.1C11.1 10.5 21.4 0.200038 33.9 0.300038ZM12.7 23.1C12.7 34.8 22.1 44.4 33.8 44.4C45.6 44.5 55.2 35 55.2 23.2C55.2 11.5 45.7 2.00004 34 1.90004C22.3 1.90004 12.7 11.4 12.7 23.1Z" fill="#333333" stroke="#333333" stroke-width="0.5" stroke-miterlimit="10"/>
<path d="M1.89997 13.8001C2.19997 13.8001 2.49997 13.8001 2.69997 13.8001C2.69997 13.5001 2.69997 13.1001 2.69997 12.8001C2.69997 9.70007 2.69997 6.60007 2.69997 3.60007C2.69997 3.40007 2.69997 3.10007 2.69997 2.90007C2.99997 2.40007 3.29997 2.10007 3.69997 2.20007C3.99997 2.30007 4.29997 2.60007 4.49997 2.90007C4.59997 3.00007 4.49997 3.30007 4.49997 3.50007C4.49997 6.80007 4.49997 10.0001 4.49997 13.3001C4.49997 13.5001 4.49997 13.6001 4.49997 13.8001C4.79997 13.8001 5.09997 13.8001 5.39997 13.8001C5.39997 12.5001 5.39997 11.3001 5.39997 10.1001C5.39997 7.80007 5.39997 5.50007 5.39997 3.20007C5.39997 2.50007 5.79997 2.10007 6.29997 2.20007C6.89997 2.30007 7.09997 2.70007 6.99997 3.30007C6.99997 5.70007 6.99997 8.20007 6.99997 10.6001C6.99997 11.6001 6.99997 12.7001 6.99997 13.8001C7.29997 13.8001 7.59997 13.8001 7.89997 13.8001C7.89997 13.5001 7.89997 13.1001 7.89997 12.8001C7.89997 9.70007 7.89997 6.60007 7.89997 3.50007C7.89997 3.20007 7.89997 3.00007 7.99997 2.80007C8.19997 2.50007 8.49997 2.20007 8.79997 2.20007C9.09997 2.20007 9.39997 2.60007 9.59997 2.80007C9.69998 3.00007 9.59997 3.30007 9.59997 3.50007C9.59997 7.10007 9.59997 10.7001 9.59997 14.3001C9.59997 16.1001 8.89997 17.5001 7.29997 18.4001C7.09997 18.5001 6.99997 18.9001 6.99997 19.1001C6.99997 26.0001 6.99997 32.8001 6.99997 39.7001C6.99997 41.1001 6.99997 42.6001 6.99997 44.0001C6.99997 44.9001 6.79997 45.1001 5.79997 45.1001C5.19997 45.1001 4.69997 45.1001 4.09997 45.1001C3.19997 45.1001 2.99997 44.8001 2.99997 44.0001C2.99997 40.7001 2.99997 37.5001 2.99997 34.2001C2.99997 29.1001 2.99997 24.1001 2.99997 19.0001C2.99997 18.8001 2.79997 18.4001 2.59997 18.3001C1.09997 17.4001 0.299974 16.0001 0.399974 14.2001C0.399974 10.6001 0.399974 7.00007 0.399974 3.40007C0.399974 3.20007 0.299974 2.90007 0.399974 2.80007C0.499974 2.60007 0.799974 2.20007 0.999974 2.20007C1.29997 2.20007 1.59997 2.50007 1.79997 2.80007C1.99997 2.90007 1.89997 3.30007 1.89997 3.50007C1.89997 6.60007 1.89997 9.70007 1.89997 12.8001C1.89997 13.1001 1.89997 13.4001 1.89997 13.8001ZM4.59997 19.0001C4.59997 20.5001 4.59997 22.0001 4.59997 23.5001C4.59997 29.9001 4.59997 36.4001 4.59997 42.8001C4.59997 43.5001 4.59997 43.5001 5.19997 43.4001C5.19997 35.3001 5.19997 27.1001 5.19997 19.0001C4.99997 19.0001 4.89997 19.0001 4.59997 19.0001ZM2.09997 15.5001C2.59997 16.8001 3.79997 17.5001 5.09997 17.3001C6.39997 17.2001 7.39997 16.5001 7.59997 15.5001C5.79997 15.5001 3.99997 15.5001 2.09997 15.5001Z" fill="#333333" stroke="#333333" stroke-width="0.5" stroke-miterlimit="10"/>
<path d="M64.8 32.9001C64.8 35.2001 64.8 37.4001 64.8 39.5001C64.8 41.0001 64.8 42.4001 64.8 43.9001C64.8 44.7001 64.5 45.0001 63.7 45.0001C63.1 45.0001 62.6 45.0001 62 45.0001C60.9 45.0001 60.7 44.8001 60.7 43.7001C60.7 40.7001 60.7 37.7001 60.7 34.7001C60.7 24.2001 60.7 13.7001 60.7 3.20008C60.7 3.00008 60.6 2.70008 60.7 2.50008C60.8 2.20008 61 1.90008 61.3 1.80008C61.5 1.70008 61.9 1.90008 62.1 2.00008C62.3 2.20008 62.5 2.50008 62.7 2.70008C65.9 6.80008 67.5 11.4001 67.7 16.5001C67.9 21.5001 67.8 26.6001 67.5 31.6001C67.4 32.7001 67.3 32.9001 66.1 32.9001C65.8 32.9001 65.3 32.9001 64.8 32.9001ZM65.9 31.2001C65.9 30.9001 66 30.7001 66 30.4001C66.1 26.0001 66.2 21.7001 66.2 17.3001C66.2 14.9001 65.9 12.4001 65.1 10.1001C64.5 8.40008 63.7 6.80008 62.6 5.10008C62.6 13.9001 62.6 22.5001 62.6 31.2001C63.6 31.2001 64.7 31.2001 65.9 31.2001ZM62.4 32.9001C62.4 36.4001 62.4 39.8001 62.4 43.2001C62.6 43.2001 62.8 43.2001 63 43.2001C63 39.7001 63 36.3001 63 32.9001C62.8 32.9001 62.7 32.9001 62.4 32.9001Z" fill="#333333" stroke="#333333" stroke-width="0.5" stroke-miterlimit="10"/>
<path d="M18.2 23.1C18.2 14.4 25.2 7.40002 33.9 7.40002C42.6 7.40002 49.7 14.4 49.7 23.1C49.7 31.8 42.6 38.8 33.9 38.8C25.2 38.9 18.2 31.9 18.2 23.1ZM33.9 9.10002C26.2 9.10002 19.7999 15.4 19.7999 23.1C19.7999 30.8 26.0999 37.2 33.7999 37.2C41.5 37.2 47.9 31 47.9 23.2C48 15.5 41.7 9.10002 33.9 9.10002Z" fill="#333333" stroke="#333333" stroke-width="0.5" stroke-miterlimit="10"/>
<path d="M25.4 4.40002C25.6 4.60002 25.9 4.80002 26 5.00002C26.1 5.30002 25.9 5.60002 25.8 5.90002C25.7 6.10002 25.4 6.10002 25.3 6.20002C22.6 7.70002 20.2 9.50002 18.5 12.1C18.1 12.7 17.7 12.8 17.2 12.5C16.8 12.2 16.7 11.8 17.1 11.2C19 8.30002 21.7 6.20002 24.7 4.60002C24.9 4.60002 25.1 4.50002 25.4 4.40002Z" fill="#333333" stroke="#333333" stroke-width="0.5" stroke-miterlimit="10"/>
</g>
<defs>
<clipPath id="clip0">
<rect width="68.1" height="46.4" fill="white"/>
</clipPath>
</defs>
</svg>
