<svg width="56" height="61" viewBox="0 0 56 61" fill="none" xmlns="http://www.w3.org/2000/svg">
<path d="M16.787 41.508C14.8441 41.006 13.1503 40.6545 11.5063 40.1525C9.86223 39.6002 8.51712 38.5961 8.21821 36.7385C8.11857 36.0356 8.16839 35.0817 8.56694 34.4792C9.76259 32.7722 9.91205 30.8644 10.0615 28.9064C10.4102 24.5887 10.6095 20.271 11.0579 15.9533C11.4564 12.4891 12.5026 9.17553 14.4954 6.2636C18.73 0.138492 27.2988 -1.81953 33.7255 1.84549C33.9247 1.9459 34.1738 2.09652 34.4229 2.14672C40.5008 2.89981 43.5398 6.86606 44.5361 12.5393C45.1838 16.3047 45.2336 20.1706 45.4329 23.9862C45.5823 26.5467 45.4827 29.1574 45.5823 31.7179C45.6322 32.4208 45.7816 33.2241 46.1303 33.8266C47.2762 35.8348 47.0769 37.7928 45.0841 38.9977C43.6394 39.9015 41.8957 40.3031 40.3015 40.9056C39.7037 41.1064 39.0063 41.1566 38.0099 41.3574C38.6575 41.7591 39.0062 42.0101 39.4546 42.2109C41.6466 43.215 43.8885 44.2191 46.1303 45.2233C51.3613 47.6833 54.6494 51.5492 54.9981 57.5739C55.1476 59.7829 53.9519 60.9879 51.7101 60.9879C35.6186 60.9879 19.5271 60.9879 3.4356 60.9879C0.845019 60.9879 -0.250995 59.5821 0.0479177 56.9714C0.595925 51.9508 3.18651 48.336 7.52074 46.0266C10.1113 44.6208 12.8015 43.5163 15.4918 42.2611C15.8405 42.0101 16.239 41.8093 16.787 41.508ZM11.4066 36.3871C15.0932 38.3451 19.1285 37.9936 22.9646 38.7969C22.4166 40.755 21.6195 42.4619 19.8758 43.5163C18.5805 44.3196 17.2354 45.0726 15.8903 45.7755C12.9012 47.2817 9.61313 48.1854 7.02256 50.3945C4.78071 52.2521 3.58506 54.6619 3.38578 57.6743C19.5271 57.6743 35.5189 57.6743 51.6104 57.6743C51.5606 55.3146 50.7635 53.3566 49.2689 51.6496C47.8242 49.9928 45.9809 48.9385 43.9881 47.9846C41.1485 46.6792 38.3088 45.2735 35.5189 43.8175C33.5262 42.7632 32.48 40.9558 31.9818 38.8471C35.8178 37.9936 39.903 38.3953 43.0416 36.4373C42.6928 34.2282 42.1947 32.3706 42.1448 30.513C41.9954 26.8982 42.1448 23.2331 42.0452 19.6183C41.9456 16.5558 41.6965 13.443 40.5008 10.5311C39.2553 7.51874 37.0633 5.81174 33.8749 5.4603C33.3767 5.4101 32.7789 5.25948 32.3803 5.00845C28.2454 2.29734 24.1104 3.15084 20.2245 5.4101C16.8867 7.31792 15.4419 10.7319 14.8441 14.3467C14.1466 18.815 13.8976 23.3838 13.499 27.9023C13.2997 30.7138 13.1503 33.6257 11.4066 36.3871Z" fill="#333333"/>
</svg>
