<svg width="56" height="49" viewBox="0 0 56 49" fill="none" xmlns="http://www.w3.org/2000/svg">
<path d="M28 6.70001C29 5.70001 30.3 4.40001 31.7 3.30001C34.3 1.20001 37.3 -0.0999863 40.7 1.37002e-05C48.7 0.200014 54.4 5.50001 55.3 12.9C56 18.4 54.2 23.1 51 27.4C48.5 30.8 45.3 33.4 42.2 36.1C39 38.8 35.8 41.5 32.7 44.3C31.5 45.4 30.5 46.6 29.4 47.8C28.3 49 27.3 49 26.2 47.8C23.3 44.4 19.8 41.7 16.5 38.8C13.5 36.2 10.5 33.7 7.59999 31C4.59999 28.2 2.19999 24.9 0.99999 20.9C-0.70001 15.1 -0.30001 9.70001 3.59999 5.00001C6.09999 2.00001 9.49999 0.600014 13.2 0.200014C17.9 -0.399986 21.7 1.50001 25.2 4.50001C26.1 5.20001 27.1 6.00001 28 6.70001ZM28 44.2C28.3 43.9 28.6 43.4 29 43.1C32.7 39.8 36.3 36.4 40 33.1C42.7 30.7 45.6 28.4 47.9 25.4C50.8 21.6 52.3 17.5 51.6 12.7C50.6 5.50001 42 1.30001 35.7 5.10001C33.4 6.50001 31.3 8.30001 29.6 10.4C28.3 12 27.3 12 25.9 10.5C24.5 9.00001 23 7.50001 21.4 6.20001C19 4.30001 16.3 3.30001 13.1 3.80001C8.99999 4.60001 5.89999 6.60001 4.49999 10.7C3.49999 13.4 3.49999 16.2 4.19999 19C5.29999 22.8 7.39999 25.9 10.3 28.5C16.1 33.7 22 38.9 28 44.2Z" fill="#333333"/>
</svg>
