<svg width="233" height="36" viewBox="0 0 233 36" fill="none" xmlns="http://www.w3.org/2000/svg">
<path d="M220.148 35.8121C219.681 35.7182 218.075 35.2861 217.141 34.7225C216.674 34.4407 216.226 34.1025 215.815 33.708C215.759 33.6516 215.665 33.614 215.497 33.4825C215.497 34.1025 215.497 34.6473 215.497 35.2297C212.695 35.2297 209.986 35.2297 207.203 35.2297C207.203 23.8448 207.203 12.4412 207.203 0.962402C209.912 0.962402 212.639 0.962402 215.422 0.962402C215.422 5.45247 215.422 9.92375 215.422 14.5829C215.721 14.3763 215.889 14.2635 216.02 14.132C217.552 12.7982 219.364 12.2345 221.344 12.0842C227.976 11.6334 232.515 16.9125 232.832 22.5486C232.851 22.8116 232.926 23.0558 232.982 23.3188C232.982 23.8073 232.982 24.2769 232.982 24.7654C232.832 25.686 232.758 26.6253 232.515 27.5083C231.898 29.8379 230.834 31.7541 229.265 33.2007C228.872 33.5577 227.266 34.9667 224.725 35.6054C223.903 35.8685 222.185 36.2066 220.148 35.8121ZM219.644 29.0112C221.998 29.0112 223.548 27.9592 224.239 26.1556C224.632 25.1411 224.669 24.0891 224.52 23.037C224.277 21.1583 222.913 19.599 221.195 19.1857C219.271 18.7348 217.346 19.4675 216.319 21.1207C215.18 22.9431 215.123 24.8406 216.17 26.7192C217.029 28.2222 218.355 28.9737 219.644 29.0112Z" fill="#FE6340"/>
<path d="M186.075 35.6054C185.253 35.3612 183.534 34.8352 182.208 33.2195C180.676 31.3408 180.303 28.7858 180.975 26.4374C181.479 24.709 182.619 23.4879 184.188 22.6613C185.832 21.7971 187.607 21.4401 189.437 21.3838C191.119 21.3274 192.8 21.365 194.462 21.365C194.724 21.365 194.985 21.365 195.228 21.365C195.62 20.0875 194.967 18.8287 193.734 18.4154C192.053 17.8518 190.67 18.6033 189.904 20.5759C187.345 20.0499 184.786 19.5426 182.152 18.9978C182.208 18.7536 182.227 18.5469 182.283 18.3591C183.198 15.6162 185.122 13.8314 187.812 12.9109C191.081 11.8024 194.425 11.7836 197.694 12.9109C201.038 14.0756 202.924 16.4992 203.317 20.0311C203.391 20.6886 203.429 21.365 203.429 22.0413C203.448 26.1556 203.429 30.2512 203.429 34.3655C203.429 34.6473 203.429 34.9291 203.429 35.2673C200.739 35.2673 198.124 35.2673 195.415 35.2673C195.378 34.8352 195.359 34.4031 195.322 33.8771C195.153 33.971 195.06 34.0086 194.967 34.0649C194.313 34.5534 193.64 34.9291 192.931 35.2297C191.959 35.6242 191.062 35.8309 189.848 35.9248C189.026 36 187.663 36.0939 186.075 35.6054ZM195.359 25.9865C194.107 25.9865 192.931 25.949 191.754 26.0053C191.268 26.0241 190.764 26.1932 190.334 26.4186C189.699 26.738 189.363 27.3204 189.381 28.0719C189.4 28.8046 189.755 29.3682 190.409 29.6876C191.698 30.2887 192.949 30.1009 194.07 29.293C195.21 28.5228 195.49 27.3768 195.359 25.9865Z" fill="#FE6340"/>
<path d="M108.72 35.6242C107.562 35.3424 104.2 34.4595 101.809 31.2469C100.669 29.7252 99.9405 27.884 99.679 25.8175C98.7263 18.1524 103.471 13.6999 108.477 12.5164C112.27 11.6146 115.912 12.0091 119.125 14.4514C121.61 16.3301 122.899 18.9415 123.31 21.9662C123.478 23.2812 123.478 24.6339 123.571 26.0429C118.247 26.0429 113.054 26.0429 107.88 26.0429C107.824 27.3392 109.019 28.8422 110.439 29.3118C111.971 29.8191 114.493 29.65 115.819 27.358C118.229 27.8277 120.694 28.3161 123.198 28.8234C122.394 30.9087 121.143 32.562 119.368 33.8019C116.958 35.4927 114.474 35.7745 113.334 35.8873C112.512 35.9812 110.813 36.1315 108.72 35.6242ZM115.389 21.4589C115.072 19.7305 113.671 18.6033 111.84 18.6033C109.916 18.6033 108.197 19.8432 107.917 21.4589C110.402 21.4589 112.886 21.4589 115.389 21.4589Z" fill="#FE6340"/>
<path d="M0 35.3236C0 27.884 0 20.5759 0 13.2114C2.83941 13.2114 5.62279 13.2114 8.49956 13.2114C8.49956 18.1524 8.49956 23.0558 8.49956 27.9216C8.61164 28.0155 8.649 28.0531 8.68636 28.0531C10.7225 28.0906 12.7587 28.2785 14.7575 27.7149C18.4001 26.6816 20.5484 23.4503 20.1561 19.4487C19.7638 15.3907 16.4947 12.7605 12.5158 12.6854C11.3763 12.6666 10.2182 12.6854 9.04129 12.6854C9.04129 10.2431 9.04129 7.89472 9.04129 5.54636C9.07865 5.52758 9.09733 5.47121 9.13469 5.45243C12.5158 5.33971 15.897 5.26456 19.1474 6.46692C24.3218 8.40197 27.703 11.9903 28.5809 17.5512C29.3842 22.5673 28.3941 27.1701 24.6581 30.8899C22.3043 33.2383 19.4089 34.5533 16.1398 35.023C14.7762 35.2297 13.3751 35.3048 11.9928 35.3048C8.27539 35.3424 4.558 35.3236 0.840616 35.3236C0.579091 35.3236 0.317566 35.3236 0 35.3236Z" fill="#FE6340"/>
<path d="M69.0989 35.2673C66.2782 35.2673 63.5695 35.2673 60.7675 35.2673C60.7675 34.9479 60.7675 34.6661 60.7675 34.3843C60.7675 30.7584 60.7675 27.1325 60.7675 23.5067C60.7675 22.9618 60.7114 22.3982 60.5807 21.8722C60.2631 20.651 59.4972 19.8244 58.227 19.6178C56.8072 19.3923 55.5557 19.7869 54.715 21.0456C54.0052 22.1352 53.8744 23.3751 53.8744 24.6339C53.8557 27.884 53.8744 31.1154 53.8744 34.3655C53.8744 34.6473 53.8744 34.9291 53.8744 35.2485C51.0724 35.2485 48.3637 35.2485 45.599 35.2485C45.599 27.7525 45.599 20.2941 45.599 12.7981C48.345 12.7981 51.0724 12.7981 53.8557 12.7981C53.8557 13.4932 53.8557 14.1508 53.8557 14.9774C54.136 14.752 54.3041 14.6392 54.4348 14.4889C57.1622 11.84 61.4026 11.483 64.4101 12.8545C67.1001 14.0944 68.4451 16.3489 68.9308 19.1857C69.0429 19.8244 69.0802 20.482 69.0802 21.1207C69.0989 25.6108 69.0802 30.1009 69.0802 34.5909C69.0989 34.8164 69.0989 35.023 69.0989 35.2673Z" fill="#FE6340"/>
<path d="M96.7271 35.2861C93.9064 35.2861 91.1978 35.2861 88.4144 35.2861C88.3957 34.9855 88.377 34.7037 88.377 34.4407C88.377 30.8336 88.377 27.2265 88.377 23.6194C88.377 23.0746 88.3397 22.511 88.2276 21.9662C87.9474 20.6887 86.976 19.7493 85.8178 19.5991C84.3421 19.4112 83.1092 19.8245 82.2872 21.1396C81.6521 22.1729 81.5027 23.3376 81.5027 24.54C81.484 27.8277 81.5027 31.1342 81.5027 34.4219C81.5027 34.6849 81.5027 34.9479 81.5027 35.2673C78.738 35.2673 76.0107 35.2673 73.246 35.2673C73.246 27.8089 73.246 20.3505 73.246 12.817C75.9546 12.817 78.6819 12.817 81.484 12.817C81.484 13.4933 81.484 14.1696 81.484 15.015C81.7829 14.752 81.9697 14.6205 82.1378 14.4514C84.8838 11.8025 89.2363 11.5207 92.1878 12.9485C94.8404 14.2448 96.1107 16.4992 96.5777 19.3172C96.7085 20.0875 96.7271 20.8953 96.7271 21.6844C96.7458 25.9302 96.7271 30.1949 96.7271 34.4407C96.7271 34.7037 96.7271 34.9667 96.7271 35.2861Z" fill="#FE6340"/>
<path d="M178.697 27.9592C178.697 30.439 178.697 32.825 178.697 35.2673C171.206 35.2673 163.734 35.2673 156.206 35.2673C156.206 25.3478 156.206 15.4283 156.206 5.45245C159.008 5.45245 161.791 5.45245 164.668 5.45245C164.668 12.9672 164.668 20.4256 164.668 27.9592C169.375 27.9592 174.027 27.9592 178.697 27.9592Z" fill="#FE6340"/>
<path d="M134.816 35.2861C132.014 35.2861 129.324 35.2861 126.578 35.2861C126.578 27.7902 126.578 20.3318 126.578 12.817C129.306 12.817 132.033 12.817 134.835 12.817C134.835 14.1884 134.835 15.5411 134.835 16.8938C134.872 16.9313 134.928 16.9501 134.966 16.9877C136.927 13.4745 139.916 12.1031 143.914 12.6479C143.802 15.4847 143.708 18.284 143.596 21.196C143.279 21.2147 142.98 21.2335 142.681 21.2523C141.56 21.365 140.421 21.365 139.337 21.6281C136.815 22.2104 135.283 23.9576 135.003 26.5502C134.854 27.9029 134.872 29.2743 134.854 30.6458C134.835 31.9608 134.854 33.2947 134.854 34.6098C134.835 34.8352 134.816 35.0607 134.816 35.2861Z" fill="#FE6340"/>
<path d="M40.9293 35.2861C38.2019 35.2861 35.512 35.2861 32.7286 35.2861C32.7286 27.8089 32.7286 20.3317 32.7286 12.817C35.4559 12.817 38.1459 12.817 40.9293 12.817C40.9293 20.2941 40.9293 27.7713 40.9293 35.2861Z" fill="#FE6340"/>
<path d="M36.7629 10.7128C34.0356 10.694 32.1302 8.81533 32.1302 6.11002C32.1489 3.555 34.2037 1.60116 36.8376 1.61995C39.4155 1.63873 41.4703 3.68651 41.4703 6.24152C41.4517 8.83412 39.4716 10.7128 36.7629 10.7128Z" fill="#FE6340"/>
</svg>
