<svg width="67" height="59" viewBox="0 0 67 59" fill="none" xmlns="http://www.w3.org/2000/svg">
<path d="M0.515075 27.5501H0.514752C1.33992 26.5024 2.15276 25.4795 2.95782 24.4664C4.11682 23.008 5.25969 21.5698 6.4 20.107C7.5403 21.5698 8.68316 23.0079 9.84215 24.4664C10.6472 25.4795 11.4601 26.5023 12.2852 27.5501H12.2839H12.2794H12.2749H12.2705H12.266H12.2616H12.2571H12.2527H12.2482H12.2438H12.2394H12.2349H12.2305H12.2261H12.2216H12.2172H12.2128H12.2083H12.2039H12.1995H12.1951H12.1906H12.1862H12.1818H12.1774H12.173H12.1685H12.1641H12.1597H12.1553H12.1509H12.1465H12.1421H12.1377H12.1333H12.1289H12.1245H12.1201H12.1157H12.1113H12.1069H12.1025H12.0982H12.0938H12.0894H12.085H12.0806H12.0762H12.0719H12.0675H12.0631H12.0587H12.0544H12.05H12.0456H12.0413H12.0369H12.0325H12.0282H12.0238H12.0195H12.0151H12.0107H12.0064H12.002H11.9977H11.9933H11.989H11.9846H11.9803H11.9759H11.9716H11.9673H11.9629H11.9586H11.9542H11.9499H11.9456H11.9412H11.9369H11.9326H11.9283H11.9239H11.9196H11.9153H11.911H11.9066H11.9023H11.898H11.8937H11.8894H11.8851H11.8807H11.8764H11.8721H11.8678H11.8635H11.8592H11.8549H11.8506H11.8463H11.842H11.8377H11.8334H11.8291H11.8248H11.8205H11.8162H11.8119H11.8076H11.8033H11.799H11.7948H11.7905H11.7862H11.7819H11.7776H11.7733H11.7691H11.7648H11.7605H11.7562H11.752H11.7477H11.7434H11.7392H11.7349H11.7306H11.7264H11.7221H11.7178H11.7136H11.7093H11.705H11.7008H11.6965H11.6923H11.688H11.6838H11.6795H11.6752H11.671H11.6667H11.6625H11.6583H11.654H11.6498H11.6455H11.6413H11.637H11.6328H11.6286H11.6243H11.6201H11.6158H11.6116H11.6074H11.6031H11.5989H11.5947H11.5904H11.5862H11.582H11.5778H11.5735H11.5693H11.5651H11.5609H11.5566H11.5524H11.5482H11.544H11.5398H11.5356H11.5313H11.5271H11.5229H11.5187H11.5145H11.5103H11.5061H11.5019H11.4977H11.4934H11.4892H11.485H11.4808H11.4766H11.4724H11.4682H11.464H11.4598H11.4556H11.4514H11.4472H11.443H11.4389H11.4347H11.4305H11.4263H11.4221H11.4179H11.4137H11.4095H11.4053H11.4011H11.397H11.3928H11.3886H11.3844H11.3802H11.376H11.3719H11.3677H11.3635H11.3593H11.3552H11.351H11.3468H11.3426H11.3385H11.3343H11.3301H11.3259H11.3218H11.3176H11.3134H11.3093H11.3051H11.3009H11.2968H11.2926H11.2884H11.2843H11.2801H11.2759H11.2718H11.2676H11.2635H11.2593H11.2551H11.251H11.2468H11.2427H11.2385H11.2344H11.2302H11.2261H11.2219H11.2177H11.2136H11.2094H11.2053H11.2011H11.197H11.1929H11.1887H11.1846H11.1804H11.1763H11.1721H11.168H11.1638H11.1597H11.1555H11.1514H11.1473H11.1431H11.139H11.1348H11.1307H11.1266H11.1224H11.1183H11.1142H11.11H11.1059H11.1017H11.0976H11.0935H11.0893H11.0852H11.0811H11.0769H11.0728H11.0687H11.0646H11.0604H11.0563H11.0522H11.048H11.0439H11.0398H11.0357H11.0315H11.0274H11.0233H11.0192H11.015H11.0109H11.0068H11.0027H10.9985H10.9944H10.9903H10.9862H10.982H10.9779H10.9738H10.9697H10.9656H10.9614H10.9573H10.9532H10.9491H10.945H10.9409H10.9367H10.9326H10.9285H10.9244H10.9203H10.9162H10.912H10.9079H10.9038H10.8997H10.8956H10.8915H10.8874H10.8833H10.8791H10.875H10.8709H10.8668H10.8627H10.8586H10.8545H10.8504H10.8463H10.8421H10.838H10.8339H10.8298H10.8257H10.8216H10.8175H10.8134H10.8093H10.8052H10.8011H10.797H10.7929H10.7887H10.7846H10.7805H10.7764H10.7723H10.7682H10.7641H10.76H10.7559H10.7518H10.7477H10.7436H10.7395H10.7354H10.7313H10.7272H10.7231H10.719H10.7149H10.7108H10.7067H10.7026H10.6984H10.6943H10.6902H10.6861H10.682H10.6779H10.6738H10.6697H10.6656H10.6615H10.6574H10.6533H10.6492H10.6451H10.641H10.6369H10.6328H10.6287H10.6246H10.6205H10.6164H10.6123H10.6082H10.6041H10.6C9.87183 27.5501 9.31093 27.7051 8.9413 28.1055C8.57621 28.501 8.45 29.0809 8.45 29.8001C8.45 40.7128 16.0255 50.612 26.535 53.4415L26.5352 53.4415C34.7892 55.656 42.3496 53.9538 48.9945 48.6447C49.093 48.6333 49.1706 48.606 49.2291 48.5827L50.7732 50.1268L52.2362 51.5898C52.1913 51.6268 52.1437 51.665 52.0938 51.7049L52.0879 51.7096C51.9709 51.8032 51.8413 51.9068 51.7334 52.0132C47.2663 55.5843 42.2153 57.9564 36.4788 58.451C23.2836 59.5421 12.1834 52.7997 7.02745 41.4963L7.02748 41.4963L7.02593 41.493C5.24332 37.7298 4.44959 33.8659 4.35 29.797C4.34967 29.0346 4.2254 28.4469 3.83928 28.0608C3.45264 27.6742 2.86385 27.5501 2.1 27.5501H2.09648H2.09296H2.08944H2.08592H2.08239H2.07887H2.07533H2.0718H2.06827H2.06473H2.06119H2.05765H2.0541H2.05056H2.04701H2.04346H2.0399H2.03635H2.03279H2.02923H2.02567H2.0221H2.01854H2.01497H2.01139H2.00782H2.00424H2.00067H1.99708H1.9935H1.98992H1.98633H1.98274H1.97915H1.97555H1.97195H1.96836H1.96475H1.96115H1.95754H1.95394H1.95032H1.94671H1.9431H1.93948H1.93586H1.93224H1.92861H1.92499H1.92136H1.91773H1.91409H1.91046H1.90682H1.90318H1.89954H1.89589H1.89224H1.88859H1.88494H1.88129H1.87763H1.87397H1.87031H1.86665H1.86298H1.85932H1.85565H1.85197H1.8483H1.84462H1.84094H1.83726H1.83358H1.82989H1.8262H1.82251H1.81882H1.81512H1.81143H1.80773H1.80402H1.80032H1.79661H1.7929H1.78919H1.78548H1.78176H1.77804H1.77432H1.7706H1.76688H1.76315H1.75942H1.75569H1.75195H1.74822H1.74448H1.74074H1.73699H1.73325H1.7295H1.72575H1.722H1.71824H1.71449H1.71073H1.70696H1.7032H1.69943H1.69567H1.69189H1.68812H1.68435H1.68057H1.67679H1.67301H1.66922H1.66543H1.66165H1.65785H1.65406H1.65026H1.64647H1.64267H1.63886H1.63506H1.63125H1.62744H1.62363H1.61981H1.616H1.61218H1.60836H1.60453H1.60071H1.59688H1.59305H1.58922H1.58538H1.58154H1.57771H1.57386H1.57002H1.56617H1.56232H1.55847H1.55462H1.55076H1.54691H1.54305H1.53918H1.53532H1.53145H1.52758H1.52371H1.51984H1.51596H1.51208H1.5082H1.50432H1.50043H1.49655H1.49266H1.48877H1.48487H1.48097H1.47708H1.47317H1.46927H1.46536H1.46146H1.45755H1.45363H1.44972H1.4458H1.44188H1.43796H1.43404H1.43011H1.42618H1.42225H1.41832H1.41438H1.41044H1.4065H1.40256H1.39861H1.39467H1.39072H1.38677H1.38281H1.37886H1.3749H1.37094H1.36697H1.36301H1.35904H1.35507H1.3511H1.34712H1.34315H1.33917H1.33519H1.3312H1.32722H1.32323H1.31924H1.31525H1.31125H1.30725H1.30325H1.29925H1.29525H1.29124H1.28723H1.28322H1.27921H1.27519H1.27117H1.26715H1.26313H1.25911H1.25508H1.25105H1.24702H1.24298H1.23895H1.23491H1.23087H1.22682H1.22278H1.21873H1.21468H1.21063H1.20657H1.20252H1.19846H1.1944H1.19033H1.18627H1.1822H1.17813H1.17405H1.16998H1.1659H1.16182H1.15774H1.15365H1.14957H1.14548H1.14139H1.13729H1.1332H1.1291H1.125H1.1209H1.11679H1.11268H1.10858H1.10446H1.10035H1.09623H1.09211H1.08799H1.08387H1.07974H1.07562H1.07149H1.06735H1.06322H1.05908H1.05494H1.0508H1.04666H1.04251H1.03836H1.03421H1.03006H1.0259H1.02175H1.01759H1.01342H1.00926H1.00509H1.00092H0.996752H0.992578H0.988402H0.984224H0.980043H0.975861H0.971675H0.967488H0.963298H0.959106H0.954912H0.950716H0.946517H0.942316H0.938112H0.933906H0.929699H0.925488H0.921276H0.917061H0.912844H0.908624H0.904402H0.900178H0.895952H0.891724H0.887493H0.88326H0.879024H0.874786H0.870546H0.866304H0.862059H0.857812H0.853563H0.849312H0.845058H0.840802H0.836544H0.832283H0.82802H0.823755H0.819487H0.815218H0.810946H0.806671H0.802394H0.798115H0.793834H0.789551H0.785265H0.780977H0.776686H0.772394H0.768099H0.763802H0.759502H0.7552H0.750896H0.74659H0.742281H0.73797H0.733657H0.729341H0.725023H0.720703H0.716381H0.712056H0.707729H0.7034H0.699068H0.694734H0.690398H0.68606H0.681719H0.677376H0.67303H0.668683H0.664333H0.659981H0.655626H0.651269H0.64691H0.642549H0.638186H0.63382H0.629451H0.625081H0.620708H0.616333H0.611956H0.607576H0.603194H0.59881H0.594423H0.590034H0.585643H0.58125H0.576854H0.572456H0.568056H0.563654H0.559249H0.554842H0.550432H0.546021H0.541606H0.53719H0.532772H0.528351H0.523928H0.519502H0.515075Z" fill="#333333" stroke="white" stroke-width="0.5"/>
<path d="M65.5158 31.5328L65.5161 31.5328C64.6989 32.5868 63.8939 33.6158 63.0966 34.6349C61.9487 36.1022 60.8168 37.549 59.6876 39.0204C58.5362 37.5663 57.3825 36.1369 56.2124 34.6873C55.3997 33.6803 54.5791 32.6637 53.746 31.6223L53.7474 31.6223L53.7518 31.6223L53.7563 31.6222L53.7607 31.6222L53.7652 31.6221L53.7696 31.6221L53.7741 31.6221L53.7785 31.622L53.783 31.622L53.7874 31.622L53.7919 31.6219L53.7963 31.6219L53.8007 31.6219L53.8052 31.6218L53.8096 31.6218L53.814 31.6218L53.8185 31.6217L53.8229 31.6217L53.8273 31.6217L53.8317 31.6216L53.8362 31.6216L53.8406 31.6216L53.845 31.6215L53.8494 31.6215L53.8538 31.6215L53.8583 31.6214L53.8627 31.6214L53.8671 31.6214L53.8715 31.6213L53.8759 31.6213L53.8803 31.6213L53.8847 31.6212L53.8891 31.6212L53.8935 31.6212L53.8979 31.6211L53.9023 31.6211L53.9067 31.6211L53.9111 31.621L53.9155 31.621L53.9199 31.621L53.9243 31.6209L53.9287 31.6209L53.9331 31.6209L53.9374 31.6208L53.9418 31.6208L53.9462 31.6208L53.9506 31.6207L53.955 31.6207L53.9593 31.6207L53.9637 31.6206L53.9681 31.6206L53.9725 31.6206L53.9768 31.6205L53.9812 31.6205L53.9856 31.6205L53.9899 31.6204L53.9943 31.6204L53.9987 31.6204L54.003 31.6203L54.0074 31.6203L54.0118 31.6203L54.0161 31.6202L54.0205 31.6202L54.0248 31.6202L54.0292 31.6201L54.0335 31.6201L54.0379 31.6201L54.0422 31.62L54.0466 31.62L54.0509 31.62L54.0553 31.6199L54.0596 31.6199L54.0639 31.6199L54.0683 31.6198L54.0726 31.6198L54.077 31.6198L54.0813 31.6197L54.0856 31.6197L54.09 31.6197L54.0943 31.6196L54.0986 31.6196L54.103 31.6196L54.1073 31.6195L54.1116 31.6195L54.1159 31.6195L54.1202 31.6194L54.1246 31.6194L54.1289 31.6194L54.1332 31.6194L54.1375 31.6193L54.1418 31.6193L54.1462 31.6193L54.1505 31.6192L54.1548 31.6192L54.1591 31.6192L54.1634 31.6191L54.1677 31.6191L54.172 31.6191L54.1763 31.619L54.1806 31.619L54.1849 31.619L54.1892 31.6189L54.1935 31.6189L54.1978 31.6189L54.2021 31.6188L54.2064 31.6188L54.2107 31.6188L54.215 31.6187L54.2193 31.6187L54.2236 31.6187L54.2279 31.6186L54.2322 31.6186L54.2364 31.6186L54.2407 31.6185L54.245 31.6185L54.2493 31.6185L54.2536 31.6184L54.2579 31.6184L54.2621 31.6184L54.2664 31.6183L54.2707 31.6183L54.275 31.6183L54.2792 31.6182L54.2835 31.6182L54.2878 31.6182L54.292 31.6181L54.2963 31.6181L54.3006 31.6181L54.3048 31.618L54.3091 31.618L54.3134 31.618L54.3176 31.6179L54.3219 31.6179L54.3262 31.6179L54.3304 31.6179L54.3347 31.6178L54.3389 31.6178L54.3432 31.6178L54.3474 31.6177L54.3517 31.6177L54.3559 31.6177L54.3602 31.6176L54.3645 31.6176L54.3687 31.6176L54.3729 31.6175L54.3772 31.6175L54.3814 31.6175L54.3857 31.6174L54.3899 31.6174L54.3942 31.6174L54.3984 31.6173L54.4026 31.6173L54.4069 31.6173L54.4111 31.6172L54.4154 31.6172L54.4196 31.6172L54.4238 31.6171L54.4281 31.6171L54.4323 31.6171L54.4365 31.617L54.4408 31.617L54.445 31.617L54.4492 31.6169L54.4534 31.6169L54.4577 31.6169L54.4619 31.6169L54.4661 31.6168L54.4703 31.6168L54.4746 31.6168L54.4788 31.6167L54.483 31.6167L54.4872 31.6167L54.4914 31.6166L54.4956 31.6166L54.4999 31.6166L54.5041 31.6165L54.5083 31.6165L54.5125 31.6165L54.5167 31.6164L54.5209 31.6164L54.5251 31.6164L54.5293 31.6163L54.5335 31.6163L54.5377 31.6163L54.542 31.6162L54.5462 31.6162L54.5504 31.6162L54.5546 31.6161L54.5588 31.6161L54.563 31.6161L54.5672 31.6161L54.5714 31.616L54.5756 31.616L54.5798 31.616L54.584 31.6159L54.5881 31.6159L54.5923 31.6159L54.5965 31.6158L54.6007 31.6158L54.6049 31.6158L54.6091 31.6157L54.6133 31.6157L54.6175 31.6157L54.6217 31.6156L54.6259 31.6156L54.63 31.6156L54.6342 31.6155L54.6384 31.6155L54.6426 31.6155L54.6468 31.6154L54.651 31.6154L54.6551 31.6154L54.6593 31.6154L54.6635 31.6153L54.6677 31.6153L54.6719 31.6153L54.676 31.6152L54.6802 31.6152L54.6844 31.6152L54.6886 31.6151L54.6927 31.6151L54.6969 31.6151L54.7011 31.615L54.7053 31.615L54.7094 31.615L54.7136 31.6149L54.7178 31.6149L54.7219 31.6149L54.7261 31.6148L54.7303 31.6148L54.7344 31.6148L54.7386 31.6147L54.7428 31.6147L54.7469 31.6147L54.7511 31.6147L54.7552 31.6146L54.7594 31.6146L54.7636 31.6146L54.7677 31.6145L54.7719 31.6145L54.776 31.6145L54.7802 31.6144L54.7844 31.6144L54.7885 31.6144L54.7927 31.6143L54.7968 31.6143L54.801 31.6143L54.8051 31.6142L54.8093 31.6142L54.8134 31.6142L54.8176 31.6141L54.8217 31.6141L54.8259 31.6141L54.83 31.6141L54.8342 31.614L54.8383 31.614L54.8425 31.614L54.8466 31.6139L54.8508 31.6139L54.8549 31.6139L54.8591 31.6138L54.8632 31.6138L54.8674 31.6138L54.8715 31.6137L54.8756 31.6137L54.8798 31.6137L54.8839 31.6136L54.8881 31.6136L54.8922 31.6136L54.8963 31.6135L54.9005 31.6135L54.9046 31.6135L54.9088 31.6135L54.9129 31.6134L54.917 31.6134L54.9212 31.6134L54.9253 31.6133L54.9294 31.6133L54.9336 31.6133L54.9377 31.6132L54.9418 31.6132L54.946 31.6132L54.9501 31.6131L54.9542 31.6131L54.9584 31.6131L54.9625 31.613L54.9666 31.613L54.9708 31.613L54.9749 31.613L54.979 31.6129L54.9831 31.6129L54.9873 31.6129L54.9914 31.6128L54.9955 31.6128L54.9997 31.6128L55.0038 31.6127L55.0079 31.6127L55.012 31.6127L55.0162 31.6126L55.0203 31.6126L55.0244 31.6126L55.0285 31.6125L55.0326 31.6125L55.0368 31.6125L55.0409 31.6125L55.045 31.6124L55.0491 31.6124L55.0533 31.6124L55.0574 31.6123L55.0615 31.6123L55.0656 31.6123L55.0697 31.6122L55.0739 31.6122L55.078 31.6122L55.0821 31.6121L55.0862 31.6121L55.0903 31.6121L55.0944 31.612L55.0986 31.612L55.1027 31.612L55.1068 31.6119L55.1109 31.6119L55.115 31.6119L55.1191 31.6119L55.1232 31.6118L55.1274 31.6118L55.1315 31.6118L55.1356 31.6117L55.1397 31.6117L55.1438 31.6117L55.1479 31.6116L55.152 31.6116L55.1561 31.6116L55.1603 31.6115L55.1644 31.6115L55.1685 31.6115L55.1726 31.6114L55.1767 31.6114L55.1808 31.6114L55.1849 31.6114L55.189 31.6113L55.1931 31.6113L55.1972 31.6113L55.2014 31.6112L55.2055 31.6112L55.2096 31.6112L55.2137 31.6111L55.2178 31.6111L55.2219 31.6111L55.226 31.611L55.2301 31.611L55.2342 31.611L55.2383 31.6109L55.2424 31.6109L55.2465 31.6109L55.2506 31.6109L55.2547 31.6108L55.2589 31.6108L55.263 31.6108L55.2671 31.6107L55.2712 31.6107L55.2753 31.6107L55.2794 31.6106L55.2835 31.6106L55.2876 31.6106L55.2917 31.6105L55.2958 31.6105L55.2999 31.6105L55.304 31.6104L55.3081 31.6104L55.3122 31.6104L55.3163 31.6104L55.3204 31.6103L55.3245 31.6103L55.3286 31.6103L55.3327 31.6102L55.3368 31.6102L55.3409 31.6102L55.345 31.6101L55.3491 31.6101L55.3532 31.6101L55.3573 31.61L55.3614 31.61L55.3655 31.61L55.3696 31.61L55.3737 31.6099L55.3778 31.6099L55.3819 31.6099L55.3861 31.6098L55.3902 31.6098L55.3943 31.6098L55.3984 31.6097L55.4025 31.6097L55.4066 31.6097L55.4107 31.6096L55.4148 31.6096L55.4189 31.6096L55.423 31.6095L55.4271 31.6095L55.4312 31.6095C56.1593 31.6039 56.719 31.4447 57.0856 31.0415C57.4477 30.6432 57.5695 30.0623 57.564 29.3432C57.481 18.4308 49.8305 8.58947 39.2998 5.83998L39.2996 5.83993C31.029 3.68826 23.4818 5.44795 16.8774 10.8074C16.779 10.8195 16.7016 10.8474 16.6433 10.8712L16.6396 10.8675L16.6331 10.8611L16.6266 10.8547L16.6201 10.8483L16.6136 10.8419L16.6071 10.8355L16.6006 10.8291L16.5941 10.8227L16.5876 10.8163L16.5811 10.8099L16.5746 10.8035L16.5681 10.7971L16.5616 10.7907L16.5551 10.7843L16.5486 10.7779L16.5421 10.7715L16.5356 10.7651L16.5292 10.7587L16.5227 10.7523L16.5162 10.7459L16.5097 10.7395L16.5032 10.7332L16.4967 10.7268L16.4902 10.7204L16.4837 10.714L16.4772 10.7076L16.4707 10.7012L16.4642 10.6948L16.4577 10.6884L16.4512 10.682L16.4447 10.6756L16.4382 10.6692L16.4317 10.6628L16.4252 10.6564L16.4188 10.65L16.4123 10.6436L16.4058 10.6372L16.3993 10.6308L16.3928 10.6244L16.3863 10.618L16.3798 10.6116L16.3733 10.6052L16.3668 10.5988L16.3603 10.5924L16.3538 10.586L16.3473 10.5796L16.3408 10.5732L16.3343 10.5669L16.3278 10.5605L16.3213 10.5541L16.3148 10.5477L16.3084 10.5413L16.3019 10.5349L16.2954 10.5285L16.2889 10.5221L16.2824 10.5157L16.2759 10.5093L16.2694 10.5029L16.2629 10.4965L16.2564 10.4901L16.2499 10.4837L16.2434 10.4773L16.2369 10.4709L16.2304 10.4645L16.2239 10.4581L16.2174 10.4517L16.2109 10.4453L16.2044 10.4389L16.198 10.4325L16.1915 10.4261L16.185 10.4197L16.1785 10.4133L16.172 10.4069L16.1655 10.4006L16.159 10.3942L16.1525 10.3878L16.146 10.3814L16.1395 10.375L16.133 10.3686L16.1265 10.3622L16.12 10.3558L16.1135 10.3494L16.107 10.343L16.1005 10.3366L16.094 10.3302L16.0876 10.3238L16.0811 10.3174L16.0746 10.311L16.0681 10.3046L16.0616 10.2982L16.0551 10.2918L16.0486 10.2854L16.0421 10.279L16.0356 10.2726L16.0291 10.2662L16.0226 10.2598L16.0161 10.2534L16.0096 10.247L16.0031 10.2406L15.9966 10.2343L15.9901 10.2279L15.9836 10.2215L15.9772 10.2151L15.9707 10.2087L15.9642 10.2023L15.9577 10.1959L15.9512 10.1895L15.9447 10.1831L15.9382 10.1767L15.9317 10.1703L15.9252 10.1639L15.9187 10.1575L15.9122 10.1511L15.9057 10.1447L15.8992 10.1383L15.8927 10.1319L15.8862 10.1255L15.8797 10.1191L15.8732 10.1127L15.8667 10.1063L15.8603 10.0999L15.8538 10.0935L15.8473 10.0871L15.8408 10.0807L15.8343 10.0744L15.8278 10.068L15.8213 10.0616L15.8148 10.0552L15.8083 10.0488L15.8018 10.0424L15.7953 10.036L15.7888 10.0296L15.7823 10.0232L15.7758 10.0168L15.7693 10.0104L15.7628 10.004L15.7564 9.9976L15.7499 9.9912L15.7434 9.9848L15.7369 9.97841L15.7304 9.97201L15.7239 9.96562L15.7174 9.95922L15.7109 9.95282L15.7044 9.94643L15.6979 9.94003L15.6914 9.93364L15.6849 9.92724L15.6784 9.92084L15.6719 9.91445L15.6654 9.90805L15.6589 9.90166L15.6524 9.89526L15.646 9.88886L15.6395 9.88247L15.633 9.87607L15.6265 9.86968L15.62 9.86328L15.6135 9.85688L15.607 9.85049L15.6005 9.84409L15.594 9.8377L15.5875 9.8313L15.581 9.8249L15.5745 9.81851L15.568 9.81211L15.5615 9.80571L15.555 9.79932L15.5485 9.79292L15.542 9.78653L15.5356 9.78013L15.5291 9.77373L15.5226 9.76734L15.5161 9.76094L15.5096 9.75454L15.5031 9.74815L15.4966 9.74175L15.4901 9.73536L15.4836 9.72896L15.4771 9.72256L15.4706 9.71617L15.4641 9.70977L15.4576 9.70338L15.4511 9.69698L15.4446 9.69058L15.4381 9.68419L15.4316 9.67779L15.4252 9.67139L15.4187 9.665L15.4122 9.6586L15.4057 9.65221L15.3992 9.64581L15.3927 9.63941L15.3862 9.63302L15.3797 9.62662L15.3732 9.62023L15.3667 9.61383L15.3602 9.60743L15.3537 9.60104L15.3472 9.59464L15.3407 9.58825L15.3342 9.58185L15.3277 9.57545L15.3212 9.56906L15.3147 9.56266L15.3083 9.55627L15.3018 9.54987L15.2953 9.54347L15.2888 9.53708L15.2823 9.53068L15.2758 9.52428L15.2693 9.51789L15.2628 9.51149L15.2563 9.5051L15.2498 9.4987L15.2433 9.4923L15.2368 9.48591L15.2303 9.47951L15.2238 9.47312L15.2173 9.46672L15.2108 9.46032L15.2043 9.45393L15.1979 9.44753L15.1914 9.44113L15.1849 9.43474L15.1784 9.42834L15.1719 9.42195L15.1654 9.41555L15.1589 9.40915L15.1524 9.40276L15.1459 9.39636L15.1394 9.38997L15.1329 9.38357L15.1264 9.37717L15.1199 9.37078L15.1134 9.36438L15.1069 9.35799L15.1004 9.35159L15.0939 9.34519L15.0875 9.3388L15.081 9.3324L15.0745 9.32601L15.068 9.31961L15.0615 9.31321L15.055 9.30682L15.0485 9.30042L15.042 9.29402L15.0355 9.28763L15.029 9.28123L15.0225 9.27484L15.016 9.26844L15.0095 9.26204L15.003 9.25565L14.9965 9.24925L14.99 9.24286L14.9836 9.23646L14.9771 9.23006L14.9706 9.22367L14.9641 9.21727L14.9576 9.21087L14.9511 9.20448L14.9446 9.19808L14.9381 9.19169L14.9316 9.18529L14.9251 9.17889L14.9186 9.1725L14.9121 9.1661L14.9056 9.15971L14.8991 9.15331L14.8926 9.14691L14.8861 9.14052L14.8796 9.13412L14.8732 9.12773L14.8667 9.12133L14.8602 9.11493L14.8537 9.10854L14.8472 9.10214L14.8407 9.09575L14.8342 9.08935L14.8277 9.08295L14.8212 9.07656L14.8147 9.07016L14.8082 9.06376L14.8017 9.05737L14.7952 9.05097L14.7887 9.04458L14.7822 9.03818L14.7757 9.03178L14.7692 9.02539L14.7627 9.01899L14.7563 9.0126L14.7498 9.0062L14.7433 8.9998L14.7368 8.99341L14.7303 8.98701L14.7238 8.98061L14.7173 8.97422L14.7108 8.96782L14.7043 8.96143L14.6978 8.95503L14.6913 8.94863L14.6848 8.94224L14.6783 8.93584L14.6718 8.92944L14.6653 8.92305L14.6588 8.91665L14.6523 8.91026L14.6459 8.90386L14.6394 8.89746L14.6329 8.89107L14.6264 8.88467L14.6199 8.87828L14.6134 8.87188L14.6069 8.86548L14.6004 8.85909L14.5939 8.85269L14.5874 8.8463L14.5809 8.8399L14.5744 8.8335L14.5679 8.82711L14.5614 8.82071L14.5549 8.81432L14.5484 8.80792L14.5419 8.80152L14.5355 8.79513L14.529 8.78873L14.5225 8.78234L14.516 8.77594L14.5095 8.76954L14.503 8.76315L14.4965 8.75675L14.49 8.75035L14.4835 8.74396L14.477 8.73756L14.4705 8.73117L14.464 8.72477L14.4575 8.71837L14.451 8.71198L14.4445 8.70558L14.438 8.69918L14.4315 8.69279L14.4251 8.68639L14.4186 8.68L14.4121 8.6736L14.4056 8.6672L14.3991 8.66081L14.3926 8.65441L14.3861 8.64802L14.3796 8.64162L14.3731 8.63522L14.3666 8.62883L14.3601 8.62243L14.3536 8.61604L14.3471 8.60964L14.3406 8.60324L14.3341 8.59685L14.3276 8.59045L14.3211 8.58406L14.3147 8.57766L14.3082 8.57126L14.3017 8.56487L14.2952 8.55847L14.2887 8.55208L14.2822 8.54568L14.2757 8.53928L14.2692 8.53289L14.2627 8.52649L14.2562 8.52009L14.2497 8.5137L14.2432 8.5073L14.2367 8.50091L14.2302 8.49451L14.2237 8.48811L14.2172 8.48172L14.2108 8.47532L14.2043 8.46892L14.1978 8.46253L14.1913 8.45613L14.1848 8.44974L14.1783 8.44334L14.1718 8.43694L14.1653 8.43055L14.1588 8.42415L14.1523 8.41775L14.1458 8.41136L14.1393 8.40496L14.1328 8.39857L14.1263 8.39217L14.1198 8.38577L14.1133 8.37938L14.1068 8.37298L14.1003 8.36659L14.0939 8.36019L14.0874 8.35379L14.0809 8.3474L14.0744 8.341L14.0679 8.33461L14.0614 8.32821L14.0549 8.32181L14.0484 8.31542L14.0419 8.30902L14.0354 8.30263L14.0289 8.29623L14.0224 8.28983L14.0159 8.28344L14.0094 8.27704L14.0029 8.27065L13.9964 8.26425L13.9899 8.25785L13.9835 8.25146L13.977 8.24506L13.9705 8.23866L13.964 8.23227L13.9575 8.22587L13.951 8.21948L13.9445 8.21308L13.938 8.20668L13.9315 8.20029L13.925 8.19389L13.9185 8.18749L13.912 8.1811L13.9055 8.1747L13.899 8.16831L13.8925 8.16191L13.886 8.15551L13.8795 8.14912L13.8731 8.14272L13.8666 8.13633L13.8601 8.12993L13.8536 8.12353L13.8471 8.11714L13.8406 8.11074L13.8341 8.10435L13.8276 8.09795L13.8211 8.09155L13.8146 8.08516L13.8081 8.07876L13.8016 8.07237L13.7951 8.06597L13.7886 8.05957L13.7821 8.05318L13.7756 8.04678L13.7691 8.04039L13.7627 8.03399L13.7562 8.02759L13.7497 8.0212L13.7432 8.0148L13.7367 8.0084L13.7302 8.00201L13.7237 7.99561L13.7172 7.98922L13.7107 7.98282L13.7042 7.97642L13.6977 7.97003L13.6912 7.96363L13.6847 7.95723L13.6782 7.95084L13.6717 7.94444L13.6652 7.93805L13.6587 7.93165L13.6523 7.92525L13.6458 7.91886L13.6393 7.91246L13.6328 7.90607L13.6263 7.89967L13.6198 7.89327L13.6134 7.88701C13.658 7.84969 13.7053 7.81115 13.7549 7.77087L13.7609 7.76602C13.8771 7.67158 14.0059 7.56696 14.113 7.45981C18.5528 3.85485 23.5856 1.44442 29.3182 0.906231C42.5047 -0.285152 53.6558 6.3726 58.8976 17.6365L58.8976 17.6365L58.8991 17.6397C60.7103 21.3894 61.5334 25.2471 61.6639 29.3151C61.67 30.0774 61.7988 30.6642 62.1878 31.0474C62.5774 31.4311 63.1671 31.5507 63.9309 31.5449L63.9344 31.5448L63.938 31.5448L63.9415 31.5448L63.945 31.5447L63.9485 31.5447L63.9521 31.5447L63.9556 31.5447L63.9591 31.5446L63.9627 31.5446L63.9662 31.5446L63.9697 31.5446L63.9733 31.5445L63.9768 31.5445L63.9804 31.5445L63.9839 31.5445L63.9875 31.5444L63.991 31.5444L63.9946 31.5444L63.9981 31.5443L64.0017 31.5443L64.0053 31.5443L64.0088 31.5443L64.0124 31.5442L64.016 31.5442L64.0195 31.5442L64.0231 31.5442L64.0267 31.5441L64.0303 31.5441L64.0338 31.5441L64.0374 31.544L64.041 31.544L64.0446 31.544L64.0482 31.544L64.0518 31.5439L64.0554 31.5439L64.059 31.5439L64.0626 31.5439L64.0662 31.5438L64.0698 31.5438L64.0734 31.5438L64.077 31.5437L64.0806 31.5437L64.0842 31.5437L64.0878 31.5437L64.0914 31.5436L64.0951 31.5436L64.0987 31.5436L64.1023 31.5436L64.1059 31.5435L64.1096 31.5435L64.1132 31.5435L64.1168 31.5434L64.1205 31.5434L64.1241 31.5434L64.1277 31.5434L64.1314 31.5433L64.135 31.5433L64.1387 31.5433L64.1423 31.5432L64.146 31.5432L64.1496 31.5432L64.1533 31.5432L64.1569 31.5431L64.1606 31.5431L64.1643 31.5431L64.1679 31.5431L64.1716 31.543L64.1753 31.543L64.1789 31.543L64.1826 31.5429L64.1863 31.5429L64.19 31.5429L64.1937 31.5429L64.1973 31.5428L64.201 31.5428L64.2047 31.5428L64.2084 31.5427L64.2121 31.5427L64.2158 31.5427L64.2195 31.5427L64.2232 31.5426L64.2269 31.5426L64.2306 31.5426L64.2343 31.5426L64.238 31.5425L64.2417 31.5425L64.2454 31.5425L64.2492 31.5424L64.2529 31.5424L64.2566 31.5424L64.2603 31.5424L64.264 31.5423L64.2678 31.5423L64.2715 31.5423L64.2752 31.5422L64.279 31.5422L64.2827 31.5422L64.2864 31.5422L64.2902 31.5421L64.2939 31.5421L64.2977 31.5421L64.3014 31.542L64.3052 31.542L64.3089 31.542L64.3127 31.542L64.3164 31.5419L64.3202 31.5419L64.3239 31.5419L64.3277 31.5418L64.3315 31.5418L64.3352 31.5418L64.339 31.5418L64.3428 31.5417L64.3466 31.5417L64.3503 31.5417L64.3541 31.5416L64.3579 31.5416L64.3617 31.5416L64.3655 31.5416L64.3693 31.5415L64.3731 31.5415L64.3768 31.5415L64.3806 31.5414L64.3844 31.5414L64.3882 31.5414L64.392 31.5414L64.3959 31.5413L64.3997 31.5413L64.4035 31.5413L64.4073 31.5412L64.4111 31.5412L64.4149 31.5412L64.4187 31.5411L64.4226 31.5411L64.4264 31.5411L64.4302 31.5411L64.434 31.541L64.4379 31.541L64.4417 31.541L64.4455 31.5409L64.4494 31.5409L64.4532 31.5409L64.457 31.5409L64.4609 31.5408L64.4647 31.5408L64.4686 31.5408L64.4724 31.5407L64.4763 31.5407L64.4801 31.5407L64.484 31.5407L64.4879 31.5406L64.4917 31.5406L64.4956 31.5406L64.4995 31.5405L64.5033 31.5405L64.5072 31.5405L64.5111 31.5404L64.5149 31.5404L64.5188 31.5404L64.5227 31.5404L64.5266 31.5403L64.5305 31.5403L64.5344 31.5403L64.5382 31.5402L64.5421 31.5402L64.546 31.5402L64.5499 31.5402L64.5538 31.5401L64.5577 31.5401L64.5616 31.5401L64.5655 31.54L64.5694 31.54L64.5734 31.54L64.5773 31.5399L64.5812 31.5399L64.5851 31.5399L64.589 31.5399L64.5929 31.5398L64.5969 31.5398L64.6008 31.5398L64.6047 31.5397L64.6087 31.5397L64.6126 31.5397L64.6165 31.5396L64.6205 31.5396L64.6244 31.5396L64.6283 31.5396L64.6323 31.5395L64.6362 31.5395L64.6402 31.5395L64.6441 31.5394L64.6481 31.5394L64.652 31.5394L64.656 31.5393L64.66 31.5393L64.6639 31.5393L64.6679 31.5393L64.6719 31.5392L64.6758 31.5392L64.6798 31.5392L64.6838 31.5391L64.6878 31.5391L64.6917 31.5391L64.6957 31.539L64.6997 31.539L64.7037 31.539L64.7077 31.539L64.7117 31.5389L64.7157 31.5389L64.7196 31.5389L64.7236 31.5388L64.7276 31.5388L64.7316 31.5388L64.7357 31.5387L64.7397 31.5387L64.7437 31.5387L64.7477 31.5386L64.7517 31.5386L64.7557 31.5386L64.7597 31.5386L64.7637 31.5385L64.7678 31.5385L64.7718 31.5385L64.7758 31.5384L64.7798 31.5384L64.7839 31.5384L64.7879 31.5383L64.792 31.5383L64.796 31.5383L64.8 31.5382L64.8041 31.5382L64.8081 31.5382L64.8122 31.5382L64.8162 31.5381L64.8203 31.5381L64.8243 31.5381L64.8284 31.538L64.8324 31.538L64.8365 31.538L64.8406 31.5379L64.8446 31.5379L64.8487 31.5379L64.8528 31.5378L64.8568 31.5378L64.8609 31.5378L64.865 31.5378L64.8691 31.5377L64.8732 31.5377L64.8772 31.5377L64.8813 31.5376L64.8854 31.5376L64.8895 31.5376L64.8936 31.5375L64.8977 31.5375L64.9018 31.5375L64.9059 31.5374L64.91 31.5374L64.9141 31.5374L64.9182 31.5374L64.9223 31.5373L64.9264 31.5373L64.9305 31.5373L64.9347 31.5372L64.9388 31.5372L64.9429 31.5372L64.947 31.5371L64.9511 31.5371L64.9553 31.5371L64.9594 31.537L64.9635 31.537L64.9677 31.537L64.9718 31.5369L64.9759 31.5369L64.9801 31.5369L64.9842 31.5368L64.9884 31.5368L64.9925 31.5368L64.9967 31.5368L65.0008 31.5367L65.005 31.5367L65.0091 31.5367L65.0133 31.5366L65.0175 31.5366L65.0216 31.5366L65.0258 31.5365L65.03 31.5365L65.0341 31.5365L65.0383 31.5364L65.0425 31.5364L65.0467 31.5364L65.0508 31.5363L65.055 31.5363L65.0592 31.5363L65.0634 31.5362L65.0676 31.5362L65.0718 31.5362L65.076 31.5362L65.0802 31.5361L65.0844 31.5361L65.0886 31.5361L65.0928 31.536L65.097 31.536L65.1012 31.536L65.1054 31.5359L65.1096 31.5359L65.1138 31.5359L65.118 31.5358L65.1223 31.5358L65.1265 31.5358L65.1307 31.5357L65.1349 31.5357L65.1392 31.5357L65.1434 31.5356L65.1476 31.5356L65.1519 31.5356L65.1561 31.5355L65.1603 31.5355L65.1646 31.5355L65.1688 31.5354L65.1731 31.5354L65.1773 31.5354L65.1816 31.5353L65.1858 31.5353L65.1901 31.5353L65.1943 31.5353L65.1986 31.5352L65.2029 31.5352L65.2071 31.5352L65.2114 31.5351L65.2157 31.5351L65.2199 31.5351L65.2242 31.535L65.2285 31.535L65.2328 31.535L65.2371 31.5349L65.2413 31.5349L65.2456 31.5349L65.2499 31.5348L65.2542 31.5348L65.2585 31.5348L65.2628 31.5347L65.2671 31.5347L65.2714 31.5347L65.2757 31.5346L65.28 31.5346L65.2843 31.5346L65.2886 31.5345L65.2929 31.5345L65.2972 31.5345L65.3015 31.5344L65.3059 31.5344L65.3102 31.5344L65.3145 31.5343L65.3188 31.5343L65.3232 31.5343L65.3275 31.5342L65.3318 31.5342L65.3361 31.5342L65.3405 31.5341L65.3448 31.5341L65.3492 31.5341L65.3535 31.534L65.3579 31.534L65.3622 31.534L65.3665 31.5339L65.3709 31.5339L65.3753 31.5339L65.3796 31.5338L65.384 31.5338L65.3883 31.5338L65.3927 31.5337L65.3971 31.5337L65.4014 31.5337L65.4058 31.5336L65.4102 31.5336L65.4145 31.5336L65.4189 31.5335L65.4233 31.5335L65.4277 31.5335L65.4321 31.5334L65.4365 31.5334L65.4408 31.5334L65.4452 31.5333L65.4496 31.5333L65.454 31.5333L65.4584 31.5332L65.4628 31.5332L65.4672 31.5332L65.4716 31.5331L65.476 31.5331L65.4804 31.5331L65.4849 31.533L65.4893 31.533L65.4937 31.533L65.4981 31.5329L65.5025 31.5329L65.5069 31.5329L65.5114 31.5328L65.5158 31.5328Z" fill="#333333" stroke="white" stroke-width="0.5"/>
</svg>
