<svg width="40" height="39" viewBox="0 0 40 39" fill="none" xmlns="http://www.w3.org/2000/svg">
<path d="M1.50012 2.5C1.50012 2 1.80012 1 3.00012 1C4.20012 1 6.83346 1 8.00012 1C8.50012 1 9.60012 1.3 10.0001 2.5C10.1695 3.0081 11.1217 6.70141 12.3406 11.5M33.5001 33.5C29.3335 33.5 20.7001 33.5 19.5001 33.5C18.3001 33.5 17.6668 32.5 17.5001 32C17.1675 30.6693 16.7853 29.1429 16.3735 27.5M16.3735 27.5H31.5001L38.5001 11.5H12.3406M16.3735 27.5C15.1196 22.4987 13.59 16.4187 12.3406 11.5" stroke="#5E5F5F" stroke-width="2" stroke-linejoin="round"/>
<circle cx="21.0001" cy="36" r="2" stroke="#5E5F5F" stroke-width="2" stroke-linejoin="round"/>
<circle cx="31.0001" cy="36" r="2" stroke="#5E5F5F" stroke-width="2" stroke-linejoin="round"/>
</svg>
