<svg width="46" height="46" viewBox="0 0 46 46" fill="none" xmlns="http://www.w3.org/2000/svg">
<path d="M29.8328 44.8519C29.8328 39.3704 29.8328 33.8889 29.8328 28.2593C32.2355 28.2593 34.7884 28.2593 37.1911 28.2593C37.1911 25.7407 37.1911 23.3704 37.1911 21C34.7884 21 32.2355 21 29.8328 21C29.8328 20.5556 29.8328 20.2593 29.8328 19.963C29.8328 19.2222 29.8328 18.4815 29.8328 17.7407C29.8328 17.4444 29.9829 17 30.2833 16.8519C30.5836 16.4074 30.884 16.2593 31.4846 16.2593C33.2867 16.2593 35.0887 16.2593 36.8908 16.2593C37.041 16.2593 37.1911 16.2593 37.3413 16.2593C37.3413 13.8889 37.3413 11.3704 37.3413 9C37.1911 9 37.1911 9 37.041 9C35.0887 9 33.1365 9 31.1843 9C29.2321 9 27.5802 9.74074 26.2287 11.0741C24.1263 13 23.0751 15.5185 23.0751 18.3333C23.0751 19.2222 23.0751 19.963 23.0751 20.8519C23.0751 21 23.0751 21 23.0751 21.1481C21.273 21.1481 19.471 21.1481 17.6689 21.1481C17.6689 23.5185 17.6689 26.037 17.6689 28.4074C19.471 28.4074 21.273 28.4074 23.0751 28.4074C23.0751 33.8889 23.0751 39.3704 23.0751 45C22.9249 45 22.9249 45 22.7747 45C17.9693 45 13.314 45 8.50853 45C4.75427 45 1.45051 42.1852 1 38.6296C1 38.3333 1 38.037 1 37.7407C1 27.963 1 18.3333 1 8.55556C1 6.48148 1.75085 4.85185 3.10239 3.37037C4.15358 2.03704 5.65529 1.2963 7.45734 1C7.75768 1 8.05802 1 8.35836 1C18.1195 1 27.7304 1 37.4915 1C41.2457 1 44.5495 3.81481 45 7.22222C45 7.51852 45 7.81481 45 8.11111C45 17.7407 45 27.5185 45 37.1481C45 39.2222 44.2491 40.8518 42.8976 42.3333C41.6962 43.6667 40.1945 44.4074 38.2423 44.5556C37.942 44.5556 37.6416 44.5556 37.4915 44.5556C34.9386 44.5556 32.5358 44.5556 29.9829 44.5556C29.9829 44.8518 29.8328 44.8519 29.8328 44.8519Z" stroke="#5E5F5F" stroke-width="2"/>
</svg>
