<svg width="366" height="56" viewBox="0 0 366 56" fill="none" xmlns="http://www.w3.org/2000/svg">
<path d="M345.813 55.7047C345.079 55.5571 342.556 54.8781 341.088 53.9924C340.355 53.5496 339.651 53.0182 339.005 52.3982C338.917 52.3097 338.77 52.2506 338.506 52.044C338.506 53.0182 338.506 53.8744 338.506 54.7895C334.105 54.7895 329.85 54.7895 325.478 54.7895C325.478 36.899 325.478 18.979 325.478 0.940918C329.733 0.940918 334.017 0.940918 338.389 0.940918C338.389 7.99674 338.389 15.023 338.389 22.3446C338.858 22.0198 339.122 21.8427 339.328 21.636C341.734 19.5399 344.58 18.6543 347.691 18.4181C358.108 17.7096 365.238 26.0053 365.737 34.862C365.766 35.2753 365.884 35.6591 365.972 36.0724C365.972 36.84 365.972 37.5781 365.972 38.3456C365.737 39.7922 365.619 41.2683 365.238 42.6559C364.27 46.3167 362.597 49.3279 360.132 51.6011C359.516 52.1621 356.993 54.3762 353.002 55.38C351.711 55.7933 349.011 56.3247 345.813 55.7047ZM345.02 45.0177C348.718 45.0177 351.153 43.3644 352.239 40.5303C352.855 38.9361 352.914 37.2828 352.679 35.6296C352.298 32.6774 350.156 30.227 347.456 29.5775C344.434 28.869 341.411 30.0204 339.797 32.6183C338.007 35.482 337.919 38.4637 339.563 41.416C340.912 43.7777 342.996 44.9586 345.02 45.0177Z" fill="#333333"/>
<path d="M292.289 55.3798C290.998 54.996 288.298 54.1694 286.215 51.6305C283.809 48.6782 283.222 44.6632 284.278 40.9729C285.071 38.2569 286.861 36.3379 289.325 35.0389C291.908 33.6809 294.695 33.12 297.571 33.0314C300.212 32.9429 302.853 33.0019 305.464 33.0019C305.875 33.0019 306.286 33.0019 306.667 33.0019C307.284 30.9944 306.257 29.0164 304.32 28.3669C301.679 27.4812 299.508 28.6621 298.305 31.762C294.285 30.9353 290.264 30.1382 286.127 29.2821C286.215 28.8983 286.244 28.5736 286.332 28.2783C287.77 23.9681 290.793 21.1635 295.018 19.7169C300.153 17.9751 305.406 17.9455 310.541 19.7169C315.793 21.5473 318.757 25.3556 319.373 30.9058C319.49 31.9391 319.549 33.0019 319.549 34.0647C319.578 40.5301 319.549 46.9659 319.549 53.4313C319.549 53.8742 319.549 54.317 319.549 54.8484C315.324 54.8484 311.216 54.8484 306.961 54.8484C306.902 54.1694 306.873 53.4904 306.814 52.6637C306.55 52.8114 306.403 52.8704 306.257 52.959C305.23 53.7265 304.173 54.317 303.058 54.7893C301.532 55.4093 300.124 55.7341 298.217 55.8817C296.925 55.9998 294.783 56.1474 292.289 55.3798ZM306.873 40.2644C304.907 40.2644 303.058 40.2053 301.21 40.2939C300.447 40.3234 299.654 40.5891 298.979 40.9434C297.982 41.4453 297.454 42.3605 297.483 43.5414C297.512 44.6927 298.07 45.5784 299.097 46.0803C301.122 47.025 303.088 46.7298 304.848 45.4603C306.638 44.2499 307.078 42.449 306.873 40.2644Z" fill="#333333"/>
<path d="M170.78 55.4092C168.96 54.9664 163.678 53.5788 159.923 48.5305C158.133 46.1392 156.988 43.246 156.577 39.9986C155.081 27.9535 162.534 20.9567 170.398 19.0968C176.355 17.6797 182.077 18.2997 187.124 22.1376C191.026 25.0898 193.051 29.1934 193.697 33.9465C193.961 36.0131 193.961 38.1387 194.108 40.3528C185.745 40.3528 177.587 40.3528 169.459 40.3528C169.371 42.3899 171.249 44.7517 173.479 45.4897C175.885 46.2868 179.847 46.0211 181.93 42.4194C185.715 43.1575 189.589 43.925 193.521 44.7221C192.259 47.9991 190.293 50.5971 187.505 52.5455C183.72 55.2025 179.817 55.6454 178.027 55.8225C176.736 55.9701 174.066 56.2063 170.78 55.4092ZM181.255 33.1494C180.756 30.4334 178.556 28.662 175.68 28.662C172.658 28.662 169.958 30.6105 169.518 33.1494C173.42 33.1494 177.323 33.1494 181.255 33.1494Z" fill="#333333"/>
<path d="M0 54.9369C0 43.2461 0 31.762 0 20.1892C4.46019 20.1892 8.83236 20.1892 13.3512 20.1892C13.3512 27.9536 13.3512 35.6589 13.3512 43.3052C13.5273 43.4528 13.586 43.5118 13.6447 43.5118C16.8431 43.5709 20.0415 43.8661 23.1813 42.9804C28.9032 41.3567 32.2777 36.2789 31.6615 29.9906C31.0453 23.6138 25.9102 19.4807 19.6601 19.3626C17.8701 19.3331 16.0508 19.3626 14.2022 19.3626C14.2022 15.5247 14.2022 11.8344 14.2022 8.14413C14.2609 8.11461 14.2902 8.02605 14.3489 7.99652C19.6601 7.81939 24.9712 7.7013 30.077 9.59073C38.2051 12.6315 43.5162 18.2703 44.8954 27.0089C46.1571 34.8913 44.6019 42.1243 38.7333 47.9697C35.036 51.66 30.4878 53.7265 25.3527 54.4646C23.2106 54.7893 21.0099 54.9074 18.8384 54.9074C12.9991 54.9665 7.15978 54.9369 1.32045 54.9369C0.909645 54.9369 0.498838 54.9369 0 54.9369Z" fill="#333333"/>
<path d="M108.542 54.8485C104.111 54.8485 99.856 54.8485 95.4545 54.8485C95.4545 54.3467 95.4545 53.9038 95.4545 53.461C95.4545 47.7632 95.4545 42.0654 95.4545 36.3676C95.4545 35.5115 95.3665 34.6258 95.1611 33.7992C94.6622 31.8802 93.4592 30.5812 91.4638 30.2565C89.2337 29.9022 87.2677 30.5222 85.9473 32.5002C84.8322 34.2125 84.6268 36.1609 84.6268 38.1389C84.5975 43.2463 84.6268 48.3241 84.6268 53.4315C84.6268 53.8743 84.6268 54.3171 84.6268 54.819C80.2253 54.819 75.9705 54.819 71.6277 54.819C71.6277 43.0396 71.6277 31.3193 71.6277 19.5399C75.9412 19.5399 80.2253 19.5399 84.5975 19.5399C84.5975 20.6322 84.5975 21.6655 84.5975 22.9645C85.0376 22.6102 85.3017 22.4331 85.5071 22.1969C89.7912 18.0343 96.4522 17.4733 101.176 19.6285C105.402 21.5769 107.515 25.1196 108.278 29.5775C108.454 30.5812 108.512 31.6145 108.512 32.6183C108.542 39.6741 108.512 46.7299 108.512 53.7857C108.542 54.14 108.542 54.4647 108.542 54.8485Z" fill="#333333"/>
<path d="M151.941 54.8784C147.51 54.8784 143.255 54.8784 138.883 54.8784C138.853 54.4061 138.824 53.9632 138.824 53.5499C138.824 47.8817 138.824 42.2134 138.824 36.5451C138.824 35.689 138.765 34.8033 138.589 33.9471C138.149 31.9396 136.623 30.4635 134.804 30.2273C132.486 29.9321 130.549 30.5816 129.258 32.6482C128.26 34.2719 128.026 36.1023 128.026 37.9917C127.996 43.1581 128.026 48.354 128.026 53.5204C128.026 53.9337 128.026 54.347 128.026 54.8489C123.683 54.8489 119.399 54.8489 115.056 54.8489C115.056 43.1286 115.056 31.4082 115.056 19.5698C119.311 19.5698 123.595 19.5698 127.996 19.5698C127.996 20.6326 127.996 21.6954 127.996 23.0239C128.466 22.6106 128.759 22.4039 129.023 22.1382C133.337 17.9756 140.174 17.5328 144.81 19.7765C148.977 21.8135 150.972 25.3562 151.706 29.7845C151.911 30.9949 151.941 32.2644 151.941 33.5043C151.97 40.1763 151.941 46.8779 151.941 53.5499C151.941 53.9632 151.941 54.3766 151.941 54.8784Z" fill="#333333"/>
<path d="M280.7 43.3643C280.7 47.2612 280.7 51.0105 280.7 54.8484C268.933 54.8484 257.196 54.8484 245.37 54.8484C245.37 39.2607 245.37 23.6729 245.37 7.99658C249.772 7.99658 254.144 7.99658 258.663 7.99658C258.663 19.8055 258.663 31.5258 258.663 43.3643C266.057 43.3643 273.364 43.3643 280.7 43.3643Z" fill="#333333"/>
<path d="M211.772 54.878C207.37 54.878 203.145 54.878 198.831 54.878C198.831 43.0986 198.831 31.3782 198.831 19.5693C203.115 19.5693 207.4 19.5693 211.801 19.5693C211.801 21.7245 211.801 23.8501 211.801 25.9757C211.86 26.0347 211.948 26.0642 212.006 26.1233C215.087 20.6026 219.782 18.4475 226.062 19.3036C225.886 23.7615 225.739 28.1603 225.563 32.7363C225.064 32.7658 224.595 32.7953 224.125 32.8248C222.365 33.002 220.575 33.002 218.873 33.4153C214.911 34.3305 212.505 37.076 212.065 41.1501C211.83 43.2757 211.86 45.4308 211.83 47.586C211.801 49.6525 211.83 51.7486 211.83 53.8152C211.801 54.1694 211.772 54.5237 211.772 54.878Z" fill="#333333"/>
<path d="M64.2924 54.878C60.0082 54.878 55.7828 54.878 51.4106 54.878C51.4106 43.1281 51.4106 31.3783 51.4106 19.5693C55.6947 19.5693 59.9202 19.5693 64.2924 19.5693C64.2924 31.3192 64.2924 43.0691 64.2924 54.878Z" fill="#333333"/>
<path d="M57.7478 16.2631C53.4636 16.2336 50.4706 13.2814 50.4706 9.03015C50.5 5.01513 53.7277 1.94481 57.8651 1.97433C61.9145 2.00385 65.1423 5.22178 65.1423 9.23681C65.1129 13.3109 62.0025 16.2631 57.7478 16.2631Z" fill="#333333"/>
</svg>
