<svg width="33" height="33" viewBox="0 0 33 33" fill="none" xmlns="http://www.w3.org/2000/svg">
<path d="M21.0844 31.6362C21.0844 27.8179 21.0844 23.9996 21.0844 20.0781C22.7581 20.0781 24.5364 20.0781 26.2101 20.0781C26.2101 18.3238 26.2101 16.6726 26.2101 15.0215C24.5364 15.0215 22.7581 15.0215 21.0844 15.0215C21.0844 14.7119 21.0844 14.5055 21.0844 14.2991C21.0844 13.7831 21.0844 13.2671 21.0844 12.7511C21.0844 12.5447 21.189 12.2351 21.3982 12.1319C21.6074 11.8224 21.8166 11.7192 22.235 11.7192C23.4903 11.7192 24.7456 11.7192 26.0008 11.7192C26.1055 11.7192 26.2101 11.7192 26.3147 11.7192C26.3147 10.068 26.3147 8.31365 26.3147 6.66249C26.2101 6.66249 26.2101 6.66249 26.1055 6.66249C24.7456 6.66249 23.3857 6.66249 22.0258 6.66249C20.6659 6.66249 19.5153 7.17848 18.5738 8.10725C17.1093 9.44882 16.3771 11.2032 16.3771 13.1639C16.3771 13.7831 16.3771 14.2991 16.3771 14.9183C16.3771 15.0215 16.3771 15.0215 16.3771 15.1247C15.1218 15.1247 13.8665 15.1247 12.6113 15.1247C12.6113 16.7758 12.6113 18.5302 12.6113 20.1813C13.8665 20.1813 15.1218 20.1813 16.3771 20.1813C16.3771 23.9996 16.3771 27.8179 16.3771 31.7394C16.2725 31.7394 16.2725 31.7394 16.1679 31.7394C12.8205 31.7394 9.5777 31.7394 6.2303 31.7394C3.61515 31.7394 1.31382 29.7787 1 27.3019C1 27.0955 1 26.8891 1 26.6827C1 19.8717 1 13.1639 1 6.3529C1 4.90814 1.52303 3.77297 2.46448 2.741C3.19673 1.81222 4.24279 1.29624 5.49806 1.08984C5.70727 1.08984 5.91648 1.08984 6.1257 1.08984C12.9251 1.08984 19.6199 1.08984 26.4193 1.08984C29.0344 1.08984 31.3358 3.05059 31.6496 5.42413C31.6496 5.63052 31.6496 5.83692 31.6496 6.04331C31.6496 12.7511 31.6496 19.5621 31.6496 26.27C31.6496 27.7147 31.1265 28.8499 30.1851 29.8819C29.3482 30.8106 28.3022 31.3266 26.9423 31.4298C26.7331 31.4298 26.5239 31.4298 26.4193 31.4298C24.641 31.4298 22.9673 31.4298 21.189 31.4298C21.189 31.6362 21.0844 31.6362 21.0844 31.6362Z" stroke="#5E5F5F" stroke-width="2"/>
</svg>
