<svg width="59" height="33" viewBox="0 0 59 33" fill="none" xmlns="http://www.w3.org/2000/svg">
<path d="M49.3971 20.3461C48.0405 19.0624 47.871 18.26 49.058 16.6553C50.245 15.0506 51.432 13.6064 52.6191 12.0017C54.1453 9.91564 55.6714 7.82954 56.8585 5.58297C58.0455 3.49688 57.3672 2.53406 54.8236 2.53406C51.9408 2.53406 48.8884 2.53406 46.0056 2.53406C44.9882 2.53406 44.3099 3.01547 43.9707 3.81782C43.462 5.10157 43.1228 6.22485 42.4445 7.34813C40.9183 10.0761 39.3922 12.8041 37.1877 15.0506C36.679 15.532 36.1702 16.3344 35.3223 16.0135C34.4745 15.6925 34.3049 14.8902 34.1353 14.0878C34.1353 13.7669 34.1353 13.446 34.1353 13.125C34.1353 12.1622 34.1353 11.3599 34.1353 10.397C34.3049 8.31095 34.3049 6.22485 34.3049 4.13875C34.3049 2.21313 33.6266 1.41078 31.5917 1.25031C29.5568 1.08984 27.6914 1.08984 25.6565 1.08984C24.4695 1.08984 23.2825 1.25031 22.0954 1.57125C21.078 1.73172 20.3997 2.21313 19.891 3.17594C20.0605 3.17594 20.2301 3.17594 20.2301 3.17594C21.7563 3.49688 22.7737 4.45969 22.9433 6.06438C23.1129 8.47142 23.1129 10.718 23.1129 13.125C23.1129 13.6064 22.9433 14.2483 22.7737 14.7297C22.4346 16.0135 21.4171 16.3344 20.3997 15.3716C19.5518 14.4088 18.7039 13.446 18.0256 12.4831C15.9907 9.75517 14.4645 6.86673 13.1079 3.81782C12.7688 3.01547 12.0905 2.3736 11.073 2.3736C8.3598 2.21313 5.47701 2.21313 2.7638 2.3736C1.23762 2.53406 0.898468 3.17594 1.57677 4.45969C3.95083 9.43423 6.49447 14.2483 9.71641 18.7414C11.4122 21.3089 13.4471 23.8764 15.8211 26.4439C19.0431 29.3324 22.7737 30.9371 27.1827 31.258C28.7089 31.258 30.4046 31.258 32.1004 31.258C33.7962 31.258 34.1353 30.9371 34.3049 29.3324C34.4745 27.8882 34.644 26.6044 35.4919 25.4811C36.0007 24.6788 36.8485 24.5183 37.6964 24.9997C38.2051 25.3207 38.7139 25.6416 39.2226 26.123C40.24 27.2463 41.4271 28.53 42.6141 29.6533C43.9707 30.9371 45.4969 31.7394 47.3622 31.7394C49.7363 31.7394 52.2799 31.7394 54.8236 31.5789C55.5019 31.5789 56.1802 31.258 56.6889 31.0975C57.5368 30.7766 57.8759 30.1347 57.5368 29.1719C57.3672 28.6905 50.5246 21.639 48.9558 19.8975" stroke="#5E5F5F" stroke-width="2"/>
</svg>
