<svg width="233" height="36" viewBox="0 0 233 36" fill="none" xmlns="http://www.w3.org/2000/svg">
<path d="M220.149 34.8497C219.682 34.7558 218.075 34.3237 217.141 33.7601C216.674 33.4783 216.226 33.1401 215.815 32.7456C215.759 32.6892 215.665 32.6516 215.497 32.5201C215.497 33.1401 215.497 33.6849 215.497 34.2673C212.695 34.2673 209.986 34.2673 207.203 34.2673C207.203 22.8824 207.203 11.4788 207.203 0C209.912 0 212.639 0 215.422 0C215.422 4.49007 215.422 8.96135 215.422 13.6205C215.721 13.4138 215.889 13.3011 216.02 13.1696C217.552 11.8357 219.364 11.2721 221.344 11.1218C227.976 10.671 232.515 15.9501 232.832 21.5861C232.851 21.8492 232.926 22.0934 232.982 22.3564C232.982 22.8449 232.982 23.3145 232.982 23.803C232.832 24.7236 232.758 25.6629 232.515 26.5459C231.898 28.8755 230.834 30.7917 229.265 32.2383C228.872 32.5953 227.266 34.0043 224.725 34.643C223.903 34.9061 222.185 35.2442 220.149 34.8497ZM219.644 28.0488C221.998 28.0488 223.548 26.9968 224.24 25.1932C224.632 24.1787 224.669 23.1267 224.52 22.0746C224.277 20.1959 222.913 18.6366 221.195 18.2233C219.271 17.7724 217.346 18.5051 216.319 20.1583C215.18 21.9807 215.123 23.8781 216.17 25.7568C217.029 27.2598 218.355 28.0113 219.644 28.0488Z" fill="#5E5F5F"/>
<path d="M186.075 34.643C185.253 34.3988 183.534 33.8728 182.208 32.2571C180.676 30.3784 180.303 27.8234 180.975 25.475C181.479 23.7466 182.619 22.5255 184.188 21.6988C185.832 20.8347 187.607 20.4777 189.437 20.4213C191.118 20.365 192.8 20.4026 194.462 20.4026C194.724 20.4026 194.985 20.4026 195.228 20.4026C195.62 19.125 194.967 17.8663 193.734 17.453C192.053 16.8894 190.67 17.6409 189.904 19.6135C187.345 19.0875 184.786 18.5802 182.152 18.0354C182.208 17.7912 182.227 17.5845 182.283 17.3966C183.198 14.6538 185.122 12.869 187.812 11.9484C191.081 10.84 194.425 10.8212 197.694 11.9484C201.038 13.1132 202.924 15.5367 203.317 19.0687C203.391 19.7262 203.429 20.4026 203.429 21.0789C203.448 25.1932 203.429 29.2888 203.429 33.4031C203.429 33.6849 203.429 33.9667 203.429 34.3049C200.739 34.3049 198.124 34.3049 195.415 34.3049C195.378 33.8728 195.359 33.4407 195.322 32.9146C195.153 33.0086 195.06 33.0461 194.967 33.1025C194.313 33.591 193.64 33.9667 192.93 34.2673C191.959 34.6618 191.062 34.8685 189.848 34.9624C189.026 35.0376 187.663 35.1315 186.075 34.643ZM195.359 25.0241C194.107 25.0241 192.93 24.9866 191.754 25.0429C191.268 25.0617 190.764 25.2308 190.334 25.4562C189.699 25.7756 189.363 26.358 189.381 27.1095C189.4 27.8422 189.755 28.4058 190.409 28.7252C191.698 29.3263 192.949 29.1385 194.07 28.3306C195.209 27.5604 195.49 26.4144 195.359 25.0241Z" fill="#5E5F5F"/>
<path d="M108.72 34.6618C107.562 34.38 104.2 33.497 101.809 30.2845C100.669 28.7627 99.9406 26.9216 99.679 24.8551C98.7263 17.19 103.471 12.7375 108.477 11.5539C112.27 10.6522 115.912 11.0467 119.125 13.489C121.61 15.3677 122.899 17.9791 123.31 21.0037C123.478 22.3188 123.478 23.6715 123.571 25.0805C118.247 25.0805 113.054 25.0805 107.88 25.0805C107.824 26.3768 109.019 27.8798 110.439 28.3494C111.971 28.8567 114.493 28.6876 115.819 26.3956C118.229 26.8653 120.694 27.3537 123.198 27.861C122.394 29.9463 121.143 31.5996 119.368 32.8395C116.958 34.5303 114.474 34.8121 113.334 34.9248C112.512 35.0188 110.813 35.1691 108.72 34.6618ZM115.389 20.4965C115.072 18.7681 113.671 17.6409 111.84 17.6409C109.916 17.6409 108.197 18.8808 107.917 20.4965C110.402 20.4965 112.886 20.4965 115.389 20.4965Z" fill="#5E5F5F"/>
<path d="M0 34.3612C0 26.9216 0 19.6135 0 12.249C2.83941 12.249 5.62279 12.249 8.49956 12.249C8.49956 17.19 8.49956 22.0934 8.49956 26.9592C8.61164 27.0531 8.649 27.0907 8.68636 27.0907C10.7225 27.1283 12.7587 27.3161 14.7575 26.7525C18.4001 25.7192 20.5484 22.4879 20.1561 18.4863C19.7638 14.4283 16.4947 11.7981 12.5158 11.723C11.3763 11.7042 10.2182 11.723 9.04129 11.723C9.04129 9.2807 9.04129 6.93234 9.04129 4.58397C9.07865 4.56519 9.09733 4.50883 9.13469 4.49004C12.5158 4.37732 15.897 4.30217 19.1474 5.50453C24.3218 7.43958 27.703 11.0279 28.5809 16.5888C29.3842 21.6049 28.3941 26.2077 24.6581 29.9275C22.3043 32.2759 19.4089 33.591 16.1398 34.0606C14.7762 34.2673 13.3751 34.3424 11.9928 34.3424C8.27539 34.38 4.558 34.3612 0.840616 34.3612C0.579091 34.3612 0.317566 34.3612 0 34.3612Z" fill="#5E5F5F"/>
<path d="M69.0989 34.3049C66.2782 34.3049 63.5695 34.3049 60.7675 34.3049C60.7675 33.9855 60.7675 33.7037 60.7675 33.4219C60.7675 29.796 60.7675 26.1701 60.7675 22.5443C60.7675 21.9994 60.7114 21.4358 60.5807 20.9098C60.2631 19.6886 59.4972 18.862 58.227 18.6554C56.8073 18.4299 55.5557 18.8244 54.7151 20.0832C54.0052 21.1728 53.8744 22.4127 53.8744 23.6715C53.8558 26.9216 53.8744 30.1529 53.8744 33.4031C53.8744 33.6849 53.8744 33.9667 53.8744 34.2861C51.0724 34.2861 48.3637 34.2861 45.599 34.2861C45.599 26.7901 45.599 19.3317 45.599 11.8357C48.3451 11.8357 51.0724 11.8357 53.8558 11.8357C53.8558 12.5308 53.8558 13.1884 53.8558 14.015C54.136 13.7896 54.3041 13.6768 54.4348 13.5265C57.1622 10.8776 61.4026 10.5206 64.4102 11.8921C67.1001 13.132 68.4451 15.3864 68.9308 18.2233C69.0429 18.862 69.0802 19.5196 69.0802 20.1583C69.0989 24.6484 69.0802 29.1385 69.0802 33.6285C69.0989 33.854 69.0989 34.0606 69.0989 34.3049Z" fill="#5E5F5F"/>
<path d="M96.7271 34.3237C93.9064 34.3237 91.1978 34.3237 88.4144 34.3237C88.3957 34.0231 88.377 33.7413 88.377 33.4783C88.377 29.8712 88.377 26.2641 88.377 22.657C88.377 22.1122 88.3397 21.5486 88.2276 21.0038C87.9474 19.7263 86.976 18.7869 85.8178 18.6366C84.3421 18.4488 83.1092 18.8621 82.2872 20.1772C81.6521 21.2105 81.5027 22.3752 81.5027 23.5776C81.484 26.8653 81.5027 30.1718 81.5027 33.4595C81.5027 33.7225 81.5027 33.9855 81.5027 34.3049C78.738 34.3049 76.0107 34.3049 73.246 34.3049C73.246 26.8465 73.246 19.3881 73.246 11.8546C75.9546 11.8546 78.6819 11.8546 81.484 11.8546C81.484 12.5309 81.484 13.2072 81.484 14.0526C81.7829 13.7896 81.9697 13.6581 82.1378 13.489C84.8838 10.8401 89.2363 10.5583 92.1878 11.9861C94.8404 13.2824 96.1107 15.5368 96.5777 18.3548C96.7085 19.1251 96.7271 19.9329 96.7271 20.722C96.7458 24.9678 96.7271 29.2325 96.7271 33.4783C96.7271 33.7413 96.7271 34.0043 96.7271 34.3237Z" fill="#5E5F5F"/>
<path d="M178.697 26.9968C178.697 29.4766 178.697 31.8626 178.697 34.3049C171.206 34.3049 163.734 34.3049 156.206 34.3049C156.206 24.3854 156.206 14.4659 156.206 4.49005C159.008 4.49005 161.791 4.49005 164.668 4.49005C164.668 12.0048 164.668 19.4632 164.668 26.9968C169.375 26.9968 174.027 26.9968 178.697 26.9968Z" fill="#5E5F5F"/>
<path d="M134.816 34.3237C132.014 34.3237 129.324 34.3237 126.578 34.3237C126.578 26.8277 126.578 19.3693 126.578 11.8546C129.306 11.8546 132.033 11.8546 134.835 11.8546C134.835 13.226 134.835 14.5787 134.835 15.9313C134.872 15.9689 134.928 15.9877 134.966 16.0253C136.927 12.5121 139.916 11.1407 143.914 11.6855C143.802 14.5223 143.708 17.3216 143.596 20.2335C143.279 20.2523 142.98 20.2711 142.681 20.2899C141.56 20.4026 140.421 20.4026 139.337 20.6656C136.815 21.248 135.283 22.9952 135.003 25.5878C134.854 26.9405 134.872 28.3119 134.854 29.6833C134.835 30.9984 134.854 32.3323 134.854 33.6474C134.835 33.8728 134.816 34.0983 134.816 34.3237Z" fill="#5E5F5F"/>
<path d="M40.9293 34.3237C38.202 34.3237 35.512 34.3237 32.7286 34.3237C32.7286 26.8465 32.7286 19.3693 32.7286 11.8546C35.4559 11.8546 38.1459 11.8546 40.9293 11.8546C40.9293 19.3317 40.9293 26.8089 40.9293 34.3237Z" fill="#5E5F5F"/>
<path d="M36.7629 9.75042C34.0356 9.73163 32.1302 7.85294 32.1302 5.14763C32.1489 2.59261 34.2037 0.638772 36.8376 0.657559C39.4155 0.676346 41.4704 2.72412 41.4704 5.27914C41.4517 7.87173 39.4716 9.75042 36.7629 9.75042Z" fill="#5E5F5F"/>
</svg>
