<svg width="89" height="139" viewBox="0 0 89 139" fill="none" xmlns="http://www.w3.org/2000/svg">
<path d="M46.5877 50.3845C48.126 50.3845 49.2248 50.1635 50.3235 50.1635C52.9606 49.9425 55.3778 50.8264 57.1359 53.0363C58.4544 54.8042 60.2124 55.2462 62.1902 54.5832C66.805 53.4783 70.7606 55.0252 73.1778 59.2239C74.0569 60.5498 74.9359 60.9918 76.2544 60.7708C78.0124 60.5498 79.7704 60.5498 81.3087 60.9918C85.7038 62.0967 88.3408 65.6325 88.5606 70.2732C88.7803 81.3225 88.7803 92.5927 88.5606 103.863C88.5606 106.073 87.4618 108.062 86.5828 110.051C85.0445 113.365 83.0667 116.68 81.3087 119.995C80.4297 121.763 79.9902 123.752 79.9902 125.52C79.7704 128.613 79.9902 131.707 79.7704 134.58C79.7704 137.895 78.8914 138.779 75.5951 138.779C62.1902 138.779 49.005 138.779 35.6001 138.779C32.3038 138.779 31.205 137.895 31.4248 134.58C32.084 128.392 30.1062 123.31 26.3704 118.227C19.5581 108.283 12.9655 98.1174 6.59267 88.173C3.51613 83.5323 4.17539 78.6706 7.69144 75.1349C10.768 72.0411 14.9433 71.5991 18.4593 74.0299C19.7779 74.9139 20.8766 75.5768 21.9754 76.4608C23.0742 77.3447 24.3927 78.2287 25.7112 79.1126C25.7112 77.7867 25.9309 76.9028 25.9309 75.7978C25.9309 63.6436 25.9309 51.7104 26.1507 39.5562C26.1507 33.1476 30.1062 29.1698 36.2593 29.3908C41.7532 29.3908 46.1482 33.8106 46.1482 39.9981C46.5877 43.3129 46.5877 46.8487 46.5877 50.3845ZM32.5235 65.8535C32.5235 73.588 32.5235 81.3225 32.5235 89.057C32.5235 90.1619 32.5235 91.2668 32.5235 92.3718C32.3038 93.9187 31.205 95.0236 29.6667 95.0236C28.1285 95.0236 27.0297 94.1396 26.81 92.5928C26.81 91.7088 26.81 90.8249 26.5902 90.1619C26.3704 89.057 26.3704 87.7311 25.7112 87.0681C22.6346 84.1953 19.3383 81.5435 16.0421 79.1126C13.8445 77.7867 11.2075 79.5546 11.4272 82.2064C11.4272 83.5323 12.0865 85.0792 12.9655 86.1842C20.2174 97.2334 27.2495 108.283 34.7211 119.332C36.9186 122.647 38.2371 125.962 38.0174 129.939C37.7976 132.591 38.0174 132.812 40.6544 132.812C50.9828 132.812 61.0914 132.812 71.4198 132.812C74.0569 132.812 74.4964 132.812 74.0569 129.939C73.3976 123.752 74.9359 118.006 78.4519 112.923C79.3309 111.598 80.4297 110.051 80.8692 108.283C81.7482 105.631 82.847 102.758 83.0667 99.8853C83.5062 92.3718 83.5062 84.8582 83.5062 77.1237C83.5062 74.9139 83.726 72.704 83.5062 70.4942C83.2865 67.6214 81.089 65.8535 78.4519 66.2954C76.4741 66.7374 75.3754 68.2843 75.1556 70.9361C75.1556 74.0299 75.1556 77.3447 75.1556 80.4385C75.1556 82.4274 74.0569 83.5323 72.2988 83.5323C70.5408 83.5323 69.442 82.4274 69.442 80.6595C69.442 78.8916 69.442 76.9028 69.442 75.1349C69.442 71.3781 69.442 67.6214 69.2223 63.8646C69.0025 61.2128 67.2445 59.8869 65.047 59.8869C62.8495 60.1078 61.3112 61.6548 61.3112 64.3066C61.3112 66.5164 61.3112 68.9473 61.3112 71.1571C61.3112 72.704 61.3112 74.2509 61.3112 75.7978C61.3112 77.7867 59.9927 79.1126 58.4544 79.1126C56.4766 79.1126 55.3779 78.0077 55.3779 75.7978C55.3779 74.2509 55.3779 72.704 55.3779 71.1571C55.3779 67.4004 55.3779 63.8646 55.3779 60.1078C55.3779 57.677 53.6198 55.9091 51.4223 55.9091C49.4445 55.9091 47.9062 57.235 47.4667 59.6659C47.247 60.5498 47.247 61.6547 47.247 62.5387C47.247 66.9584 47.247 71.3781 47.247 75.5768C47.247 78.2287 45.2692 79.5546 43.0717 78.6706C41.5334 78.0077 41.3137 76.6818 41.3137 75.3559C41.3137 64.0856 41.3137 52.8153 41.0939 41.766C41.0939 40.4401 40.8741 39.1142 40.4346 38.0093C39.9951 36.2414 38.4569 35.5784 36.6988 35.5784C34.9408 35.5784 33.6223 36.4624 33.1828 38.2303C32.963 39.3352 32.7433 40.2191 32.7433 41.3241C32.5235 49.5005 32.5235 57.677 32.5235 65.8535Z" fill="#333333"/>
<path d="M65.7063 37.1256C66.1458 20.9936 53.8396 7.5135 38.2371 6.40857C22.8544 5.08266 8.7902 16.1319 6.59267 31.3799C4.61489 44.1971 9.44946 54.3625 19.9976 61.655C21.9754 62.9809 22.6346 64.7488 21.5359 66.2957C20.6569 67.8426 18.8988 68.0636 16.9211 66.9586C7.69144 61.213 1.97786 52.8156 0.439584 41.9873C-2.41721 21.8776 10.1087 4.4197 29.8865 0.662944C50.9828 -3.3148 71.6396 13.4801 71.8593 34.9157C71.8593 39.1144 70.9803 43.3132 70.3211 47.2909C69.8816 49.5008 68.1235 50.3847 66.1458 49.7218C64.6075 49.0588 63.9482 47.5119 64.6075 45.302C65.047 43.5342 65.4865 41.9873 65.7063 40.2194C65.7063 39.1144 65.7063 37.7885 65.7063 37.1256Z" fill="#333333"/>
<path d="M14.7235 35.5786C14.7235 26.5182 19.7779 18.7837 27.689 15.4689C35.6001 12.1541 44.8297 14.143 50.763 20.3306C56.6964 26.5182 58.4544 35.5786 55.1581 43.5341C54.7186 44.4181 54.4988 45.302 53.8396 45.744C52.7408 46.8489 51.2025 46.8489 50.1038 45.9649C48.7853 45.081 48.3458 43.5341 49.2248 42.2082C50.763 38.8934 51.4223 35.5786 50.5433 31.8219C49.005 25.8553 45.2692 21.8775 39.1161 20.5516C32.963 19.2257 27.9087 20.9936 24.1729 26.0762C20.2174 30.9379 19.7779 36.4626 22.6347 42.2082C22.8544 42.6502 23.0742 42.8712 23.2939 43.3131C24.1729 45.081 23.7334 46.6279 22.1951 47.5118C20.6569 48.3958 18.8988 47.9538 18.0198 46.4069C15.8223 42.8711 14.7235 39.3354 14.7235 35.5786Z" fill="#333333"/>
</svg>
