<svg width="141" height="142" viewBox="0 0 141 142" fill="none" xmlns="http://www.w3.org/2000/svg">
<path d="M137.438 0H35.9595C35.9595 0 35.9595 0 35.6547 0C35.6547 0 35.6547 0 35.35 0C35.35 0 35.35 0 35.0453 0C35.0453 0 35.0453 0 34.7405 0C34.7405 0 34.7405 0 34.4358 0C34.4358 0 34.4358 0 34.131 0C34.131 0 34.131 0 33.8263 0L0.609483 33.5215C0.609483 33.5215 0.609483 33.5215 0.304741 33.8263C0.304741 33.8263 0.304741 34.131 0 34.131C0 34.131 0 34.131 0 34.4358C0 34.4358 0 34.4358 0 34.7405C0 34.7405 0 34.7405 0 35.0453C0 35.0453 0 35.0453 0 35.35C0 35.35 0 35.35 0 35.6547V35.9595V36.2642V138.048C0 139.876 1.52371 141.4 3.35215 141.4H71.3095H84.4134H104.526C105.136 141.4 105.441 141.4 106.05 141.095C106.659 140.791 106.964 140.791 107.269 140.181L139.876 107.574C140.486 106.964 140.791 105.745 140.791 104.831V104.526V78.928V3.35215C140.791 1.52371 139.267 0 137.438 0ZM37.4832 6.70431H66.7384L40.5306 32.6073H10.9707L37.4832 6.70431ZM53.9392 69.481C56.0724 68.8715 57.2914 66.7384 57.2914 64.6052C57.2914 62.472 55.4629 60.6435 53.3297 60.3388C52.7203 60.3388 52.1108 60.3388 51.806 60.3388C51.1965 60.3388 50.8918 60.3388 50.2823 60.3388C50.2823 58.8151 50.2823 57.2914 50.2823 55.7677C52.4155 55.7677 54.5487 55.7677 56.6819 56.3772C60.6435 57.9009 63.0815 61.253 62.7767 66.1289C62.472 71.0047 58.5103 74.3569 53.9392 74.6616C50.8918 74.9664 47.8444 74.6616 44.4922 74.6616C44.4922 70.0905 44.4922 65.2147 44.4922 60.6435H44.797C46.3207 60.6435 48.1491 60.6435 49.6728 60.6435C49.6728 60.6435 49.6728 60.6435 49.9776 60.6435C49.9776 63.6909 49.9776 67.0431 49.9776 70.0905C51.5013 69.481 52.7203 69.7858 53.9392 69.481ZM101.174 134.086H83.1944H71.3095H6.39957V39.0069H37.7879V90.2034L46.6254 84.1086L53.3297 90.2034L60.034 83.8039L70.3953 90.2034V39.0069H101.479V134.086H101.174ZM103.003 32.6073H74.0521L99.3457 6.70431H128.601L103.003 32.6073ZM134.086 28.9504V103.307L107.574 129.82V76.4901V59.4246V36.8737L134.086 10.0565V28.9504Z" fill="#333333"/>
<path d="M45.1017 107.269H10.3612C9.75169 107.269 9.14221 107.878 9.14221 108.488V128.601C9.14221 129.21 9.75169 129.82 10.3612 129.82H45.1017C45.7112 129.82 46.3207 129.21 46.3207 128.601V108.488C46.3207 107.878 46.0159 107.269 45.1017 107.269ZM44.1875 127.382H11.5801V109.707H44.1875V127.382Z" fill="#333333"/>
<path d="M15.2371 111.84H13.4087V125.553H15.2371V111.84Z" fill="#333333"/>
<path d="M41.7496 111.84H40.2259V125.553H41.7496V111.84Z" fill="#333333"/>
<path d="M18.5893 111.84H16.7608V125.553H18.5893V111.84Z" fill="#333333"/>
<path d="M25.5982 111.84H23.7698V125.553H25.5982V111.84Z" fill="#333333"/>
<path d="M31.9978 111.84H30.4741V125.553H31.9978V111.84Z" fill="#333333"/>
<path d="M34.7406 111.84H33.2169V125.553H34.7406V111.84Z" fill="#333333"/>
<path d="M29.5599 111.84H26.8172V125.553H29.5599V111.84Z" fill="#333333"/>
<path d="M22.551 111.84H19.5035V125.553H22.551V111.84Z" fill="#333333"/>
<path d="M39.0069 111.84H35.9595V125.553H39.0069V111.84Z" fill="#333333"/>
</svg>
