<svg width="130" height="144" viewBox="0 0 130 144" fill="none" xmlns="http://www.w3.org/2000/svg">
<path d="M21.8613 100.049C21.8613 91.8184 21.8613 83.5882 21.8613 75.358C21.8613 73.0433 21.0887 71.5001 19.0283 70.4713C6.9237 63.5271 0.742617 53.2393 1.00016 39.3508C1.25771 25.7195 7.95388 15.9461 19.5434 9.25907C25.467 5.91555 31.9056 5.14396 38.3442 5.91555C39.3744 5.91555 40.147 6.17274 41.1772 6.17274C43.7527 6.42993 46.3281 5.91555 48.646 4.62957C59.4629 -1.28589 70.2798 -1.28589 80.8392 4.88677C83.1571 6.17274 85.2175 6.42993 87.7929 6.17274C104.018 3.3436 119.986 12.3454 125.91 27.5199C132.091 43.4659 126.425 60.4407 112.26 69.6997C111.487 70.2141 110.972 70.7285 110.199 70.9857C107.624 71.7573 107.366 73.5576 107.366 75.8724C107.109 78.9587 108.139 80.5019 111.23 82.0451C124.364 88.2177 131.318 102.621 128.485 117.023C126.167 130.655 114.32 141.457 100.413 143C87.7929 144.286 77.4911 139.657 70.0223 129.112C69.2496 128.083 68.477 127.568 66.9317 127.568C52.7668 127.568 38.6018 127.568 24.1792 127.568C22.3764 127.568 21.8613 127.054 21.8613 125.254C21.8613 116.766 21.8613 108.279 21.8613 100.049ZM67.7044 94.6476C67.9619 94.6476 67.9619 94.6476 68.2195 94.9048C70.7949 90.5325 74.143 86.6746 78.5213 83.8454C79.809 83.0738 80.3241 82.0451 80.3241 80.5019C80.3241 74.3292 80.0666 68.1566 80.3241 61.9839C80.3241 58.6404 82.1269 57.6116 84.9599 58.8976C86.5052 59.6691 86.2476 60.9551 86.2476 61.9839C86.2476 67.1278 86.2476 72.2717 86.2476 77.4156C86.2476 78.1871 86.2476 78.7015 86.2476 78.9587C91.3985 78.4443 96.0344 78.1871 101.185 77.6728C101.185 75.8724 101.185 73.8148 101.185 71.7573C101.185 67.8994 101.185 67.8994 104.791 66.3562C115.608 61.4695 122.046 53.2393 122.304 41.1512C122.819 27.2627 114.835 16.7177 101.443 12.6026C97.8372 11.5738 93.974 11.3166 90.1108 11.831C90.1108 12.0882 90.1108 12.0882 90.1108 12.3454C90.3684 12.6026 90.6259 12.8598 90.6259 13.3742C94.4891 18.7753 96.5494 24.9479 96.807 31.635C96.807 33.9497 96.0343 34.9785 93.974 35.2357C92.1712 35.4929 91.141 34.4641 90.8835 32.4066C90.3684 30.349 89.8533 28.2915 89.5957 25.9767C86.7627 13.8886 77.7486 6.68713 65.3865 6.42993C57.145 6.42993 50.1913 9.00188 45.0404 15.6889C41.1772 20.5756 39.3744 26.2339 38.8593 32.1494C38.6018 34.4641 37.5716 35.2357 36.0263 35.2357C34.2235 35.2357 32.9358 33.9497 32.9358 31.8922C32.9358 26.4911 34.2235 21.3472 37.0565 16.7177C37.8291 15.1745 38.8593 13.8886 39.8895 12.0882C32.6782 11.3166 25.982 12.6026 20.3161 16.4605C10.5293 22.8904 6.15107 32.1494 7.43879 43.4659C8.72652 54.7825 15.4227 62.2411 25.7245 66.6134C27.7849 67.385 28.5575 68.671 28.5575 70.7285C28.5575 83.0738 28.5575 95.6764 28.5575 108.022C28.5575 108.793 28.5575 109.565 28.5575 110.336C40.6621 110.336 52.5092 110.336 64.0987 110.336C64.6138 107.25 64.8714 104.164 65.3865 101.335C62.811 101.077 62.0384 100.306 62.0384 97.4767C62.0384 90.7897 61.7808 84.1026 61.7808 77.6728C61.7808 72.2717 61.7808 66.8706 61.7808 61.4695C61.7808 59.412 63.0686 58.3832 64.6138 58.3832C66.6742 58.3832 67.4468 59.412 67.7044 61.4695C67.7044 63.5271 67.7044 65.5846 67.7044 67.8994C67.7044 76.644 67.7044 85.6458 67.7044 94.6476ZM96.2919 137.342C111.487 137.342 123.592 125.254 123.334 110.336C123.334 95.4192 110.972 83.331 95.7768 83.5882C81.0967 83.8454 69.2496 95.9335 69.2496 110.851C69.7647 125.511 81.8694 137.599 96.2919 137.342ZM65.3865 118.052C64.6138 117.795 64.0987 117.281 63.3261 117.281C52.2517 117.281 41.1772 117.281 30.1028 117.281C29.5877 117.281 29.0726 117.281 28.5575 117.281C28.5575 118.567 28.5575 119.853 28.5575 121.396C29.3301 120.881 29.8452 120.881 30.1028 120.367C32.9358 118.052 32.9358 118.052 35.7688 120.367C37.314 121.653 39.6319 121.396 40.9197 120.11C42.98 118.052 43.7527 118.052 45.813 120.11C47.3583 121.396 49.9338 121.653 51.2215 120.11C53.5394 118.052 54.0545 118.052 56.3724 120.11C57.6601 121.396 60.2356 121.653 61.5233 120.367C62.811 119.595 63.8412 119.081 65.3865 118.052Z" fill="#333333"/>
<path d="M43.495 79.473C43.495 73.3004 43.495 67.3849 43.495 61.2122C43.495 58.6403 45.2979 57.6115 47.3582 58.1259C48.9035 58.6403 49.161 59.6691 49.161 61.2122C49.161 67.6421 49.161 74.072 49.161 80.2446C49.161 85.3885 49.161 90.5324 49.161 95.9335C49.161 96.7051 49.161 97.7338 49.161 98.5054C48.9035 99.7914 48.3884 100.82 46.8431 100.82C45.2979 100.82 44.2677 100.306 43.7526 98.7626C43.495 97.991 43.495 97.2194 43.495 96.4479C43.2375 91.0468 43.2375 85.1313 43.495 79.473C43.2375 79.473 43.2375 79.473 43.495 79.473Z" fill="#333333"/>
<path d="M102.731 113.937C101.185 113.937 99.64 113.937 98.0948 113.937C96.292 114.194 95.0042 113.423 93.7165 111.88C89.8533 107.25 86.2477 102.878 82.3845 98.2482C80.8392 96.4479 80.8392 94.6475 82.127 93.6187C83.4147 92.3328 85.2175 92.8472 86.7628 94.3903C90.3684 98.5054 93.7165 102.621 97.3221 106.736C97.8372 107.25 98.8674 107.764 99.64 107.764C102.215 108.022 105.048 107.764 107.624 107.764C108.397 107.764 108.912 107.764 109.684 108.022C111.23 108.536 111.745 109.565 111.487 111.108C111.23 112.651 110.457 113.423 108.912 113.68C107.109 113.937 105.048 113.68 102.731 113.937C102.731 113.937 102.731 113.68 102.731 113.937Z" fill="#333333"/>
</svg>
