<svg width="25" height="25" viewBox="0 0 25 25" fill="none" xmlns="http://www.w3.org/2000/svg">
<path d="M19.9081 2.22413C20.2356 1.74352 20.5334 1.29295 20.8908 0.812336C20.9205 0.932489 20.9503 1.0226 20.9801 1.14276C21.2481 2.10398 21.5161 3.0652 21.7841 4.05646C21.7841 4.0865 21.8138 4.14658 21.8138 4.17661C21.8436 4.35684 21.7543 4.477 21.6054 4.477C21.1885 4.50703 20.7716 4.56711 20.3548 4.59715C19.6997 4.65723 19.0743 4.7173 18.4192 4.77738C18.3597 4.77738 18.3001 4.77738 18.2108 4.77738C18.5383 4.29677 18.8659 3.81616 19.1637 3.33555C17.7939 2.4344 16.3348 1.77356 14.7268 1.53325C12.0469 1.11272 9.54559 1.62337 7.25274 3.12528C4.72166 4.77738 3.17324 7.09032 2.5777 10.0641C1.86304 13.6687 3.08391 17.4235 5.76387 19.9467C7.25274 21.3284 8.97982 22.2296 10.9749 22.6201C11.094 22.6501 11.2131 22.6801 11.3322 22.7402C11.63 22.8904 11.7491 23.2208 11.6598 23.5513C11.5407 23.8817 11.2429 24.0619 10.9153 24.0018C8.95004 23.6714 7.19318 22.8604 5.61498 21.6288C4.12612 20.4573 2.93503 19.0155 2.13104 17.2733C1.6546 16.2219 1.32705 15.1105 1.14839 13.939C0.9995 13.0379 0.939945 12.1367 1.02928 11.2056C1.14839 9.61353 1.56527 8.08158 2.3097 6.66979C3.05413 5.25799 4.00701 3.99639 5.1981 2.91501C6.47853 1.8036 7.93762 1.0226 9.54559 0.541993C10.7962 0.151496 12.0767 -0.0287332 13.3869 0.0313432C15.5606 0.121458 17.5855 0.722222 19.4317 1.92375C19.5805 2.01386 19.7592 2.10398 19.9081 2.22413Z" fill="#5E5F5F"/>
<path d="M12.881 8.29112C12.881 9.43257 12.881 10.544 12.881 11.6854C12.881 11.9558 13.0001 12.136 13.2383 12.2562C15.293 13.3375 17.3476 14.4189 19.3725 15.4702C19.6107 15.5904 19.7298 15.7406 19.7298 16.0109C19.7 16.2813 19.4022 16.5216 19.1342 16.4315C19.0449 16.4014 18.9854 16.3714 18.896 16.3413C16.5734 15.1398 14.2805 13.9383 11.9579 12.7368C11.8984 12.7067 11.8686 12.6467 11.8686 12.5866C11.8686 12.3162 11.8686 12.0759 11.8686 11.8056C11.8686 11.0847 11.8388 10.3938 11.8388 9.67287C11.8388 8.08085 11.8388 6.51886 11.8686 4.92684C11.8686 4.83672 11.8686 4.74661 11.8984 4.68653C11.9579 4.44623 12.1663 4.29604 12.4046 4.32607C12.6428 4.35611 12.8214 4.5063 12.8512 4.77665C12.8512 4.83672 12.8512 4.8968 12.8512 4.92684C12.881 6.06829 12.881 7.1797 12.881 8.29112Z" fill="#5E5F5F"/>
<path d="M20.9209 19.4958C20.9209 19.3156 20.9804 19.1654 21.0995 19.0152C21.2484 18.835 21.3675 18.6848 21.5164 18.5046C21.7249 18.2643 22.0226 18.1741 22.2906 18.2643C22.5586 18.3844 22.7671 18.6247 22.7373 18.9251C22.7373 19.0453 22.6777 19.1954 22.6182 19.2856C22.4693 19.5259 22.2906 19.7361 22.112 19.9164C21.9333 20.1266 21.6951 20.1567 21.4569 20.0966C21.1889 20.0365 21.04 19.8563 20.9804 19.616C20.9209 19.616 20.9209 19.5559 20.9209 19.4958Z" fill="#5E5F5F"/>
<path d="M25.0004 11.926C25.0004 12.1062 24.9706 12.3165 24.9706 12.4967C24.9408 12.8271 24.6728 13.0374 24.3453 13.0674C24.0177 13.0975 23.7199 12.8572 23.6604 12.5267C23.6306 12.4066 23.6306 12.2564 23.6306 12.1362C23.6306 11.926 23.6306 11.7157 23.6604 11.5054C23.7199 11.145 24.0177 10.9347 24.375 10.9648C24.7026 10.9948 24.9706 11.2651 25.0004 11.5956C24.9706 11.7157 24.9706 11.8058 25.0004 11.926Z" fill="#5E5F5F"/>
<path d="M23.6306 16.822C23.2137 16.822 22.916 16.5516 22.8862 16.1912C22.8862 16.1311 22.8862 16.041 22.916 15.9809C23.0053 15.7105 23.0946 15.4402 23.184 15.1999C23.3031 14.8695 23.6604 14.7193 24.0177 14.8394C24.375 14.9596 24.5537 15.26 24.4644 15.6204C24.375 15.9208 24.2857 16.1912 24.1666 16.4915C24.0475 16.7018 23.8688 16.822 23.6306 16.822Z" fill="#5E5F5F"/>
<path d="M24.4048 8.50158C24.4048 8.86204 24.1666 9.13238 23.8391 9.19246C23.5413 9.25253 23.2137 9.07231 23.0946 8.77192C23.0053 8.53162 22.916 8.29131 22.8266 8.05101C22.7075 7.66051 22.9457 7.27001 23.3626 7.1799C23.6902 7.11982 23.9284 7.20994 24.0475 7.48028C24.1666 7.75062 24.2857 8.05101 24.3751 8.35139C24.4048 8.4415 24.4048 8.47154 24.4048 8.50158Z" fill="#5E5F5F"/>
<path d="M17.9729 21.9284C17.9729 21.6881 18.0623 21.5379 18.2111 21.4478C18.4494 21.2676 18.6876 21.1174 18.9556 20.9972C19.1938 20.847 19.4618 20.9071 19.6702 21.0873C19.8787 21.2676 19.968 21.5079 19.9084 21.8083C19.8787 21.8984 19.8191 22.0185 19.7298 22.0786C19.4916 22.2889 19.2236 22.4691 18.896 22.6193C18.5387 22.7695 18.1814 22.6193 18.0325 22.2588C18.0027 22.1086 17.9729 21.9885 17.9729 21.9284Z" fill="#5E5F5F"/>
<path d="M14.3699 23.3108C14.3699 23.0104 14.5485 22.74 14.8463 22.6499C15.1143 22.5898 15.3823 22.5298 15.6503 22.4697C15.9778 22.4096 16.3054 22.6499 16.3649 22.9803C16.4543 23.3408 16.2756 23.6712 15.9778 23.7613C15.7098 23.8514 15.4418 23.9416 15.1738 23.9716C14.7867 24.0317 14.3699 23.7914 14.3699 23.3108Z" fill="#5E5F5F"/>
</svg>
