<svg width="48" height="27" viewBox="0 0 48 27" fill="none" xmlns="http://www.w3.org/2000/svg">
<path d="M40.2581 16.7068C39.1521 15.6597 39.0138 15.0052 39.9816 13.6963C40.9493 12.3874 41.917 11.2094 42.8848 9.90052C44.129 8.19895 45.3733 6.49738 46.341 4.66492C47.3088 2.96335 46.7558 2.17801 44.6821 2.17801C42.3318 2.17801 39.8433 2.17801 37.4931 2.17801C36.6636 2.17801 36.1106 2.57068 35.8341 3.22513C35.4193 4.27225 35.1428 5.18848 34.5898 6.10471C33.3456 8.32984 32.1013 10.555 30.3041 12.3874C29.8893 12.7801 29.4746 13.4346 28.7833 13.1728C28.0921 12.911 27.9538 12.2565 27.8156 11.6021C27.8156 11.3403 27.8156 11.0785 27.8156 10.8168C27.8156 10.0314 27.8156 9.37696 27.8156 8.59162C27.9538 6.89005 27.9538 5.18848 27.9538 3.48691C27.9538 1.91623 27.4008 1.26178 25.7418 1.13089C24.0828 1 22.5621 1 20.9031 1C19.9353 1 18.9676 1.13089 17.9998 1.39267C17.1703 1.52356 16.6173 1.91623 16.2026 2.70157C16.3408 2.70157 16.4791 2.70157 16.4791 2.70157C17.7233 2.96335 18.5528 3.74869 18.6911 5.05759C18.8293 7.02094 18.8293 8.8534 18.8293 10.8168C18.8293 11.2094 18.6911 11.733 18.5528 12.1257C18.2763 13.1728 17.4468 13.4346 16.6173 12.6492C15.9261 11.8639 15.2348 11.0785 14.6818 10.2932C13.0228 8.06806 11.7786 5.71204 10.6726 3.22513C10.3961 2.57068 9.84308 2.04712 9.01358 2.04712C6.80158 1.91623 4.45133 1.91623 2.23933 2.04712C0.995082 2.17801 0.718582 2.70157 1.27158 3.74869C3.20708 7.80628 5.28083 11.733 7.90758 15.3979C9.29008 17.4921 10.9491 19.5864 12.8846 21.6806C15.5113 24.0366 18.5528 25.3455 22.1473 25.6073C23.3916 25.6073 24.7741 25.6073 26.1566 25.6073C27.5391 25.6073 27.8156 25.3455 27.9538 24.0366C28.0921 22.8586 28.2303 21.8115 28.9216 20.8953C29.3363 20.2408 30.0276 20.1099 30.7188 20.5026C31.1336 20.7644 31.5483 21.0262 31.9631 21.4188C32.7926 22.3351 33.7603 23.3822 34.7281 24.2984C35.8341 25.3455 37.0783 26 38.5991 26C40.5346 26 42.6083 26 44.6821 25.8691C45.2351 25.8691 45.788 25.6073 46.2028 25.4764C46.894 25.2147 47.1705 24.6911 46.894 23.9058C46.7558 23.5131 41.1772 17.7614 39.8983 16.3409" stroke="#5E5F5F" stroke-width="2"/>
</svg>
