<svg width="25" height="31" viewBox="0 0 25 31" fill="none" xmlns="http://www.w3.org/2000/svg">
<path d="M25 1.1299C25 1.26976 25 1.37465 25 1.51451L24.9651 1.54948C24.8605 2.24878 24.5467 2.87815 24.1632 3.43759C23.3961 4.55647 22.2803 5.22081 21.0251 5.60542C20.9902 5.60542 20.9205 5.60542 20.8856 5.60542C19.1074 5.60542 17.3291 5.64039 15.5509 5.64039C15.3417 5.64039 15.1325 5.64039 14.9233 5.64039C14.9233 6.75927 14.9233 7.80822 14.9233 8.9271C15.5509 8.9271 16.1785 8.9271 16.7713 8.9271C17.4338 8.9271 18.0962 8.9271 18.7587 9.06696C20.7462 9.52151 22.0711 10.7453 22.8382 12.5984C23.0823 13.2278 23.1869 13.8921 23.2566 14.5565C23.3264 15.3607 23.3961 16.1299 23.5007 16.8991C23.5704 17.6684 23.6402 18.4026 23.7099 19.1719C23.7796 20.046 23.8842 20.8851 23.9888 21.7593C24.0586 22.5984 24.1283 23.4026 24.2329 24.2418C24.3027 24.9761 24.3027 25.6754 24.0934 26.3747C23.5356 28.3327 22.2455 29.6264 20.3975 30.3257C19.8396 30.5355 19.212 30.5355 18.6192 30.5705C17.643 30.6054 16.7015 30.6054 15.7252 30.6054C15.3766 30.6054 15.0279 30.6054 14.6444 30.6404C12.1688 30.6404 9.69317 30.6404 7.18271 30.6404C7.0781 30.6404 7.00837 30.6054 6.90377 30.6054C6.52022 30.6054 6.13668 30.6054 5.75314 30.5705C4.25384 30.3607 2.99861 29.7313 2.02232 28.5774C1.15063 27.4935 0.662483 26.3397 0.69735 24.976C0.732218 23.997 0.83682 23.053 0.906555 22.074C0.97629 21.1998 1.08089 20.3607 1.15063 19.4865C1.22036 18.6124 1.32497 17.7733 1.3947 16.8991C1.4993 15.99 1.56904 15.1159 1.67364 14.2068C1.74338 13.5075 1.84798 12.8082 2.19665 12.1439C3.24268 10.1509 4.84658 8.96206 7.14784 8.89213C8.05439 8.85717 8.96095 8.85717 9.8675 8.8222C9.90237 8.8222 9.93724 8.8222 10.007 8.8222C10.007 7.73829 10.007 6.68934 10.007 5.60542C9.93724 5.60542 9.90237 5.60542 9.83264 5.60542C8.159 5.60542 6.45049 5.57046 4.77685 5.57046C4.04463 5.57046 3.38215 5.39563 2.75453 5.04598C1.3947 4.31171 0.383543 3.26276 0.0348675 1.7243C0 1.51451 0 1.26976 0 1.05997C0.0348675 0.920106 0.13947 0.745281 0.244073 0.640386C0.313808 0.570456 0.453278 0.605421 0.55788 0.605421C6.06695 0.605421 11.576 0.605421 17.0851 0.605421C19.5258 0.605421 21.9317 0.640386 24.3375 0.675351C24.8257 0.675351 24.8257 0.675351 25 1.1299ZM12.4826 29.5565C14.5746 29.5565 16.7364 29.5215 18.8982 29.5215C19.1771 29.5215 19.4561 29.5215 19.735 29.4166C20.6416 29.1719 21.4435 28.6823 22.0711 27.983C22.8731 27.1089 23.2915 26.06 23.1869 24.8362C23.1172 24.2068 23.0823 23.5425 23.0126 22.9131C22.9079 21.9341 22.8382 20.9551 22.7336 19.9761C22.629 19.032 22.5244 18.053 22.4547 17.1089C22.3501 16.1299 22.2455 15.1159 22.1409 14.1369C22.0014 12.8432 21.4435 11.7942 20.4324 10.99C19.735 10.4306 18.9679 10.046 18.0614 10.011C16.9805 9.97605 15.8996 9.97605 14.8536 9.97605C12.3431 9.97605 9.8675 9.97605 7.35704 9.97605C6.52022 9.97605 5.75314 10.1858 5.09066 10.6404C3.94003 11.3397 3.17294 12.3537 2.92887 13.6823C2.75453 14.6614 2.71967 15.6404 2.61506 16.6194C2.54533 17.2837 2.47559 17.983 2.40586 18.6474C2.33612 19.4516 2.26639 20.2558 2.16179 21.0949C2.09205 21.8292 2.02232 22.5285 1.95258 23.2628C1.91771 23.997 1.88285 24.7663 1.84798 25.5005C1.84798 25.7453 1.91771 26.025 1.98745 26.2348C2.5802 27.9131 4.1841 29.5215 6.41562 29.4865C8.40307 29.4865 10.3905 29.5565 12.4826 29.5565ZM23.9191 1.75927C23.6053 1.65437 1.95258 1.54948 1.15063 1.65437C1.15063 1.68934 1.15063 1.7243 1.1855 1.75927C1.22036 1.86416 1.25523 1.93409 1.2901 2.03899C1.60391 2.73829 2.09205 3.33269 2.6848 3.78724C3.13808 4.17185 3.66109 4.45157 4.25384 4.48654C4.88145 4.5215 5.50907 4.55647 6.13668 4.59143C9.51883 4.59143 12.9358 4.59143 16.318 4.59143C17.5035 4.59143 18.689 4.59143 19.8745 4.55647C20.3278 4.55647 20.781 4.5215 21.2343 4.41661C21.9317 4.24178 22.4895 3.8222 22.9777 3.29773C23.3961 2.87815 23.7099 2.35367 23.9191 1.75927ZM13.8773 8.8222C13.8773 7.77325 13.8773 6.68934 13.8773 5.64039C12.9707 5.64039 12.099 5.64039 11.1925 5.64039C11.1925 6.68934 11.1925 7.73829 11.1925 8.8222C12.0642 8.8222 12.9707 8.8222 13.8773 8.8222Z" fill="#5E5F5F"/>
<path d="M19.9442 19.7667C19.9442 23.5079 17.0502 27.1443 12.5174 27.2492C8.64715 27.3541 4.88146 24.1373 4.95119 19.6618C4.98606 15.396 8.36821 12.3541 12.2036 12.2142C16.7364 12.0744 20.0837 15.8506 19.9442 19.7667ZM13.0056 26.2352C14.8187 26.0604 16.2483 25.2562 17.4338 23.8925C18.3055 22.8786 18.7936 21.7247 18.9331 20.396C18.7936 20.396 18.689 20.396 18.5495 20.396C18.3403 20.3611 18.1311 20.3611 17.9219 20.2911C17.6778 20.2212 17.5732 20.0114 17.6081 19.7317C17.6081 19.5219 17.7127 19.382 17.9568 19.3121C18.1311 19.2772 18.3403 19.2772 18.5147 19.2422C18.6541 19.2422 18.7936 19.2422 18.9331 19.2422C18.9331 19.1723 18.8982 19.1023 18.8982 19.0674C18.8982 18.9974 18.8633 18.9625 18.8633 18.8925C18.5495 16.8995 17.5384 15.3261 15.795 14.2422C15.0628 13.7876 14.226 13.5079 13.3891 13.3681C13.1102 13.3331 13.0753 13.3681 13.0405 13.6478C13.0405 13.8576 13.0056 14.0674 12.9707 14.2772C12.901 14.5569 12.6569 14.6618 12.378 14.6268C12.1339 14.5918 11.9944 14.452 11.9596 14.1723C11.9247 13.9974 11.9247 13.7876 11.9247 13.5779C11.9247 13.2282 11.8898 13.1932 11.5412 13.2632C9.90238 13.5079 8.54255 14.3121 7.46166 15.5359C6.76431 16.3051 6.38076 17.2492 6.10182 18.2282C6.03209 18.5079 5.96235 18.8226 5.92749 19.1373C6.10182 19.1373 6.24129 19.1373 6.38076 19.1373C6.52023 19.1373 6.6597 19.1373 6.79917 19.1373C7.04325 19.1723 7.28732 19.452 7.28732 19.6967C7.28732 19.9765 7.07811 20.1513 6.79917 20.1513C6.58997 20.1513 6.38076 20.1513 6.17156 20.1862C6.03209 20.1862 5.96235 20.2562 5.99722 20.396C5.99722 20.466 5.99722 20.5359 5.99722 20.5709C6.13669 21.1303 6.27616 21.6897 6.48537 22.2492C6.86891 23.2282 7.53139 23.9974 8.29848 24.6618C9.2399 25.5009 10.3557 25.9205 11.576 26.1303C11.7852 26.1653 11.8201 26.0953 11.855 25.9205C11.8898 25.7107 11.8898 25.5009 11.9596 25.2911C12.0293 24.9765 12.2385 24.8366 12.5174 24.8716C12.7964 24.9065 12.9359 25.0464 12.9707 25.3611C13.0056 25.7107 13.0056 25.9555 13.0056 26.2352Z" fill="#5E5F5F"/>
<path d="M12.378 20.6754C12.2734 20.6404 12.1688 20.6055 12.0641 20.5355C11.9247 20.4306 11.8201 20.2908 11.7155 20.1509C11.6109 19.9761 11.576 19.8013 11.6806 19.6264C11.8549 19.3118 11.8549 18.9971 11.8549 18.6824C11.8898 17.9831 11.8898 17.3188 11.8898 16.6195C11.8898 16.4097 11.9247 16.1649 11.9944 15.9551C12.0641 15.7104 12.2385 15.6055 12.4826 15.6055C12.6918 15.6055 12.9358 15.7803 12.9358 15.9901C12.9707 16.2698 12.9707 16.5495 13.0056 16.8292C13.0056 17.5635 13.0404 18.2628 13.0404 18.9971C13.0404 19.1719 13.0753 19.3467 13.145 19.4866C13.424 20.046 13.0753 20.6404 12.378 20.6754Z" fill="#5E5F5F"/>
</svg>
