<svg width="30" height="30" viewBox="0 0 30 30" fill="none" xmlns="http://www.w3.org/2000/svg">
<path d="M15 0C6.72867 0 0 6.72867 0 15C0 23.2713 6.72867 30 15 30C23.2713 30 30 23.2713 30 15C30 6.72867 23.2713 0 15 0Z" fill="#00DC7F"/>
<path d="M22.6025 11.8216L14.4775 19.9464C14.2337 20.1902 13.9137 20.3129 13.5938 20.3129C13.2738 20.3129 12.9538 20.1902 12.71 19.9464L8.64761 15.884C8.15872 15.3954 8.15872 14.6053 8.64761 14.1166C9.13628 13.6277 9.92615 13.6277 10.415 14.1166L13.5938 17.2953L20.8351 10.0542C21.3238 9.56528 22.1136 9.56528 22.6025 10.0542C23.0912 10.5428 23.0912 11.3327 22.6025 11.8216Z" fill="#FAFAFA"/>
</svg>
