<svg width="111" height="111" viewBox="0 0 111 111" fill="none" xmlns="http://www.w3.org/2000/svg">
<path d="M63.2648 71.1611H60.712C59.8141 71.1611 59.0861 71.8891 59.0861 72.7871C59.0861 73.6851 59.8141 74.4131 60.712 74.4131H63.2648C64.1628 74.4131 64.8908 73.6851 64.8908 72.7871C64.8908 71.8891 64.1628 71.1611 63.2648 71.1611Z" fill="#FFDB06"/>
<path d="M72.5745 71.1611H70.0217C69.1237 71.1611 68.3957 71.8891 68.3957 72.7871C68.3957 73.6851 69.1237 74.4131 70.0217 74.4131H72.5745C73.4725 74.4131 74.2005 73.6851 74.2005 72.7871C74.2005 71.8891 73.4725 71.1611 72.5745 71.1611Z" fill="#FFDB06"/>
<path d="M81.8842 71.1611H79.3314C78.4334 71.1611 77.7054 71.8891 77.7054 72.7871C77.7054 73.6851 78.4334 74.4131 79.3314 74.4131H81.8842C82.7822 74.4131 83.5102 73.6851 83.5102 72.7871C83.5102 71.8891 82.7822 71.1611 81.8842 71.1611Z" fill="#FFDB06"/>
<path d="M91.1939 71.1611H88.6409C87.7429 71.1611 87.0149 71.8891 87.0149 72.7871C87.0149 73.6851 87.7429 74.4131 88.6409 74.4131H91.1939C92.0918 74.4131 92.8198 73.6851 92.8198 72.7871C92.8198 71.8891 92.0918 71.1611 91.1939 71.1611Z" fill="#FFDB06"/>
<path d="M63.2648 79.6953H60.712C59.8141 79.6953 59.0861 80.4233 59.0861 81.3213C59.0861 82.2193 59.8141 82.9473 60.712 82.9473H63.2648C64.1628 82.9473 64.8908 82.2193 64.8908 81.3213C64.8908 80.4233 64.1628 79.6953 63.2648 79.6953Z" fill="#FFDB06"/>
<path d="M72.5745 79.6953H70.0217C69.1237 79.6953 68.3957 80.4233 68.3957 81.3213C68.3957 82.2193 69.1237 82.9473 70.0217 82.9473H72.5745C73.4725 82.9473 74.2005 82.2193 74.2005 81.3213C74.2005 80.4233 73.4725 79.6953 72.5745 79.6953Z" fill="#FFDB06"/>
<path d="M81.8842 79.6953H79.3314C78.4334 79.6953 77.7054 80.4233 77.7054 81.3213C77.7054 82.2193 78.4334 82.9473 79.3314 82.9473H81.8842C82.7822 82.9473 83.5102 82.2193 83.5102 81.3213C83.5102 80.4233 82.7822 79.6953 81.8842 79.6953Z" fill="#FFDB06"/>
<path d="M91.1939 79.6953H88.6409C87.7429 79.6953 87.0149 80.4233 87.0149 81.3213C87.0149 82.2193 87.7429 82.9473 88.6409 82.9473H91.1939C92.0918 82.9473 92.8198 82.2193 92.8198 81.3213C92.8198 80.4233 92.0918 79.6953 91.1939 79.6953Z" fill="#FFDB06"/>
<path d="M37.3075 35.0107H29.0627C28.1647 35.0107 27.4367 35.7387 27.4367 36.6367C27.4367 37.5347 28.1647 38.2627 29.0627 38.2627H37.3075C38.2055 38.2627 38.9335 37.5347 38.9335 36.6367C38.9335 35.7387 38.2055 35.0107 37.3075 35.0107Z" fill="#FFDB06"/>
<path d="M37.3075 41.5198H29.0627C28.1647 41.5198 27.4367 42.2478 27.4367 43.1458C27.4367 44.0437 28.1647 44.7717 29.0627 44.7717H37.3075C38.2055 44.7717 38.9335 44.0437 38.9335 43.1458C38.9335 42.2478 38.2055 41.5198 37.3075 41.5198Z" fill="#FFDB06"/>
<path d="M94.3298 62.5204V51.7995C94.3298 49.9477 92.8231 48.4409 90.9712 48.4409H61.1684C59.3165 48.4409 57.8098 49.9477 57.8098 51.7995V62.5204C57.8098 64.3722 59.3165 65.879 61.1684 65.879H90.9712C92.8231 65.8792 94.3298 64.3725 94.3298 62.5204ZM91.0779 62.5204C91.0779 62.5791 91.03 62.627 90.9712 62.627H61.1684C61.1096 62.627 61.0617 62.5791 61.0617 62.5204V51.7995C61.0617 51.7408 61.1096 51.6929 61.1684 51.6929H90.9712C91.03 51.6929 91.0779 51.7408 91.0779 51.7995V62.5204Z" fill="#FFDB06"/>
<path d="M14.7647 58.6302V62.8493C14.7647 64.52 16.1238 65.8788 17.7943 65.8788H48.5762C50.2468 65.8788 51.6057 64.5197 51.6057 62.8493V58.6302C51.6057 56.9596 50.2466 55.6007 48.5762 55.6007H46.0409V31.288C46.0409 29.4242 44.5247 27.908 42.6611 27.908H23.7096C21.8458 27.908 20.3297 29.4242 20.3297 31.288V55.6007H17.7943C16.1236 55.6007 14.7647 56.9596 14.7647 58.6302ZM46.0407 58.8527H48.3535V62.6271H46.0407V58.8527ZM23.5814 31.288C23.5814 31.2174 23.6389 31.1599 23.7093 31.1599H42.6609C42.7315 31.1599 42.7888 31.2174 42.7888 31.288V62.6271H23.5814V31.288ZM18.0167 58.8527H20.3295V62.6271H18.0167V58.8527Z" fill="#FFDB06"/>
<path d="M107.517 91.7914H105.205L101.744 41.5632C101.6 39.4696 99.8432 37.8296 97.7446 37.8296H82.5224V30.9042H98.5218C101.293 30.9042 103.548 28.6495 103.548 25.878V6.16465C103.548 3.39312 101.293 1.13843 98.5218 1.13843H53.2503C50.4788 1.13843 48.2241 3.39312 48.2241 6.16465V25.878C48.2241 28.6495 50.4788 30.9042 53.2503 30.9042H69.2497V37.8296H52.043C51.145 37.8296 50.417 38.5576 50.417 39.4555C50.417 40.3535 51.145 41.0815 52.043 41.0815H97.7446C98.1409 41.0815 98.4726 41.3913 98.4999 41.7865L101.945 91.7912H8.97106L12.4162 41.7863C12.4433 41.3911 12.7752 41.0813 13.1715 41.0813H14.3151C15.2131 41.0813 15.9411 40.3533 15.9411 39.4553C15.9411 38.5574 15.2131 37.8293 14.3151 37.8293H13.1715C11.0729 37.8293 9.31598 39.4692 9.17181 41.5628L5.7113 91.7914H3.48306C1.56267 91.7914 0 93.3538 0 95.2744V106.378C0 108.299 1.56267 109.861 3.48306 109.861H107.517C109.437 109.861 111 108.299 111 106.378V95.2744C111 93.3538 109.437 91.7914 107.517 91.7914ZM53.2503 27.6523C52.2721 27.6523 51.476 26.8564 51.476 25.878V6.16465C51.476 5.18624 52.2719 4.39038 53.2503 4.39038H98.5216C99.4998 4.39038 100.296 5.18624 100.296 6.16465V25.878C100.296 26.8564 99.5 27.6523 98.5216 27.6523H53.2503ZM79.2705 37.8296H72.5016V30.9042H79.2705V37.8296ZM107.748 106.378C107.748 106.506 107.644 106.609 107.517 106.609H91.5434V103.096C91.5434 100.888 89.7474 99.092 87.5398 99.092H81.6683C80.7703 99.092 80.0423 99.82 80.0423 100.718C80.0423 101.616 80.7703 102.344 81.6683 102.344H87.5398C87.9543 102.344 88.2914 102.681 88.2914 103.096V106.609H23.5814V103.096C23.5814 102.681 23.9185 102.344 24.3331 102.344H74.0611C74.959 102.344 75.687 101.616 75.687 100.718C75.687 99.82 74.959 99.092 74.0611 99.092H24.3331C22.1254 99.092 20.3295 100.888 20.3295 103.096V106.609H3.48306C3.35558 106.609 3.25195 106.506 3.25195 106.378V95.2744C3.25195 95.147 3.3558 95.0433 3.48306 95.0433H107.517C107.644 95.0433 107.748 95.1472 107.748 95.2744V106.378H107.748Z" fill="#FFDB06"/>
<path d="M94.1015 7.64746H57.6704C56.0507 7.64746 54.7332 8.96515 54.7332 10.5846V21.4579C54.7332 23.0775 56.0509 24.395 57.6704 24.395H94.1015C95.7212 24.395 97.0387 23.0773 97.0387 21.4579V10.5846C97.0389 8.96515 95.7212 7.64746 94.1015 7.64746ZM93.787 21.1431H57.9852V10.8994H93.787V21.1431Z" fill="#FFDB06"/>
</svg>
