<svg width="30" height="30" viewBox="0 0 30 30" fill="none" xmlns="http://www.w3.org/2000/svg">
<path d="M15 0C6.72867 0 0 6.72867 0 15C0 23.2713 6.72867 30 15 30C23.2713 30 30 23.2713 30 15C30 6.72867 23.2713 0 15 0Z" fill="#F44336"/>
<path d="M20.5238 18.7564C21.0125 19.2453 21.0125 20.0351 20.5238 20.524C20.2801 20.7678 19.9601 20.8902 19.6399 20.8902C19.3199 20.8902 19 20.7678 18.7562 20.524L15 16.7676L11.2438 20.524C11.0001 20.7678 10.6801 20.8902 10.3601 20.8902C10.0399 20.8902 9.71994 20.7678 9.47618 20.524C8.98751 20.0351 8.98751 19.2453 9.47618 18.7564L13.2326 15.0002L9.47618 11.244C8.98751 10.7551 8.98751 9.96525 9.47618 9.47636C9.96507 8.9877 10.7549 8.9877 11.2438 9.47636L15 13.2328L18.7562 9.47636C19.2451 8.9877 20.035 8.9877 20.5238 9.47636C21.0125 9.96525 21.0125 10.7551 20.5238 11.244L16.7674 15.0002L20.5238 18.7564Z" fill="#FAFAFA"/>
</svg>
