<svg width="100" height="100" viewBox="0 0 100 100" fill="none" xmlns="http://www.w3.org/2000/svg">
<circle cx="50" cy="50" r="50" fill="white"/>
<path d="M35.0001 61.5C31.691 61.5 29.0001 64.191 29.0001 67.5C29.0001 70.809 31.691 73.5 35.0001 73.5C38.3091 73.5 41.0001 70.809 41.0001 67.5C41.0001 64.191 38.309 61.5 35.0001 61.5ZM35.0001 71.5C32.794 71.5 31.0001 69.7059 31.0001 67.5C31.0001 65.2939 32.7941 63.5 35.0001 63.5C37.206 63.5 39 65.2941 39 67.5C39 69.7059 37.206 71.5 35.0001 71.5Z" fill="#FFDB06"/>
<path d="M69 61.5C65.691 61.5 63 64.191 63 67.5C63 70.809 65.691 73.5 69 73.5C72.309 73.5 75 70.809 75 67.5C75 64.191 72.309 61.5 69 61.5ZM69 71.5C66.7939 71.5 65 69.7059 65 67.5C65 65.2939 66.7941 63.5 69 63.5C71.2061 63.5 73 65.2941 73 67.5C73 69.7059 71.2061 71.5 69 71.5Z" fill="#FFDB06"/>
<path d="M80.841 55.9591L71.841 41.959C71.657 41.673 71.34 41.5 70.9999 41.5H60C59.447 41.5 59 41.948 59 42.5V67.4999C59 68.0529 59.447 68.4999 60 68.4999H64V66.4998H61V43.5H70.4539L79 56.794V66.5001H73.9999V68.5H79.9999C80.5529 68.5 80.9999 68.0531 80.9999 67.5V56.5C81 56.309 80.945 56.12 80.841 55.9591Z" fill="#FFDB06"/>
<path d="M65 54.4995V47.4996H73.0001V45.4995H64.0001C63.4471 45.4995 63.0001 45.9475 63.0001 46.4995V55.4995C63.0001 56.0525 63.4471 56.4994 64.0001 56.4994H79.0001V54.4994H65V54.4995Z" fill="#FFDB06"/>
<path d="M60 34.5H22C21.448 34.5 21 34.948 21 35.5V67.5C21 68.053 21.448 68.5 22 68.5H30V66.4999H23V36.4999H59V66.4999H40V68.5H60C60.553 68.5 61 68.053 61 67.5V35.5C61 34.948 60.553 34.5 60 34.5Z" fill="#FFDB06"/>
<path d="M27.9999 62.5H21.9999V64.5H27.9999V62.5Z" fill="#FFDB06"/>
<path d="M59 62.5H42V64.5H59V62.5Z" fill="#FFDB06"/>
<path d="M79.9999 62.5H76V64.5H79.9999V62.5Z" fill="#FFDB06"/>
<path d="M60 38.5005H25V40.5005H60V38.5005Z" fill="#FFDB06"/>
<path d="M36 66.5H34V68.5H36V66.5Z" fill="#FFDB06"/>
<path d="M70.0001 66.5H68V68.5H70.0001V66.5Z" fill="#FFDB06"/>
<path d="M39 30.4995H25V32.4996H39V30.4995Z" fill="#FFDB06"/>
<path d="M23 30.4995H21V32.4996H23V30.4995Z" fill="#FFDB06"/>
</svg>
