<svg width="90" height="122" viewBox="0 0 90 122" fill="none" xmlns="http://www.w3.org/2000/svg">
<path d="M45 33.3044C35.3963 33.3044 27.5806 41.2154 27.5806 50.9362H31.4516C31.4516 43.3744 37.5293 37.2226 45 37.2226V33.3044Z" fill="#FFDB06"/>
<path d="M58.5484 50.9362C58.5484 58.498 52.4707 64.6498 45 64.6498V68.5679C54.6037 68.5679 62.4193 60.657 62.4193 50.9362H58.5484Z" fill="#FFDB06"/>
<path d="M51.1004 42.062L42.7139 55.6455L38.6284 51.5102L35.8915 54.2805L41.6979 60.1578C42.0599 60.528 42.5532 60.7317 43.0645 60.7317C43.1382 60.7317 43.21 60.7279 43.2828 60.7202C43.8697 60.6514 44.3923 60.3185 44.7061 59.8105L54.3835 44.1378L51.1004 42.062Z" fill="#FFDB06"/>
<path d="M87.5806 0H10.1613C9.09336 0 8.2258 0.878146 8.2258 1.95909V7.83635H2.41935C1.35143 7.83635 0.483864 8.7145 0.483864 9.79544V107.75C0.483864 108.831 1.35143 109.709 2.41935 109.709H37.2581V113.627C37.2581 117.949 40.7302 121.463 45 121.463C49.2698 121.463 52.7419 117.949 52.7419 113.627V109.709H79.8387C80.9066 109.709 81.7742 108.831 81.7742 107.75V101.873H87.5806C88.6486 101.873 89.5161 100.994 89.5161 99.9135V1.95909C89.5161 0.878146 88.6486 0 87.5806 0ZM45 117.545C42.8651 117.545 41.129 115.788 41.129 113.627V92.0771H48.871V113.627C48.871 115.788 47.1349 117.545 45 117.545ZM45 72.4862C33.2614 72.4862 23.7097 62.818 23.7097 50.9363C23.7097 39.0545 33.2614 29.3863 45 29.3863C56.7386 29.3863 66.2903 39.0545 66.2903 50.9363C66.2903 62.818 56.7386 72.4862 45 72.4862ZM45 76.4044C46.3202 76.4044 47.6055 76.2695 48.871 76.0715V80.3226H41.129V76.0715C42.3945 76.2695 43.6797 76.4044 45 76.4044ZM41.129 84.2408H48.871V88.1589H41.129V84.2408ZM77.9032 105.791H52.7419V92.0771H56.6129V88.1589H52.7419V75.158C62.8371 71.8434 70.1613 62.246 70.1613 50.9363C70.1613 36.8936 58.8735 25.4681 45 25.4681C31.1265 25.4681 19.8387 36.8936 19.8387 50.9363C19.8387 62.2441 27.1629 71.8434 37.2581 75.158V88.1589H33.3871V92.0771H37.2581V105.791H4.35483V11.7545H66.2903V21.55C66.2903 22.6309 67.1579 23.509 68.2258 23.509H77.9032V105.791ZM75.1663 19.5909H70.1613V14.5248L75.1663 19.5909ZM85.6451 97.9544H81.7742V21.55C81.7742 21.0095 81.5578 20.5197 81.2071 20.1648L69.5961 8.41221C69.2436 8.05541 68.7598 7.83635 68.2258 7.83635H12.0968V3.91817H85.6451V97.9544Z" fill="#FFDB06"/>
</svg>
