<svg width="30" height="30" viewBox="0 0 30 30" fill="none" xmlns="http://www.w3.org/2000/svg">
<path d="M0 15C0 6.71573 6.71573 0 15 0C23.2843 0 30 6.71573 30 15C30 23.2843 23.2843 30 15 30C6.71573 30 0 23.2843 0 15Z" fill="#FD3DEA"/>
<mask id="mask0" mask-type="alpha" maskUnits="userSpaceOnUse" x="0" y="0" width="30" height="30">
<path fill-rule="evenodd" clip-rule="evenodd" d="M0 15C0 6.71573 6.71573 0 15 0C23.2843 0 30 6.71573 30 15C30 23.2843 23.2843 30 15 30C6.71573 30 0 23.2843 0 15Z" fill="white"/>
</mask>
<g mask="url(#mask0)">
<path fill-rule="evenodd" clip-rule="evenodd" d="M15.0007 7C12.8281 7 12.5554 7.0095 11.702 7.04833C10.8504 7.08733 10.269 7.22217 9.76036 7.42C9.23419 7.62434 8.78785 7.89768 8.34318 8.34251C7.89818 8.78719 7.62484 9.23352 7.41984 9.75953C7.2215 10.2684 7.0865 10.8499 7.04817 11.7012C7.01 12.5546 7 12.8274 7 15.0001C7 17.1728 7.00967 17.4446 7.04833 18.298C7.0875 19.1496 7.22234 19.731 7.42 20.2396C7.62451 20.7658 7.89784 21.2121 8.34268 21.6568C8.78718 22.1018 9.23352 22.3758 9.75936 22.5802C10.2684 22.778 10.8499 22.9128 11.7014 22.9518C12.5547 22.9907 12.8272 23.0002 14.9997 23.0002C17.1726 23.0002 17.4444 22.9907 18.2978 22.9518C19.1495 22.9128 19.7315 22.778 20.2405 22.5802C20.7665 22.3758 21.2121 22.1018 21.6566 21.6568C22.1017 21.2121 22.375 20.7658 22.58 20.2398C22.7767 19.731 22.9117 19.1495 22.9517 18.2981C22.99 17.4448 23 17.1728 23 15.0001C23 12.8274 22.99 12.5547 22.9517 11.7014C22.9117 10.8497 22.7767 10.2684 22.58 9.7597C22.375 9.23352 22.1017 8.78719 21.6566 8.34251C21.2116 7.89751 20.7666 7.62417 20.24 7.42C19.73 7.22217 19.1483 7.08733 18.2966 7.04833C17.4433 7.0095 17.1716 7 14.9982 7H15.0007ZM14.734 8.4416H14.7341L15.0008 8.44168C17.1368 8.44168 17.3899 8.44935 18.2335 8.48768C19.0135 8.52335 19.4368 8.65368 19.7188 8.76318C20.0921 8.90818 20.3583 9.08152 20.6381 9.36152C20.9182 9.64153 21.0915 9.90819 21.2368 10.2815C21.3463 10.5632 21.4768 10.9865 21.5123 11.7665C21.5507 12.6099 21.559 12.8632 21.559 14.9982C21.559 17.1333 21.5507 17.3866 21.5123 18.2299C21.4767 19.01 21.3463 19.4333 21.2368 19.715C21.0918 20.0883 20.9182 20.3541 20.6381 20.634C20.3581 20.914 20.0923 21.0873 19.7188 21.2323C19.4371 21.3423 19.0135 21.4723 18.2335 21.508C17.3901 21.5463 17.1368 21.5546 15.0008 21.5546C12.8646 21.5546 12.6114 21.5463 11.7681 21.508C10.988 21.472 10.5647 21.3416 10.2825 21.2321C9.9092 21.0871 9.64253 20.9138 9.36253 20.6338C9.08253 20.3538 8.90919 20.0878 8.76386 19.7143C8.65436 19.4326 8.52386 19.0093 8.48836 18.2293C8.45002 17.3859 8.44236 17.1326 8.44236 14.9962C8.44236 12.8599 8.45002 12.6079 8.48836 11.7645C8.52402 10.9845 8.65436 10.5612 8.76386 10.2792C8.90886 9.90586 9.08253 9.63919 9.36253 9.35919C9.64253 9.07919 9.9092 8.90585 10.2825 8.76052C10.5645 8.65051 10.988 8.52051 11.7681 8.48468C12.5061 8.45135 12.7921 8.44135 14.2831 8.43968V8.44168C14.4224 8.44146 14.5723 8.44153 14.734 8.4416ZM18.3111 10.7297C18.3111 10.1995 18.7411 9.77003 19.2711 9.77003V9.76969C19.8011 9.76969 20.2311 10.1997 20.2311 10.7297C20.2311 11.2597 19.8011 11.6897 19.2711 11.6897C18.7411 11.6897 18.3111 11.2597 18.3111 10.7297ZM15.0006 10.8917C12.7318 10.8918 10.8924 12.7313 10.8924 15.0001C10.8924 17.2689 12.7319 19.1076 15.0008 19.1076C17.2696 19.1076 19.1085 17.2689 19.1085 15.0001C19.1085 12.7312 17.2694 10.8917 15.0006 10.8917ZM17.6674 15.0001C17.6674 13.5272 16.4734 12.3334 15.0008 12.3334C13.5279 12.3334 12.3341 13.5272 12.3341 15.0001C12.3341 16.4728 13.5279 17.6668 15.0008 17.6668C16.4734 17.6668 17.6674 16.4728 17.6674 15.0001Z" fill="white"/>
</g>
</svg>
