<svg width="60" height="60" viewBox="0 0 60 60" fill="none" xmlns="http://www.w3.org/2000/svg">
<g clip-path="url(#clip0)">
<path d="M9.96939 53.3126C9.75154 53.0945 9.44919 52.9692 9.14099 52.9692C8.83279 52.9692 8.53044 53.0945 8.31248 53.3126C8.09451 53.5307 7.96912 53.8329 7.96912 54.1411C7.96912 54.4493 8.09439 54.7517 8.31248 54.9695C8.53044 55.1875 8.83279 55.313 9.14099 55.313C9.44919 55.313 9.75154 55.1876 9.96939 54.9695C10.1874 54.7517 10.3129 54.4493 10.3129 54.1411C10.3129 53.8329 10.1875 53.5306 9.96939 53.3126Z" fill="#FFDB06"/>
<path d="M55.0223 21.4381C54.8044 21.22 54.5032 21.0947 54.1938 21.0947C53.8856 21.0947 53.5833 21.22 53.3653 21.4381C53.1474 21.6561 53.0219 21.9584 53.0219 22.2666C53.0219 22.5748 53.1473 22.8771 53.3653 23.095C53.5833 23.313 53.8856 23.4385 54.1938 23.4385C54.5032 23.4385 54.8044 23.3131 55.0223 23.095C55.2414 22.8771 55.3668 22.5748 55.3668 22.2666C55.3668 21.9584 55.2414 21.6561 55.0223 21.4381Z" fill="#FFDB06"/>
<path d="M59.6566 0.343242C59.4368 0.123516 59.1387 0 58.8278 0L30.0004 0.00152344C29.3532 0.00152344 28.8286 0.526289 28.8286 1.1734V4.52461L17.7205 7.50105C17.0953 7.66863 16.7243 8.31117 16.8919 8.93625L22.6489 30.4216L17.6686 35.402C17.0347 34.4764 15.9704 33.8678 14.7666 33.8678H3.51691C1.5784 33.8678 0.00140381 35.4449 0.00140381 37.3833V56.4844C0.00140381 58.4229 1.5784 60 3.51691 60H14.7667C16.4135 60 17.7989 58.8614 18.1786 57.3305L19.572 58.5456C20.6476 59.4836 22.0257 60.0001 23.453 60.0001H58.828C59.4751 60.0001 59.9999 59.4754 59.9999 58.8282V1.17188C59.9997 0.861094 59.8764 0.562969 59.6566 0.343242ZM15.9383 56.4845C15.9383 57.1305 15.4126 57.6564 14.7664 57.6564H3.51679C2.87062 57.6564 2.34492 57.1307 2.34492 56.4845V37.3834C2.34492 36.7372 2.87062 36.2115 3.51679 36.2115H7.9698V49.7109C7.9698 50.358 8.49457 50.8828 9.14168 50.8828C9.78879 50.8828 10.3136 50.358 10.3136 49.7109V36.2115H14.7666C15.4127 36.2115 15.9384 36.7372 15.9384 37.3834V56.4845H15.9383ZM19.459 9.4616L28.8286 6.95098V11.2934L28.0432 11.5038C27.7429 11.5843 27.487 11.7806 27.3316 12.0498C27.1763 12.319 27.1341 12.6388 27.2146 12.939C27.6649 14.6196 26.664 16.3532 24.9834 16.8035C24.6829 16.8841 24.4266 17.0808 24.2713 17.3505C24.116 17.6202 24.0742 17.9406 24.1554 18.2411L28.7232 35.1557H26.3713L25.1592 30.4138C25.1207 30.2629 25.0532 30.1237 24.9628 30.0028L19.459 9.4616ZM28.8286 16.6675V26.5559L26.6912 18.6416C27.5841 18.1806 28.3147 17.4908 28.8286 16.6675ZM45.6642 57.6562H23.4527C22.592 57.6562 21.7608 57.3448 21.112 56.7791L18.2821 54.311V38.1032L23.3982 32.987L24.3261 36.6175C24.4588 37.1362 24.926 37.4991 25.4614 37.4991L48.501 37.5005C49.4057 37.5005 50.1416 38.2364 50.1416 39.1411C50.1416 40.0458 49.4057 40.7817 48.501 40.7817H36.6955C36.0484 40.7817 35.5236 41.3065 35.5236 41.9536C35.5236 42.6007 36.0484 43.1255 36.6955 43.1255H52.169C53.0736 43.1255 53.8096 43.8614 53.8096 44.7661C53.8096 45.6708 53.0736 46.4067 52.169 46.4067H36.6955C36.0484 46.4067 35.5236 46.9315 35.5236 47.5786C35.5236 48.2257 36.0484 48.7505 36.6955 48.7505H49.6615C50.5662 48.7505 51.3021 49.4864 51.3021 50.3911C51.3021 51.2958 50.5662 52.0317 49.6615 52.0317H36.6955C36.0484 52.0317 35.5236 52.5565 35.5236 53.2036C35.5236 53.8507 36.0484 54.3755 36.6955 54.3755H45.6642C46.5689 54.3755 47.3048 55.1114 47.3048 56.0161C47.3047 56.9203 46.5688 57.6562 45.6642 57.6562ZM57.6561 57.6562H57.656H49.2936C49.5209 57.1555 49.6485 56.6004 49.6485 56.0156C49.6485 55.4309 49.5209 54.8757 49.2936 54.375H49.6615C51.8584 54.375 53.6457 52.5877 53.6457 50.3907C53.6457 49.75 53.4928 49.1445 53.2228 48.6075C54.9098 48.1441 56.1531 46.5979 56.1531 44.7659C56.1531 43.8771 55.8604 43.0555 55.3666 42.3922V27.5399C55.3666 26.8928 54.8419 26.368 54.1948 26.368C53.5477 26.368 53.0229 26.8928 53.0229 27.5399V40.8749C52.7475 40.8145 52.4619 40.7817 52.1687 40.7817H52.1303C52.3575 40.281 52.4851 39.7259 52.4851 39.1411C52.4851 36.9441 50.6978 35.1568 48.5009 35.1568H46.6171C48.6173 34.299 50.0222 32.3108 50.0222 30C50.0222 26.9075 47.5064 24.3916 44.4139 24.3916C41.3216 24.3916 38.8057 26.9075 38.8057 30C38.8057 32.3108 40.2107 34.299 42.2108 35.1568H35.805V12.8746C37.8984 12.4184 39.5503 10.7666 40.0064 8.67305H48.8214C49.2775 10.7666 50.9293 12.4184 53.0228 12.8746V16.5179C53.0228 17.165 53.5475 17.6898 54.1947 17.6898C54.8418 17.6898 55.3665 17.165 55.3665 16.5179V11.8283C55.3665 11.1812 54.8418 10.6564 54.1947 10.6564C52.4548 10.6564 51.0395 9.24094 51.0395 7.50117C51.0395 6.85406 50.5147 6.3293 49.8676 6.3293H38.9603C38.3132 6.3293 37.7884 6.85406 37.7884 7.50117C37.7884 9.24105 36.373 10.6564 34.6332 10.6564C33.9861 10.6564 33.4614 11.1812 33.4614 11.8283V35.1567H31.1725V2.34504L57.6561 2.34375V57.6562ZM44.4142 33.2646C42.6141 33.2646 41.1497 31.8001 41.1497 30.0001C41.1497 28.2001 42.6142 26.7355 44.4142 26.7355C46.2142 26.7355 47.6787 28.2 47.6787 30C47.6787 31.8 46.2143 33.2646 44.4142 33.2646Z" fill="#FFDB06"/>
</g>
<defs>
<clipPath id="clip0">
<rect width="60" height="60" fill="white"/>
</clipPath>
</defs>
</svg>
