<svg width="42" height="51" viewBox="0 0 42 51" fill="none" xmlns="http://www.w3.org/2000/svg">
<path d="M0.484375 19.6841V50.1051C0.484375 50.5992 0.893005 51 1.39685 51H10.4438C10.4573 51 10.4684 50.993 10.4811 50.993C10.4938 50.993 10.5057 51 10.5196 51H28.7652C28.8294 50.9946 28.8933 50.9817 28.9548 50.9623C29.0167 50.9817 29.0806 50.9942 29.1456 51H36.9755C37.438 51 37.8272 50.6603 37.8816 50.2101L39.7061 34.9995C39.7649 34.5088 39.407 34.0641 38.9067 34.0061C38.8714 34.0022 38.8357 33.9999 38.8 33.9999V26.842C38.8004 26.7821 38.7941 26.7222 38.7818 26.663L37.8879 22.279V19.6841H39.7125C40.7202 19.6841 41.537 18.883 41.537 17.8947V13.4212C41.537 12.4329 40.7202 11.6317 39.7125 11.6317H37.6344C37.3111 11.0796 36.7124 10.7387 36.0634 10.7368H34.2388C33.2311 10.7368 32.4143 11.538 32.4143 12.5263V22.3685C32.4143 22.4285 32.4202 22.4884 32.4325 22.5475L33.3264 26.9315V33.9999H31.5018V28.6315C31.5022 28.5179 31.48 28.4054 31.4371 28.2996L31.4308 28.2836L29.6772 23.9852V21.4736C29.6772 20.4853 28.8604 19.6841 27.8527 19.6841H26.0281C25.0204 19.6841 24.2036 20.4853 24.2036 21.4736V23.9852L22.4512 28.2801L22.4449 28.2961C22.4012 28.4027 22.379 28.5167 22.379 28.6315V33.9999H21.4669C20.9631 34.0003 20.5545 34.4006 20.5545 34.8948C20.5545 34.9298 20.5569 34.9648 20.5608 34.9995L20.8703 37.5788H18.7299V19.6841C18.7244 16.2756 16.5324 13.2391 13.2563 12.1014V7.15787C13.2563 6.66371 12.848 6.26333 12.3442 6.26333H10.5196V5.3684H12.3442C12.848 5.3684 13.2563 4.96802 13.2563 4.47386V3.57893H16.5277L18.9973 6.00108C19.3595 6.34426 19.9372 6.33453 20.2871 5.9789C20.6287 5.63221 20.6287 5.08241 20.2871 4.73573L17.5504 2.05172C17.3795 1.88402 17.1474 1.78947 16.9054 1.78947H13.0884C12.7032 0.721001 11.6753 0.00466919 10.5196 0H8.69507C7.18353 0 5.95804 1.20193 5.95804 2.68439V4.47386C5.95804 4.96802 6.36667 5.3684 6.87051 5.3684H8.69507V6.26333H6.87051C6.36667 6.26333 5.95804 6.66371 5.95804 7.15787V12.1014C2.68185 13.2391 0.489929 16.2756 0.484375 19.6841H0.484375ZM37.8879 13.4212H39.7125V17.8947H37.8879V13.4212ZM2.30893 24.158H16.9054V33.1053H2.30893V24.158ZM10.5196 43.8421C10.0158 43.8421 9.60715 44.2425 9.60715 44.7367V49.2105H2.30893V34.8948H16.9054V37.5788H14.6246C12.3573 37.5807 10.5208 39.385 10.5228 41.6087C10.5236 42.4036 10.764 43.1811 11.2147 43.8421H10.5196ZM27.8527 49.2105H11.4317V45.6316H27.8527V49.2105ZM34.2388 12.5263H36.0634V22.3685C36.0634 22.4285 36.0693 22.4884 36.0816 22.5475L36.9755 26.9315V33.9999H35.1509V26.842C35.1513 26.7821 35.145 26.7222 35.1327 26.663L34.2388 22.279V12.5263ZM26.0281 21.4736H27.8527V23.2631H26.0281V21.4736ZM25.7334 25.0525H28.1475L29.242 27.7369H24.6388L25.7334 25.0525ZM24.2036 29.5264H29.6772V33.9999H24.2036V29.5264ZM37.7737 35.7893L36.1638 49.2105H29.6772V44.7367C29.6772 44.2425 29.269 43.8421 28.7652 43.8421H27.1576C28.4172 41.9931 27.9102 39.4928 26.025 38.2574C25.3509 37.8158 24.5583 37.5796 23.7473 37.5788H22.7075L22.4933 35.7893H37.7737ZM23.7473 39.3683C25.007 39.3683 26.0281 40.3698 26.0281 41.6052C26.0281 42.8406 25.007 43.8421 23.7473 43.8421H14.6246C13.365 43.8421 12.3442 42.8406 12.3442 41.6052C12.3442 40.3698 13.365 39.3683 14.6246 39.3683H23.7473ZM7.78259 3.57893V2.68439C7.78259 2.19024 8.19122 1.78947 8.69507 1.78947H10.5196C11.0235 1.78947 11.4317 2.19024 11.4317 2.68439V3.57893H7.78259ZM7.78259 8.0528H11.4317V11.6317H7.78259V8.0528ZM8.69507 13.4212H10.5196C14.0446 13.4255 16.901 16.227 16.9054 19.6841V22.3685H2.30893V19.6841C2.31329 16.227 5.16974 13.4255 8.69507 13.4212Z" fill="#FFDB06"/>
</svg>
