<svg width="51" height="51" viewBox="0 0 51 51" fill="none" xmlns="http://www.w3.org/2000/svg">
<path d="M49.4062 29.4844H31.0781V14.3438C31.0781 13.9039 30.7219 13.5469 30.2812 13.5469H29.4844V7.96875C29.4844 7.52887 29.1282 7.17188 28.6875 7.17188H23.0624C22.6647 3.59152 19.623 0.796875 15.9375 0.796875C12.252 0.796875 9.21028 3.59152 8.81264 7.17188H3.1875C2.74683 7.17188 2.39062 7.52887 2.39062 7.96875V13.5469H1.59375C1.15308 13.5469 0.796875 13.9039 0.796875 14.3438V49.4062C0.796875 49.8469 1.15308 50.2031 1.59375 50.2031H30.2812C30.7219 50.2031 31.0781 49.8469 31.0781 49.4062V47.0156H49.4062C49.8469 47.0156 50.2031 46.6594 50.2031 46.2188V30.2812C50.2031 29.8406 49.8469 29.4844 49.4062 29.4844ZM5.24822 11.1562L3.98438 12.4201V9.89241L5.24822 11.1562ZM6.93839 11.7196C7.24997 11.4081 7.24997 10.9044 6.93839 10.5929L5.11116 8.76562H8.76562V13.5469H5.11116L6.93839 11.7196ZM10.3594 8.76562H21.5156V13.5469H10.3594V8.76562ZM23.1094 8.76562H26.7638L24.9366 10.5929C24.625 10.9044 24.625 11.4081 24.9366 11.7196L26.7638 13.5469H23.1094V8.76562ZM27.8906 9.89241V12.4201L26.6268 11.1562L27.8906 9.89241ZM15.9375 2.39062C18.7417 2.39062 21.063 4.47286 21.4519 7.17188H10.4231C10.812 4.47286 13.1333 2.39062 15.9375 2.39062ZM29.4844 48.6094H2.39062V15.1406H8.76562V17.6444C7.3942 18.0006 6.375 19.2382 6.375 20.7188C6.375 22.4767 7.80459 23.9062 9.5625 23.9062C11.3204 23.9062 12.75 22.4767 12.75 20.7188C12.75 19.2382 11.7308 18.0006 10.3594 17.6444V15.1406H21.5156V17.6444C20.1442 18.0006 19.125 19.2382 19.125 20.7188C19.125 22.4767 20.5546 23.9062 22.3125 23.9062C24.0704 23.9062 25.5 22.4767 25.5 20.7188C25.5 19.2382 24.4808 18.0006 23.1094 17.6444V15.1406H29.4844V29.4844H15.9375C15.4968 29.4844 15.1406 29.8406 15.1406 30.2812V46.2188C15.1406 46.6594 15.4968 47.0156 15.9375 47.0156H29.4844V48.6094ZM10.3594 19.3465C10.8335 19.623 11.1562 20.1315 11.1562 20.7188C11.1562 21.5977 10.4415 22.3125 9.5625 22.3125C8.68355 22.3125 7.96875 21.5977 7.96875 20.7188C7.96875 20.1315 8.29148 19.623 8.76562 19.3465V20.7188H10.3594V19.3465ZM23.1094 19.3465C23.5835 19.623 23.9062 20.1315 23.9062 20.7188C23.9062 21.5977 23.1915 22.3125 22.3125 22.3125C21.4335 22.3125 20.7188 21.5977 20.7188 20.7188C20.7188 20.1315 21.0415 19.623 21.5156 19.3465V20.7188H23.1094V19.3465ZM48.6094 45.4219H16.7344V31.0781H48.6094V45.4219Z" fill="#FFDB06"/>
<path d="M27.8906 32.6719H26.2969V43.8281H27.8906V32.6719Z" fill="#FFDB06"/>
<path d="M19.9219 32.6719H18.3281V43.8281H19.9219V32.6719Z" fill="#FFDB06"/>
<path d="M31.0781 32.6719H29.4844V43.8281H31.0781V32.6719Z" fill="#FFDB06"/>
<path d="M39.0469 32.6719H37.4531V43.8281H39.0469V32.6719Z" fill="#FFDB06"/>
<path d="M47.0156 32.6719H45.4219V43.8281H47.0156V32.6719Z" fill="#FFDB06"/>
<path d="M24.7031 32.6719H21.5156V43.8281H24.7031V32.6719Z" fill="#FFDB06"/>
<path d="M35.8594 32.6719H32.6719V43.8281H35.8594V32.6719Z" fill="#FFDB06"/>
<path d="M43.8281 32.6719H40.6406V43.8281H43.8281V32.6719Z" fill="#FFDB06"/>
<path d="M5.57812 29.4844H3.98438V46.2188C3.98438 46.6594 4.34058 47.0156 4.78125 47.0156H13.5469V45.4219H5.57812V29.4844Z" fill="#FFDB06"/>
</svg>
