<svg width="57" height="54" viewBox="0 0 57 54" fill="none" xmlns="http://www.w3.org/2000/svg">
<g clip-path="url(#clip0)">
<path d="M47.5843 7.44722L49.0741 6.9519L50.604 11.7523L49.1142 12.2472L47.5843 7.44722Z" fill="#FFDB06"/>
<path d="M45.2882 13.048L46.778 12.5527L48.3084 17.3523L46.8186 17.848L45.2882 13.048Z" fill="#FFDB06"/>
<path d="M18.8737 15.3817C18.7085 16.6039 19.0577 17.8406 19.8357 18.7848L20.9667 20.2336V33.6H22.5334V21.4953L23.6651 22.2656C23.9287 22.4449 24.2714 22.4449 24.5349 22.2656L26.45 20.9602L28.3651 22.2641C28.6287 22.4434 28.9714 22.4434 29.2349 22.2641L31.15 20.9602L33.0651 22.2641C33.3287 22.4434 33.6714 22.4434 33.9349 22.2641L35.85 20.9602L37.7651 22.2641C38.0287 22.4434 38.3714 22.4434 38.6349 22.2641L40.55 20.9602L42.1167 22.0266V46.4H24.8834V48H46.8167C48.9789 47.9973 50.7307 46.2082 50.7334 44V20C50.7314 19.8242 50.6722 19.6539 50.5651 19.516L55.0918 7.20823C55.7011 5.55471 55.4781 3.70159 54.4951 2.24807C53.5611 0.837913 52.0013 -0.00505531 50.3348 2.28135e-05C48.2105 0.0203353 46.3183 1.3758 45.5767 3.40901L44.3485 6.74807L42.9 5.26877V2.40002C42.9 1.95823 42.5493 1.60002 42.1167 1.60002H33.5C33.0674 1.60002 32.7167 1.95823 32.7167 2.40002V3.77268C31.8312 2.95315 30.4956 2.90666 29.5573 3.6633V2.40002C29.5573 1.09065 28.5181 0.028929 27.2357 0.028929C25.9536 0.028929 24.914 1.09065 24.914 2.40002V3.66409C24.4852 3.30119 23.9455 3.10276 23.3886 3.10393C22.7422 3.10237 22.1226 3.36877 21.6716 3.8426C20.7426 4.82034 20.7368 6.37346 21.6582 7.35862L22.3876 8.12737C22.1222 8.25159 21.8812 8.42424 21.6766 8.63674L21.6716 8.63987L21.664 8.64807C21.4815 8.83948 21.3304 9.05979 21.2172 9.3008L20.3245 7.61682L18.9464 8.37854L20.972 12.1969C20.8814 12.2496 20.7904 12.3008 20.7043 12.361C20.6722 12.3832 20.6439 12.409 20.6125 12.4313L17.5813 9.57854L16.5191 10.7551L19.5301 13.5903C19.1843 14.1305 18.9602 14.7422 18.8737 15.3817ZM35.4151 19.3344L33.5 20.6399L31.5849 19.336C31.3214 19.1567 30.9787 19.1567 30.7151 19.336L28.818 20.6281C28.8134 20.5481 28.8 20.4785 28.8 20.4016C28.7951 18.6434 30.0378 17.1399 31.7356 16.85C33.4339 16.5598 35.0877 17.5684 35.6431 19.2328C35.5624 19.2543 35.4855 19.2883 35.4151 19.3344ZM37.4167 20.1055L37.4018 20.0953C37.3077 18.4137 36.4207 16.8832 35.0223 15.9899C33.6243 15.0965 31.8886 14.9512 30.3667 15.6V10.4H37.4167V20.1055ZM49.1667 44C49.1667 45.3254 48.1145 46.4 46.8167 46.4H43.6834V22.0281L45.25 20.9602L47.1651 22.2641C47.4287 22.4434 47.7714 22.4434 48.0349 22.2641L49.1667 21.4953V44ZM47.0431 3.97112C47.5537 2.56096 48.8626 1.61838 50.3348 1.60002C51.4861 1.59768 52.5628 2.18088 53.2073 3.1551C53.8988 4.17815 54.0549 5.48244 53.6253 6.64573L48.775 19.8399L47.6 20.6399L45.6849 19.336C45.4214 19.1567 45.0787 19.1567 44.8151 19.336L42.9 20.6399L41.3108 19.5578L47.0431 3.97112ZM43.7438 8.39299L39.5865 19.6946L38.9834 20.1055V9.93127L42.1167 6.73127L43.7438 8.39299ZM34.2834 3.20002H41.3334V4.80002H34.2834V3.20002ZM33.8244 6.40002H40.2257L37.8757 8.80002H31.4744L33.8244 6.40002ZM22.7896 4.96487C22.9468 4.79924 23.1629 4.70549 23.3886 4.70549C23.6146 4.70588 23.8308 4.79924 23.988 4.96487L25.1381 6.16487C25.3615 6.39768 25.7007 6.46838 25.9956 6.34455C26.2905 6.22034 26.4825 5.9258 26.4806 5.60002V2.40002C26.468 2.11604 26.6091 1.84807 26.8478 1.70237C27.0869 1.55627 27.3848 1.55627 27.6235 1.70237C27.8625 1.84807 28.0037 2.11604 27.9907 2.40002V5.60002C27.9911 5.92463 28.1835 6.21682 28.478 6.33948C28.7721 6.46252 29.1098 6.39143 29.3328 6.16018L30.4864 4.96018C30.8169 4.62776 31.347 4.62776 31.6771 4.96018C32.0175 5.31604 32.0175 5.88401 31.6771 6.23987L29.3695 8.63987L29.3929 8.66409L29.0295 9.03518C28.9664 9.10159 28.9155 9.17893 28.8784 9.2633C28.8673 9.28791 28.8612 9.31291 28.8524 9.3383C28.8291 9.40666 28.8149 9.47776 28.8104 9.54963C28.8104 9.56721 28.8008 9.58166 28.8008 9.59924V16.6559C28.6226 16.8301 28.4569 17.0172 28.3059 17.216L26.826 14C26.2798 12.8903 25.2926 12.0739 24.1157 11.7602C23.8418 11.6879 23.5611 11.6442 23.2784 11.6305L23.0776 11.3903C22.9212 11.2071 22.803 11.0641 22.7839 11.0442C22.5816 10.8278 22.494 10.5246 22.549 10.2305C22.5781 10.0633 22.6535 9.90862 22.7659 9.78401L22.7801 9.77034L22.7996 9.74885C23.0834 9.46487 23.5229 9.42307 23.8533 9.64807C24.1857 9.87502 24.6317 9.80979 24.8887 9.49729C25.1457 9.1844 25.1308 8.72463 24.8543 8.42971L22.7839 6.24729C22.4477 5.88791 22.4504 5.32112 22.7896 4.96487ZM20.4262 15.6C20.5284 14.8246 20.9487 14.1301 21.5825 13.6903C22.2109 13.2563 22.9916 13.1188 23.7263 13.3129C24.4607 13.5074 25.078 14.0149 25.4208 14.7063L27.4173 19.0496C27.368 19.2367 27.329 19.4266 27.3007 19.6184L26.888 19.3367C26.6248 19.1574 26.2817 19.1574 26.0186 19.3367L24.1 20.6399L22.3628 19.4559L22.1949 19.241L24.2144 17.6465L23.2555 16.3809L21.2191 17.9895L21.0451 17.768C20.5467 17.168 20.3218 16.3797 20.4262 15.6Z" fill="#FFDB06"/>
</g>
<path d="M3.85005 26.7814H2.75003V45.4302H3.85005V26.7814Z" fill="#FFDB06"/>
<path d="M7.14997 26.7814H5.49997V42.6046H7.14997V26.7814Z" fill="#FFDB06"/>
<path d="M9.90001 26.7814H8.79999V42.6046H9.90001V26.7814Z" fill="#FFDB06"/>
<path d="M12.65 26.7814H11V42.6046H12.65V26.7814Z" fill="#FFDB06"/>
<path d="M14.85 26.7814H13.75V42.6046H14.85V26.7814Z" fill="#FFDB06"/>
<path d="M0.549978 23.3907C0.219979 23.3907 0 23.6168 0 23.9558V26.7814H1.10002V24.521H3.3V23.3907H0.549978Z" fill="#FFDB06"/>
<path d="M17.05 26.7814H15.95V45.4302H17.05V26.7814Z" fill="#FFDB06"/>
<path d="M22.55 26.7814H20.9V42.6046H22.55V26.7814Z" fill="#FFDB06"/>
<path d="M25.3 26.7814H24.2V42.6046H25.3V26.7814Z" fill="#FFDB06"/>
<path d="M28.05 26.7814H26.4V42.6046H28.05V26.7814Z" fill="#FFDB06"/>
<path d="M30.25 26.7814H29.15V45.4302H30.25V26.7814Z" fill="#FFDB06"/>
<path d="M1.10002 49.3861V47.1256H0V49.9512C0 50.2903 0.219979 50.5163 0.549978 50.5163H3.3V49.3861H1.10002Z" fill="#FFDB06"/>
<path d="M31.9 47.1256V49.3861H29.7V50.5163H32.45C32.78 50.5163 33 50.2903 33 49.9512V47.1256H31.9Z" fill="#FFDB06"/>
<path d="M32.45 23.3907H29.7V24.521H31.9V26.7814H33V23.9558C33 23.6168 32.78 23.3907 32.45 23.3907Z" fill="#FFDB06"/>
<path d="M6.05003 43.7349H4.95001V45.4302H6.05003V43.7349Z" fill="#FFDB06"/>
<path d="M8.24998 43.7349H7.14996V45.4302H8.24998V43.7349Z" fill="#FFDB06"/>
<path d="M10.4501 43.7349H9.35004V45.4302H10.4501V43.7349Z" fill="#FFDB06"/>
<path d="M12.65 43.7349H11.55V45.4302H12.65V43.7349Z" fill="#FFDB06"/>
<path d="M14.85 43.7349H13.75V45.4302H14.85V43.7349Z" fill="#FFDB06"/>
<path d="M19.25 43.7349H18.15V45.4302H19.25V43.7349Z" fill="#FFDB06"/>
<path d="M21.45 43.7349H20.35V45.4302H21.45V43.7349Z" fill="#FFDB06"/>
<path d="M23.65 43.7349H22.55V45.4302H23.65V43.7349Z" fill="#FFDB06"/>
<path d="M25.85 43.7349H24.75V45.4302H25.85V43.7349Z" fill="#FFDB06"/>
<path d="M28.05 43.7349H26.95V45.4302H28.05V43.7349Z" fill="#FFDB06"/>
<path d="M19.8 26.7814H18.7V42.6046H19.8V26.7814Z" fill="#FFDB06"/>
<defs>
<clipPath id="clip0">
<rect x="10" width="47" height="48" fill="white"/>
</clipPath>
</defs>
</svg>
