<svg width="120" height="120" viewBox="0 0 120 120" fill="none" xmlns="http://www.w3.org/2000/svg">
<path d="M30 73.125H33.75C37.8863 73.125 41.25 69.7613 41.25 65.625H37.5C37.5 67.6931 35.8181 69.375 33.75 69.375H30C27.9319 69.375 26.25 67.6931 26.25 65.625H22.5C22.5 69.7613 25.8637 73.125 30 73.125Z" fill="#FFDB06"/>
<path d="M42.3825 76.9331C44.8219 74.985 46.7006 72.3731 47.7656 69.375H48.75C52.8862 69.375 56.25 66.0112 56.25 61.875C56.25 59.1112 54.7313 56.7188 52.5 55.4175V46.875C52.5 38.6044 45.7706 31.875 37.5 31.875H26.25C17.9794 31.875 11.25 38.6044 11.25 46.875V55.4175C9.01875 56.7188 7.5 59.1112 7.5 61.875C7.5 66.0112 10.8637 69.375 15 69.375H15.9844C17.0494 72.3731 18.9281 74.9831 21.3675 76.9331C10.5225 77.5256 1.875 86.5088 1.875 97.5V116.25C1.875 117.287 2.715 118.125 3.75 118.125H60C61.035 118.125 61.875 117.287 61.875 116.25V97.5C61.875 86.5088 53.2275 77.5256 42.3825 76.9331ZM23.4731 80.625L29.3625 87.9862L23.6513 93.6975L21.0506 80.6981C21.5306 80.6569 22.0106 80.625 22.5 80.625H23.4731ZM35.4731 80.625L31.875 85.1231L28.2769 80.625H35.4731ZM31.1888 101.117C31.4081 101.203 31.6425 101.25 31.875 101.25C32.1075 101.25 32.3419 101.203 32.5612 101.117L35.2125 114.375H28.5375L31.1888 101.117ZM31.875 96.7237L28.9012 93.75L31.875 90.7763L34.8488 93.75L31.875 96.7237ZM34.3875 87.9862L40.2769 80.625H41.25C41.7394 80.625 42.2194 80.6569 42.6975 80.6981L40.0969 93.6975L34.3875 87.9862ZM48.75 65.625H48.6394C48.7088 65.0081 48.75 64.3838 48.75 63.75V58.125C50.8181 58.125 52.5 59.8069 52.5 61.875C52.5 63.9431 50.8181 65.625 48.75 65.625ZM15 46.875C15 40.6706 20.0456 35.625 26.25 35.625H37.5C43.7044 35.625 48.75 40.6706 48.75 46.875V54.375H46.875H41.25C39.1819 54.375 37.5 52.6931 37.5 50.625V45V43.125H33.75V45C33.75 50.1694 29.5444 54.375 24.375 54.375H16.875H15V46.875ZM15 65.625C12.9319 65.625 11.25 63.9431 11.25 61.875C11.25 59.8069 12.9319 58.125 15 58.125V63.75C15 64.3838 15.0413 65.0081 15.1106 65.625H15ZM18.75 63.75V58.125H24.375C28.3575 58.125 31.9256 56.3344 34.335 53.5237C35.4712 56.2237 38.1413 58.125 41.25 58.125H45V63.75C45 70.9856 39.1125 76.875 31.875 76.875C24.6375 76.875 18.75 70.9856 18.75 63.75ZM5.625 97.5C5.625 89.9831 10.5694 83.6025 17.3737 81.4275L20.6625 97.8694C20.7975 98.5462 21.2963 99.0956 21.9581 99.2962C22.1363 99.3487 22.3181 99.375 22.5 99.375C22.9894 99.375 23.4694 99.1819 23.8256 98.8256L26.25 96.4013L27.9656 98.1169L24.7125 114.375H16.875V99.375H13.125V114.375H5.625V97.5ZM58.125 114.375H50.625V99.375H46.875V114.375H39.0375L35.7863 98.1169L37.5 96.4013L39.9244 98.8256C40.2806 99.1819 40.7606 99.375 41.25 99.375C41.4319 99.375 41.6138 99.3488 41.7938 99.2944C42.4556 99.0956 42.9544 98.5462 43.0894 97.8675L46.3781 81.4256C53.1806 83.6025 58.125 89.9831 58.125 97.5V114.375Z" fill="#FFDB06"/>
<path d="M88.125 1.875C71.5838 1.875 58.125 15.3338 58.125 31.875C58.125 48.4162 71.5838 61.875 88.125 61.875C104.666 61.875 118.125 48.4162 118.125 31.875C118.125 15.3338 104.666 1.875 88.125 1.875ZM88.125 58.125C73.65 58.125 61.875 46.35 61.875 31.875C61.875 17.4 73.65 5.625 88.125 5.625C102.6 5.625 114.375 17.4 114.375 31.875C114.375 46.35 102.6 58.125 88.125 58.125Z" fill="#FFDB06"/>
<path d="M69.375 31.875H65.625C65.625 44.2819 75.7181 54.375 88.125 54.375V50.625C77.7863 50.625 69.375 42.2137 69.375 31.875Z" fill="#FFDB06"/>
<path d="M88.125 9.375V13.125C98.4637 13.125 106.875 21.5363 106.875 31.875H110.625C110.625 19.4681 100.532 9.375 88.125 9.375Z" fill="#FFDB06"/>
<path d="M85.7362 39.9602L80.0756 34.2995L77.4243 36.9508L84.9243 44.4508C85.2787 44.8052 85.7568 45.0002 86.25 45.0002C86.3493 45.0002 86.4506 44.9927 86.55 44.9758C87.1443 44.8783 87.6562 44.5014 87.9262 43.9633L99.1762 21.4633L95.8218 19.7852L85.7362 39.9602Z" fill="#FFDB06"/>
</svg>
