<svg width="120" height="120" viewBox="0 0 120 120" fill="none" xmlns="http://www.w3.org/2000/svg">
<path d="M88.125 88.1249C89.16 88.1249 90 87.2174 90 86.1824C90 77.2706 87.3863 68.6381 82.4419 61.2206L78.75 55.6818V50.4768C78.75 33.2137 72.7294 16.3462 61.7962 2.98117L61.4494 2.5593C60.7369 1.69117 59.2612 1.69117 58.5487 2.5593L58.2019 2.98305C47.2706 16.348 41.25 33.2137 41.25 50.4768V55.6818L37.5581 61.2206C32.6137 68.6381 30 77.2687 30 86.2499C30 87.2849 30.84 88.1249 31.875 88.1249H43.125H50.625L49.9163 89.0699C47.955 91.6856 46.875 94.9256 46.875 98.1937C46.875 101.822 48.1744 105.336 50.535 108.09L58.5769 117.471C58.9331 117.887 59.4525 118.125 60 118.125C60.5475 118.125 61.0669 117.887 61.4231 117.471L69.465 108.09C71.8256 105.336 73.125 101.822 73.125 98.1937C73.125 94.9256 72.045 91.6856 70.0837 89.0699L69.375 88.1249H76.875H88.125ZM79.3219 63.2999C83.5088 69.5812 85.8731 76.813 86.2088 84.3749H78.75V62.4431L79.3219 63.2999ZM74.8969 46.8749H45.1031C45.4294 40.4737 46.6256 34.1662 48.6225 28.1249H71.3794C73.3763 34.1662 74.5706 40.4737 74.8969 46.8749ZM60 6.74617C64.1869 12.133 67.5525 18.0824 70.0294 24.3749H49.9706C52.4475 18.0824 55.8131 12.133 60 6.74617ZM40.6781 63.2999L41.25 62.4431V84.3749H33.7894C34.1156 76.8487 36.4819 69.598 40.6781 63.2999ZM45 56.2499V50.6249H75V56.2499V84.3749H65.625V56.2499C65.625 55.2149 64.785 54.3749 63.75 54.3749H56.25C55.215 54.3749 54.375 55.2149 54.375 56.2499V84.3749H45V56.2499ZM58.125 84.3749V58.1249H61.875V84.3749H58.125ZM67.0837 91.3199C68.5612 93.2906 69.375 95.7318 69.375 98.1937C69.375 100.927 68.3962 103.575 66.6169 105.649L60 113.368L53.3831 105.649C51.6038 103.575 50.625 100.927 50.625 98.1937C50.625 95.7318 51.4387 93.2906 52.9163 91.3199L55.3125 88.1249H56.25H58.125V103.125H61.875V88.1249H63.75H64.6875L67.0837 91.3199Z" fill="#FFDB06"/>
<path d="M53.0494 33.2003L58.125 38.2759V43.1247H61.875V38.2759L66.9506 33.2003L64.2994 30.5491L60 34.8484L55.7006 30.5491L53.0494 33.2003Z" fill="#FFDB06"/>
<path d="M41.25 91.875H37.5V103.125H41.25V91.875Z" fill="#FFDB06"/>
<path d="M33.75 99.375H30V110.625H33.75V99.375Z" fill="#FFDB06"/>
<path d="M82.5 91.875H78.75V103.125H82.5V91.875Z" fill="#FFDB06"/>
<path d="M90 99.375H86.25V110.625H90V99.375Z" fill="#FFDB06"/>
</svg>
