<svg width="60" height="61" viewBox="0 0 60 61" fill="none" xmlns="http://www.w3.org/2000/svg">
<g clip-path="url(#clip0)">
<path d="M40.7835 18.4033C40.1355 18.4033 39.6094 18.9334 39.6094 19.589C39.6094 20.2442 40.1355 20.7752 40.7835 20.7752C41.433 20.7752 41.9577 20.2442 41.9577 19.589C41.9577 18.9334 41.433 18.4033 40.7835 18.4033Z" fill="#FFDB06"/>
<path d="M19.4495 39.9551C18.8 39.9551 18.2753 40.4865 18.2753 41.1412C18.2753 41.7973 18.8 42.3274 19.4495 42.3274C20.0975 42.3274 20.6236 41.7973 20.6236 41.1412C20.6236 40.4865 20.0975 39.9551 19.4495 39.9551Z" fill="#FFDB06"/>
<path d="M58.7163 7.29687C58.32 7.20373 57.9035 7.32467 57.6173 7.61658L52.7496 12.573H50.4159L47.8469 9.88419V7.49379L52.645 2.57444C52.9289 2.28346 53.0445 1.86506 52.9504 1.46704C52.8569 1.06949 52.567 0.748855 52.1836 0.618192C50.9782 0.207667 49.7169 -0.000375748 48.434 -0.000375748C44.6097 -0.000375748 41.1354 1.80112 38.9017 4.94214C36.8111 7.88254 36.1667 11.486 37.09 14.9347L28.4411 23.672L14.0318 9.08214V6.21866C14.0318 5.80211 13.8153 5.41568 13.4617 5.20161L5.15951 0.168746C4.69718 -0.111579 4.10597 -0.0379068 3.72528 0.347134L0.404587 3.7013C0.0238997 4.08634 -0.049027 4.68359 0.228003 5.15065L5.20904 13.5377C5.42095 13.8949 5.80301 14.1132 6.21534 14.1136L9.04894 14.1145L23.4596 28.7044L14.8436 37.4084C11.4298 36.4761 7.86101 37.128 4.94899 39.2414C1.84157 41.4965 0.0596752 45.0054 0.0596752 48.8688C0.0596752 50.1643 0.265613 51.4389 0.671986 52.6562C0.801786 53.0458 1.12239 53.3401 1.51867 53.4327C1.91541 53.5259 2.33142 53.4049 2.61808 53.113L7.48537 48.1571H9.83187L12.5054 50.8579V53.2284L7.59958 58.1454C7.31062 58.435 7.19091 58.8553 7.2831 59.2561C7.37484 59.6564 7.66608 59.9803 8.05182 60.1114C9.25671 60.5219 10.5185 60.73 11.8009 60.73C15.6252 60.73 19.0982 58.9294 21.3309 55.7902C23.4229 52.8484 24.0682 49.2436 23.1454 45.7949L30.0652 38.8044L31.6503 40.5438L30.9229 41.2782C30.4642 41.7416 30.4642 42.4927 30.9229 42.956C31.3815 43.4189 32.1246 43.4189 32.5837 42.956L33.2423 42.2906L48.1148 58.6106C48.1258 58.6227 48.1373 58.6343 48.1487 58.6458C50.9007 61.4259 55.3593 61.4268 58.1127 58.6454C60.8582 55.8704 60.8582 51.3551 58.1127 48.5801C58.1007 48.5681 58.0884 48.5565 58.076 48.5449L41.8958 33.5491L42.5471 32.8912C43.0058 32.4283 43.0058 31.6772 42.5471 31.2139C42.0885 30.7505 41.3454 30.7505 40.8863 31.2139L40.1639 31.9441L38.4389 30.3446L45.3922 23.3203C46.3806 23.5872 47.4007 23.7225 48.434 23.7225C54.9085 23.7225 60.1753 18.4014 60.1753 11.8613C60.1753 10.5653 59.9693 9.29111 59.5629 8.07343C59.4331 7.68376 59.1125 7.38954 58.7163 7.29687ZM10.3671 12.0906C10.147 11.8678 9.84839 11.7543 9.5365 11.7543L6.88086 11.7533L2.71348 4.72437L4.73754 2.67962L11.6835 6.89051V9.57329C11.6835 9.88744 11.8069 10.1886 12.0266 10.411L26.7807 25.3498L25.1199 27.0271L10.3671 12.0906ZM40.2337 35.2283L56.4688 50.2746C58.2824 52.1261 58.2769 55.1239 56.4519 56.9685C54.6227 58.8164 51.6616 58.8219 49.8251 56.9847L34.904 40.6115L40.2337 35.2283ZM38.5018 33.6228L33.312 38.8647L31.7269 37.1253L36.7767 32.0233L38.5018 33.6228ZM48.434 21.3502C47.4071 21.3502 46.3971 21.1838 45.433 20.8558C45.0106 20.7126 44.5437 20.8229 44.2281 21.1412C38.3417 27.0878 25.6579 39.9007 20.9874 44.6194C20.6718 44.9382 20.5622 45.4099 20.7049 45.8371C21.6809 48.765 21.214 51.8879 19.4234 54.4062C17.6378 56.9171 14.8592 58.3576 11.8009 58.3576C11.4574 58.3576 11.1157 58.3386 10.7772 58.302L14.5065 54.5638C14.7285 54.3414 14.8537 54.0383 14.8537 53.7219V50.3663C14.8537 50.0517 14.7299 49.7501 14.5097 49.5276L11.1482 46.1318C10.9281 45.9094 10.6295 45.7843 10.3181 45.7843H6.99644C6.68318 45.7843 6.38321 45.9108 6.1626 46.135L2.46259 49.9025C2.4259 49.5605 2.40755 49.2154 2.40755 48.8683C2.40755 45.7782 3.83307 42.9718 6.319 41.1679C8.81136 39.359 11.9032 38.8869 14.8019 39.8734C15.2243 40.0175 15.6912 39.9067 16.0068 39.5879C16.0715 39.5231 39.231 16.1264 39.2475 16.1097C39.5631 15.7909 39.6723 15.3197 39.5301 14.8925C38.5536 11.9646 39.0196 8.84259 40.8088 6.32616C42.5958 3.81297 45.3748 2.37196 48.4336 2.37196C48.7877 2.37196 49.1394 2.39188 49.488 2.4308L45.8362 6.17511C45.6197 6.39705 45.4986 6.69591 45.4986 7.00728V10.3628C45.4986 10.6705 45.6165 10.9656 45.8279 11.1867L49.072 14.5825C49.2931 14.8142 49.5981 14.9449 49.9169 14.9449H53.2385C53.5513 14.9449 53.8513 14.8188 54.0719 14.5941L57.7719 10.8271C57.8086 11.1691 57.8269 11.5142 57.8269 11.8613C57.8269 17.0934 53.6132 21.3502 48.434 21.3502Z" fill="#FFDB06"/>
<path d="M36.6327 22.1048L21.9395 36.9481C21.4813 37.411 21.4813 38.1621 21.9395 38.6254C22.3982 39.0888 23.1417 39.0888 23.6003 38.6254L38.2935 23.7821C38.7521 23.3193 38.7521 22.5682 38.2935 22.1048C37.8348 21.6415 37.0913 21.6415 36.6327 22.1048Z" fill="#FFDB06"/>
<path d="M51.4703 53.6151C51.929 54.0771 52.6725 54.0771 53.1311 53.6123C53.5889 53.1485 53.5875 52.3974 53.1284 51.935L42.5448 41.2776C42.0857 40.8152 41.3417 40.8166 40.8845 41.2804C40.4262 41.7446 40.4276 42.4953 40.8867 42.9577L51.4703 53.6151Z" fill="#FFDB06"/>
</g>
<defs>
<clipPath id="clip0">
<rect width="60" height="60.7317" fill="white"/>
</clipPath>
</defs>
</svg>
