<svg width="60" height="60" viewBox="0 0 60 60" fill="none" xmlns="http://www.w3.org/2000/svg">
<path d="M54.1406 20.1562C54.4488 20.1562 54.7512 20.0309 54.969 19.8128C55.1871 19.5949 55.3125 19.2926 55.3125 18.9844C55.3125 18.6762 55.1871 18.3738 54.969 18.1559C54.7512 17.9379 54.4488 17.8125 54.1406 17.8125C53.8324 17.8125 53.5301 17.9378 53.3121 18.1559C53.0941 18.3739 52.9688 18.6762 52.9688 18.9844C52.9688 19.2926 53.094 19.5949 53.3121 19.8128C53.5301 20.0309 53.8324 20.1562 54.1406 20.1562Z" fill="#FFDB06"/>
<path d="M23.0273 51.9927H23.0099C22.3628 51.9927 21.838 52.5174 21.838 53.1646C21.838 53.8117 22.3628 54.3364 23.0099 54.3364H23.0273C23.6745 54.3364 24.1992 53.8117 24.1992 53.1646C24.1992 52.5174 23.6745 51.9927 23.0273 51.9927Z" fill="#FFDB06"/>
<path d="M60 47.0614V8.20312C60 6.26461 58.4229 4.6875 56.4844 4.6875H52.4702V3.98438C52.4702 1.78734 50.6829 0 48.4859 0C46.2888 0 44.5015 1.78734 44.5015 3.98438V4.6875H33.9695V3.98438C33.9695 1.78734 32.1821 0 29.9851 0C27.7881 0 26.0007 1.78734 26.0007 3.98438V4.6875H15.4688V3.98438C15.4688 1.78734 13.6814 0 11.4844 0C9.28734 0 7.5 1.78734 7.5 3.98438V4.6875H3.51562C1.57711 4.6875 0 6.26461 0 8.20312V56.4844C0 58.4229 1.57711 60 3.51562 60H47.0614C47.3849 60 47.6777 59.8689 47.8897 59.657C47.8898 59.6569 47.89 59.6569 47.8901 59.6568L59.6568 47.8901C59.8688 47.678 60 47.385 60 47.0614ZM46.8452 3.98438C46.8452 3.07969 47.5812 2.34375 48.4859 2.34375C49.3905 2.34375 50.1265 3.07969 50.1265 3.98438V9.72656C50.1265 10.6313 49.3905 11.3672 48.4859 11.3672C47.5812 11.3672 46.8452 10.6313 46.8452 9.72656V3.98438ZM28.3445 3.98438C28.3445 3.07969 29.0804 2.34375 29.9851 2.34375C30.8898 2.34375 31.6257 3.07969 31.6257 3.98438V9.72656C31.6257 10.6313 30.8898 11.3672 29.9851 11.3672C29.0804 11.3672 28.3445 10.6313 28.3445 9.72656V3.98438ZM9.84375 3.98438C9.84375 3.07969 10.5797 2.34375 11.4844 2.34375C12.3891 2.34375 13.125 3.07969 13.125 3.98438V9.72656C13.125 10.6313 12.3891 11.3672 11.4844 11.3672C10.5797 11.3672 9.84375 10.6313 9.84375 9.72656V3.98438ZM2.34375 56.4844V54.336H18.3398C18.987 54.336 19.5117 53.8112 19.5117 53.1641C19.5117 52.517 18.987 51.9922 18.3398 51.9922H2.34375V20.1562H49.4531C50.1002 20.1562 50.625 19.6315 50.625 18.9844C50.625 18.3373 50.1002 17.8125 49.4531 17.8125H2.34375V8.20312C2.34375 7.55695 2.86945 7.03125 3.51562 7.03125H7.5V9.72656C7.5 11.9236 9.28734 13.7109 11.4844 13.7109C13.6814 13.7109 15.4688 11.9236 15.4688 9.72656V7.03125H26.0007V9.72656C26.0007 11.9236 27.7881 13.7109 29.9851 13.7109C32.1821 13.7109 33.9695 11.9236 33.9695 9.72656V7.03125H44.5015V9.72656C44.5015 11.9236 46.2888 13.7109 48.4859 13.7109C50.6829 13.7109 52.4702 11.9236 52.4702 9.72656V7.03125H56.4844C57.1305 7.03125 57.6562 7.55695 57.6562 8.20312V45.8896H49.4052C47.4667 45.8896 45.8896 47.4667 45.8896 49.4052V57.6562H3.51562C2.86945 57.6562 2.34375 57.1305 2.34375 56.4844ZM48.2333 55.9989V49.4051C48.2333 48.7589 48.759 48.2332 49.4052 48.2332H55.999L48.2333 55.9989Z" fill="#FFDB06"/>
<path d="M22.9759 41.0757V37.0312V32.9868C22.9759 31.7276 21.9514 30.7031 20.6923 30.7031H15.6165C14.9694 30.7031 14.4446 31.2279 14.4446 31.875C14.4446 32.5221 14.9694 33.0469 15.6165 33.0469H20.6321V35.8594H15.6165C14.9694 35.8594 14.4446 36.3841 14.4446 37.0312C14.4446 37.6784 14.9694 38.2031 15.6165 38.2031H20.6321V41.0156H15.6165C14.9694 41.0156 14.4446 41.5404 14.4446 42.1875C14.4446 42.8346 14.9694 43.3594 15.6165 43.3594H20.6923C21.9513 43.3594 22.9759 42.3349 22.9759 41.0757Z" fill="#FFDB06"/>
<path d="M33.1476 33.0469C33.7948 33.0469 34.3195 32.5221 34.3195 31.875C34.3195 31.2279 33.7948 30.7031 33.1476 30.7031H28.0719C26.8127 30.7031 25.7883 31.7276 25.7883 32.9868V37.0312V41.0757C25.7883 42.3349 26.8127 43.3594 28.0719 43.3594H32.0358C33.2949 43.3594 34.3194 42.3349 34.3194 41.0757V38.1431C34.3194 36.8839 33.2949 35.8595 32.0358 35.8595H30.3117H28.132V33.047H33.1476V33.0469ZM30.3117 38.2031H31.9758V41.0156H28.132V38.2031H30.3117Z" fill="#FFDB06"/>
<path d="M43.3796 35.8594H41.3978H39.4759V33.0469H44.4915C45.1386 33.0469 45.6634 32.5221 45.6634 31.875C45.6634 31.2279 45.1386 30.7031 44.4915 30.7031H39.4158C38.1566 30.7031 37.1321 31.7276 37.1321 32.9868V35.9194C37.1321 37.1786 38.1566 38.203 39.4158 38.203H41.3978H43.3195V41.0155H38.3039C37.6568 41.0155 37.132 41.5403 37.132 42.1874C37.132 42.8345 37.6568 43.3593 38.3039 43.3593H43.3796C44.6388 43.3593 45.6633 42.3348 45.6633 41.0756V38.143C45.6633 36.8838 44.6388 35.8594 43.3796 35.8594Z" fill="#FFDB06"/>
</svg>
