<svg width="27" height="28" viewBox="0 0 27 28" fill="none" xmlns="http://www.w3.org/2000/svg">
<g clip-path="url(#clip0)">
<path d="M27 25.7189L26.6 21.9189H0.400004L4.05777e-06 25.8189C-0.0999959 26.8189 0.700004 27.7189 1.7 27.7189H25.3C26.3 27.6189 27.1 26.7189 27 25.7189Z" fill="black"/>
<path d="M8.7 6.81895C8.7 4.11895 10.9 1.91895 13.5 1.91895C16.1 1.91895 18.3 4.11895 18.3 6.81895V11.0189H19.3V6.81895C19.3 3.51895 16.7 0.918945 13.4 0.918945C10.2 0.918945 7.5 3.61895 7.5 6.81895V11.0189H8.5V6.81895H8.7Z" fill="black"/>
<path d="M25.2 9.61914C25.1 8.71914 24.4 8.11914 23.5 8.11914H20.3V10.6191C20.3 11.4191 19.6 12.1191 18.8 12.1191C18 12.1191 17.3 11.4191 17.3 10.6191V8.11914H9.7V10.6191C9.7 11.4191 9 12.1191 8.2 12.1191C7.4 12.1191 6.7 11.4191 6.7 10.6191V8.11914H3.4C2.5 8.11914 1.8 8.81914 1.7 9.61914L0.5 21.0191H26.5L25.2 9.61914Z" fill="black"/>
</g>
<defs>
<clipPath id="clip0">
<rect width="27" height="26.7" fill="white" transform="translate(0 0.918945)"/>
</clipPath>
</defs>
</svg>
