<svg width="233" height="36" viewBox="0 0 233 36" fill="none" xmlns="http://www.w3.org/2000/svg">
<g clip-path="url(#clip0)">
<path d="M220.148 35.731C219.681 35.6371 218.075 35.205 217.141 34.6414C216.674 34.3596 216.226 34.0214 215.815 33.6269C215.759 33.5706 215.665 33.533 215.497 33.4015C215.497 34.0214 215.497 34.5663 215.497 35.1487C212.695 35.1487 209.986 35.1487 207.203 35.1487C207.203 23.7638 207.203 12.3601 207.203 0.881348C209.912 0.881348 212.639 0.881348 215.422 0.881348C215.422 5.37142 215.422 9.8427 215.422 14.5019C215.721 14.2952 215.889 14.1825 216.02 14.051C217.552 12.7171 219.364 12.1535 221.344 12.0032C227.976 11.5523 232.515 16.8314 232.832 22.4675C232.851 22.7305 232.926 22.9747 232.982 23.2378C232.982 23.7262 232.982 24.1959 232.982 24.6844C232.832 25.6049 232.758 26.5443 232.515 27.4272C231.898 29.7568 230.834 31.6731 229.265 33.1197C228.872 33.4766 227.266 34.8856 224.725 35.5244C223.903 35.7874 222.185 36.1256 220.148 35.731ZM219.644 28.9302C221.998 28.9302 223.548 27.8781 224.239 26.0746C224.632 25.0601 224.669 24.008 224.52 22.956C224.277 21.0773 222.913 19.518 221.195 19.1046C219.271 18.6538 217.346 19.3864 216.319 21.0397C215.18 22.862 215.123 24.7595 216.17 26.6382C217.029 28.1411 218.355 28.8926 219.644 28.9302Z" fill="black"/>
<path d="M186.075 35.5242C185.253 35.2799 183.534 34.7539 182.208 33.1382C180.676 31.2595 180.303 28.7045 180.975 26.3562C181.479 24.6278 182.619 23.4066 184.188 22.58C185.832 21.7158 187.607 21.3588 189.437 21.3025C191.119 21.2461 192.8 21.2837 194.462 21.2837C194.724 21.2837 194.985 21.2837 195.228 21.2837C195.62 20.0062 194.967 18.7475 193.734 18.3342C192.053 17.7705 190.67 18.522 189.904 20.4946C187.345 19.9686 184.786 19.4614 182.152 18.9166C182.208 18.6723 182.227 18.4657 182.283 18.2778C183.198 15.5349 185.122 13.7502 187.812 12.8296C191.081 11.7212 194.425 11.7024 197.694 12.8296C201.038 13.9944 202.924 16.4179 203.317 19.9498C203.391 20.6074 203.429 21.2837 203.429 21.96C203.448 26.0744 203.429 30.1699 203.429 34.2842C203.429 34.566 203.429 34.8478 203.429 35.186C200.739 35.186 198.124 35.186 195.415 35.186C195.378 34.7539 195.359 34.3218 195.322 33.7958C195.153 33.8897 195.06 33.9273 194.967 33.9837C194.313 34.4721 193.64 34.8478 192.931 35.1484C191.959 35.543 191.062 35.7496 189.848 35.8436C189.026 35.9187 187.663 36.0126 186.075 35.5242ZM195.359 25.9053C194.107 25.9053 192.931 25.8677 191.754 25.9241C191.268 25.9429 190.764 26.1119 190.334 26.3374C189.699 26.6568 189.363 27.2392 189.381 27.9906C189.4 28.7233 189.755 29.2869 190.409 29.6063C191.698 30.2075 192.949 30.0196 194.07 29.2118C195.21 28.4415 195.49 27.2955 195.359 25.9053Z" fill="black"/>
<path d="M108.72 35.5429C107.562 35.2611 104.2 34.3782 101.809 31.1656C100.669 29.6439 99.9405 27.8027 99.679 25.7362C98.7263 18.0711 103.471 13.6186 108.477 12.4351C112.27 11.5333 115.912 11.9278 119.125 14.3701C121.61 16.2488 122.899 18.8602 123.31 21.8849C123.478 23.1999 123.478 24.5526 123.571 25.9616C118.247 25.9616 113.054 25.9616 107.88 25.9616C107.824 27.2579 109.019 28.7609 110.439 29.2305C111.971 29.7378 114.493 29.5687 115.819 27.2767C118.229 27.7464 120.694 28.2348 123.198 28.7421C122.394 30.8274 121.143 32.4807 119.368 33.7206C116.958 35.4114 114.474 35.6932 113.334 35.806C112.512 35.8999 110.813 36.0502 108.72 35.5429ZM115.389 21.3776C115.072 19.6492 113.671 18.522 111.84 18.522C109.916 18.522 108.197 19.7619 107.917 21.3776C110.402 21.3776 112.886 21.3776 115.389 21.3776Z" fill="black"/>
<path d="M0 35.2424C0 27.8027 0 20.4946 0 13.1302C2.83941 13.1302 5.62279 13.1302 8.49956 13.1302C8.49956 18.0711 8.49956 22.9745 8.49956 27.8403C8.61164 27.9343 8.649 27.9718 8.68636 27.9718C10.7225 28.0094 12.7587 28.1973 14.7575 27.6337C18.4001 26.6004 20.5484 23.369 20.1561 19.3674C19.7638 15.3095 16.4947 12.6793 12.5158 12.6041C11.3763 12.5854 10.2182 12.6041 9.04129 12.6041C9.04129 10.1618 9.04129 7.81349 9.04129 5.46512C9.07865 5.44634 9.09733 5.38998 9.13469 5.37119C12.5158 5.25847 15.897 5.18332 19.1474 6.38568C24.3218 8.32073 27.703 11.909 28.5809 17.47C29.3842 22.4861 28.3941 27.0888 24.6581 30.8087C22.3043 33.157 19.4089 34.4721 16.1398 34.9418C14.7762 35.1484 13.3751 35.2236 11.9928 35.2236C8.27539 35.2611 4.558 35.2424 0.840616 35.2424C0.579091 35.2424 0.317566 35.2424 0 35.2424Z" fill="black"/>
<path d="M69.0989 35.186C66.2782 35.186 63.5696 35.186 60.7675 35.186C60.7675 34.8666 60.7675 34.5848 60.7675 34.303C60.7675 30.6772 60.7675 27.0513 60.7675 23.4254C60.7675 22.8806 60.7115 22.317 60.5807 21.791C60.2631 20.5698 59.4972 19.7432 58.227 19.5365C56.8073 19.3111 55.5557 19.7056 54.7151 20.9643C54.0052 22.054 53.8745 23.2939 53.8745 24.5526C53.8558 27.8028 53.8745 31.0341 53.8745 34.2842C53.8745 34.566 53.8745 34.8479 53.8745 35.1672C51.0724 35.1672 48.3638 35.1672 45.5991 35.1672C45.5991 27.6713 45.5991 20.2129 45.5991 12.7169C48.3451 12.7169 51.0724 12.7169 53.8558 12.7169C53.8558 13.412 53.8558 14.0695 53.8558 14.8962C54.136 14.6707 54.3041 14.558 54.4349 14.4077C57.1622 11.7588 61.4026 11.4018 64.4102 12.7733C67.1002 14.0132 68.4451 16.2676 68.9308 19.1044C69.0429 19.7432 69.0803 20.4007 69.0803 21.0395C69.0989 25.5296 69.0803 30.0196 69.0803 34.5097C69.0989 34.7351 69.0989 34.9418 69.0989 35.186Z" fill="black"/>
<path d="M96.7271 35.2052C93.9064 35.2052 91.1978 35.2052 88.4144 35.2052C88.3957 34.9046 88.377 34.6228 88.377 34.3598C88.377 30.7527 88.377 27.1456 88.377 23.5385C88.377 22.9937 88.3397 22.4301 88.2276 21.8853C87.9474 20.6078 86.976 19.6684 85.8178 19.5181C84.3421 19.3302 83.1092 19.7436 82.2872 21.0586C81.6521 22.0919 81.5027 23.2567 81.5027 24.4591C81.484 27.7468 81.5027 31.0533 81.5027 34.341C81.5027 34.604 81.5027 34.867 81.5027 35.1864C78.738 35.1864 76.0107 35.1864 73.246 35.1864C73.246 27.728 73.246 20.2696 73.246 12.7361C75.9546 12.7361 78.6819 12.7361 81.484 12.7361C81.484 13.4124 81.484 14.0887 81.484 14.9341C81.7829 14.6711 81.9697 14.5396 82.1378 14.3705C84.8838 11.7216 89.2363 11.4398 92.1878 12.8676C94.8404 14.1639 96.1107 16.4183 96.5777 19.2363C96.7085 20.0066 96.7271 20.8144 96.7271 21.6035C96.7458 25.8493 96.7271 30.1139 96.7271 34.3598C96.7271 34.6228 96.7271 34.8858 96.7271 35.2052Z" fill="black"/>
<path d="M178.697 27.8783C178.697 30.3582 178.697 32.7441 178.697 35.1864C171.206 35.1864 163.734 35.1864 156.206 35.1864C156.206 25.2669 156.206 15.3474 156.206 5.37158C159.008 5.37158 161.791 5.37158 164.668 5.37158C164.668 12.8863 164.668 20.3447 164.668 27.8783C169.375 27.8783 174.027 27.8783 178.697 27.8783Z" fill="black"/>
<path d="M134.816 35.2049C132.014 35.2049 129.324 35.2049 126.578 35.2049C126.578 27.709 126.578 20.2506 126.578 12.7358C129.306 12.7358 132.033 12.7358 134.835 12.7358C134.835 14.1072 134.835 15.4599 134.835 16.8125C134.872 16.8501 134.928 16.8689 134.966 16.9065C136.927 13.3933 139.916 12.0219 143.914 12.5667C143.802 15.4035 143.708 18.2028 143.596 21.1147C143.279 21.1335 142.98 21.1523 142.681 21.1711C141.56 21.2838 140.421 21.2838 139.337 21.5468C136.815 22.1292 135.283 23.8764 135.003 26.469C134.854 27.8217 134.872 29.1931 134.854 30.5646C134.835 31.8796 134.854 33.2135 134.854 34.5286C134.835 34.754 134.816 34.9795 134.816 35.2049Z" fill="black"/>
<path d="M40.9293 35.205C38.2019 35.205 35.512 35.205 32.7286 35.205C32.7286 27.7278 32.7286 20.2506 32.7286 12.7358C35.4559 12.7358 38.1459 12.7358 40.9293 12.7358C40.9293 20.213 40.9293 27.6902 40.9293 35.205Z" fill="black"/>
<path d="M36.7629 10.6316C34.0356 10.6128 32.1302 8.73409 32.1302 6.02878C32.1489 3.47376 34.2037 1.51992 36.8376 1.53871C39.4155 1.5575 41.4703 3.60527 41.4703 6.16029C41.4517 8.75288 39.4716 10.6316 36.7629 10.6316Z" fill="black"/>
</g>
<defs>
<clipPath id="clip0">
<rect width="233" height="35" fill="white" transform="translate(0 0.918945)"/>
</clipPath>
</defs>
</svg>
