<svg width="233" height="35" viewBox="0 0 233 35" fill="none" xmlns="http://www.w3.org/2000/svg">
<path d="M220.148 34.8121C219.681 34.7182 218.075 34.2861 217.141 33.7225C216.674 33.4407 216.226 33.1025 215.815 32.708C215.759 32.6516 215.665 32.614 215.497 32.4825C215.497 33.1025 215.497 33.6473 215.497 34.2297C212.695 34.2297 209.986 34.2297 207.203 34.2297C207.203 22.8448 207.203 11.4412 207.203 -0.0375977C209.912 -0.0375977 212.639 -0.0375977 215.422 -0.0375977C215.422 4.45247 215.422 8.92375 215.422 13.5829C215.721 13.3763 215.889 13.2635 216.02 13.132C217.552 11.7982 219.364 11.2345 221.344 11.0842C227.976 10.6334 232.515 15.9125 232.832 21.5486C232.851 21.8116 232.926 22.0558 232.982 22.3188C232.982 22.8073 232.982 23.2769 232.982 23.7654C232.832 24.686 232.758 25.6253 232.515 26.5083C231.898 28.8379 230.834 30.7541 229.265 32.2007C228.872 32.5577 227.266 33.9667 224.725 34.6054C223.903 34.8685 222.185 35.2066 220.148 34.8121ZM219.644 28.0112C221.998 28.0112 223.548 26.9592 224.239 25.1556C224.632 24.1411 224.669 23.0891 224.52 22.037C224.277 20.1583 222.913 18.599 221.195 18.1857C219.271 17.7348 217.346 18.4675 216.319 20.1207C215.18 21.9431 215.123 23.8406 216.17 25.7192C217.029 27.2222 218.355 27.9737 219.644 28.0112Z" fill="white"/>
<path d="M186.075 34.6052C185.253 34.361 183.534 33.835 182.208 32.2193C180.676 30.3406 180.303 27.7856 180.975 25.4372C181.479 23.7088 182.619 22.4877 184.188 21.6611C185.832 20.7969 187.607 20.4399 189.437 20.3835C191.119 20.3272 192.8 20.3648 194.462 20.3648C194.724 20.3648 194.985 20.3648 195.228 20.3648C195.62 19.0872 194.967 17.8285 193.734 17.4152C192.053 16.8516 190.67 17.6031 189.904 19.5757C187.345 19.0497 184.786 18.5424 182.152 17.9976C182.208 17.7534 182.227 17.5467 182.283 17.3588C183.198 14.616 185.122 12.8312 187.812 11.9106C191.081 10.8022 194.425 10.7834 197.694 11.9106C201.038 13.0754 202.924 15.4989 203.317 19.0309C203.391 19.6884 203.429 20.3648 203.429 21.0411C203.448 25.1554 203.429 29.251 203.429 33.3653C203.429 33.6471 203.429 33.9289 203.429 34.2671C200.739 34.2671 198.124 34.2671 195.415 34.2671C195.378 33.835 195.359 33.4029 195.322 32.8768C195.153 32.9708 195.06 33.0083 194.967 33.0647C194.313 33.5532 193.64 33.9289 192.931 34.2295C191.959 34.624 191.062 34.8307 189.848 34.9246C189.026 34.9998 187.663 35.0937 186.075 34.6052ZM195.359 24.9863C194.107 24.9863 192.931 24.9488 191.754 25.0051C191.268 25.0239 190.764 25.193 190.334 25.4184C189.699 25.7378 189.363 26.3202 189.381 27.0717C189.4 27.8044 189.755 28.368 190.409 28.6874C191.698 29.2885 192.949 29.1007 194.07 28.2928C195.21 27.5226 195.49 26.3766 195.359 24.9863Z" fill="white"/>
<path d="M108.72 34.624C107.562 34.3422 104.2 33.4592 101.809 30.2467C100.669 28.7249 99.9405 26.8838 99.679 24.8172C98.7263 17.1522 103.471 12.6997 108.477 11.5161C112.27 10.6143 115.912 11.0089 119.125 13.4512C121.61 15.3298 122.899 17.9412 123.31 20.9659C123.478 22.281 123.478 23.6337 123.571 25.0427C118.247 25.0427 113.054 25.0427 107.88 25.0427C107.824 26.339 109.019 27.8419 110.439 28.3116C111.971 28.8188 114.493 28.6498 115.819 26.3578C118.229 26.8274 120.694 27.3159 123.198 27.8231C122.394 29.9085 121.143 31.5617 119.368 32.8017C116.958 34.4925 114.474 34.7743 113.334 34.887C112.512 34.9809 110.813 35.1312 108.72 34.624ZM115.389 20.4587C115.072 18.7303 113.671 17.6031 111.84 17.6031C109.916 17.6031 108.197 18.843 107.917 20.4587C110.402 20.4587 112.886 20.4587 115.389 20.4587Z" fill="white"/>
<path d="M0 34.3234C0 26.8838 0 19.5757 0 12.2112C2.83941 12.2112 5.62279 12.2112 8.49956 12.2112C8.49956 17.1522 8.49956 22.0556 8.49956 26.9214C8.61164 27.0153 8.649 27.0529 8.68636 27.0529C10.7225 27.0905 12.7587 27.2783 14.7575 26.7147C18.4001 25.6814 20.5484 22.4501 20.1561 18.4485C19.7638 14.3905 16.4947 11.7603 12.5158 11.6852C11.3763 11.6664 10.2182 11.6852 9.04129 11.6852C9.04129 9.2429 9.04129 6.89454 9.04129 4.54618C9.07865 4.52739 9.09733 4.47103 9.13469 4.45224C12.5158 4.33952 15.897 4.26438 19.1474 5.46674C24.3218 7.40179 27.703 10.9901 28.5809 16.551C29.3842 21.5671 28.3941 26.1699 24.6581 29.8897C22.3043 32.2381 19.4089 33.5532 16.1398 34.0228C14.7762 34.2295 13.3751 34.3046 11.9928 34.3046C8.27539 34.3422 4.558 34.3234 0.840616 34.3234C0.579091 34.3234 0.317566 34.3234 0 34.3234Z" fill="white"/>
<path d="M69.0989 34.2671C66.2782 34.2671 63.5696 34.2671 60.7675 34.2671C60.7675 33.9477 60.7675 33.6659 60.7675 33.3841C60.7675 29.7582 60.7675 26.1323 60.7675 22.5065C60.7675 21.9617 60.7115 21.398 60.5807 20.872C60.2631 19.6509 59.4972 18.8242 58.227 18.6176C56.8073 18.3921 55.5557 18.7867 54.7151 20.0454C54.0052 21.135 53.8745 22.375 53.8745 23.6337C53.8558 26.8838 53.8745 30.1152 53.8745 33.3653C53.8745 33.6471 53.8745 33.9289 53.8745 34.2483C51.0724 34.2483 48.3638 34.2483 45.5991 34.2483C45.5991 26.7523 45.5991 19.2939 45.5991 11.7979C48.3451 11.7979 51.0724 11.7979 53.8558 11.7979C53.8558 12.4931 53.8558 13.1506 53.8558 13.9772C54.136 13.7518 54.3041 13.6391 54.4349 13.4888C57.1622 10.8398 61.4026 10.4829 64.4102 11.8543C67.1002 13.0942 68.4451 15.3487 68.9308 18.1855C69.0429 18.8242 69.0803 19.4818 69.0803 20.1205C69.0989 24.6106 69.0803 29.1007 69.0803 33.5907C69.0989 33.8162 69.0989 34.0228 69.0989 34.2671Z" fill="white"/>
<path d="M96.7271 34.2862C93.9064 34.2862 91.1978 34.2862 88.4144 34.2862C88.3957 33.9856 88.377 33.7038 88.377 33.4408C88.377 29.8337 88.377 26.2267 88.377 22.6196C88.377 22.0747 88.3397 21.5111 88.2276 20.9663C87.9474 19.6888 86.976 18.7495 85.8178 18.5992C84.3421 18.4113 83.1092 18.8246 82.2872 20.1397C81.6521 21.173 81.5027 22.3378 81.5027 23.5401C81.484 26.8278 81.5027 30.1343 81.5027 33.422C81.5027 33.685 81.5027 33.9481 81.5027 34.2674C78.738 34.2674 76.0107 34.2674 73.246 34.2674C73.246 26.809 73.246 19.3506 73.246 11.8171C75.9546 11.8171 78.6819 11.8171 81.484 11.8171C81.484 12.4934 81.484 13.1698 81.484 14.0152C81.7829 13.7522 81.9697 13.6206 82.1378 13.4516C84.8838 10.8026 89.2363 10.5208 92.1878 11.9486C94.8404 13.2449 96.1107 15.4993 96.5777 18.3174C96.7085 19.0876 96.7271 19.8955 96.7271 20.6845C96.7458 24.9304 96.7271 29.195 96.7271 33.4408C96.7271 33.7038 96.7271 33.9669 96.7271 34.2862Z" fill="white"/>
<path d="M178.697 26.9593C178.697 29.4392 178.697 31.8252 178.697 34.2674C171.206 34.2674 163.734 34.2674 156.206 34.2674C156.206 24.348 156.206 14.4285 156.206 4.45264C159.008 4.45264 161.791 4.45264 164.668 4.45264C164.668 11.9674 164.668 19.4258 164.668 26.9593C169.375 26.9593 174.027 26.9593 178.697 26.9593Z" fill="white"/>
<path d="M134.816 34.286C132.014 34.286 129.324 34.286 126.578 34.286C126.578 26.79 126.578 19.3316 126.578 11.8168C129.306 11.8168 132.033 11.8168 134.835 11.8168C134.835 13.1883 134.835 14.5409 134.835 15.8936C134.872 15.9312 134.928 15.95 134.966 15.9875C136.927 12.4744 139.916 11.1029 143.914 11.6478C143.802 14.4846 143.708 17.2838 143.596 20.1958C143.279 20.2146 142.98 20.2334 142.681 20.2522C141.56 20.3649 140.421 20.3649 139.337 20.6279C136.815 21.2103 135.283 22.9575 135.003 25.5501C134.854 26.9027 134.872 28.2742 134.854 29.6456C134.835 30.9607 134.854 32.2946 134.854 33.6096C134.835 33.8351 134.816 34.0605 134.816 34.286Z" fill="white"/>
<path d="M40.9293 34.286C38.2019 34.286 35.512 34.286 32.7286 34.286C32.7286 26.8089 32.7286 19.3317 32.7286 11.8169C35.4559 11.8169 38.1459 11.8169 40.9293 11.8169C40.9293 19.2941 40.9293 26.7713 40.9293 34.286Z" fill="white"/>
<path d="M36.7629 9.71262C34.0356 9.69384 32.1302 7.81515 32.1302 5.10983C32.1489 2.55481 34.2037 0.600976 36.8376 0.619763C39.4155 0.63855 41.4703 2.68632 41.4703 5.24134C41.4517 7.83393 39.4716 9.71262 36.7629 9.71262Z" fill="white"/>
</svg>
