<svg width="100" height="91" viewBox="0 0 100 91" fill="none" xmlns="http://www.w3.org/2000/svg">
<path d="M97.3092 51.7387C86.7246 35.4945 87.8497 18.8437 82.7477 11.0148C77.6457 3.18584 62.4404 -10.3121 26.5136 13.2083C-9.41316 36.7288 -0.275444 62.2969 5.33873 70.9056C31.6128 111.22 116.058 80.5074 97.3092 51.7387Z" fill="#F9FDFF"/>
<path d="M75.3714 63.4886L72.0301 57.3774V29.7729C72.0301 28.6511 71.1208 27.7417 69.999 27.7417H65.7404C64.6186 27.7417 63.7093 28.6511 63.7093 29.7729C63.7093 30.8947 64.6186 31.804 65.7404 31.804H67.9679V55.7663H32.22V31.804H35.375C36.4968 31.804 37.4062 30.8947 37.4062 29.7729C37.4062 28.6511 36.4968 27.7417 35.375 27.7417H30.1888C29.067 27.7417 28.1577 28.6511 28.1577 29.7729V57.006L24.6134 63.4886C23.7605 65.0486 23.799 66.9039 24.7166 68.4512C25.6628 70.0471 27.3307 70.9998 29.1783 70.9998H70.9083C72.7235 70.9998 74.3591 70.0686 75.2839 68.509C76.2066 66.9529 76.2394 65.0761 75.3714 63.4886ZM71.7898 66.4372C71.7006 66.5876 71.4361 66.9376 70.9083 66.9376H56.9944C56.9386 65.8657 56.0544 65.0131 54.9686 65.0131H44.9145C43.8288 65.0131 42.9445 65.8658 42.8888 66.9376H29.1781C28.5876 66.9376 28.2883 66.5103 28.2107 66.3794C28.1043 66.1998 27.9584 65.8387 28.1777 65.4376L31.2444 59.8287H68.7405L71.8072 65.4376C72.0473 65.8766 71.8993 66.2523 71.7898 66.4372ZM41.4684 38.263V23.1029C41.4684 21.4937 42.3761 20.0714 43.8374 19.3911C45.3031 18.7083 46.9819 18.9308 48.2187 19.9707C48.2368 19.9859 59.1966 29.8762 59.2333 29.9149C60.3576 31.1024 60.6688 32.7882 60.0454 34.3144C59.4249 35.8336 58.029 36.8148 56.4024 36.8753C56.3772 36.8762 56.3521 36.8768 56.327 36.8768H54.4482L58.1263 44.5274C58.6124 45.5384 58.1869 46.752 57.1759 47.2381C56.8921 47.3745 56.5923 47.439 56.2972 47.439C55.5408 47.439 54.8149 47.0147 54.4652 46.2875L49.3874 35.7256C49.0849 35.0963 49.1268 34.3555 49.4985 33.7642C49.8703 33.1731 50.5196 32.8143 51.218 32.8143H56.2638C56.2808 32.7956 56.297 32.752 56.2961 32.7275L45.5913 23.0699C45.5863 23.0665 45.583 23.0647 45.5818 23.0642C45.5712 23.0652 45.5441 23.0751 45.5315 23.0864C45.5311 23.0899 45.5307 23.0954 45.5307 23.1029V38.2629C45.5307 38.3178 45.6154 38.3863 45.6607 38.4003C46.7754 38.4157 47.6707 39.3278 47.6634 40.4445C47.6561 41.5663 46.7414 42.4698 45.619 42.4624C43.3692 42.4476 41.4684 40.5246 41.4684 38.263Z" fill="url(#paint0_linear_355_8)"/>
<defs>
<linearGradient id="paint0_linear_355_8" x1="50" y1="19" x2="50" y2="70.9998" gradientUnits="userSpaceOnUse">
<stop stop-color="#4DDFFF"/>
<stop offset="1" stop-color="#3CA0FF"/>
</linearGradient>
</defs>
</svg>
