<svg width="99" height="93" viewBox="0 0 99 93" fill="none" xmlns="http://www.w3.org/2000/svg">
<g clip-path="url(#clip0_6_30)">
<path d="M21.1393 12.0782C16.3605 30.8683 3.35003 41.3204 1.04733 50.3769C-1.25538 59.4334 -0.884025 79.7621 40.7551 90.2564C82.3942 100.751 95.0119 76.7086 97.5412 66.7471C109.398 20.1102 29.6008 -21.2016 21.1393 12.0782V12.0782Z" fill="#F9FDFF"/>
<g clip-path="url(#clip1_6_30)">
<path d="M57.6738 39.7309L56.1712 37.7751C55.3468 36.7023 54.0985 36.0873 52.7457 36.0873H52.7426C51.3886 36.0882 50.1399 36.7052 49.3165 37.7798L47.8244 39.7275C46.5669 39.0654 45.0584 39.0624 43.7624 39.7676C42.1649 40.6372 41.2965 42.3629 41.5501 44.1639C41.5518 44.1758 41.5535 44.1878 41.5554 44.1998L42.7994 52.0234C43.1066 54.1326 44.9406 55.7204 47.0742 55.7204H58.4122C60.5455 55.7204 62.3794 54.1328 62.6869 52.0239L63.9294 44.2102C63.9313 44.1984 63.933 44.1865 63.9347 44.1744C64.1884 42.3723 63.3192 40.6461 61.7202 39.7768C60.4288 39.0748 58.9274 39.0766 57.6738 39.7309V39.7309ZM59.9138 43.5936L58.6723 51.4006C58.6704 51.4125 58.6686 51.4244 58.6669 51.4365C58.6491 51.5627 58.5395 51.6579 58.412 51.6579H47.074C46.9466 51.6579 46.837 51.5627 46.8192 51.4365C46.8175 51.4245 46.8158 51.4126 46.8138 51.4006L45.5709 43.5832C45.5627 43.5192 45.5594 43.4147 45.7047 43.3356C45.8613 43.2504 45.949 43.3262 45.9962 43.367L46.8649 44.1193C47.2881 44.4859 47.8442 44.6616 48.4009 44.6046C48.9578 44.5478 49.4667 44.2637 49.8072 43.8193L52.5416 40.2504C52.5928 40.1836 52.6614 40.1497 52.7456 40.1497H52.7458C52.8299 40.1497 52.8986 40.1835 52.9497 40.2501L55.6935 43.8214C56.0345 44.2653 56.5436 44.5488 57.1005 44.6049C57.6573 44.661 58.2128 44.4848 58.6356 44.1179L59.4884 43.3777C59.5356 43.3368 59.6231 43.2609 59.7799 43.3461C59.9253 43.4251 59.9219 43.5296 59.9138 43.5936Z" fill="url(#paint0_linear_6_30)"/>
<path d="M76.6535 65.3528C76.6512 65.3487 76.6486 65.3448 76.6462 65.3408L70.5488 55.4609C70.1822 54.8668 69.536 54.5026 68.838 54.4966C68.832 54.4965 68.8261 54.4965 68.8201 54.4965C68.1288 54.4965 67.4843 54.8484 67.1105 55.431C63.9741 60.32 58.6028 63.2388 52.7424 63.2388C43.377 63.2388 35.7575 55.7317 35.7575 46.5042C35.7575 37.2768 43.377 29.7698 52.7424 29.7698C62.1078 29.7698 69.7271 37.2769 69.7271 46.5043C69.7271 46.5314 69.7264 46.5583 69.726 46.5852L69.7247 46.6769C69.7143 47.7987 70.6152 48.7166 71.7369 48.727C71.7434 48.7271 71.7498 48.7271 71.7562 48.7271C72.8691 48.7271 73.7766 47.8301 73.7869 46.7149L73.7878 46.6535C73.7887 46.604 73.7895 46.5543 73.7895 46.5044C73.7896 35.0367 64.3478 25.7073 52.7424 25.7073C41.1369 25.7073 31.695 35.0367 31.695 46.5043C31.695 50.0973 32.6219 53.4804 34.2518 56.4323L28.8312 65.3528C27.9591 66.788 27.8963 68.5361 28.6633 70.0289C29.4387 71.5381 30.9178 72.516 32.6198 72.6449L35.7501 72.8817L37.4313 75.4873C38.3305 76.8811 39.8544 77.7073 41.5183 77.7072C41.5408 77.7072 41.5637 77.7071 41.5862 77.7068C43.2758 77.6839 44.8053 76.813 45.6779 75.3771L50.6473 67.1989C51.3365 67.2665 52.0354 67.3012 52.7424 67.3012C53.4473 67.3012 54.1461 67.2671 54.8379 67.1997L59.8069 75.3772C60.6794 76.8131 62.2089 77.684 63.8985 77.7069C63.9212 77.7072 63.9438 77.7073 63.9664 77.7073C65.6303 77.7073 67.1543 76.881 68.0534 75.4873L69.7346 72.8818L72.8649 72.645C74.5669 72.5161 76.0459 71.5383 76.8213 70.029C77.5884 68.5361 77.5255 66.788 76.6535 65.3528V65.3528ZM42.2061 73.2677C42.0099 73.5904 41.6992 73.6424 41.5313 73.6447C41.3611 73.6466 41.0503 73.6032 40.8448 73.2848L38.6165 69.8312C38.2718 69.2969 37.6969 68.9549 37.0629 68.9069L32.9263 68.5939C32.5344 68.5642 32.3511 68.317 32.2768 68.1724C32.2074 68.0374 32.1187 67.7657 32.3029 67.4625L36.7975 60.0657C39.3232 62.9609 42.6408 65.1634 46.4148 66.3413L42.2061 73.2677ZM73.2079 68.1724C73.1336 68.3171 72.9503 68.5642 72.5584 68.5939L68.4217 68.9069C67.7877 68.9549 67.2128 69.2969 66.8681 69.8312L64.6398 73.2848C64.4344 73.6033 64.124 73.6496 63.9533 73.6447C63.7856 73.6425 63.4749 73.5904 63.2786 73.2677L59.0741 66.3481C62.7702 65.203 66.0847 63.062 68.6526 60.1241L73.1842 67.4668C73.3652 67.7684 73.2769 68.0381 73.2079 68.1724V68.1724Z" fill="url(#paint1_linear_6_30)"/>
</g>
</g>
<defs>
<linearGradient id="paint0_linear_6_30" x1="52.7424" y1="36.0873" x2="52.7424" y2="55.7204" gradientUnits="userSpaceOnUse">
<stop stop-color="#4DDFFF"/>
<stop offset="1" stop-color="#3CA0FF"/>
</linearGradient>
<linearGradient id="paint1_linear_6_30" x1="52.7423" y1="25.7073" x2="52.7423" y2="77.7073" gradientUnits="userSpaceOnUse">
<stop stop-color="#4DDFFF"/>
<stop offset="1" stop-color="#3CA0FF"/>
</linearGradient>
<clipPath id="clip0_6_30">
<rect width="99" height="93" fill="white"/>
</clipPath>
<clipPath id="clip1_6_30">
<rect width="52" height="52" fill="white" transform="translate(26.7422 25.7073)"/>
</clipPath>
</defs>
</svg>
