<svg width="95" height="100" viewBox="0 0 95 100" fill="none" xmlns="http://www.w3.org/2000/svg">
<g clip-path="url(#clip0_6_30)">
<path d="M12.5244 76.736C31.1497 82.1213 41.1746 95.4636 50.1517 98.0586C59.1289 100.654 79.4589 100.941 91.2972 59.6642C103.136 18.3871 79.515 4.99684 69.6407 2.14594C23.4126 -11.2157 -20.4637 67.2003 12.5244 76.736V76.736Z" fill="#F9FDFF"/>
<g clip-path="url(#clip1_6_30)">
<path d="M73.9424 39.8563C73.3816 34.6156 70.4338 31.5755 67.3317 29.0712C62.9716 25.5511 57.4307 25.3542 57.197 25.3475C56.4621 25.3284 55.7766 25.7025 55.3986 26.3308C55.0206 26.9593 55.0106 27.7425 55.3724 28.3803C56.889 31.0533 56.183 33.0168 55.289 35.5029C54.6114 37.3873 53.8435 39.5233 54.1739 42.0113C54.5318 44.7049 55.8606 47.09 57.9157 48.7268C57.9609 48.7628 58.0075 48.7965 58.0531 48.8315V54.9486C55.2847 55.1104 53.1835 55.6814 51.6624 56.6815C49.7973 57.9079 48.8113 59.7854 48.8113 62.1109C48.8113 63.7678 49.3096 65.1207 49.7494 66.3143C50.1724 67.4626 50.5378 68.4545 50.5378 69.7278C50.5378 70.2828 50.4414 71.3333 49.7955 72.133C49.1794 72.8956 48.1309 73.2823 46.6786 73.2823C34.9254 73.2823 26.0623 63.8517 26.0623 51.3457C26.0623 39.2498 35.903 29.4091 47.9989 29.4091C48.4632 29.4091 48.9332 29.4238 49.3957 29.4528C50.5151 29.5222 51.4796 28.672 51.5497 27.5524C51.6198 26.4329 50.769 25.4685 49.6495 25.3984C49.1028 25.3642 48.5474 25.3468 47.9989 25.3468C41.0543 25.3468 34.5255 28.0512 29.615 32.9617C24.7044 37.8723 22 44.4011 22 51.3457C22 58.348 24.4501 64.8564 28.8991 69.6717C33.4705 74.6197 39.7847 77.3446 46.6787 77.3446C50.0917 77.3446 51.9761 75.8984 52.9558 74.6853C54.0163 73.3726 54.6001 71.6118 54.6001 69.7277C54.6001 67.7301 54.0481 66.2318 53.5614 64.9101C53.1771 63.867 52.8737 63.0434 52.8737 62.1108C52.8737 61.142 53.1694 60.5524 53.8945 60.0757C54.5253 59.6609 55.7409 59.1811 58.0532 59.0192V71.0041C57.9871 72.5931 58.5494 74.1299 59.6396 75.3371C60.7295 76.5437 62.2241 77.2539 63.8481 77.3366C63.954 77.3419 64.0596 77.3446 64.1648 77.3446C65.6738 77.3446 67.1099 76.7933 68.238 75.7745C69.4446 74.6847 70.1548 73.1901 70.2374 71.5661C70.2944 70.4457 69.4323 69.4914 68.3121 69.4343C67.1909 69.3774 66.2374 70.2395 66.1803 71.3596C66.1529 71.8999 65.9165 72.3973 65.5151 72.7598C65.1136 73.1224 64.5958 73.3076 64.0545 73.2794C63.5142 73.2519 63.0168 73.0157 62.6544 72.6142C62.4365 72.3731 62.0767 71.8627 62.1127 71.1537L62.1154 71.1021V50.6661C62.7404 50.7884 63.3801 50.8525 64.0284 50.8525C64.3872 50.8525 64.7489 50.8335 65.1111 50.7949C65.4721 50.7566 65.8278 50.6987 66.1777 50.6232V61.8061C66.1777 62.9279 67.087 63.8373 68.2088 63.8373C69.3306 63.8373 70.24 62.9279 70.24 61.8061V48.7013C70.8066 48.25 71.3278 47.7333 71.7938 47.1561C73.4619 45.09 74.225 42.4978 73.9424 39.8563ZM68.6331 44.6043C67.6471 45.8255 66.244 46.5895 64.6824 46.7554C63.134 46.9196 61.6299 46.4914 60.447 45.5491C59.2176 44.5699 58.4199 43.1235 58.201 41.4763C58.0007 39.9679 58.5156 38.5356 59.112 36.8773C59.8128 34.9283 60.6343 32.6434 60.2043 29.9596C61.6269 30.3606 63.3156 31.0499 64.78 32.2321C67.6595 34.5569 69.5209 36.7155 69.9032 40.2888C70.0702 41.8503 69.6192 43.3829 68.6331 44.6043Z" fill="url(#paint0_linear_6_30)"/>
<path d="M44.7488 36.5182C44.7488 38.1982 46.1155 39.565 47.7956 39.565C49.4755 39.565 50.8424 38.1983 50.8424 36.5182C50.8424 34.8383 49.4756 33.4714 47.7956 33.4714C46.1156 33.4715 44.7488 34.8383 44.7488 36.5182Z" fill="url(#paint1_linear_6_30)"/>
<path d="M39.1863 43.5485C40.3747 42.36 40.3747 40.4262 39.1863 39.2378L39.1862 39.2377C37.9976 38.0493 36.0637 38.0493 34.8753 39.2378C33.6869 40.4263 33.6869 42.3601 34.8754 43.5486C35.4696 44.1429 36.2501 44.4399 37.0307 44.4399C37.8113 44.4399 38.5919 44.1428 39.1863 43.5485Z" fill="url(#paint2_linear_6_30)"/>
<path d="M30.1246 52.0564C30.1246 53.7364 31.4913 55.1032 33.1714 55.1032C34.8513 55.1032 36.2181 53.7365 36.2181 52.0564C36.2181 50.3764 34.8514 49.0096 33.1714 49.0096C31.4913 49.0096 30.1246 50.3765 30.1246 52.0564Z" fill="url(#paint3_linear_6_30)"/>
<path d="M37.3354 65.1576C38.1493 65.1576 38.9142 64.8406 39.4898 64.2649C40.0652 63.6894 40.3821 62.9241 40.3821 62.11C40.3821 61.296 40.0652 60.5307 39.4897 59.9549C38.3016 58.7669 36.3689 58.7671 35.1811 59.9549L35.181 59.955C34.6055 60.5306 34.2887 61.2959 34.2887 62.11C34.2887 62.9241 34.6055 63.6893 35.181 64.2649C35.7564 64.8406 36.5215 65.1576 37.3354 65.1576Z" fill="url(#paint4_linear_6_30)"/>
</g>
</g>
<defs>
<linearGradient id="paint0_linear_6_30" x1="48" y1="25.3468" x2="48" y2="77.3446" gradientUnits="userSpaceOnUse">
<stop stop-color="#4DDFFF"/>
<stop offset="1" stop-color="#3CA0FF"/>
</linearGradient>
<linearGradient id="paint1_linear_6_30" x1="47.7956" y1="33.4714" x2="47.7956" y2="39.565" gradientUnits="userSpaceOnUse">
<stop stop-color="#4DDFFF"/>
<stop offset="1" stop-color="#3CA0FF"/>
</linearGradient>
<linearGradient id="paint2_linear_6_30" x1="37.0308" y1="38.3464" x2="37.0308" y2="44.4399" gradientUnits="userSpaceOnUse">
<stop stop-color="#4DDFFF"/>
<stop offset="1" stop-color="#3CA0FF"/>
</linearGradient>
<linearGradient id="paint3_linear_6_30" x1="33.1714" y1="49.0096" x2="33.1714" y2="55.1032" gradientUnits="userSpaceOnUse">
<stop stop-color="#4DDFFF"/>
<stop offset="1" stop-color="#3CA0FF"/>
</linearGradient>
<linearGradient id="paint4_linear_6_30" x1="37.3354" y1="59.064" x2="37.3354" y2="65.1576" gradientUnits="userSpaceOnUse">
<stop stop-color="#4DDFFF"/>
<stop offset="1" stop-color="#3CA0FF"/>
</linearGradient>
<clipPath id="clip0_6_30">
<rect width="95" height="100" fill="white"/>
</clipPath>
<clipPath id="clip1_6_30">
<rect width="52" height="52" fill="white" transform="translate(22 25.3457)"/>
</clipPath>
</defs>
</svg>
