<svg width="96" height="100" viewBox="0 0 96 100" fill="none" xmlns="http://www.w3.org/2000/svg">
<g clip-path="url(#clip0_6_30)">
<path d="M37.1316 6.60917C25.8905 22.4061 9.98379 27.4553 4.56634 35.0693C-0.8511 42.6834 -7.84502 61.7748 27.1957 86.596C62.2364 111.417 82.6839 93.553 88.6395 85.1769C116.536 45.9673 57.0388 -21.3702 37.1316 6.60917V6.60917Z" fill="#F9FDFF"/>
<g clip-path="url(#clip1_6_30)">
<path d="M72.4277 44.0763C72.0428 43.0226 70.8768 42.4804 69.8228 42.8656C68.769 43.2506 68.227 44.4169 68.612 45.4706C69.4916 47.8779 69.9376 50.4113 69.9376 52.9999V57.0056C69.3018 56.7802 68.6184 56.6562 67.9064 56.6562H67.7977C67.2769 56.6562 66.8128 56.3449 66.6154 55.8627L66.2603 54.9961C65.4354 52.9814 63.4956 51.6797 61.3187 51.6797H58.3595C57.2376 51.6797 56.3282 52.5891 56.3282 53.7109V76.9688C56.3282 78.0906 57.2376 79 58.3595 79H61.21C63.4583 79 65.4785 77.5779 66.2371 75.4612L66.7036 74.1591C66.8851 73.6527 67.3684 73.3125 67.9064 73.3125C71.2665 73.3125 74.0001 70.5788 74.0001 67.2188V52.9999C74.0001 49.9341 73.4711 46.9318 72.4277 44.0763V44.0763ZM69.9376 67.2188C69.9376 68.3388 69.0264 69.25 67.9064 69.25C65.658 69.25 63.6378 70.6721 62.8792 72.7888L62.4128 74.0909C62.2313 74.5973 61.7479 74.9375 61.21 74.9375H60.3907V55.7422H61.3187C61.8395 55.7422 62.3036 56.0536 62.501 56.5356V56.5358L62.8561 57.4024C63.681 59.417 65.6207 60.7188 67.7977 60.7188H67.9064C69.0264 60.7188 69.9376 61.63 69.9376 62.75V67.2188ZM37.6407 51.6797H34.6815C32.5045 51.6797 30.5649 52.9814 29.7399 54.996L29.3848 55.8628C29.1875 56.3449 28.7234 56.6562 28.2025 56.6562H28.0939C27.3818 56.6562 26.6984 56.7802 26.0626 57.0056V53C26.0626 40.9036 35.9037 31.0625 48.0001 31.0625C54.0499 31.0625 59.6841 33.4725 63.8648 37.8484C64.6398 38.6596 65.9256 38.689 66.7366 37.914C67.5478 37.1391 67.5771 35.8533 66.8022 35.0422C64.4002 32.5279 61.5732 30.5502 58.3996 29.1638C55.1129 27.728 51.6141 27 48.0001 27C41.0553 27 34.526 29.7045 29.6153 34.6152C24.7046 39.526 22.0001 46.0552 22.0001 53V67.2188C22.0001 70.5788 24.7338 73.3125 28.0939 73.3125C28.6318 73.3125 29.1152 73.6527 29.2966 74.1589L29.7633 75.4614C30.5216 77.5779 32.5419 79 34.7903 79H37.6407C38.7626 79 39.672 78.0906 39.672 76.9688V53.7109C39.672 52.5891 38.7626 51.6797 37.6407 51.6797V51.6797ZM35.6095 74.9375H34.7903C34.2523 74.9375 33.769 74.5973 33.5876 74.0911L33.1209 72.7886C32.3624 70.6721 30.3423 69.25 28.0939 69.25C26.9738 69.25 26.0626 68.3388 26.0626 67.2188V62.75C26.0626 61.63 26.9738 60.7188 28.0939 60.7188H28.2025C30.3795 60.7188 32.3192 59.417 33.1442 57.4026L33.4992 56.5358C33.4992 56.5357 33.4992 56.5357 33.4992 56.5356C33.6966 56.0537 34.1607 55.7422 34.6815 55.7422H35.6095V74.9375ZM51.828 68.3729L46.6753 71.3505C45.2783 72.1578 43.5314 71.1497 43.5314 69.5362V63.581C43.5314 61.9676 45.2783 60.9594 46.6753 61.7667L51.828 64.7443C53.2242 65.551 53.2242 67.5662 51.828 68.3729Z" fill="url(#paint0_linear_6_30)"/>
</g>
</g>
<defs>
<linearGradient id="paint0_linear_6_30" x1="48.0001" y1="27" x2="48.0001" y2="79" gradientUnits="userSpaceOnUse">
<stop stop-color="#4DDFFF"/>
<stop offset="1" stop-color="#3CA0FF"/>
</linearGradient>
<clipPath id="clip0_6_30">
<rect width="96" height="100" fill="white"/>
</clipPath>
<clipPath id="clip1_6_30">
<rect width="52" height="52" fill="white" transform="translate(22.0001 27)"/>
</clipPath>
</defs>
</svg>
