<svg width="155" height="156" viewBox="0 0 155 156" fill="none" xmlns="http://www.w3.org/2000/svg">
<g filter="url(#filter0_d_341_10)">
<path d="M45.9602 32.6922C40.4645 54.3009 25.5026 66.3207 22.8544 76.7357C20.2063 87.1507 20.6334 110.529 68.5183 122.597C116.403 134.666 130.914 107.017 133.822 95.5615C147.457 41.9291 55.6909 -5.57952 45.9602 32.6922Z" fill="#15628B"/>
</g>
<path d="M132.853 95.3151L132.853 95.3154C131.44 100.88 127.193 110.415 117.471 117.076C107.783 123.713 92.4952 127.609 68.7627 121.627C44.9497 115.626 33.1401 106.861 27.5689 98.4923C22.0105 90.1422 22.5457 82.0082 23.8236 76.9821C24.4455 74.5362 25.8071 71.9406 27.6531 69.0351C28.8327 67.1784 30.176 65.2454 31.6177 63.1709C32.4395 61.9884 33.2932 60.7599 34.1668 59.4734C38.9465 52.4342 44.1385 43.9123 46.9293 32.9387L45.9602 32.6922L46.9294 32.9387C48.0891 28.3774 50.449 25.1514 53.6404 23.0397C56.8499 20.916 60.9749 19.8713 65.7205 19.8276C75.229 19.7398 87.0007 23.6762 98.1299 30.5148C120.451 44.2307 139.507 69.1445 132.853 95.3151Z" fill="#15628B" stroke="white" stroke-width="2"/>
<g clip-path="url(#clip0_341_10)">
<path d="M84.0692 63.2164L82.2198 60.8093C81.2052 59.4889 79.6688 58.7319 78.0038 58.7319H77.9999C76.3335 58.7331 74.7967 59.4924 73.7833 60.8151L71.9468 63.2122C70.3992 62.3973 68.5425 62.3936 66.9474 63.2616C64.9813 64.3318 63.9124 66.4558 64.2245 68.6724C64.2267 68.6871 64.2288 68.7018 64.2312 68.7166L65.7622 78.3456C66.1403 80.9416 68.3975 82.8958 71.0234 82.8958H84.9779C87.6035 82.8958 89.8607 80.9418 90.2392 78.3462L91.7683 68.7294C91.7707 68.7148 91.7728 68.7002 91.7749 68.6853C92.0872 66.4673 91.0173 64.3428 89.0493 63.2729C87.4599 62.4089 85.612 62.4111 84.0692 63.2164ZM86.826 67.9704L85.298 77.5791C85.2957 77.5937 85.2935 77.6084 85.2914 77.6233C85.2695 77.7786 85.1347 77.8958 84.9777 77.8958H71.0233C70.8664 77.8958 70.7315 77.7786 70.7097 77.6233C70.7075 77.6086 70.7054 77.5938 70.703 77.5791L69.1733 67.9577C69.1632 67.8789 69.1592 67.7503 69.3379 67.6529C69.5307 67.5481 69.6387 67.6414 69.6967 67.6916L70.7659 68.6176C71.2868 69.0687 71.9712 69.2849 72.6563 69.2148C73.3418 69.1449 73.968 68.7952 74.3872 68.2483L77.7525 63.8558C77.8155 63.7736 77.9 63.7318 78.0037 63.7318H78.0039C78.1074 63.7318 78.1919 63.7734 78.2549 63.8554L81.6318 68.2508C82.0515 68.7972 82.6782 69.1461 83.3635 69.2152C84.0488 69.2842 84.7325 69.0673 85.2529 68.6158L86.3025 67.7048C86.3605 67.6544 86.4683 67.5611 86.6613 67.6658C86.8402 67.7631 86.836 67.8917 86.826 67.9704Z" fill="url(#paint0_linear_341_10)"/>
<path d="M107.429 94.751C107.426 94.746 107.423 94.7412 107.42 94.7363L99.9154 82.5764C99.4641 81.8452 98.6689 81.3969 97.8097 81.3895C97.8024 81.3894 97.7951 81.3894 97.7877 81.3894C96.9369 81.3894 96.1436 81.8225 95.6836 82.5395C91.8235 88.5568 85.2126 92.1492 77.9997 92.1492C66.4731 92.1492 57.0954 82.9097 57.0954 71.5528C57.0954 60.1959 66.4731 50.9565 77.9997 50.9565C89.5265 50.9565 98.904 60.196 98.904 71.5529C98.904 71.5863 98.9032 71.6193 98.9027 71.6524L98.9011 71.7653C98.8882 73.146 99.9971 74.2757 101.378 74.2885C101.386 74.2887 101.393 74.2887 101.401 74.2887C102.771 74.2887 103.888 73.1847 103.901 71.812L103.902 71.7365C103.903 71.6755 103.904 71.6144 103.904 71.553C103.904 57.4389 92.2834 45.9565 77.9997 45.9565C63.7161 45.9565 52.0954 57.4389 52.0954 71.5529C52.0954 75.975 53.2361 80.1388 55.2421 83.7719L48.5706 94.751C47.4972 96.5174 47.42 98.6689 48.364 100.506C49.3184 102.364 51.1387 103.567 53.2335 103.726L57.0862 104.017L59.1554 107.224C60.2621 108.94 62.1376 109.957 64.1855 109.956C64.2132 109.956 64.2414 109.956 64.2691 109.956C66.3486 109.928 68.2311 108.856 69.305 107.089L75.4212 97.0232C76.2695 97.1064 77.1296 97.149 77.9997 97.149C78.8674 97.149 79.7275 97.107 80.5789 97.0242L86.6946 107.089C87.7684 108.856 89.6509 109.928 91.7304 109.956C91.7584 109.956 91.7861 109.957 91.814 109.957C93.8619 109.957 95.7375 108.94 96.8441 107.224L98.9132 104.018L102.766 103.726C104.861 103.567 106.681 102.364 107.635 100.506C108.579 98.6689 108.502 96.5174 107.429 94.751ZM65.032 104.492C64.7906 104.89 64.4081 104.954 64.2015 104.956C63.992 104.959 63.6095 104.905 63.3566 104.514L60.6141 100.263C60.1899 99.6053 59.4822 99.1844 58.702 99.1253L53.6107 98.74C53.1284 98.7035 52.9029 98.3993 52.8114 98.2213C52.726 98.0552 52.6167 97.7208 52.8435 97.3475L58.3754 88.2438C61.4839 91.8072 65.5671 94.5179 70.212 95.9677L65.032 104.492ZM103.188 98.2213C103.097 98.3994 102.871 98.7035 102.389 98.74L97.2974 99.1253C96.5171 99.1844 95.8095 99.6053 95.3852 100.263L92.6427 104.514C92.39 104.906 92.0079 104.963 91.7979 104.956C91.5915 104.954 91.209 104.89 90.9675 104.492L85.7926 95.976C90.3417 94.5667 94.4211 91.9315 97.5816 88.3157L103.159 97.3529C103.382 97.724 103.273 98.056 103.188 98.2213Z" fill="url(#paint1_linear_341_10)"/>
</g>
<defs>
<filter id="filter0_d_341_10" x="3.98145" y="8.82617" width="149.22" height="142.758" filterUnits="userSpaceOnUse" color-interpolation-filters="sRGB">
<feFlood flood-opacity="0" result="BackgroundImageFix"/>
<feColorMatrix in="SourceAlpha" type="matrix" values="0 0 0 0 0 0 0 0 0 0 0 0 0 0 0 0 0 0 127 0" result="hardAlpha"/>
<feOffset dy="8"/>
<feGaussianBlur stdDeviation="9"/>
<feComposite in2="hardAlpha" operator="out"/>
<feColorMatrix type="matrix" values="0 0 0 0 0.18033 0 0 0 0 0.665702 0 0 0 0 0.920833 0 0 0 1 0"/>
<feBlend mode="normal" in2="BackgroundImageFix" result="effect1_dropShadow_341_10"/>
<feBlend mode="normal" in="SourceGraphic" in2="effect1_dropShadow_341_10" result="shape"/>
</filter>
<linearGradient id="paint0_linear_341_10" x1="77.9997" y1="58.7319" x2="77.9997" y2="82.8958" gradientUnits="userSpaceOnUse">
<stop stop-color="white"/>
<stop offset="1" stop-color="white"/>
</linearGradient>
<linearGradient id="paint1_linear_341_10" x1="77.9997" y1="45.9565" x2="77.9997" y2="109.957" gradientUnits="userSpaceOnUse">
<stop stop-color="white"/>
<stop offset="1" stop-color="white"/>
</linearGradient>
<clipPath id="clip0_341_10">
<rect width="64" height="64" fill="white" transform="translate(46 45.9565)"/>
</clipPath>
</defs>
</svg>
