<svg width="156" height="159" viewBox="0 0 156 159" fill="none" xmlns="http://www.w3.org/2000/svg">
<g filter="url(#filter0_d_341_8)">
<path d="M31.4045 106.646C52.8237 112.84 64.3523 128.183 74.676 131.168C84.9997 134.152 108.379 134.483 121.993 87.0139C135.607 39.5453 108.444 24.1465 97.0883 20.8679C43.926 5.50204 -6.53175 95.6805 31.4045 106.646Z" fill="#1F77A6"/>
<path d="M31.4045 106.646C52.8237 112.84 64.3523 128.183 74.676 131.168C84.9997 134.152 108.379 134.483 121.993 87.0139C135.607 39.5453 108.444 24.1465 97.0883 20.8679C43.926 5.50204 -6.53175 95.6805 31.4045 106.646Z" fill="#1F77A6"/>
</g>
<path d="M31.6823 105.686L31.6822 105.686C27.161 104.379 24.0131 101.916 22.006 98.6575C19.9874 95.3808 19.077 91.2241 19.187 86.4796C19.4075 76.9732 23.7233 65.3353 30.919 54.4336C45.3512 32.5686 70.8695 14.3306 96.8107 21.8286L96.8109 21.8287C102.327 23.4212 111.719 27.9749 118.062 37.9078C124.382 47.8057 127.779 63.2121 121.032 86.7383C114.262 110.344 105.119 121.864 96.5739 127.161C88.0481 132.445 79.9358 131.647 74.9537 130.207C72.5292 129.506 69.9792 128.061 67.135 126.122C65.3175 124.883 63.429 123.477 61.4023 121.969C60.247 121.11 59.0469 120.216 57.7894 119.302C50.9088 114.296 42.5597 108.831 31.6823 105.686Z" fill="#1F77A6"/>
<path d="M31.6823 105.686L31.6822 105.686C27.161 104.379 24.0131 101.916 22.006 98.6575C19.9874 95.3808 19.077 91.2241 19.187 86.4796C19.4075 76.9732 23.7233 65.3353 30.919 54.4336C45.3512 32.5686 70.8695 14.3306 96.8107 21.8286L96.8109 21.8287C102.327 23.4212 111.719 27.9749 118.062 37.9078C124.382 47.8057 127.779 63.2121 121.032 86.7383C114.262 110.344 105.119 121.864 96.5739 127.161C88.0481 132.445 79.9358 131.647 74.9537 130.207C72.5292 129.506 69.9792 128.061 67.135 126.122C65.3175 124.883 63.429 123.477 61.4023 121.969C60.247 121.11 59.0469 120.216 57.7894 119.302C50.9088 114.296 42.5597 108.831 31.6823 105.686Z" fill="#1F77A6"/>
<path d="M31.6823 105.686L31.6822 105.686C27.161 104.379 24.0131 101.916 22.006 98.6575C19.9874 95.3808 19.077 91.2241 19.187 86.4796C19.4075 76.9732 23.7233 65.3353 30.919 54.4336C45.3512 32.5686 70.8695 14.3306 96.8107 21.8286L96.8109 21.8287C102.327 23.4212 111.719 27.9749 118.062 37.9078C124.382 47.8057 127.779 63.2121 121.032 86.7383C114.262 110.344 105.119 121.864 96.5739 127.161C88.0481 132.445 79.9358 131.647 74.9537 130.207C72.5292 129.506 69.9792 128.061 67.135 126.122C65.3175 124.883 63.429 123.477 61.4023 121.969C60.247 121.11 59.0469 120.216 57.7894 119.302C50.9088 114.296 42.5597 108.831 31.6823 105.686Z" stroke="white" stroke-width="2"/>
<g clip-path="url(#clip0_341_8)">
<path d="M106.927 62.4174C106.215 55.7657 102.474 51.9072 98.5364 48.7286C93.0025 44.2608 85.9697 44.0109 85.6731 44.0024C84.7403 43.9781 83.8703 44.4529 83.3906 45.2504C82.9108 46.0481 82.898 47.0421 83.3573 47.8516C85.2821 51.2443 84.3861 53.7365 83.2515 56.8918C82.3914 59.2837 81.4168 61.9947 81.8361 65.1525C82.2903 68.5714 83.977 71.5986 86.5854 73.6761C86.6427 73.7217 86.7018 73.7645 86.7597 73.809V81.573C83.2459 81.7784 80.5791 82.5031 78.6485 83.7724C76.2811 85.3291 75.0297 87.712 75.0297 90.6636C75.0297 92.7666 75.6622 94.4837 76.2204 95.9986C76.7573 97.4562 77.2211 98.7151 77.2211 100.331C77.2211 101.036 77.0986 102.369 76.2789 103.384C75.497 104.352 74.1662 104.843 72.3228 104.843C57.4053 104.843 46.156 92.8731 46.156 77C46.156 61.6476 58.6461 49.1575 73.9986 49.1575C74.5879 49.1575 75.1844 49.1761 75.7714 49.2129C77.1922 49.3011 78.4165 48.2219 78.5054 46.8009C78.5943 45.38 77.5145 44.1559 76.0936 44.0669C75.3997 44.0235 74.6948 44.0015 73.9986 44.0015C65.1844 44.0015 56.8977 47.434 50.6651 53.6665C44.4325 59.8992 41 68.1858 41 77C41 85.8876 44.1097 94.1482 49.7566 100.26C55.5587 106.54 63.5729 109.999 72.3229 109.999C76.6548 109.999 79.0466 108.163 80.2901 106.623C81.636 104.957 82.3771 102.722 82.3771 100.331C82.3771 97.7956 81.6765 95.894 81.0586 94.2164C80.571 92.8925 80.1858 91.8471 80.1858 90.6635C80.1858 89.4338 80.5612 88.6855 81.4815 88.0804C82.2821 87.554 83.825 86.945 86.7598 86.7396V101.951C86.676 103.968 87.3896 105.918 88.7733 107.451C90.1567 108.982 92.0537 109.884 94.1149 109.988C94.2494 109.995 94.3833 109.999 94.5168 109.999C96.4321 109.999 98.2549 109.299 99.6866 108.006C101.218 106.623 102.12 104.726 102.224 102.664C102.297 101.242 101.203 100.031 99.7807 99.9586C98.3577 99.8865 97.1474 100.981 97.075 102.402C97.0402 103.088 96.7402 103.719 96.2307 104.18C95.7211 104.64 95.0639 104.875 94.3769 104.839C93.6911 104.804 93.0598 104.504 92.5998 103.995C92.3232 103.689 91.8665 103.041 91.9123 102.141L91.9156 102.076V76.1375C92.7089 76.2927 93.5209 76.3741 94.3437 76.3741C94.7992 76.3741 95.2582 76.35 95.718 76.301C96.1761 76.2524 96.6276 76.1789 97.0716 76.083V90.2768C97.0716 91.7005 98.2259 92.8547 99.6496 92.8547C101.073 92.8547 102.228 91.7005 102.228 90.2768V73.6437C102.947 73.0709 103.608 72.4151 104.2 71.6825C106.317 69.0602 107.286 65.77 106.927 62.4174ZM100.188 68.4436C98.9367 69.9936 97.1558 70.9634 95.1738 71.1739C93.2086 71.3823 91.2995 70.8388 89.7981 69.6429C88.2377 68.4001 87.2253 66.5642 86.9475 64.4735C86.6931 62.5591 87.3467 60.7411 88.1036 58.6363C88.9932 56.1626 90.0358 53.2625 89.49 49.8561C91.2957 50.3652 93.4391 51.2401 95.2976 52.7405C98.9524 55.6912 101.315 58.431 101.8 62.9663C102.012 64.9482 101.44 66.8934 100.188 68.4436Z" fill="url(#paint0_linear_341_8)"/>
<path d="M69.873 58.1805C69.873 60.3128 71.6077 62.0476 73.7401 62.0476C75.8723 62.0476 77.6072 60.3129 77.6072 58.1805C77.6072 56.0483 75.8725 54.3135 73.7401 54.3135C71.6079 54.3136 69.873 56.0483 69.873 58.1805Z" fill="url(#paint1_linear_341_8)"/>
<path d="M62.8129 67.1036C64.3212 65.5952 64.3212 63.1407 62.8129 61.6323L62.8128 61.6322C61.3042 60.1239 58.8497 60.1239 57.3412 61.6323C55.8329 63.1408 55.8329 65.5953 57.3413 67.1038C58.0956 67.858 59.0862 68.235 60.077 68.235C61.0677 68.235 62.0585 67.8579 62.8129 67.1036Z" fill="url(#paint2_linear_341_8)"/>
<path d="M51.3115 77.9022C51.3115 80.0345 53.0462 81.7693 55.1786 81.7693C57.3108 81.7693 59.0456 80.0346 59.0456 77.9022C59.0456 75.7698 57.3109 74.0352 55.1786 74.0352C53.0462 74.0352 51.3115 75.77 51.3115 77.9022Z" fill="url(#paint3_linear_341_8)"/>
<path d="M60.4637 94.5306C61.4967 94.5306 62.4676 94.1283 63.1981 93.3976C63.9285 92.6671 64.3307 91.6958 64.3307 90.6625C64.3307 89.6293 63.9285 88.658 63.198 87.9272C61.69 86.4193 59.2369 86.4196 57.7294 87.9272L57.7293 87.9274C56.9989 88.6579 56.5967 89.6292 56.5967 90.6625C56.5967 91.6958 56.9989 92.667 57.7293 93.3976C58.4596 94.1283 59.4307 94.5306 60.4637 94.5306Z" fill="url(#paint4_linear_341_8)"/>
</g>
<defs>
<filter id="filter0_d_341_8" x="0.177734" y="9.11108" width="143.548" height="149.168" filterUnits="userSpaceOnUse" color-interpolation-filters="sRGB">
<feFlood flood-opacity="0" result="BackgroundImageFix"/>
<feColorMatrix in="SourceAlpha" type="matrix" values="0 0 0 0 0 0 0 0 0 0 0 0 0 0 0 0 0 0 127 0" result="hardAlpha"/>
<feOffset dy="8"/>
<feGaussianBlur stdDeviation="9"/>
<feComposite in2="hardAlpha" operator="out"/>
<feColorMatrix type="matrix" values="0 0 0 0 0.14967 0 0 0 0 0.684381 0 0 0 0 0.970833 0 0 0 1 0"/>
<feBlend mode="normal" in2="BackgroundImageFix" result="effect1_dropShadow_341_8"/>
<feBlend mode="normal" in="SourceGraphic" in2="effect1_dropShadow_341_8" result="shape"/>
</filter>
<linearGradient id="paint0_linear_341_8" x1="74" y1="44.0015" x2="74" y2="109.999" gradientUnits="userSpaceOnUse">
<stop stop-color="white"/>
<stop offset="1" stop-color="white"/>
</linearGradient>
<linearGradient id="paint1_linear_341_8" x1="73.7401" y1="54.3135" x2="73.7401" y2="62.0476" gradientUnits="userSpaceOnUse">
<stop stop-color="white"/>
<stop offset="1" stop-color="white"/>
</linearGradient>
<linearGradient id="paint2_linear_341_8" x1="60.077" y1="60.501" x2="60.077" y2="68.235" gradientUnits="userSpaceOnUse">
<stop stop-color="white"/>
<stop offset="1" stop-color="white"/>
</linearGradient>
<linearGradient id="paint3_linear_341_8" x1="55.1786" y1="74.0352" x2="55.1786" y2="81.7693" gradientUnits="userSpaceOnUse">
<stop stop-color="white"/>
<stop offset="1" stop-color="white"/>
</linearGradient>
<linearGradient id="paint4_linear_341_8" x1="60.4637" y1="86.7964" x2="60.4637" y2="94.5306" gradientUnits="userSpaceOnUse">
<stop stop-color="white"/>
<stop offset="1" stop-color="white"/>
</linearGradient>
<clipPath id="clip0_341_8">
<rect width="66" height="66" fill="white" transform="translate(41 44)"/>
</clipPath>
</defs>
</svg>
