<svg width="95" height="87" viewBox="0 0 95 87" fill="none" xmlns="http://www.w3.org/2000/svg">
<g clip-path="url(#clip0_6_30)">
<path d="M2.13793 22.912C6.16434 41.8776 -0.88014 57.0068 1.06105 66.1476C3.00225 75.2884 12.3281 93.3556 54.3138 84.3472C96.2994 75.3389 96.9799 48.1955 94.8416 38.1428C84.844 -8.92761 -4.99552 -10.6775 2.13793 22.912V22.912Z" fill="#F9FDFF"/>
<path d="M47.9777 20.4949C45.6721 19.5228 43.1268 20.0041 41.3354 21.751C41.2932 21.7921 41.2529 21.835 41.2145 21.8795L29.7105 35.2348H26.1321C21.6538 35.2348 18.0103 38.8783 18.0103 43.3566V48.6357C18.0103 53.114 21.6538 56.7574 26.1321 56.7574H29.7106L41.2146 70.1127C41.253 70.1573 41.2933 70.2003 41.3355 70.2413C42.5195 71.3957 44.0301 72 45.5834 71.9999C46.389 71.9999 47.2062 71.8373 47.9948 71.5048C50.2897 70.5372 51.7154 68.3874 51.7154 65.8943C51.7154 64.7729 50.8064 63.8639 49.6849 63.8639C48.5635 63.8639 47.6545 64.7729 47.6545 65.8943C47.6545 67.1441 46.7074 67.6406 46.4171 67.763C46.1272 67.8851 45.1257 68.2121 44.225 67.3855L32.1798 53.402C31.7942 52.9542 31.2324 52.6968 30.6414 52.6968H26.1321C23.8929 52.6968 22.0712 50.875 22.0712 48.6359V43.3568C22.0712 41.1176 23.8929 39.2959 26.1321 39.2959H30.6414C31.2324 39.2959 31.7941 39.0383 32.1798 38.5906L44.2249 24.607C45.1158 23.7899 46.1115 24.1154 46.3999 24.2369C46.6942 24.3609 47.6545 24.8642 47.6545 26.1275V55.7423C47.6545 56.8638 48.5635 57.7728 49.6849 57.7728C50.8064 57.7728 51.7154 56.8638 51.7154 55.7423V26.1275C51.7156 23.6253 50.2832 21.4671 47.9777 20.4949Z" fill="url(#paint0_linear_6_30)"/>
<path d="M60.3017 51.8385L60.3483 51.7529C60.8793 50.779 61.8677 48.9662 61.8677 45.9969C61.8677 42.9167 60.7982 41.0299 60.2843 40.123C59.7312 39.1475 58.4924 38.8047 57.5167 39.3577C56.5412 39.9108 56.1985 41.1498 56.7514 42.1254C57.1717 42.8668 57.8068 43.9875 57.8068 45.9969C57.8068 47.931 57.1906 49.0612 56.783 49.8091L56.7332 49.9003C56.198 50.8857 56.563 52.1185 57.5484 52.6537C57.8563 52.821 58.1882 52.9003 58.5156 52.9003C59.2358 52.9003 59.9336 52.5161 60.3017 51.8385Z" fill="url(#paint1_linear_6_30)"/>
<path d="M63.2968 29.9875C62.5 29.1984 61.2143 29.2045 60.4253 30.0012C59.6361 30.798 59.6422 32.0836 60.439 32.8727C63.9792 36.3793 65.9288 41.0372 65.9288 45.9884C65.9288 50.9497 63.9792 55.6133 60.439 59.1198C59.6422 59.909 59.6361 61.1947 60.4253 61.9913C60.8223 62.3922 61.3449 62.5929 61.8679 62.5929C62.3842 62.5929 62.9009 62.3971 63.2967 62.0049C67.6127 57.7299 69.9894 52.0417 69.9894 45.9883C69.9895 39.945 67.6128 34.2625 63.2968 29.9875Z" fill="url(#paint2_linear_6_30)"/>
</g>
<defs>
<linearGradient id="paint0_linear_6_30" x1="34.8628" y1="20" x2="34.8628" y2="71.9999" gradientUnits="userSpaceOnUse">
<stop stop-color="#4DDFFF"/>
<stop offset="1" stop-color="#3CA0FF"/>
</linearGradient>
<linearGradient id="paint1_linear_6_30" x1="59.1772" y1="39.0934" x2="59.1772" y2="52.9003" gradientUnits="userSpaceOnUse">
<stop stop-color="#4DDFFF"/>
<stop offset="1" stop-color="#3CA0FF"/>
</linearGradient>
<linearGradient id="paint2_linear_6_30" x1="64.9134" y1="29.3997" x2="64.9134" y2="62.5929" gradientUnits="userSpaceOnUse">
<stop stop-color="#4DDFFF"/>
<stop offset="1" stop-color="#3CA0FF"/>
</linearGradient>
<clipPath id="clip0_6_30">
<rect width="95" height="87" fill="white"/>
</clipPath>
</defs>
</svg>
