<svg width="95" height="88" viewBox="0 0 95 88" fill="none" xmlns="http://www.w3.org/2000/svg">
<g clip-path="url(#clip0_6_30)">
<path d="M93.9509 63.7144C89.5129 44.8409 96.2266 29.5621 94.0871 20.4657C91.9475 11.3692 82.2309 -6.49083 40.4511 3.42859C-1.32868 13.348 -1.41856 40.4998 0.937841 50.5036C11.9569 97.3454 101.813 97.1408 93.9509 63.7144V63.7144Z" fill="#F9FDFF"/>
<g clip-path="url(#clip1_6_30)">
<path d="M35.1563 26.4766C35.1563 25.3546 36.0656 24.4453 37.1875 24.4453H64.8125C65.9345 24.4453 66.8438 25.3546 66.8438 26.4766C66.8438 27.5985 65.9345 28.5078 64.8125 28.5078H37.1875C36.0656 28.5078 35.1563 27.5985 35.1563 26.4766ZM66.8438 34.6016C66.8438 33.4796 65.9345 32.5703 64.8125 32.5703H37.1875C36.0656 32.5703 35.1563 33.4796 35.1563 34.6016C35.1563 35.7235 36.0656 36.6328 37.1875 36.6328H64.8125C65.9345 36.6328 66.8438 35.7235 66.8438 34.6016ZM37.1875 40.6953C36.0656 40.6953 35.1563 41.6046 35.1563 42.7266C35.1563 43.8485 36.0656 44.7578 37.1875 44.7578H46.5313C47.6532 44.7578 48.5625 43.8485 48.5625 42.7266C48.5625 41.6046 47.6532 40.6953 46.5313 40.6953H37.1875ZM75.2167 56.599C77.5911 58.9734 77.5911 62.8391 75.2151 65.2151C74.0273 66.4029 72.4666 66.9972 70.9063 66.9972C69.3459 66.9972 67.7852 66.4029 66.5974 65.2151L55.4898 54.0869C55.2422 53.8389 55.0633 53.5315 54.9701 53.1938L52.6988 44.9955C52.5012 44.2813 52.7075 43.5164 53.238 42.9991C53.768 42.4822 54.5376 42.2941 55.2466 42.5096L63.2423 44.9383C63.5624 45.0355 63.8536 45.2101 64.0897 45.4469L75.2167 56.599ZM58.7422 51.5946L66.2086 59.075L69.0817 56.2018L61.5736 48.6771L57.5996 47.4698L58.7422 51.5946ZM72.3424 59.4701L71.9512 59.0777L69.0785 61.9504L69.4713 62.344C70.262 63.1347 71.5505 63.1347 72.3424 62.3424C73.1347 61.5505 73.1347 60.262 72.3424 59.4701ZM68.875 15H33.125C28.6448 15 25 18.6447 25 23.125V58.875C25 63.3553 28.6448 67 33.125 67H58.0078C59.1298 67 60.0391 66.0907 60.0391 64.9688C60.0391 63.8468 59.1298 62.9375 58.0078 62.9375H33.125C30.8851 62.9375 29.0625 61.1149 29.0625 58.875V23.125C29.0625 20.8851 30.8851 19.0625 33.125 19.0625H68.875C71.1149 19.0625 72.9375 20.8851 72.9375 23.125V48.1094C72.9375 49.2313 73.8468 50.1406 74.9688 50.1406C76.0907 50.1406 77 49.2313 77 48.1094V23.125C77 18.6447 73.3553 15 68.875 15Z" fill="url(#paint0_linear_6_30)"/>
</g>
</g>
<defs>
<linearGradient id="paint0_linear_6_30" x1="51" y1="15" x2="51" y2="67" gradientUnits="userSpaceOnUse">
<stop stop-color="#4DDFFF"/>
<stop offset="1" stop-color="#3CA0FF"/>
</linearGradient>
<clipPath id="clip0_6_30">
<rect width="95" height="88" fill="white"/>
</clipPath>
<clipPath id="clip1_6_30">
<rect width="52" height="52" fill="white" transform="translate(25 15)"/>
</clipPath>
</defs>
</svg>
