<svg width="150" height="148" viewBox="0 0 150 148" fill="none" xmlns="http://www.w3.org/2000/svg">
<g filter="url(#filter0_d_341_5)">
<path d="M126.047 94.4838C120.944 72.7792 128.665 55.2086 126.204 44.7477C123.744 34.2868 112.569 13.7478 64.5227 25.1551C16.4759 36.5624 16.3726 67.787 19.0824 79.2914C31.7544 133.159 135.089 132.924 126.047 94.4838Z" fill="#196A96"/>
</g>
<path d="M125.074 94.7127L125.074 94.7128C126.152 99.2941 125.548 103.245 123.692 106.592C121.826 109.958 118.65 112.789 114.461 115.02C106.067 119.488 93.8079 121.432 80.7785 120.506C54.6459 118.647 26.2393 105.348 20.0558 79.0624L20.0558 79.0621C18.7395 73.4738 18.1035 63.0553 23.6511 52.6576C29.1791 42.2965 40.941 31.7817 64.7537 26.128C88.6472 20.4552 103.169 22.7759 111.976 27.6267C120.762 32.4665 124.043 39.9284 125.231 44.9767C125.808 47.4334 125.799 50.3644 125.504 53.7941C125.315 55.9856 125.016 58.3205 124.695 60.8264C124.512 62.2547 124.322 63.7386 124.141 65.2831C123.152 73.734 122.482 83.6904 125.074 94.7127Z" fill="#196A96" stroke="white" stroke-width="2"/>
<g clip-path="url(#clip0_341_5)">
<path d="M58.5039 55.0815C58.5039 53.7007 59.623 52.5815 61.0039 52.5815H95.0039C96.3848 52.5815 97.5039 53.7007 97.5039 55.0815C97.5039 56.4624 96.3848 57.5815 95.0039 57.5815H61.0039C59.623 57.5815 58.5039 56.4624 58.5039 55.0815ZM97.5039 65.0815C97.5039 63.7007 96.3848 62.5815 95.0039 62.5815H61.0039C59.623 62.5815 58.5039 63.7007 58.5039 65.0815C58.5039 66.4624 59.623 67.5815 61.0039 67.5815H95.0039C96.3848 67.5815 97.5039 66.4624 97.5039 65.0815ZM61.0039 72.5815C59.623 72.5815 58.5039 73.7007 58.5039 75.0815C58.5039 76.4624 59.623 77.5815 61.0039 77.5815H72.5039C73.8848 77.5815 75.0039 76.4624 75.0039 75.0815C75.0039 73.7007 73.8848 72.5815 72.5039 72.5815H61.0039ZM107.809 92.1553C110.731 95.0776 110.731 99.8354 107.807 102.76C106.345 104.222 104.424 104.953 102.504 104.953C100.583 104.953 98.6626 104.222 97.2007 102.76L83.5298 89.0635C83.2251 88.7583 83.0049 88.3799 82.8901 87.9644L80.0947 77.874C79.8516 76.9951 80.1055 76.0537 80.7583 75.417C81.4106 74.7808 82.3579 74.5493 83.2305 74.8145L93.0713 77.8037C93.4653 77.9233 93.8237 78.1382 94.1143 78.4297L107.809 92.1553ZM87.5327 85.9961L96.7222 95.2026L100.258 91.6665L91.0176 82.4053L86.1265 80.9194L87.5327 85.9961ZM104.271 95.689L103.79 95.2061L100.254 98.7417L100.738 99.2261C101.711 100.199 103.297 100.199 104.271 99.2241C105.247 98.2495 105.247 96.6636 104.271 95.689ZM100.004 40.9565H56.0039C50.4897 40.9565 46.0039 45.4424 46.0039 50.9565V94.9565C46.0039 100.471 50.4897 104.957 56.0039 104.957H86.6289C88.0098 104.957 89.1289 103.837 89.1289 102.457C89.1289 101.076 88.0098 99.9565 86.6289 99.9565H56.0039C53.2471 99.9565 51.0039 97.7134 51.0039 94.9565V50.9565C51.0039 48.1997 53.2471 45.9565 56.0039 45.9565H100.004C102.761 45.9565 105.004 48.1997 105.004 50.9565V81.7065C105.004 83.0874 106.123 84.2065 107.504 84.2065C108.885 84.2065 110.004 83.0874 110.004 81.7065V50.9565C110.004 45.4424 105.518 40.9565 100.004 40.9565Z" fill="url(#paint0_linear_341_5)"/>
</g>
<defs>
<filter id="filter0_d_341_5" x="0.152344" y="11.8049" width="144.55" height="135.927" filterUnits="userSpaceOnUse" color-interpolation-filters="sRGB">
<feFlood flood-opacity="0" result="BackgroundImageFix"/>
<feColorMatrix in="SourceAlpha" type="matrix" values="0 0 0 0 0 0 0 0 0 0 0 0 0 0 0 0 0 0 127 0" result="hardAlpha"/>
<feOffset dy="8"/>
<feGaussianBlur stdDeviation="9"/>
<feComposite in2="hardAlpha" operator="out"/>
<feColorMatrix type="matrix" values="0 0 0 0 0.0541667 0 0 0 0 0.667067 0 0 0 0 1 0 0 0 0.7 0"/>
<feBlend mode="normal" in2="BackgroundImageFix" result="effect1_dropShadow_341_5"/>
<feBlend mode="normal" in="SourceGraphic" in2="effect1_dropShadow_341_5" result="shape"/>
</filter>
<linearGradient id="paint0_linear_341_5" x1="78.0039" y1="40.9565" x2="78.0039" y2="104.957" gradientUnits="userSpaceOnUse">
<stop stop-color="white"/>
<stop offset="1" stop-color="white"/>
</linearGradient>
<clipPath id="clip0_341_5">
<rect width="64" height="64" fill="white" transform="translate(46.0039 40.9565)"/>
</clipPath>
</defs>
</svg>
