<svg width="670" height="395" viewBox="0 0 670 395" fill="none" xmlns="http://www.w3.org/2000/svg">
<path d="M87.5069 387.162C87.5069 387.162 -70.0215 288.223 37.6339 182.135C145.289 76.0464 289.366 -32.3925 385.941 9.56076C482.517 51.514 473.831 104.558 579.929 181.342C686.026 258.126 661.461 319.091 642.467 349.959C623.472 380.827 620.302 388.769 620.302 388.769L87.5069 387.162Z" fill="#FBFDFF"/>
<path d="M207.834 106.291C231.158 85.5194 248.283 97.9059 261.047 111.757C271.214 122.799 272.635 125.242 281.036 136.683C282.283 138.383 283.223 140.269 283.283 142.374C283.518 155.017 289.99 208.488 282.796 226.936C274.411 248.44 171.02 258.28 171.02 258.28L207.834 106.291Z" fill="#303C60"/>
<path d="M274.045 239.181C273.762 239.188 273.488 239.082 273.283 238.888C273.078 238.693 272.959 238.425 272.952 238.142C272.944 237.859 273.05 237.585 273.244 237.38C273.439 237.175 273.707 237.056 273.99 237.049C277.057 236.896 279.555 235.513 281.643 232.834C293.236 217.813 286.715 167.671 281.036 140.406C280.978 140.129 281.032 139.84 281.187 139.604C281.342 139.367 281.584 139.201 281.861 139.143C282.138 139.085 282.427 139.14 282.664 139.294C282.9 139.449 283.066 139.692 283.124 139.969C284.365 145.921 288.514 167.059 289.804 189.072C291.132 211.68 288.956 226.843 283.326 234.135C280.888 237.295 277.789 238.995 274.11 239.181H274.056H274.045Z" fill="#303C60"/>
<path d="M216.579 100.092C171.757 124.876 199.087 208.712 142.24 238.596C126.486 246.877 78.0892 288.885 109.804 344.296C130.548 380.537 192.539 372.72 212.949 340.65C233.36 308.58 216.579 100.092 216.579 100.092Z" fill="#303C60"/>
<path d="M97.2694 290.705H97.1272C96.8507 290.661 96.6018 290.511 96.432 290.289C96.2621 290.066 96.1842 289.787 96.2144 289.508C96.2526 289.213 97.2311 282.156 101.681 272.803C107.614 260.414 116.91 249.941 128.508 242.58C154.817 225.837 172.281 210.062 192.927 132.278C192.999 132.004 193.177 131.771 193.422 131.629C193.666 131.487 193.957 131.448 194.23 131.521C194.504 131.593 194.737 131.771 194.879 132.016C195.021 132.26 195.06 132.551 194.987 132.824C185.012 170.41 175.118 195.817 163.83 212.784C153.374 228.543 142.611 236.114 129.629 244.373C102.298 261.767 98.3188 289.503 98.2806 289.781C98.2425 290.027 98.1214 290.253 97.9376 290.421C97.7537 290.589 97.5179 290.689 97.2694 290.705Z" fill="#303C60"/>
<path d="M98.2532 268.982C98.0618 268.983 97.8736 268.932 97.7086 268.835C97.5436 268.738 97.4078 268.598 97.3156 268.43C97.2233 268.262 97.1779 268.073 97.1842 267.881C97.1905 267.69 97.2482 267.504 97.3513 267.343C103.621 257.284 112.017 248.721 121.949 242.253C158.894 218.36 165.011 204.623 195.523 125.942C195.568 125.804 195.641 125.677 195.736 125.569C195.832 125.46 195.949 125.372 196.08 125.31C196.211 125.248 196.353 125.214 196.498 125.208C196.643 125.203 196.787 125.227 196.922 125.28C197.057 125.332 197.18 125.412 197.283 125.513C197.387 125.615 197.468 125.736 197.523 125.871C197.578 126.005 197.605 126.149 197.602 126.293C197.599 126.438 197.567 126.581 197.507 126.713C182.251 166.07 173.134 189.099 163.158 205.427C152.444 222.973 140.359 232.867 123.102 244.029C113.426 250.328 105.247 258.67 99.1388 268.469C99.0443 268.62 98.9142 268.746 98.7598 268.836C98.6055 268.925 98.4316 268.976 98.2532 268.982Z" fill="#303C60"/>
<path d="M215.032 152.41C199.596 184.469 201.974 213.56 201.974 213.56C201.974 213.56 203.756 224.843 210.878 227.226C218 229.609 228.096 222.476 227.5 212.975C226.905 203.475 229.873 180.326 233.437 172.012C237.001 163.697 215.032 152.41 215.032 152.41Z" fill="#F09959"/>
<path d="M133.478 375.164C134.451 383.91 132.264 383.183 140.037 384.642C147.81 386.102 161.661 380.756 161.661 380.756L146.11 351.839L133.478 375.164Z" fill="#6791C9"/>
<path d="M203.86 196.342C199.487 210.554 166.69 199.621 155.211 202.901C143.732 206.181 133.893 254.284 132.253 297.467C130.614 340.65 132.8 375.087 137.173 380.553C141.546 386.02 213.699 388.206 220.258 386.02C226.818 383.833 165.597 356.502 165.597 356.502C165.597 356.502 161.771 306.213 166.69 280.522C171.61 254.83 215.885 220.94 215.885 220.94L203.86 196.342Z" fill="#F09959"/>
<path d="M219.165 200.715C230.644 218.207 260.707 216.02 271.093 230.232C281.479 244.444 303.343 322.611 303.343 322.611L326.301 243.351C326.301 243.351 344.924 240.224 338.873 253.19C328.116 276.258 324.114 350.67 312.444 361.241C299.473 372.994 286.568 363.428 279.281 342.847C272.235 322.939 254.684 279.986 242.111 263.587C229.539 247.188 215.874 220.951 215.874 220.951L219.165 200.715Z" fill="#F09959"/>
<path d="M169.389 202.901C192.347 229.686 237.169 228.592 247.008 225.313L256.847 222.033C256.847 222.033 264.5 219.3 271.059 226.953C277.619 234.605 293.47 282.708 296.203 293.64C298.937 304.573 303.309 322.611 303.309 322.611C303.309 322.611 291.579 336.687 291.579 350.905C291.579 365.122 296.559 365.243 296.559 365.243C296.559 365.243 281.986 361.963 278.706 353.217C275.427 344.471 245.91 265.211 245.91 265.211L164.464 266.851L165.557 356.497C165.557 356.497 158.452 349.937 148.612 356.497C138.773 363.056 135.494 378.361 137.134 380.548C138.773 382.734 133.854 382.734 133.854 381.095C133.854 379.455 124.561 339.551 131.121 273.957C137.68 208.362 150.252 201.256 157.358 200.709C161.493 200.345 165.649 201.102 169.389 202.901Z" fill="#75A1DE"/>
<path d="M293.247 364.127C293.326 364.158 293.409 364.176 293.493 364.182L293.247 364.127Z" fill="#6791C9"/>
<path d="M296.401 324.596C291.662 326.055 283.643 342.82 283.643 342.82C283.643 342.82 265.419 303.092 259.953 248.052L253.448 285.392C262.429 309.503 276.521 347.335 278.729 353.222C281.73 361.225 293.832 364.565 295.488 364.931C295.034 364.778 294.034 364.171 293.203 361.771C292.728 361.334 289.989 360.055 289.475 359.585C285.103 355.578 286.923 346.1 289.842 335.534C292.761 324.967 301.157 323.164 296.401 324.596Z" fill="#6791C9"/>
<path d="M168.39 266.79L159.354 225.482C149.515 239.334 148.422 286.704 152.428 319.157C155.708 345.761 160.628 352.665 164.017 355.436C164.566 355.75 165.084 356.116 165.564 356.529L164.47 266.883L168.39 266.79Z" fill="#6791C9"/>
<path d="M142.223 225.11C158.987 270.305 150.608 279.417 172.669 332.467C184.99 362.094 208.745 384.396 208.745 384.396C208.745 384.396 227.877 389.316 251.928 387.676C275.979 386.036 293.591 384.396 293.591 384.396C293.591 384.396 268.326 369.091 267.233 358.705C266.14 348.319 261.395 307.115 267.588 277.958C272.426 255.186 252.469 232.419 252.469 232.419L219.126 230.779L142.223 225.11Z" fill="#75A1DE"/>
<path opacity="0.5" d="M171.751 294.367C168.833 283.796 184.143 297.647 209.293 300.2C234.442 302.753 262.506 298.74 248.649 303.113C234.792 307.486 196.89 300.927 203.827 314.778C211.977 331.079 221.603 346.854 235.53 356.322C244.642 362.52 266.512 368.347 245.369 365.068C224.226 361.788 201.64 337.004 191.801 320.966C181.962 304.928 172.402 296.718 171.751 294.367Z" fill="#6791C9"/>
<path d="M227.435 208.805C227.659 197.872 230.316 179.287 233.448 172.001C236.001 166.048 225.451 158.57 219.236 154.804L213.999 154.58C213.201 156.318 212.454 158.045 211.758 159.762C206.232 196.046 222.773 211.04 230.66 214.058C234.066 215.359 237.881 215.506 241.144 215.211C236.285 213.478 231.54 211.51 227.435 208.805Z" fill="#E38540"/>
<path d="M217.426 224.935C215.465 224.933 213.51 224.696 211.605 224.23C207.046 223.137 196.163 218.89 193.632 203.71C193.619 203.632 193.622 203.552 193.64 203.475C193.658 203.397 193.691 203.324 193.737 203.26C193.783 203.195 193.842 203.141 193.909 203.099C193.976 203.057 194.051 203.029 194.129 203.016C194.208 203.003 194.288 203.006 194.365 203.024C194.442 203.042 194.515 203.075 194.58 203.121C194.644 203.167 194.699 203.225 194.741 203.293C194.783 203.36 194.811 203.435 194.824 203.513C197.234 217.988 207.565 222.006 211.894 223.061C218.618 224.7 225.757 223.181 228.495 219.529C230.682 216.599 229.375 210.363 229.359 210.302C229.342 210.225 229.34 210.145 229.355 210.067C229.369 209.989 229.398 209.914 229.441 209.847C229.484 209.781 229.539 209.723 229.604 209.678C229.67 209.632 229.743 209.6 229.821 209.584C229.898 209.567 229.978 209.565 230.056 209.579C230.134 209.593 230.209 209.623 230.276 209.666C230.342 209.709 230.4 209.764 230.445 209.829C230.491 209.894 230.523 209.968 230.539 210.045C230.6 210.324 231.988 216.884 229.446 220.256C227.216 223.241 222.597 224.935 217.426 224.935Z" fill="#F5CE5C"/>
<path d="M268.868 166.671C265.162 186.256 256.596 202.054 242.084 199.075C227.571 196.096 212.353 175.411 216.365 155.892C220.378 136.372 235.377 122.958 249.873 125.931C264.369 128.905 273.825 140.581 268.868 166.671Z" fill="#F09959"/>
<path d="M320.457 263.374C320.457 263.374 293.673 335.359 292.394 342.831C291.115 350.303 293.668 355.043 294.4 355.043C295.133 355.043 317.904 316.041 317.904 316.041L320.457 263.374Z" fill="#F09959"/>
<path d="M321.55 260.225C323.737 252.933 320.337 243.701 320.337 243.701L330.056 244.915L321.55 260.225Z" fill="#F09959"/>
<path d="M332.232 247.795H305.109C304.725 247.795 304.347 247.705 304.005 247.533C303.662 247.361 303.365 247.112 303.136 246.804C302.907 246.497 302.753 246.14 302.687 245.763C302.62 245.385 302.643 244.997 302.753 244.63L319.873 187.235C320.024 186.728 320.335 186.283 320.76 185.967C321.184 185.651 321.699 185.48 322.229 185.48H349.351C349.735 185.48 350.113 185.57 350.455 185.742C350.797 185.914 351.095 186.164 351.324 186.471C351.553 186.779 351.707 187.135 351.773 187.513C351.84 187.89 351.817 188.278 351.707 188.645L334.587 246.041C334.436 246.548 334.125 246.992 333.7 247.308C333.276 247.624 332.761 247.795 332.232 247.795Z" fill="#4381DB"/>
<path d="M335.631 247.795H308.514C308.131 247.795 307.753 247.705 307.41 247.533C307.068 247.361 306.77 247.112 306.541 246.804C306.312 246.497 306.159 246.14 306.092 245.763C306.026 245.385 306.048 244.997 306.158 244.63L323.278 187.235C323.43 186.728 323.741 186.283 324.165 185.967C324.59 185.651 325.105 185.48 325.634 185.48H352.751C353.134 185.48 353.512 185.57 353.855 185.742C354.197 185.914 354.495 186.164 354.724 186.471C354.953 186.779 355.106 187.135 355.173 187.513C355.24 187.89 355.217 188.278 355.107 188.645L337.987 246.041C337.835 246.548 337.524 246.992 337.1 247.308C336.676 247.624 336.161 247.795 335.631 247.795Z" fill="#2E5B9A"/>
<path d="M317.84 206.745C320.733 196.329 322.679 187.774 322.188 187.637C321.696 187.501 318.952 195.835 316.06 206.251C313.167 216.668 311.221 225.223 311.712 225.359C312.204 225.496 314.947 217.162 317.84 206.745Z" fill="#9CBEED"/>
<path d="M334.429 264.844C335.233 255.377 343.432 246.505 346.548 243.674C347.016 243.249 347.389 242.73 347.643 242.15C347.896 241.571 348.024 240.944 348.018 240.312C347.974 235.595 347.761 224.46 346.788 223.154C345.547 221.514 342.415 200.195 340.989 200.999C339.562 201.802 341.404 220.464 341.404 220.464C341.404 220.464 337.884 218.824 336.02 217.982C334.156 217.141 326.492 225.635 326.492 225.635C326.492 225.635 322.901 234.709 332.724 230.823C344.388 226.204 335.637 239.082 327.864 247.347C321.458 254.153 326.908 255.661 326.908 255.661L332.084 255.453L334.429 264.844Z" fill="#F09959"/>
<path d="M331.493 272.289C330.54 272.285 329.593 272.137 328.684 271.852C326.164 271.065 321.758 268.529 320.594 260.373C320.583 260.294 320.587 260.214 320.607 260.138C320.627 260.061 320.661 259.988 320.709 259.925C320.757 259.862 320.817 259.808 320.885 259.768C320.953 259.727 321.029 259.701 321.108 259.69C321.186 259.679 321.266 259.683 321.343 259.703C321.42 259.723 321.492 259.757 321.556 259.805C321.619 259.853 321.673 259.913 321.713 259.981C321.753 260.049 321.78 260.125 321.791 260.204C322.786 267.179 326.164 269.726 328.831 270.633C331.018 271.377 332.805 271.032 333.259 270.781C333.279 270.65 333.341 270.53 333.436 270.438C333.531 270.346 333.653 270.288 333.785 270.272C333.916 270.256 334.048 270.283 334.163 270.349C334.277 270.415 334.367 270.517 334.418 270.639C334.477 270.792 334.49 270.96 334.456 271.121C334.422 271.282 334.342 271.429 334.226 271.546C333.8 272 332.772 272.289 331.493 272.289Z" fill="#F5CE5C"/>
<path d="M330.477 269.933C329.66 269.933 328.843 269.875 328.034 269.758C323.35 269.075 320.206 266.697 319.419 263.232C319.384 263.076 319.412 262.912 319.497 262.777C319.582 262.642 319.717 262.546 319.873 262.51C320.029 262.475 320.192 262.503 320.328 262.588C320.463 262.673 320.559 262.808 320.595 262.964C321.349 266.244 324.355 267.676 326.744 268.272C330.095 269.108 333.238 268.594 333.615 268.157C333.654 268.088 333.706 268.027 333.768 267.978C333.83 267.93 333.902 267.894 333.978 267.873C334.054 267.852 334.134 267.847 334.213 267.857C334.291 267.867 334.366 267.893 334.435 267.933C334.574 268.014 334.676 268.147 334.718 268.302C334.76 268.458 334.739 268.623 334.659 268.764C334.205 269.584 332.445 269.933 330.477 269.933Z" fill="#F5CE5C"/>
<path d="M252.235 176.866C251.937 176.866 251.639 176.844 251.344 176.8C246.747 176.095 243.965 170.164 245.02 163.293C245.421 160.3 246.654 157.48 248.578 155.154C250.502 152.967 252.815 151.945 255.099 152.295C259.696 153 262.479 158.931 261.424 165.802C260.434 172.225 256.504 176.866 252.235 176.866ZM254.225 154.356C252.853 154.356 251.437 155.121 250.18 156.542C248.522 158.563 247.464 161.007 247.124 163.599C246.283 169.098 248.36 174.171 251.667 174.679C254.974 175.187 258.472 170.967 259.319 165.468C260.167 159.969 258.084 154.897 254.777 154.388C254.592 154.363 254.406 154.352 254.219 154.356H254.225Z" fill="white"/>
<path d="M267.397 176.893C267.251 176.893 267.104 176.882 266.96 176.86C263.948 176.401 262.313 171.295 263.243 165.244C264.172 159.193 267.26 154.804 270.267 155.274C271.819 155.509 273.038 156.914 273.705 159.275C274.326 161.766 274.421 164.36 273.984 166.89C273.098 172.635 270.261 176.893 267.397 176.893ZM269.818 156.854C268.042 156.854 265.631 160.27 264.833 165.49C264.002 170.913 265.418 174.996 267.206 175.269C268.993 175.543 271.578 172.072 272.393 166.649C272.796 164.347 272.716 161.987 272.158 159.718C271.682 158.045 270.901 156.985 270.026 156.87L269.818 156.854Z" fill="white"/>
<path d="M247.194 158.75C247.094 158.749 246.995 158.735 246.899 158.707L211.178 148.501C210.909 148.421 210.683 148.238 210.549 147.992C210.414 147.746 210.382 147.457 210.459 147.188C210.536 146.918 210.716 146.69 210.96 146.552C211.204 146.414 211.492 146.378 211.763 146.451L247.484 156.657C247.733 156.726 247.949 156.882 248.091 157.098C248.233 157.314 248.292 157.575 248.257 157.831C248.221 158.087 248.094 158.321 247.899 158.491C247.703 158.66 247.453 158.752 247.194 158.75Z" fill="white"/>
<path d="M272.732 136.558C217.453 169.12 214.414 147.25 214.414 147.25L217.694 116.147L250.491 117.967L272.732 136.558Z" fill="#303C60"/>
<path d="M214.727 165.938C218.178 165.131 219.934 160.016 218.648 154.513C217.362 149.01 213.522 145.202 210.071 146.009C206.62 146.815 204.865 151.93 206.15 157.433C207.436 162.936 211.276 166.744 214.727 165.938Z" fill="#F09959"/>
<path d="M212.703 163.867C213.904 163.867 214.878 162.893 214.878 161.691C214.878 160.49 213.904 159.516 212.703 159.516C211.501 159.516 210.527 160.49 210.527 161.691C210.527 162.893 211.501 163.867 212.703 163.867Z" fill="#F5CE5C"/>
<path d="M641.341 394.317H88.3708C87.7054 394.317 87.0465 394.186 86.4317 393.932C85.817 393.677 85.2584 393.304 84.7879 392.833C84.3174 392.363 83.9441 391.804 83.6894 391.189C83.4348 390.575 83.3037 389.916 83.3037 389.25C83.3037 388.585 83.4348 387.926 83.6894 387.311C83.9441 386.696 84.3174 386.138 84.7879 385.667C85.2584 385.197 85.817 384.823 86.4317 384.569C87.0465 384.314 87.7054 384.183 88.3708 384.183H641.341C642.007 384.183 642.665 384.314 643.28 384.569C643.895 384.823 644.453 385.197 644.924 385.667C645.395 386.138 645.768 386.696 646.022 387.311C646.277 387.926 646.408 388.585 646.408 389.25C646.408 389.916 646.277 390.575 646.022 391.189C645.768 391.804 645.395 392.363 644.924 392.833C644.453 393.304 643.895 393.677 643.28 393.932C642.665 394.186 642.007 394.317 641.341 394.317Z" fill="#2E5B9A"/>
<path d="M219.443 383.205C219.443 383.205 198.595 383.467 198.333 385.315C198.071 387.162 199.126 387.955 206.532 389.272C213.939 390.589 297.04 391.12 297.817 390.589C298.593 390.059 322.884 384.254 322.884 384.254L264.572 383.199H219.449L219.443 383.205Z" fill="#DBE5EB"/>
<path d="M230.797 369.331C230.797 369.331 245.741 362.772 250.114 365.685C254.487 368.599 267.125 381.969 267.125 381.969L230.797 369.331Z" fill="#F09959"/>
<path d="M266.299 383.155C266.208 383.315 266.062 383.437 265.888 383.497C265.714 383.557 265.524 383.553 265.354 383.483L234.607 360.591C232.967 359.355 232.163 357.47 232.967 356.475C233.77 355.48 235.777 355.835 237.34 357.18L266.42 382.161C266.524 382.313 266.569 382.498 266.547 382.681C266.525 382.864 266.437 383.032 266.299 383.155Z" fill="#2E5B9A"/>
<path d="M185.597 366.538C185.597 366.538 210.381 376.377 213.3 376.377C216.219 376.377 232.497 365.445 237.963 366.899C243.429 368.353 270.158 381.844 269.431 382.937C268.704 384.03 261.046 386.583 238.449 385.85C215.853 385.118 179.038 381.844 179.038 381.844L185.597 366.538Z" fill="#F09959"/>
<path d="M394.731 363.226H495.751C496.647 363.226 497.534 363.402 498.361 363.745C499.189 364.088 499.941 364.59 500.574 365.224C501.208 365.857 501.71 366.609 502.053 367.437C502.396 368.264 502.572 369.152 502.572 370.047V377.782C502.57 379.589 501.85 381.322 500.571 382.599C499.292 383.876 497.558 384.593 495.751 384.593H394.731C394.006 384.593 393.311 384.305 392.799 383.792C392.286 383.28 391.998 382.585 391.998 381.86V365.948C391.998 365.223 392.286 364.528 392.799 364.015C393.311 363.503 394.006 363.215 394.731 363.215V363.226Z" fill="#F37168"/>
<path d="M487.94 366.844H392.026C391.317 367.995 390.938 369.319 390.933 370.671V377.203C390.938 378.554 391.317 379.878 392.026 381.029H487.94C489.581 381.025 491.154 380.371 492.315 379.21C493.475 378.05 494.129 376.477 494.133 374.836V373.081C494.137 372.265 493.979 371.456 493.67 370.7C493.361 369.945 492.905 369.258 492.33 368.678C491.755 368.099 491.071 367.639 490.318 367.324C489.564 367.009 488.756 366.846 487.94 366.844Z" fill="#F2E5DE"/>
<path d="M415.547 350.298H492.368C493.588 350.298 494.759 350.783 495.622 351.646C496.485 352.509 496.97 353.68 496.97 354.9V358.623C496.97 359.844 496.485 361.014 495.622 361.877C494.759 362.741 493.588 363.225 492.368 363.225H415.547C415.059 363.225 414.592 363.032 414.248 362.688C413.903 362.343 413.71 361.876 413.71 361.389V352.134C413.71 351.647 413.903 351.18 414.248 350.836C414.592 350.491 415.059 350.298 415.547 350.298Z" fill="#7BCEE8"/>
<path d="M485.95 352.473H413.726C413.215 353.132 412.933 353.94 412.923 354.775V358.727C412.933 359.561 413.215 360.369 413.726 361.028H485.956C488.519 361.028 490.618 359.344 490.618 357.284V356.223C490.613 354.173 488.519 352.473 485.95 352.473Z" fill="#F2E5DE"/>
<path d="M505.508 88.8593H423.598C420.985 88.8593 419.624 86.722 420.575 84.1092L432.961 50.071C433.912 47.4581 436.826 45.3208 439.438 45.3208H521.37C523.983 45.3208 525.344 47.4581 524.393 50.071L511.985 84.0818C511.056 86.722 508.121 88.8593 505.508 88.8593Z" fill="#9EC8FF"/>
<path d="M502.731 85.2953H428.938C426.675 85.2953 425.5 83.4422 426.32 81.1792L436.58 52.9899C437.405 50.7269 439.93 48.8738 442.188 48.8738H515.981C518.244 48.8738 519.419 50.7269 518.599 52.9899L508.323 81.1792C507.519 83.4422 504.994 85.2953 502.731 85.2953Z" fill="white"/>
<path d="M456.095 86.8805C449.3 104.826 438.838 110.385 438.838 110.385C438.838 110.385 446.277 100.092 445.201 95.0798C444.884 93.6137 444.272 92.2274 443.401 91.0056C442.531 89.7839 441.421 88.7523 440.139 87.9737L456.095 86.8805Z" fill="#9EC8FF"/>
<path d="M508.656 58.9098H461.1C460.93 58.9195 460.76 58.8835 460.607 58.8055C460.455 58.7276 460.327 58.6104 460.235 58.4662C460.143 58.322 460.091 58.1559 460.085 57.9851C460.078 57.8142 460.118 57.6447 460.198 57.4941V57.4285C460.355 57.0342 460.62 56.6922 460.962 56.4417C461.304 56.1912 461.71 56.0426 462.134 56.0128H509.689C509.86 56.0031 510.03 56.0391 510.182 56.1171C510.334 56.195 510.463 56.3122 510.555 56.4564C510.647 56.6006 510.698 56.7667 510.705 56.9375C510.711 57.1084 510.672 57.2779 510.591 57.4285V57.4941C510.434 57.8884 510.17 58.2304 509.827 58.4809C509.485 58.7314 509.079 58.88 508.656 58.9098Z" fill="#9EC8FF"/>
<path d="M506.448 64.9501H458.892C458.722 64.9597 458.552 64.9237 458.399 64.8458C458.247 64.7678 458.119 64.6507 458.027 64.5065C457.935 64.3623 457.883 64.1962 457.877 64.0253C457.87 63.8544 457.91 63.685 457.99 63.5343V63.4687C458.147 63.0745 458.412 62.7324 458.754 62.4819C459.096 62.2314 459.502 62.0827 459.926 62.0529H507.481C507.652 62.0433 507.822 62.0793 507.974 62.1573C508.126 62.2353 508.255 62.3524 508.347 62.4966C508.439 62.6408 508.49 62.8069 508.497 62.9778C508.503 63.1486 508.464 63.3181 508.383 63.4687V63.5343C508.226 63.9286 507.962 64.2706 507.619 64.5211C507.277 64.7715 506.871 64.9203 506.448 64.9501Z" fill="#9EC8FF"/>
<path d="M503.95 71.8374H456.394C456.224 71.8471 456.053 71.8111 455.901 71.7331C455.749 71.6552 455.62 71.538 455.529 71.3938C455.437 71.2496 455.385 71.0835 455.379 70.9127C455.372 70.7418 455.412 70.5723 455.493 70.4217V70.3561C455.649 69.9618 455.914 69.6198 456.256 69.3693C456.598 69.1188 457.004 68.9702 457.427 68.9404H504.983C505.153 68.9307 505.324 68.9667 505.476 69.0447C505.628 69.1226 505.757 69.2398 505.849 69.384C505.94 69.5282 505.992 69.6943 505.999 69.8651C506.005 70.036 505.966 70.2055 505.885 70.3561V70.4217C505.728 70.816 505.464 71.1581 505.121 71.4085C504.779 71.659 504.373 71.8076 503.95 71.8374Z" fill="#9EC8FF"/>
<path d="M453.661 63.7912C451.781 68.9622 446.829 73.1603 442.598 73.1603C438.367 73.1603 436.47 68.9677 438.356 63.7912C440.242 58.6147 445.194 54.4221 449.42 54.4221C453.645 54.4221 455.558 58.6147 453.661 63.7912Z" fill="#9EC8FF"/>
<path d="M458.936 177.385H454.874C454.016 177.385 453.573 176.69 453.885 175.832L455.104 172.487C455.273 172.055 455.562 171.679 455.937 171.404C456.311 171.13 456.756 170.967 457.219 170.935H461.281C462.139 170.935 462.582 171.629 462.27 172.487L461.051 175.832C460.881 176.265 460.593 176.64 460.218 176.915C459.844 177.19 459.399 177.353 458.936 177.385Z" fill="#9EC8FF"/>
<path d="M471.968 177.385H467.907C467.048 177.385 466.606 176.69 466.917 175.832L468.136 172.487C468.306 172.055 468.594 171.679 468.969 171.404C469.343 171.13 469.788 170.967 470.251 170.935H474.313C475.171 170.935 475.614 171.629 475.302 172.487L474.083 175.832C473.914 176.265 473.625 176.64 473.25 176.915C472.876 177.19 472.431 177.353 471.968 177.385Z" fill="#9EC8FF"/>
<path d="M484.993 177.385H480.932C480.074 177.385 479.631 176.69 479.943 175.832L481.161 172.487C481.331 172.055 481.62 171.679 481.994 171.404C482.369 171.13 482.813 170.967 483.277 170.935H487.338C488.196 170.935 488.639 171.629 488.328 172.487L487.109 175.832C486.939 176.265 486.65 176.64 486.276 176.915C485.901 177.19 485.457 177.353 484.993 177.385Z" fill="#9EC8FF"/>
<path d="M407.315 151.661H325.383C322.77 151.661 321.409 149.523 322.36 146.911L334.746 112.872C335.697 110.26 338.611 108.122 341.224 108.122H423.161C425.774 108.122 427.135 110.26 426.184 112.872L413.797 146.911C412.846 149.523 409.933 151.661 407.315 151.661Z" fill="#9EC8FF"/>
<path d="M404.537 148.097H330.745C328.482 148.097 327.307 146.244 328.126 143.981L338.386 115.791C339.212 113.528 341.737 111.675 344 111.675H417.793C420.056 111.675 421.231 113.528 420.411 115.791L410.151 143.981C409.326 146.244 406.8 148.097 404.537 148.097Z" fill="white"/>
<path d="M329.537 149.677C323.272 167.622 329.695 173.181 329.695 173.181C329.695 173.181 329.744 162.888 334.472 157.876C337.37 154.838 340.855 152.42 344.716 150.77L329.537 149.677Z" fill="#9EC8FF"/>
<path d="M384.515 124.084H344.382C344.225 124.093 344.068 124.06 343.927 123.988C343.786 123.916 343.667 123.808 343.583 123.675C343.498 123.542 343.45 123.388 343.445 123.23C343.439 123.073 343.476 122.916 343.552 122.777L343.655 122.488C343.799 122.124 344.042 121.808 344.358 121.577C344.673 121.346 345.047 121.209 345.437 121.181H385.57C385.727 121.172 385.885 121.205 386.025 121.277C386.166 121.348 386.285 121.457 386.37 121.59C386.454 121.723 386.502 121.877 386.507 122.034C386.513 122.192 386.476 122.349 386.401 122.488L386.297 122.777C386.153 123.141 385.91 123.457 385.595 123.688C385.279 123.919 384.905 124.056 384.515 124.084Z" fill="#9EC8FF"/>
<path d="M382.306 130.151H342.152C341.994 130.161 341.837 130.128 341.696 130.056C341.556 129.984 341.437 129.876 341.352 129.742C341.267 129.609 341.22 129.456 341.214 129.298C341.209 129.14 341.246 128.984 341.321 128.845L341.425 128.555C341.574 128.189 341.825 127.873 342.147 127.645C342.47 127.416 342.851 127.285 343.245 127.265H383.377C383.535 127.256 383.692 127.289 383.833 127.36C383.974 127.432 384.093 127.54 384.177 127.674C384.262 127.807 384.31 127.961 384.315 128.118C384.321 128.276 384.284 128.433 384.208 128.571L384.105 128.861C383.957 129.224 383.71 129.538 383.392 129.766C383.074 129.995 382.697 130.128 382.306 130.151Z" fill="#9EC8FF"/>
<path d="M379.809 137.011H339.676C339.519 137.021 339.361 136.988 339.221 136.916C339.08 136.844 338.961 136.736 338.877 136.603C338.792 136.469 338.744 136.316 338.739 136.158C338.733 136 338.77 135.844 338.846 135.705L338.949 135.415C339.093 135.052 339.337 134.736 339.652 134.505C339.967 134.274 340.342 134.137 340.731 134.109H380.864C381.021 134.099 381.179 134.132 381.319 134.204C381.46 134.276 381.579 134.384 381.664 134.518C381.748 134.651 381.796 134.804 381.801 134.962C381.807 135.12 381.77 135.276 381.695 135.415L381.591 135.705C381.447 136.069 381.204 136.384 380.888 136.615C380.573 136.847 380.199 136.984 379.809 137.011Z" fill="#9EC8FF"/>
<path d="M481.949 190.181H402.871C401.455 190.181 400.717 189.591 401.231 188.875L401.439 188.585C401.952 187.864 403.532 187.279 404.948 187.279H484.026C485.442 187.279 486.18 187.864 485.666 188.585L485.458 188.875C484.945 189.58 483.365 190.181 481.949 190.181Z" fill="#9EC8FF"/>
<path d="M477.598 200.212H398.519C397.103 200.212 396.366 199.621 396.879 198.905L397.087 198.616C397.601 197.9 399.18 197.309 400.596 197.309H479.675C481.091 197.309 481.828 197.9 481.315 198.616L481.107 198.905C480.593 199.621 479.013 200.212 477.598 200.212Z" fill="#9EC8FF"/>
<path d="M398.453 139.389H392.648C390.035 139.389 388.675 137.252 389.626 134.639L393.949 122.766C394.9 120.153 397.814 118.016 400.427 118.016H406.232C408.845 118.016 410.206 120.153 409.254 122.766L404.931 134.639C403.985 137.252 401.066 139.389 398.453 139.389Z" fill="#9EC8FF"/>
<path d="M600.973 368.872C611.512 311.045 609.205 290.361 580.978 243.149C552.751 195.937 550.056 108.133 539.436 133.874C528.815 159.614 530.187 224.345 563.53 255.721C596.874 287.097 601.367 301.173 603.346 313.953C605.324 326.733 598.585 366.008 598.585 366.008L600.973 368.872Z" fill="#9CD499"/>
<path d="M606.254 331.603C606.254 331.379 606.287 331.161 606.304 330.942C605.686 326.197 602.335 301.796 597.7 292.17C592.556 281.484 569.992 262.882 563.662 239.525C557.333 216.168 547.291 198.069 540.705 183.321C532.008 163.845 536.763 137.952 543.951 129.539C543.784 129.429 543.599 129.347 543.405 129.298L541.016 130.742C540.361 131.729 539.812 132.782 539.376 133.885C528.777 159.647 530.188 224.345 563.531 255.721C596.875 287.097 601.368 301.173 603.347 313.953C603.893 317.402 603.778 322.775 603.347 328.788L606.254 331.603Z" fill="#74B570"/>
<path d="M586.57 358.667C594.409 290.711 591.796 267.189 576.638 212.822C561.481 158.455 660.27 34.5742 657.138 56.0018C654.006 77.4294 643.549 130.752 616.366 164.233C589.183 197.714 587.095 224.87 592.315 253.622C597.535 282.375 591.271 349.281 591.271 349.281L588.134 361.307L586.57 358.667Z" fill="#9CD499"/>
<path d="M590.178 330.428C590.091 330.425 590.007 330.404 589.929 330.368C589.85 330.332 589.78 330.28 589.722 330.217C589.663 330.153 589.618 330.079 589.588 329.998C589.559 329.917 589.545 329.831 589.549 329.745C589.549 329.537 590.336 308.585 589.943 291.394C589.549 274.203 584.886 244.69 582.049 234.545C579.464 225.318 576.217 194.385 591.987 162.435C599.842 146.522 606.111 136.459 614.792 122.531C623.368 108.767 634.043 91.6416 650.977 61.468C651.068 61.3279 651.208 61.2276 651.37 61.1874C651.532 61.1472 651.703 61.1702 651.849 61.2516C651.994 61.3331 652.103 61.4669 652.154 61.626C652.204 61.785 652.192 61.9572 652.12 62.1076C635.175 92.3085 624.489 109.451 615.901 123.225C607.243 137.121 600.99 147.157 593.162 163.009C577.573 194.587 580.765 225.094 583.323 234.184C586.176 244.379 590.872 274.039 591.265 291.345C591.659 308.651 590.877 329.57 590.872 329.778C590.871 329.867 590.852 329.955 590.817 330.036C590.781 330.118 590.729 330.191 590.664 330.252C590.599 330.313 590.523 330.36 590.439 330.39C590.355 330.42 590.266 330.433 590.178 330.428Z" fill="#74B570"/>
<path d="M589.184 383.084C593.89 337.605 594.65 360.033 575.136 298.243C552.774 227.521 632.568 164.736 645.649 190.351C658.729 215.965 673.876 296.466 668.125 293.854C662.375 291.241 624.205 216.485 623.161 219.644C622.117 222.804 571.413 248.916 573.501 275.574C575.589 302.233 594.934 344.575 594.934 344.575L594.387 383.625L589.184 383.084Z" fill="#9CD499"/>
<path d="M594.409 383.084H594.343L589.117 382.538C589.032 382.529 588.948 382.503 588.872 382.462C588.797 382.421 588.73 382.365 588.675 382.298C588.621 382.231 588.58 382.154 588.556 382.071C588.531 381.989 588.523 381.902 588.533 381.816C589.079 376.563 589.577 372.135 589.981 368.582C592.167 349.276 592.167 349.276 586.155 332.735C583.422 325.263 579.738 315.024 574.49 298.429C570.572 286.086 569.541 273.008 571.478 260.203C573.296 248.431 577.245 237.089 583.132 226.734C593.479 208.236 609.768 192.351 624.625 186.284C634.951 182.053 642.817 183.43 646.2 190.066C651.748 200.939 658.379 223.203 663.943 249.615C667.152 264.861 671.869 291.41 669.191 294.214C669.021 294.398 668.796 294.522 668.549 294.568C668.303 294.613 668.049 294.577 667.824 294.466C664.687 293.039 654.301 274.711 639.947 248.976C632.765 236.07 625.347 222.738 623.346 220.459C622.537 221.355 620.504 222.76 616.284 225.619C602.072 235.25 572.555 255.3 574.113 275.52C576.168 301.758 595.294 343.875 595.485 344.301C595.526 344.389 595.546 344.484 595.546 344.58L594.999 382.445C594.996 382.605 594.934 382.759 594.825 382.876C594.716 382.994 594.568 383.068 594.409 383.084ZM589.899 381.319L593.758 381.707L594.267 344.706C593.059 342.038 574.856 301.342 572.839 275.618C571.199 254.639 601.176 234.299 615.579 224.531C619.001 222.208 622.237 220.016 622.532 219.409C622.575 219.263 622.66 219.133 622.776 219.036C622.893 218.938 623.037 218.878 623.188 218.862C624.456 218.742 626.959 222.875 641.122 248.309C651.284 266.561 665.173 291.492 668.305 293.209C668.546 292.815 669.256 290.672 667.873 279.636C666.873 271.655 665.042 261.155 662.708 250.069C657.16 223.667 650.557 201.447 645.036 190.635C641.997 184.682 634.743 183.529 625.128 187.47C599.071 198.151 559.152 245.532 575.747 298.03C580.984 314.598 584.69 324.814 587.396 332.281C593.49 349.112 593.49 349.112 591.271 368.724C590.861 372.321 590.418 376.355 589.905 381.302L589.899 381.319Z" fill="#74B570"/>
<path d="M605.62 384.965H581.897C580.257 384.965 578.809 384.035 578.656 382.882L570.681 322.956C570.314 320.19 572.14 317.861 574.753 317.861H612.726C615.339 317.861 617.164 320.19 616.798 322.956L608.829 382.882C608.703 384.035 607.26 384.965 605.62 384.965Z" fill="#7BCEE8"/>
<path d="M602.8 382.899H599.405C597.765 382.899 596.41 381.936 596.437 380.712L597.639 328.952C597.663 327.711 598.163 326.527 599.036 325.644C599.909 324.762 601.089 324.249 602.329 324.213H607.484C608.077 324.216 608.662 324.347 609.199 324.595C609.737 324.844 610.216 325.205 610.602 325.654C610.989 326.103 611.274 326.63 611.44 327.199C611.605 327.768 611.647 328.366 611.562 328.952L606.057 380.712C605.921 381.936 604.461 382.899 602.8 382.899Z" fill="#A2DFF2"/>
<path d="M577.513 299.03L577.934 298.298C576.421 292.958 575.206 287.538 574.293 282.063C574.772 287.816 575.851 293.502 577.513 299.03Z" fill="#74B570"/>
<path d="M577.513 255.229C576.023 259.033 575.017 263.009 574.518 267.064C581.52 244.078 620.509 223.334 623.046 219.825L623.494 218.945C608.845 214.856 585.428 235.436 577.513 255.229Z" fill="#74B570"/>
<path d="M668.152 292.432C668.006 292.433 667.863 292.384 667.747 292.294C667.631 292.204 667.548 292.078 667.513 291.935L660.407 263.112C654.875 240.525 647.988 212.412 640.259 199.9C638.985 197.839 633.421 195.046 625.533 195.604C614.88 196.358 594.338 203.721 576.502 244.543C576.466 244.622 576.415 244.693 576.352 244.752C576.288 244.811 576.214 244.857 576.133 244.888C576.051 244.918 575.965 244.933 575.878 244.93C575.792 244.927 575.706 244.907 575.627 244.871C575.548 244.835 575.477 244.784 575.418 244.72C575.359 244.657 575.313 244.583 575.282 244.501C575.252 244.42 575.238 244.334 575.241 244.247C575.244 244.16 575.264 244.075 575.299 243.996C593.414 202.54 614.486 195.046 625.44 194.254C633.956 193.652 639.887 196.763 641.374 199.173C649.212 211.86 655.837 238.902 661.681 262.762L668.787 291.585C668.828 291.754 668.8 291.932 668.71 292.081C668.62 292.23 668.474 292.336 668.306 292.378C668.257 292.402 668.205 292.421 668.152 292.432Z" fill="#74B570"/>
<path d="M647.37 254.83H647.293C647.121 254.81 646.964 254.722 646.856 254.585C646.749 254.449 646.699 254.276 646.719 254.103C646.747 253.868 649.403 230.172 643.172 205.257C643.13 205.088 643.157 204.909 643.246 204.76C643.336 204.611 643.481 204.504 643.65 204.462C643.819 204.42 643.998 204.446 644.147 204.536C644.296 204.626 644.403 204.771 644.445 204.94C650.737 230.085 648.053 254.016 648.02 254.256C648 254.415 647.923 254.56 647.803 254.666C647.684 254.772 647.529 254.83 647.37 254.83Z" fill="#74B570"/>
<path d="M640.056 240.186H639.98C639.807 240.166 639.65 240.078 639.542 239.941C639.435 239.805 639.386 239.632 639.406 239.459C639.406 239.241 641.947 217.545 640.193 199.621C640.176 199.448 640.229 199.275 640.34 199.141C640.45 199.007 640.61 198.922 640.783 198.905C640.956 198.889 641.129 198.942 641.264 199.052C641.398 199.163 641.483 199.322 641.499 199.496C643.265 217.567 640.734 239.399 640.707 239.612C640.687 239.771 640.61 239.916 640.49 240.022C640.37 240.128 640.216 240.186 640.056 240.186Z" fill="#74B570"/>
<path d="M615.114 123.816C614.966 123.815 614.822 123.765 614.706 123.672C614.59 123.58 614.509 123.45 614.476 123.306C614.443 123.161 614.46 123.01 614.525 122.876C614.589 122.742 614.697 122.634 614.83 122.569C615.016 122.482 633.77 113.31 644.62 93.1667C644.707 93.0206 644.846 92.9135 645.01 92.8681C645.173 92.8227 645.348 92.8424 645.497 92.923C645.646 93.0037 645.759 93.139 645.81 93.3006C645.862 93.4623 645.849 93.6376 645.774 93.7898C634.716 114.321 615.59 123.663 615.398 123.756C615.309 123.797 615.212 123.818 615.114 123.816Z" fill="#74B570"/>
<path d="M601.247 147.567C601.082 147.57 600.922 147.511 600.799 147.402C600.676 147.292 600.598 147.141 600.581 146.977C600.565 146.813 600.611 146.649 600.71 146.517C600.809 146.385 600.953 146.295 601.116 146.266C601.269 146.233 616.628 142.942 634.874 128.189C634.941 128.135 635.019 128.094 635.101 128.07C635.184 128.045 635.271 128.038 635.357 128.047C635.442 128.056 635.525 128.082 635.601 128.123C635.677 128.164 635.744 128.22 635.798 128.287C635.852 128.354 635.893 128.431 635.917 128.514C635.942 128.597 635.949 128.684 635.94 128.77C635.931 128.855 635.905 128.938 635.864 129.014C635.823 129.09 635.767 129.157 635.7 129.211C617.186 144.178 601.536 147.517 601.378 147.55L601.247 147.567Z" fill="#74B570"/>
<path d="M589.812 170.536C589.544 170.536 589.38 170.536 589.336 170.536C589.17 170.514 589.017 170.43 588.911 170.3C588.805 170.169 588.753 170.003 588.766 169.836C588.778 169.668 588.855 169.512 588.979 169.399C589.104 169.286 589.267 169.225 589.435 169.229C589.539 169.229 600.127 169.814 617.093 157.089C617.233 156.984 617.408 156.94 617.58 156.964C617.752 156.989 617.907 157.081 618.012 157.22C618.116 157.359 618.161 157.534 618.136 157.706C618.112 157.878 618.02 158.034 617.881 158.138C602.302 169.809 592.108 170.536 589.812 170.536Z" fill="#74B570"/>
</svg>
