<svg width="752" height="505" viewBox="0 0 752 505" fill="none" xmlns="http://www.w3.org/2000/svg">
<g clip-path="url(#clip0_64_1153)">
<path d="M707.819 380.528C689.45 370.273 676.268 358.436 679.693 337.64C682.264 322.045 691.978 309.309 699.18 296.739C734.54 234.974 728.906 192.895 701.637 165.72C656.557 120.781 552.357 116.606 476.508 131.553C415.212 143.631 380.816 169.481 356.663 192.924C340.555 208.555 329.01 223.134 317.073 231.825C310.556 236.567 303.934 239.563 296.39 240.025C254.298 242.608 171.355 191.139 74.8977 284.03C42.9626 314.8 26.4704 352.415 25.8155 395.289C25.0008 449.053 47.5607 488.342 54.3713 502.752L730.678 502.677C772.338 417.661 707.819 380.528 707.819 380.528Z" fill="#E7F3FE"/>
<path d="M412.716 502.7H620.62C620.62 502.7 653.64 490.107 651.903 473.825C650.166 457.543 596.724 478.384 596.724 478.384C596.724 478.384 600.634 461.884 586.514 457.543C572.395 453.202 524.166 501.179 505.699 480.12C487.232 459.06 506.025 426.281 465.344 426.063C424.662 425.845 412.716 502.7 412.716 502.7Z" fill="#A8D29F"/>
<path d="M300.115 501.437H468.609C473.912 501.437 478.212 497.14 478.212 491.84L478.212 155.127C478.212 149.827 473.912 145.53 468.609 145.53H300.115C294.811 145.53 290.512 149.827 290.512 155.127V491.84C290.512 497.14 294.811 501.437 300.115 501.437Z" fill="#4A75CB"/>
<path d="M281.919 501.437H450.412C455.716 501.437 460.016 497.14 460.016 491.84L460.016 155.127C460.016 149.827 455.716 145.53 450.412 145.53H281.919C276.615 145.53 272.315 149.827 272.315 155.127V491.84C272.315 497.14 276.615 501.437 281.919 501.437Z" fill="#AFCDFB"/>
<path d="M338.658 159.005H387.45C387.706 158.994 387.962 159.036 388.201 159.126C388.441 159.217 388.66 159.355 388.844 159.532C389.029 159.709 389.176 159.922 389.277 160.157C389.377 160.393 389.429 160.646 389.429 160.902C389.429 161.158 389.377 161.411 389.277 161.647C389.176 161.882 389.029 162.095 388.844 162.272C388.66 162.449 388.441 162.587 388.201 162.678C387.962 162.768 387.706 162.809 387.45 162.799H338.658C338.402 162.809 338.147 162.768 337.907 162.678C337.668 162.587 337.449 162.449 337.264 162.272C337.079 162.095 336.932 161.882 336.832 161.647C336.731 161.411 336.68 161.158 336.68 160.902C336.68 160.646 336.731 160.393 336.832 160.157C336.932 159.922 337.079 159.709 337.264 159.532C337.449 159.355 337.668 159.217 337.907 159.126C338.147 159.036 338.402 158.994 338.658 159.005Z" fill="#4A75CB"/>
<path d="M396.116 159.005C396.492 159.004 396.86 159.115 397.173 159.323C397.486 159.531 397.73 159.828 397.874 160.175C398.018 160.521 398.056 160.903 397.983 161.272C397.91 161.64 397.73 161.979 397.464 162.245C397.199 162.511 396.86 162.692 396.491 162.765C396.123 162.839 395.741 162.801 395.393 162.658C395.046 162.514 394.749 162.271 394.54 161.958C394.331 161.646 394.22 161.279 394.22 160.903C394.221 160.401 394.421 159.919 394.776 159.563C395.131 159.207 395.613 159.007 396.116 159.005Z" fill="#4A75CB"/>
<path d="M363.843 494.008C370.604 494.008 376.085 488.531 376.085 481.774C376.085 475.017 370.604 469.54 363.843 469.54C357.081 469.54 351.6 475.017 351.6 481.774C351.6 488.531 357.081 494.008 363.843 494.008Z" fill="#4A75CB"/>
<path d="M288.336 461.626H444.391L444.391 173.757H288.336V461.626Z" fill="#D5E7F7"/>
<path d="M288.336 461.649H444.391V428.232H288.336V461.649Z" fill="#D5E7F7"/>
<path d="M585.971 267.513C585.971 267.513 587.346 260.922 590.781 259.411C594.215 257.9 596.278 251.856 597.653 253.504C599.028 255.152 597.239 266.139 594.629 267.506C592.019 268.874 590.781 270.297 590.781 270.297L585.971 267.513Z" fill="#F4AC75"/>
<path d="M526.991 241.276C526.991 241.276 548.893 279.448 556.837 286.472L585.97 264.768C585.97 264.768 590.206 266.07 592.047 270.304C592.047 270.304 574.356 306.323 556.938 307.851C539.521 309.378 515.074 264.673 515.074 264.673L526.991 241.276Z" fill="#E58638"/>
<path d="M459.218 477.462C459.218 477.462 454.154 482.152 455.141 485.483C456.129 488.814 460.697 491.035 461.317 495.109C461.936 499.183 464.402 501.404 466.628 501.404H477.225C477.225 501.404 478.855 498.538 474.908 497.675C470.962 496.812 469.466 492.025 469.714 487.58C469.962 483.135 469.343 477.212 469.343 477.212L460.945 475.238L459.218 477.462Z" fill="#233862"/>
<path d="M522.316 501.234C522.557 501.334 522.81 501.402 523.068 501.436H551.018C550.8 500.459 549.943 498.453 546.521 497.9C542.096 497.18 534.422 494.614 532.714 488.954C532.659 488.772 532.61 488.586 532.567 488.398C531.209 482.35 521.328 490.247 521.328 490.247C521.328 490.247 521.299 490.488 521.257 490.899C521.035 493.123 520.448 500.297 522.316 501.234Z" fill="#233862"/>
<path d="M545.354 339.487C545.354 339.487 543.855 358.195 542.095 380.684C539.697 411.233 536.816 448.744 536.529 455.866C536.037 468.211 534.059 487.955 534.059 487.955C534.059 487.955 529.37 492.644 519.982 490.667C519.982 490.667 511.617 462.48 509.228 432.657L509.117 431.182C506.895 400.822 503.438 336.892 503.438 336.892L545.354 339.487Z" fill="#2B478B"/>
<path d="M545.354 339.487C545.354 339.487 543.855 358.195 542.096 380.684L509.225 432.66L509.114 431.185C506.892 400.825 503.435 336.895 503.435 336.895L545.354 339.487Z" fill="#233862"/>
<path d="M538.504 341.708C538.504 341.708 511.457 409.461 493.674 441.303C475.891 473.144 470.332 482.031 470.332 482.031C470.332 482.031 460.142 477.957 459.217 475.193C459.217 475.193 466.018 413.721 477.928 398.738C484.657 390.271 492.563 364.871 492.918 355.974C493.273 347.078 495.326 329.503 495.326 329.503L538.504 341.708Z" fill="#2B478B"/>
<path d="M524.632 237.121C525.835 230.025 525.871 225.821 525.871 225.821L512.148 214.768C512.657 229.966 502.913 237.274 502.913 237.274C502.913 237.274 521.201 246.268 531.769 242.937C529.766 240.578 527.347 238.607 524.632 237.121Z" fill="#F4AC75"/>
<path d="M528.999 230.087C528.999 230.087 511.301 230.025 511.513 219.015C511.725 208.005 509.578 200.577 520.885 200.153C532.193 199.73 534.308 203.97 535.132 207.663C535.957 211.356 533.607 229.829 528.999 230.087Z" fill="#F4AC75"/>
<path d="M546.521 341.044C546.213 341.313 545.819 341.463 545.41 341.467C541.441 341.415 529.866 343.616 520.074 342.61C511.816 341.819 504.51 339.373 496.663 335.859C495.62 335.394 493.222 334.114 493.277 332.948C493.313 331.675 493.44 329.825 493.603 327.497C494.157 319.401 495.125 305.48 494.183 289.419C494.014 286.426 493.926 283.463 493.913 280.542C493.831 258.773 498.149 239.628 506.83 233.148C507.573 232.617 512.122 234.841 516.306 236.902C519.833 238.64 523.846 239.125 527.686 238.28L531.336 241.504C535.78 245.63 540.652 251.237 542.767 259.74C544.569 266.985 545.625 280.05 546.208 293.591C546.472 299.726 546.684 305.916 546.739 311.788V311.999C546.791 312.582 546.791 313.217 546.791 313.8C547 328.881 546.785 340.832 546.521 341.044Z" fill="#EE9849"/>
<path d="M493.6 327.5C494.154 319.404 495.121 305.483 494.18 289.422C494.01 286.43 493.922 283.466 493.909 280.545C497.526 271.782 500.479 265.426 500.479 265.426H509.603C509.603 265.426 516.274 311.029 493.6 327.5Z" fill="#E58638"/>
<path d="M433.881 368.14L436.309 351.112C436.665 348.669 437.974 346.465 439.951 344.983C441.927 343.501 444.41 342.861 446.857 343.203L460.218 345.104L460.736 341.473C460.854 340.668 461.286 339.941 461.938 339.453C462.59 338.965 463.409 338.755 464.216 338.868L475.824 340.523C476.63 340.64 477.357 341.072 477.845 341.724C478.334 342.376 478.544 343.194 478.431 344L477.912 347.631L485.652 348.732C485.96 348.775 486.262 348.834 486.558 348.908L490.794 349.514C493.23 349.868 495.427 351.171 496.905 353.139C498.383 355.107 499.021 357.579 498.68 360.016L496.278 376.848C495.924 379.283 494.62 381.478 492.651 382.955C490.681 384.432 488.207 385.069 485.769 384.729L482.595 384.276C481.924 384.328 481.248 384.306 480.581 384.211L441.784 378.675C439.342 378.316 437.141 377.007 435.661 375.034C434.181 373.061 433.541 370.583 433.881 368.14ZM475.55 342.415L463.943 340.76C463.793 340.739 463.64 340.747 463.493 340.784C463.347 340.822 463.209 340.888 463.088 340.978C462.967 341.069 462.865 341.183 462.788 341.313C462.711 341.443 462.66 341.587 462.639 341.737L462.121 345.368L476.003 347.345L476.521 343.714C476.561 343.415 476.482 343.111 476.3 342.87C476.118 342.629 475.849 342.469 475.55 342.424V342.415Z" fill="#233862"/>
<path d="M475.869 330.336L474.139 333.316C474.139 333.316 477.528 340.48 469.489 343.167C469.489 343.167 466.028 344.039 465.735 341.643C465.442 339.246 465.95 340.187 465.448 336.804C464.946 333.42 466.269 330.408 468.765 329.6L470.721 327.715L475.869 330.336Z" fill="#F4AC75"/>
<path d="M471.285 331.15C473.544 331.539 475.84 331.667 478.128 331.531C478.128 331.531 487.872 301.455 489.126 298.706C490.381 295.958 518.067 263.439 518.067 263.439L506.534 234.597C506.534 234.597 476.59 284.58 473.55 291.604C468.525 303.21 466.781 329.232 466.781 329.232C468.142 330.161 469.672 330.813 471.285 331.15Z" fill="#EE9849"/>
<path d="M511.672 217.976C511.672 217.976 513.487 217.976 513.627 215.501C513.767 213.026 514.299 209.845 516.176 210.773C518.053 211.701 517.883 213.3 518.851 212.515C519.819 211.73 520.48 207.839 526.427 208.565C532.374 209.291 534.401 211.746 537.344 211.007C540.287 210.268 541.134 206.155 541.134 206.155C541.134 206.155 540.104 207.5 538.853 207.783C538.853 207.783 544.477 202.316 539.918 197.141C535.359 191.967 529.491 193.852 526.401 193.517C519.591 192.781 515.169 192.445 512.216 196.5C509.264 200.554 508.071 212.981 511.672 217.976Z" fill="#2B478B"/>
<path d="M587.137 261.723L594.238 247.326C594.304 247.192 594.421 247.09 594.563 247.042C594.705 246.994 594.859 247.003 594.994 247.069L598.947 249.023C599.081 249.089 599.184 249.207 599.233 249.349C599.281 249.491 599.271 249.647 599.204 249.782L592.103 264.178C592.037 264.313 591.92 264.416 591.777 264.464C591.635 264.512 591.479 264.502 591.344 264.436L587.391 262.482C587.257 262.415 587.155 262.297 587.107 262.155C587.06 262.013 587.071 261.857 587.137 261.723Z" fill="#2B478B"/>
<path d="M590.819 263.696L598.041 249.042C598.092 248.941 598.181 248.863 598.289 248.826C598.397 248.79 598.515 248.797 598.617 248.847L600.934 249.99C601.036 250.041 601.114 250.13 601.15 250.238C601.187 250.346 601.18 250.464 601.13 250.566L593.908 265.22C593.857 265.322 593.768 265.4 593.66 265.436C593.552 265.473 593.434 265.466 593.332 265.416L591.015 264.276C590.912 264.225 590.834 264.135 590.797 264.027C590.76 263.918 590.768 263.799 590.819 263.696Z" fill="#233862"/>
<path d="M525.61 229.829C525.61 229.829 525.447 231.738 525.144 233.799C525.144 233.799 517.867 230.692 515.306 226.338C515.306 226.338 518.506 228.97 525.61 229.829Z" fill="#C97C47"/>
<path d="M172.279 435.907L178.22 433.907L172.612 417.27L166.671 419.269L172.279 435.907Z" fill="#2B478B"/>
<path d="M174.786 435.14L176.453 434.586L170.924 417.967L169.257 418.521L174.786 435.14Z" fill="#233862"/>
<path d="M116.791 501.046C116.791 501.046 103.802 502.159 103.248 499.697C103.173 499.372 101.348 487.082 101.348 487.082L99.3932 473.382C99.3543 473.123 99.3856 472.857 99.4837 472.614C99.5818 472.371 99.7432 472.158 99.9513 471.998C100.159 471.838 100.406 471.736 100.667 471.704C100.928 471.671 101.192 471.709 101.433 471.812C102.509 472.301 103.714 473.314 104.386 475.395C105.868 479.862 110.232 487.059 116.71 488.935C123.527 490.905 116.791 501.046 116.791 501.046Z" fill="#163560"/>
<path d="M248.758 477.134C248.758 477.134 198.46 438.727 184.151 438.307C169.842 437.887 123.429 501.371 123.429 501.371H140.811C140.811 501.371 171.442 485.089 182.196 469.605C182.446 469.246 182.781 468.956 183.172 468.759C183.562 468.562 183.996 468.465 184.433 468.477C184.87 468.489 185.297 468.609 185.676 468.827C186.056 469.045 186.375 469.354 186.605 469.725C192.174 478.619 206.734 500.43 216.148 501.371C226.266 502.394 248.758 477.134 248.758 477.134Z" fill="#233862"/>
<path d="M243.941 372.628C243.941 372.628 244.267 375.145 244.668 378.252C245.212 382.286 245.939 387.298 246.415 388.864L261.548 392.697L262.659 381.7C262.659 381.7 258.869 374.103 258.892 363.357L243.941 372.628Z" fill="#FFB27D"/>
<path d="M272.276 479.827L227.157 485.929L226.831 483.568C226.769 483.112 232.439 483.692 232.426 483.194C232.325 478.804 230.119 478.309 230.862 472.503C231.354 468.664 229.64 458.37 228.467 455.088C227.114 451.3 226.489 444.107 226.215 437.272C225.869 428.71 226.068 420.709 226.065 420.664C225.625 415.209 226.922 409.155 229.095 403.404C233.387 392.052 241.384 385.624 245.144 381.811C245.144 381.811 249.736 382.944 261.666 379.365C262.021 379.258 263.044 380.759 263.501 381.645C263.501 381.645 269.161 388.268 271.282 404.189C273.179 418.413 272.276 479.827 272.276 479.827Z" fill="#C65447"/>
<path d="M260.131 410.601C260.047 412.601 242.349 468.892 244.516 473.044C255.009 493.133 232.397 484.861 230.96 479.68C231.452 475.841 229.656 458.373 228.467 455.088C227.114 451.3 226.489 444.107 226.215 437.271C226.749 434.61 227.723 432.056 229.096 429.713C235.672 428.684 260.79 395.101 260.131 410.601Z" fill="#B23F36"/>
<path d="M272.354 473.412C272.354 473.412 272.328 476.935 272.305 482.165C272.269 490.518 270.653 501.378 262.474 501.378H116.11C116.11 501.378 112.069 498.649 111.786 493.455C111.486 487.945 113.226 485.991 113.226 485.991C113.226 485.991 165.622 484.168 176.259 480.605C229.581 462.743 272.354 473.412 272.354 473.412Z" fill="#2B478B"/>
<path d="M243.941 372.628C243.941 372.628 244.267 375.145 244.668 378.252C258.651 374.178 258.896 363.354 258.896 363.354L243.941 372.628Z" fill="#E8945B"/>
<path d="M241.742 373.439C241.742 373.439 258.737 373.94 258.89 363.36C259.043 352.78 261.337 345.716 250.492 344.948C239.647 344.179 237.48 348.188 236.571 351.705C235.662 355.222 237.327 373.032 241.742 373.439Z" fill="#FFB27D"/>
<path d="M259.193 367.499C259.193 367.499 257.397 367.199 257.687 364.728C257.977 362.256 257.974 359.026 255.963 359.628C253.953 360.231 253.852 361.839 253.031 360.901C252.209 359.964 252.19 356.017 246.207 355.727C240.224 355.437 237.79 357.531 235.01 356.31C232.23 355.089 232.077 350.878 232.077 350.878C232.077 350.878 232.869 352.383 234.065 352.858C234.065 352.858 229.421 346.514 234.798 342.16C240.175 337.807 245.653 340.656 248.765 340.858C255.608 341.271 260.046 341.682 262.285 346.182C264.524 350.683 263.576 363.168 259.193 367.499Z" fill="#233862"/>
<path d="M239.184 368.17C239.184 368.17 239.073 369.472 241.739 369.931C241.739 369.931 244.092 370.107 244.294 368.932C242.568 368.868 240.854 368.613 239.184 368.17Z" fill="white"/>
<path d="M187.322 434.849L184.555 434.757C184.555 434.757 178.911 429.547 177.637 433.129C177.637 433.129 170.338 430.224 170.021 432.23C169.816 433.553 171.651 435.06 174.711 437.291C177.024 438.981 181.984 440.456 183.926 439.6L186.08 438.623L187.322 434.849Z" fill="#E49963"/>
<path d="M256.045 381.889C256.045 381.889 245.249 386.448 239.641 396.182C235.903 402.669 229.47 413.708 225.592 420.351C224.571 422.101 223.198 423.62 221.56 424.813C219.921 426.005 218.053 426.846 216.074 427.281L202.964 430.159L184.559 434.758C184.264 435.4 184.151 436.111 184.233 436.812C184.383 438.62 185.569 438.984 185.569 438.984C185.569 438.984 202.752 443.117 208.869 443.576C223.94 444.709 231.083 442.736 233.309 441.922C233.798 441.74 234.252 441.478 234.655 441.147C236.962 439.271 245.819 431.859 250.479 424.777C255.015 417.886 267.519 399.979 267.519 399.979L256.045 381.889Z" fill="#C65447"/>
<path d="M225.98 419.68L235.105 404L226.13 415.447C225.985 416.853 225.935 418.267 225.98 419.68Z" fill="#B23F36"/>
<path d="M407.052 68.961C407.052 68.961 403.207 66.3331 403.099 69.2411C402.992 72.1491 404.852 76.6853 405.915 74.3602C406.977 72.0351 407.463 71.1592 407.052 68.961Z" fill="#E49963"/>
<path d="M750.442 504.299H1.55765C1.1448 504.298 0.749108 504.134 0.457178 503.842C0.165249 503.55 0.000861004 503.155 0 502.742C0.000861004 502.33 0.165249 501.934 0.457178 501.642C0.749108 501.351 1.1448 501.186 1.55765 501.186H750.442C750.855 501.186 751.251 501.351 751.543 501.642C751.835 501.934 751.999 502.33 752 502.742C751.999 503.155 751.835 503.55 751.543 503.842C751.251 504.134 750.855 504.298 750.442 504.299Z" fill="#2E3552"/>
<path d="M421.061 228.595H309.585C307.34 228.603 305.19 229.497 303.602 231.084C302.015 232.67 301.12 234.819 301.112 237.062V250.479C301.113 252.53 301.863 254.511 303.221 256.05L301.112 265.683L313.27 258.952H421.065C423.309 258.944 425.46 258.05 427.047 256.463C428.634 254.877 429.529 252.728 429.537 250.485V237.068C429.531 234.824 428.636 232.672 427.048 231.085C425.46 229.497 423.308 228.602 421.061 228.595Z" fill="#A8D29F"/>
<path d="M308.949 238.817H421.699C422.053 238.8 422.386 238.647 422.631 238.391C422.875 238.135 423.011 237.795 423.011 237.441C423.011 237.088 422.875 236.747 422.631 236.491C422.386 236.235 422.053 236.083 421.699 236.065H308.949C308.596 236.083 308.262 236.235 308.018 236.491C307.774 236.747 307.638 237.088 307.638 237.441C307.638 237.795 307.774 238.135 308.018 238.391C308.262 238.647 308.596 238.8 308.949 238.817Z" fill="white"/>
<path d="M421.709 242.087H308.959C308.605 242.104 308.272 242.256 308.028 242.512C307.784 242.769 307.647 243.109 307.647 243.463C307.647 243.816 307.784 244.156 308.028 244.413C308.272 244.669 308.605 244.821 308.959 244.838H421.709C422.063 244.821 422.396 244.669 422.64 244.413C422.885 244.156 423.021 243.816 423.021 243.463C423.021 243.109 422.885 242.769 422.64 242.512C422.396 242.256 422.063 242.104 421.709 242.087Z" fill="white"/>
<path d="M421.709 247.883H308.959C308.605 247.9 308.272 248.053 308.028 248.309C307.784 248.565 307.647 248.905 307.647 249.259C307.647 249.613 307.784 249.953 308.028 250.209C308.272 250.465 308.605 250.618 308.959 250.635H421.709C422.063 250.618 422.396 250.465 422.64 250.209C422.885 249.953 423.021 249.613 423.021 249.259C423.021 248.905 422.885 248.565 422.64 248.309C422.396 248.053 422.063 247.9 421.709 247.883Z" fill="white"/>
<path d="M309.585 288.585H421.061C423.306 288.593 425.456 289.488 427.044 291.074C428.631 292.66 429.526 294.809 429.534 297.052V310.469C429.533 312.52 428.783 314.501 427.425 316.04L429.534 325.673L417.385 318.945H309.585C307.34 318.938 305.19 318.043 303.602 316.457C302.015 314.871 301.12 312.722 301.112 310.478V297.062C301.117 294.817 302.011 292.666 303.599 291.077C305.187 289.489 307.339 288.593 309.585 288.585Z" fill="#F1A34F"/>
<path d="M421.697 298.807H308.946C308.593 298.79 308.259 298.638 308.015 298.382C307.771 298.125 307.635 297.785 307.635 297.432C307.635 297.078 307.771 296.738 308.015 296.481C308.259 296.225 308.593 296.073 308.946 296.056H421.697C422.05 296.073 422.384 296.225 422.628 296.481C422.872 296.738 423.008 297.078 423.008 297.432C423.008 297.785 422.872 298.125 422.628 298.382C422.384 298.638 422.05 298.79 421.697 298.807Z" fill="white"/>
<path d="M308.936 302.077H421.687C422.04 302.094 422.374 302.247 422.618 302.503C422.862 302.759 422.998 303.099 422.998 303.453C422.998 303.806 422.862 304.147 422.618 304.403C422.374 304.659 422.04 304.811 421.687 304.829H308.936C308.583 304.811 308.249 304.659 308.005 304.403C307.761 304.147 307.625 303.806 307.625 303.453C307.625 303.099 307.761 302.759 308.005 302.503C308.249 302.247 308.583 302.094 308.936 302.077Z" fill="white"/>
<path d="M308.936 307.873H421.687C422.04 307.89 422.374 308.043 422.618 308.299C422.862 308.555 422.998 308.895 422.998 309.249C422.998 309.603 422.862 309.943 422.618 310.199C422.374 310.455 422.04 310.608 421.687 310.625H308.936C308.583 310.608 308.249 310.455 308.005 310.199C307.761 309.943 307.625 309.603 307.625 309.249C307.625 308.895 307.761 308.555 308.005 308.299C308.249 308.043 308.583 307.89 308.936 307.873Z" fill="white"/>
<path d="M421.061 348.576H309.585C307.34 348.583 305.19 349.478 303.602 351.064C302.015 352.65 301.12 354.799 301.112 357.042V370.459C301.113 372.511 301.863 374.492 303.221 376.031L301.112 385.663L313.27 378.932H421.065C423.309 378.925 425.46 378.03 427.047 376.444C428.634 374.858 429.529 372.709 429.537 370.465V357.049C429.531 354.804 428.636 352.653 427.048 351.065C425.46 349.478 423.308 348.583 421.061 348.576Z" fill="#699DEE"/>
<path d="M308.949 358.785H421.699C422.053 358.767 422.386 358.615 422.631 358.359C422.875 358.103 423.011 357.763 423.011 357.409C423.011 357.055 422.875 356.715 422.631 356.459C422.386 356.203 422.053 356.05 421.699 356.033H308.949C308.596 356.05 308.262 356.203 308.018 356.459C307.774 356.715 307.638 357.055 307.638 357.409C307.638 357.763 307.774 358.103 308.018 358.359C308.262 358.615 308.596 358.767 308.949 358.785Z" fill="white"/>
<path d="M421.709 362.067H308.959C308.605 362.084 308.272 362.237 308.028 362.493C307.784 362.749 307.647 363.089 307.647 363.443C307.647 363.797 307.784 364.137 308.028 364.393C308.272 364.649 308.605 364.802 308.959 364.819H421.709C422.063 364.802 422.396 364.649 422.64 364.393C422.885 364.137 423.021 363.797 423.021 363.443C423.021 363.089 422.885 362.749 422.64 362.493C422.396 362.237 422.063 362.084 421.709 362.067Z" fill="white"/>
<path d="M421.709 367.864H308.959C308.605 367.881 308.272 368.033 308.028 368.289C307.784 368.545 307.647 368.886 307.647 369.239C307.647 369.593 307.784 369.933 308.028 370.189C308.272 370.446 308.605 370.598 308.959 370.615H421.709C422.063 370.598 422.396 370.446 422.64 370.189C422.885 369.933 423.021 369.593 423.021 369.239C423.021 368.886 422.885 368.545 422.64 368.289C422.396 368.033 422.063 367.881 421.709 367.864Z" fill="white"/>
<path d="M309.585 408.566H421.061C423.306 408.574 425.456 409.468 427.044 411.054C428.631 412.64 429.526 414.79 429.534 417.033V430.449C429.533 432.501 428.783 434.482 427.425 436.021L429.534 445.654L417.385 438.929H309.585C307.34 438.921 305.19 438.027 303.602 436.441C302.015 434.854 301.12 432.705 301.112 430.462V417.046C301.117 414.8 302.01 412.648 303.598 411.059C305.185 409.47 307.338 408.574 309.585 408.566Z" fill="#A8D29F"/>
<path d="M421.697 418.788H308.946C308.593 418.771 308.259 418.618 308.015 418.362C307.771 418.106 307.635 417.766 307.635 417.412C307.635 417.058 307.771 416.718 308.015 416.462C308.259 416.206 308.593 416.053 308.946 416.036H421.697C422.05 416.053 422.384 416.206 422.628 416.462C422.872 416.718 423.008 417.058 423.008 417.412C423.008 417.766 422.872 418.106 422.628 418.362C422.384 418.618 422.05 418.771 421.697 418.788Z" fill="white"/>
<path d="M308.936 422.057H421.687C422.04 422.075 422.374 422.227 422.618 422.483C422.862 422.739 422.998 423.079 422.998 423.433C422.998 423.787 422.862 424.127 422.618 424.383C422.374 424.639 422.04 424.792 421.687 424.809H308.936C308.583 424.792 308.249 424.639 308.005 424.383C307.761 424.127 307.625 423.787 307.625 423.433C307.625 423.079 307.761 422.739 308.005 422.483C308.249 422.227 308.583 422.075 308.936 422.057Z" fill="white"/>
<path d="M308.936 427.854H421.687C422.04 427.871 422.374 428.023 422.618 428.28C422.862 428.536 422.998 428.876 422.998 429.23C422.998 429.583 422.862 429.924 422.618 430.18C422.374 430.436 422.04 430.588 421.687 430.605H308.936C308.583 430.588 308.249 430.436 308.005 430.18C307.761 429.924 307.625 429.583 307.625 429.23C307.625 428.876 307.761 428.536 308.005 428.28C308.249 428.023 308.583 427.871 308.936 427.854Z" fill="white"/>
<path d="M317.412 218.142C326.418 218.142 333.718 210.846 333.718 201.847C333.718 192.847 326.418 185.552 317.412 185.552C308.406 185.552 301.105 192.847 301.105 201.847C301.105 210.846 308.406 218.142 317.412 218.142Z" fill="#699DEE"/>
<path d="M424.326 217.491H343.645C342.262 217.491 340.936 216.942 339.958 215.965C338.98 214.988 338.431 213.662 338.431 212.28C338.431 210.899 338.98 209.573 339.958 208.596C340.936 207.619 342.262 207.07 343.645 207.07H424.326C425.709 207.07 427.035 207.619 428.013 208.596C428.991 209.573 429.54 210.899 429.54 212.28C429.54 213.662 428.991 214.988 428.013 215.965C427.035 216.942 425.709 217.491 424.326 217.491Z" fill="#699DEE"/>
<path d="M387.269 196.011H343.645C342.262 196.011 340.936 195.462 339.958 194.485C338.98 193.508 338.431 192.183 338.431 190.801C338.431 189.419 338.98 188.094 339.958 187.117C340.936 186.14 342.262 185.591 343.645 185.591H387.269C388.651 185.591 389.978 186.14 390.955 187.117C391.933 188.094 392.482 189.419 392.482 190.801C392.482 192.183 391.933 193.508 390.955 194.485C389.978 195.462 388.651 196.011 387.269 196.011Z" fill="#699DEE"/>
<path d="M351.98 199.603C351.943 200.023 352.028 200.445 352.224 200.818C352.421 201.191 352.721 201.5 353.088 201.707C354.486 202.609 357.031 202.869 359.814 202.944C360.169 202.944 360.492 202.967 360.792 202.986L361.013 203.006H361.186C363.93 203.266 363.581 204.068 368.769 204.885C374.684 205.813 377.007 204.149 377.418 203.345C377.763 202.664 375.267 201.684 372.477 200.57L372.07 200.407L370.956 199.958C367.638 198.59 364.389 197.027 363.786 193.517C363.161 189.811 366.54 179.84 366.54 179.84L357.181 178.156C357.181 178.156 355.519 188.726 354.692 191.996C354.248 193.741 353.346 195.093 352.769 196.574C352.728 196.679 352.689 196.787 352.652 196.9C352.308 197.767 352.082 198.676 351.98 199.603Z" fill="#E49963"/>
<path d="M351.98 199.603C351.943 200.023 352.028 200.445 352.224 200.818C352.421 201.191 352.721 201.5 353.088 201.707C354.584 202.531 357.087 202.814 359.811 202.928C360.166 202.928 360.485 202.964 360.789 202.99L361.01 203.009H361.183C363.927 203.27 363.578 204.071 368.766 204.888C374.68 205.816 377.004 204.152 377.414 203.348C377.76 202.667 375.264 201.687 372.474 200.573C369.477 201.426 366.308 201.472 363.288 200.707C359.378 199.678 355.565 197.428 352.775 196.565C352.734 196.669 352.695 196.777 352.658 196.89C352.311 197.76 352.084 198.672 351.98 199.603Z" fill="#233862"/>
<path d="M413.921 194.008C414.446 196.633 418.19 196.194 422.371 195.174C426.552 194.155 425.558 195.366 431.495 194.709C437.433 194.051 439.251 191.833 439.43 190.947C439.593 190.163 436.651 189.886 433.496 189.524L432.304 189.381C428.742 188.935 426.135 186.639 422.899 184.754C419.836 182.966 415.264 175.688 415.264 175.688L407.117 176.339C407.117 176.339 411.399 182.852 413.058 185.665C414.035 187.33 413.98 189.528 413.859 191.224C413.756 192.151 413.777 193.087 413.921 194.008Z" fill="#E49963"/>
<path d="M422.372 195.171C426.553 194.148 425.559 195.363 431.496 194.705C437.433 194.047 439.252 191.83 439.431 190.944C439.594 190.159 436.651 189.882 433.497 189.521L433.467 189.583C430.917 191.219 427.971 192.133 424.943 192.23C420.905 192.328 416.63 191.172 413.84 191.218C413.736 192.146 413.757 193.085 413.902 194.008C414.453 196.614 418.187 196.19 422.372 195.171Z" fill="#233862"/>
<path d="M395.758 74.207C395.758 74.207 397.713 69.4461 399.841 69.2507C401.969 69.0554 408.786 67.9872 409.272 68.9609C409.757 69.9346 409.272 73.432 407.812 74.6923C406.352 75.9525 397.309 77.9975 397.309 77.9975L395.758 74.207Z" fill="#E49963"/>
<path d="M382.642 141.85L365.045 189.156C363.266 189.289 361.478 189.125 359.753 188.671C357.368 187.984 354.637 186.18 354.637 186.18C354.637 186.18 359 140.756 367 131.309C375 121.862 382.642 141.85 382.642 141.85Z" fill="#233862"/>
<path d="M313.065 122.712C313.065 122.712 363.61 105.632 374.882 109.266C386.154 112.9 419.992 180.195 419.992 180.195C419.992 180.195 419.23 181.211 417.144 181.992C415.189 182.718 410.509 182.673 410.509 182.673C410.509 182.673 379.976 156.507 376.326 148.877C372.676 141.247 371.236 133.979 367.599 134.705C363.962 135.431 320.674 152.511 310.872 142.335C301.07 132.159 303.621 118.941 303.621 118.941L313.065 122.712Z" fill="#2B478B"/>
<path d="M343.954 43.2579C344.762 41.5938 345.664 38.6337 346.104 33.3615C346.036 33.8858 345.127 40.5257 342.569 44.2999C332.056 51.1971 311.908 74.2267 312.309 78.5903C312.309 78.5903 305.211 66.561 305.091 66.4893C305.091 66.4893 292 49.8522 307.515 40.3238C315.401 35.4815 315.362 29.2519 315.033 23.8657C314.704 18.4796 317.184 -4.79098 332.982 1.30509C332.982 1.30509 335.517 0.178355 336.651 0.34769C336.138 0.443713 335.657 0.667734 335.253 0.998979C337.084 0.891516 339.701 1.02503 341.888 2.26574C347.672 5.56777 352.863 35.0712 343.954 43.2579Z" fill="#163560"/>
<path d="M341.947 44.6451C341.999 44.6679 336.873 47.3284 333.015 46.2733C329.388 45.2964 327.015 40.5843 327.064 40.5745C328.602 40.2684 329.045 38.1582 329.019 29.0923L329.714 29.2291L341.393 31.5411C341.393 31.5411 341.125 35.2144 341.119 38.676C341.106 41.5775 341.282 44.3324 341.947 44.6451Z" fill="#E49963"/>
<path d="M341.386 31.5412C341.386 31.5412 341.119 35.2145 341.112 38.6761C334.576 38.4938 331.121 32.5345 329.707 29.2324L341.386 31.5412Z" fill="#D68D5D"/>
<path d="M328.501 27.9592C328.501 27.9592 325.077 22.5502 324.265 17.9261C323.679 14.6241 325.36 2.38633 337.668 4.14807C340.145 4.48736 342.515 5.3776 344.603 6.75323C347.275 8.5573 351.12 12.4488 346.818 23.1299L345.694 26.7511L328.501 27.9592Z" fill="#163560"/>
<path d="M343.569 34.8172C343.569 34.8172 328.107 35.0712 328.094 25.4452C328.081 15.8191 326.08 9.36809 335.954 8.79822C345.827 8.22834 347.75 11.8984 348.535 15.1125C349.321 18.3266 347.59 34.5013 343.569 34.8172Z" fill="#E49963"/>
<path d="M342.997 8.56368C342.997 8.56368 338.76 19.857 332.266 21.5276C325.771 23.1982 322.949 21.4592 322.949 21.4592C322.949 21.4592 323.575 17.5026 324.611 10.5957C324.611 10.5924 339.803 3.18078 342.997 8.56368Z" fill="#163560"/>
<path d="M341.947 9.48211C341.947 9.48211 345.108 12.0026 345.881 14.4547C346.653 16.9068 346.998 21.9445 348.471 21.7817C348.471 21.7817 351.662 14.1063 348.077 9.76542C344.274 5.15755 341.947 9.48211 341.947 9.48211Z" fill="#163560"/>
<path d="M307.512 86.2201C305.987 79.8277 311.175 67.4272 316.591 57.1596C321.505 47.8527 326.605 40.3042 327.064 40.5778C340.024 48.2662 341.197 41.8803 341.197 41.8803C341.197 41.8803 352.971 43.4434 356.304 49.178C360.915 57.1075 365.937 80.9023 370.871 80.5506C373.135 80.3878 395.923 71.8299 395.923 71.8299C395.923 71.8299 399.72 75.3827 398.993 79.7463C398.993 79.7463 387.741 87.2752 378.225 92.0817C373.194 94.6217 368.645 96.3997 366.494 95.8982C362.16 94.879 355.389 84.8263 351.729 78.9257L351.706 78.8866C347.037 105.3 353.385 111.318 350.171 114.102C346.776 117.033 341.927 112.702 331.271 117.322C324.275 120.354 314.564 124.741 308.03 125.503C304.602 125.906 302.044 125.307 301.21 122.995C298.769 116.258 310.422 98.4025 307.512 86.2201Z" fill="#699DEE"/>
<path d="M340.132 28.9815C340.132 28.9815 340.419 30.2059 343.465 30.017C343.465 30.017 346.02 29.8607 345.942 28.5158C345.942 28.5125 343.462 27.5584 340.132 28.9815Z" fill="white"/>
<path d="M301.21 122.979C302.044 125.291 304.602 125.887 308.03 125.486C312.553 123.533 332.095 115.952 331.877 110.832C331.551 103.242 328.12 103.001 330.544 93.6319C332.5 86.1095 314.433 72.1231 311.553 69.0815C306.137 79.3491 305.987 79.8278 307.512 86.2267C310.422 98.4026 298.769 116.258 301.21 122.979Z" fill="#3B76CA"/>
<path d="M351.739 78.9094C355.399 84.8198 362.167 94.866 366.504 95.882C368.642 96.3867 373.191 94.6087 378.236 92.0654C374.563 93.0131 370.995 92.987 367.528 92.6516C363.77 92.2869 362.679 87.6855 356.738 80.7819C352.863 76.3075 351.928 77.4277 351.739 78.9094Z" fill="#3B76CA"/>
<path d="M333.637 93.4429C333.637 93.4429 336.896 90.8996 340.001 91.489C343.107 92.0784 344.609 94.2147 344.485 95.1851C344.362 96.1555 342.729 98.8811 340.363 99.1221C337.997 99.3631 331.271 97.6697 331.271 97.6697L333.637 93.4429Z" fill="#E49963"/>
<path d="M327.065 40.5747C327.065 40.5747 314.46 41.3497 310.1 47.4328C303.957 55.994 289.218 94.0683 296.202 98.9367C304.065 104.417 334.547 98.7739 334.547 98.7739C334.547 98.7739 335.475 94.4331 334.182 92.3326C332.888 90.2322 311.879 86.8423 310.908 85.8719C309.937 84.9014 323.03 66.9845 323.03 64.0537C323.03 61.1229 327.065 40.5747 327.065 40.5747Z" fill="#699DEE"/>
<path d="M397.012 58.5404L405.651 56.2284C405.777 56.1889 405.911 56.182 406.04 56.2082C406.169 56.2344 406.29 56.2929 406.39 56.3782L407.599 57.1076L406.622 79.4045L398.322 81.6254L397.713 81.5765L396.315 80.7201C396.211 80.6505 396.126 80.5558 396.069 80.4447C396.012 80.3336 395.985 80.2099 395.989 80.0851V59.8105C396.004 59.5182 396.111 59.2383 396.295 59.0103C396.479 58.7824 396.73 58.618 397.012 58.5404Z" fill="#233862"/>
<path d="M398.348 81.6319L406.987 79.3198C407.262 79.2377 407.506 79.0726 407.684 78.847C407.862 78.6214 407.965 78.3464 407.981 78.0596V57.7817C407.986 57.6601 407.961 57.539 407.909 57.4293C407.856 57.3196 407.777 57.2246 407.679 57.1527C407.58 57.0809 407.466 57.0344 407.345 57.0175C407.224 57.0005 407.101 57.0136 406.987 57.0555L398.348 59.3676C398.073 59.4497 397.83 59.6149 397.652 59.8405C397.474 60.066 397.37 60.341 397.354 60.6278V80.9025C397.348 81.0244 397.373 81.1458 397.425 81.256C397.478 81.3661 397.557 81.4616 397.655 81.5338C397.754 81.606 397.869 81.6528 397.989 81.6699C398.11 81.687 398.234 81.674 398.348 81.6319Z" fill="#2B478B"/>
<path d="M404.719 59.7028L406.733 59.1004C406.884 59.0501 407.017 58.9544 407.112 58.8261C407.207 58.6979 407.26 58.5435 407.264 58.3839C407.265 58.3163 407.25 58.2493 407.218 58.1892C407.187 58.129 407.142 58.0774 407.086 58.0391C407.03 58.0007 406.966 57.9767 406.899 57.9693C406.831 57.9618 406.763 57.9712 406.7 57.9964L404.686 58.5989C404.535 58.6491 404.403 58.7449 404.307 58.8731C404.212 59.0013 404.159 59.1558 404.155 59.3153C404.154 59.383 404.17 59.4499 404.201 59.5101C404.232 59.5703 404.277 59.6218 404.333 59.6602C404.389 59.6986 404.453 59.7225 404.521 59.73C404.588 59.7374 404.656 59.7281 404.719 59.7028Z" fill="#233862"/>
<path d="M407.088 74.1355C407.101 74.2397 407.14 74.3388 407.203 74.4227C407.266 74.5067 407.351 74.5723 407.447 74.6131C407.544 74.6538 407.65 74.6681 407.754 74.6546C407.858 74.6411 407.957 74.6001 408.04 74.536C408.776 73.9498 409.728 72.6668 409.728 69.977C409.728 65.7045 405.912 64.0568 407.088 74.1355Z" fill="#E49963"/>
</g>
<defs>
<clipPath id="clip0_64_1153">
<rect width="752" height="504" fill="white" transform="translate(0 0.298828)"/>
</clipPath>
</defs>
</svg>
