<svg width="277" height="315" viewBox="0 0 277 315" fill="none" xmlns="http://www.w3.org/2000/svg">
<path d="M242.443 278.9H89.7493C67.5629 278.9 46.8594 260.969 43.4999 238.851L26.4149 126.255L23.2717 105.541L13.3385 40.0581C9.98256 17.9394 25.2477 0.0117188 47.4341 0.0117188H200.114C222.3 0.0117188 243.004 17.9429 246.36 40.0581L274.478 225.383L276.521 238.847C279.895 260.962 264.626 278.9 242.443 278.9Z" fill="#233862"/>
<path d="M274.492 225.386C256.967 230.858 234.358 221.931 228.799 210.585C221.381 195.444 220.321 177.131 194.892 188.484C169.463 199.837 155.869 167.324 149.174 143.716C142.48 120.108 108.353 131.691 87.4469 141.76C66.5412 151.829 62.4402 131.352 49.2114 123.995C35.9825 116.639 27.8942 130.499 27.8942 130.499L26.4149 126.255L23.2717 105.541L13.3385 40.0581C9.98256 17.9394 25.2477 0.0117188 47.4341 0.0117188H200.114C222.3 0.0117188 243.004 17.943 246.36 40.0581L274.492 225.386Z" fill="#2B478B"/>
<path d="M200.134 132.539C230.318 123.258 247.241 91.3402 237.932 61.248C228.623 31.1558 196.607 14.2846 166.423 23.5652C136.239 32.8457 119.316 64.7637 128.625 94.8559C137.934 124.948 169.95 141.819 200.134 132.539Z" fill="#F99746"/>
<path d="M248.307 52.7871C244.348 53.742 240.215 54.7747 235.936 55.8746C235.908 55.8004 235.876 55.7296 235.844 55.6589C235.812 55.5882 235.78 55.5104 235.752 55.4396C235.667 55.2416 235.582 55.047 235.493 54.8561C235.44 54.7358 235.386 54.6156 235.33 54.5024L235.248 54.322C235.237 54.3014 235.228 54.2801 235.22 54.2583L235.103 54.0073C235.064 53.9224 235.028 53.8375 234.986 53.7561C234.936 53.6465 234.886 53.5404 234.833 53.4378C234.833 53.4378 234.833 53.4131 234.833 53.4025C234.78 53.2822 234.719 53.162 234.659 53.0488C234.599 52.9356 234.531 52.78 234.464 52.6456C239.05 51.4667 243.495 50.3703 247.799 49.3564L248.307 52.7871ZM251.499 73.8872C247.94 75.2217 244.267 76.568 240.481 77.9261C225.936 83.1499 209.809 88.5151 192.759 93.7565L191.471 94.1491C171.509 100.264 152.516 105.509 135.615 109.675C95.3147 119.603 66.8492 123.391 65.2386 118.181C63.8515 113.714 82.4478 103.663 112.226 91.822C116.785 90.0076 121.613 88.1544 126.664 86.2693C126.664 86.3047 126.664 86.3365 126.664 86.3683V86.4214V86.5133C126.664 86.5133 126.664 86.5416 126.664 86.5593L126.686 86.722C126.714 86.8988 126.743 87.0757 126.771 87.2419L126.803 87.4223C126.803 87.5354 126.842 87.6522 126.863 87.7759C126.863 87.8361 126.881 87.8962 126.892 87.9563C126.913 88.0801 126.938 88.2039 126.963 88.31C126.987 88.4161 126.984 88.4515 126.998 88.5257C127.012 88.6 126.998 88.5823 126.998 88.6142C126.998 88.646 126.998 88.699 127.026 88.745L127.048 88.8653V88.9254C127.048 88.989 127.072 89.0492 127.087 89.1093C127.129 89.3215 127.175 89.5337 127.218 89.7494C125.134 90.5205 123.102 91.2832 121.12 92.0377C93.6829 102.471 76.3673 111.048 77.4103 114.408C78.542 118.057 100.977 114.662 133.618 106.552C147.808 103.033 163.882 98.6302 180.992 93.5267C184.497 92.4845 188.044 91.4117 191.634 90.3082C209.205 84.9076 225.716 79.4293 240.286 74.2303C243.951 72.9193 247.492 71.6308 250.907 70.3646L251.499 73.8872Z" fill="#F9DDBF"/>
<path d="M146.989 67.7684C151.358 67.7684 154.9 64.2373 154.9 59.8815C154.9 55.5257 151.358 51.9946 146.989 51.9946C142.62 51.9946 139.078 55.5257 139.078 59.8815C139.078 64.2373 142.62 67.7684 146.989 67.7684Z" fill="#ED7D2B"/>
<path d="M199.517 38.6331C201.034 38.6331 202.263 37.4075 202.263 35.8956C202.263 34.3838 201.034 33.1582 199.517 33.1582C198.001 33.1582 196.771 34.3838 196.771 35.8956C196.771 37.4075 198.001 38.6331 199.517 38.6331Z" fill="#ED7D2B"/>
<path d="M201.887 65.3601C204.712 65.3601 207.003 63.0768 207.003 60.2601C207.003 57.4435 204.712 55.1602 201.887 55.1602C199.062 55.1602 196.771 57.4435 196.771 60.2601C196.771 63.0768 199.062 65.3601 201.887 65.3601Z" fill="#ED7D2B"/>
<path d="M177.705 85.3599C181.942 85.3599 185.378 81.9349 185.378 77.71C185.378 73.4851 181.942 70.0601 177.705 70.0601C173.467 70.0601 170.031 73.4851 170.031 77.71C170.031 81.9349 173.467 85.3599 177.705 85.3599Z" fill="#ED7D2B"/>
<path d="M179.212 124.003C181.457 124.003 183.277 122.188 183.277 119.95C183.277 117.711 181.457 115.896 179.212 115.896C176.967 115.896 175.146 117.711 175.146 119.95C175.146 122.188 176.967 124.003 179.212 124.003Z" fill="#ED7D2B"/>
<path d="M214.12 98.5558C215.374 98.5558 216.391 97.5424 216.391 96.2923C216.391 95.0422 215.374 94.0288 214.12 94.0288C212.866 94.0288 211.85 95.0422 211.85 96.2923C211.85 97.5424 212.866 98.5558 214.12 98.5558Z" fill="#ED7D2B"/>
<path d="M243.394 175.327C243.394 175.652 243.378 175.977 243.344 176.3C243.211 177.497 242.836 178.654 242.243 179.702C241.649 180.751 240.849 181.668 239.89 182.4C238.931 183.132 237.833 183.663 236.663 183.961C235.493 184.259 234.275 184.318 233.081 184.134C232.772 184.086 232.465 184.021 232.163 183.939C230.945 183.614 229.811 183.036 228.833 182.244C227.854 181.452 227.055 180.463 226.486 179.342C226.28 178.936 226.106 178.515 225.965 178.082C225.67 177.188 225.52 176.252 225.521 175.31C225.521 175.126 225.521 174.956 225.539 174.758C225.623 173.353 226.042 171.989 226.763 170.779C227.493 169.544 228.512 168.503 229.732 167.744C230.952 166.985 232.338 166.53 233.772 166.419C235.206 166.308 236.645 166.544 237.968 167.106C239.291 167.668 240.459 168.54 241.372 169.647C241.452 169.744 241.53 169.842 241.606 169.941C242.777 171.493 243.405 173.385 243.394 175.327Z" fill="#71BDD1"/>
<path opacity="0.3" d="M239.066 167.685C236.483 169.563 235.494 173.517 232.212 173.517C229.686 173.517 227.441 174.39 225.539 174.776C225.623 173.371 226.042 172.007 226.763 170.797C230.665 170.871 233.667 168.523 235.525 166.475C236.778 166.623 237.985 167.036 239.066 167.685Z" fill="#5BAABC"/>
<path opacity="0.3" d="M243.394 175.328C243.394 175.652 243.378 175.977 243.345 176.3C241.826 177.4 240.152 179.034 238.516 179.331C235.841 179.809 234.057 179.536 231.655 181.517C230.961 182.075 230.131 182.441 229.25 182.578C228.081 181.743 227.131 180.641 226.479 179.363C226.273 178.957 226.099 178.536 225.958 178.104C227.435 177.886 228.87 177.447 230.215 176.802C233.167 175.366 236.665 176.053 238.584 174.068C239.71 172.794 240.718 171.421 241.596 169.966C242.765 171.51 243.396 173.393 243.394 175.328Z" fill="#5BAABC"/>
<path opacity="0.3" d="M241.198 181.181C240.205 182.315 238.941 183.181 237.522 183.697C236.104 184.214 234.577 184.364 233.085 184.134C232.775 184.086 232.468 184.021 232.166 183.939C233.855 181.881 236.778 181.464 238.725 181.584C239.567 181.599 240.405 181.462 241.198 181.181Z" fill="#5BAABC"/>
<path d="M211.083 150.262C212.592 150.262 213.815 149.043 213.815 147.539C213.815 146.035 212.592 144.816 211.083 144.816C209.575 144.816 208.352 146.035 208.352 147.539C208.352 149.043 209.575 150.262 211.083 150.262Z" fill="#F9DDBF"/>
<path d="M58.6508 150.756C59.0607 150.029 58.8018 149.108 58.0725 148.7C57.3432 148.291 56.4198 148.549 56.0098 149.276C55.5999 150.003 55.8588 150.924 56.588 151.333C57.3173 151.741 58.2409 151.483 58.6508 150.756Z" fill="#F9DDBF"/>
<path d="M80.776 134.898C81.3059 133.958 80.9712 132.768 80.0285 132.24C79.0857 131.712 77.8918 132.045 77.3619 132.985C76.8319 133.925 77.1666 135.115 78.1094 135.644C79.0522 136.172 80.2461 135.838 80.776 134.898Z" fill="#F9DDBF"/>
<path d="M107.238 66.7102C107.682 65.9422 107.418 64.9602 106.648 64.5168C105.878 64.0734 104.893 64.3366 104.448 65.1046C104.003 65.8725 104.267 66.8546 105.037 67.2979C105.808 67.7413 106.793 67.4782 107.238 66.7102Z" fill="#F9DDBF"/>
<path d="M56.5153 67.029C56.7651 66.5977 56.6168 66.0461 56.1842 65.797C55.7515 65.548 55.1982 65.6958 54.9484 66.1272C54.6986 66.5585 54.8468 67.1101 55.2795 67.3591C55.7122 67.6082 56.2655 67.4604 56.5153 67.029Z" fill="#F9DDBF"/>
<path d="M90.7593 43.6923C91.3333 42.701 90.9927 41.4334 89.9984 40.8611C89.0041 40.2888 87.7326 40.6285 87.1586 41.6197C86.5845 42.611 86.9252 43.8785 87.9195 44.4508C88.9138 45.0231 90.1852 44.6835 90.7593 43.6923Z" fill="#F9DDBF"/>
<path d="M183.448 203.169C189.793 201.218 193.35 194.509 191.394 188.183C189.437 181.857 182.707 178.311 176.362 180.262C170.017 182.212 166.459 188.922 168.416 195.248C170.373 201.573 177.103 205.12 183.448 203.169Z" fill="#F9DDBF"/>
<path d="M172.265 189.612C173.184 189.612 173.929 188.87 173.929 187.954C173.929 187.038 173.184 186.295 172.265 186.295C171.346 186.295 170.602 187.038 170.602 187.954C170.602 188.87 171.346 189.612 172.265 189.612Z" fill="#F2CCAA"/>
<path d="M183.305 183.487C183.624 183.487 183.883 183.229 183.883 182.91C183.883 182.592 183.624 182.334 183.305 182.334C182.985 182.334 182.727 182.592 182.727 182.91C182.727 183.229 182.985 183.487 183.305 183.487Z" fill="#F2CCAA"/>
<path d="M183.805 189.103C184.399 189.103 184.88 188.623 184.88 188.032C184.88 187.44 184.399 186.96 183.805 186.96C183.212 186.96 182.73 187.44 182.73 188.032C182.73 188.623 183.212 189.103 183.805 189.103Z" fill="#F2CCAA"/>
<path d="M178.722 193.308C179.613 193.308 180.336 192.588 180.336 191.699C180.336 190.81 179.613 190.09 178.722 190.09C177.83 190.09 177.107 190.81 177.107 191.699C177.107 192.588 177.83 193.308 178.722 193.308Z" fill="#F2CCAA"/>
<path d="M179.038 201.432C179.51 201.432 179.893 201.051 179.893 200.58C179.893 200.109 179.51 199.728 179.038 199.728C178.565 199.728 178.183 200.109 178.183 200.58C178.183 201.051 178.565 201.432 179.038 201.432Z" fill="#F2CCAA"/>
<path d="M186.374 196.081C186.636 196.081 186.849 195.869 186.849 195.607C186.849 195.345 186.636 195.133 186.374 195.133C186.111 195.133 185.898 195.345 185.898 195.607C185.898 195.869 186.111 196.081 186.374 196.081Z" fill="#F2CCAA"/>
<path d="M134.459 0.011841C134.459 0.011841 112.965 22.5868 84.4141 31.0749C55.8634 39.5631 73.2322 82.7961 48.9386 82.3575C24.6449 81.919 23.2649 105.537 23.2649 105.537L13.3317 40.0547C9.97572 17.936 25.2409 0.00830078 47.4273 0.00830078H134.456L134.459 0.011841Z" fill="#1C51A5"/>
<path opacity="0.5" d="M144.459 163.122H92.8035C90.7169 163.122 89.0254 164.808 89.0254 166.889V205.704C89.0254 207.785 90.7169 209.471 92.8035 209.471H144.459C146.546 209.471 148.238 207.785 148.238 205.704V166.889C148.238 164.808 146.546 163.122 144.459 163.122Z" fill="#DDE7FE"/>
<path d="M103.063 188.587C101.016 188.587 99.0157 187.982 97.3139 186.848C95.6122 185.715 94.2858 184.103 93.5026 182.218C92.7193 180.333 92.5144 178.259 92.9137 176.258C93.313 174.256 94.2985 172.418 95.7458 170.975C97.193 169.533 99.0369 168.55 101.044 168.152C103.052 167.754 105.132 167.958 107.023 168.739C108.914 169.52 110.53 170.842 111.667 172.539C112.804 174.235 113.411 176.23 113.411 178.27C113.408 181.006 112.317 183.628 110.377 185.562C108.437 187.496 105.807 188.584 103.063 188.587ZM103.063 168.523C101.13 168.524 99.2398 169.096 97.6326 170.167C96.0253 171.239 94.7727 172.761 94.0331 174.542C93.2936 176.323 93.1002 178.282 93.4776 180.173C93.855 182.063 94.786 183.8 96.1532 185.163C97.5203 186.526 99.2621 187.454 101.158 187.83C103.055 188.206 105.02 188.014 106.806 187.276C108.593 186.539 110.12 185.29 111.194 183.688C112.269 182.085 112.843 180.201 112.844 178.274C112.841 175.689 111.809 173.211 109.976 171.383C108.142 169.556 105.656 168.528 103.063 168.527V168.523Z" fill="#DDE7FE"/>
<path d="M103.159 184.021C102 184.021 100.867 183.678 99.9035 183.036C98.9397 182.394 98.1885 181.482 97.745 180.414C97.3014 179.346 97.1853 178.172 97.4114 177.038C97.6376 175.905 98.1958 174.864 99.0154 174.047C99.835 173.23 100.879 172.673 102.016 172.448C103.153 172.222 104.331 172.338 105.402 172.78C106.473 173.222 107.388 173.971 108.032 174.932C108.676 175.893 109.02 177.023 109.02 178.178C109.018 179.727 108.4 181.212 107.301 182.307C106.203 183.403 104.713 184.019 103.159 184.021ZM103.159 172.654C102.064 172.654 100.994 172.978 100.083 173.584C99.1722 174.191 98.4624 175.053 98.0433 176.062C97.6241 177.071 97.5144 178.181 97.7281 179.252C97.9418 180.323 98.4692 181.306 99.2437 182.078C100.018 182.851 101.005 183.376 102.079 183.589C103.153 183.802 104.267 183.693 105.279 183.275C106.29 182.857 107.155 182.15 107.764 181.242C108.372 180.334 108.697 179.267 108.697 178.175C108.694 176.712 108.11 175.309 107.072 174.275C106.034 173.241 104.627 172.659 103.159 172.657V172.654Z" fill="#DDE7FE"/>
<path d="M97.2491 171.059C97.878 171.059 98.3879 170.55 98.3879 169.923C98.3879 169.296 97.878 168.788 97.2491 168.788C96.6202 168.788 96.1104 169.296 96.1104 169.923C96.1104 170.55 96.6202 171.059 97.2491 171.059Z" fill="#DDE7FE"/>
<path d="M112.698 181.633C113.327 181.633 113.837 181.125 113.837 180.498C113.837 179.871 113.327 179.363 112.698 179.363C112.069 179.363 111.56 179.871 111.56 180.498C111.56 181.125 112.069 181.633 112.698 181.633Z" fill="#DDE7FE"/>
<path d="M130.142 201.612C129.061 201.612 128.005 201.293 127.107 200.694C126.208 200.096 125.508 199.245 125.095 198.25C124.681 197.255 124.573 196.16 124.784 195.103C124.994 194.047 125.515 193.076 126.279 192.314C127.043 191.553 128.016 191.034 129.076 190.824C130.136 190.614 131.234 190.722 132.233 191.134C133.231 191.546 134.084 192.244 134.684 193.14C135.285 194.036 135.605 195.089 135.605 196.166C135.603 197.61 135.027 198.994 134.003 200.015C132.979 201.036 131.59 201.611 130.142 201.612ZM130.142 191.002C129.121 191.002 128.123 191.304 127.274 191.869C126.425 192.435 125.764 193.239 125.373 194.179C124.982 195.119 124.88 196.154 125.079 197.152C125.279 198.15 125.77 199.067 126.492 199.787C127.214 200.507 128.134 200.997 129.135 201.195C130.136 201.394 131.174 201.292 132.117 200.902C133.06 200.513 133.867 199.853 134.434 199.007C135.001 198.161 135.304 197.166 135.304 196.148C135.297 194.787 134.751 193.484 133.783 192.523C132.816 191.562 131.507 191.022 130.142 191.02V191.002Z" fill="#DDE7FE"/>
<path d="M130.194 199.204C129.582 199.205 128.983 199.024 128.473 198.685C127.963 198.346 127.565 197.865 127.331 197.3C127.096 196.736 127.034 196.115 127.153 195.516C127.272 194.917 127.567 194.367 128 193.934C128.433 193.502 128.984 193.208 129.585 193.088C130.186 192.969 130.809 193.03 131.375 193.264C131.941 193.497 132.425 193.893 132.766 194.401C133.106 194.908 133.288 195.506 133.288 196.116C133.287 196.934 132.961 197.719 132.381 198.297C131.801 198.876 131.015 199.202 130.194 199.204ZM130.194 193.191C129.616 193.191 129.051 193.362 128.57 193.683C128.09 194.003 127.715 194.458 127.494 194.991C127.272 195.523 127.215 196.109 127.327 196.674C127.44 197.24 127.719 197.759 128.127 198.166C128.536 198.574 129.057 198.852 129.624 198.964C130.191 199.076 130.779 199.019 131.313 198.798C131.847 198.578 132.304 198.204 132.625 197.725C132.946 197.246 133.117 196.682 133.117 196.106C133.114 195.335 132.804 194.597 132.257 194.053C131.709 193.509 130.967 193.203 130.194 193.202V193.191Z" fill="#DDE7FE"/>
<path d="M127.07 192.357C127.403 192.357 127.673 192.088 127.673 191.756C127.673 191.423 127.403 191.154 127.07 191.154C126.737 191.154 126.467 191.423 126.467 191.756C126.467 192.088 126.737 192.357 127.07 192.357Z" fill="#DDE7FE"/>
<path d="M135.229 197.945C135.562 197.945 135.832 197.675 135.832 197.343C135.832 197.011 135.562 196.742 135.229 196.742C134.896 196.742 134.626 197.011 134.626 197.343C134.626 197.675 134.896 197.945 135.229 197.945Z" fill="#DDE7FE"/>
<path d="M108.204 191.971H93.7295V192.64H108.204V191.971Z" fill="#DDE7FE"/>
<path d="M101.786 193.496H93.7295V194.164H101.786V193.496Z" fill="#DDE7FE"/>
<path d="M111.02 193.496H102.964V194.164H111.02V193.496Z" fill="#DDE7FE"/>
<path d="M117.1 191.971H109.246V192.64H117.1V191.971Z" fill="#DDE7FE"/>
<path d="M108.204 196.99H93.7295V197.658H108.204V196.99Z" fill="#DDE7FE"/>
<path d="M101.786 198.518H93.7295V199.186H101.786V198.518Z" fill="#DDE7FE"/>
<path d="M111.02 198.518H102.964V199.186H111.02V198.518Z" fill="#DDE7FE"/>
<path d="M117.1 196.99H109.246V197.658H117.1V196.99Z" fill="#DDE7FE"/>
<path d="M108.037 201.566H93.5625V202.235H108.037V201.566Z" fill="#DDE7FE"/>
<path d="M101.619 203.091H93.5625V203.759H101.619V203.091Z" fill="#DDE7FE"/>
<path d="M110.85 203.091H102.794V203.759H110.85V203.091Z" fill="#DDE7FE"/>
<path d="M116.93 201.566H109.076V202.235H116.93V201.566Z" fill="#DDE7FE"/>
<path d="M132.997 168.774H118.523V169.442H132.997V168.774Z" fill="#DDE7FE"/>
<path d="M126.576 170.302H118.523V170.97H126.576V170.302Z" fill="#DDE7FE"/>
<path d="M135.81 170.302H127.754V170.97H135.81V170.302Z" fill="#DDE7FE"/>
<path d="M141.891 168.774H134.037V169.442H141.891V168.774Z" fill="#DDE7FE"/>
<path d="M132.997 173.796H118.523V174.464H132.997V173.796Z" fill="#DDE7FE"/>
<path d="M126.576 175.32H118.523V175.989H126.576V175.32Z" fill="#DDE7FE"/>
<path d="M135.81 175.32H127.754V175.989H135.81V175.32Z" fill="#DDE7FE"/>
<path d="M141.891 173.796H134.037V174.464H141.891V173.796Z" fill="#DDE7FE"/>
<path d="M132.828 178.373H118.354V179.041H132.828V178.373Z" fill="#DDE7FE"/>
<path d="M126.41 179.897H118.354V180.565H126.41V179.897Z" fill="#DDE7FE"/>
<path d="M135.644 179.897H127.588V180.565H135.644V179.897Z" fill="#DDE7FE"/>
<path d="M141.724 178.373H133.87V179.041H141.724V178.373Z" fill="#DDE7FE"/>
<path d="M158.309 314.572C158.081 314.565 157.864 314.476 157.695 314.324C157.527 314.171 157.419 313.963 157.39 313.737L152.878 285.444L146.386 244.771L144.569 233.394L149.181 233.249L149.983 239.852L155.616 286.264L158.955 313.776C158.967 313.871 158.96 313.968 158.934 314.06C158.908 314.152 158.863 314.238 158.803 314.312C158.742 314.386 158.667 314.448 158.583 314.492C158.498 314.537 158.405 314.564 158.309 314.572Z" fill="#8CB4F4"/>
<path d="M149.998 239.844C147.004 241.305 146.387 244.764 146.387 244.764L144.57 233.386L149.182 233.241L149.998 239.844Z" fill="#8CB4F4"/>
<path d="M14.0445 314.572C14.2722 314.565 14.4898 314.476 14.6581 314.324C14.8265 314.171 14.9348 313.963 14.9634 313.737L19.4758 285.444L25.9679 244.771L27.7842 233.394L23.1724 233.249L22.3706 239.852L16.7407 286.264L13.4024 313.776C13.3901 313.871 13.3971 313.967 13.423 314.059C13.4489 314.151 13.4932 314.236 13.5532 314.311C13.6132 314.385 13.6876 314.447 13.772 314.491C13.8565 314.536 13.9492 314.564 14.0445 314.572Z" fill="#8CB4F4"/>
<path d="M22.3594 239.844C25.3535 241.305 25.9709 244.764 25.9709 244.764L27.7872 233.386L23.1753 233.241L22.3594 239.844Z" fill="#8CB4F4"/>
<path d="M158.458 230.157H2.70656C1.33312 230.157 0.219727 231.267 0.219727 232.636V234.96C0.219727 236.329 1.33312 237.439 2.70656 237.439H158.458C159.832 237.439 160.945 236.329 160.945 234.96V232.636C160.945 231.267 159.832 230.157 158.458 230.157Z" fill="#8CB4F4"/>
<path d="M131.884 226.076C131.884 226.076 139.064 224.41 140.902 226.076C142.06 227.196 142.896 228.603 143.325 230.154H131.884V226.076Z" fill="#FFB27D"/>
<path d="M54.4798 199.069C54.4798 199.069 44.1919 207.42 42.1947 219.742C40.1974 232.064 64.75 230.065 64.75 230.065L54.4798 199.069Z" fill="#2B478B"/>
<path d="M86.3506 306.003C86.3506 306.003 86.8153 314.869 88.206 314.982C88.3904 314.982 95.2585 314.982 95.2585 314.982H104.503C104.503 314.982 103.964 312.528 101.399 312.029C98.8344 311.53 94.5419 309.522 92.9809 305.723C91.3384 301.744 86.3506 306.003 86.3506 306.003Z" fill="#0C2849"/>
<path d="M101.715 305.412C101.715 305.412 102.18 314.876 103.57 314.986C103.755 314.986 110.623 314.986 110.623 314.986H119.705C119.566 314.257 119.212 313.587 118.688 313.06C118.164 312.534 117.494 312.176 116.764 312.033C114.199 311.538 109.906 309.525 108.345 305.73C106.703 301.748 101.715 305.412 101.715 305.412Z" fill="#163560"/>
<path d="M53.0077 247.555C52.6104 247.887 48.1086 260.375 48.3746 268.701H82.7859C82.7859 268.701 96.4688 267.728 96.7349 270.115C97.001 272.503 96.5788 287.909 101.081 306.225H108.726C108.726 306.225 116.175 269.203 110.233 259.626C108.35 256.584 80.8241 249.394 73.7609 248.538C66.6978 247.682 53.0077 247.555 53.0077 247.555Z" fill="#F9DDBF"/>
<path d="M45.5367 247.555C45.1394 247.887 40.5276 261.373 46.3704 268.701H67.8828C67.8828 268.701 78.9795 270.678 79.235 273.069C79.4904 275.459 81.3174 287.923 85.8192 306.24H93.7657C93.7657 306.24 96.6747 262.526 94.5568 259.64C92.4389 256.754 65.9068 249.408 58.8436 248.552C51.7804 247.696 45.5367 247.555 45.5367 247.555Z" fill="#F9DDBF"/>
<path d="M66.9922 196.926L72.1539 200.3L79.6038 198.914C79.5009 198.313 79.0078 195.826 78.5608 193.574C78.5324 193.443 78.5075 193.308 78.4827 193.177C78.0995 191.261 77.7732 189.612 77.7732 189.612L70.8058 186.55L68.209 185.407C68.209 185.446 68.4112 187.529 68.4361 187.84C68.9256 193.248 66.9922 196.926 66.9922 196.926Z" fill="#FFB27D"/>
<path d="M80.4021 189.188C80.4021 189.188 69.1811 192.678 67.1094 185.676C65.0376 178.673 62.1924 174.411 69.2698 171.883C76.3472 169.354 78.5361 171.617 79.799 173.785C81.0619 175.953 83.2649 188.106 80.4021 189.188Z" fill="#FFB27D"/>
<path d="M79.3555 173.117C79.3555 173.117 78.646 181.251 76.9503 180.898C75.2545 180.544 73.729 180.282 73.9738 182.737C74.2186 185.191 76.5636 188.042 71.3558 188.463C66.1479 188.884 58.6626 175.508 60.0923 172.972C64.2216 165.668 85.3225 164.194 79.3555 173.117Z" fill="#142642"/>
<path d="M77.7016 195.222C77.5562 195.162 69.3471 191.491 68.3893 191.805C67.4314 192.12 66.2324 195.045 66.2324 195.045L80.6887 198.302C80.6887 198.302 79.5499 195.996 77.7016 195.222Z" fill="#EAC5A4"/>
<path d="M90.4692 206.069C90.4692 206.069 89.9442 212.184 89.1566 224.074C89.1141 224.721 89.0716 225.397 89.029 226.094C88.5288 234.115 87.9647 244.958 86.4037 252.17C85.6197 255.788 84.5803 258.494 83.172 259.47C78.7056 262.561 47.3025 262.978 43.9785 258.264C40.6544 253.549 51.7832 203.543 53.0142 200.555C54.2452 197.566 66.2324 195.041 66.2324 195.041L80.6887 198.298C85.9071 199.483 90.4692 206.069 90.4692 206.069Z" fill="#F9DDBF"/>
<path d="M94.6981 268.701H42.1624C40.3128 268.701 38.8135 270.195 38.8135 272.039V278.016C38.8135 279.86 40.3128 281.355 42.1624 281.355H94.6981C96.5477 281.355 98.047 279.86 98.047 278.016V272.039C98.047 270.195 96.5477 268.701 94.6981 268.701Z" fill="#F99746"/>
<path d="M68.308 281.355H64.4873V313.316H68.308V281.355Z" fill="#163560"/>
<path d="M80.6885 198.306C80.6885 198.306 88.8478 199.186 93.4313 206.762C96.2693 211.448 104.411 222.164 109.75 222.497C115.089 222.829 131.88 226.076 131.88 226.076V230.193L106.291 230.9C105.98 230.909 105.668 230.884 105.362 230.826C102.626 230.31 88.7272 227.551 86.6235 224.251C84.2821 220.58 80.6885 198.306 80.6885 198.306Z" fill="#F9DDBF"/>
<path d="M82.6936 312.903H48.2539V314.576H82.6936V312.903Z" fill="#163560"/>
<path d="M82.7897 268.701L73.4632 206.808C73.4632 206.808 72.853 203.243 71.2637 197.39C70.1569 193.308 62.8241 191.777 53.4195 191.777C33.2197 191.777 29.807 195.543 30.1582 201.881C30.5094 208.219 38.8178 272.029 38.8178 272.029L82.7897 268.701Z" fill="#F99746"/>
<path d="M89.029 226.097C88.5288 234.118 87.9647 244.962 86.4038 252.173C84.0198 251.979 84.9032 249.079 85.4353 246.614C85.9674 244.149 84.3107 229.949 82.7853 226.101C81.2598 222.253 81.8381 221.262 82.7853 222.21C83.7325 223.158 89.029 226.097 89.029 226.097Z" fill="#E5BE9C"/>
<path d="M73.948 281.355H58.8496V283.686H73.948V281.355Z" fill="#0C2849"/>
<path d="M185.165 295.074L177.438 306.413C175.31 309.539 176.991 314.516 180.177 314.516H193.92C196.9 314.516 198.645 310.095 196.939 306.873L190.908 295.534C189.564 292.973 186.75 292.75 185.165 295.074Z" fill="#F99746"/>
<path d="M194.371 293.472H187.701V297.716H192.969L194.371 293.472Z" fill="#F99746"/>
<path d="M191.695 295.074L184.558 306.413C182.589 309.539 184.143 314.516 187.091 314.516H199.787C202.54 314.516 204.154 310.095 202.576 306.873L197.017 295.534C195.761 292.973 193.16 292.75 191.695 295.074Z" fill="#ED7D2B"/>
<path d="M214.577 255.551C215.51 255.551 216.266 254.797 216.266 253.868C216.266 252.938 215.51 252.184 214.577 252.184C213.645 252.184 212.889 252.938 212.889 253.868C212.889 254.797 213.645 255.551 214.577 255.551Z" fill="#E5BE9C"/>
<path d="M214.581 253.22C214.517 253.219 214.457 253.194 214.411 253.149C214.366 253.104 214.341 253.043 214.34 252.98V246.172C214.341 246.108 214.366 246.048 214.411 246.003C214.457 245.958 214.517 245.932 214.581 245.931C214.645 245.932 214.706 245.958 214.751 246.003C214.796 246.048 214.821 246.108 214.822 246.172V252.98C214.821 253.043 214.796 253.104 214.751 253.149C214.706 253.194 214.645 253.219 214.581 253.22Z" fill="#E5BE9C"/>
<path d="M194.959 255.551C195.892 255.551 196.648 254.797 196.648 253.868C196.648 252.938 195.892 252.184 194.959 252.184C194.027 252.184 193.271 252.938 193.271 253.868C193.271 254.797 194.027 255.551 194.959 255.551Z" fill="#E5BE9C"/>
<path d="M167.477 289.121C167.455 289.312 167.494 289.505 167.589 289.672C167.685 289.839 167.831 289.972 168.007 290.05C168.182 290.129 168.379 290.15 168.567 290.11C168.756 290.071 168.927 289.972 169.055 289.829C169.41 289.454 170.513 288.478 171.556 288.481C171.818 288.49 172.075 288.555 172.308 288.673C172.542 288.791 172.746 288.959 172.908 289.164C174.508 290.932 172.234 293.532 172.198 293.557C172.038 293.737 171.957 293.973 171.971 294.213C171.986 294.453 172.096 294.677 172.276 294.837C172.457 294.996 172.694 295.078 172.935 295.063C173.176 295.049 173.401 294.939 173.561 294.759C174.735 293.436 176.399 290.31 174.245 287.947C173.913 287.553 173.499 287.234 173.032 287.013C172.565 286.793 172.055 286.674 171.539 286.667C170.543 286.705 169.584 287.053 168.796 287.661C168.397 287.942 168.027 288.263 167.693 288.619C167.571 288.76 167.495 288.936 167.477 289.121Z" fill="#2C3A64"/>
<path d="M173.283 288.719C173.283 288.846 173.32 288.971 173.39 289.078C173.459 289.185 173.559 289.269 173.675 289.321C173.792 289.373 173.922 289.389 174.048 289.369C174.174 289.349 174.292 289.292 174.386 289.207L176.515 287.311C176.579 287.253 176.632 287.183 176.669 287.105C176.707 287.027 176.728 286.943 176.733 286.856C176.738 286.77 176.725 286.683 176.696 286.602C176.667 286.52 176.623 286.445 176.565 286.381C176.507 286.317 176.436 286.264 176.358 286.227C176.28 286.19 176.195 286.168 176.108 286.164C176.022 286.159 175.935 286.171 175.853 286.2C175.771 286.229 175.696 286.274 175.632 286.331L173.503 288.227C173.434 288.289 173.378 288.365 173.34 288.449C173.302 288.534 173.283 288.626 173.283 288.719Z" fill="#2C3A64"/>
<path d="M175.363 288.153L175.544 288.273C175.746 288.41 175.961 288.529 176.186 288.626C176.91 288.93 177.707 289.012 178.478 288.861C179.248 288.711 179.956 288.335 180.511 287.781C182.898 285.415 186.055 283.774 189.94 282.883L190.387 282.787C191.688 282.514 193.008 282.336 194.335 282.253C195.175 282.202 195.968 281.853 196.571 281.269C197.174 280.685 197.548 279.905 197.624 279.07V278.95L197.681 278.352C197.713 277.999 197.671 277.642 197.555 277.306C197.439 276.97 197.253 276.662 197.01 276.403C196.766 276.144 196.47 275.94 196.141 275.803C195.812 275.667 195.458 275.601 195.102 275.611C193.22 275.664 191.345 275.87 189.497 276.227C187.929 276.526 186.387 276.947 184.885 277.486C181.01 278.83 177.541 281.135 174.806 284.184C174.557 284.471 174.373 284.808 174.265 285.172C174.158 285.536 174.129 285.919 174.182 286.294C174.235 286.67 174.367 287.03 174.571 287.351C174.775 287.671 175.045 287.945 175.363 288.153Z" fill="#F99746"/>
<path d="M176.193 288.619C176.917 288.923 177.715 289.005 178.485 288.854C179.255 288.703 179.963 288.327 180.518 287.774C182.905 285.408 186.063 283.767 189.947 282.876L190.394 282.78C190.039 279.576 189.685 276.322 189.685 276.322L189.504 276.227C187.936 276.526 186.394 276.947 184.892 277.486C184.892 277.486 185.626 280.708 182.966 282.271C180.305 283.834 178.148 289.288 176.193 288.619Z" fill="#ED7D2B"/>
<path d="M217.292 273.995C218.65 272.782 218.157 270.738 218.136 270.649L216.841 271.003L217.49 270.819L216.841 271C216.841 271 217.132 272.262 216.43 272.888L217.292 273.995Z" fill="#F99746"/>
<path d="M199.049 273.995C197.691 272.782 198.184 270.738 198.205 270.649L199.5 271.003L198.851 270.819L199.5 271C199.5 271 199.209 272.262 199.911 272.888L199.049 273.995Z" fill="#F99746"/>
<path d="M197.226 271.378H223.911C225.741 271.378 227.225 269.899 227.225 268.075V256.785C227.225 254.961 225.741 253.482 223.911 253.482H197.226C195.396 253.482 193.913 254.961 193.913 256.785V268.075C193.913 269.899 195.396 271.378 197.226 271.378Z" fill="#E5BE9C"/>
<path d="M190.194 271.378H217.283C219.002 271.378 220.395 269.989 220.395 268.276V256.584C220.395 254.871 219.002 253.482 217.283 253.482H190.194C188.476 253.482 187.083 254.871 187.083 256.584V268.276C187.083 269.989 188.476 271.378 190.194 271.378Z" fill="#F9DDBF"/>
<path d="M196.655 308.659H226.773C228.031 308.659 229.051 307.642 229.051 306.388V275.035C229.051 273.781 228.031 272.764 226.773 272.764H196.655C195.397 272.764 194.377 273.781 194.377 275.035V306.388C194.377 307.642 195.397 308.659 196.655 308.659Z" fill="#E5BE9C"/>
<path d="M221.076 275.031V306.384C221.074 306.986 220.834 307.563 220.407 307.988C219.98 308.413 219.402 308.653 218.799 308.655H188.68C188.076 308.653 187.498 308.413 187.071 307.988C186.645 307.563 186.404 306.986 186.402 306.384V275.031C186.404 274.43 186.645 273.853 187.071 273.428C187.498 273.002 188.076 272.763 188.68 272.761H218.799C219.402 272.763 219.98 273.002 220.407 273.428C220.834 273.853 221.074 274.43 221.076 275.031Z" fill="#F9DDBF"/>
<path d="M200.699 272.761H211.711V271.374H200.699V272.761Z" fill="#ED7D2B"/>
<path d="M209.706 272.761H216.074V271.374H209.706V272.761Z" fill="#2C3A64"/>
<path d="M189.557 276.244L191.167 278.232C191.231 278.311 191.312 278.375 191.405 278.419C191.497 278.462 191.597 278.485 191.699 278.485C191.801 278.485 191.902 278.462 191.994 278.419C192.086 278.375 192.167 278.311 192.231 278.232L192.874 277.436L193.902 276.167C193.951 276.108 193.981 276.036 193.99 275.961C193.999 275.885 193.987 275.808 193.954 275.74C193.922 275.671 193.87 275.613 193.806 275.572C193.741 275.531 193.667 275.509 193.59 275.509H189.904C189.819 275.509 189.735 275.533 189.663 275.578C189.59 275.624 189.533 275.689 189.496 275.767C189.46 275.844 189.446 275.93 189.457 276.014C189.467 276.099 189.502 276.179 189.557 276.244Z" fill="#F99746"/>
<path d="M189.557 276.244L191.167 278.232C191.231 278.311 191.312 278.375 191.405 278.419C191.497 278.462 191.597 278.485 191.699 278.485C191.801 278.485 191.902 278.462 191.994 278.419C192.086 278.375 192.167 278.311 192.232 278.232L192.874 277.436C192.378 277.331 191.919 277.097 191.542 276.759C191.165 276.42 190.884 275.989 190.727 275.509H189.904C189.819 275.509 189.735 275.533 189.663 275.578C189.59 275.624 189.533 275.689 189.496 275.767C189.46 275.844 189.446 275.93 189.457 276.014C189.467 276.099 189.502 276.179 189.557 276.244Z" fill="#ED7D2B"/>
<path d="M223.301 277.419L223.124 278.084L223.088 278.215C222.838 279.144 222.93 280.133 223.348 281.001C223.766 281.869 224.482 282.559 225.366 282.947C226.924 283.632 228.423 284.442 229.85 285.369C233.681 287.87 236.431 290.894 238.055 294.388C238.493 295.335 239.247 296.102 240.188 296.559C241.129 297.015 242.199 297.133 243.217 296.892L243.462 296.832C243.887 296.731 244.285 296.54 244.63 296.273C244.975 296.006 245.259 295.668 245.463 295.283C245.667 294.9 245.787 294.477 245.813 294.044C245.84 293.61 245.772 293.177 245.615 292.772C241.638 282.469 232.135 277.461 227.168 275.484C226.788 275.333 226.381 275.264 225.972 275.281C225.564 275.298 225.164 275.402 224.798 275.585C224.433 275.767 224.11 276.025 223.852 276.342C223.594 276.658 223.406 277.025 223.301 277.419Z" fill="#F99746"/>
<path d="M223.297 277.422L223.12 278.087L223.084 278.218C222.834 279.148 222.926 280.137 223.344 281.005C223.762 281.873 224.478 282.563 225.362 282.95C226.92 283.636 228.419 284.446 229.846 285.373C233.677 287.873 236.427 290.897 238.051 294.392C238.489 295.339 239.243 296.106 240.184 296.563C241.125 297.019 242.195 297.137 243.213 296.896L243.458 296.836C243.883 296.734 244.281 296.544 244.626 296.277C244.972 296.01 245.255 295.672 245.459 295.286C243.469 295.877 241.127 295.934 239.988 293.621C237.796 289.168 231.907 284.559 227.249 282.172C222.698 279.841 223.269 277.525 223.297 277.422Z" fill="#ED7D2B"/>
<path d="M243.366 306.059C243.571 306.144 243.799 306.162 244.015 306.109C244.231 306.057 244.425 305.936 244.568 305.766C244.71 305.596 244.795 305.384 244.808 305.163C244.822 304.941 244.764 304.721 244.643 304.535C244.331 304.047 243.579 302.515 243.905 301.352C243.994 301.066 244.145 300.803 244.346 300.581C244.548 300.359 244.796 300.184 245.072 300.068C247.52 298.837 249.723 302.137 249.744 302.172C249.896 302.403 250.133 302.565 250.404 302.622C250.675 302.679 250.958 302.626 251.19 302.475C251.422 302.324 251.584 302.087 251.641 301.817C251.698 301.546 251.645 301.265 251.493 301.033C250.379 299.336 247.41 296.559 244.132 298.204C243.593 298.452 243.114 298.813 242.727 299.262C242.34 299.711 242.055 300.238 241.89 300.807C241.63 301.919 241.726 303.084 242.163 304.139C242.353 304.664 242.597 305.169 242.89 305.645C243.002 305.829 243.168 305.974 243.366 306.059Z" fill="#2C3A64"/>
<path d="M244.685 299.512C244.826 299.549 244.974 299.545 245.112 299.5C245.25 299.456 245.372 299.373 245.464 299.261C245.556 299.15 245.614 299.014 245.632 298.871C245.649 298.727 245.625 298.582 245.562 298.451L244.097 295.541C244.006 295.361 243.848 295.225 243.657 295.161C243.465 295.098 243.257 295.113 243.077 295.203C242.896 295.293 242.76 295.451 242.696 295.641C242.632 295.832 242.647 296.04 242.738 296.22L244.207 299.13C244.255 299.224 244.323 299.306 244.406 299.372C244.488 299.438 244.583 299.485 244.685 299.512Z" fill="#2C3A64"/>
<path d="M218.554 256.98H189.84V263.254H218.554V256.98Z" fill="#ED7D2B"/>
<path d="M195.406 259.604H194.75V260.258H195.406V259.604Z" fill="#EBF3FA"/>
<path d="M194.58 259.604H193.924V260.258H194.58V259.604Z" fill="#EBF3FA"/>
<path d="M194.58 260.457H193.924V261.111H194.58V260.457Z" fill="#EBF3FA"/>
<path d="M193.721 259.604H193.064V260.258H193.721V259.604Z" fill="#EBF3FA"/>
<path d="M196.24 259.604H195.584V260.258H196.24V259.604Z" fill="#EBF3FA"/>
<path d="M196.24 260.457H195.584V261.111H196.24V260.457Z" fill="#EBF3FA"/>
<path d="M197.074 259.604H196.418V260.258H197.074V259.604Z" fill="#EBF3FA"/>
<path d="M195.406 258.759H194.75V259.413H195.406V258.759Z" fill="#EBF3FA"/>
<path d="M195.406 257.978H194.75V258.632H195.406V257.978Z" fill="#EBF3FA"/>
<path d="M196.24 258.759H195.584V259.413H196.24V258.759Z" fill="#EBF3FA"/>
<path d="M194.58 258.759H193.924V259.413H194.58V258.759Z" fill="#EBF3FA"/>
<path d="M195.406 260.457H194.75V261.111H195.406V260.457Z" fill="#EBF3FA"/>
<path d="M195.406 261.316H194.75V261.97H195.406V261.316Z" fill="#EBF3FA"/>
<path d="M212.914 259.604H212.258V260.258H212.914V259.604Z" fill="#EBF3FA"/>
<path d="M212.083 259.604H211.427V260.258H212.083V259.604Z" fill="#EBF3FA"/>
<path d="M212.083 260.457H211.427V261.111H212.083V260.457Z" fill="#EBF3FA"/>
<path d="M211.225 259.604H210.568V260.258H211.225V259.604Z" fill="#EBF3FA"/>
<path d="M213.747 259.604H213.091V260.258H213.747V259.604Z" fill="#EBF3FA"/>
<path d="M213.747 260.457H213.091V261.111H213.747V260.457Z" fill="#EBF3FA"/>
<path d="M214.577 259.604H213.921V260.258H214.577V259.604Z" fill="#EBF3FA"/>
<path d="M212.914 258.759H212.258V259.413H212.914V258.759Z" fill="#EBF3FA"/>
<path d="M212.914 257.978H212.258V258.632H212.914V257.978Z" fill="#EBF3FA"/>
<path d="M213.747 258.759H213.091V259.413H213.747V258.759Z" fill="#EBF3FA"/>
<path d="M212.083 258.759H211.427V259.413H212.083V258.759Z" fill="#EBF3FA"/>
<path d="M212.914 260.457H212.258V261.111H212.914V260.457Z" fill="#EBF3FA"/>
<path d="M212.914 261.316H212.258V261.97H212.914V261.316Z" fill="#EBF3FA"/>
<path d="M194.959 253.22C194.895 253.219 194.834 253.194 194.789 253.149C194.744 253.104 194.719 253.043 194.718 252.98V246.172C194.719 246.108 194.744 246.048 194.789 246.003C194.834 245.958 194.895 245.932 194.959 245.931C195.023 245.932 195.084 245.958 195.129 246.003C195.174 246.048 195.199 246.108 195.2 246.172V252.98C195.199 253.043 195.174 253.104 195.129 253.149C195.084 253.194 195.023 253.219 194.959 253.22Z" fill="#E5BE9C"/>
<path d="M213.371 275.293C213.629 275.293 213.839 275.084 213.839 274.826C213.839 274.568 213.629 274.359 213.371 274.359C213.112 274.359 212.902 274.568 212.902 274.826C212.902 275.084 213.112 275.293 213.371 275.293Z" fill="white"/>
<path d="M215.382 275.293C215.641 275.293 215.851 275.084 215.851 274.826C215.851 274.568 215.641 274.359 215.382 274.359C215.124 274.359 214.914 274.568 214.914 274.826C214.914 275.084 215.124 275.293 215.382 275.293Z" fill="white"/>
<path d="M217.377 275.293C217.635 275.293 217.845 275.084 217.845 274.826C217.845 274.568 217.635 274.359 217.377 274.359C217.118 274.359 216.908 274.568 216.908 274.826C216.908 275.084 217.118 275.293 217.377 275.293Z" fill="white"/>
<path d="M220.104 295.074L212.378 306.413C210.249 309.539 211.931 314.516 215.116 314.516H228.849C231.829 314.516 233.574 310.095 231.868 306.873L225.837 295.534C224.503 292.973 221.69 292.75 220.104 295.074Z" fill="#F99746"/>
<path d="M229.31 293.472H222.641V297.716H227.912L229.31 293.472Z" fill="#F99746"/>
<path d="M226.639 295.074L219.501 306.413C217.532 309.539 219.09 314.516 222.034 314.516H234.731C237.484 314.516 239.098 310.095 237.519 306.873L231.96 295.534C230.701 292.973 228.101 292.75 226.639 295.074Z" fill="#ED7D2B"/>
<path d="M224.308 312.104C225.59 312.104 226.628 310.769 226.628 309.122C226.628 307.475 225.59 306.141 224.308 306.141C223.027 306.141 221.988 307.475 221.988 309.122C221.988 310.769 223.027 312.104 224.308 312.104Z" fill="#F99746"/>
<path d="M232.549 312.104C233.83 312.104 234.869 310.769 234.869 309.122C234.869 307.475 233.83 306.141 232.549 306.141C231.267 306.141 230.229 307.475 230.229 309.122C230.229 310.769 231.267 312.104 232.549 312.104Z" fill="#F99746"/>
<path d="M228.377 303.99C229.658 303.99 230.697 302.655 230.697 301.009C230.697 299.362 229.658 298.027 228.377 298.027C227.095 298.027 226.057 299.362 226.057 301.009C226.057 302.655 227.095 303.99 228.377 303.99Z" fill="#F99746"/>
</svg>
