<svg width="416" height="250" viewBox="0 0 416 250" fill="none" xmlns="http://www.w3.org/2000/svg">
<path d="M152.294 242.923C46.4916 236.766 -38.3556 124.878 17.9419 59.9409C61.6078 9.58223 119.825 82.8865 174.127 45.9522C257.666 -10.8653 393.007 -21.1951 410.92 50.427C428.834 122.049 369.495 233.966 325.271 240.68C281.048 247.394 152.294 242.923 152.294 242.923Z" fill="#E7F3FE"/>
<path d="M166.009 91.2791C167.127 118.139 166.851 132.688 157.052 143.877C147.254 155.066 119.826 152.273 119.826 152.273C119.826 152.273 117.122 191.81 78.7745 193.495C40.4267 195.181 34.9073 144.254 64.9672 131.197C93.5636 118.768 102.661 115.156 112.549 84.3781C121.588 56.2677 149.775 61.6231 156.495 73.3726C163.215 85.1222 166.009 91.2791 166.009 91.2791Z" fill="#303C60"/>
<path d="M153.413 228.374C153.413 228.374 171.514 231.917 172.445 231.731C173.376 231.544 193.156 222.777 195.209 224.082C197.262 225.387 209.204 230.422 211.818 231.544C214.432 232.665 210.325 233.035 208.272 233.035C206.219 233.035 194.465 228.187 193.17 229.118C191.876 230.048 203.433 231.914 203.433 232.661C203.433 233.409 172.456 240.497 170.59 240.497C168.723 240.497 154.355 239.192 154.355 239.192L153.413 228.374Z" fill="#E38540"/>
<path d="M138.395 129.561C148.146 131.473 153.881 141.781 155.747 150.821C157.613 159.86 138.395 129.561 138.395 129.561Z" fill="#6791C9"/>
<path d="M122.067 122.613C122.067 122.613 103.315 135.193 93.2364 141.357C83.1577 147.521 96.8752 213.821 100.234 238.441C103.592 263.061 161.81 240.68 161.81 240.68C161.81 240.68 157.905 219.981 162.939 186.684C166.534 162.836 153.327 147.888 145.773 137.537C126.691 111.41 122.067 122.613 122.067 122.613Z" fill="#75A1DE"/>
<path d="M103.609 141.641C125.162 167.94 132.447 172.857 127.122 190.602C122.922 204.591 121.523 209.626 120.685 214.385C119.848 219.144 160.709 211.308 160.709 211.308L160.421 226.695C160.421 226.695 128.222 242.089 112.548 245.159C96.8747 248.228 87.0693 244.605 87.0693 244.605L103.609 141.641Z" fill="#6791C9"/>
<path d="M373.472 246.977H118.474C117.59 246.977 116.742 246.626 116.117 246.001C115.492 245.377 115.141 244.529 115.141 243.645C115.141 242.762 115.492 241.914 116.117 241.289C116.742 240.665 117.59 240.314 118.474 240.314H373.472C374.356 240.314 375.204 240.665 375.829 241.289C376.454 241.914 376.805 242.762 376.805 243.645C376.805 244.529 376.454 245.377 375.829 246.001C375.204 246.626 374.356 246.977 373.472 246.977V246.977Z" fill="#2E5B9A"/>
<path d="M128.97 96.1277L119.262 124.853C119.262 124.853 129.905 153.671 138.847 147.234C141.904 145.038 137.729 127.649 137.729 127.649L144.259 104.333L128.97 96.1277Z" fill="#F09959"/>
<path d="M97.9931 140.52C84.5956 142.008 83.4378 160.105 77.282 190.321C71.1262 220.538 72.9672 240.483 75.8833 244.321C82.8805 253.555 161.532 221.379 171.327 221.66C178.087 221.854 172.445 210.467 172.445 210.467L97.4358 221.936C97.4358 221.936 108.072 186.964 108.072 169.058C108.072 151.152 103.034 139.959 97.9931 140.52Z" fill="#F09959"/>
<path d="M167.688 211.028C175.526 209.069 187 204.594 189.24 206.549C191.48 208.505 200.718 222.497 203.796 226.415C206.873 230.332 202.397 227.256 199.038 224.175C197.134 222.407 195.073 220.815 192.879 219.42C192.879 219.42 188.679 223.338 184.764 225.577C180.848 227.816 179.446 223.338 172.729 222.22C166.012 221.102 149.217 226.975 149.217 226.975L167.688 211.028Z" fill="#F09959"/>
<path d="M99.4887 138.281C91.2797 138.64 84.9334 145.555 82.6933 156.187C80.4532 166.819 73.9234 200.579 73.9234 200.579C73.9234 200.579 72.6182 201.51 86.2386 203.936C99.859 206.362 111.049 203.577 111.049 203.577C111.049 203.577 113.846 184.366 113.102 171.121C112.358 157.876 109.362 145.368 104.526 141.091C99.69 136.814 99.4887 138.281 99.4887 138.281Z" fill="#75A1DE"/>
<path d="M137.74 127.649L144.27 104.333L128.97 96.1277L126.622 103.047C126.115 126.211 132.048 133.957 136.05 136.789C137.298 137.673 138.373 136.99 139.286 135.546C138.628 131.348 137.74 127.649 137.74 127.649Z" fill="#E38540"/>
<path d="M168.81 98.8341C168.81 111.313 167.321 126.614 156.495 126.254C139.699 125.694 129.117 112.647 129.117 100.168C129.117 87.6884 137.898 77.5742 148.728 77.5742C159.558 77.5742 168.81 86.3549 168.81 98.8341Z" fill="#F09959"/>
<path d="M294.136 240.292H231.18L257.069 183.345C257.443 182.534 258.041 181.847 258.794 181.365C259.547 180.884 260.421 180.628 261.315 180.628H318.45C318.754 180.628 319.054 180.705 319.32 180.851C319.587 180.997 319.813 181.207 319.978 181.463C320.142 181.718 320.24 182.011 320.262 182.314C320.284 182.617 320.23 182.921 320.104 183.198L294.136 240.292Z" fill="#9BD6E8"/>
<path d="M294 240.292H177.859C177.859 238.349 178.631 236.486 180.006 235.112C181.38 233.739 183.244 232.967 185.187 232.967H294V240.292Z" fill="#9BD6E8"/>
<path d="M318.45 180.628H268.111C267.217 180.63 266.343 180.888 265.592 181.372C264.84 181.855 264.244 182.544 263.872 183.356L237.965 240.292H294.136L320.104 183.187C320.228 182.911 320.28 182.608 320.257 182.306C320.233 182.005 320.135 181.714 319.971 181.46C319.807 181.205 319.582 180.996 319.316 180.851C319.051 180.706 318.753 180.629 318.45 180.628Z" fill="#7BCEE8"/>
<path d="M150.353 73.2325C162.248 72.3914 169.292 83.2568 171.345 92.7707C172.826 99.6357 172.093 100.976 172.093 100.976C172.093 100.976 170.788 102.842 161.457 103.402C152.126 103.963 151.008 103.762 151.008 103.762L150.447 92.9432L147.649 103.388C147.649 103.388 146.157 105.44 140.372 102.64C134.586 99.8405 131.976 90.5171 131.976 90.5171C131.976 90.5171 130.671 84.3602 135.147 80.2592C139.624 76.1582 150.353 73.2325 150.353 73.2325Z" fill="#303C60"/>
<path d="M141.473 101.29C142.614 93.7409 138.437 86.851 132.144 85.9008C125.851 84.9505 119.824 90.2997 118.684 97.8485C117.543 105.397 121.72 112.287 128.013 113.237C134.306 114.188 140.333 108.838 141.473 101.29Z" fill="#D54A41"/>
<path d="M136.93 101.088C137.987 94.0989 134.75 87.815 129.702 87.0527C124.654 86.2904 119.705 91.3385 118.649 98.3279C117.593 105.317 120.829 111.601 125.877 112.364C130.925 113.126 135.874 108.078 136.93 101.088Z" fill="#F39892"/>
<path d="M129.212 99.525C129.792 95.6858 128.641 92.3286 126.64 92.0265C124.639 91.7244 122.547 94.5917 121.967 98.4309C121.386 102.27 122.538 105.627 124.539 105.929C126.54 106.231 128.632 103.364 129.212 99.525Z" fill="#F2E5DE"/>
<path d="M128.923 86.0998C134.381 65.8139 153.222 68.772 157.987 71.597C161.999 73.9764 162.557 77.3478 162.557 77.3478C162.557 77.3478 157.379 73.1498 148.562 74.6917C140.195 76.1509 135.219 81.0786 134.521 86.5526C134.173 89.3022 128.923 86.0998 128.923 86.0998Z" fill="#D54A41"/>
<path d="M45.1864 151.583H45.1433C45.0868 151.577 45.032 151.561 44.9819 151.534C44.9319 151.508 44.8875 151.472 44.8515 151.428C44.8154 151.384 44.7883 151.334 44.7718 151.28C44.7552 151.225 44.7495 151.168 44.7549 151.112C45.2439 145.983 47.8113 140.71 51.975 136.264C56.6854 131.232 63.3913 127.279 71.3665 124.813C89.1327 119.321 104.634 112.338 114.374 82.3797C114.39 82.3233 114.416 82.2706 114.453 82.2248C114.489 82.179 114.534 82.141 114.585 82.1132C114.637 82.0854 114.693 82.0683 114.752 82.0629C114.81 82.0576 114.868 82.0642 114.924 82.0822C114.98 82.1003 115.031 82.1294 115.075 82.1679C115.119 82.2064 115.155 82.2534 115.18 82.3061C115.205 82.3588 115.22 82.416 115.222 82.4744C115.224 82.5328 115.215 82.5911 115.194 82.6457C110.718 96.4152 104.627 106.439 96.5686 113.29C89.46 119.336 81.4668 122.595 71.6218 125.636C63.7904 128.059 57.2139 131.937 52.6079 136.854C48.5699 141.167 46.0889 146.253 45.6143 151.195C45.6036 151.301 45.554 151.399 45.475 151.471C45.3959 151.543 45.2931 151.583 45.1864 151.583V151.583Z" fill="#303C60"/>
<path d="M53.2123 130.88C53.122 130.881 53.0339 130.853 52.9602 130.801C52.8866 130.748 52.8312 130.674 52.8018 130.589C52.7724 130.504 52.7706 130.411 52.7965 130.325C52.8224 130.239 52.8747 130.162 52.9462 130.107C58.5551 126.134 64.8988 123.317 71.6077 121.819C92.682 117.179 106.845 104.509 112.523 85.1867C112.558 85.0808 112.634 84.9928 112.733 84.9413C112.832 84.8897 112.947 84.8786 113.054 84.9103C113.161 84.9419 113.252 85.0139 113.307 85.111C113.362 85.2082 113.378 85.3229 113.35 85.4311C109.833 97.3675 103.217 106.788 93.6816 113.43C87.5438 117.707 80.1762 120.813 71.7875 122.66C65.2087 124.131 58.9877 126.893 53.4855 130.787C53.408 130.849 53.3114 130.882 53.2123 130.88V130.88Z" fill="#303C60"/>
<path d="M323.413 124.687H266.569C266.036 124.687 265.759 124.256 265.954 123.724L277.485 92.059C277.591 91.7903 277.77 91.5571 278.003 91.3866C278.236 91.2161 278.513 91.1152 278.801 91.0957H335.645C336.177 91.0957 336.454 91.527 336.26 92.059L324.743 123.72C324.637 123.992 324.455 124.227 324.219 124.399C323.984 124.57 323.704 124.67 323.413 124.687V124.687Z" fill="#9EC8FF"/>
<path d="M322.726 123.206H268.331C268.222 123.212 268.114 123.189 268.018 123.14C267.922 123.09 267.84 123.016 267.782 122.924C267.724 122.833 267.691 122.727 267.687 122.619C267.683 122.511 267.708 122.403 267.759 122.308L278.258 93.4749C278.358 93.2244 278.526 93.007 278.744 92.8475C278.961 92.6879 279.219 92.5928 279.488 92.5728H333.88C333.989 92.5666 334.097 92.5895 334.194 92.6393C334.291 92.6891 334.373 92.7638 334.431 92.8558C334.489 92.9478 334.522 93.0537 334.526 93.1626C334.529 93.2714 334.504 93.3793 334.451 93.4749L323.952 122.308C323.852 122.557 323.684 122.773 323.468 122.932C323.251 123.091 322.994 123.186 322.726 123.206Z" fill="white"/>
<path d="M321.745 121.323H270.686C270.125 121.323 269.838 120.87 270.043 120.31L279.079 95.4447C279.189 95.1626 279.378 94.9176 279.622 94.7382C279.867 94.5588 280.157 94.4523 280.459 94.4312H331.518C332.079 94.4312 332.366 94.884 332.161 95.4447L323.126 120.317C323.014 120.598 322.825 120.841 322.58 121.019C322.336 121.197 322.046 121.303 321.745 121.323V121.323Z" fill="#9EC8FF"/>
<path d="M310.436 107.888C308.559 113.038 302.863 117.215 297.711 117.215C292.558 117.215 289.901 113.038 291.778 107.888C293.655 102.737 299.35 98.5608 304.503 98.5608C309.656 98.5608 312.313 102.737 310.436 107.888Z" fill="white"/>
<path d="M309.141 107.888C307.523 112.338 302.619 115.932 298.182 115.932C293.745 115.932 291.458 112.338 293.072 107.902C294.687 103.467 299.595 99.8728 304.032 99.8728C308.469 99.8728 310.756 103.453 309.141 107.888Z" fill="#9EC8FF"/>
<path d="M305.223 107.46L301.667 109.153L298.114 110.85L299.348 107.46L300.584 104.071L302.904 105.764L305.223 107.46Z" fill="white"/>
<path d="M237.368 89.0649H232.885C232.463 89.0801 232.044 88.9926 231.664 88.8097C231.283 88.6268 230.953 88.3542 230.702 88.0153C230.454 87.6292 230.304 87.1888 230.264 86.7318C230.224 86.2748 230.295 85.8149 230.472 85.3916L232.101 80.9168C232.73 79.188 234.596 77.8293 236.347 77.8293H240.824C241.246 77.8141 241.665 77.9017 242.045 78.0845C242.425 78.2674 242.755 78.54 243.006 78.8789C243.254 79.265 243.405 79.7054 243.445 80.1624C243.485 80.6194 243.413 81.0793 243.237 81.5026L241.608 85.9774C240.964 87.7063 239.116 89.0649 237.368 89.0649ZM236.354 79.551C235.333 79.551 234.107 80.4639 233.73 81.5026L232.101 85.9774C232.022 86.1413 231.983 86.3213 231.987 86.503C231.991 86.6846 232.037 86.8629 232.122 87.0234C232.216 87.1332 232.335 87.2192 232.469 87.2742C232.603 87.3292 232.748 87.3516 232.892 87.3396H237.368C238.408 87.3396 239.609 86.4447 239.993 85.388L241.622 80.9132C241.701 80.7493 241.74 80.5693 241.736 80.3877C241.732 80.206 241.686 80.0278 241.601 79.8673C241.507 79.7574 241.388 79.6714 241.254 79.6164C241.12 79.5615 240.975 79.539 240.831 79.551H236.351H236.354Z" fill="#9CD499"/>
<path d="M230.436 108.089H225.96C225.538 108.104 225.119 108.017 224.739 107.834C224.359 107.651 224.029 107.378 223.777 107.04C223.529 106.654 223.379 106.213 223.339 105.756C223.299 105.299 223.37 104.839 223.547 104.416L225.176 99.941C225.805 98.2122 227.671 96.8572 229.422 96.8572H233.899C234.321 96.8419 234.74 96.9295 235.12 97.1123C235.5 97.2952 235.83 97.5678 236.082 97.9067C236.329 98.2928 236.48 98.7333 236.52 99.1903C236.56 99.6473 236.489 100.107 236.312 100.53L234.683 105.005C234.054 106.734 232.188 108.089 230.436 108.089ZM229.422 98.5752C228.401 98.5752 227.175 99.4882 226.798 100.527L225.169 105.005C225.09 105.169 225.051 105.349 225.055 105.531C225.059 105.712 225.105 105.891 225.19 106.051C225.284 106.161 225.403 106.247 225.537 106.302C225.671 106.357 225.816 106.379 225.96 106.368H230.436C231.476 106.368 232.677 105.476 233.061 104.416L234.69 99.941C234.769 99.7772 234.808 99.5972 234.804 99.4155C234.8 99.2338 234.754 99.0556 234.669 98.8951C234.575 98.7852 234.456 98.6993 234.322 98.6443C234.188 98.5893 234.043 98.5669 233.899 98.5788H229.422V98.5752Z" fill="#9CD499"/>
<path d="M223.51 127.113H219.03C218.608 127.129 218.189 127.041 217.809 126.858C217.429 126.675 217.099 126.403 216.848 126.064C216.6 125.678 216.449 125.237 216.409 124.78C216.369 124.323 216.441 123.864 216.617 123.44L218.246 118.965C218.876 117.237 220.742 115.878 222.493 115.878H226.973C227.395 115.863 227.814 115.95 228.194 116.133C228.574 116.316 228.904 116.589 229.156 116.927C229.403 117.314 229.554 117.754 229.594 118.211C229.634 118.668 229.562 119.128 229.386 119.551L227.757 124.026C227.128 125.758 225.261 127.113 223.51 127.113ZM222.496 117.6C221.457 117.6 220.256 118.491 219.872 119.551L218.243 124.026C218.164 124.19 218.125 124.37 218.129 124.552C218.133 124.733 218.179 124.911 218.264 125.072C218.358 125.182 218.477 125.268 218.611 125.323C218.745 125.378 218.89 125.4 219.034 125.388H223.51C224.55 125.388 225.75 124.497 226.135 123.437L227.764 118.962C227.843 118.798 227.882 118.618 227.878 118.436C227.874 118.255 227.828 118.076 227.742 117.916C227.648 117.806 227.53 117.72 227.396 117.665C227.262 117.61 227.117 117.588 226.973 117.6H222.496V117.6Z" fill="#9EC8FF"/>
<path d="M274.21 85.4024H249.594C249.492 85.4093 249.39 85.3886 249.299 85.3426C249.208 85.2966 249.131 85.2269 249.076 85.1408C249.021 85.0548 248.991 84.9555 248.988 84.8536C248.984 84.7516 249.009 84.6507 249.058 84.5613C249.15 84.3273 249.307 84.1241 249.51 83.9752C249.713 83.8264 249.954 83.738 250.205 83.7203H274.835C274.937 83.7134 275.039 83.734 275.13 83.7801C275.221 83.8261 275.298 83.8958 275.353 83.9819C275.408 84.0679 275.439 84.1671 275.442 84.2691C275.445 84.3711 275.421 84.472 275.371 84.5613C275.278 84.7975 275.119 85.0022 274.913 85.1511C274.707 85.3001 274.463 85.3873 274.21 85.4024V85.4024Z" fill="#9EC8FF"/>
<path d="M272.987 88.7594H248.357C248.256 88.7652 248.155 88.7439 248.065 88.6978C247.975 88.6517 247.899 88.5823 247.844 88.4969C247.79 88.4116 247.76 88.3132 247.756 88.2122C247.753 88.1111 247.776 88.0109 247.824 87.9219C247.917 87.6879 248.073 87.4847 248.276 87.3358C248.479 87.187 248.72 87.0986 248.971 87.0809H273.602C273.704 87.074 273.805 87.0946 273.896 87.1407C273.988 87.1867 274.065 87.2564 274.119 87.3425C274.174 87.4285 274.205 87.5277 274.208 87.6297C274.211 87.7317 274.187 87.8326 274.138 87.9219C274.044 88.1559 273.887 88.3587 273.683 88.5069C273.48 88.6551 273.238 88.7426 272.987 88.7594V88.7594Z" fill="#9EC8FF"/>
<path d="M267.792 103.029H243.161C243.06 103.035 242.958 103.014 242.868 102.967C242.777 102.921 242.701 102.851 242.647 102.765C242.592 102.679 242.562 102.58 242.559 102.479C242.556 102.377 242.58 102.277 242.629 102.188C242.721 101.954 242.877 101.751 243.08 101.602C243.282 101.454 243.522 101.365 243.773 101.347H268.403C268.505 101.34 268.607 101.36 268.698 101.406C268.789 101.452 268.866 101.522 268.921 101.608C268.975 101.694 269.006 101.793 269.009 101.895C269.012 101.997 268.988 102.098 268.939 102.188C268.846 102.422 268.69 102.625 268.487 102.774C268.284 102.922 268.043 103.011 267.792 103.029V103.029Z" fill="#9EC8FF"/>
<path d="M266.569 106.386H241.939C241.838 106.391 241.737 106.37 241.647 106.324C241.557 106.278 241.481 106.209 241.426 106.123C241.372 106.038 241.342 105.939 241.338 105.838C241.335 105.737 241.358 105.637 241.406 105.548C241.499 105.315 241.655 105.112 241.857 104.963C242.059 104.814 242.299 104.725 242.55 104.707H267.18C267.282 104.701 267.383 104.722 267.474 104.768C267.564 104.815 267.641 104.884 267.695 104.97C267.749 105.056 267.78 105.155 267.783 105.257C267.786 105.359 267.762 105.459 267.712 105.548C267.62 105.781 267.463 105.983 267.261 106.131C267.059 106.279 266.819 106.368 266.569 106.386Z" fill="#9EC8FF"/>
<path d="M260.662 122.613H236.031C235.929 122.62 235.828 122.6 235.737 122.554C235.646 122.508 235.569 122.438 235.514 122.352C235.459 122.266 235.428 122.167 235.425 122.065C235.422 121.963 235.446 121.862 235.496 121.772C235.588 121.539 235.745 121.337 235.947 121.189C236.149 121.041 236.389 120.953 236.639 120.935H261.269C261.371 120.928 261.472 120.949 261.562 120.995C261.653 121.041 261.73 121.11 261.784 121.196C261.839 121.281 261.87 121.38 261.873 121.481C261.877 121.583 261.854 121.683 261.805 121.772C261.713 122.006 261.557 122.209 261.355 122.358C261.152 122.506 260.912 122.595 260.662 122.613Z" fill="#9EC8FF"/>
<path d="M259.438 125.97H234.808C234.706 125.977 234.605 125.956 234.515 125.91C234.424 125.864 234.347 125.795 234.293 125.71C234.238 125.624 234.207 125.525 234.203 125.424C234.2 125.323 234.223 125.222 234.272 125.133C234.364 124.899 234.521 124.696 234.724 124.547C234.927 124.398 235.168 124.31 235.419 124.292H260.049C260.151 124.285 260.253 124.306 260.344 124.352C260.435 124.398 260.512 124.467 260.567 124.553C260.622 124.639 260.652 124.739 260.655 124.841C260.659 124.943 260.634 125.044 260.585 125.133C260.492 125.366 260.335 125.569 260.132 125.717C259.929 125.865 259.689 125.953 259.438 125.97V125.97Z" fill="#9EC8FF"/>
<path d="M236.322 86.5454C236.15 86.5458 235.981 86.4947 235.838 86.3986C235.695 86.3025 235.585 86.1659 235.52 86.0063L233.83 81.8082C233.783 81.7023 233.757 81.5879 233.755 81.4719C233.753 81.3558 233.774 81.2406 233.818 81.133C233.861 81.0254 233.926 80.9277 234.008 80.8457C234.09 80.7637 234.188 80.6991 234.296 80.6558C234.404 80.6125 234.519 80.5913 234.635 80.5936C234.751 80.5959 234.865 80.6216 234.971 80.6691C235.077 80.7167 235.172 80.7851 235.251 80.8703C235.33 80.9554 235.391 81.0556 235.43 81.1649L236.696 84.3062L246.688 76.6074C246.87 76.4746 247.096 76.4181 247.319 76.4498C247.542 76.4815 247.743 76.5989 247.881 76.7771C248.018 76.9552 248.081 77.18 248.055 77.4034C248.029 77.6269 247.916 77.8313 247.742 77.9732L236.847 86.3657C236.696 86.4818 236.512 86.5449 236.322 86.5454V86.5454Z" fill="#F37168"/>
<path d="M229.393 105.57C229.221 105.57 229.053 105.519 228.91 105.423C228.767 105.327 228.656 105.19 228.592 105.031L226.905 100.836C226.858 100.73 226.832 100.616 226.83 100.5C226.828 100.384 226.849 100.268 226.893 100.161C226.936 100.053 227.001 99.9555 227.083 99.8735C227.165 99.7915 227.263 99.7269 227.371 99.6836C227.479 99.6403 227.594 99.6192 227.71 99.6215C227.826 99.6238 227.941 99.6494 228.047 99.697C228.152 99.7445 228.248 99.8129 228.326 99.8981C228.405 99.9833 228.466 100.083 228.505 100.193L229.771 103.334L239.763 95.6352C239.945 95.5025 240.171 95.4459 240.394 95.4776C240.617 95.5093 240.819 95.6267 240.956 95.8049C241.093 95.983 241.156 96.2078 241.13 96.4312C241.104 96.6547 240.992 96.8591 240.817 97.001L229.922 105.394C229.77 105.509 229.584 105.571 229.393 105.57V105.57Z" fill="#F37168"/>
<path d="M392.256 63.2979H297.65L300.099 56.5839H394.701L392.256 63.2979Z" fill="#9EC8FF"/>
<path d="M388.589 73.3726H293.986L296.428 66.6586H391.034L388.589 73.3726Z" fill="#9EC8FF"/>
<path d="M283.728 153.89H214.256C213.35 153.89 212.875 153.15 213.206 152.241C213.388 151.782 213.695 151.383 214.093 151.091C214.492 150.799 214.964 150.626 215.457 150.591H284.929C285.835 150.591 286.31 151.335 285.979 152.241C285.797 152.7 285.49 153.098 285.091 153.39C284.693 153.682 284.22 153.855 283.728 153.89Z" fill="#9EC8FF"/>
<path d="M281.059 161.219H211.587C210.681 161.219 210.206 160.475 210.537 159.569C210.719 159.11 211.026 158.712 211.425 158.42C211.823 158.128 212.295 157.955 212.788 157.919H282.26C283.166 157.919 283.641 158.663 283.31 159.569C283.128 160.028 282.821 160.427 282.422 160.718C282.024 161.01 281.552 161.184 281.059 161.219V161.219Z" fill="#9EC8FF"/>
<path d="M346.094 223.223C346.094 222.058 360.118 183.27 350.643 158.301C343.998 140.818 342.948 119.842 342.948 119.842C342.948 119.842 330.004 138.374 338.752 166.697C344.146 184.129 346.332 188.959 346.799 194.088C347.267 199.217 344.699 224.858 344.699 224.858L346.094 223.223Z" fill="#9CD499"/>
<path d="M344.696 225.286C344.636 225.286 344.576 225.273 344.521 225.249C344.466 225.224 344.417 225.188 344.377 225.144C344.336 225.099 344.306 225.046 344.287 224.989C344.268 224.932 344.262 224.871 344.268 224.812C344.293 224.556 346.824 199.152 346.368 194.124C346.062 190.778 345.03 187.615 342.772 180.685C341.611 177.134 340.169 172.717 338.346 166.822C333.797 152.086 335.192 140.049 337.159 132.537C339.295 124.382 342.466 119.785 342.599 119.598C342.651 119.524 342.724 119.469 342.809 119.439C342.894 119.409 342.986 119.407 343.072 119.432C343.158 119.457 343.235 119.508 343.291 119.578C343.346 119.649 343.379 119.735 343.383 119.824C343.383 120.033 344.505 140.94 351.053 158.157C354.602 167.502 355.314 179.808 353.171 194.753C351.459 206.686 348.406 216.886 347.105 221.243C346.806 222.235 346.551 223.094 346.533 223.252C346.533 223.349 346.496 223.443 346.429 223.514L345.03 225.146C344.988 225.192 344.936 225.229 344.878 225.253C344.821 225.277 344.758 225.288 344.696 225.286V225.286ZM342.607 121.208C340.559 124.848 339.003 128.744 337.979 132.792C336.048 140.189 334.682 152.05 339.166 166.578C340.985 172.469 342.427 176.883 343.585 180.427C345.872 187.421 346.914 190.613 347.227 194.056C347.633 198.541 345.789 218.137 345.26 223.528L345.688 223.032C345.738 222.777 345.889 222.263 346.274 220.984C354.382 193.891 355.716 172.85 350.229 158.444C344.606 143.643 342.97 126.139 342.603 121.212L342.607 121.208Z" fill="#74B570"/>
<path d="M349.126 227.188C347.026 184.057 357.288 160.518 378.276 141.868C399.264 123.217 400.21 118.322 400.21 118.322C400.21 118.322 396.945 154.688 384.817 167.275C372.688 179.862 354.973 189.2 352.402 195.716C349.831 202.233 350.769 224.158 350.769 224.158L349.137 228.111V227.18L349.126 227.188Z" fill="#9CD499"/>
<path d="M346.558 230.915C346.317 230.228 350.991 190.587 368.013 188.258C385.035 185.929 389.001 189.89 400.662 188.025C405.684 187.223 410.608 185.898 415.354 184.071C415.354 184.071 410.938 195.307 395.764 199.922C385.039 203.185 371.044 197.823 362.882 199.221C354.72 200.619 350.524 218.101 350.524 218.101L349.125 227.191L346.558 230.915Z" fill="#9CD499"/>
<path d="M348.892 225.053C348.784 225.052 348.681 225.012 348.602 224.939C348.523 224.867 348.474 224.768 348.464 224.661C348.439 224.38 346.022 196.543 357.845 175.226C363.958 164.217 370.62 157.833 377.067 151.662C383.076 145.911 388.75 140.484 393.05 131.894C393.101 131.791 393.191 131.713 393.299 131.677C393.408 131.641 393.526 131.649 393.629 131.7C393.731 131.751 393.809 131.84 393.846 131.949C393.882 132.057 393.874 132.176 393.823 132.278C389.465 141.005 383.712 146.483 377.661 152.287C371.26 158.398 364.641 164.749 358.604 175.65C346.914 196.73 349.302 224.312 349.327 224.589C349.332 224.645 349.327 224.702 349.31 224.756C349.293 224.811 349.266 224.861 349.23 224.905C349.194 224.949 349.15 224.985 349.1 225.011C349.05 225.038 348.995 225.054 348.938 225.06H348.899L348.892 225.053Z" fill="#74B570"/>
<path d="M347.727 219.446C347.66 219.445 347.595 219.43 347.535 219.4C347.475 219.37 347.423 219.327 347.383 219.273C347.343 219.22 347.316 219.158 347.304 219.093C347.292 219.027 347.295 218.96 347.314 218.896C351.779 203.516 356.9 194.541 363.437 190.656C369.279 187.18 375.302 188.248 381.71 189.376C383.274 189.653 384.892 189.937 386.496 190.149C400.389 191.971 407.164 188.596 407.232 188.56C407.333 188.514 407.447 188.509 407.552 188.545C407.657 188.581 407.744 188.656 407.795 188.755C407.846 188.853 407.857 188.967 407.825 189.074C407.794 189.18 407.723 189.27 407.627 189.326C407.347 189.47 400.58 192.863 386.384 191.001C384.763 190.789 383.148 190.501 381.562 190.225C375.331 189.125 369.448 188.068 363.879 191.396C357.543 195.163 352.542 203.976 348.144 219.136C348.118 219.226 348.063 219.305 347.987 219.361C347.912 219.417 347.821 219.446 347.727 219.446V219.446Z" fill="#74B570"/>
<path d="M369.999 159.666C369.909 159.666 369.821 159.638 369.748 159.585C369.675 159.533 369.62 159.459 369.591 159.374C369.562 159.288 369.561 159.196 369.587 159.11C369.613 159.024 369.665 158.948 369.736 158.893C375.692 154.673 382.467 151.747 389.624 150.303C389.68 150.293 389.737 150.293 389.792 150.305C389.848 150.316 389.901 150.338 389.948 150.37C389.995 150.402 390.035 150.443 390.066 150.49C390.097 150.538 390.118 150.591 390.129 150.647C390.14 150.702 390.139 150.759 390.128 150.815C390.116 150.871 390.094 150.923 390.062 150.97C390.03 151.017 389.989 151.057 389.942 151.088C389.894 151.119 389.841 151.141 389.786 151.152C382.76 152.566 376.109 155.436 370.261 159.576C370.186 159.635 370.094 159.666 369.999 159.666Z" fill="#74B570"/>
<path d="M356.82 178.432C356.745 178.43 356.672 178.408 356.608 178.369C356.543 178.33 356.491 178.275 356.454 178.209C356.418 178.143 356.399 178.069 356.4 177.994C356.402 177.919 356.422 177.846 356.46 177.781C362.534 167.545 369.646 164.964 385.154 160.105C385.208 160.088 385.265 160.082 385.321 160.087C385.378 160.092 385.433 160.108 385.483 160.134C385.533 160.16 385.578 160.196 385.614 160.239C385.651 160.283 385.678 160.333 385.695 160.387C385.712 160.441 385.718 160.498 385.713 160.554C385.708 160.611 385.692 160.666 385.666 160.716C385.64 160.766 385.604 160.811 385.561 160.847C385.517 160.883 385.467 160.911 385.413 160.928C370.124 165.719 363.12 168.257 357.205 178.22C357.165 178.286 357.109 178.341 357.041 178.378C356.974 178.416 356.897 178.434 356.82 178.432V178.432Z" fill="#74B570"/>
<path d="M353.049 241.521H342.621C340.839 241.521 339.112 240.9 337.739 239.764C336.365 238.629 335.43 237.05 335.096 235.3L331.737 217.745H363.937L360.578 235.3C360.244 237.05 359.308 238.63 357.934 239.765C356.56 240.901 354.832 241.522 353.049 241.521V241.521Z" fill="#F39892"/>
<path d="M363.116 222.22H332.801C332.573 222.22 332.353 222.129 332.191 221.967C332.029 221.806 331.938 221.586 331.938 221.358C331.938 221.129 332.029 220.909 332.191 220.748C332.353 220.586 332.573 220.495 332.801 220.495H363.116C363.345 220.495 363.565 220.586 363.727 220.748C363.889 220.909 363.979 221.129 363.979 221.358C363.979 221.586 363.889 221.806 363.727 221.967C363.565 222.129 363.345 222.22 363.116 222.22V222.22Z" fill="#D54A41"/>
</svg>
