<svg width="274" height="136" viewBox="0 0 274 136" fill="none" xmlns="http://www.w3.org/2000/svg">
<g style="mix-blend-mode:multiply">
<path d="M237.568 -96.7128C257.098 -84.1342 281.682 -83.4113 303.545 -79.016C323.898 -74.9099 360.992 -56.9528 375.811 -37.4921C401.424 -3.8624 399.892 69.4984 361.175 93.0363C316.763 119.957 260.963 95.2629 212.824 87.253C138.545 74.9057 122.582 122.037 50.3394 134.5C22.7137 139.271 -16.7124 122.733 -30.2508 87.2529C-47.4254 42.0856 -24.6479 21.6129 -50.3984 -21.2122C-60.0262 -37.2318 -122.367 -104.636 -58.7455 -131.094C-35.8765 -140.608 -12.596 -146.767 10.6846 -153.794C33.0962 -160.56 54.8675 -168.657 74.9922 -183.057C101.84 -202.258 131.364 -230.914 162.283 -211.569C202.052 -186.758 201.298 -120.106 237.568 -96.7128Z" fill="#8BB1FC"/>
</g>
</svg>
