<svg width="32" height="33" viewBox="0 0 32 33" fill="none" xmlns="http://www.w3.org/2000/svg">
<g clip-path="url(#clip0_64_1273)">
<path d="M16 32.2988C24.8366 32.2988 32 25.1354 32 16.2988C32 7.46227 24.8366 0.298828 16 0.298828C7.16344 0.298828 0 7.46227 0 16.2988C0 25.1354 7.16344 32.2988 16 32.2988Z" fill="#53BEFB"/>
<path d="M9.30871 16.2148L12.5289 17.3085L20.1741 12.6346C20.2849 12.5668 20.3985 12.7173 20.3029 12.8053L14.5149 18.1329L14.2997 21.1155C14.2833 21.3424 14.5566 21.4687 14.7188 21.3092L16.5009 19.5568L19.7588 22.023C20.1099 22.2889 20.6184 22.1015 20.7131 21.6713L22.9816 11.3714C23.111 10.7838 22.5352 10.288 21.9734 10.5031L9.29233 15.359C8.89453 15.5114 8.90536 16.0779 9.30871 16.2148Z" fill="white"/>
</g>
<defs>
<clipPath id="clip0_64_1273">
<rect width="32" height="32" fill="white" transform="translate(0 0.298828)"/>
</clipPath>
</defs>
</svg>
