<svg width="83" height="16" viewBox="0 0 83 16" fill="none" xmlns="http://www.w3.org/2000/svg">
<g clip-path="url(#clip0_4_556)">
<path d="M-156.523 40.5142L-155.771 42.3675L-156.523 40.5142ZM152.951 40.5142L151.792 42.1447C151.928 42.2408 152.074 42.3197 152.229 42.3795L152.951 40.5142ZM-147.373 521.086L-148.011 522.982L-148.011 522.982L-147.373 521.086ZM126.937 519.5C125.915 519.919 125.428 521.088 125.847 522.11C126.267 523.131 127.436 523.619 128.457 523.199L126.937 519.5ZM-433.781 57.9748C-432.889 58.6253 -431.638 58.4288 -430.987 57.536C-430.337 56.6433 -430.533 55.3923 -431.426 54.7419L-433.781 57.9748ZM-418.167 62.7323C-419.156 62.2407 -420.357 62.644 -420.848 63.6331C-421.34 64.6222 -420.937 65.8226 -419.948 66.3142L-418.167 62.7323ZM-419.043 66.7587C-418.049 67.2411 -416.853 66.8266 -416.37 65.833C-415.888 64.8393 -416.302 63.6427 -417.296 63.1603L-419.043 66.7587ZM-402.851 68.9845C-403.899 68.6372 -405.031 69.2057 -405.378 70.2542C-405.725 71.3028 -405.157 72.4343 -404.108 72.7816L-402.851 68.9845ZM-403.146 73.0964C-402.095 73.4361 -400.968 72.8594 -400.628 71.8083C-400.288 70.7572 -400.865 69.6299 -401.916 69.2902L-403.146 73.0964ZM-386.798 73.2974C-387.878 73.0676 -388.94 73.7571 -389.17 74.8375C-389.4 75.9179 -388.71 76.98 -387.63 77.2099L-386.798 73.2974ZM-386.645 77.4165C-385.563 77.6402 -384.505 76.9446 -384.281 75.863C-384.057 74.7813 -384.753 73.7231 -385.835 73.4994L-386.645 77.4165ZM-370.355 76.0249C-371.452 75.89 -372.45 76.6694 -372.585 77.7657C-372.72 78.862 -371.94 79.8601 -370.844 79.9949L-370.355 76.0249ZM-369.86 80.1137C-368.763 80.2436 -367.769 79.4598 -367.639 78.3629C-367.509 77.266 -368.293 76.2714 -369.39 76.1415L-369.86 80.1137ZM-353.725 77.4576C-354.828 77.4004 -355.768 78.2483 -355.825 79.3514C-355.883 80.4545 -355.035 81.3951 -353.932 81.4523L-353.725 77.4576ZM-352.94 81.5018C-351.836 81.5549 -350.899 80.7035 -350.846 79.6002C-350.793 78.4969 -351.644 77.5595 -352.748 77.5064L-352.94 81.5018ZM-337.016 77.8188C-338.121 77.8264 -339.01 78.728 -339.003 79.8325C-338.995 80.937 -338.093 81.8263 -336.989 81.8187L-337.016 77.8188ZM-335.984 81.8102C-334.879 81.7991 -333.993 80.8947 -334.004 79.7902C-334.015 78.6857 -334.92 77.7993 -336.024 77.8104L-335.984 81.8102ZM-320.294 77.2754C-321.397 77.3382 -322.24 78.283 -322.177 79.3858C-322.114 80.4886 -321.17 81.3317 -320.067 81.269L-320.294 77.2754ZM-319.068 81.2108C-317.966 81.145 -317.125 80.1979 -317.191 79.0953C-317.257 77.9927 -318.204 77.1521 -319.307 77.2179L-319.068 81.2108ZM-303.597 75.9524C-304.696 76.0631 -305.497 77.0437 -305.386 78.1427C-305.276 79.2417 -304.295 80.0429 -303.196 79.9322L-303.597 75.9524ZM-302.205 79.8312C-301.106 79.7179 -300.307 78.7353 -300.421 77.6366C-300.534 76.5378 -301.517 75.739 -302.615 75.8523L-302.205 79.8312ZM-286.952 73.9437C-288.046 74.0968 -288.808 75.1078 -288.655 76.2017C-288.502 77.2956 -287.491 78.0582 -286.397 77.905L-286.952 73.9437ZM-285.414 77.7662C-284.32 77.6107 -283.56 76.5981 -283.715 75.5045C-283.871 74.411 -284.883 73.6506 -285.977 73.8061L-285.414 77.7662ZM-270.383 71.3214C-271.471 71.5129 -272.197 72.5501 -272.006 73.6379C-271.814 74.7257 -270.777 75.4523 -269.689 75.2608L-270.383 71.3214ZM-268.712 75.0876C-267.624 74.8939 -266.9 73.8553 -267.093 72.7679C-267.287 71.6804 -268.326 70.9559 -269.413 71.1496L-268.712 75.0876ZM-253.918 68.1423C-255 68.3692 -255.692 69.4294 -255.465 70.5104C-255.238 71.5914 -254.178 72.2839 -253.097 72.0571L-253.918 68.1423ZM-252.123 71.8519C-251.043 71.6231 -250.352 70.5616 -250.581 69.481C-250.81 68.4004 -251.871 67.7098 -252.952 67.9386L-252.123 71.8519ZM-237.552 64.4436C-238.625 64.7034 -239.285 65.7843 -239.025 66.8579C-238.765 67.9315 -237.684 68.5912 -236.611 68.3313L-237.552 64.4436ZM-235.645 68.0967C-234.572 67.8349 -233.914 66.7528 -234.176 65.6797C-234.438 64.6066 -235.52 63.9488 -236.593 64.2106L-235.645 68.0967ZM-221.302 60.2554C-222.368 60.5467 -222.996 61.6466 -222.704 62.7121C-222.413 63.7775 -221.313 64.4051 -220.248 64.1138L-221.302 60.2554ZM-219.288 63.8506C-218.223 63.5575 -217.598 62.4565 -217.891 61.3916C-218.184 60.3266 -219.285 59.7009 -220.35 59.994L-219.288 63.8506ZM-205.179 55.5959C-206.236 55.9177 -206.831 57.0353 -206.509 58.0919C-206.187 59.1485 -205.07 59.7441 -204.013 59.4222L-205.179 55.5959ZM-203.064 59.1322C-202.008 58.8085 -201.414 57.69 -201.738 56.6339C-202.062 55.5778 -203.18 54.9841 -204.236 55.3078L-203.064 59.1322ZM-189.194 50.4742C-190.241 50.8264 -190.804 51.9606 -190.452 53.0075C-190.1 54.0544 -188.966 54.6176 -187.919 54.2655L-189.194 50.4742ZM-186.977 53.9478C-185.931 53.5939 -185.369 52.4588 -185.723 51.4124C-186.077 50.3661 -187.212 49.8048 -188.259 50.1587L-186.977 53.9478ZM-173.372 44.8938C-174.408 45.2765 -174.938 46.4267 -174.555 47.4629C-174.172 48.499 -173.022 49.0287 -171.986 48.646L-173.372 44.8938ZM-171.051 48.2998C-170.015 47.9152 -169.488 46.7641 -169.872 45.7286C-170.257 44.6931 -171.408 44.1655 -172.443 44.55L-171.051 48.2998ZM-157.729 38.8449C-158.753 39.2592 -159.248 40.4251 -158.833 41.449C-158.419 42.473 -157.253 42.9672 -156.229 42.553L-157.729 38.8449ZM-155.304 42.1782C-154.28 41.7638 -153.786 40.5979 -154.2 39.574C-154.615 38.5501 -155.781 38.0559 -156.805 38.4702L-155.304 42.1782ZM-141.915 32.6848C-142.95 33.0702 -143.477 34.2218 -143.091 35.257C-142.706 36.2921 -141.554 36.8188 -140.519 36.4333L-141.915 32.6848ZM-139.606 36.0942C-138.57 35.7105 -138.041 34.5598 -138.425 33.524C-138.809 32.4882 -139.959 31.9596 -140.995 32.3432L-139.606 36.0942ZM-125.941 27.0163C-126.987 27.3692 -127.55 28.5038 -127.197 29.5505C-126.844 30.5971 -125.709 31.1595 -124.663 30.8065L-125.941 27.0163ZM-123.735 30.4948C-122.688 30.1438 -122.124 29.0103 -122.475 27.963C-122.826 26.9156 -123.959 26.3512 -125.007 26.7022L-123.735 30.4948ZM-109.803 21.8651C-110.861 22.1835 -111.46 23.2991 -111.142 24.3568C-110.823 25.4144 -109.708 26.0137 -108.65 25.6953L-109.803 21.8651ZM-107.711 25.4134C-106.652 25.0971 -106.051 23.9827 -106.367 22.9244C-106.684 21.8661 -107.798 21.2646 -108.856 21.581L-107.711 25.4134ZM-93.5053 17.2607C-94.5733 17.5424 -95.2107 18.6367 -94.9289 19.7047C-94.6472 20.7727 -93.5529 21.4101 -92.4849 21.1283L-93.5053 17.2607ZM-91.535 20.8787C-90.4664 20.5992 -89.8268 19.5063 -90.1063 18.4377C-90.3859 17.3691 -91.4788 16.7294 -92.5474 17.009L-91.535 20.8787ZM-77.055 13.2352C-78.1326 13.4781 -78.8092 14.5485 -78.5663 15.6261C-78.3234 16.7036 -77.2529 17.3802 -76.1754 17.1373L-77.055 13.2352ZM-75.2173 16.9224C-74.1392 16.6818 -73.4603 15.6129 -73.7009 14.5348C-73.9415 13.4568 -75.0104 12.7778 -76.0885 13.0184L-75.2173 16.9224ZM-60.4666 9.82318C-61.5526 10.0249 -62.2694 11.0689 -62.0677 12.1548C-61.8659 13.2408 -60.822 13.9576 -59.736 13.7559L-60.4666 9.82318ZM-58.7723 13.578C-57.6859 13.3787 -56.9667 12.3364 -57.166 11.25C-57.3652 10.1635 -58.4075 9.44435 -59.494 9.64363L-58.7723 13.578ZM-43.761 7.06057C-44.8542 7.21884 -45.6121 8.23333 -45.4538 9.3265C-45.2956 10.4197 -44.2811 11.1776 -43.1879 11.0193L-43.761 7.06057ZM-42.2216 10.8806C-41.128 10.7249 -40.3677 9.71224 -40.5234 8.61869C-40.6791 7.52514 -41.6917 6.76484 -42.7853 6.92049L-42.2216 10.8806ZM-26.9668 4.98382C-28.0656 5.09626 -28.8653 6.07819 -28.7528 7.17702C-28.6404 8.27585 -27.6585 9.07548 -26.5596 8.96305L-26.9668 4.98382ZM-25.5941 8.86546C-24.495 8.75575 -23.6929 7.77581 -23.8026 6.67671C-23.9123 5.5776 -24.8923 4.77553 -25.9914 4.88524L-25.5941 8.86546ZM-10.0791 3.62623C-11.1818 3.6904 -12.0237 4.63635 -11.9595 5.73905C-11.8954 6.84175 -10.9494 7.68365 -9.84671 7.61947L-10.0791 3.62623ZM-8.84536 7.56254C-7.74249 7.50133 -6.89806 6.55765 -6.95927 5.45478C-7.02049 4.35191 -7.96416 3.50748 -9.06704 3.56869L-8.84536 7.56254ZM6.91004 3.02638C5.80555 3.03975 4.92103 3.94596 4.9344 5.05045C4.94778 6.15494 5.85399 7.03946 6.95847 7.02609L6.91004 3.02638ZM7.95042 7.01545C9.05494 7.00515 9.94198 6.10141 9.93168 4.99689C9.92138 3.89236 9.01763 3.00533 7.91311 3.01563L7.95042 7.01545ZM23.8698 3.2252C22.766 3.18554 21.839 4.04825 21.7993 5.15211C21.7597 6.25597 22.6224 7.18297 23.7262 7.22262L23.8698 3.2252ZM24.7034 7.25912C25.8071 7.30194 26.7366 6.4419 26.7794 5.33816C26.8222 4.23442 25.9622 3.30495 24.8584 3.26213L24.7034 7.25912ZM40.7597 4.25268C39.6592 4.15783 38.6901 4.97306 38.5953 6.07354C38.5004 7.17403 39.3157 8.14305 40.4161 8.23791L40.7597 4.25268ZM41.4163 8.32567C42.5165 8.42391 43.4881 7.61167 43.5863 6.51148C43.6845 5.41129 42.8723 4.43976 41.7721 4.34152L41.4163 8.32567ZM57.6715 6.15685C56.5776 6.00418 55.567 6.76725 55.4143 7.86121C55.2616 8.95518 56.0247 9.96579 57.1186 10.1185L57.6715 6.15685ZM58.0892 10.2555C59.1827 10.4116 60.1957 9.6517 60.3518 8.55822C60.5079 7.46474 59.748 6.45174 58.6545 6.29562L58.0892 10.2555ZM74.3911 8.95729C73.3071 8.74468 72.2561 9.451 72.0435 10.5349C71.8309 11.6188 72.5372 12.6699 73.6211 12.8825L74.3911 8.95729ZM74.601 13.0764C75.6842 13.2927 76.7376 12.5899 76.9539 11.5067C77.1702 10.4235 76.4674 9.37012 75.3842 9.15384L74.601 13.0764ZM90.9213 12.6958C89.8515 12.4207 88.7613 13.065 88.4862 14.1347C88.2111 15.2045 88.8553 16.2947 89.9251 16.5698L90.9213 12.6958ZM90.8897 16.8197C91.9585 17.0986 93.051 16.4583 93.3299 15.3895C93.6089 14.3207 92.9685 13.2282 91.8998 12.9493L90.8897 16.8197ZM107.241 17.4299C106.19 17.089 105.062 17.6644 104.721 18.715C104.38 19.7657 104.956 20.8938 106.006 21.2346L107.241 17.4299ZM106.95 21.5429C108 21.8878 109.13 21.3168 109.475 20.2674C109.82 19.2181 109.249 18.0878 108.199 17.7429L106.95 21.5429ZM123.269 23.2288C122.244 22.8172 121.08 23.3146 120.668 24.3396C120.256 25.3647 120.754 26.5292 121.779 26.9408L123.269 23.2288ZM122.704 27.3144C123.727 27.7304 124.894 27.2381 125.31 26.2148C125.726 25.1915 125.233 24.0248 124.21 23.6089L122.704 27.3144ZM138.803 30.1649C137.813 29.6736 136.613 30.0774 136.122 31.0667C135.631 32.056 136.034 33.2562 137.024 33.7475L138.803 30.1649ZM137.927 34.1991C138.913 34.6957 140.116 34.2985 140.612 33.3119C141.109 32.3253 140.712 31.1229 139.725 30.6262L137.927 34.1991ZM153.687 38.5934C152.773 37.974 151.529 38.2134 150.91 39.128C150.291 40.0426 150.53 41.2861 151.444 41.9054L153.687 38.5934ZM152.68 42.5551C153.709 42.9578 154.869 42.4506 155.272 41.4221C155.675 40.3935 155.167 39.2333 154.139 38.8305L152.68 42.5551ZM168.735 45.6741C167.766 45.1434 166.551 45.4985 166.02 46.4672C165.489 47.4359 165.844 48.6514 166.813 49.1821L168.735 45.6741ZM167.663 49.6518C168.628 50.1897 169.846 49.8437 170.384 48.879C170.922 47.9142 170.576 46.6961 169.611 46.1582L167.663 49.6518ZM183.197 54.7897C182.299 54.147 181.049 54.3543 180.407 55.2527C179.764 56.151 179.971 57.4003 180.87 58.0429L183.197 54.7897ZM181.662 58.6136C182.556 59.2621 183.807 59.063 184.455 58.1688C185.104 57.2747 184.904 56.0241 184.01 55.3756L181.662 58.6136ZM196.536 65.4536C195.71 64.7207 194.445 64.7965 193.713 65.6229C192.98 66.4493 193.056 67.7134 193.882 68.4463L196.536 65.4536ZM194.614 69.0996C195.437 69.8372 196.701 69.7686 197.439 68.9464C198.176 68.1242 198.108 66.8597 197.286 66.1221L194.614 69.0996ZM208.758 77.3575C208.002 76.5522 206.736 76.5122 205.931 77.2682C205.126 78.0242 205.086 79.2899 205.842 80.0952L208.758 77.3575ZM206.515 80.8156C207.266 81.6247 208.532 81.6711 209.341 80.9191C210.15 80.1672 210.197 78.9017 209.445 78.0926L206.515 80.8156ZM219.902 90.2547C219.213 89.391 217.955 89.2489 217.091 89.9373C216.228 90.6258 216.085 91.8841 216.774 92.7479L219.902 90.2547ZM217.388 93.5221C218.073 94.389 219.33 94.5367 220.197 93.8521C221.064 93.1676 221.212 91.9099 220.527 91.043L217.388 93.5221ZM230.018 103.953C229.394 103.042 228.149 102.809 227.238 103.433C226.327 104.057 226.094 105.302 226.718 106.213L230.018 103.953ZM227.276 107.031C227.896 107.945 229.14 108.183 230.054 107.562C230.967 106.942 231.205 105.698 230.585 104.784L227.276 107.031ZM239.159 118.305C238.596 117.355 237.369 117.04 236.419 117.603C235.468 118.166 235.154 119.393 235.717 120.343L239.159 118.305ZM236.22 121.196C236.779 122.148 238.005 122.467 238.957 121.908C239.91 121.349 240.228 120.123 239.669 119.171L236.22 121.196ZM247.37 133.196C246.866 132.214 245.66 131.825 244.678 132.33C243.695 132.834 243.307 134.039 243.811 135.022L247.37 133.196ZM244.261 135.903C244.762 136.888 245.966 137.28 246.95 136.779C247.935 136.278 248.327 135.074 247.826 134.09L244.261 135.903ZM254.69 148.537C254.242 147.527 253.061 147.071 252.051 147.519C251.041 147.966 250.585 149.148 251.033 150.157L254.69 148.537ZM251.432 151.062C251.876 152.073 253.056 152.533 254.067 152.089C255.078 151.645 255.538 150.465 255.094 149.454L251.432 151.062ZM261.148 164.256C260.756 163.223 259.6 162.704 258.568 163.096C257.535 163.488 257.016 164.643 257.408 165.676L261.148 164.256ZM257.758 166.6C258.147 167.634 259.3 168.156 260.334 167.767C261.368 167.378 261.89 166.225 261.501 165.191L257.758 166.6ZM266.764 180.291C266.426 179.24 265.3 178.661 264.248 178.999C263.196 179.337 262.618 180.464 262.956 181.515L266.764 180.291ZM263.257 182.455C263.592 183.508 264.716 184.09 265.769 183.755C266.821 183.42 267.403 182.295 267.068 181.242L263.257 182.455ZM271.551 196.592C271.267 195.525 270.171 194.89 269.104 195.174C268.036 195.459 267.402 196.555 267.686 197.622L271.551 196.592ZM267.938 198.575C268.22 199.643 269.314 200.281 270.382 200C271.45 199.719 272.088 198.625 271.807 197.557L267.938 198.575ZM275.514 213.112C275.283 212.032 274.22 211.343 273.14 211.574C272.06 211.805 271.371 212.868 271.602 213.948L275.514 213.112ZM271.806 214.912C272.034 215.993 273.095 216.684 274.176 216.457C275.257 216.229 275.948 215.168 275.721 214.087L271.806 214.912ZM278.65 229.808C278.473 228.718 277.445 227.977 276.355 228.154C275.265 228.331 274.524 229.358 274.701 230.448L278.65 229.808ZM274.858 231.421C275.031 232.512 276.056 233.255 277.147 233.082C278.238 232.908 278.981 231.883 278.808 230.792L274.858 231.421ZM280.951 246.638C280.828 245.54 279.839 244.75 278.742 244.872C277.644 244.994 276.853 245.983 276.975 247.081L280.951 246.638ZM277.083 248.06C277.202 249.158 278.188 249.952 279.287 249.833C280.385 249.714 281.178 248.728 281.06 247.629L277.083 248.06ZM282.403 263.558C282.336 262.456 281.389 261.616 280.286 261.682C279.184 261.749 278.344 262.697 278.41 263.799L282.403 263.558ZM278.468 264.786C278.531 265.889 279.477 266.732 280.579 266.669C281.682 266.606 282.525 265.66 282.462 264.558L278.468 264.786ZM282.988 280.532C282.979 279.427 282.076 278.539 280.971 278.549C279.867 278.558 278.979 279.461 278.988 280.566L282.988 280.532ZM278.995 281.553C279.001 282.658 279.902 283.549 281.006 283.543C282.111 283.537 283.001 282.636 282.995 281.532L278.995 281.553ZM282.683 297.517C282.732 296.414 281.878 295.479 280.774 295.43C279.671 295.381 278.736 296.235 278.687 297.339L282.683 297.517ZM278.641 298.325C278.588 299.428 279.44 300.365 280.543 300.418C281.646 300.471 282.584 299.619 282.637 298.516L278.641 298.325ZM281.459 314.466C281.569 313.367 280.767 312.387 279.668 312.277C278.569 312.167 277.589 312.968 277.479 314.068L281.459 314.466ZM277.379 315.049C277.265 316.148 278.064 317.131 279.163 317.244C280.261 317.358 281.244 316.559 281.358 315.461L277.379 315.049ZM279.287 331.323C279.46 330.232 278.715 329.208 277.624 329.035C276.533 328.862 275.509 329.607 275.336 330.698L279.287 331.323ZM275.18 331.672C275.004 332.762 275.745 333.789 276.835 333.965C277.926 334.142 278.953 333.401 279.129 332.31L275.18 331.672ZM276.135 348.028C276.372 346.949 275.69 345.882 274.611 345.645C273.533 345.408 272.466 346.09 272.228 347.169L276.135 348.028ZM272.015 348.132C271.774 349.209 272.452 350.279 273.53 350.52C274.608 350.761 275.677 350.082 275.919 349.005L272.015 348.132ZM271.973 364.515C272.277 363.453 271.662 362.346 270.6 362.042C269.538 361.738 268.431 362.353 268.127 363.415L271.973 364.515ZM267.855 364.362C267.547 365.423 268.158 366.532 269.219 366.84C270.279 367.148 271.389 366.537 271.696 365.476L267.855 364.362ZM266.774 380.71C267.145 379.67 266.604 378.526 265.563 378.154C264.523 377.782 263.379 378.324 263.007 379.364L266.774 380.71ZM262.674 380.291C262.298 381.329 262.836 382.476 263.874 382.852C264.913 383.228 266.06 382.69 266.435 381.651L262.674 380.291ZM260.514 396.536C260.955 395.523 260.491 394.344 259.478 393.904C258.466 393.463 257.287 393.926 256.846 394.939L260.514 396.536ZM256.452 395.84C256.007 396.851 256.466 398.031 257.477 398.476C258.488 398.921 259.668 398.462 260.113 397.451L256.452 395.84ZM253.186 411.893C253.697 410.913 253.316 409.705 252.337 409.195C251.357 408.685 250.149 409.065 249.639 410.045L253.186 411.893ZM249.181 410.919C248.667 411.897 249.042 413.106 250.02 413.62C250.997 414.135 252.206 413.759 252.721 412.782L249.181 410.919ZM244.792 426.692C245.371 425.752 245.078 424.52 244.138 423.941C243.197 423.362 241.965 423.654 241.386 424.595L244.792 426.692ZM240.867 425.434C240.284 426.372 240.571 427.606 241.509 428.189C242.447 428.772 243.681 428.484 244.264 427.546L240.867 425.434ZM235.348 440.845C235.994 439.949 235.792 438.699 234.896 438.053C234.001 437.406 232.751 437.608 232.104 438.504L235.348 440.845ZM231.525 439.302C230.875 440.195 231.071 441.446 231.964 442.096C232.857 442.747 234.108 442.55 234.758 441.657L231.525 439.302ZM224.885 454.264C225.596 453.419 225.487 452.157 224.641 451.446C223.796 450.735 222.534 450.844 221.823 451.69L224.885 454.264ZM221.188 452.441C220.474 453.284 220.577 454.546 221.419 455.26C222.261 455.975 223.523 455.872 224.238 455.03L221.188 452.441ZM213.45 466.877C214.221 466.086 214.206 464.82 213.416 464.048C212.626 463.277 211.36 463.292 210.588 464.082L213.45 466.877ZM209.901 464.782C209.126 465.569 209.135 466.835 209.922 467.61C210.709 468.385 211.975 468.376 212.751 467.589L209.901 464.782ZM201.1 478.622C201.928 477.891 202.006 476.627 201.275 475.799C200.543 474.971 199.279 474.893 198.452 475.624L201.1 478.622ZM197.719 476.269C196.888 476.996 196.805 478.26 197.533 479.091C198.261 479.922 199.524 480.005 200.355 479.277L197.719 476.269ZM187.923 489.441C188.801 488.771 188.97 487.516 188.3 486.638C187.63 485.759 186.375 485.59 185.497 486.26L187.923 489.441ZM184.703 486.863C183.822 487.529 183.648 488.783 184.314 489.664C184.98 490.546 186.234 490.72 187.116 490.054L184.703 486.863ZM174.084 499.25C175.007 498.642 175.263 497.402 174.655 496.479C174.048 495.557 172.808 495.301 171.885 495.908L174.084 499.25ZM171.054 496.453C170.128 497.057 169.868 498.296 170.471 499.221C171.075 500.146 172.314 500.407 173.239 499.803L171.054 496.453ZM159.599 508.101C160.56 507.557 160.898 506.336 160.353 505.375C159.809 504.414 158.588 504.076 157.627 504.621L159.599 508.101ZM156.768 505.106C155.805 505.646 155.462 506.865 156.003 507.829C156.544 508.792 157.763 509.134 158.726 508.593L156.768 505.106ZM144.526 516.013C145.52 515.531 145.934 514.334 145.452 513.34C144.969 512.347 143.773 511.932 142.779 512.414L144.526 516.013ZM141.901 512.839C140.905 513.318 140.486 514.513 140.965 515.508C141.444 516.504 142.639 516.922 143.634 516.444L141.901 512.839ZM128.93 523.005C129.951 522.583 130.437 521.414 130.015 520.393C129.594 519.372 128.424 518.886 127.403 519.307L128.93 523.005ZM-431.417 522.406C-430.524 521.755 -430.328 520.504 -430.979 519.612C-431.629 518.719 -432.88 518.523 -433.773 519.173L-431.417 522.406ZM-419.63 510.571C-420.615 511.071 -421.007 512.275 -420.507 513.26C-420.006 514.245 -418.802 514.637 -417.818 514.137L-419.63 510.571ZM-416.925 513.688C-415.936 513.196 -415.533 511.995 -416.025 511.006C-416.517 510.017 -417.718 509.614 -418.707 510.106L-416.925 513.688ZM-403.5 503.69C-404.54 504.061 -405.084 505.205 -404.713 506.245C-404.343 507.286 -403.199 507.829 -402.158 507.459L-403.5 503.69ZM-401.202 507.122C-400.159 506.758 -399.609 505.618 -399.972 504.575C-400.336 503.532 -401.476 502.981 -402.519 503.345L-401.202 507.122ZM-386.746 498.672C-387.818 498.939 -388.47 500.024 -388.203 501.096C-387.936 502.168 -386.851 502.82 -385.779 502.553L-386.746 498.672ZM-384.8 502.312C-383.726 502.05 -383.069 500.968 -383.33 499.895C-383.592 498.822 -384.674 498.164 -385.747 498.426L-384.8 502.312ZM-369.666 495.135C-370.755 495.318 -371.489 496.35 -371.306 497.439C-371.122 498.529 -370.09 499.263 -369.001 499.079L-369.666 495.135ZM-368.014 498.915C-366.924 498.735 -366.186 497.706 -366.365 496.616C-366.544 495.526 -367.573 494.788 -368.663 494.968L-368.014 498.915ZM-352.419 492.796C-353.517 492.911 -354.315 493.895 -354.2 494.994C-354.084 496.092 -353.101 496.89 -352.002 496.774L-352.419 492.796ZM-350.997 496.671C-349.898 496.559 -349.098 495.578 -349.209 494.479C-349.321 493.38 -350.302 492.58 -351.401 492.691L-350.997 496.671ZM-335.089 491.452C-336.192 491.509 -337.04 492.45 -336.983 493.553C-336.925 494.656 -335.985 495.504 -334.882 495.446L-335.089 491.452ZM-333.865 495.395C-332.762 495.341 -331.911 494.403 -331.965 493.3C-332.019 492.196 -332.957 491.346 -334.061 491.4L-333.865 495.395ZM-317.725 490.954C-318.83 490.961 -319.719 491.862 -319.712 492.967C-319.705 494.072 -318.804 494.961 -317.699 494.954L-317.725 490.954ZM-316.684 494.949C-315.58 494.944 -314.688 494.045 -314.692 492.941C-314.697 491.836 -315.596 490.944 -316.7 490.949L-316.684 494.949ZM-300.36 491.196C-301.464 491.159 -302.389 492.024 -302.426 493.128C-302.463 494.232 -301.598 495.157 -300.494 495.194L-300.36 491.196ZM-299.483 495.229C-298.379 495.268 -297.452 494.406 -297.412 493.302C-297.373 492.198 -298.235 491.271 -299.339 491.231L-299.483 495.229ZM-283.018 492.099C-284.12 492.022 -285.076 492.852 -285.153 493.954C-285.23 495.056 -284.399 496.012 -283.297 496.089L-283.018 492.099ZM-282.289 496.161C-281.188 496.24 -280.23 495.411 -280.151 494.31C-280.071 493.208 -280.9 492.25 -282.002 492.171L-282.289 496.161ZM-265.729 493.604C-266.828 493.49 -267.811 494.288 -267.925 495.387C-268.039 496.486 -267.241 497.469 -266.142 497.583L-265.729 493.604ZM-265.132 497.689C-264.034 497.805 -263.049 497.009 -262.933 495.91C-262.817 494.812 -263.613 493.827 -264.712 493.711L-265.132 497.689ZM-248.505 495.67C-249.599 495.521 -250.607 496.288 -250.756 497.383C-250.904 498.477 -250.138 499.485 -249.043 499.634L-248.505 495.67ZM-248.039 499.771C-246.945 499.922 -245.936 499.157 -245.785 498.063C-245.634 496.969 -246.399 495.959 -247.493 495.809L-248.039 499.771ZM-231.351 498.269C-232.44 498.087 -233.471 498.823 -233.653 499.912C-233.835 501.002 -233.099 502.032 -232.01 502.214L-231.351 498.269ZM-231.01 502.382C-229.921 502.566 -228.889 501.832 -228.705 500.743C-228.521 499.654 -229.255 498.622 -230.344 498.438L-231.01 502.382ZM-214.288 501.383C-215.372 501.168 -216.424 501.873 -216.638 502.956C-216.853 504.04 -216.148 505.092 -215.065 505.307L-214.288 501.383ZM-214.07 505.505C-212.987 505.721 -211.934 505.018 -211.717 503.935C-211.501 502.852 -212.203 501.799 -213.286 501.582L-214.07 505.505ZM-197.319 505.007C-198.396 504.76 -199.469 505.433 -199.716 506.509C-199.963 507.586 -199.29 508.659 -198.214 508.906L-197.319 505.007ZM-197.228 509.133C-196.151 509.382 -195.077 508.711 -194.828 507.635C-194.58 506.559 -195.25 505.485 -196.326 505.236L-197.228 509.133ZM-180.469 509.145C-181.537 508.865 -182.63 509.504 -182.91 510.572C-183.19 511.641 -182.551 512.734 -181.483 513.014L-180.469 509.145ZM-180.502 513.272C-179.434 513.554 -178.34 512.917 -178.058 511.849C-177.776 510.781 -178.413 509.686 -179.481 509.404L-180.502 513.272ZM-163.761 513.809C-164.82 513.494 -165.934 514.098 -166.248 515.157C-166.562 516.216 -165.959 517.329 -164.9 517.643L-163.761 513.809ZM-163.925 517.934C-162.867 518.25 -161.752 517.649 -161.436 516.59C-161.12 515.532 -161.721 514.418 -162.779 514.101L-163.925 517.934ZM-147.216 519.03C-148.263 518.679 -149.397 519.243 -149.748 520.291C-150.099 521.338 -149.534 522.471 -148.487 522.822L-147.216 519.03ZM-147.543 523.139C-146.495 523.49 -145.362 522.926 -145.011 521.878C-144.66 520.831 -145.225 519.697 -146.272 519.346L-147.543 523.139ZM-131.511 524.006C-132.57 523.692 -133.683 524.296 -133.997 525.355C-134.311 526.414 -133.707 527.527 -132.648 527.841L-131.511 524.006ZM-131.703 528.12C-130.643 528.432 -129.532 527.826 -129.22 526.766C-128.908 525.706 -129.515 524.595 -130.574 524.283L-131.703 528.12ZM-115.649 528.389C-116.719 528.115 -117.809 528.76 -118.083 529.83C-118.357 530.9 -117.712 531.99 -116.642 532.264L-115.649 528.389ZM-115.69 532.507C-114.619 532.778 -113.531 532.131 -113.259 531.06C-112.988 529.99 -113.635 528.901 -114.706 528.63L-115.69 532.507ZM-99.6388 532.171C-100.718 531.938 -101.783 532.623 -102.017 533.703C-102.25 534.783 -101.564 535.847 -100.485 536.081L-99.6388 532.171ZM-99.5286 536.287C-98.4485 536.518 -97.3855 535.83 -97.1542 534.75C-96.923 533.67 -97.6111 532.606 -98.6912 532.375L-99.5286 536.287ZM-83.5074 535.345C-84.595 535.152 -85.6329 535.878 -85.8256 536.965C-86.0182 538.053 -85.2927 539.091 -84.2051 539.283L-83.5074 535.345ZM-83.2464 539.452C-82.1584 539.642 -81.1221 538.915 -80.9318 537.826C-80.7416 536.738 -81.4694 535.702 -82.5574 535.512L-83.2464 539.452ZM-67.2838 537.903C-68.3779 537.752 -69.3876 538.516 -69.539 539.61C-69.6904 540.704 -68.9262 541.714 -67.832 541.865L-67.2838 537.903ZM-66.8735 541.997C-65.779 542.146 -64.771 541.38 -64.622 540.285C-64.473 539.191 -65.2395 538.183 -66.334 538.034L-66.8735 541.997ZM-50.9748 539.846C-52.0739 539.736 -53.0539 540.538 -53.1638 541.637C-53.2737 542.736 -52.4718 543.716 -51.3727 543.826L-50.9748 539.846ZM-50.3914 543.923C-49.2921 544.031 -48.3138 543.227 -48.2064 542.127C-48.099 541.028 -48.9031 540.05 -50.0025 539.942L-50.3914 543.923ZM-34.5606 541.173C-35.6631 541.105 -36.612 541.944 -36.6801 543.046C-36.7482 544.148 -35.9097 545.097 -34.8072 545.166L-34.5606 541.173ZM-33.8314 545.225C-32.7288 545.29 -31.7817 544.45 -31.7161 543.347C-31.6504 542.244 -32.4911 541.297 -33.5937 541.232L-33.8314 545.225ZM-18.1472 541.876C-19.2514 541.85 -20.168 542.723 -20.1944 543.828C-20.2208 544.932 -19.347 545.848 -18.2427 545.875L-18.1472 541.876ZM-17.276 545.897C-16.1717 545.921 -15.2571 545.045 -15.2331 543.941C-15.2092 542.836 -16.085 541.922 -17.1893 541.898L-17.276 545.897ZM-1.71029 541.958C-2.81476 541.973 -3.69763 542.881 -3.68224 543.986C-3.66685 545.09 -2.75903 545.973 -1.65457 545.957L-1.71029 541.958ZM-0.670508 545.943C0.433917 545.925 1.31475 545.015 1.29688 543.911C1.27901 542.806 0.369216 541.925 -0.735209 541.943L-0.670508 545.943ZM14.7296 541.417C13.6265 541.474 12.7787 542.415 12.8359 543.518C12.8932 544.621 13.8338 545.469 14.9369 545.412L14.7296 541.417ZM15.9031 545.361C17.006 545.301 17.8518 544.358 17.7921 543.256C17.7324 542.153 16.7899 541.307 15.687 541.366L15.9031 545.361ZM31.1279 540.254C30.0278 540.353 29.2164 541.325 29.3155 542.425C29.4147 543.525 30.3869 544.337 31.487 544.238L31.1279 540.254ZM32.4654 544.148C33.5653 544.047 34.3746 543.073 34.2729 541.973C34.1713 540.873 33.1973 540.064 32.0974 540.165L32.4654 544.148ZM47.4325 538.469C46.337 538.61 45.5634 539.613 45.7047 540.708C45.846 541.804 46.8486 542.578 47.9441 542.436L47.4325 538.469ZM48.9217 542.309C50.0169 542.165 50.7881 541.161 50.6443 540.066C50.5006 538.971 49.4962 538.199 48.401 538.343L48.9217 542.309ZM63.7181 536.045C62.629 536.229 61.8954 537.261 62.0796 538.35C62.2637 539.439 63.2959 540.173 64.385 539.989L63.7181 536.045ZM65.3293 539.828C66.418 539.641 67.1492 538.607 66.9625 537.519C66.7759 536.43 65.742 535.699 64.6533 535.885L65.3293 539.828ZM79.8604 532.979C78.7797 533.207 78.0886 534.269 78.3168 535.349C78.5451 536.43 79.6062 537.121 80.6869 536.893L79.8604 532.979ZM81.6181 536.695C82.6983 536.464 83.3868 535.402 83.156 534.321C82.9251 533.241 81.8624 532.553 80.7822 532.783L81.6181 536.695ZM95.8641 529.24C94.7942 529.515 94.1499 530.605 94.4248 531.675C94.6997 532.745 95.7898 533.389 96.8597 533.114L95.8641 529.24ZM97.8253 532.865C98.8944 532.587 99.5357 531.495 99.2579 530.426C98.98 529.357 97.8881 528.716 96.8191 528.993L97.8253 532.865ZM111.653 524.776C110.598 525.104 110.008 526.224 110.336 527.279C110.664 528.334 111.785 528.924 112.839 528.596L111.653 524.776ZM113.807 528.294C114.86 527.962 115.446 526.839 115.114 525.786C114.783 524.732 113.66 524.146 112.607 524.478L113.807 528.294ZM127.084 519.406C126.06 519.821 125.567 520.987 125.982 522.011C126.396 523.034 127.563 523.528 128.586 523.113L127.084 519.406ZM-434.187 57.6774C-434.052 57.7769 -433.917 57.876 -433.781 57.9748L-431.426 54.7419C-431.555 54.6476 -431.684 54.5531 -431.813 54.4582L-434.187 57.6774ZM-419.948 66.3142C-419.647 66.4636 -419.346 66.6117 -419.043 66.7587L-417.296 63.1603C-417.588 63.0188 -417.878 62.8761 -418.167 62.7323L-419.948 66.3142ZM-404.108 72.7816C-403.789 72.8876 -403.468 72.9925 -403.146 73.0964L-401.916 69.2902C-402.229 69.1893 -402.54 69.0874 -402.851 68.9845L-404.108 72.7816ZM-387.63 77.2099C-387.302 77.2796 -386.974 77.3485 -386.645 77.4165L-385.835 73.4994C-386.156 73.4329 -386.477 73.3656 -386.798 73.2974L-387.63 77.2099ZM-370.844 79.9949C-370.517 80.0352 -370.189 80.0748 -369.86 80.1137L-369.39 76.1415C-369.712 76.1033 -370.034 76.0644 -370.355 76.0249L-370.844 79.9949ZM-353.932 81.4523C-353.601 81.4694 -353.271 81.4859 -352.94 81.5018L-352.748 77.5064C-353.074 77.4908 -353.399 77.4745 -353.725 77.4576L-353.932 81.4523ZM-336.989 81.8187C-336.654 81.8164 -336.319 81.8136 -335.984 81.8102L-336.024 77.8104C-336.355 77.8137 -336.686 77.8165 -337.016 77.8188L-336.989 81.8187ZM-320.067 81.269C-319.734 81.2501 -319.401 81.2307 -319.068 81.2108L-319.307 77.2179C-319.636 77.2375 -319.965 77.2567 -320.294 77.2754L-320.067 81.269ZM-303.196 79.9322C-302.866 79.899 -302.535 79.8653 -302.205 79.8312L-302.615 75.8523C-302.943 75.8861 -303.27 75.9194 -303.597 75.9524L-303.196 79.9322ZM-286.397 77.905C-286.069 77.8591 -285.741 77.8129 -285.414 77.7662L-285.977 73.8061C-286.302 73.8523 -286.627 73.8982 -286.952 73.9437L-286.397 77.905ZM-269.689 75.2608C-269.363 75.2034 -269.038 75.1457 -268.712 75.0876L-269.413 71.1496C-269.736 71.2072 -270.06 71.2644 -270.383 71.3214L-269.689 75.2608ZM-253.097 72.0571C-252.773 71.989 -252.448 71.9206 -252.123 71.8519L-252.952 67.9386C-253.274 68.0068 -253.596 68.0748 -253.918 68.1423L-253.097 72.0571ZM-236.611 68.3313C-236.289 68.2534 -235.967 68.1752 -235.645 68.0967L-236.593 64.2106C-236.912 64.2885 -237.232 64.3662 -237.552 64.4436L-236.611 68.3313ZM-220.248 64.1138C-219.928 64.0263 -219.608 63.9386 -219.288 63.8506L-220.35 59.994C-220.667 60.0814 -220.985 60.1686 -221.302 60.2554L-220.248 64.1138ZM-204.013 59.4222C-203.697 59.3258 -203.38 59.2291 -203.064 59.1322L-204.236 55.3078C-204.55 55.404 -204.865 55.5001 -205.179 55.5959L-204.013 59.4222ZM-187.919 54.2655C-187.605 54.1598 -187.291 54.0539 -186.977 53.9478L-188.259 50.1587C-188.57 50.2641 -188.882 50.3693 -189.194 50.4742L-187.919 54.2655ZM-171.986 48.646C-171.674 48.5308 -171.362 48.4154 -171.051 48.2998L-172.443 44.55C-172.753 44.6648 -173.062 44.7794 -173.372 44.8938L-171.986 48.646ZM-156.229 42.553C-156.077 42.4912 -155.924 42.4294 -155.771 42.3675L-157.275 38.6609C-157.426 38.7223 -157.578 38.7836 -157.729 38.8449L-156.229 42.553ZM-155.771 42.3675C-155.616 42.3043 -155.46 42.2412 -155.304 42.1782L-156.805 38.4702C-156.961 38.5337 -157.118 38.5972 -157.275 38.6609L-155.771 42.3675ZM-140.519 36.4333C-140.214 36.3199 -139.91 36.2068 -139.606 36.0942L-140.995 32.3432C-141.301 32.4567 -141.608 32.5705 -141.915 32.6848L-140.519 36.4333ZM-124.663 30.8065C-124.353 30.7022 -124.044 30.5983 -123.735 30.4948L-125.007 26.7022C-125.318 26.8065 -125.629 26.9112 -125.941 27.0163L-124.663 30.8065ZM-108.65 25.6953C-108.337 25.6009 -108.024 25.507 -107.711 25.4134L-108.856 21.581C-109.172 21.6753 -109.487 21.77 -109.803 21.8651L-108.65 25.6953ZM-92.4849 21.1283C-92.168 21.0447 -91.8514 20.9615 -91.535 20.8787L-92.5474 17.009C-92.8664 17.0925 -93.1857 17.1763 -93.5053 17.2607L-92.4849 21.1283ZM-76.1754 17.1373C-75.8557 17.0652 -75.5364 16.9936 -75.2173 16.9224L-76.0885 13.0184C-76.4104 13.0902 -76.7325 13.1625 -77.055 13.2352L-76.1754 17.1373ZM-59.736 13.7559C-59.4145 13.6962 -59.0932 13.6369 -58.7723 13.578L-59.494 9.64363C-59.8179 9.70304 -60.1421 9.76289 -60.4666 9.82318L-59.736 13.7559ZM-43.1879 11.0193C-42.8654 10.9726 -42.5433 10.9264 -42.2216 10.8806L-42.7853 6.92049C-43.1102 6.96674 -43.4354 7.01343 -43.761 7.06057L-43.1879 11.0193ZM-26.5596 8.96305C-26.2374 8.93007 -25.9155 8.89755 -25.5941 8.86546L-25.9914 4.88524C-26.3161 4.91765 -26.6413 4.95051 -26.9668 4.98382L-26.5596 8.96305ZM-9.84671 7.61947C-9.51244 7.60002 -9.17866 7.58104 -8.84536 7.56254L-9.06704 3.56869C-9.40391 3.58739 -9.74126 3.60657 -10.0791 3.62623L-9.84671 7.61947ZM6.95847 7.02609C7.28966 7.02208 7.62031 7.01853 7.95042 7.01545L7.91311 3.01563C7.57929 3.01874 7.24493 3.02232 6.91004 3.02638L6.95847 7.02609ZM23.7262 7.22262C24.0525 7.23434 24.3782 7.24651 24.7034 7.25912L24.8584 3.26213C24.5295 3.24937 24.1999 3.23706 23.8698 3.2252L23.7262 7.22262ZM40.4161 8.23791C40.7503 8.2667 41.0837 8.29596 41.4163 8.32567L41.7721 4.34152C41.4353 4.31145 41.0979 4.28183 40.7597 4.25268L40.4161 8.23791ZM57.1186 10.1185C57.443 10.1637 57.7665 10.2094 58.0892 10.2555L58.6545 6.29562C58.3277 6.24895 58 6.2027 57.6715 6.15685L57.1186 10.1185ZM73.6211 12.8825C73.9487 12.9468 74.2754 13.0114 74.601 13.0764L75.3842 9.15384C75.0542 9.08794 74.7231 9.02242 74.3911 8.95729L73.6211 12.8825ZM89.9251 16.5698C90.2478 16.6528 90.5694 16.7361 90.8897 16.8197L91.8998 12.9493C91.5748 12.8645 91.2487 12.78 90.9213 12.6958L89.9251 16.5698ZM106.006 21.2346C106.323 21.3373 106.637 21.44 106.95 21.5429L108.199 17.7429C107.881 17.6384 107.562 17.5341 107.241 17.4299L106.006 21.2346ZM121.779 26.9408C122.089 27.0655 122.398 27.19 122.704 27.3144L124.21 23.6089C123.899 23.4823 123.585 23.3556 123.269 23.2288L121.779 26.9408ZM137.024 33.7475C137.329 33.8993 137.63 34.0499 137.927 34.1991L139.725 30.6262C139.422 30.4737 139.115 30.3199 138.803 30.1649L137.024 33.7475ZM151.444 41.9054C151.566 41.9879 151.656 42.0498 151.714 42.0901C151.743 42.1102 151.764 42.1249 151.777 42.1341C151.784 42.1387 151.788 42.1418 151.791 42.1436C151.792 42.1445 151.793 42.145 151.793 42.1452C151.793 42.1453 151.793 42.1453 151.793 42.1452C151.793 42.1452 151.793 42.1451 151.793 42.145C151.793 42.145 151.793 42.1449 151.793 42.1449C151.793 42.1449 151.793 42.1448 151.793 42.1448C151.793 42.1448 151.792 42.1448 151.792 42.1447C151.792 42.1447 151.792 42.1447 152.951 40.5142C154.109 38.8837 154.109 38.8837 154.109 38.8836C154.109 38.8836 154.109 38.8836 154.109 38.8836C154.109 38.8836 154.109 38.8835 154.109 38.8835C154.108 38.8834 154.108 38.8833 154.108 38.8832C154.108 38.8831 154.108 38.8829 154.107 38.8826C154.107 38.8822 154.106 38.8817 154.105 38.881C154.103 38.8798 154.101 38.8782 154.098 38.8763C154.093 38.8724 154.085 38.867 154.076 38.8603C154.057 38.8469 154.03 38.828 153.994 38.8036C153.924 38.7548 153.822 38.6844 153.687 38.5934L151.444 41.9054ZM152.229 42.3795C152.38 42.4377 152.53 42.4962 152.68 42.5551L154.139 38.8305C153.983 38.7696 153.828 38.7091 153.672 38.6489L152.229 42.3795ZM166.813 49.1821C167.097 49.3375 167.38 49.4941 167.663 49.6518L169.611 46.1582C169.319 45.9956 169.027 45.8342 168.735 45.6741L166.813 49.1821ZM180.87 58.0429C181.134 58.2321 181.398 58.4223 181.662 58.6136L184.01 55.3756C183.74 55.1792 183.468 54.9839 183.197 54.7897L180.87 58.0429ZM193.882 68.4463C194.126 68.6631 194.371 68.8809 194.614 69.0996L197.286 66.1221C197.036 65.8984 196.786 65.6755 196.536 65.4536L193.882 68.4463ZM205.842 80.0952C206.066 80.3345 206.291 80.5747 206.515 80.8156L209.445 78.0926C209.216 77.8468 208.987 77.6018 208.758 77.3575L205.842 80.0952ZM216.774 92.7479C216.979 93.0053 217.184 93.2633 217.388 93.5221L220.527 91.043C220.319 90.7796 220.111 90.5168 219.902 90.2547L216.774 92.7479ZM226.718 106.213C226.904 106.485 227.09 106.758 227.276 107.031L230.585 104.784C230.396 104.507 230.208 104.23 230.018 103.953L226.718 106.213ZM235.717 120.343C235.885 120.627 236.053 120.911 236.22 121.196L239.669 119.171C239.499 118.882 239.329 118.593 239.159 118.305L235.717 120.343ZM243.811 135.022C243.961 135.315 244.111 135.609 244.261 135.903L247.826 134.09C247.675 133.792 247.522 133.494 247.37 133.196L243.811 135.022ZM251.033 150.157C251.166 150.459 251.299 150.76 251.432 151.062L255.094 149.454C254.96 149.148 254.825 148.842 254.69 148.537L251.033 150.157ZM257.408 165.676C257.525 165.984 257.642 166.292 257.758 166.6L261.501 165.191C261.384 164.879 261.266 164.567 261.148 164.256L257.408 165.676ZM262.956 181.515C263.057 181.828 263.157 182.142 263.257 182.455L267.068 181.242C266.967 180.925 266.866 180.608 266.764 180.291L262.956 181.515ZM267.686 197.622C267.771 197.939 267.855 198.257 267.938 198.575L271.807 197.557C271.722 197.235 271.637 196.913 271.551 196.592L267.686 197.622ZM271.602 213.948C271.671 214.269 271.739 214.59 271.806 214.912L275.721 214.087C275.652 213.762 275.583 213.437 275.514 213.112L271.602 213.948ZM274.701 230.448C274.754 230.772 274.806 231.097 274.858 231.421L278.808 230.792C278.755 230.464 278.703 230.136 278.65 229.808L274.701 230.448ZM276.975 247.081C277.012 247.407 277.047 247.734 277.083 248.06L281.06 247.629C281.024 247.299 280.987 246.969 280.951 246.638L276.975 247.081ZM278.41 263.799C278.43 264.128 278.449 264.457 278.468 264.786L282.462 264.558C282.443 264.225 282.423 263.891 282.403 263.558L278.41 263.799ZM278.988 280.566C278.991 280.895 278.994 281.224 278.995 281.553L282.995 281.532C282.993 281.198 282.991 280.865 282.988 280.532L278.988 280.566ZM278.687 297.339C278.672 297.667 278.657 297.996 278.641 298.325L282.637 298.516C282.653 298.183 282.668 297.85 282.683 297.517L278.687 297.339ZM277.479 314.068C277.446 314.395 277.413 314.722 277.379 315.049L281.358 315.461C281.392 315.129 281.426 314.798 281.459 314.466L277.479 314.068ZM275.336 330.698C275.285 331.022 275.233 331.347 275.18 331.672L279.129 332.31C279.182 331.981 279.235 331.652 279.287 331.323L275.336 330.698ZM272.228 347.169C272.158 347.49 272.087 347.811 272.015 348.132L275.919 349.005C275.991 348.679 276.064 348.354 276.135 348.028L272.228 347.169ZM268.127 363.415C268.037 363.731 267.946 364.047 267.855 364.362L271.696 365.476C271.789 365.156 271.882 364.835 271.973 364.515L268.127 363.415ZM263.007 379.364C262.897 379.673 262.786 379.982 262.674 380.291L266.435 381.651C266.549 381.338 266.662 381.024 266.774 380.71L263.007 379.364ZM256.846 394.939C256.716 395.24 256.584 395.54 256.452 395.84L260.113 397.451C260.248 397.146 260.381 396.841 260.514 396.536L256.846 394.939ZM249.639 410.045C249.487 410.336 249.334 410.628 249.181 410.919L252.721 412.782C252.877 412.486 253.032 412.189 253.186 411.893L249.639 410.045ZM241.386 424.595C241.214 424.875 241.041 425.155 240.867 425.434L244.264 427.546C244.441 427.262 244.617 426.977 244.792 426.692L241.386 424.595ZM232.104 438.504C231.912 438.77 231.719 439.036 231.525 439.302L234.758 441.657C234.955 441.387 235.152 441.116 235.348 440.845L232.104 438.504ZM221.823 451.69C221.612 451.94 221.401 452.191 221.188 452.441L224.238 455.03C224.454 454.775 224.67 454.52 224.885 454.264L221.823 451.69ZM210.588 464.082C210.36 464.316 210.131 464.549 209.901 464.782L212.751 467.589C212.984 467.352 213.217 467.114 213.45 466.877L210.588 464.082ZM198.452 475.624C198.208 475.839 197.964 476.054 197.719 476.269L200.355 479.277C200.604 479.059 200.852 478.841 201.1 478.622L198.452 475.624ZM185.497 486.26C185.233 486.462 184.969 486.662 184.703 486.863L187.116 490.054C187.385 489.85 187.654 489.646 187.923 489.441L185.497 486.26ZM171.885 495.908C171.609 496.09 171.331 496.272 171.054 496.453L173.239 499.803C173.521 499.619 173.803 499.435 174.084 499.25L171.885 495.908ZM157.627 504.621C157.341 504.783 157.055 504.944 156.768 505.106L158.726 508.593C159.018 508.43 159.308 508.266 159.599 508.101L157.627 504.621ZM142.779 512.414C142.487 512.556 142.194 512.698 141.901 512.839L143.634 516.444C143.932 516.3 144.229 516.157 144.526 516.013L142.779 512.414ZM127.403 519.307C127.248 519.372 127.093 519.436 126.937 519.5L128.457 523.199C128.615 523.135 128.773 523.07 128.93 523.005L127.403 519.307ZM-431.813 522.696C-431.681 522.599 -431.549 522.502 -431.417 522.406L-433.773 519.173C-433.911 519.274 -434.049 519.375 -434.187 519.477L-431.813 522.696ZM-417.818 514.137C-417.521 513.986 -417.224 513.836 -416.925 513.688L-418.707 510.106C-419.016 510.26 -419.324 510.415 -419.63 510.571L-417.818 514.137ZM-402.158 507.459C-401.841 507.346 -401.522 507.233 -401.202 507.122L-402.519 503.345C-402.847 503.459 -403.174 503.574 -403.5 503.69L-402.158 507.459ZM-385.779 502.553C-385.453 502.472 -385.127 502.392 -384.8 502.312L-385.747 498.426C-386.081 498.507 -386.414 498.589 -386.746 498.672L-385.779 502.553ZM-369.001 499.079C-368.672 499.024 -368.343 498.969 -368.014 498.915L-368.663 494.968C-368.998 495.023 -369.332 495.078 -369.666 495.135L-369.001 499.079ZM-352.002 496.774C-351.668 496.739 -351.333 496.705 -350.997 496.671L-351.401 492.691C-351.741 492.726 -352.08 492.761 -352.419 492.796L-352.002 496.774ZM-334.882 495.446C-334.543 495.429 -334.204 495.412 -333.865 495.395L-334.061 491.4C-334.404 491.417 -334.747 491.434 -335.089 491.452L-334.882 495.446ZM-317.699 494.954C-317.361 494.952 -317.023 494.95 -316.684 494.949L-316.7 490.949C-317.042 490.95 -317.384 490.952 -317.725 490.954L-317.699 494.954ZM-300.494 495.194C-300.157 495.205 -299.82 495.217 -299.483 495.229L-299.339 491.231C-299.68 491.219 -300.02 491.207 -300.36 491.196L-300.494 495.194ZM-283.297 496.089C-282.962 496.113 -282.626 496.137 -282.289 496.161L-282.002 492.171C-282.341 492.147 -282.679 492.123 -283.018 492.099L-283.297 496.089ZM-266.142 497.583C-265.805 497.618 -265.469 497.653 -265.132 497.689L-264.712 493.711C-265.051 493.675 -265.39 493.639 -265.729 493.604L-266.142 497.583ZM-249.043 499.634C-248.708 499.679 -248.374 499.725 -248.039 499.771L-247.493 495.809C-247.83 495.762 -248.167 495.716 -248.505 495.67L-249.043 499.634ZM-232.01 502.214C-231.677 502.27 -231.343 502.326 -231.01 502.382L-230.344 498.438C-230.68 498.382 -231.015 498.325 -231.351 498.269L-232.01 502.214ZM-215.065 505.307C-214.733 505.372 -214.402 505.438 -214.07 505.505L-213.286 501.582C-213.62 501.515 -213.954 501.449 -214.288 501.383L-215.065 505.307ZM-198.214 508.906C-197.885 508.981 -197.556 509.057 -197.228 509.133L-196.326 505.236C-196.657 505.159 -196.988 505.083 -197.319 505.007L-198.214 508.906ZM-181.483 513.014C-181.156 513.1 -180.829 513.186 -180.502 513.272L-179.481 509.404C-179.81 509.318 -180.139 509.231 -180.469 509.145L-181.483 513.014ZM-164.9 517.643C-164.574 517.74 -164.25 517.837 -163.925 517.934L-162.779 514.101C-163.106 514.004 -163.434 513.906 -163.761 513.809L-164.9 517.643ZM-148.487 522.822C-148.328 522.876 -148.169 522.929 -148.011 522.982L-146.736 519.191C-146.896 519.137 -147.056 519.083 -147.216 519.03L-148.487 522.822ZM-148.011 522.982C-147.855 523.035 -147.699 523.087 -147.543 523.139L-146.272 519.346C-146.427 519.295 -146.581 519.243 -146.736 519.191L-148.011 522.982ZM-132.648 527.841C-132.333 527.935 -132.018 528.028 -131.703 528.12L-130.574 524.283C-130.886 524.191 -131.198 524.099 -131.511 524.006L-132.648 527.841ZM-116.642 532.264C-116.324 532.345 -116.007 532.426 -115.69 532.507L-114.706 528.63C-115.02 528.55 -115.334 528.47 -115.649 528.389L-116.642 532.264ZM-100.485 536.081C-100.166 536.15 -99.8472 536.218 -99.5286 536.287L-98.6912 532.375C-99.0069 532.308 -99.3228 532.24 -99.6388 532.171L-100.485 536.081ZM-84.2051 539.283C-83.8853 539.34 -83.5658 539.396 -83.2464 539.452L-82.5574 535.512C-82.8739 535.457 -83.1905 535.401 -83.5074 535.345L-84.2051 539.283ZM-67.832 541.865C-67.5123 541.91 -67.1928 541.954 -66.8735 541.997L-66.334 538.034C-66.6503 537.991 -66.9669 537.947 -67.2838 537.903L-67.832 541.865ZM-51.3727 543.826C-51.0453 543.859 -50.7182 543.891 -50.3914 543.923L-50.0025 539.942C-50.3263 539.911 -50.6504 539.879 -50.9748 539.846L-51.3727 543.826ZM-34.8072 545.166C-34.4816 545.186 -34.1564 545.205 -33.8314 545.225L-33.5937 541.232C-33.9156 541.213 -34.2379 541.193 -34.5606 541.173L-34.8072 545.166ZM-18.2427 545.875C-17.9201 545.883 -17.5979 545.89 -17.276 545.897L-17.1893 541.898C-17.5082 541.891 -17.8275 541.884 -18.1472 541.876L-18.2427 545.875ZM-1.65457 545.957C-1.32608 545.953 -0.998061 545.948 -0.670508 545.943L-0.735209 541.943C-1.05977 541.948 -1.3848 541.953 -1.71029 541.958L-1.65457 545.957ZM14.9369 545.412C15.2595 545.395 15.5815 545.378 15.9031 545.361L15.687 541.366C15.3684 541.384 15.0493 541.401 14.7296 541.417L14.9369 545.412ZM31.487 544.238C31.8138 544.208 32.1399 544.178 32.4654 544.148L32.0974 540.165C31.7749 540.195 31.4517 540.224 31.1279 540.254L31.487 544.238ZM47.9441 542.436C48.2708 542.394 48.5966 542.352 48.9217 542.309L48.401 538.343C48.079 538.385 47.7562 538.427 47.4325 538.469L47.9441 542.436ZM64.385 539.989C64.7008 539.935 65.0155 539.882 65.3293 539.828L64.6533 535.885C64.3426 535.939 64.0308 535.992 63.7181 536.045L64.385 539.989ZM80.6869 536.893C80.9986 536.827 81.309 536.761 81.6181 536.695L80.7822 532.783C80.4763 532.849 80.169 532.914 79.8604 532.979L80.6869 536.893ZM96.8597 533.114C97.1838 533.031 97.5057 532.948 97.8253 532.865L96.8191 528.993C96.503 529.076 96.1846 529.158 95.8641 529.24L96.8597 533.114ZM112.839 528.596C113.166 528.494 113.489 528.393 113.807 528.294L112.607 524.478C112.293 524.576 111.975 524.676 111.653 524.776L112.839 528.596ZM128.586 523.113C128.731 523.055 128.84 523.01 128.915 522.979C128.952 522.963 128.981 522.951 129.001 522.943C129.011 522.939 129.018 522.936 129.024 522.934C129.026 522.932 129.029 522.931 129.03 522.931C129.031 522.93 129.032 522.93 129.032 522.93C129.033 522.93 129.033 522.93 129.033 522.93C129.033 522.93 129.033 522.93 129.033 522.93C129.033 522.929 129.033 522.929 129.033 522.929C129.033 522.929 129.033 522.929 129.033 522.929C129.033 522.929 129.034 522.929 128.257 521.086C127.48 519.244 127.48 519.244 127.48 519.244C127.48 519.244 127.48 519.244 127.48 519.244C127.48 519.244 127.48 519.243 127.48 519.243C127.48 519.243 127.48 519.243 127.48 519.243C127.48 519.243 127.48 519.243 127.48 519.243C127.48 519.243 127.48 519.243 127.48 519.244C127.479 519.244 127.478 519.244 127.476 519.245C127.473 519.246 127.467 519.249 127.46 519.252C127.444 519.258 127.42 519.269 127.387 519.282C127.321 519.31 127.22 519.351 127.084 519.406L128.586 523.113ZM-156.523 40.5142L-155.02 44.2208L-156.523 40.5142ZM152.951 40.5142L150.634 43.7752C150.905 43.9674 151.198 44.1252 151.508 44.2449L152.951 40.5142ZM-147.373 521.086L-148.648 524.878L-148.648 524.878L-147.373 521.086ZM126.177 517.65C124.134 518.489 123.158 520.827 123.997 522.87C124.837 524.913 127.174 525.889 129.218 525.049L126.177 517.65ZM-434.959 59.5913C-433.173 60.8922 -430.671 60.4993 -429.371 58.7137C-428.07 56.9282 -428.463 54.4262 -430.248 53.1254L-434.959 59.5913ZM-417.277 60.9413C-419.255 59.9581 -421.656 60.7646 -422.639 62.7429C-423.623 64.7211 -422.816 67.1219 -420.838 68.1052L-417.277 60.9413ZM-419.916 68.5579C-417.929 69.5227 -415.536 68.6938 -414.571 66.7064C-413.606 64.7191 -414.435 62.3259 -416.422 61.3611L-419.916 68.5579ZM-402.222 67.086C-404.319 66.3913 -406.582 67.5282 -407.277 69.6253C-407.971 71.7224 -406.834 73.9856 -404.737 74.6802L-402.222 67.086ZM-403.761 74.9995C-401.659 75.6788 -399.404 74.5254 -398.725 72.4233C-398.046 70.3212 -399.199 68.0664 -401.301 67.3871L-403.761 74.9995ZM-386.381 71.3412C-388.542 70.8815 -390.667 72.2605 -391.126 74.4213C-391.586 76.5821 -390.207 78.7064 -388.046 79.1661L-386.381 71.3412ZM-387.05 79.3751C-384.886 79.8224 -382.77 78.4313 -382.323 76.2679C-381.875 74.1046 -383.266 71.9882 -385.43 71.5408L-387.05 79.3751ZM-370.111 74.0398C-372.304 73.7701 -374.3 75.3289 -374.57 77.5215C-374.84 79.7141 -373.281 81.7102 -371.088 81.98L-370.111 74.0398ZM-370.095 82.0998C-367.902 82.3597 -365.913 80.7919 -365.653 78.5981C-365.393 76.4043 -366.961 74.4152 -369.154 74.1554L-370.095 82.0998ZM-353.621 75.4603C-355.827 75.3459 -357.708 77.0417 -357.823 79.2478C-357.937 81.454 -356.241 83.3352 -354.035 83.4496L-353.621 75.4603ZM-353.036 83.4995C-350.829 83.6057 -348.954 81.9029 -348.848 79.6963C-348.742 77.4898 -350.445 75.6149 -352.651 75.5088L-353.036 83.4995ZM-337.03 75.8188C-339.239 75.834 -341.018 77.6372 -341.002 79.8462C-340.987 82.0553 -339.184 83.8338 -336.975 83.8187L-337.03 75.8188ZM-335.964 83.8101C-333.755 83.7879 -331.982 81.9791 -332.004 79.7701C-332.027 77.561 -333.835 75.7883 -336.044 75.8105L-335.964 83.8101ZM-320.408 75.2787C-322.613 75.4042 -324.299 77.2939 -324.174 79.4994C-324.048 81.705 -322.159 83.3912 -319.953 83.2657L-320.408 75.2787ZM-318.949 83.2072C-316.744 83.0757 -315.063 81.1814 -315.195 78.9762C-315.326 76.771 -317.22 75.0899 -319.426 75.2214L-318.949 83.2072ZM-303.797 73.9624C-305.995 74.1838 -307.598 76.1451 -307.376 78.3431C-307.155 80.5412 -305.193 82.1435 -302.995 81.9222L-303.797 73.9624ZM-302 81.8207C-299.802 81.594 -298.205 79.6289 -298.431 77.4314C-298.658 75.2339 -300.623 73.6362 -302.821 73.8629L-302 81.8207ZM-287.229 71.963C-289.417 72.2693 -290.942 74.2913 -290.636 76.479C-290.329 78.6668 -288.307 80.192 -286.12 79.8857L-287.229 71.963ZM-285.132 79.7463C-282.945 79.4352 -281.424 77.4101 -281.735 75.2229C-282.046 73.0358 -284.071 71.5149 -286.258 71.826L-285.132 79.7463ZM-270.73 69.3517C-272.906 69.7348 -274.359 71.8091 -273.976 73.9847C-273.592 76.1604 -271.518 77.6136 -269.343 77.2305L-270.73 69.3517ZM-268.361 77.0566C-266.186 76.6692 -264.737 74.5921 -265.124 72.4172C-265.512 70.2423 -267.589 68.7932 -269.764 69.1806L-268.361 77.0566ZM-254.329 66.185C-256.491 66.6386 -257.876 68.759 -257.423 70.9211C-256.969 73.0831 -254.849 74.4681 -252.686 74.0145L-254.329 66.185ZM-251.709 73.8085C-249.548 73.3509 -248.167 71.2279 -248.624 69.0667C-249.082 66.9054 -251.205 65.5244 -253.366 65.982L-251.709 73.8085ZM-238.022 62.4997C-240.169 63.0194 -241.489 65.1812 -240.969 67.3284C-240.449 69.4755 -238.288 70.7949 -236.14 70.2752L-238.022 62.4997ZM-235.171 70.0397C-233.025 69.5163 -231.709 67.3521 -232.233 65.2058C-232.756 63.0596 -234.92 61.7441 -237.067 62.2675L-235.171 70.0397ZM-221.83 58.3262C-223.961 58.9089 -225.216 61.1086 -224.633 63.2396C-224.051 65.3705 -221.851 66.6256 -219.72 66.043L-221.83 58.3262ZM-218.757 65.7789C-216.628 65.1926 -215.376 62.9907 -215.962 60.8608C-216.549 58.7309 -218.751 57.4795 -220.88 58.0658L-218.757 65.7789ZM-205.762 53.6827C-207.875 54.3264 -209.066 56.5615 -208.423 58.6747C-207.779 60.788 -205.544 61.9792 -203.431 61.3354L-205.762 53.6827ZM-202.478 61.0444C-200.366 60.3971 -199.178 58.16 -199.826 56.0479C-200.473 53.9357 -202.71 52.7482 -204.822 53.3956L-202.478 61.0444ZM-189.832 48.5786C-191.926 49.2829 -193.052 51.5512 -192.348 53.6451C-191.643 55.739 -189.375 56.8654 -187.281 56.1611L-189.832 48.5786ZM-186.336 55.8424C-184.244 55.1345 -183.121 52.8642 -183.829 50.7716C-184.537 48.6789 -186.807 47.5563 -188.9 48.2642L-186.336 55.8424ZM-174.065 43.0177C-176.137 43.7831 -177.196 46.0835 -176.431 48.1558C-175.666 50.2281 -173.365 51.2876 -171.293 50.5221L-174.065 43.0177ZM-170.355 50.1747C-168.284 49.4056 -167.228 47.1033 -167.997 45.0323C-168.766 42.9614 -171.069 41.906 -173.14 42.6751L-170.355 50.1747ZM-158.479 36.9909C-160.527 37.8194 -161.516 40.1512 -160.687 42.1991C-159.859 44.247 -157.527 45.2355 -155.479 44.407L-158.479 36.9909ZM-154.554 44.0321C-152.506 43.2035 -151.518 40.8716 -152.346 38.8238C-153.175 36.776 -155.507 35.7876 -157.555 36.6163L-154.554 44.0321ZM-142.613 30.8105C-144.683 31.5814 -145.736 33.8847 -144.965 35.9549C-144.194 38.0252 -141.891 39.0785 -139.821 38.3076L-142.613 30.8105ZM-138.911 37.9697C-136.84 37.2024 -135.782 34.901 -136.549 32.8294C-137.317 30.7578 -139.618 29.7004 -141.69 30.4677L-138.911 37.9697ZM-126.58 25.1211C-128.673 25.827 -129.798 28.0963 -129.092 30.1896C-128.386 32.2829 -126.117 33.4076 -124.023 32.7017L-126.58 25.1211ZM-123.1 32.3912C-121.005 31.6892 -119.876 29.422 -120.578 27.3274C-121.28 25.2328 -123.547 24.1038 -125.642 24.8059L-123.1 32.3912ZM-110.38 19.95C-112.495 20.5869 -113.694 22.818 -113.057 24.9333C-112.42 27.0487 -110.189 28.2472 -108.074 27.6103L-110.38 19.95ZM-107.138 27.3296C-105.021 26.6969 -103.818 24.4682 -104.451 22.3516C-105.084 20.235 -107.312 19.0321 -109.429 19.6648L-107.138 27.3296ZM-94.0155 15.3268C-96.1516 15.8904 -97.4263 18.0789 -96.8628 20.2149C-96.2992 22.351 -94.1107 23.6257 -91.9747 23.0621L-94.0155 15.3268ZM-91.0288 22.8136C-88.8916 22.2545 -87.6123 20.0687 -88.1714 17.9315C-88.7306 15.7943 -90.9164 14.515 -93.0536 15.0741L-91.0288 22.8136ZM-77.4949 11.2842C-79.6499 11.77 -81.0031 13.9108 -80.5173 16.0659C-80.0315 18.2209 -77.8906 19.5741 -75.7356 19.0883L-77.4949 11.2842ZM-74.7817 18.8744C-72.6256 18.3932 -71.2678 16.2553 -71.7489 14.0992C-72.23 11.9431 -74.3679 10.5853 -76.524 11.0664L-74.7817 18.8744ZM-60.8319 7.85683C-63.0039 8.26033 -64.4375 10.3482 -64.034 12.5201C-63.6305 14.6921 -61.5427 16.1258 -59.3707 15.7222L-60.8319 7.85683ZM-58.4115 15.5452C-56.2386 15.1466 -54.8002 13.0621 -55.1988 10.8892C-55.5973 8.71628 -57.6819 7.27789 -59.8548 7.67645L-58.4115 15.5452ZM-44.0476 5.08121C-46.2339 5.39773 -47.7497 7.42671 -47.4332 9.61306C-47.1167 11.7994 -45.0877 13.3152 -42.9014 12.9987L-44.0476 5.08121ZM-41.9397 12.8606C-39.7527 12.5493 -38.232 10.5239 -38.5434 8.33685C-38.8547 6.14975 -40.88 4.62914 -43.0671 4.94045L-41.9397 12.8606ZM-27.1704 2.99421C-29.368 3.21908 -30.9673 5.18294 -30.7424 7.3806C-30.5176 9.57826 -28.5537 11.1775 -26.3561 10.9527L-27.1704 2.99421ZM-25.3954 10.8556C-23.1972 10.6362 -21.5931 8.67628 -21.8125 6.47806C-22.0319 4.27985 -23.9918 2.67571 -26.19 2.89513L-25.3954 10.8556ZM-10.1953 1.62961C-12.4007 1.75796 -14.0845 3.64984 -13.9561 5.85525C-13.8278 8.06066 -11.9359 9.74444 -9.73051 9.61609L-10.1953 1.62961ZM-8.73453 9.55947C-6.52878 9.43704 -4.83992 7.54969 -4.96235 5.34395C-5.08477 3.1382 -6.97213 1.44934 -9.17787 1.57176L-8.73453 9.55947ZM6.88583 1.02653C4.67685 1.05327 2.9078 2.86569 2.93455 5.07467C2.9613 7.28364 4.77371 9.05269 6.98269 9.02594L6.88583 1.02653ZM7.96908 9.01537C10.1781 8.99476 11.9522 7.18727 11.9316 4.97823C11.911 2.76919 10.1035 0.99511 7.89446 1.01572L7.96908 9.01537ZM23.9416 1.22649C21.7339 1.14718 19.8799 2.87259 19.8006 5.08031C19.7213 7.28802 21.4467 9.14202 23.6544 9.22133L23.9416 1.22649ZM24.6258 9.25762C26.8333 9.34326 28.6922 7.62317 28.7779 5.41569C28.8635 3.20821 27.1434 1.34927 24.9359 1.26363L24.6258 9.25762ZM40.9314 2.26007C38.7304 2.07036 36.7924 3.70082 36.6027 5.90179C36.413 8.10277 38.0434 10.0408 40.2444 10.2305L40.9314 2.26007ZM41.2385 10.3177C43.4388 10.5142 45.3819 8.88975 45.5784 6.68936C45.7749 4.48898 44.1504 2.54593 41.95 2.34945L41.2385 10.3177ZM57.948 4.17605C55.76 3.8707 53.7388 5.39684 53.4335 7.58477C53.1281 9.77271 54.6543 11.7939 56.8422 12.0993L57.948 4.17605ZM57.8065 12.2354C59.9935 12.5476 62.0195 11.0279 62.3317 8.8409C62.6439 6.65394 61.1242 4.62794 58.9372 4.3157L57.8065 12.2354ZM74.776 6.99469C72.6082 6.56946 70.5061 7.98211 70.0809 10.1499C69.6557 12.3178 71.0683 14.4199 73.2361 14.8451L74.776 6.99469ZM74.2094 15.0377C76.3758 15.4703 78.4826 14.0647 78.9152 11.8983C79.3477 9.73194 77.9422 7.6251 75.7758 7.19255L74.2094 15.0377ZM91.4194 10.7589C89.2799 10.2087 87.0994 11.4971 86.5492 13.6366C85.999 15.7761 87.2874 17.9566 89.427 18.5068L91.4194 10.7589ZM90.3847 18.7549C92.5223 19.3127 94.7073 18.0321 95.2651 15.8945C95.823 13.757 94.5423 11.572 92.4048 11.0141L90.3847 18.7549ZM107.858 15.5275C105.757 14.8458 103.501 15.9965 102.819 18.0978C102.137 20.1991 103.288 22.4553 105.389 23.137L107.858 15.5275ZM106.326 23.4429C108.424 24.1327 110.685 22.9906 111.375 20.8919C112.065 18.7933 110.923 16.5328 108.824 15.8429L106.326 23.4429ZM124.014 21.3728C121.964 20.5497 119.635 21.5444 118.812 23.5945C117.989 25.6445 118.984 27.9737 121.034 28.7968L124.014 21.3728ZM121.951 29.1672C123.997 29.9991 126.33 29.0145 127.162 26.968C127.994 24.9215 127.01 22.588 124.963 21.7561L121.951 29.1672ZM139.692 28.3736C137.713 27.391 135.313 28.1985 134.33 30.1772C133.348 32.1558 134.155 34.5563 136.134 35.5388L139.692 28.3736ZM137.027 35.9855C139.001 36.9788 141.406 36.1844 142.399 34.2112C143.392 32.238 142.598 29.8331 140.625 28.8398L137.027 35.9855ZM154.809 36.9373C152.98 35.6987 150.492 36.1774 149.254 38.0066C148.015 39.8358 148.494 42.3228 150.323 43.5615L154.809 36.9373ZM151.951 44.4174C154.008 45.2229 156.328 44.2084 157.134 42.1514C157.94 40.0943 156.925 37.7737 154.868 36.9682L151.951 44.4174ZM169.696 43.92C167.758 42.8586 165.327 43.5688 164.266 45.5063C163.205 47.4437 163.915 49.8748 165.852 50.9362L169.696 43.92ZM166.689 51.3986C168.618 52.4744 171.055 51.7824 172.131 49.8529C173.206 47.9234 172.514 45.4872 170.585 44.4113L166.689 51.3986ZM184.361 53.1631C182.564 51.8777 180.065 52.2923 178.78 54.089C177.495 55.8857 177.909 58.3842 179.706 59.6696L184.361 53.1631ZM180.488 60.2326C182.276 61.5296 184.777 61.1314 186.074 59.3431C187.371 57.5548 186.973 55.0536 185.185 53.7566L180.488 60.2326ZM197.863 63.9572C196.21 62.4914 193.682 62.6431 192.216 64.2959C190.75 65.9487 190.902 68.4768 192.555 69.9426L197.863 63.9572ZM193.279 70.5884C194.923 72.0635 197.452 71.9264 198.927 70.2819C200.403 68.6375 200.265 66.1086 198.621 64.6334L193.279 70.5884ZM210.216 75.9887C208.704 74.378 206.173 74.2981 204.562 75.8101C202.952 77.322 202.872 79.8534 204.384 81.4641L210.216 75.9887ZM205.049 82.177C206.553 83.7953 209.084 83.888 210.703 82.3842C212.321 80.8803 212.414 78.3494 210.91 76.7311L205.049 82.177ZM221.466 89.0082C220.089 87.2806 217.572 86.9964 215.845 88.3733C214.117 89.7503 213.833 92.2669 215.21 93.9944L221.466 89.0082ZM215.819 94.7616C217.188 96.4953 219.703 96.7909 221.437 95.4217C223.17 94.0526 223.466 91.5372 222.097 89.8035L215.819 94.7616ZM231.668 102.823C230.42 101 227.931 100.535 226.108 101.783C224.285 103.031 223.82 105.521 225.068 107.343L231.668 102.823ZM225.621 108.154C226.862 109.982 229.349 110.458 231.177 109.217C233.005 107.976 233.48 105.488 232.24 103.661L225.621 108.154ZM240.88 117.286C239.754 115.385 237.301 114.757 235.4 115.882C233.499 117.008 232.87 119.462 233.996 121.362L240.88 117.286ZM234.495 122.209C235.614 124.114 238.065 124.751 239.97 123.633C241.875 122.514 242.512 120.063 241.394 118.158L234.495 122.209ZM249.15 132.284C248.141 130.318 245.731 129.542 243.765 130.55C241.799 131.558 241.023 133.969 242.031 135.935L249.15 132.284ZM242.478 136.81C243.48 138.779 245.888 139.563 247.857 138.562C249.826 137.56 250.61 135.152 249.609 133.183L242.478 136.81ZM256.518 147.727C255.624 145.707 253.261 144.795 251.241 145.69C249.221 146.585 248.309 148.948 249.204 150.968L256.518 147.727ZM249.6 151.866C250.489 153.889 252.848 154.809 254.871 153.92C256.894 153.032 257.814 150.672 256.925 148.65L249.6 151.866ZM263.017 163.545C262.233 161.48 259.923 160.442 257.858 161.226C255.793 162.011 254.754 164.321 255.539 166.386L263.017 163.545ZM255.886 167.304C256.664 169.372 258.971 170.417 261.038 169.639C263.106 168.861 264.151 166.554 263.373 164.487L255.886 167.304ZM268.668 179.679C267.992 177.576 265.739 176.419 263.636 177.095C261.533 177.771 260.376 180.024 261.052 182.127L268.668 179.679ZM261.351 183.062C262.021 185.167 264.27 186.33 266.375 185.661C268.48 184.991 269.644 182.741 268.974 180.636L261.351 183.062ZM273.484 196.077C272.915 193.942 270.723 192.673 268.589 193.242C266.454 193.811 265.185 196.002 265.753 198.137L273.484 196.077ZM266.004 199.084C266.567 201.221 268.755 202.497 270.891 201.934C273.027 201.372 274.303 199.184 273.741 197.047L266.004 199.084ZM277.47 212.694C277.008 210.534 274.882 209.157 272.722 209.618C270.562 210.08 269.184 212.205 269.646 214.366L277.47 212.694ZM269.849 215.324C270.305 217.486 272.426 218.869 274.588 218.414C276.75 217.959 278.133 215.837 277.678 213.675L269.849 215.324ZM280.624 229.488C280.27 227.307 278.215 225.826 276.035 226.18C273.854 226.533 272.373 228.588 272.727 230.769L280.624 229.488ZM272.882 231.736C273.23 233.917 275.28 235.404 277.462 235.057C279.643 234.71 281.13 232.659 280.783 230.478L272.882 231.736ZM282.938 246.417C282.694 244.221 280.716 242.64 278.52 242.884C276.325 243.128 274.743 245.106 274.987 247.302L282.938 246.417ZM275.094 248.276C275.332 250.472 277.306 252.059 279.502 251.822C281.698 251.584 283.286 249.61 283.048 247.414L275.094 248.276ZM284.399 263.438C284.266 261.233 282.371 259.553 280.166 259.686C277.961 259.819 276.281 261.714 276.414 263.92L284.399 263.438ZM276.472 264.901C276.598 267.106 278.488 268.792 280.694 268.666C282.899 268.539 284.585 266.649 284.458 264.443L276.472 264.901ZM284.988 280.515C284.969 278.306 283.163 276.53 280.954 276.549C278.745 276.568 276.97 278.374 276.988 280.583L284.988 280.515ZM276.995 281.564C277.007 283.773 278.808 285.554 281.017 285.543C283.226 285.531 285.007 283.73 284.995 281.521L276.995 281.564ZM284.681 297.607C284.78 295.4 283.071 293.531 280.864 293.432C278.657 293.333 276.788 295.042 276.689 297.249L284.681 297.607ZM276.643 298.229C276.538 300.435 278.241 302.31 280.447 302.416C282.654 302.522 284.529 300.818 284.634 298.612L276.643 298.229ZM283.449 314.665C283.669 312.467 282.066 310.507 279.867 310.287C277.669 310.067 275.709 311.67 275.489 313.868L283.449 314.665ZM275.39 314.843C275.162 317.041 276.76 319.006 278.957 319.234C281.154 319.461 283.12 317.864 283.347 315.666L275.39 314.843ZM281.262 331.635C281.608 329.453 280.119 327.405 277.937 327.059C275.755 326.714 273.706 328.203 273.361 330.385L281.262 331.635ZM273.206 331.352C272.853 333.533 274.335 335.587 276.516 335.94C278.697 336.292 280.751 334.811 281.103 332.63L273.206 331.352ZM278.088 348.457C278.563 346.3 277.198 344.166 275.041 343.692C272.883 343.217 270.75 344.582 270.275 346.739L278.088 348.457ZM270.063 347.695C269.581 349.851 270.938 351.989 273.094 352.472C275.25 352.954 277.388 351.597 277.87 349.441L270.063 347.695ZM273.896 365.065C274.504 362.941 273.274 360.726 271.15 360.119C269.026 359.512 266.812 360.741 266.205 362.865L273.896 365.065ZM265.934 363.805C265.319 365.927 266.54 368.145 268.662 368.761C270.783 369.376 273.002 368.155 273.617 366.033L265.934 363.805ZM268.657 381.383C269.401 379.303 268.317 377.014 266.236 376.271C264.156 375.527 261.867 376.611 261.124 378.691L268.657 381.383ZM260.793 379.61C260.042 381.688 261.117 383.981 263.194 384.733C265.271 385.484 267.565 384.409 268.316 382.332L260.793 379.61ZM262.348 397.334C263.229 395.308 262.302 392.951 260.277 392.07C258.251 391.188 255.894 392.115 255.013 394.141L262.348 397.334ZM254.622 395.034C253.732 397.056 254.65 399.417 256.672 400.306C258.694 401.196 261.054 400.278 261.944 398.256L254.622 395.034ZM254.96 412.817C255.981 410.857 255.22 408.442 253.261 407.421C251.301 406.401 248.886 407.161 247.865 409.121L254.96 412.817ZM247.411 409.988C246.382 411.943 247.133 414.362 249.088 415.39C251.043 416.419 253.462 415.668 254.491 413.713L247.411 409.988ZM246.495 427.741C247.654 425.86 247.068 423.396 245.187 422.238C243.306 421.079 240.842 421.665 239.683 423.546L246.495 427.741ZM239.168 424.378C238.002 426.255 238.577 428.721 240.453 429.887C242.329 431.054 244.796 430.479 245.962 428.602L239.168 424.378ZM236.969 442.015C238.262 440.224 237.858 437.724 236.067 436.431C234.276 435.138 231.775 435.542 230.483 437.333L236.969 442.015ZM229.909 438.125C228.608 439.91 229.001 442.412 230.787 443.713C232.572 445.014 235.074 444.621 236.375 442.835L229.909 438.125ZM226.415 455.552C227.837 453.861 227.619 451.338 225.929 449.916C224.238 448.494 221.715 448.712 220.293 450.402L226.415 455.552ZM219.663 451.147C218.234 452.832 218.441 455.356 220.125 456.785C221.809 458.215 224.334 458.008 225.763 456.324L219.663 451.147ZM214.88 468.274C216.424 466.693 216.394 464.161 214.814 462.617C213.233 461.074 210.701 461.104 209.157 462.684L214.88 468.274ZM208.476 463.378C206.926 464.952 206.945 467.485 208.519 469.035C210.092 470.585 212.625 470.566 214.175 468.993L208.476 463.378ZM202.424 480.121C204.08 478.658 204.236 476.13 202.774 474.475C201.311 472.819 198.783 472.663 197.127 474.125L202.424 480.121ZM196.401 474.764C194.74 476.22 194.573 478.747 196.028 480.409C197.484 482.07 200.011 482.237 201.673 480.782L196.401 474.764ZM189.136 491.031C190.892 489.691 191.23 487.181 189.891 485.425C188.551 483.668 186.041 483.33 184.284 484.67L189.136 491.031ZM183.497 485.268C181.735 486.6 181.386 489.108 182.719 490.871C184.051 492.633 186.559 492.981 188.322 491.649L183.497 485.268ZM175.184 500.92C177.029 499.706 177.541 497.225 176.326 495.38C175.111 493.535 172.631 493.023 170.786 494.238L175.184 500.92ZM169.961 494.778C168.111 495.985 167.589 498.464 168.796 500.314C170.003 502.164 172.482 502.686 174.332 501.479L169.961 494.778ZM160.585 509.841C162.507 508.752 163.182 506.311 162.093 504.389C161.004 502.467 158.563 501.792 156.641 502.881L160.585 509.841ZM155.789 503.362C153.862 504.443 153.178 506.881 154.259 508.808C155.341 510.734 157.779 511.419 159.705 510.337L155.789 503.362ZM145.399 517.812C147.387 516.848 148.216 514.454 147.251 512.467C146.286 510.48 143.893 509.65 141.906 510.615L145.399 517.812ZM141.034 511.037C139.043 511.994 138.205 514.384 139.163 516.375C140.12 518.366 142.51 519.204 144.501 518.246L141.034 511.037ZM129.694 524.853C131.736 524.01 132.707 521.671 131.864 519.629C131.021 517.587 128.682 516.616 126.64 517.459L129.694 524.853ZM-430.239 524.022C-428.454 522.721 -428.061 520.219 -429.362 518.434C-430.663 516.648 -433.165 516.256 -434.951 517.557L-430.239 524.022ZM-420.536 508.788C-422.506 509.789 -423.291 512.197 -422.29 514.166C-421.289 516.136 -418.881 516.921 -416.911 515.919L-420.536 508.788ZM-416.034 515.478C-414.056 514.494 -413.25 512.093 -414.235 510.115C-415.219 508.137 -417.62 507.332 -419.598 508.316L-416.034 515.478ZM-404.171 501.806C-406.252 502.547 -407.338 504.835 -406.597 506.916C-405.856 508.997 -403.568 510.084 -401.487 509.343L-404.171 501.806ZM-400.544 509.01C-398.458 508.283 -397.357 506.002 -398.084 503.917C-398.811 501.831 -401.092 500.729 -403.178 501.457L-400.544 509.01ZM-387.229 496.731C-389.373 497.265 -390.678 499.436 -390.144 501.579C-389.61 503.723 -387.439 505.028 -385.295 504.494L-387.229 496.731ZM-384.326 504.255C-382.18 503.732 -380.864 501.568 -381.387 499.421C-381.91 497.275 -384.074 495.959 -386.221 496.483L-384.326 504.255ZM-369.999 493.163C-372.177 493.53 -373.645 495.594 -373.278 497.772C-372.91 499.95 -370.847 501.419 -368.668 501.051L-369.999 493.163ZM-367.689 500.888C-365.509 500.529 -364.033 498.471 -364.392 496.292C-364.75 494.112 -366.808 492.635 -368.988 492.994L-367.689 500.888ZM-352.627 490.807C-354.824 491.037 -356.419 493.005 -356.189 495.202C-355.958 497.399 -353.991 498.994 -351.794 498.764L-352.627 490.807ZM-350.796 498.661C-348.598 498.438 -346.997 496.475 -347.22 494.277C-347.442 492.08 -349.405 490.479 -351.603 490.702L-350.796 498.661ZM-335.193 489.455C-337.399 489.569 -339.094 491.45 -338.98 493.656C-338.866 495.863 -336.984 497.558 -334.778 497.444L-335.193 489.455ZM-333.767 497.393C-331.561 497.285 -329.859 495.408 -329.968 493.202C-330.076 490.995 -331.952 489.294 -334.159 489.402L-333.767 497.393ZM-317.738 488.954C-319.947 488.968 -321.726 490.771 -321.712 492.98C-321.698 495.189 -319.895 496.968 -317.686 496.954L-317.738 488.954ZM-316.676 496.949C-314.467 496.94 -312.684 495.142 -312.692 492.933C-312.701 490.724 -314.499 488.94 -316.708 488.949L-316.676 496.949ZM-300.293 489.197C-302.5 489.123 -304.35 490.853 -304.425 493.06C-304.499 495.268 -302.769 497.118 -300.561 497.193L-300.293 489.197ZM-299.554 497.228C-297.347 497.307 -295.493 495.581 -295.414 493.373C-295.334 491.166 -297.06 489.312 -299.268 489.233L-299.554 497.228ZM-282.878 490.104C-285.082 489.949 -286.994 491.611 -287.148 493.815C-287.302 496.018 -285.641 497.93 -283.437 498.084L-282.878 490.104ZM-282.433 498.156C-280.23 498.314 -278.315 496.657 -278.156 494.453C-277.997 492.25 -279.655 490.335 -281.858 490.176L-282.433 498.156ZM-265.523 491.615C-267.72 491.387 -269.686 492.983 -269.914 495.181C-270.142 497.378 -268.546 499.344 -266.349 499.572L-265.523 491.615ZM-265.342 499.678C-263.146 499.91 -261.176 498.317 -260.944 496.12C-260.712 493.923 -262.304 491.954 -264.501 491.722L-265.342 499.678ZM-248.235 493.688C-250.424 493.391 -252.44 494.924 -252.737 497.113C-253.035 499.302 -251.502 501.318 -249.313 501.616L-248.235 493.688ZM-248.312 501.752C-246.123 502.054 -244.105 500.524 -243.804 498.336C-243.502 496.147 -245.032 494.129 -247.22 493.827L-248.312 501.752ZM-231.021 496.296C-233.2 495.932 -235.262 497.404 -235.626 499.583C-235.99 501.762 -234.518 503.823 -232.339 504.187L-231.021 496.296ZM-231.343 504.354C-229.165 504.722 -227.101 503.255 -226.733 501.076C-226.365 498.898 -227.833 496.834 -230.011 496.466L-231.343 504.354ZM-213.9 499.421C-216.067 498.992 -218.171 500.401 -218.6 502.568C-219.029 504.735 -217.62 506.84 -215.453 507.269L-213.9 499.421ZM-214.462 507.466C-212.296 507.899 -210.189 506.493 -209.756 504.327C-209.323 502.161 -210.728 500.054 -212.895 499.621L-214.462 507.466ZM-196.872 503.058C-199.026 502.564 -201.171 503.909 -201.665 506.062C-202.159 508.216 -200.814 510.361 -198.661 510.855L-196.872 503.058ZM-197.678 511.082C-195.526 511.579 -193.378 510.238 -192.88 508.086C-192.382 505.933 -193.723 503.785 -195.876 503.287L-197.678 511.082ZM-179.962 507.21C-182.099 506.65 -184.285 507.928 -184.845 510.065C-185.405 512.202 -184.127 514.389 -181.99 514.949L-179.962 507.21ZM-181.013 515.206C-178.877 515.769 -176.688 514.495 -176.124 512.359C-175.56 510.223 -176.835 508.034 -178.971 507.471L-181.013 515.206ZM-163.192 511.891C-165.31 511.263 -167.537 512.47 -168.165 514.588C-168.794 516.706 -167.587 518.932 -165.469 519.561L-163.192 511.891ZM-164.498 519.85C-162.381 520.483 -160.153 519.28 -159.52 517.163C-158.887 515.047 -160.09 512.818 -162.206 512.185L-164.498 519.85ZM-146.581 517.133C-148.675 516.431 -150.942 517.561 -151.644 519.655C-152.346 521.75 -151.217 524.017 -149.122 524.719L-146.581 517.133ZM-148.178 525.036C-146.083 525.737 -143.816 524.608 -143.114 522.513C-142.413 520.419 -143.542 518.152 -145.637 517.45L-148.178 525.036ZM-130.942 522.089C-133.06 521.461 -135.286 522.669 -135.914 524.787C-136.542 526.905 -135.335 529.131 -133.217 529.759L-130.942 522.089ZM-132.267 530.039C-130.148 530.663 -127.925 529.45 -127.301 527.33C-126.678 525.211 -127.891 522.988 -130.01 522.364L-132.267 530.039ZM-115.152 526.452C-117.292 525.903 -119.472 527.194 -120.02 529.334C-120.568 531.474 -119.278 533.653 -117.138 534.201L-115.152 526.452ZM-116.182 534.445C-114.041 534.989 -111.864 533.693 -111.321 531.552C-110.777 529.411 -112.073 527.235 -114.214 526.691L-116.182 534.445ZM-99.2158 530.217C-101.375 529.749 -103.504 531.121 -103.971 533.28C-104.439 535.439 -103.067 537.568 -100.908 538.036L-99.2158 530.217ZM-99.9473 538.242C-97.7871 538.705 -95.661 537.329 -95.1986 535.168C-94.7361 533.008 -96.1123 530.882 -98.2725 530.42L-99.9473 538.242ZM-83.1585 533.375C-85.3338 532.99 -87.4095 534.441 -87.7949 536.616C-88.1802 538.792 -86.7292 540.867 -84.554 541.253L-83.1585 533.375ZM-83.5909 541.422C-81.4148 541.803 -79.3422 540.347 -78.9617 538.171C-78.5812 535.995 -80.0368 533.922 -82.2129 533.542L-83.5909 541.422ZM-67.0097 535.922C-69.1979 535.619 -71.2174 537.148 -71.5202 539.336C-71.823 541.524 -70.2945 543.544 -68.1062 543.847L-67.0097 535.922ZM-67.1432 543.979C-64.9543 544.277 -62.9382 542.744 -62.6403 540.555C-62.3423 538.366 -63.8753 536.35 -66.0642 536.052L-67.1432 543.979ZM-50.7758 537.856C-52.974 537.636 -54.9341 539.24 -55.1539 541.438C-55.3736 543.636 -53.7698 545.597 -51.5716 545.816L-50.7758 537.856ZM-50.5859 545.914C-48.3872 546.129 -46.4307 544.52 -46.2159 542.322C-46.0011 540.123 -47.6093 538.166 -49.808 537.952L-50.5859 545.914ZM-34.4373 539.177C-36.6422 539.041 -38.5401 540.718 -38.6763 542.923C-38.8125 545.128 -37.1355 547.025 -34.9306 547.162L-34.4373 539.177ZM-33.9503 547.221C-31.7451 547.352 -29.8509 545.671 -29.7196 543.466C-29.5883 541.261 -31.2696 539.367 -33.4748 539.235L-33.9503 547.221ZM-18.0994 539.877C-20.3079 539.824 -22.141 541.571 -22.1938 543.78C-22.2466 545.988 -20.499 547.821 -18.2905 547.874L-18.0994 539.877ZM-17.3194 547.896C-15.1108 547.944 -13.2815 546.193 -13.2336 543.984C-13.1857 541.775 -14.9373 539.946 -17.1459 539.898L-17.3194 547.896ZM-1.73816 539.958C-3.94708 539.989 -5.71282 541.804 -5.68204 544.013C-5.65127 546.222 -3.83563 547.988 -1.62671 547.957L-1.73816 539.958ZM-0.638158 547.942C1.57069 547.907 3.33235 546.087 3.29662 543.878C3.26088 541.669 1.44129 539.908 -0.76756 539.943L-0.638158 547.942ZM14.626 539.42C12.4198 539.534 10.7242 541.416 10.8386 543.622C10.9531 545.828 12.8343 547.524 15.0405 547.409L14.626 539.42ZM16.0111 547.358C18.217 547.238 19.9085 545.353 19.7892 543.147C19.6698 540.942 17.7849 539.25 15.5789 539.369L16.0111 547.358ZM30.9484 538.262C28.7482 538.46 27.1253 540.404 27.3236 542.605C27.5219 544.805 29.4663 546.428 31.6665 546.229L30.9484 538.262ZM32.6495 546.14C34.8492 545.936 36.4677 543.988 36.2644 541.789C36.0612 539.589 34.1131 537.97 31.9133 538.174L32.6495 546.14ZM47.1767 536.486C44.9857 536.768 43.4386 538.773 43.7211 540.964C44.0037 543.155 46.0088 544.702 48.1998 544.42L47.1767 536.486ZM49.1821 544.292C51.3724 544.004 52.9149 541.996 52.6273 539.805C52.3398 537.615 50.331 536.073 48.1407 536.36L49.1821 544.292ZM63.3847 534.073C61.2065 534.441 59.7393 536.505 60.1076 538.683C60.4759 540.862 62.5403 542.329 64.7185 541.961L63.3847 534.073ZM65.6673 541.799C67.8446 541.426 69.3071 539.358 68.9338 537.181C68.5605 535.003 66.4927 533.541 64.3153 533.914L65.6673 541.799ZM79.4472 531.022C77.2857 531.479 75.9035 533.601 76.36 535.763C76.8165 537.924 78.9387 539.306 81.1002 538.85L79.4472 531.022ZM82.036 538.651C84.1964 538.189 85.5735 536.064 85.1118 533.903C84.6502 531.743 82.5246 530.366 80.3642 530.828L82.036 538.651ZM95.3663 527.303C93.2266 527.853 91.9379 530.033 92.4877 532.173C93.0376 534.313 95.2178 535.601 97.3575 535.051L95.3663 527.303ZM98.3284 534.801C100.467 534.245 101.749 532.061 101.194 529.923C100.638 527.785 98.454 526.502 96.3159 527.058L98.3284 534.801ZM111.059 522.866C108.95 523.521 107.771 525.763 108.426 527.873C109.082 529.982 111.323 531.161 113.433 530.506L111.059 522.866ZM114.406 530.201C116.514 529.539 117.685 527.293 117.022 525.186C116.36 523.078 114.114 521.907 112.007 522.57L114.406 530.201ZM126.333 517.552C124.286 518.382 123.298 520.714 124.128 522.762C124.958 524.809 127.29 525.796 129.337 524.967L126.333 517.552ZM-435.374 59.2871C-435.236 59.3888 -435.098 59.4903 -434.959 59.5913L-430.248 53.1254C-430.374 53.0334 -430.5 52.9411 -430.626 52.8486L-435.374 59.2871ZM-420.838 68.1052C-420.532 68.2573 -420.225 68.4082 -419.916 68.5579L-416.422 61.3611C-416.709 61.2223 -416.993 61.0823 -417.277 60.9413L-420.838 68.1052ZM-404.737 74.6802C-404.413 74.7877 -404.087 74.8941 -403.761 74.9995L-401.301 67.3871C-401.609 67.2877 -401.916 67.1873 -402.222 67.086L-404.737 74.6802ZM-388.046 79.1661C-387.715 79.2366 -387.383 79.3063 -387.05 79.3751L-385.43 71.5408C-385.748 71.4751 -386.065 71.4085 -386.381 71.3412L-388.046 79.1661ZM-371.088 81.98C-370.758 82.0206 -370.427 82.0606 -370.095 82.0998L-369.154 74.1554C-369.474 74.1175 -369.793 74.079 -370.111 74.0398L-371.088 81.98ZM-354.035 83.4496C-353.702 83.4668 -353.369 83.4835 -353.036 83.4995L-352.651 75.5088C-352.975 75.4932 -353.298 75.477 -353.621 75.4603L-354.035 83.4496ZM-336.975 83.8187C-336.638 83.8163 -336.301 83.8135 -335.964 83.8101L-336.044 75.8105C-336.373 75.8138 -336.702 75.8166 -337.03 75.8188L-336.975 83.8187ZM-319.953 83.2657C-319.619 83.2467 -319.284 83.2272 -318.949 83.2072L-319.426 75.2214C-319.753 75.241 -320.081 75.2601 -320.408 75.2787L-319.953 83.2657ZM-302.995 81.9222C-302.664 81.8888 -302.332 81.8549 -302 81.8207L-302.821 73.8629C-303.146 73.8965 -303.472 73.9297 -303.797 73.9624L-302.995 81.9222ZM-286.12 79.8857C-285.79 79.8396 -285.461 79.7931 -285.132 79.7463L-286.258 71.826C-286.582 71.872 -286.906 71.9177 -287.229 71.963L-286.12 79.8857ZM-269.343 77.2305C-269.015 77.1729 -268.688 77.1149 -268.361 77.0566L-269.764 69.1806C-270.086 69.2379 -270.408 69.295 -270.73 69.3517L-269.343 77.2305ZM-252.686 74.0145C-252.361 73.9461 -252.035 73.8775 -251.709 73.8085L-253.366 65.982C-253.687 66.05 -254.008 66.1176 -254.329 66.185L-252.686 74.0145ZM-236.14 70.2752C-235.817 70.197 -235.494 70.1185 -235.171 70.0397L-237.067 62.2675C-237.385 62.3452 -237.704 62.4226 -238.022 62.4997L-236.14 70.2752ZM-219.72 66.043C-219.399 65.9552 -219.078 65.8672 -218.757 65.7789L-220.88 58.0658C-221.197 58.1528 -221.513 58.2397 -221.83 58.3262L-219.72 66.043ZM-203.431 61.3354C-203.113 61.2387 -202.795 61.1417 -202.478 61.0444L-204.822 53.3956C-205.135 53.4915 -205.448 53.5872 -205.762 53.6827L-203.431 61.3354ZM-187.281 56.1611C-186.966 56.0551 -186.651 55.9488 -186.336 55.8424L-188.9 48.2642C-189.21 48.3692 -189.521 48.474 -189.832 48.5786L-187.281 56.1611ZM-171.293 50.5221C-170.98 50.4065 -170.667 50.2907 -170.355 50.1747L-173.14 42.6751C-173.448 42.7895 -173.756 42.9037 -174.065 43.0177L-171.293 50.5221ZM-155.479 44.407C-155.326 44.345 -155.173 44.2829 -155.02 44.2208L-158.027 36.8076C-158.178 36.8687 -158.329 36.9298 -158.479 36.9909L-155.479 44.407ZM-155.02 44.2208C-154.864 44.1578 -154.709 44.0949 -154.554 44.0321L-157.555 36.6163C-157.712 36.6799 -157.869 36.7437 -158.027 36.8076L-155.02 44.2208ZM-139.821 38.3076C-139.517 38.1945 -139.214 38.0819 -138.911 37.9697L-141.69 30.4677C-141.997 30.5816 -142.305 30.6958 -142.613 30.8105L-139.821 38.3076ZM-124.023 32.7017C-123.715 32.5978 -123.407 32.4943 -123.1 32.3912L-125.642 24.8059C-125.954 24.9105 -126.267 25.0156 -126.58 25.1211L-124.023 32.7017ZM-108.074 27.6103C-107.761 27.5164 -107.449 27.4228 -107.138 27.3296L-109.429 19.6648C-109.746 19.7594 -110.063 19.8545 -110.38 19.95L-108.074 27.6103ZM-91.9747 23.0621C-91.6591 22.9789 -91.3438 22.896 -91.0288 22.8136L-93.0536 15.0741C-93.374 15.1579 -93.6946 15.2422 -94.0155 15.3268L-91.9747 23.0621ZM-75.7356 19.0883C-75.4173 19.0166 -75.0994 18.9453 -74.7817 18.8744L-76.524 11.0664C-76.8473 11.1386 -77.171 11.2111 -77.4949 11.2842L-75.7356 19.0883ZM-59.3707 15.7222C-59.0506 15.6628 -58.7309 15.6038 -58.4115 15.5452L-59.8548 7.67645C-60.1802 7.73613 -60.5059 7.79625 -60.8319 7.85683L-59.3707 15.7222ZM-42.9014 12.9987C-42.5805 12.9522 -42.2599 12.9062 -41.9397 12.8606L-43.0671 4.94045C-43.3936 4.98692 -43.7204 5.03384 -44.0476 5.08121L-42.9014 12.9987ZM-26.3561 10.9527C-26.0354 10.9199 -25.7152 10.8875 -25.3954 10.8556L-26.19 2.89513C-26.5164 2.92771 -26.8432 2.96073 -27.1704 2.99421L-26.3561 10.9527ZM-9.73051 9.61609C-9.39803 9.59674 -9.06604 9.57787 -8.73453 9.55947L-9.17787 1.57176C-9.51653 1.59056 -9.85568 1.60984 -10.1953 1.62961L-9.73051 9.61609ZM6.98269 9.02594C7.31202 9.02195 7.64081 9.01843 7.96908 9.01537L7.89446 1.01572C7.55878 1.01885 7.22257 1.02245 6.88583 1.02653L6.98269 9.02594ZM23.6544 9.22133C23.9788 9.23298 24.3026 9.24508 24.6258 9.25762L24.9359 1.26363C24.6051 1.2508 24.2737 1.23842 23.9416 1.22649L23.6544 9.22133ZM40.2444 10.2305C40.5765 10.2591 40.9078 10.2882 41.2385 10.3177L41.95 2.34945C41.6112 2.31919 41.2717 2.2894 40.9314 2.26007L40.2444 10.2305ZM56.8422 12.0993C57.1644 12.1442 57.4859 12.1896 57.8065 12.2354L58.9372 4.3157C58.6083 4.26873 58.2785 4.22218 57.948 4.17605L56.8422 12.0993ZM73.2361 14.8451C73.5615 14.9089 73.886 14.9731 74.2094 15.0377L75.7758 7.19255C75.4435 7.12621 75.1103 7.06026 74.776 6.99469L73.2361 14.8451ZM89.427 18.5068C89.7474 18.5892 90.0667 18.6719 90.3847 18.7549L92.4048 11.0141C92.0775 10.9287 91.7491 10.8436 91.4194 10.7589L89.427 18.5068ZM105.389 23.137C105.703 23.2388 106.015 23.3408 106.326 23.4429L108.824 15.8429C108.503 15.7376 108.182 15.6325 107.858 15.5275L105.389 23.137ZM121.034 28.7968C121.342 28.9204 121.647 29.0439 121.951 29.1672L124.963 21.7561C124.649 21.6285 124.333 21.5007 124.014 21.3728L121.034 28.7968ZM136.134 35.5388C136.437 35.689 136.734 35.8379 137.027 35.9855L140.625 28.8398C140.318 28.6857 140.008 28.5303 139.692 28.3736L136.134 35.5388ZM150.323 43.5615C150.439 43.6396 150.522 43.6973 150.574 43.7333C150.6 43.7513 150.618 43.7639 150.628 43.7709C150.633 43.7745 150.636 43.7766 150.637 43.7773C150.638 43.7777 150.638 43.7777 150.637 43.7773C150.637 43.7771 150.637 43.7769 150.636 43.7765C150.636 43.7763 150.636 43.7761 150.635 43.7759C150.635 43.7758 150.635 43.7757 150.635 43.7756C150.635 43.7755 150.635 43.7755 150.634 43.7754C150.634 43.7754 150.634 43.7753 150.634 43.7753C150.634 43.7753 150.634 43.7752 152.951 40.5142C155.267 37.2532 155.267 37.2531 155.267 37.2531C155.267 37.2531 155.267 37.253 155.267 37.253C155.267 37.2529 155.267 37.2529 155.266 37.2528C155.266 37.2526 155.266 37.2525 155.266 37.2523C155.265 37.252 155.265 37.2517 155.264 37.2513C155.263 37.2506 155.262 37.2498 155.261 37.2489C155.259 37.2472 155.256 37.245 155.252 37.2426C155.245 37.2376 155.236 37.2312 155.225 37.2235C155.203 37.208 155.173 37.1869 155.134 37.1604C155.058 37.1073 154.949 37.0326 154.809 36.9373L150.323 43.5615ZM151.508 44.2449C151.655 44.302 151.803 44.3595 151.951 44.4174L154.868 36.9682C154.71 36.9063 154.552 36.8447 154.394 36.7835L151.508 44.2449ZM165.852 50.9362C166.131 51.0891 166.41 51.2433 166.689 51.3986L170.585 44.4113C170.289 44.2464 169.993 44.0826 169.696 43.92L165.852 50.9362ZM179.706 59.6696C179.967 59.8562 180.227 60.0438 180.488 60.2326L185.185 53.7566C184.91 53.5577 184.636 53.3598 184.361 53.1631L179.706 59.6696ZM192.555 69.9426C192.797 70.1569 193.038 70.3722 193.279 70.5884L198.621 64.6334C198.369 64.4071 198.116 64.1817 197.863 63.9572L192.555 69.9426ZM204.384 81.4641C204.606 81.7009 204.828 81.9386 205.049 82.177L210.91 76.7311C210.679 76.4828 210.448 76.2354 210.216 75.9887L204.384 81.4641ZM215.21 93.9944C215.413 94.2495 215.616 94.5052 215.819 94.7616L222.097 89.8035C221.887 89.5377 221.677 89.2726 221.466 89.0082L215.21 93.9944ZM225.068 107.343C225.253 107.613 225.437 107.883 225.621 108.154L232.24 103.661C232.05 103.381 231.859 103.102 231.668 102.823L225.068 107.343ZM233.996 121.362C234.163 121.644 234.329 121.926 234.495 122.209L241.394 118.158C241.223 117.867 241.051 117.576 240.88 117.286L233.996 121.362ZM242.031 135.935C242.181 136.226 242.33 136.518 242.478 136.81L249.609 133.183C249.456 132.883 249.303 132.583 249.15 132.284L242.031 135.935ZM249.204 150.968C249.337 151.267 249.469 151.566 249.6 151.866L256.925 148.65C256.79 148.342 256.654 148.034 256.518 147.727L249.204 150.968ZM255.539 166.386C255.655 166.692 255.771 166.998 255.886 167.304L263.373 164.487C263.255 164.173 263.136 163.859 263.017 163.545L255.539 166.386ZM261.052 182.127C261.152 182.439 261.252 182.75 261.351 183.062L268.974 180.636C268.873 180.317 268.771 179.998 268.668 179.679L261.052 182.127ZM265.753 198.137C265.838 198.452 265.921 198.768 266.004 199.084L273.741 197.047C273.656 196.724 273.57 196.4 273.484 196.077L265.753 198.137ZM269.646 214.366C269.714 214.685 269.782 215.004 269.849 215.324L277.678 213.675C277.609 213.348 277.539 213.021 277.47 212.694L269.646 214.366ZM272.727 230.769C272.779 231.091 272.831 231.413 272.882 231.736L280.783 230.478C280.73 230.148 280.677 229.817 280.624 229.488L272.727 230.769ZM274.987 247.302C275.024 247.626 275.059 247.951 275.094 248.276L283.048 247.414C283.012 247.082 282.975 246.749 282.938 246.417L274.987 247.302ZM276.414 263.92C276.434 264.247 276.453 264.574 276.472 264.901L284.458 264.443C284.439 264.108 284.42 263.773 284.399 263.438L276.414 263.92ZM276.988 280.583C276.991 280.91 276.994 281.237 276.995 281.564L284.995 281.521C284.993 281.185 284.991 280.85 284.988 280.515L276.988 280.583ZM276.689 297.249C276.674 297.576 276.659 297.902 276.643 298.229L284.634 298.612C284.65 298.277 284.666 297.942 284.681 297.607L276.689 297.249ZM275.489 313.868C275.456 314.193 275.423 314.518 275.39 314.843L283.347 315.666C283.382 315.333 283.416 314.999 283.449 314.665L275.489 313.868ZM273.361 330.385C273.31 330.708 273.258 331.03 273.206 331.352L281.103 332.63C281.157 332.298 281.21 331.967 281.262 331.635L273.361 330.385ZM270.275 346.739C270.205 347.058 270.134 347.377 270.063 347.695L277.87 349.441C277.944 349.113 278.016 348.785 278.088 348.457L270.275 346.739ZM266.205 362.865C266.115 363.179 266.025 363.492 265.934 363.805L273.617 366.033C273.711 365.71 273.804 365.388 273.896 365.065L266.205 362.865ZM261.124 378.691C261.014 378.998 260.904 379.304 260.793 379.61L268.316 382.332C268.43 382.016 268.544 381.7 268.657 381.383L261.124 378.691ZM255.013 394.141C254.883 394.439 254.753 394.737 254.622 395.034L261.944 398.256C262.079 397.949 262.214 397.642 262.348 397.334L255.013 394.141ZM247.865 409.121C247.714 409.41 247.563 409.699 247.411 409.988L254.491 413.713C254.648 413.415 254.804 413.116 254.96 412.817L247.865 409.121ZM239.683 423.546C239.512 423.824 239.341 424.101 239.168 424.378L245.962 428.602C246.141 428.316 246.318 428.029 246.495 427.741L239.683 423.546ZM230.483 437.333C230.292 437.597 230.101 437.861 229.909 438.125L236.375 442.835C236.574 442.562 236.772 442.289 236.969 442.015L230.483 437.333ZM220.293 450.402C220.084 450.651 219.874 450.899 219.663 451.147L225.763 456.324C225.981 456.067 226.198 455.809 226.415 455.552L220.293 450.402ZM209.157 462.684C208.931 462.916 208.704 463.147 208.476 463.378L214.175 468.993C214.411 468.754 214.646 468.514 214.88 468.274L209.157 462.684ZM197.127 474.125C196.886 474.339 196.644 474.552 196.401 474.764L201.673 480.782C201.924 480.562 202.174 480.341 202.424 480.121L197.127 474.125ZM184.284 484.67C184.023 484.87 183.76 485.069 183.497 485.268L188.322 491.649C188.594 491.444 188.865 491.238 189.136 491.031L184.284 484.67ZM170.786 494.238C170.511 494.418 170.236 494.599 169.961 494.778L174.332 501.479C174.616 501.293 174.9 501.107 175.184 500.92L170.786 494.238ZM156.641 502.881C156.358 503.041 156.073 503.202 155.789 503.362L159.705 510.337C159.999 510.172 160.292 510.007 160.585 509.841L156.641 502.881ZM141.906 510.615C141.616 510.756 141.325 510.896 141.034 511.037L144.501 518.246C144.801 518.102 145.1 517.957 145.399 517.812L141.906 510.615ZM126.64 517.459C126.486 517.523 126.331 517.586 126.177 517.65L129.218 525.049C129.376 524.984 129.535 524.919 129.694 524.853L126.64 517.459ZM-430.626 524.306C-430.497 524.211 -430.368 524.116 -430.239 524.022L-434.951 517.557C-435.092 517.66 -435.233 517.763 -435.374 517.867L-430.626 524.306ZM-416.911 515.919C-416.62 515.772 -416.328 515.624 -416.034 515.478L-419.598 508.316C-419.912 508.472 -420.225 508.629 -420.536 508.788L-416.911 515.919ZM-401.487 509.343C-401.174 509.231 -400.859 509.12 -400.544 509.01L-403.178 501.457C-403.51 501.572 -403.841 501.689 -404.171 501.806L-401.487 509.343ZM-385.295 504.494C-384.973 504.414 -384.65 504.334 -384.326 504.255L-386.221 496.483C-386.558 496.565 -386.894 496.648 -387.229 496.731L-385.295 504.494ZM-368.668 501.051C-368.342 500.996 -368.016 500.942 -367.689 500.888L-368.988 492.994C-369.325 493.05 -369.662 493.106 -369.999 493.163L-368.668 501.051ZM-351.794 498.764C-351.461 498.729 -351.129 498.694 -350.796 498.661L-351.603 490.702C-351.945 490.736 -352.286 490.771 -352.627 490.807L-351.794 498.764ZM-334.778 497.444C-334.441 497.426 -334.104 497.409 -333.767 497.393L-334.159 489.402C-334.504 489.419 -334.848 489.437 -335.193 489.455L-334.778 497.444ZM-317.686 496.954C-317.35 496.952 -317.013 496.95 -316.676 496.949L-316.708 488.949C-317.052 488.95 -317.395 488.952 -317.738 488.954L-317.686 496.954ZM-300.561 497.193C-300.226 497.204 -299.89 497.215 -299.554 497.228L-299.268 489.233C-299.609 489.22 -299.951 489.209 -300.293 489.197L-300.561 497.193ZM-283.437 498.084C-283.103 498.108 -282.768 498.131 -282.433 498.156L-281.858 490.176C-282.198 490.152 -282.538 490.128 -282.878 490.104L-283.437 498.084ZM-266.349 499.572C-266.013 499.607 -265.678 499.642 -265.342 499.678L-264.501 491.722C-264.842 491.686 -265.182 491.65 -265.523 491.615L-266.349 499.572ZM-249.313 501.616C-248.979 501.661 -248.645 501.707 -248.312 501.752L-247.22 493.827C-247.559 493.781 -247.897 493.734 -248.235 493.688L-249.313 501.616ZM-232.339 504.187C-232.007 504.243 -231.675 504.298 -231.343 504.354L-230.011 496.466C-230.348 496.409 -230.684 496.353 -231.021 496.296L-232.339 504.187ZM-215.453 507.269C-215.123 507.334 -214.792 507.4 -214.462 507.466L-212.895 499.621C-213.23 499.554 -213.565 499.487 -213.9 499.421L-215.453 507.269ZM-198.661 510.855C-198.333 510.931 -198.006 511.006 -197.678 511.082L-195.876 503.287C-196.208 503.211 -196.54 503.134 -196.872 503.058L-198.661 510.855ZM-181.99 514.949C-181.664 515.034 -181.338 515.12 -181.013 515.206L-178.971 507.471C-179.301 507.383 -179.631 507.297 -179.962 507.21L-181.99 514.949ZM-165.469 519.561C-165.145 519.657 -164.821 519.753 -164.498 519.85L-162.206 512.185C-162.535 512.087 -162.863 511.989 -163.192 511.891L-165.469 519.561ZM-149.122 524.719C-148.964 524.772 -148.806 524.825 -148.648 524.878L-146.098 517.295C-146.259 517.241 -146.42 517.187 -146.581 517.133L-149.122 524.719ZM-148.648 524.878C-148.491 524.931 -148.335 524.983 -148.178 525.036L-145.637 517.45C-145.791 517.398 -145.944 517.347 -146.098 517.295L-148.648 524.878ZM-133.217 529.759C-132.9 529.853 -132.584 529.946 -132.267 530.039L-130.01 522.364C-130.321 522.273 -130.631 522.181 -130.942 522.089L-133.217 529.759ZM-117.138 534.201C-116.819 534.283 -116.501 534.364 -116.182 534.445L-114.214 526.691C-114.527 526.612 -114.839 526.532 -115.152 526.452L-117.138 534.201ZM-100.908 538.036C-100.588 538.105 -100.267 538.174 -99.9473 538.242L-98.2725 530.42C-98.5868 530.352 -98.9012 530.285 -99.2158 530.217L-100.908 538.036ZM-84.554 541.253C-84.2327 541.31 -83.9117 541.366 -83.5909 541.422L-82.2129 533.542C-82.5279 533.487 -82.8431 533.431 -83.1585 533.375L-84.554 541.253ZM-68.1062 543.847C-67.7849 543.891 -67.464 543.935 -67.1432 543.979L-66.0642 536.052C-66.3791 536.009 -66.6943 535.966 -67.0097 535.922L-68.1062 543.847ZM-51.5716 545.816C-51.2427 545.849 -50.9142 545.882 -50.5859 545.914L-49.808 537.952C-50.1303 537.92 -50.4529 537.888 -50.7758 537.856L-51.5716 545.816ZM-34.9306 547.162C-34.6035 547.182 -34.2767 547.202 -33.9503 547.221L-33.4748 539.235C-33.7953 539.216 -34.1161 539.197 -34.4373 539.177L-34.9306 547.162ZM-18.2905 547.874C-17.9664 547.882 -17.6427 547.889 -17.3194 547.896L-17.1459 539.898C-17.4634 539.891 -17.7812 539.884 -18.0994 539.877L-18.2905 547.874ZM-1.62671 547.957C-1.29672 547.953 -0.967205 547.948 -0.638158 547.942L-0.76756 539.943C-1.09063 539.949 -1.41416 539.954 -1.73816 539.958L-1.62671 547.957ZM15.0405 547.409C15.3646 547.392 15.6881 547.375 16.0111 547.358L15.5789 539.369C15.2618 539.387 14.9442 539.403 14.626 539.42L15.0405 547.409ZM31.6665 546.229C31.9948 546.2 32.3225 546.17 32.6495 546.14L31.9133 538.174C31.5923 538.203 31.2707 538.233 30.9484 538.262L31.6665 546.229ZM48.1998 544.42C48.5281 544.377 48.8555 544.335 49.1821 544.292L48.1407 536.36C47.8202 536.402 47.4988 536.444 47.1767 536.486L48.1998 544.42ZM64.7185 541.961C65.0358 541.907 65.352 541.853 65.6673 541.799L64.3153 533.914C64.0061 533.967 63.6959 534.02 63.3847 534.073L64.7185 541.961ZM81.1002 538.85C81.4135 538.784 81.7254 538.717 82.036 538.651L80.3642 530.828C80.0599 530.893 79.7542 530.958 79.4472 531.022L81.1002 538.85ZM97.3575 535.051C97.6834 534.968 98.007 534.884 98.3284 534.801L96.3159 527.058C96.0016 527.14 95.685 527.221 95.3663 527.303L97.3575 535.051ZM113.433 530.506C113.762 530.403 114.087 530.302 114.406 530.201L112.007 522.57C111.696 522.668 111.38 522.766 111.059 522.866L113.433 530.506ZM129.337 524.967C129.486 524.907 129.6 524.86 129.679 524.827C129.719 524.811 129.749 524.798 129.771 524.789C129.782 524.784 129.791 524.781 129.797 524.778C129.801 524.776 129.803 524.775 129.806 524.774C129.807 524.774 129.808 524.774 129.808 524.773C129.809 524.773 129.809 524.773 129.81 524.773C129.81 524.773 129.81 524.773 129.81 524.773C129.81 524.772 129.81 524.772 129.81 524.772C129.81 524.772 129.81 524.772 129.81 524.772C129.81 524.772 129.81 524.772 128.257 521.086C126.703 517.401 126.703 517.401 126.703 517.401C126.703 517.401 126.703 517.401 126.703 517.401C126.703 517.401 126.703 517.4 126.703 517.4C126.703 517.4 126.703 517.4 126.703 517.4C126.704 517.4 126.704 517.4 126.704 517.4C126.704 517.4 126.704 517.4 126.704 517.4C126.704 517.4 126.704 517.4 126.702 517.401C126.7 517.402 126.696 517.404 126.689 517.406C126.676 517.412 126.653 517.421 126.623 517.434C126.561 517.46 126.464 517.499 126.333 517.552L129.337 524.967Z" fill="#565CBD"/>
</g>
<defs>
<clipPath id="clip0_4_556">
<rect width="83" height="16" fill="white"/>
</clipPath>
</defs>
</svg>
