<svg width="10" height="78" viewBox="0 0 10 78" fill="none" xmlns="http://www.w3.org/2000/svg">
<g clip-path="url(#clip0_3_555)">
<path d="M-431.523 -201.486L-430.771 -199.632L-431.523 -201.486ZM-122.049 -201.486L-123.208 -199.855C-123.072 -199.759 -122.926 -199.68 -122.771 -199.62L-122.049 -201.486ZM-422.373 279.086L-423.011 280.982L-423.011 280.982L-422.373 279.086ZM-148.063 277.5C-149.085 277.919 -149.572 279.088 -149.153 280.11C-148.733 281.131 -147.564 281.619 -146.543 281.199L-148.063 277.5ZM-708.781 -184.025C-707.889 -183.375 -706.638 -183.571 -705.987 -184.464C-705.337 -185.357 -705.533 -186.608 -706.426 -187.258L-708.781 -184.025ZM-693.167 -179.268C-694.156 -179.759 -695.357 -179.356 -695.848 -178.367C-696.34 -177.378 -695.937 -176.177 -694.948 -175.686L-693.167 -179.268ZM-694.043 -175.241C-693.049 -174.759 -691.853 -175.173 -691.37 -176.167C-690.888 -177.161 -691.302 -178.357 -692.296 -178.84L-694.043 -175.241ZM-677.851 -173.015C-678.899 -173.363 -680.031 -172.794 -680.378 -171.746C-680.725 -170.697 -680.157 -169.566 -679.108 -169.218L-677.851 -173.015ZM-678.146 -168.904C-677.095 -168.564 -675.968 -169.141 -675.628 -170.192C-675.288 -171.243 -675.865 -172.37 -676.916 -172.71L-678.146 -168.904ZM-661.798 -168.703C-662.878 -168.932 -663.94 -168.243 -664.17 -167.163C-664.4 -166.082 -663.71 -165.02 -662.63 -164.79L-661.798 -168.703ZM-661.645 -164.583C-660.563 -164.36 -659.505 -165.055 -659.281 -166.137C-659.057 -167.219 -659.753 -168.277 -660.835 -168.501L-661.645 -164.583ZM-645.355 -165.975C-646.452 -166.11 -647.45 -165.331 -647.585 -164.234C-647.72 -163.138 -646.94 -162.14 -645.844 -162.005L-645.355 -165.975ZM-644.86 -161.886C-643.763 -161.756 -642.769 -162.54 -642.639 -163.637C-642.509 -164.734 -643.293 -165.729 -644.39 -165.859L-644.86 -161.886ZM-628.725 -164.542C-629.828 -164.6 -630.768 -163.752 -630.825 -162.649C-630.883 -161.546 -630.035 -160.605 -628.932 -160.548L-628.725 -164.542ZM-627.94 -160.498C-626.836 -160.445 -625.899 -161.296 -625.846 -162.4C-625.793 -163.503 -626.644 -164.44 -627.748 -164.494L-627.94 -160.498ZM-612.016 -164.181C-613.121 -164.174 -614.01 -163.272 -614.003 -162.168C-613.995 -161.063 -613.093 -160.174 -611.989 -160.181L-612.016 -164.181ZM-610.984 -160.19C-609.879 -160.201 -608.993 -161.105 -609.004 -162.21C-609.015 -163.314 -609.92 -164.201 -611.024 -164.19L-610.984 -160.19ZM-595.294 -164.725C-596.397 -164.662 -597.24 -163.717 -597.177 -162.614C-597.114 -161.511 -596.17 -160.668 -595.067 -160.731L-595.294 -164.725ZM-594.068 -160.789C-592.966 -160.855 -592.125 -161.802 -592.191 -162.905C-592.257 -164.007 -593.204 -164.848 -594.307 -164.782L-594.068 -160.789ZM-578.597 -166.048C-579.696 -165.937 -580.497 -164.956 -580.386 -163.857C-580.276 -162.758 -579.295 -161.957 -578.196 -162.068L-578.597 -166.048ZM-577.205 -162.169C-576.106 -162.282 -575.307 -163.265 -575.421 -164.363C-575.534 -165.462 -576.517 -166.261 -577.615 -166.148L-577.205 -162.169ZM-561.952 -168.056C-563.046 -167.903 -563.808 -166.892 -563.655 -165.798C-563.502 -164.704 -562.491 -163.942 -561.397 -164.095L-561.952 -168.056ZM-560.414 -164.234C-559.32 -164.389 -558.56 -165.402 -558.715 -166.495C-558.871 -167.589 -559.883 -168.349 -560.977 -168.194L-560.414 -164.234ZM-545.383 -170.679C-546.471 -170.487 -547.197 -169.45 -547.006 -168.362C-546.814 -167.274 -545.777 -166.548 -544.689 -166.739L-545.383 -170.679ZM-543.712 -166.912C-542.624 -167.106 -541.9 -168.145 -542.093 -169.232C-542.287 -170.32 -543.326 -171.044 -544.413 -170.85L-543.712 -166.912ZM-528.918 -173.858C-530 -173.631 -530.692 -172.571 -530.465 -171.49C-530.238 -170.409 -529.178 -169.716 -528.097 -169.943L-528.918 -173.858ZM-527.123 -170.148C-526.043 -170.377 -525.352 -171.438 -525.581 -172.519C-525.81 -173.6 -526.871 -174.29 -527.952 -174.061L-527.123 -170.148ZM-512.552 -177.556C-513.625 -177.297 -514.285 -176.216 -514.025 -175.142C-513.765 -174.069 -512.684 -173.409 -511.611 -173.669L-512.552 -177.556ZM-510.645 -173.903C-509.572 -174.165 -508.914 -175.247 -509.176 -176.32C-509.438 -177.393 -510.52 -178.051 -511.593 -177.789L-510.645 -173.903ZM-496.302 -181.745C-497.368 -181.453 -497.996 -180.353 -497.704 -179.288C-497.413 -178.222 -496.313 -177.595 -495.248 -177.886L-496.302 -181.745ZM-494.288 -178.149C-493.223 -178.443 -492.598 -179.543 -492.891 -180.608C-493.184 -181.673 -494.285 -182.299 -495.35 -182.006L-494.288 -178.149ZM-480.179 -186.404C-481.236 -186.082 -481.831 -184.965 -481.509 -183.908C-481.187 -182.851 -480.07 -182.256 -479.013 -182.578L-480.179 -186.404ZM-478.064 -182.868C-477.008 -183.191 -476.414 -184.31 -476.738 -185.366C-477.062 -186.422 -478.18 -187.016 -479.236 -186.692L-478.064 -182.868ZM-464.194 -191.526C-465.241 -191.174 -465.804 -190.039 -465.452 -188.993C-465.1 -187.946 -463.966 -187.382 -462.919 -187.735L-464.194 -191.526ZM-461.977 -188.052C-460.931 -188.406 -460.369 -189.541 -460.723 -190.588C-461.077 -191.634 -462.212 -192.195 -463.259 -191.841L-461.977 -188.052ZM-448.372 -197.106C-449.408 -196.723 -449.938 -195.573 -449.555 -194.537C-449.172 -193.501 -448.022 -192.971 -446.986 -193.354L-448.372 -197.106ZM-446.051 -193.7C-445.015 -194.085 -444.488 -195.236 -444.872 -196.271C-445.257 -197.307 -446.408 -197.835 -447.443 -197.45L-446.051 -193.7ZM-432.729 -203.155C-433.753 -202.741 -434.248 -201.575 -433.833 -200.551C-433.419 -199.527 -432.253 -199.033 -431.229 -199.447L-432.729 -203.155ZM-430.304 -199.822C-429.28 -200.236 -428.786 -201.402 -429.2 -202.426C-429.615 -203.45 -430.781 -203.944 -431.805 -203.53L-430.304 -199.822ZM-416.915 -209.315C-417.95 -208.93 -418.477 -207.778 -418.091 -206.743C-417.706 -205.708 -416.554 -205.181 -415.519 -205.567L-416.915 -209.315ZM-414.606 -205.906C-413.57 -206.289 -413.041 -207.44 -413.425 -208.476C-413.809 -209.512 -414.959 -210.04 -415.995 -209.657L-414.606 -205.906ZM-400.941 -214.984C-401.987 -214.631 -402.55 -213.496 -402.197 -212.45C-401.844 -211.403 -400.709 -210.841 -399.663 -211.193L-400.941 -214.984ZM-398.735 -211.505C-397.688 -211.856 -397.124 -212.99 -397.475 -214.037C-397.826 -215.084 -398.959 -215.649 -400.007 -215.298L-398.735 -211.505ZM-384.803 -220.135C-385.861 -219.816 -386.46 -218.701 -386.142 -217.643C-385.823 -216.586 -384.708 -215.986 -383.65 -216.305L-384.803 -220.135ZM-382.711 -216.587C-381.652 -216.903 -381.051 -218.017 -381.367 -219.076C-381.684 -220.134 -382.798 -220.735 -383.856 -220.419L-382.711 -216.587ZM-368.505 -224.739C-369.573 -224.458 -370.211 -223.363 -369.929 -222.295C-369.647 -221.227 -368.553 -220.59 -367.485 -220.872L-368.505 -224.739ZM-366.535 -221.121C-365.466 -221.401 -364.827 -222.494 -365.106 -223.562C-365.386 -224.631 -366.479 -225.271 -367.547 -224.991L-366.535 -221.121ZM-352.055 -228.765C-353.133 -228.522 -353.809 -227.451 -353.566 -226.374C-353.323 -225.296 -352.253 -224.62 -351.175 -224.863L-352.055 -228.765ZM-350.217 -225.078C-349.139 -225.318 -348.46 -226.387 -348.701 -227.465C-348.941 -228.543 -350.01 -229.222 -351.088 -228.982L-350.217 -225.078ZM-335.467 -232.177C-336.553 -231.975 -337.269 -230.931 -337.068 -229.845C-336.866 -228.759 -335.822 -228.042 -334.736 -228.244L-335.467 -232.177ZM-333.772 -228.422C-332.686 -228.621 -331.967 -229.664 -332.166 -230.75C-332.365 -231.836 -333.408 -232.556 -334.494 -232.356L-333.772 -228.422ZM-318.761 -234.939C-319.854 -234.781 -320.612 -233.767 -320.454 -232.674C-320.296 -231.58 -319.281 -230.822 -318.188 -230.981L-318.761 -234.939ZM-317.222 -231.119C-316.128 -231.275 -315.368 -232.288 -315.523 -233.381C-315.679 -234.475 -316.692 -235.235 -317.785 -235.08L-317.222 -231.119ZM-301.967 -237.016C-303.066 -236.904 -303.865 -235.922 -303.753 -234.823C-303.64 -233.724 -302.658 -232.925 -301.56 -233.037L-301.967 -237.016ZM-300.594 -233.135C-299.495 -233.244 -298.693 -234.224 -298.803 -235.323C-298.912 -236.422 -299.892 -237.224 -300.991 -237.115L-300.594 -233.135ZM-285.079 -238.374C-286.182 -238.31 -287.024 -237.364 -286.96 -236.261C-286.895 -235.158 -285.949 -234.316 -284.847 -234.381L-285.079 -238.374ZM-283.845 -234.437C-282.742 -234.499 -281.898 -235.442 -281.959 -236.545C-282.02 -237.648 -282.964 -238.493 -284.067 -238.431L-283.845 -234.437ZM-268.09 -238.974C-269.194 -238.96 -270.079 -238.054 -270.066 -236.95C-270.052 -235.845 -269.146 -234.961 -268.042 -234.974L-268.09 -238.974ZM-267.05 -234.985C-265.945 -234.995 -265.058 -235.899 -265.068 -237.003C-265.079 -238.108 -265.982 -238.995 -267.087 -238.984L-267.05 -234.985ZM-251.13 -238.775C-252.234 -238.814 -253.161 -237.952 -253.201 -236.848C-253.24 -235.744 -252.378 -234.817 -251.274 -234.777L-251.13 -238.775ZM-250.297 -234.741C-249.193 -234.698 -248.263 -235.558 -248.221 -236.662C-248.178 -237.766 -249.038 -238.695 -250.142 -238.738L-250.297 -234.741ZM-234.24 -237.747C-235.341 -237.842 -236.31 -237.027 -236.405 -235.926C-236.5 -234.826 -235.684 -233.857 -234.584 -233.762L-234.24 -237.747ZM-233.584 -233.674C-232.483 -233.576 -231.512 -234.388 -231.414 -235.489C-231.315 -236.589 -232.128 -237.56 -233.228 -237.658L-233.584 -233.674ZM-217.328 -235.843C-218.422 -235.996 -219.433 -235.233 -219.586 -234.139C-219.738 -233.045 -218.975 -232.034 -217.881 -231.882L-217.328 -235.843ZM-216.911 -231.745C-215.817 -231.588 -214.804 -232.348 -214.648 -233.442C-214.492 -234.535 -215.252 -235.548 -216.345 -235.704L-216.911 -231.745ZM-200.609 -233.043C-201.693 -233.255 -202.744 -232.549 -202.957 -231.465C-203.169 -230.381 -202.463 -229.33 -201.379 -229.118L-200.609 -233.043ZM-200.399 -228.924C-199.316 -228.707 -198.262 -229.41 -198.046 -230.493C-197.83 -231.576 -198.533 -232.63 -199.616 -232.846L-200.399 -228.924ZM-184.079 -229.304C-185.148 -229.579 -186.239 -228.935 -186.514 -227.865C-186.789 -226.796 -186.145 -225.705 -185.075 -225.43L-184.079 -229.304ZM-184.11 -225.18C-183.041 -224.901 -181.949 -225.542 -181.67 -226.61C-181.391 -227.679 -182.031 -228.772 -183.1 -229.051L-184.11 -225.18ZM-167.759 -224.57C-168.81 -224.911 -169.938 -224.336 -170.279 -223.285C-170.62 -222.234 -170.044 -221.106 -168.994 -220.765L-167.759 -224.57ZM-168.05 -220.457C-167 -220.112 -165.87 -220.683 -165.525 -221.733C-165.18 -222.782 -165.751 -223.912 -166.801 -224.257L-168.05 -220.457ZM-151.731 -218.771C-152.756 -219.183 -153.92 -218.685 -154.332 -217.66C-154.744 -216.635 -154.246 -215.471 -153.221 -215.059L-151.731 -218.771ZM-152.296 -214.686C-151.273 -214.27 -150.106 -214.762 -149.69 -215.785C-149.274 -216.808 -149.767 -217.975 -150.79 -218.391L-152.296 -214.686ZM-136.197 -211.835C-137.187 -212.326 -138.387 -211.923 -138.878 -210.933C-139.369 -209.944 -138.966 -208.744 -137.976 -208.253L-136.197 -211.835ZM-137.073 -207.801C-136.087 -207.304 -134.884 -207.701 -134.388 -208.688C-133.891 -209.675 -134.288 -210.877 -135.275 -211.374L-137.073 -207.801ZM-121.313 -203.407C-122.227 -204.026 -123.471 -203.787 -124.09 -202.872C-124.709 -201.957 -124.47 -200.714 -123.556 -200.095L-121.313 -203.407ZM-122.32 -199.445C-121.291 -199.042 -120.131 -199.549 -119.728 -200.578C-119.325 -201.606 -119.833 -202.767 -120.861 -203.17L-122.32 -199.445ZM-106.265 -196.326C-107.234 -196.857 -108.449 -196.502 -108.98 -195.533C-109.511 -194.564 -109.156 -193.349 -108.187 -192.818L-106.265 -196.326ZM-107.337 -192.348C-106.372 -191.81 -105.154 -192.156 -104.616 -193.121C-104.078 -194.086 -104.424 -195.304 -105.389 -195.842L-107.337 -192.348ZM-91.803 -187.21C-92.7014 -187.853 -93.9506 -187.646 -94.5933 -186.747C-95.236 -185.849 -95.0287 -184.6 -94.1303 -183.957L-91.803 -187.21ZM-93.3382 -183.386C-92.444 -182.738 -91.1934 -182.937 -90.5449 -183.831C-89.8964 -184.725 -90.0955 -185.976 -90.9897 -186.624L-93.3382 -183.386ZM-78.4641 -176.546C-79.2905 -177.279 -80.5545 -177.204 -81.2874 -176.377C-82.0203 -175.551 -81.9445 -174.287 -81.1181 -173.554L-78.4641 -176.546ZM-80.3856 -172.9C-79.5634 -172.163 -78.2989 -172.231 -77.5613 -173.054C-76.8237 -173.876 -76.8923 -175.14 -77.7145 -175.878L-80.3856 -172.9ZM-66.2419 -164.642C-66.9979 -165.448 -68.2636 -165.488 -69.0689 -164.732C-69.8742 -163.976 -69.9142 -162.71 -69.1582 -161.905L-66.2419 -164.642ZM-68.4855 -161.184C-67.7335 -160.375 -66.468 -160.329 -65.6589 -161.081C-64.8498 -161.833 -64.8034 -163.098 -65.5554 -163.907L-68.4855 -161.184ZM-55.0981 -151.745C-55.7866 -152.609 -57.0449 -152.751 -57.9087 -152.063C-58.7724 -151.374 -58.9146 -150.116 -58.2261 -149.252L-55.0981 -151.745ZM-57.6118 -148.478C-56.9273 -147.611 -55.6696 -147.463 -54.8027 -148.148C-53.9359 -148.832 -53.7881 -150.09 -54.4727 -150.957L-57.6118 -148.478ZM-44.9818 -138.047C-45.6059 -138.958 -46.8507 -139.191 -47.762 -138.567C-48.6733 -137.943 -48.9061 -136.698 -48.282 -135.787L-44.9818 -138.047ZM-47.7245 -134.969C-47.104 -134.055 -45.8602 -133.817 -44.9464 -134.438C-44.0325 -135.058 -43.7947 -136.302 -44.4151 -137.216L-47.7245 -134.969ZM-35.8412 -123.695C-36.404 -124.645 -37.6308 -124.96 -38.5812 -124.397C-39.5316 -123.834 -39.8458 -122.607 -39.283 -121.657L-35.8412 -123.695ZM-38.7802 -120.804C-38.2209 -119.852 -36.9953 -119.533 -36.0428 -120.092C-35.0903 -120.651 -34.7715 -121.877 -35.3308 -122.829L-38.7802 -120.804ZM-27.6301 -108.804C-28.1342 -109.786 -29.3396 -110.175 -30.3224 -109.67C-31.3052 -109.166 -31.6933 -107.961 -31.1892 -106.978L-27.6301 -108.804ZM-30.7392 -106.097C-30.2385 -105.112 -29.0344 -104.72 -28.0498 -105.221C-27.0653 -105.722 -26.673 -106.926 -27.1737 -107.91L-30.7392 -106.097ZM-20.3102 -93.4627C-20.7576 -94.4726 -21.9389 -94.9286 -22.9488 -94.4812C-23.9587 -94.0338 -24.4147 -92.8524 -23.9673 -91.8425L-20.3102 -93.4627ZM-23.5683 -90.9379C-23.1242 -89.9266 -21.9443 -89.4668 -20.933 -89.9109C-19.9216 -90.355 -19.4618 -91.5349 -19.9059 -92.5462L-23.5683 -90.9379ZM-13.8522 -77.7444C-14.2445 -78.777 -15.3995 -79.2961 -16.4321 -78.9039C-17.4647 -78.5117 -17.9838 -77.3566 -17.5916 -76.324L-13.8522 -77.7444ZM-17.2423 -75.4002C-16.8532 -74.3664 -15.6998 -73.8437 -14.666 -74.2327C-13.6322 -74.6217 -13.1095 -75.7751 -13.4986 -76.8089L-17.2423 -75.4002ZM-8.2359 -61.7089C-8.57395 -62.7605 -9.70046 -63.3389 -10.752 -63.0008C-11.8036 -62.6628 -12.382 -61.5363 -12.044 -60.4847L-8.2359 -61.7089ZM-11.7434 -59.5448C-11.4085 -58.4922 -10.2837 -57.9104 -9.23113 -58.2453C-8.17855 -58.5802 -7.59675 -59.705 -7.93164 -60.7576L-11.7434 -59.5448ZM-3.44884 -45.4079C-3.73323 -46.4753 -4.82902 -47.11 -5.89635 -46.8256C-6.96368 -46.5412 -7.59838 -45.4454 -7.31399 -44.3781L-3.44884 -45.4079ZM-7.06152 -43.4249C-6.78027 -42.3567 -5.68636 -41.7188 -4.61819 -42.0001C-3.55003 -42.2813 -2.91211 -43.3752 -3.19336 -44.4434L-7.06152 -43.4249ZM0.513651 -28.888C0.28285 -29.9682 -0.779917 -30.6568 -1.8601 -30.426C-2.94029 -30.1952 -3.62885 -29.1324 -3.39805 -28.0522L0.513651 -28.888ZM-3.19353 -27.0881C-2.96588 -26.0073 -1.90513 -25.3156 -0.824275 -25.5433C0.256581 -25.7709 0.948242 -26.8317 0.720594 -27.9125L-3.19353 -27.0881ZM3.64954 -12.1922C3.47267 -13.2825 2.44542 -14.023 1.3551 -13.8461C0.264783 -13.6693 -0.475715 -12.642 -0.298849 -11.5517L3.64954 -12.1922ZM-0.142498 -10.5789C0.0311839 -9.48803 1.05627 -8.74453 2.1471 -8.91821C3.23793 -9.0919 3.98143 -10.117 3.80774 -11.2078L-0.142498 -10.5789ZM5.95064 4.63821C5.82843 3.54042 4.83943 2.74955 3.74164 2.87176C2.64385 2.99397 1.85299 3.98297 1.9752 5.08076L5.95064 4.63821ZM2.08277 6.06023C2.20174 7.15837 3.1884 7.95215 4.28655 7.83318C5.38469 7.71421 6.17847 6.72754 6.0595 5.6294L2.08277 6.06023ZM7.40295 21.5584C7.33646 20.4558 6.38876 19.6159 5.28619 19.6824C4.18362 19.7489 3.34372 20.6966 3.41021 21.7992L7.40295 21.5584ZM3.46825 22.7864C3.53141 23.8892 4.47658 24.7319 5.57935 24.6688C6.68211 24.6056 7.52487 23.6604 7.4617 22.5577L3.46825 22.7864ZM7.98827 38.5316C7.97888 37.4271 7.07588 36.5393 5.97135 36.5487C4.86682 36.558 3.97903 37.4611 3.98841 38.5656L7.98827 38.5316ZM3.99528 39.5534C4.00125 40.6579 4.90151 41.5485 6.00607 41.5425C7.11062 41.5366 8.0012 40.6363 7.99522 39.5318L3.99528 39.5534ZM7.68289 55.5174C7.73228 54.4139 6.87778 53.4793 5.77431 53.43C4.67085 53.3806 3.73628 54.2351 3.68689 55.3386L7.68289 55.5174ZM3.6412 56.3245C3.5883 57.4278 4.43982 58.3651 5.54312 58.418C6.64642 58.4709 7.58371 57.6194 7.63661 56.5161L3.6412 56.3245ZM6.45913 72.466C6.56914 71.3669 5.76735 70.3867 4.66827 70.2767C3.56919 70.1667 2.58903 70.9685 2.47902 72.0676L6.45913 72.466ZM2.37914 73.0491C2.2655 74.1478 3.06405 75.1306 4.16276 75.2443C5.26147 75.3579 6.24427 74.5593 6.35791 73.4606L2.37914 73.0491ZM4.28691 89.3229C4.45953 88.2319 3.71504 87.2075 2.62404 87.0349C1.53304 86.8623 0.508677 87.6068 0.336056 88.6978L4.28691 89.3229ZM0.180242 89.6717C0.00387568 90.7621 0.744845 91.789 1.83524 91.9654C2.92564 92.1417 3.95256 91.4008 4.12892 90.3104L0.180242 89.6717ZM1.13512 106.028C1.37234 104.949 0.690103 103.882 -0.388693 103.645C-1.46749 103.408 -2.53433 104.09 -2.77155 105.169L1.13512 106.028ZM-2.98502 106.132C-3.2261 107.209 -2.54769 108.279 -1.46975 108.52C-0.391815 108.761 0.677462 108.082 0.918541 107.005L-2.98502 106.132ZM-3.0267 122.515C-2.72302 121.453 -3.33776 120.346 -4.39976 120.042C-5.46177 119.738 -6.56887 120.353 -6.87255 121.415L-3.0267 122.515ZM-7.14525 122.362C-7.4529 123.423 -6.84229 124.532 -5.78143 124.84C-4.72057 125.148 -3.61117 124.537 -3.30353 123.476L-7.14525 122.362ZM-8.22625 138.71C-7.85454 137.67 -8.39641 136.526 -9.43655 136.154C-10.4767 135.782 -11.6212 136.324 -11.993 137.364L-8.22625 138.71ZM-12.3261 138.291C-12.7018 139.329 -12.1644 140.476 -11.1257 140.852C-10.087 141.228 -8.94038 140.69 -8.56462 139.651L-12.3261 138.291ZM-14.4861 154.536C-14.0452 153.523 -14.5089 152.344 -15.5217 151.904C-16.5345 151.463 -17.7129 151.926 -18.1537 152.939L-14.4861 154.536ZM-18.5478 153.84C-18.9927 154.851 -18.5338 156.031 -17.5228 156.476C-16.5118 156.921 -15.3315 156.462 -14.8866 155.451L-18.5478 153.84ZM-21.8135 169.893C-21.3032 168.913 -21.6837 167.705 -22.6633 167.195C-23.643 166.685 -24.8508 167.065 -25.3611 168.045L-21.8135 169.893ZM-25.8189 168.919C-26.3333 169.897 -25.9579 171.106 -24.9804 171.62C-24.0029 172.135 -22.7935 171.759 -22.2791 170.782L-25.8189 168.919ZM-30.2078 184.692C-29.6286 183.752 -29.9215 182.52 -30.8621 181.941C-31.8026 181.362 -33.0346 181.654 -33.6138 182.595L-30.2078 184.692ZM-34.1332 183.434C-34.7164 184.372 -34.4287 185.606 -33.4907 186.189C-32.5526 186.772 -31.3194 186.484 -30.7362 185.546L-34.1332 183.434ZM-39.6524 198.845C-39.006 197.949 -39.2079 196.699 -40.1036 196.053C-40.9992 195.406 -42.2493 195.608 -42.8958 196.504L-39.6524 198.845ZM-43.4748 197.302C-44.1251 198.195 -43.9286 199.446 -43.0358 200.096C-42.143 200.747 -40.892 200.55 -40.2416 199.657L-43.4748 197.302ZM-50.1154 212.264C-49.4044 211.419 -49.5133 210.157 -50.3586 209.446C-51.2039 208.735 -52.4655 208.844 -53.1765 209.69L-50.1154 212.264ZM-53.8118 210.441C-54.5265 211.284 -54.4231 212.546 -53.581 213.26C-52.7388 213.975 -51.4767 213.872 -50.762 213.03L-53.8118 210.441ZM-61.5504 224.877C-60.7786 224.086 -60.7936 222.82 -61.5838 222.048C-62.374 221.277 -63.6403 221.292 -64.412 222.082L-61.5504 224.877ZM-65.0989 222.782C-65.874 223.569 -65.8646 224.835 -65.0777 225.61C-64.2908 226.385 -63.0245 226.376 -62.2493 225.589L-65.0989 222.782ZM-73.8999 236.622C-73.0721 235.891 -72.9939 234.627 -73.7253 233.799C-74.4566 232.971 -75.7205 232.893 -76.5483 233.624L-73.8999 236.622ZM-77.2807 234.269C-78.1115 234.996 -78.1951 236.26 -77.4672 237.091C-76.7394 237.922 -75.4758 238.005 -74.645 237.277L-77.2807 234.269ZM-87.0772 247.441C-86.1989 246.771 -86.0299 245.516 -86.6998 244.638C-87.3696 243.759 -88.6246 243.59 -89.5029 244.26L-87.0772 247.441ZM-90.2967 244.863C-91.1778 245.529 -91.3521 246.783 -90.686 247.664C-90.0199 248.546 -88.7656 248.72 -87.8845 248.054L-90.2967 244.863ZM-100.916 257.25C-99.993 256.642 -99.7374 255.402 -100.345 254.479C-100.952 253.557 -102.192 253.301 -103.115 253.908L-100.916 257.25ZM-103.946 254.453C-104.872 255.057 -105.132 256.296 -104.529 257.221C-103.925 258.146 -102.686 258.407 -101.761 257.803L-103.946 254.453ZM-115.401 266.101C-114.44 265.557 -114.102 264.336 -114.647 263.375C-115.191 262.414 -116.412 262.076 -117.373 262.621L-115.401 266.101ZM-118.232 263.106C-119.195 263.646 -119.538 264.865 -118.997 265.829C-118.456 266.792 -117.237 267.134 -116.274 266.593L-118.232 263.106ZM-130.474 274.013C-129.48 273.531 -129.066 272.334 -129.548 271.34C-130.031 270.347 -131.227 269.932 -132.221 270.414L-130.474 274.013ZM-133.099 270.839C-134.095 271.318 -134.514 272.513 -134.035 273.508C-133.556 274.504 -132.361 274.922 -131.366 274.444L-133.099 270.839ZM-146.07 281.005C-145.049 280.583 -144.563 279.414 -144.985 278.393C-145.406 277.372 -146.576 276.886 -147.597 277.307L-146.07 281.005ZM-706.417 280.406C-705.524 279.755 -705.328 278.504 -705.979 277.612C-706.629 276.719 -707.88 276.523 -708.773 277.173L-706.417 280.406ZM-694.63 268.571C-695.615 269.071 -696.007 270.275 -695.507 271.26C-695.006 272.245 -693.802 272.637 -692.818 272.137L-694.63 268.571ZM-691.925 271.688C-690.936 271.196 -690.533 269.995 -691.025 269.006C-691.517 268.017 -692.718 267.614 -693.707 268.106L-691.925 271.688ZM-678.5 261.69C-679.54 262.061 -680.084 263.205 -679.713 264.245C-679.343 265.286 -678.199 265.829 -677.158 265.459L-678.5 261.69ZM-676.202 265.122C-675.159 264.758 -674.609 263.618 -674.972 262.575C-675.336 261.532 -676.476 260.981 -677.519 261.345L-676.202 265.122ZM-661.746 256.672C-662.818 256.939 -663.47 258.024 -663.203 259.096C-662.936 260.168 -661.851 260.82 -660.779 260.553L-661.746 256.672ZM-659.8 260.312C-658.726 260.05 -658.069 258.968 -658.33 257.895C-658.592 256.822 -659.674 256.164 -660.747 256.426L-659.8 260.312ZM-644.666 253.135C-645.755 253.318 -646.489 254.35 -646.306 255.439C-646.122 256.529 -645.09 257.263 -644.001 257.079L-644.666 253.135ZM-643.014 256.915C-641.924 256.735 -641.186 255.706 -641.365 254.616C-641.544 253.526 -642.573 252.788 -643.663 252.968L-643.014 256.915ZM-627.419 250.796C-628.517 250.911 -629.315 251.895 -629.2 252.994C-629.084 254.092 -628.101 254.89 -627.002 254.774L-627.419 250.796ZM-625.997 254.671C-624.898 254.559 -624.098 253.578 -624.209 252.479C-624.321 251.38 -625.302 250.58 -626.401 250.691L-625.997 254.671ZM-610.089 249.452C-611.192 249.509 -612.04 250.45 -611.983 251.553C-611.925 252.656 -610.985 253.504 -609.882 253.446L-610.089 249.452ZM-608.865 253.395C-607.762 253.341 -606.911 252.403 -606.965 251.3C-607.019 250.196 -607.957 249.346 -609.061 249.4L-608.865 253.395ZM-592.725 248.954C-593.83 248.961 -594.719 249.862 -594.712 250.967C-594.705 252.072 -593.804 252.961 -592.699 252.954L-592.725 248.954ZM-591.684 252.949C-590.58 252.944 -589.688 252.045 -589.692 250.941C-589.697 249.836 -590.596 248.944 -591.7 248.949L-591.684 252.949ZM-575.36 249.196C-576.464 249.159 -577.389 250.024 -577.426 251.128C-577.463 252.232 -576.598 253.157 -575.494 253.194L-575.36 249.196ZM-574.483 253.229C-573.379 253.268 -572.452 252.406 -572.412 251.302C-572.373 250.198 -573.235 249.271 -574.339 249.231L-574.483 253.229ZM-558.018 250.099C-559.12 250.022 -560.076 250.852 -560.153 251.954C-560.23 253.056 -559.399 254.012 -558.297 254.089L-558.018 250.099ZM-557.289 254.161C-556.188 254.24 -555.23 253.411 -555.151 252.31C-555.071 251.208 -555.9 250.25 -557.002 250.171L-557.289 254.161ZM-540.729 251.604C-541.828 251.49 -542.811 252.288 -542.925 253.387C-543.039 254.486 -542.241 255.469 -541.142 255.583L-540.729 251.604ZM-540.132 255.689C-539.034 255.805 -538.049 255.009 -537.933 253.91C-537.817 252.812 -538.613 251.827 -539.712 251.711L-540.132 255.689ZM-523.505 253.67C-524.599 253.521 -525.607 254.288 -525.756 255.383C-525.904 256.477 -525.138 257.485 -524.043 257.634L-523.505 253.67ZM-523.039 257.771C-521.945 257.922 -520.936 257.157 -520.785 256.063C-520.634 254.969 -521.399 253.959 -522.493 253.809L-523.039 257.771ZM-506.351 256.269C-507.44 256.087 -508.471 256.823 -508.653 257.912C-508.835 259.002 -508.099 260.032 -507.01 260.214L-506.351 256.269ZM-506.01 260.382C-504.921 260.566 -503.889 259.832 -503.705 258.743C-503.521 257.654 -504.255 256.622 -505.344 256.438L-506.01 260.382ZM-489.288 259.383C-490.372 259.168 -491.424 259.873 -491.638 260.956C-491.853 262.04 -491.148 263.092 -490.065 263.307L-489.288 259.383ZM-489.07 263.505C-487.987 263.721 -486.934 263.018 -486.717 261.935C-486.501 260.852 -487.203 259.799 -488.286 259.582L-489.07 263.505ZM-472.319 263.007C-473.396 262.76 -474.469 263.433 -474.716 264.509C-474.963 265.586 -474.29 266.659 -473.214 266.906L-472.319 263.007ZM-472.228 267.133C-471.151 267.382 -470.077 266.711 -469.828 265.635C-469.58 264.559 -470.25 263.485 -471.326 263.236L-472.228 267.133ZM-455.469 267.145C-456.537 266.865 -457.63 267.504 -457.91 268.572C-458.19 269.641 -457.551 270.734 -456.483 271.014L-455.469 267.145ZM-455.502 271.272C-454.434 271.554 -453.34 270.917 -453.058 269.849C-452.776 268.781 -453.413 267.686 -454.481 267.404L-455.502 271.272ZM-438.761 271.809C-439.82 271.494 -440.934 272.098 -441.248 273.157C-441.562 274.216 -440.959 275.329 -439.9 275.643L-438.761 271.809ZM-438.925 275.934C-437.867 276.25 -436.752 275.649 -436.436 274.59C-436.12 273.532 -436.721 272.418 -437.779 272.101L-438.925 275.934ZM-422.216 277.03C-423.263 276.679 -424.397 277.243 -424.748 278.291C-425.099 279.338 -424.534 280.471 -423.487 280.822L-422.216 277.03ZM-422.543 281.139C-421.495 281.49 -420.362 280.926 -420.011 279.878C-419.66 278.831 -420.225 277.697 -421.272 277.346L-422.543 281.139ZM-406.511 282.006C-407.57 281.692 -408.683 282.296 -408.997 283.355C-409.311 284.414 -408.707 285.527 -407.648 285.841L-406.511 282.006ZM-406.703 286.12C-405.643 286.432 -404.532 285.826 -404.22 284.766C-403.908 283.706 -404.515 282.595 -405.574 282.283L-406.703 286.12ZM-390.649 286.389C-391.719 286.115 -392.809 286.76 -393.083 287.83C-393.357 288.9 -392.712 289.99 -391.642 290.264L-390.649 286.389ZM-390.69 290.507C-389.619 290.778 -388.531 290.131 -388.259 289.06C-387.988 287.99 -388.635 286.901 -389.706 286.63L-390.69 290.507ZM-374.639 290.171C-375.718 289.938 -376.783 290.623 -377.017 291.703C-377.25 292.783 -376.564 293.847 -375.485 294.081L-374.639 290.171ZM-374.529 294.287C-373.449 294.518 -372.385 293.83 -372.154 292.75C-371.923 291.67 -372.611 290.606 -373.691 290.375L-374.529 294.287ZM-358.507 293.345C-359.595 293.152 -360.633 293.878 -360.826 294.965C-361.018 296.053 -360.293 297.091 -359.205 297.283L-358.507 293.345ZM-358.246 297.452C-357.158 297.642 -356.122 296.915 -355.932 295.826C-355.742 294.738 -356.469 293.702 -357.557 293.512L-358.246 297.452ZM-342.284 295.903C-343.378 295.752 -344.388 296.516 -344.539 297.61C-344.69 298.704 -343.926 299.714 -342.832 299.865L-342.284 295.903ZM-341.873 299.997C-340.779 300.146 -339.771 299.38 -339.622 298.285C-339.473 297.191 -340.24 296.183 -341.334 296.034L-341.873 299.997ZM-325.975 297.846C-327.074 297.736 -328.054 298.538 -328.164 299.637C-328.274 300.736 -327.472 301.716 -326.373 301.826L-325.975 297.846ZM-325.391 301.923C-324.292 302.031 -323.314 301.227 -323.206 300.127C-323.099 299.028 -323.903 298.05 -325.002 297.942L-325.391 301.923ZM-309.561 299.173C-310.663 299.105 -311.612 299.944 -311.68 301.046C-311.748 302.148 -310.91 303.097 -309.807 303.166L-309.561 299.173ZM-308.831 303.225C-307.729 303.29 -306.782 302.45 -306.716 301.347C-306.65 300.244 -307.491 299.297 -308.594 299.232L-308.831 303.225ZM-293.147 299.876C-294.251 299.85 -295.168 300.723 -295.194 301.828C-295.221 302.932 -294.347 303.848 -293.243 303.875L-293.147 299.876ZM-292.276 303.897C-291.172 303.921 -290.257 303.045 -290.233 301.941C-290.209 300.836 -291.085 299.922 -292.189 299.898L-292.276 303.897ZM-276.71 299.958C-277.815 299.973 -278.698 300.881 -278.682 301.986C-278.667 303.09 -277.759 303.973 -276.655 303.957L-276.71 299.958ZM-275.671 303.943C-274.566 303.925 -273.685 303.015 -273.703 301.911C-273.721 300.806 -274.631 299.925 -275.735 299.943L-275.671 303.943ZM-260.27 299.417C-261.373 299.474 -262.221 300.415 -262.164 301.518C-262.107 302.621 -261.166 303.469 -260.063 303.412L-260.27 299.417ZM-259.097 303.361C-257.994 303.301 -257.148 302.358 -257.208 301.256C-257.268 300.153 -258.21 299.307 -259.313 299.366L-259.097 303.361ZM-243.872 298.254C-244.972 298.353 -245.784 299.325 -245.684 300.425C-245.585 301.525 -244.613 302.337 -243.513 302.238L-243.872 298.254ZM-242.535 302.148C-241.435 302.047 -240.625 301.073 -240.727 299.973C-240.829 298.873 -241.803 298.064 -242.903 298.165L-242.535 302.148ZM-227.567 296.469C-228.663 296.61 -229.437 297.613 -229.295 298.708C-229.154 299.804 -228.151 300.578 -227.056 300.436L-227.567 296.469ZM-226.078 300.309C-224.983 300.165 -224.212 299.161 -224.356 298.066C-224.499 296.971 -225.504 296.199 -226.599 296.343L-226.078 300.309ZM-211.282 294.045C-212.371 294.229 -213.105 295.261 -212.92 296.35C-212.736 297.439 -211.704 298.173 -210.615 297.989L-211.282 294.045ZM-209.671 297.828C-208.582 297.641 -207.851 296.607 -208.037 295.519C-208.224 294.43 -209.258 293.699 -210.347 293.885L-209.671 297.828ZM-195.14 290.979C-196.22 291.207 -196.911 292.269 -196.683 293.349C-196.455 294.43 -195.394 295.121 -194.313 294.893L-195.14 290.979ZM-193.382 294.695C-192.302 294.464 -191.613 293.402 -191.844 292.321C-192.075 291.241 -193.138 290.553 -194.218 290.783L-193.382 294.695ZM-179.136 287.24C-180.206 287.515 -180.85 288.605 -180.575 289.675C-180.3 290.745 -179.21 291.389 -178.14 291.114L-179.136 287.24ZM-177.175 290.865C-176.106 290.587 -175.464 289.495 -175.742 288.426C-176.02 287.357 -177.112 286.716 -178.181 286.993L-177.175 290.865ZM-163.347 282.776C-164.402 283.104 -164.992 284.224 -164.664 285.279C-164.336 286.334 -163.215 286.924 -162.161 286.596L-163.347 282.776ZM-161.193 286.294C-160.14 285.962 -159.554 284.839 -159.886 283.786C-160.217 282.732 -161.34 282.146 -162.393 282.478L-161.193 286.294ZM-147.916 277.406C-148.94 277.821 -149.433 278.987 -149.018 280.011C-148.604 281.034 -147.437 281.528 -146.414 281.113L-147.916 277.406ZM-709.187 -184.323C-709.052 -184.223 -708.917 -184.124 -708.781 -184.025L-706.426 -187.258C-706.555 -187.352 -706.684 -187.447 -706.813 -187.542L-709.187 -184.323ZM-694.948 -175.686C-694.647 -175.536 -694.346 -175.388 -694.043 -175.241L-692.296 -178.84C-692.588 -178.981 -692.878 -179.124 -693.167 -179.268L-694.948 -175.686ZM-679.108 -169.218C-678.789 -169.112 -678.468 -169.008 -678.146 -168.904L-676.916 -172.71C-677.229 -172.811 -677.54 -172.913 -677.851 -173.015L-679.108 -169.218ZM-662.63 -164.79C-662.302 -164.72 -661.974 -164.652 -661.645 -164.583L-660.835 -168.501C-661.156 -168.567 -661.477 -168.634 -661.798 -168.703L-662.63 -164.79ZM-645.844 -162.005C-645.517 -161.965 -645.189 -161.925 -644.86 -161.886L-644.39 -165.859C-644.712 -165.897 -645.034 -165.936 -645.355 -165.975L-645.844 -162.005ZM-628.932 -160.548C-628.601 -160.531 -628.271 -160.514 -627.94 -160.498L-627.748 -164.494C-628.074 -164.509 -628.399 -164.526 -628.725 -164.542L-628.932 -160.548ZM-611.989 -160.181C-611.654 -160.184 -611.319 -160.186 -610.984 -160.19L-611.024 -164.19C-611.355 -164.186 -611.686 -164.183 -612.016 -164.181L-611.989 -160.181ZM-595.067 -160.731C-594.734 -160.75 -594.401 -160.769 -594.068 -160.789L-594.307 -164.782C-594.636 -164.762 -594.965 -164.743 -595.294 -164.725L-595.067 -160.731ZM-578.196 -162.068C-577.866 -162.101 -577.535 -162.135 -577.205 -162.169L-577.615 -166.148C-577.943 -166.114 -578.27 -166.081 -578.597 -166.048L-578.196 -162.068ZM-561.397 -164.095C-561.069 -164.141 -560.741 -164.187 -560.414 -164.234L-560.977 -168.194C-561.302 -168.148 -561.627 -168.102 -561.952 -168.056L-561.397 -164.095ZM-544.689 -166.739C-544.363 -166.797 -544.038 -166.854 -543.712 -166.912L-544.413 -170.85C-544.736 -170.793 -545.06 -170.736 -545.383 -170.679L-544.689 -166.739ZM-528.097 -169.943C-527.773 -170.011 -527.448 -170.079 -527.123 -170.148L-527.952 -174.061C-528.274 -173.993 -528.596 -173.925 -528.918 -173.858L-528.097 -169.943ZM-511.611 -173.669C-511.289 -173.747 -510.967 -173.825 -510.645 -173.903L-511.593 -177.789C-511.912 -177.711 -512.232 -177.634 -512.552 -177.556L-511.611 -173.669ZM-495.248 -177.886C-494.928 -177.974 -494.608 -178.061 -494.288 -178.149L-495.35 -182.006C-495.667 -181.919 -495.985 -181.831 -496.302 -181.745L-495.248 -177.886ZM-479.013 -182.578C-478.697 -182.674 -478.38 -182.771 -478.064 -182.868L-479.236 -186.692C-479.55 -186.596 -479.865 -186.5 -480.179 -186.404L-479.013 -182.578ZM-462.919 -187.735C-462.605 -187.84 -462.291 -187.946 -461.977 -188.052L-463.259 -191.841C-463.57 -191.736 -463.882 -191.631 -464.194 -191.526L-462.919 -187.735ZM-446.986 -193.354C-446.674 -193.469 -446.362 -193.585 -446.051 -193.7L-447.443 -197.45C-447.753 -197.335 -448.062 -197.221 -448.372 -197.106L-446.986 -193.354ZM-431.229 -199.447C-431.077 -199.509 -430.924 -199.571 -430.771 -199.632L-432.275 -203.339C-432.426 -203.278 -432.578 -203.216 -432.729 -203.155L-431.229 -199.447ZM-430.771 -199.632C-430.616 -199.696 -430.46 -199.759 -430.304 -199.822L-431.805 -203.53C-431.961 -203.466 -432.118 -203.403 -432.275 -203.339L-430.771 -199.632ZM-415.519 -205.567C-415.214 -205.68 -414.91 -205.793 -414.606 -205.906L-415.995 -209.657C-416.301 -209.543 -416.608 -209.429 -416.915 -209.315L-415.519 -205.567ZM-399.663 -211.193C-399.353 -211.298 -399.044 -211.402 -398.735 -211.505L-400.007 -215.298C-400.318 -215.194 -400.629 -215.089 -400.941 -214.984L-399.663 -211.193ZM-383.65 -216.305C-383.337 -216.399 -383.024 -216.493 -382.711 -216.587L-383.856 -220.419C-384.172 -220.325 -384.487 -220.23 -384.803 -220.135L-383.65 -216.305ZM-367.485 -220.872C-367.168 -220.955 -366.851 -221.038 -366.535 -221.121L-367.547 -224.991C-367.866 -224.908 -368.186 -224.824 -368.505 -224.739L-367.485 -220.872ZM-351.175 -224.863C-350.856 -224.935 -350.536 -225.006 -350.217 -225.078L-351.088 -228.982C-351.41 -228.91 -351.733 -228.838 -352.055 -228.765L-351.175 -224.863ZM-334.736 -228.244C-334.414 -228.304 -334.093 -228.363 -333.772 -228.422L-334.494 -232.356C-334.818 -232.297 -335.142 -232.237 -335.467 -232.177L-334.736 -228.244ZM-318.188 -230.981C-317.865 -231.027 -317.543 -231.074 -317.222 -231.119L-317.785 -235.08C-318.11 -235.033 -318.435 -234.987 -318.761 -234.939L-318.188 -230.981ZM-301.56 -233.037C-301.237 -233.07 -300.916 -233.102 -300.594 -233.135L-300.991 -237.115C-301.316 -237.082 -301.641 -237.049 -301.967 -237.016L-301.56 -233.037ZM-284.847 -234.381C-284.512 -234.4 -284.179 -234.419 -283.845 -234.437L-284.067 -238.431C-284.404 -238.413 -284.741 -238.393 -285.079 -238.374L-284.847 -234.381ZM-268.042 -234.974C-267.71 -234.978 -267.38 -234.981 -267.05 -234.985L-267.087 -238.984C-267.421 -238.981 -267.755 -238.978 -268.09 -238.974L-268.042 -234.974ZM-251.274 -234.777C-250.947 -234.766 -250.622 -234.753 -250.297 -234.741L-250.142 -238.738C-250.471 -238.751 -250.8 -238.763 -251.13 -238.775L-251.274 -234.777ZM-234.584 -233.762C-234.25 -233.733 -233.916 -233.704 -233.584 -233.674L-233.228 -237.658C-233.565 -237.689 -233.902 -237.718 -234.24 -237.747L-234.584 -233.762ZM-217.881 -231.882C-217.557 -231.836 -217.234 -231.791 -216.911 -231.745L-216.345 -235.704C-216.672 -235.751 -217 -235.797 -217.328 -235.843L-217.881 -231.882ZM-201.379 -229.118C-201.051 -229.053 -200.725 -228.989 -200.399 -228.924L-199.616 -232.846C-199.946 -232.912 -200.277 -232.978 -200.609 -233.043L-201.379 -229.118ZM-185.075 -225.43C-184.752 -225.347 -184.431 -225.264 -184.11 -225.18L-183.1 -229.051C-183.425 -229.135 -183.751 -229.22 -184.079 -229.304L-185.075 -225.43ZM-168.994 -220.765C-168.677 -220.663 -168.363 -220.56 -168.05 -220.457L-166.801 -224.257C-167.119 -224.362 -167.438 -224.466 -167.759 -224.57L-168.994 -220.765ZM-153.221 -215.059C-152.911 -214.935 -152.602 -214.81 -152.296 -214.686L-150.79 -218.391C-151.101 -218.518 -151.415 -218.644 -151.731 -218.771L-153.221 -215.059ZM-137.976 -208.253C-137.671 -208.101 -137.37 -207.95 -137.073 -207.801L-135.275 -211.374C-135.578 -211.526 -135.885 -211.68 -136.197 -211.835L-137.976 -208.253ZM-123.556 -200.095C-123.434 -200.012 -123.344 -199.95 -123.286 -199.91C-123.257 -199.89 -123.236 -199.875 -123.223 -199.866C-123.216 -199.861 -123.212 -199.858 -123.209 -199.856C-123.208 -199.855 -123.207 -199.855 -123.207 -199.855C-123.207 -199.855 -123.207 -199.855 -123.207 -199.855C-123.207 -199.855 -123.207 -199.855 -123.207 -199.855C-123.207 -199.855 -123.207 -199.855 -123.207 -199.855C-123.207 -199.855 -123.207 -199.855 -123.207 -199.855C-123.207 -199.855 -123.208 -199.855 -123.208 -199.855C-123.208 -199.855 -123.208 -199.855 -122.049 -201.486C-120.891 -203.116 -120.891 -203.116 -120.891 -203.116C-120.891 -203.116 -120.891 -203.116 -120.891 -203.116C-120.891 -203.116 -120.891 -203.116 -120.891 -203.117C-120.892 -203.117 -120.892 -203.117 -120.892 -203.117C-120.892 -203.117 -120.892 -203.117 -120.893 -203.117C-120.893 -203.118 -120.894 -203.118 -120.895 -203.119C-120.897 -203.12 -120.899 -203.122 -120.902 -203.124C-120.907 -203.128 -120.915 -203.133 -120.924 -203.14C-120.943 -203.153 -120.97 -203.172 -121.006 -203.196C-121.076 -203.245 -121.178 -203.316 -121.313 -203.407L-123.556 -200.095ZM-122.771 -199.62C-122.62 -199.562 -122.47 -199.504 -122.32 -199.445L-120.861 -203.17C-121.017 -203.23 -121.172 -203.291 -121.328 -203.351L-122.771 -199.62ZM-108.187 -192.818C-107.903 -192.663 -107.62 -192.506 -107.337 -192.348L-105.389 -195.842C-105.681 -196.004 -105.973 -196.166 -106.265 -196.326L-108.187 -192.818ZM-94.1303 -183.957C-93.8659 -183.768 -93.6019 -183.578 -93.3382 -183.386L-90.9897 -186.624C-91.2604 -186.821 -91.5315 -187.016 -91.803 -187.21L-94.1303 -183.957ZM-81.1181 -173.554C-80.8735 -173.337 -80.6294 -173.119 -80.3856 -172.9L-77.7145 -175.878C-77.9639 -176.102 -78.2138 -176.325 -78.4641 -176.546L-81.1181 -173.554ZM-69.1582 -161.905C-68.9336 -161.665 -68.7093 -161.425 -68.4855 -161.184L-65.5554 -163.907C-65.7838 -164.153 -66.0126 -164.398 -66.2419 -164.642L-69.1582 -161.905ZM-58.2261 -149.252C-58.021 -148.995 -57.8162 -148.737 -57.6118 -148.478L-54.4727 -150.957C-54.6808 -151.22 -54.8892 -151.483 -55.0981 -151.745L-58.2261 -149.252ZM-48.282 -135.787C-48.0958 -135.515 -47.9099 -135.242 -47.7245 -134.969L-44.4151 -137.216C-44.6036 -137.493 -44.7925 -137.77 -44.9818 -138.047L-48.282 -135.787ZM-39.283 -121.657C-39.115 -121.373 -38.9473 -121.089 -38.7802 -120.804L-35.3308 -122.829C-35.5005 -123.118 -35.6707 -123.407 -35.8412 -123.695L-39.283 -121.657ZM-31.1892 -106.978C-31.0388 -106.685 -30.8888 -106.391 -30.7392 -106.097L-27.1737 -107.91C-27.3254 -108.208 -27.4775 -108.506 -27.6301 -108.804L-31.1892 -106.978ZM-23.9673 -91.8425C-23.8339 -91.5414 -23.7009 -91.2398 -23.5683 -90.9379L-19.9059 -92.5462C-20.0402 -92.8521 -20.175 -93.1576 -20.3102 -93.4627L-23.9673 -91.8425ZM-17.5916 -76.324C-17.4747 -76.0164 -17.3583 -75.7084 -17.2423 -75.4002L-13.4986 -76.8089C-13.616 -77.1211 -13.7339 -77.4329 -13.8522 -77.7444L-17.5916 -76.324ZM-12.044 -60.4847C-11.9433 -60.1717 -11.8431 -59.8584 -11.7434 -59.5448L-7.93164 -60.7576C-8.03262 -61.0749 -8.13404 -61.3921 -8.2359 -61.7089L-12.044 -60.4847ZM-7.31399 -44.3781C-7.22939 -44.0606 -7.14523 -43.7428 -7.06152 -43.4249L-3.19336 -44.4434C-3.27807 -44.7651 -3.36323 -45.0867 -3.44884 -45.4079L-7.31399 -44.3781ZM-3.39805 -28.0522C-3.32943 -27.731 -3.26125 -27.4097 -3.19353 -27.0881L0.720594 -27.9125C0.652071 -28.2379 0.583089 -28.563 0.513651 -28.888L-3.39805 -28.0522ZM-0.298849 -11.5517C-0.246268 -11.2275 -0.194151 -10.9033 -0.142498 -10.5789L3.80774 -11.2078C3.75548 -11.5361 3.70274 -11.8642 3.64954 -12.1922L-0.298849 -11.5517ZM1.9752 5.08076C2.01153 5.40715 2.04739 5.73364 2.08277 6.06023L6.0595 5.6294C6.0237 5.29891 5.98741 4.96851 5.95064 4.63821L1.9752 5.08076ZM3.41021 21.7992C3.43005 22.1282 3.4494 22.4573 3.46825 22.7864L7.4617 22.5577C7.44262 22.2245 7.42304 21.8914 7.40295 21.5584L3.41021 21.7992ZM3.98841 38.5656C3.99121 38.8948 3.9935 39.2241 3.99528 39.5534L7.99522 39.5318C7.99342 39.1983 7.9911 38.865 7.98827 38.5316L3.98841 38.5656ZM3.68689 55.3386C3.67218 55.6672 3.65695 55.9959 3.6412 56.3245L7.63661 56.5161C7.65257 56.1832 7.668 55.8503 7.68289 55.5174L3.68689 55.3386ZM2.47902 72.0676C2.44626 72.3948 2.41297 72.722 2.37914 73.0491L6.35791 73.4606C6.3922 73.1291 6.42594 72.7976 6.45913 72.466L2.47902 72.0676ZM0.336056 88.6978C0.284675 89.0225 0.232737 89.3471 0.180242 89.6717L4.12892 90.3104C4.18215 89.9813 4.23481 89.6521 4.28691 89.3229L0.336056 88.6978ZM-2.77155 105.169C-2.84213 105.49 -2.91329 105.811 -2.98502 106.132L0.918541 107.005C0.991316 106.679 1.06351 106.354 1.13512 106.028L-2.77155 105.169ZM-6.87255 121.415C-6.96286 121.731 -7.05376 122.047 -7.14525 122.362L-3.30353 123.476C-3.21065 123.156 -3.11837 122.835 -3.0267 122.515L-6.87255 121.415ZM-11.993 137.364C-12.1034 137.673 -12.2144 137.982 -12.3261 138.291L-8.56462 139.651C-8.45122 139.338 -8.33843 139.024 -8.22625 138.71L-11.993 137.364ZM-18.1537 152.939C-18.2844 153.24 -18.4158 153.54 -18.5478 153.84L-14.8866 155.451C-14.7525 155.146 -14.6189 154.841 -14.4861 154.536L-18.1537 152.939ZM-25.3611 168.045C-25.5131 168.336 -25.6657 168.628 -25.8189 168.919L-22.2791 170.782C-22.1233 170.486 -21.9681 170.189 -21.8135 169.893L-25.3611 168.045ZM-33.6138 182.595C-33.7863 182.875 -33.9594 183.155 -34.1332 183.434L-30.7362 185.546C-30.5594 185.262 -30.3833 184.977 -30.2078 184.692L-33.6138 182.595ZM-42.8958 196.504C-43.0881 196.77 -43.2811 197.036 -43.4748 197.302L-40.2416 199.657C-40.0446 199.387 -39.8482 199.116 -39.6524 198.845L-42.8958 196.504ZM-53.1765 209.69C-53.3876 209.94 -53.5994 210.191 -53.8118 210.441L-50.762 213.03C-50.5458 212.775 -50.3303 212.52 -50.1154 212.264L-53.1765 209.69ZM-64.412 222.082C-64.6403 222.316 -64.8693 222.549 -65.0989 222.782L-62.2493 225.589C-62.0157 225.352 -61.7827 225.114 -61.5504 224.877L-64.412 222.082ZM-76.5483 233.624C-76.7918 233.839 -77.0359 234.054 -77.2807 234.269L-74.645 237.277C-74.396 237.059 -74.1476 236.841 -73.8999 236.622L-76.5483 233.624ZM-89.5029 244.26C-89.7669 244.462 -90.0315 244.662 -90.2967 244.863L-87.8845 248.054C-87.6148 247.85 -87.3457 247.646 -87.0772 247.441L-89.5029 244.26ZM-103.115 253.908C-103.391 254.09 -103.669 254.272 -103.946 254.453L-101.761 257.803C-101.479 257.619 -101.197 257.435 -100.916 257.25L-103.115 253.908ZM-117.373 262.621C-117.659 262.783 -117.945 262.944 -118.232 263.106L-116.274 266.593C-115.982 266.43 -115.692 266.266 -115.401 266.101L-117.373 262.621ZM-132.221 270.414C-132.513 270.556 -132.806 270.698 -133.099 270.839L-131.366 274.444C-131.068 274.3 -130.771 274.157 -130.474 274.013L-132.221 270.414ZM-147.597 277.307C-147.752 277.372 -147.907 277.436 -148.063 277.5L-146.543 281.199C-146.385 281.135 -146.227 281.07 -146.07 281.005L-147.597 277.307ZM-706.813 280.696C-706.681 280.599 -706.549 280.502 -706.417 280.406L-708.773 277.173C-708.911 277.274 -709.049 277.375 -709.187 277.477L-706.813 280.696ZM-692.818 272.137C-692.521 271.986 -692.224 271.836 -691.925 271.688L-693.707 268.106C-694.016 268.26 -694.324 268.415 -694.63 268.571L-692.818 272.137ZM-677.158 265.459C-676.841 265.346 -676.522 265.233 -676.202 265.122L-677.519 261.345C-677.847 261.459 -678.174 261.574 -678.5 261.69L-677.158 265.459ZM-660.779 260.553C-660.453 260.472 -660.127 260.392 -659.8 260.312L-660.747 256.426C-661.081 256.507 -661.414 256.589 -661.746 256.672L-660.779 260.553ZM-644.001 257.079C-643.672 257.024 -643.343 256.969 -643.014 256.915L-643.663 252.968C-643.998 253.023 -644.332 253.078 -644.666 253.135L-644.001 257.079ZM-627.002 254.774C-626.668 254.739 -626.333 254.705 -625.997 254.671L-626.401 250.691C-626.741 250.726 -627.08 250.761 -627.419 250.796L-627.002 254.774ZM-609.882 253.446C-609.543 253.429 -609.204 253.412 -608.865 253.395L-609.061 249.4C-609.404 249.417 -609.747 249.434 -610.089 249.452L-609.882 253.446ZM-592.699 252.954C-592.361 252.952 -592.023 252.95 -591.684 252.949L-591.7 248.949C-592.042 248.95 -592.384 248.952 -592.725 248.954L-592.699 252.954ZM-575.494 253.194C-575.157 253.205 -574.82 253.217 -574.483 253.229L-574.339 249.231C-574.68 249.219 -575.02 249.207 -575.36 249.196L-575.494 253.194ZM-558.297 254.089C-557.962 254.113 -557.626 254.137 -557.289 254.161L-557.002 250.171C-557.341 250.147 -557.679 250.123 -558.018 250.099L-558.297 254.089ZM-541.142 255.583C-540.805 255.618 -540.469 255.653 -540.132 255.689L-539.712 251.711C-540.051 251.675 -540.39 251.639 -540.729 251.604L-541.142 255.583ZM-524.043 257.634C-523.708 257.679 -523.374 257.725 -523.039 257.771L-522.493 253.809C-522.83 253.762 -523.167 253.716 -523.505 253.67L-524.043 257.634ZM-507.01 260.214C-506.677 260.27 -506.343 260.326 -506.01 260.382L-505.344 256.438C-505.68 256.382 -506.015 256.325 -506.351 256.269L-507.01 260.214ZM-490.065 263.307C-489.733 263.372 -489.402 263.438 -489.07 263.505L-488.286 259.582C-488.62 259.515 -488.954 259.449 -489.288 259.383L-490.065 263.307ZM-473.214 266.906C-472.885 266.981 -472.556 267.057 -472.228 267.133L-471.326 263.236C-471.657 263.159 -471.988 263.083 -472.319 263.007L-473.214 266.906ZM-456.483 271.014C-456.156 271.1 -455.829 271.186 -455.502 271.272L-454.481 267.404C-454.81 267.318 -455.139 267.231 -455.469 267.145L-456.483 271.014ZM-439.9 275.643C-439.574 275.74 -439.25 275.837 -438.925 275.934L-437.779 272.101C-438.106 272.004 -438.434 271.906 -438.761 271.809L-439.9 275.643ZM-423.487 280.822C-423.328 280.876 -423.169 280.929 -423.011 280.982L-421.736 277.191C-421.896 277.137 -422.056 277.083 -422.216 277.03L-423.487 280.822ZM-423.011 280.982C-422.855 281.035 -422.699 281.087 -422.543 281.139L-421.272 277.346C-421.427 277.295 -421.581 277.243 -421.736 277.191L-423.011 280.982ZM-407.648 285.841C-407.333 285.935 -407.018 286.028 -406.703 286.12L-405.574 282.283C-405.886 282.191 -406.198 282.099 -406.511 282.006L-407.648 285.841ZM-391.642 290.264C-391.324 290.345 -391.007 290.426 -390.69 290.507L-389.706 286.63C-390.02 286.55 -390.334 286.47 -390.649 286.389L-391.642 290.264ZM-375.485 294.081C-375.166 294.15 -374.847 294.218 -374.529 294.287L-373.691 290.375C-374.007 290.308 -374.323 290.24 -374.639 290.171L-375.485 294.081ZM-359.205 297.283C-358.885 297.34 -358.566 297.396 -358.246 297.452L-357.557 293.512C-357.874 293.457 -358.19 293.401 -358.507 293.345L-359.205 297.283ZM-342.832 299.865C-342.512 299.91 -342.193 299.954 -341.873 299.997L-341.334 296.034C-341.65 295.991 -341.967 295.947 -342.284 295.903L-342.832 299.865ZM-326.373 301.826C-326.045 301.859 -325.718 301.891 -325.391 301.923L-325.002 297.942C-325.326 297.911 -325.65 297.879 -325.975 297.846L-326.373 301.826ZM-309.807 303.166C-309.482 303.186 -309.156 303.205 -308.831 303.225L-308.594 299.232C-308.916 299.213 -309.238 299.193 -309.561 299.173L-309.807 303.166ZM-293.243 303.875C-292.92 303.883 -292.598 303.89 -292.276 303.897L-292.189 299.898C-292.508 299.891 -292.827 299.884 -293.147 299.876L-293.243 303.875ZM-276.655 303.957C-276.326 303.953 -275.998 303.948 -275.671 303.943L-275.735 299.943C-276.06 299.948 -276.385 299.953 -276.71 299.958L-276.655 303.957ZM-260.063 303.412C-259.741 303.395 -259.418 303.378 -259.097 303.361L-259.313 299.366C-259.632 299.384 -259.951 299.401 -260.27 299.417L-260.063 303.412ZM-243.513 302.238C-243.186 302.208 -242.86 302.178 -242.535 302.148L-242.903 298.165C-243.225 298.195 -243.548 298.224 -243.872 298.254L-243.513 302.238ZM-227.056 300.436C-226.729 300.394 -226.403 300.352 -226.078 300.309L-226.599 296.343C-226.921 296.385 -227.244 296.427 -227.567 296.469L-227.056 300.436ZM-210.615 297.989C-210.299 297.935 -209.984 297.882 -209.671 297.828L-210.347 293.885C-210.657 293.939 -210.969 293.992 -211.282 294.045L-210.615 297.989ZM-194.313 294.893C-194.001 294.827 -193.691 294.761 -193.382 294.695L-194.218 290.783C-194.524 290.849 -194.831 290.914 -195.14 290.979L-194.313 294.893ZM-178.14 291.114C-177.816 291.031 -177.494 290.948 -177.175 290.865L-178.181 286.993C-178.497 287.076 -178.815 287.158 -179.136 287.24L-178.14 291.114ZM-162.161 286.596C-161.834 286.494 -161.511 286.393 -161.193 286.294L-162.393 282.478C-162.707 282.576 -163.025 282.676 -163.347 282.776L-162.161 286.596ZM-146.414 281.113C-146.269 281.055 -146.16 281.01 -146.085 280.979C-146.048 280.963 -146.019 280.951 -145.999 280.943C-145.989 280.939 -145.982 280.936 -145.976 280.934C-145.974 280.932 -145.971 280.931 -145.97 280.931C-145.969 280.93 -145.968 280.93 -145.968 280.93C-145.967 280.93 -145.967 280.93 -145.967 280.93C-145.967 280.93 -145.967 280.93 -145.967 280.93C-145.967 280.929 -145.967 280.929 -145.967 280.929C-145.967 280.929 -145.967 280.929 -145.967 280.929C-145.967 280.929 -145.966 280.929 -146.743 279.086C-147.52 277.244 -147.52 277.244 -147.52 277.244C-147.52 277.244 -147.52 277.244 -147.52 277.244C-147.52 277.244 -147.52 277.243 -147.52 277.243C-147.52 277.243 -147.52 277.243 -147.52 277.243C-147.52 277.243 -147.52 277.243 -147.52 277.243C-147.52 277.243 -147.52 277.243 -147.52 277.244C-147.521 277.244 -147.522 277.244 -147.524 277.245C-147.527 277.246 -147.533 277.249 -147.54 277.252C-147.556 277.258 -147.58 277.269 -147.613 277.282C-147.679 277.31 -147.78 277.351 -147.916 277.406L-146.414 281.113ZM-431.523 -201.486L-430.02 -197.779L-431.523 -201.486ZM-122.049 -201.486L-124.366 -198.225C-124.095 -198.033 -123.802 -197.875 -123.492 -197.755L-122.049 -201.486ZM-422.373 279.086L-423.648 282.878L-423.648 282.878L-422.373 279.086ZM-148.823 275.65C-150.866 276.489 -151.842 278.827 -151.003 280.87C-150.163 282.913 -147.826 283.889 -145.782 283.049L-148.823 275.65ZM-709.959 -182.409C-708.173 -181.108 -705.671 -181.501 -704.371 -183.286C-703.07 -185.072 -703.463 -187.574 -705.248 -188.875L-709.959 -182.409ZM-692.277 -181.059C-694.255 -182.042 -696.656 -181.235 -697.639 -179.257C-698.623 -177.279 -697.816 -174.878 -695.838 -173.895L-692.277 -181.059ZM-694.916 -173.442C-692.929 -172.477 -690.536 -173.306 -689.571 -175.294C-688.606 -177.281 -689.435 -179.674 -691.422 -180.639L-694.916 -173.442ZM-677.222 -174.914C-679.319 -175.609 -681.582 -174.472 -682.277 -172.375C-682.971 -170.278 -681.834 -168.014 -679.737 -167.32L-677.222 -174.914ZM-678.761 -167C-676.659 -166.321 -674.404 -167.475 -673.725 -169.577C-673.046 -171.679 -674.199 -173.934 -676.301 -174.613L-678.761 -167ZM-661.381 -170.659C-663.542 -171.118 -665.667 -169.739 -666.126 -167.579C-666.586 -165.418 -665.207 -163.294 -663.046 -162.834L-661.381 -170.659ZM-662.05 -162.625C-659.886 -162.178 -657.77 -163.569 -657.323 -165.732C-656.875 -167.895 -658.266 -170.012 -660.43 -170.459L-662.05 -162.625ZM-645.111 -167.96C-647.304 -168.23 -649.3 -166.671 -649.57 -164.479C-649.84 -162.286 -648.281 -160.29 -646.088 -160.02L-645.111 -167.96ZM-645.095 -159.9C-642.902 -159.64 -640.913 -161.208 -640.653 -163.402C-640.393 -165.596 -641.961 -167.585 -644.154 -167.845L-645.095 -159.9ZM-628.621 -166.54C-630.827 -166.654 -632.708 -164.958 -632.823 -162.752C-632.937 -160.546 -631.241 -158.665 -629.035 -158.55L-628.621 -166.54ZM-628.036 -158.5C-625.829 -158.394 -623.954 -160.097 -623.848 -162.304C-623.742 -164.51 -625.445 -166.385 -627.651 -166.491L-628.036 -158.5ZM-612.03 -166.181C-614.239 -166.166 -616.018 -164.363 -616.002 -162.154C-615.987 -159.945 -614.184 -158.166 -611.975 -158.181L-612.03 -166.181ZM-610.964 -158.19C-608.755 -158.212 -606.982 -160.021 -607.004 -162.23C-607.027 -164.439 -608.835 -166.212 -611.044 -166.19L-610.964 -158.19ZM-595.408 -166.721C-597.613 -166.596 -599.299 -164.706 -599.174 -162.501C-599.048 -160.295 -597.159 -158.609 -594.953 -158.734L-595.408 -166.721ZM-593.949 -158.793C-591.744 -158.924 -590.063 -160.819 -590.195 -163.024C-590.326 -165.229 -592.22 -166.91 -594.426 -166.779L-593.949 -158.793ZM-578.797 -168.038C-580.995 -167.816 -582.598 -165.855 -582.376 -163.657C-582.155 -161.459 -580.193 -159.856 -577.995 -160.078L-578.797 -168.038ZM-577 -160.179C-574.802 -160.406 -573.205 -162.371 -573.431 -164.569C-573.658 -166.766 -575.623 -168.364 -577.821 -168.137L-577 -160.179ZM-562.229 -170.037C-564.417 -169.731 -565.942 -167.709 -565.636 -165.521C-565.329 -163.333 -563.307 -161.808 -561.12 -162.114L-562.229 -170.037ZM-560.132 -162.254C-557.945 -162.565 -556.424 -164.59 -556.735 -166.777C-557.046 -168.964 -559.071 -170.485 -561.258 -170.174L-560.132 -162.254ZM-545.73 -172.648C-547.906 -172.265 -549.359 -170.191 -548.976 -168.015C-548.592 -165.84 -546.518 -164.386 -544.343 -164.77L-545.73 -172.648ZM-543.361 -164.943C-541.186 -165.331 -539.737 -167.408 -540.124 -169.583C-540.512 -171.758 -542.589 -173.207 -544.764 -172.819L-543.361 -164.943ZM-529.329 -175.815C-531.491 -175.361 -532.876 -173.241 -532.423 -171.079C-531.969 -168.917 -529.849 -167.532 -527.686 -167.986L-529.329 -175.815ZM-526.709 -168.192C-524.548 -168.649 -523.167 -170.772 -523.624 -172.933C-524.082 -175.095 -526.205 -176.476 -528.366 -176.018L-526.709 -168.192ZM-513.022 -179.5C-515.169 -178.981 -516.489 -176.819 -515.969 -174.672C-515.449 -172.524 -513.288 -171.205 -511.14 -171.725L-513.022 -179.5ZM-510.171 -171.96C-508.025 -172.484 -506.709 -174.648 -507.233 -176.794C-507.756 -178.94 -509.92 -180.256 -512.067 -179.732L-510.171 -171.96ZM-496.83 -183.674C-498.961 -183.091 -500.216 -180.891 -499.633 -178.76C-499.051 -176.63 -496.851 -175.374 -494.72 -175.957L-496.83 -183.674ZM-493.757 -176.221C-491.628 -176.807 -490.376 -179.009 -490.962 -181.139C-491.549 -183.269 -493.751 -184.521 -495.88 -183.934L-493.757 -176.221ZM-480.762 -188.317C-482.875 -187.674 -484.066 -185.439 -483.423 -183.325C-482.779 -181.212 -480.544 -180.021 -478.431 -180.665L-480.762 -188.317ZM-477.478 -180.956C-475.366 -181.603 -474.178 -183.84 -474.826 -185.952C-475.473 -188.064 -477.71 -189.252 -479.822 -188.604L-477.478 -180.956ZM-464.832 -193.421C-466.926 -192.717 -468.052 -190.449 -467.348 -188.355C-466.643 -186.261 -464.375 -185.135 -462.281 -185.839L-464.832 -193.421ZM-461.336 -186.158C-459.244 -186.865 -458.121 -189.136 -458.829 -191.228C-459.537 -193.321 -461.807 -194.444 -463.9 -193.736L-461.336 -186.158ZM-449.065 -198.982C-451.137 -198.217 -452.196 -195.916 -451.431 -193.844C-450.666 -191.772 -448.365 -190.712 -446.293 -191.478L-449.065 -198.982ZM-445.355 -191.825C-443.284 -192.594 -442.228 -194.897 -442.997 -196.968C-443.766 -199.039 -446.069 -200.094 -448.14 -199.325L-445.355 -191.825ZM-433.479 -205.009C-435.527 -204.181 -436.516 -201.849 -435.687 -199.801C-434.859 -197.753 -432.527 -196.765 -430.479 -197.593L-433.479 -205.009ZM-429.554 -197.968C-427.506 -198.797 -426.518 -201.128 -427.346 -203.176C-428.175 -205.224 -430.507 -206.212 -432.555 -205.384L-429.554 -197.968ZM-417.613 -211.19C-419.683 -210.419 -420.736 -208.115 -419.965 -206.045C-419.194 -203.975 -416.891 -202.922 -414.821 -203.692L-417.613 -211.19ZM-413.911 -204.03C-411.84 -204.798 -410.782 -207.099 -411.549 -209.171C-412.317 -211.242 -414.618 -212.3 -416.69 -211.532L-413.911 -204.03ZM-401.58 -216.879C-403.673 -216.173 -404.798 -213.904 -404.092 -211.81C-403.386 -209.717 -401.117 -208.592 -399.023 -209.298L-401.58 -216.879ZM-398.1 -209.609C-396.005 -210.311 -394.876 -212.578 -395.578 -214.673C-396.28 -216.767 -398.547 -217.896 -400.642 -217.194L-398.1 -209.609ZM-385.38 -222.05C-387.495 -221.413 -388.694 -219.182 -388.057 -217.067C-387.42 -214.951 -385.189 -213.753 -383.074 -214.39L-385.38 -222.05ZM-382.138 -214.67C-380.021 -215.303 -378.818 -217.532 -379.451 -219.648C-380.084 -221.765 -382.312 -222.968 -384.429 -222.335L-382.138 -214.67ZM-369.016 -226.673C-371.152 -226.11 -372.426 -223.921 -371.863 -221.785C-371.299 -219.649 -369.111 -218.374 -366.975 -218.938L-369.016 -226.673ZM-366.029 -219.186C-363.892 -219.746 -362.612 -221.931 -363.171 -224.069C-363.731 -226.206 -365.916 -227.485 -368.054 -226.926L-366.029 -219.186ZM-352.495 -230.716C-354.65 -230.23 -356.003 -228.089 -355.517 -225.934C-355.031 -223.779 -352.891 -222.426 -350.736 -222.912L-352.495 -230.716ZM-349.782 -223.126C-347.626 -223.607 -346.268 -225.745 -346.749 -227.901C-347.23 -230.057 -349.368 -231.415 -351.524 -230.934L-349.782 -223.126ZM-335.832 -234.143C-338.004 -233.74 -339.438 -231.652 -339.034 -229.48C-338.631 -227.308 -336.543 -225.874 -334.371 -226.278L-335.832 -234.143ZM-333.412 -226.455C-331.239 -226.853 -329.8 -228.938 -330.199 -231.111C-330.597 -233.284 -332.682 -234.722 -334.855 -234.324L-333.412 -226.455ZM-319.048 -236.919C-321.234 -236.602 -322.75 -234.573 -322.433 -232.387C-322.117 -230.201 -320.088 -228.685 -317.901 -229.001L-319.048 -236.919ZM-316.94 -229.139C-314.753 -229.451 -313.232 -231.476 -313.543 -233.663C-313.855 -235.85 -315.88 -237.371 -318.067 -237.06L-316.94 -229.139ZM-302.17 -239.006C-304.368 -238.781 -305.967 -236.817 -305.742 -234.619C-305.518 -232.422 -303.554 -230.822 -301.356 -231.047L-302.17 -239.006ZM-300.395 -231.144C-298.197 -231.364 -296.593 -233.324 -296.813 -235.522C-297.032 -237.72 -298.992 -239.324 -301.19 -239.105L-300.395 -231.144ZM-285.195 -240.37C-287.401 -240.242 -289.084 -238.35 -288.956 -236.145C-288.828 -233.939 -286.936 -232.256 -284.731 -232.384L-285.195 -240.37ZM-283.735 -232.441C-281.529 -232.563 -279.84 -234.45 -279.962 -236.656C-280.085 -238.862 -281.972 -240.551 -284.178 -240.428L-283.735 -232.441ZM-268.114 -240.973C-270.323 -240.947 -272.092 -239.134 -272.065 -236.925C-272.039 -234.716 -270.226 -232.947 -268.017 -232.974L-268.114 -240.973ZM-267.031 -232.985C-264.822 -233.005 -263.048 -234.813 -263.068 -237.022C-263.089 -239.231 -264.896 -241.005 -267.106 -240.984L-267.031 -232.985ZM-251.058 -240.774C-253.266 -240.853 -255.12 -239.127 -255.199 -236.92C-255.279 -234.712 -253.553 -232.858 -251.346 -232.779L-251.058 -240.774ZM-250.374 -232.742C-248.167 -232.657 -246.308 -234.377 -246.222 -236.584C-246.136 -238.792 -247.857 -240.651 -250.064 -240.736L-250.374 -232.742ZM-234.069 -239.74C-236.27 -239.93 -238.208 -238.299 -238.397 -236.098C-238.587 -233.897 -236.957 -231.959 -234.756 -231.769L-234.069 -239.74ZM-233.762 -231.682C-231.561 -231.486 -229.618 -233.11 -229.422 -235.311C-229.225 -237.511 -230.85 -239.454 -233.05 -239.651L-233.762 -231.682ZM-217.052 -237.824C-219.24 -238.129 -221.261 -236.603 -221.567 -234.415C-221.872 -232.227 -220.346 -230.206 -218.158 -229.901L-217.052 -237.824ZM-217.193 -229.765C-215.007 -229.452 -212.981 -230.972 -212.668 -233.159C-212.356 -235.346 -213.876 -237.372 -216.063 -237.684L-217.193 -229.765ZM-200.224 -235.005C-202.392 -235.431 -204.494 -234.018 -204.919 -231.85C-205.344 -229.682 -203.932 -227.58 -201.764 -227.155L-200.224 -235.005ZM-200.791 -226.962C-198.624 -226.53 -196.517 -227.935 -196.085 -230.102C-195.652 -232.268 -197.058 -234.375 -199.224 -234.807L-200.791 -226.962ZM-183.581 -231.241C-185.72 -231.791 -187.901 -230.503 -188.451 -228.363C-189.001 -226.224 -187.713 -224.043 -185.573 -223.493L-183.581 -231.241ZM-184.615 -223.245C-182.478 -222.687 -180.293 -223.968 -179.735 -226.105C-179.177 -228.243 -180.458 -230.428 -182.595 -230.986L-184.615 -223.245ZM-167.142 -226.472C-169.243 -227.154 -171.499 -226.003 -172.181 -223.902C-172.863 -221.801 -171.712 -219.545 -169.611 -218.863L-167.142 -226.472ZM-168.674 -218.557C-166.576 -217.867 -164.315 -219.009 -163.625 -221.108C-162.935 -223.207 -164.077 -225.467 -166.176 -226.157L-168.674 -218.557ZM-150.986 -220.627C-153.036 -221.45 -155.365 -220.456 -156.188 -218.406C-157.011 -216.355 -156.016 -214.026 -153.966 -213.203L-150.986 -220.627ZM-153.049 -212.833C-151.003 -212.001 -148.67 -212.986 -147.838 -215.032C-147.006 -217.079 -147.99 -219.412 -150.037 -220.244L-153.049 -212.833ZM-135.308 -213.626C-137.287 -214.609 -139.687 -213.801 -140.67 -211.823C-141.652 -209.844 -140.845 -207.444 -138.866 -206.461L-135.308 -213.626ZM-137.973 -206.015C-135.999 -205.021 -133.594 -205.816 -132.601 -207.789C-131.608 -209.762 -132.402 -212.167 -134.375 -213.16L-137.973 -206.015ZM-120.191 -205.063C-122.02 -206.301 -124.508 -205.823 -125.746 -203.993C-126.985 -202.164 -126.506 -199.677 -124.677 -198.439L-120.191 -205.063ZM-123.049 -197.583C-120.992 -196.777 -118.672 -197.792 -117.866 -199.849C-117.06 -201.906 -118.075 -204.226 -120.132 -205.032L-123.049 -197.583ZM-105.304 -198.08C-107.242 -199.141 -109.673 -198.431 -110.734 -196.494C-111.795 -194.556 -111.085 -192.125 -109.148 -191.064L-105.304 -198.08ZM-108.311 -190.601C-106.382 -189.526 -103.945 -190.218 -102.869 -192.147C-101.794 -194.077 -102.486 -196.513 -104.415 -197.589L-108.311 -190.601ZM-90.6394 -188.837C-92.4361 -190.122 -94.9346 -189.708 -96.2199 -187.911C-97.5053 -186.114 -97.0907 -183.616 -95.294 -182.33L-90.6394 -188.837ZM-94.5124 -181.767C-92.7241 -180.47 -90.223 -180.869 -88.9259 -182.657C-87.6289 -184.445 -88.0271 -186.946 -89.8154 -188.243L-94.5124 -181.767ZM-77.1371 -178.043C-78.7899 -179.509 -81.318 -179.357 -82.7838 -177.704C-84.2495 -176.051 -84.0979 -173.523 -82.4451 -172.057L-77.1371 -178.043ZM-81.7211 -171.412C-80.0767 -169.936 -77.5477 -170.074 -76.0725 -171.718C-74.5974 -173.362 -74.7345 -175.891 -76.3789 -177.367L-81.7211 -171.412ZM-64.7837 -166.011C-66.2957 -167.622 -68.8271 -167.702 -70.4378 -166.19C-72.0484 -164.678 -72.1284 -162.147 -70.6164 -160.536L-64.7837 -166.011ZM-69.9505 -159.823C-68.4467 -158.205 -65.9157 -158.112 -64.2974 -159.616C-62.6792 -161.12 -62.5865 -163.651 -64.0903 -165.269L-69.9505 -159.823ZM-53.5341 -152.992C-54.9111 -154.719 -57.4277 -155.004 -59.1552 -153.627C-60.8828 -152.25 -61.167 -149.733 -59.7901 -148.006L-53.5341 -152.992ZM-59.1814 -147.238C-57.8123 -145.505 -55.2969 -145.209 -53.5632 -146.578C-51.8295 -147.947 -51.534 -150.463 -52.9031 -152.196L-59.1814 -147.238ZM-43.3317 -139.177C-44.58 -141 -47.0695 -141.465 -48.8921 -140.217C-50.7148 -138.969 -51.1804 -136.479 -49.9321 -134.657L-43.3317 -139.177ZM-49.3792 -133.846C-48.1383 -132.018 -45.6507 -131.542 -43.823 -132.783C-41.9953 -134.024 -41.5196 -136.512 -42.7604 -138.339L-49.3792 -133.846ZM-34.1203 -124.714C-35.246 -126.615 -37.6995 -127.243 -39.6003 -126.118C-41.5011 -124.992 -42.1295 -122.538 -41.0039 -120.638L-34.1203 -124.714ZM-40.5048 -119.791C-39.3862 -117.886 -36.9351 -117.249 -35.0301 -118.367C-33.1251 -119.486 -32.4876 -121.937 -33.6062 -123.842L-40.5048 -119.791ZM-25.8505 -109.716C-26.8587 -111.682 -29.2695 -112.458 -31.2351 -111.45C-33.2008 -110.442 -33.977 -108.031 -32.9688 -106.065L-25.8505 -109.716ZM-32.5219 -105.19C-31.5205 -103.221 -29.1124 -102.437 -27.1432 -103.438C-25.1741 -104.44 -24.3896 -106.848 -25.391 -108.817L-32.5219 -105.19ZM-18.4816 -94.2728C-19.3764 -96.2926 -21.7391 -97.2046 -23.7589 -96.3098C-25.7788 -95.415 -26.6907 -93.0522 -25.7959 -91.0324L-18.4816 -94.2728ZM-25.3996 -90.1338C-24.5113 -88.1111 -22.1515 -87.1914 -20.1288 -88.0797C-18.1061 -88.9679 -17.1865 -91.3277 -18.0747 -93.3504L-25.3996 -90.1338ZM-11.9826 -78.4546C-12.7671 -80.5198 -15.0771 -81.558 -17.1423 -80.7735C-19.2075 -79.9891 -20.2457 -77.679 -19.4612 -75.6138L-11.9826 -78.4546ZM-19.1141 -74.6958C-18.3361 -72.6282 -16.0292 -71.5828 -13.9616 -72.3608C-11.8941 -73.1389 -10.8487 -75.4457 -11.6267 -77.5133L-19.1141 -74.6958ZM-6.33187 -62.321C-7.00797 -64.4241 -9.26099 -65.581 -11.3641 -64.9049C-13.4673 -64.2288 -14.6241 -61.9757 -13.948 -59.8726L-6.33187 -62.321ZM-13.6492 -58.9384C-12.9794 -56.8333 -10.7299 -55.6697 -8.62476 -56.3395C-6.5196 -57.0092 -5.356 -59.2588 -6.02578 -61.3639L-13.6492 -58.9384ZM-1.51627 -45.9229C-2.08505 -48.0575 -4.27663 -49.3269 -6.41129 -48.7582C-8.54595 -48.1894 -9.81535 -45.9978 -9.24656 -43.8631L-1.51627 -45.9229ZM-8.9956 -42.9157C-8.4331 -40.7793 -6.24528 -39.5035 -4.10895 -40.066C-1.97262 -40.6285 -0.696779 -42.8163 -1.25927 -44.9526L-8.9956 -42.9157ZM2.4695 -29.3059C2.0079 -31.4663 -0.117632 -32.8434 -2.27801 -32.3818C-4.43838 -31.9202 -5.81551 -29.7947 -5.35391 -27.6343L2.4695 -29.3059ZM-5.1506 -26.6759C-4.6953 -24.5142 -2.57379 -23.1309 -0.41208 -23.5862C1.74963 -24.0415 3.13295 -26.163 2.67766 -28.3247L-5.1506 -26.6759ZM5.62373 -12.5124C5.27 -14.693 3.21549 -16.174 1.03486 -15.8203C-1.14578 -15.4666 -2.62678 -13.4121 -2.27304 -11.2314L5.62373 -12.5124ZM-2.11762 -10.2644C-1.77025 -8.08272 0.279924 -6.59573 2.46158 -6.94309C4.64324 -7.29046 6.13023 -9.34063 5.78286 -11.5223L-2.11762 -10.2644ZM7.93836 4.41693C7.69395 2.22135 5.71594 0.639626 3.52037 0.884041C1.32479 1.12846 -0.25694 3.10646 -0.0125248 5.30204L7.93836 4.41693ZM0.0944049 6.27564C0.332343 8.47193 2.30567 10.0595 4.50196 9.82154C6.69825 9.58361 8.28581 7.61028 8.04787 5.41399L0.0944049 6.27564ZM9.39933 21.438C9.26635 19.2329 7.37093 17.5531 5.1658 17.686C2.96067 17.819 1.28086 19.7144 1.41383 21.9196L9.39933 21.438ZM1.47152 22.9008C1.59785 25.1063 3.48819 26.7918 5.69372 26.6655C7.89924 26.5392 9.58476 24.6488 9.45843 22.4433L1.47152 22.9008ZM9.9882 38.5146C9.96943 36.3055 8.16342 34.53 5.95436 34.5487C3.7453 34.5675 1.96972 36.3735 1.98849 38.5826L9.9882 38.5146ZM1.99531 39.5642C2.00726 41.7733 3.80778 43.5545 6.01688 43.5425C8.22599 43.5306 10.0071 41.73 9.99519 39.5209L1.99531 39.5642ZM9.68089 55.6068C9.77966 53.3999 8.07066 51.5307 5.86373 51.432C3.6568 51.3332 1.78766 53.0422 1.68889 55.2491L9.68089 55.6068ZM1.64349 56.2288C1.5377 58.4354 3.24074 60.3099 5.44734 60.4157C7.65395 60.5215 9.52852 58.8185 9.63431 56.6119L1.64349 56.2288ZM8.44919 72.6652C8.66921 70.467 7.06562 68.5067 4.86747 68.2867C2.66931 68.0666 0.708989 69.6702 0.488963 71.8684L8.44919 72.6652ZM0.389748 72.8433C0.162468 75.0408 1.75958 77.0064 3.95699 77.2336C6.15441 77.4609 8.12002 75.8638 8.3473 73.6664L0.389748 72.8433ZM6.26233 89.6354C6.60758 87.4534 5.11859 85.4047 2.9366 85.0595C0.754604 84.7142 -1.29413 86.2032 -1.63937 88.3852L6.26233 89.6354ZM-1.7941 89.3524C-2.14683 91.5332 -0.664894 93.587 1.5159 93.9397C3.6967 94.2924 5.75053 92.8105 6.10326 90.6297L-1.7941 89.3524ZM3.08845 106.457C3.56289 104.3 2.19842 102.166 0.0408299 101.692C-2.11676 101.217 -4.25044 102.582 -4.72488 104.739L3.08845 106.457ZM-4.93681 105.695C-5.41897 107.851 -4.06215 109.989 -1.90627 110.472C0.249613 110.954 2.38817 109.597 2.87032 107.441L-4.93681 105.695ZM-1.10377 123.065C-0.496408 120.941 -1.72589 118.726 -3.8499 118.119C-5.97391 117.512 -8.18812 118.741 -8.79548 120.865L-1.10377 123.065ZM-9.06612 121.805C-9.6814 123.927 -8.46019 126.145 -6.33846 126.761C-4.21674 127.376 -1.99795 126.155 -1.38267 124.033L-9.06612 121.805ZM-6.3429 139.383C-5.59947 137.303 -6.68321 135.014 -8.76351 134.271C-10.8438 133.527 -13.1329 134.611 -13.8763 136.691L-6.3429 139.383ZM-14.2068 137.61C-14.9583 139.688 -13.8835 141.981 -11.8061 142.733C-9.72868 143.484 -7.43541 142.409 -6.6839 140.332L-14.2068 137.61ZM-12.6522 155.334C-11.7706 153.308 -12.6979 150.951 -14.7235 150.07C-16.749 149.188 -19.1058 150.115 -19.9875 152.141L-12.6522 155.334ZM-20.3784 153.034C-21.2682 155.056 -20.3504 157.417 -18.3284 158.306C-16.3064 159.196 -13.9459 158.278 -13.056 156.256L-20.3784 153.034ZM-20.0397 170.817C-19.0192 168.857 -19.7801 166.442 -21.7394 165.421C-23.6986 164.401 -26.1143 165.161 -27.1349 167.121L-20.0397 170.817ZM-27.5888 167.988C-28.6176 169.943 -27.8668 172.362 -25.9118 173.39C-23.9568 174.419 -21.538 173.668 -20.5092 171.713L-27.5888 167.988ZM-28.5048 185.741C-27.3464 183.86 -27.9323 181.396 -29.8134 180.238C-31.6944 179.079 -34.1584 179.665 -35.3168 181.546L-28.5048 185.741ZM-35.8316 182.378C-36.9981 184.255 -36.4228 186.721 -34.5467 187.887C-32.6706 189.054 -30.2041 188.479 -29.0377 186.602L-35.8316 182.378ZM-38.0307 200.015C-36.7378 198.224 -37.1418 195.724 -38.933 194.431C-40.7243 193.138 -43.2245 193.542 -44.5175 195.333L-38.0307 200.015ZM-45.0913 196.125C-46.3921 197.91 -45.999 200.412 -44.2134 201.713C-42.4277 203.014 -39.9258 202.621 -38.625 200.835L-45.0913 196.125ZM-48.5849 213.552C-47.1628 211.861 -47.3806 209.338 -49.0711 207.916C-50.7617 206.494 -53.285 206.712 -54.7071 208.402L-48.5849 213.552ZM-55.3367 209.147C-56.7661 210.832 -56.5594 213.356 -54.8751 214.785C-53.1907 216.215 -50.6665 216.008 -49.2371 214.324L-55.3367 209.147ZM-60.1195 226.274C-58.576 224.693 -58.6059 222.161 -60.1864 220.617C-61.7668 219.074 -64.2993 219.104 -65.8429 220.684L-60.1195 226.274ZM-66.5236 221.378C-68.074 222.952 -68.055 225.485 -66.4813 227.035C-64.9075 228.585 -62.3749 228.566 -60.8246 226.993L-66.5236 221.378ZM-72.5757 238.121C-70.9201 236.658 -70.7638 234.13 -72.2265 232.475C-73.6892 230.819 -76.217 230.663 -77.8725 232.125L-72.5757 238.121ZM-78.5985 232.764C-80.2602 234.22 -80.4273 236.747 -78.9717 238.409C-77.516 240.07 -74.9889 240.237 -73.3271 238.782L-78.5985 232.764ZM-85.8644 249.031C-84.1078 247.691 -83.7698 245.181 -85.1095 243.425C-86.4492 241.668 -88.9592 241.33 -90.7157 242.67L-85.8644 249.031ZM-91.5029 243.268C-93.2651 244.6 -93.6136 247.108 -92.2814 248.871C-90.9491 250.633 -88.4406 250.981 -86.6784 249.649L-91.5029 243.268ZM-99.8161 258.92C-97.9708 257.706 -97.4595 255.225 -98.674 253.38C-99.8886 251.535 -102.369 251.023 -104.214 252.238L-99.8161 258.92ZM-105.039 252.778C-106.889 253.985 -107.411 256.464 -106.204 258.314C-104.997 260.164 -102.518 260.686 -100.668 259.479L-105.039 252.778ZM-114.415 267.841C-112.493 266.752 -111.818 264.311 -112.907 262.389C-113.996 260.467 -116.437 259.792 -118.359 260.881L-114.415 267.841ZM-119.211 261.362C-121.138 262.443 -121.822 264.881 -120.741 266.808C-119.659 268.734 -117.221 269.419 -115.295 268.337L-119.211 261.362ZM-129.601 275.812C-127.613 274.848 -126.784 272.454 -127.749 270.467C-128.714 268.48 -131.107 267.65 -133.094 268.615L-129.601 275.812ZM-133.966 269.037C-135.957 269.994 -136.795 272.384 -135.837 274.375C-134.88 276.366 -132.49 277.204 -130.499 276.246L-133.966 269.037ZM-145.306 282.853C-143.264 282.01 -142.293 279.671 -143.136 277.629C-143.979 275.587 -146.318 274.616 -148.36 275.459L-145.306 282.853ZM-705.239 282.022C-703.454 280.721 -703.061 278.219 -704.362 276.434C-705.663 274.648 -708.165 274.256 -709.951 275.557L-705.239 282.022ZM-695.536 266.788C-697.506 267.789 -698.291 270.197 -697.29 272.166C-696.289 274.136 -693.881 274.921 -691.911 273.919L-695.536 266.788ZM-691.034 273.478C-689.056 272.494 -688.25 270.093 -689.235 268.115C-690.219 266.137 -692.62 265.332 -694.598 266.316L-691.034 273.478ZM-679.171 259.806C-681.252 260.547 -682.338 262.835 -681.597 264.916C-680.856 266.997 -678.568 268.084 -676.487 267.343L-679.171 259.806ZM-675.544 267.01C-673.458 266.283 -672.357 264.002 -673.084 261.917C-673.811 259.831 -676.092 258.729 -678.178 259.457L-675.544 267.01ZM-662.229 254.731C-664.373 255.265 -665.678 257.436 -665.144 259.579C-664.61 261.723 -662.439 263.028 -660.295 262.494L-662.229 254.731ZM-659.326 262.255C-657.18 261.732 -655.864 259.568 -656.387 257.421C-656.91 255.275 -659.074 253.959 -661.221 254.483L-659.326 262.255ZM-644.999 251.163C-647.177 251.53 -648.645 253.594 -648.278 255.772C-647.91 257.95 -645.847 259.419 -643.668 259.051L-644.999 251.163ZM-642.689 258.888C-640.509 258.529 -639.033 256.471 -639.392 254.292C-639.75 252.112 -641.808 250.635 -643.988 250.994L-642.689 258.888ZM-627.627 248.807C-629.824 249.037 -631.419 251.005 -631.189 253.202C-630.958 255.399 -628.991 256.994 -626.794 256.764L-627.627 248.807ZM-625.796 256.661C-623.598 256.438 -621.997 254.475 -622.22 252.277C-622.442 250.08 -624.405 248.479 -626.603 248.702L-625.796 256.661ZM-610.193 247.455C-612.399 247.569 -614.094 249.45 -613.98 251.656C-613.866 253.863 -611.984 255.558 -609.778 255.444L-610.193 247.455ZM-608.767 255.393C-606.561 255.285 -604.859 253.408 -604.968 251.202C-605.076 248.995 -606.952 247.294 -609.159 247.402L-608.767 255.393ZM-592.738 246.954C-594.947 246.968 -596.726 248.771 -596.712 250.98C-596.698 253.189 -594.895 254.968 -592.686 254.954L-592.738 246.954ZM-591.676 254.949C-589.467 254.94 -587.684 253.142 -587.692 250.933C-587.701 248.724 -589.499 246.94 -591.708 246.949L-591.676 254.949ZM-575.293 247.197C-577.5 247.123 -579.35 248.853 -579.425 251.06C-579.499 253.268 -577.769 255.118 -575.561 255.193L-575.293 247.197ZM-574.554 255.228C-572.347 255.307 -570.493 253.581 -570.414 251.373C-570.334 249.166 -572.06 247.312 -574.268 247.233L-574.554 255.228ZM-557.878 248.104C-560.082 247.949 -561.994 249.611 -562.148 251.815C-562.302 254.018 -560.641 255.93 -558.437 256.084L-557.878 248.104ZM-557.433 256.156C-555.23 256.314 -553.315 254.657 -553.156 252.453C-552.997 250.25 -554.655 248.335 -556.858 248.176L-557.433 256.156ZM-540.523 249.615C-542.72 249.387 -544.686 250.983 -544.914 253.181C-545.142 255.378 -543.546 257.344 -541.349 257.572L-540.523 249.615ZM-540.342 257.678C-538.146 257.91 -536.176 256.317 -535.944 254.12C-535.712 251.923 -537.304 249.954 -539.501 249.722L-540.342 257.678ZM-523.235 251.688C-525.424 251.391 -527.44 252.924 -527.737 255.113C-528.035 257.302 -526.502 259.318 -524.313 259.616L-523.235 251.688ZM-523.312 259.752C-521.123 260.054 -519.105 258.524 -518.804 256.336C-518.502 254.147 -520.032 252.129 -522.22 251.827L-523.312 259.752ZM-506.021 254.296C-508.2 253.932 -510.262 255.404 -510.626 257.583C-510.99 259.762 -509.518 261.823 -507.339 262.187L-506.021 254.296ZM-506.343 262.354C-504.165 262.722 -502.101 261.255 -501.733 259.076C-501.365 256.898 -502.833 254.834 -505.011 254.466L-506.343 262.354ZM-488.9 257.421C-491.067 256.992 -493.171 258.401 -493.6 260.568C-494.029 262.735 -492.62 264.84 -490.453 265.269L-488.9 257.421ZM-489.462 265.466C-487.296 265.899 -485.189 264.493 -484.756 262.327C-484.323 260.161 -485.728 258.054 -487.895 257.621L-489.462 265.466ZM-471.872 261.058C-474.026 260.564 -476.171 261.909 -476.665 264.062C-477.159 266.216 -475.814 268.361 -473.661 268.855L-471.872 261.058ZM-472.678 269.082C-470.526 269.579 -468.378 268.238 -467.88 266.086C-467.382 263.933 -468.723 261.785 -470.876 261.287L-472.678 269.082ZM-454.962 265.21C-457.099 264.65 -459.285 265.928 -459.845 268.065C-460.405 270.202 -459.127 272.389 -456.99 272.949L-454.962 265.21ZM-456.013 273.206C-453.877 273.769 -451.688 272.495 -451.124 270.359C-450.56 268.223 -451.835 266.034 -453.971 265.471L-456.013 273.206ZM-438.192 269.891C-440.31 269.263 -442.537 270.47 -443.165 272.588C-443.794 274.706 -442.587 276.932 -440.469 277.561L-438.192 269.891ZM-439.498 277.85C-437.381 278.483 -435.153 277.28 -434.52 275.163C-433.887 273.047 -435.09 270.818 -437.206 270.185L-439.498 277.85ZM-421.581 275.133C-423.675 274.431 -425.942 275.561 -426.644 277.655C-427.346 279.75 -426.217 282.017 -424.122 282.719L-421.581 275.133ZM-423.178 283.036C-421.083 283.737 -418.816 282.608 -418.114 280.513C-417.413 278.419 -418.542 276.152 -420.637 275.45L-423.178 283.036ZM-405.942 280.089C-408.06 279.461 -410.286 280.669 -410.914 282.787C-411.542 284.905 -410.335 287.131 -408.217 287.759L-405.942 280.089ZM-407.267 288.039C-405.148 288.663 -402.925 287.45 -402.301 285.33C-401.678 283.211 -402.891 280.988 -405.01 280.364L-407.267 288.039ZM-390.152 284.452C-392.292 283.903 -394.472 285.194 -395.02 287.334C-395.568 289.474 -394.278 291.653 -392.138 292.201L-390.152 284.452ZM-391.182 292.445C-389.041 292.989 -386.864 291.693 -386.321 289.552C-385.777 287.411 -387.073 285.235 -389.214 284.691L-391.182 292.445ZM-374.216 288.217C-376.375 287.749 -378.504 289.121 -378.971 291.28C-379.439 293.439 -378.067 295.568 -375.908 296.036L-374.216 288.217ZM-374.947 296.242C-372.787 296.705 -370.661 295.329 -370.199 293.168C-369.736 291.008 -371.112 288.882 -373.273 288.42L-374.947 296.242ZM-358.158 291.375C-360.334 290.99 -362.41 292.441 -362.795 294.616C-363.18 296.792 -361.729 298.867 -359.554 299.253L-358.158 291.375ZM-358.591 299.422C-356.415 299.803 -354.342 298.347 -353.962 296.171C-353.581 293.995 -355.037 291.922 -357.213 291.542L-358.591 299.422ZM-342.01 293.922C-344.198 293.619 -346.217 295.148 -346.52 297.336C-346.823 299.524 -345.294 301.544 -343.106 301.847L-342.01 293.922ZM-342.143 301.979C-339.954 302.277 -337.938 300.744 -337.64 298.555C-337.342 296.366 -338.875 294.35 -341.064 294.052L-342.143 301.979ZM-325.776 295.856C-327.974 295.636 -329.934 297.24 -330.154 299.438C-330.374 301.636 -328.77 303.597 -326.572 303.816L-325.776 295.856ZM-325.586 303.914C-323.387 304.129 -321.431 302.52 -321.216 300.322C-321.001 298.123 -322.609 296.166 -324.808 295.952L-325.586 303.914ZM-309.437 297.177C-311.642 297.041 -313.54 298.718 -313.676 300.923C-313.813 303.128 -312.136 305.025 -309.931 305.162L-309.437 297.177ZM-308.95 305.221C-306.745 305.352 -304.851 303.671 -304.72 301.466C-304.588 299.261 -306.27 297.367 -308.475 297.235L-308.95 305.221ZM-293.099 297.877C-295.308 297.824 -297.141 299.571 -297.194 301.78C-297.247 303.988 -295.499 305.821 -293.291 305.874L-293.099 297.877ZM-292.319 305.896C-290.111 305.944 -288.281 304.193 -288.234 301.984C-288.186 299.775 -289.937 297.946 -292.146 297.898L-292.319 305.896ZM-276.738 297.958C-278.947 297.989 -280.713 299.804 -280.682 302.013C-280.651 304.222 -278.836 305.988 -276.627 305.957L-276.738 297.958ZM-275.638 305.942C-273.429 305.907 -271.668 304.087 -271.703 301.878C-271.739 299.669 -273.559 297.908 -275.768 297.943L-275.638 305.942ZM-260.374 297.42C-262.58 297.534 -264.276 299.416 -264.161 301.622C-264.047 303.828 -262.166 305.524 -259.96 305.409L-260.374 297.42ZM-258.989 305.358C-256.783 305.238 -255.091 303.353 -255.211 301.147C-255.33 298.942 -257.215 297.25 -259.421 297.369L-258.989 305.358ZM-244.052 296.262C-246.252 296.46 -247.875 298.404 -247.676 300.605C-247.478 302.805 -245.534 304.428 -243.334 304.229L-244.052 296.262ZM-242.351 304.14C-240.151 303.936 -238.532 301.988 -238.736 299.789C-238.939 297.589 -240.887 295.97 -243.087 296.174L-242.351 304.14ZM-227.823 294.486C-230.014 294.768 -231.561 296.773 -231.279 298.964C-230.996 301.155 -228.991 302.702 -226.8 302.42L-227.823 294.486ZM-225.818 302.292C-223.628 302.004 -222.085 299.996 -222.373 297.805C-222.66 295.615 -224.669 294.073 -226.859 294.36L-225.818 302.292ZM-211.615 292.073C-213.794 292.441 -215.261 294.505 -214.892 296.683C-214.524 298.862 -212.46 300.329 -210.282 299.961L-211.615 292.073ZM-209.333 299.799C-207.155 299.426 -205.693 297.358 -206.066 295.181C-206.44 293.003 -208.507 291.541 -210.685 291.914L-209.333 299.799ZM-195.553 289.022C-197.714 289.479 -199.096 291.601 -198.64 293.763C-198.184 295.924 -196.061 297.306 -193.9 296.85L-195.553 289.022ZM-192.964 296.651C-190.804 296.189 -189.427 294.064 -189.888 291.903C-190.35 289.743 -192.475 288.366 -194.636 288.828L-192.964 296.651ZM-179.634 285.303C-181.773 285.853 -183.062 288.033 -182.512 290.173C-181.962 292.313 -179.782 293.601 -177.643 293.051L-179.634 285.303ZM-176.672 292.801C-174.533 292.245 -173.251 290.061 -173.806 287.923C-174.362 285.785 -176.546 284.502 -178.684 285.058L-176.672 292.801ZM-163.941 280.866C-166.05 281.521 -167.229 283.763 -166.574 285.873C-165.918 287.982 -163.677 289.161 -161.567 288.506L-163.941 280.866ZM-160.594 288.201C-158.486 287.539 -157.315 285.293 -157.978 283.186C-158.64 281.078 -160.886 279.907 -162.993 280.57L-160.594 288.201ZM-148.667 275.552C-150.714 276.382 -151.702 278.714 -150.872 280.762C-150.042 282.809 -147.71 283.796 -145.663 282.967L-148.667 275.552ZM-710.374 -182.713C-710.236 -182.611 -710.098 -182.51 -709.959 -182.409L-705.248 -188.875C-705.374 -188.967 -705.5 -189.059 -705.626 -189.151L-710.374 -182.713ZM-695.838 -173.895C-695.532 -173.743 -695.225 -173.592 -694.916 -173.442L-691.422 -180.639C-691.709 -180.778 -691.993 -180.918 -692.277 -181.059L-695.838 -173.895ZM-679.737 -167.32C-679.413 -167.212 -679.087 -167.106 -678.761 -167L-676.301 -174.613C-676.609 -174.712 -676.916 -174.813 -677.222 -174.914L-679.737 -167.32ZM-663.046 -162.834C-662.715 -162.763 -662.383 -162.694 -662.05 -162.625L-660.43 -170.459C-660.748 -170.525 -661.065 -170.591 -661.381 -170.659L-663.046 -162.834ZM-646.088 -160.02C-645.758 -159.979 -645.427 -159.939 -645.095 -159.9L-644.154 -167.845C-644.474 -167.882 -644.793 -167.921 -645.111 -167.96L-646.088 -160.02ZM-629.035 -158.55C-628.702 -158.533 -628.369 -158.517 -628.036 -158.5L-627.651 -166.491C-627.975 -166.507 -628.298 -166.523 -628.621 -166.54L-629.035 -158.55ZM-611.975 -158.181C-611.638 -158.184 -611.301 -158.187 -610.964 -158.19L-611.044 -166.19C-611.373 -166.186 -611.702 -166.183 -612.03 -166.181L-611.975 -158.181ZM-594.953 -158.734C-594.619 -158.753 -594.284 -158.773 -593.949 -158.793L-594.426 -166.779C-594.753 -166.759 -595.081 -166.74 -595.408 -166.721L-594.953 -158.734ZM-577.995 -160.078C-577.664 -160.111 -577.332 -160.145 -577 -160.179L-577.821 -168.137C-578.146 -168.104 -578.472 -168.07 -578.797 -168.038L-577.995 -160.078ZM-561.12 -162.114C-560.79 -162.16 -560.461 -162.207 -560.132 -162.254L-561.258 -170.174C-561.582 -170.128 -561.906 -170.082 -562.229 -170.037L-561.12 -162.114ZM-544.343 -164.77C-544.015 -164.827 -543.688 -164.885 -543.361 -164.943L-544.764 -172.819C-545.086 -172.762 -545.408 -172.705 -545.73 -172.648L-544.343 -164.77ZM-527.686 -167.986C-527.361 -168.054 -527.035 -168.123 -526.709 -168.192L-528.366 -176.018C-528.687 -175.95 -529.008 -175.882 -529.329 -175.815L-527.686 -167.986ZM-511.14 -171.725C-510.817 -171.803 -510.494 -171.882 -510.171 -171.96L-512.067 -179.732C-512.385 -179.655 -512.704 -179.577 -513.022 -179.5L-511.14 -171.725ZM-494.72 -175.957C-494.399 -176.045 -494.078 -176.133 -493.757 -176.221L-495.88 -183.934C-496.197 -183.847 -496.513 -183.76 -496.83 -183.674L-494.72 -175.957ZM-478.431 -180.665C-478.113 -180.761 -477.795 -180.858 -477.478 -180.956L-479.822 -188.604C-480.135 -188.508 -480.448 -188.413 -480.762 -188.317L-478.431 -180.665ZM-462.281 -185.839C-461.966 -185.945 -461.651 -186.051 -461.336 -186.158L-463.9 -193.736C-464.21 -193.631 -464.521 -193.526 -464.832 -193.421L-462.281 -185.839ZM-446.293 -191.478C-445.98 -191.593 -445.667 -191.709 -445.355 -191.825L-448.14 -199.325C-448.448 -199.21 -448.756 -199.096 -449.065 -198.982L-446.293 -191.478ZM-430.479 -197.593C-430.326 -197.655 -430.173 -197.717 -430.02 -197.779L-433.027 -205.192C-433.178 -205.131 -433.329 -205.07 -433.479 -205.009L-430.479 -197.593ZM-430.02 -197.779C-429.864 -197.842 -429.709 -197.905 -429.554 -197.968L-432.555 -205.384C-432.712 -205.32 -432.869 -205.256 -433.027 -205.192L-430.02 -197.779ZM-414.821 -203.692C-414.517 -203.805 -414.214 -203.918 -413.911 -204.03L-416.69 -211.532C-416.997 -211.418 -417.305 -211.304 -417.613 -211.19L-414.821 -203.692ZM-399.023 -209.298C-398.715 -209.402 -398.407 -209.506 -398.1 -209.609L-400.642 -217.194C-400.954 -217.089 -401.267 -216.984 -401.58 -216.879L-399.023 -209.298ZM-383.074 -214.39C-382.761 -214.484 -382.449 -214.577 -382.138 -214.67L-384.429 -222.335C-384.746 -222.241 -385.063 -222.145 -385.38 -222.05L-383.074 -214.39ZM-366.975 -218.938C-366.659 -219.021 -366.344 -219.104 -366.029 -219.186L-368.054 -226.926C-368.374 -226.842 -368.695 -226.758 -369.016 -226.673L-366.975 -218.938ZM-350.736 -222.912C-350.417 -222.983 -350.099 -223.055 -349.782 -223.126L-351.524 -230.934C-351.847 -230.861 -352.171 -230.789 -352.495 -230.716L-350.736 -222.912ZM-334.371 -226.278C-334.051 -226.337 -333.731 -226.396 -333.412 -226.455L-334.855 -234.324C-335.18 -234.264 -335.506 -234.204 -335.832 -234.143L-334.371 -226.278ZM-317.901 -229.001C-317.58 -229.048 -317.26 -229.094 -316.94 -229.139L-318.067 -237.06C-318.394 -237.013 -318.72 -236.966 -319.048 -236.919L-317.901 -229.001ZM-301.356 -231.047C-301.035 -231.08 -300.715 -231.113 -300.395 -231.144L-301.19 -239.105C-301.516 -239.072 -301.843 -239.039 -302.17 -239.006L-301.356 -231.047ZM-284.731 -232.384C-284.398 -232.403 -284.066 -232.422 -283.735 -232.441L-284.178 -240.428C-284.517 -240.409 -284.856 -240.39 -285.195 -240.37L-284.731 -232.384ZM-268.017 -232.974C-267.688 -232.978 -267.359 -232.982 -267.031 -232.985L-267.106 -240.984C-267.441 -240.981 -267.777 -240.978 -268.114 -240.973L-268.017 -232.974ZM-251.346 -232.779C-251.021 -232.767 -250.697 -232.755 -250.374 -232.742L-250.064 -240.736C-250.395 -240.749 -250.726 -240.762 -251.058 -240.774L-251.346 -232.779ZM-234.756 -231.769C-234.424 -231.741 -234.092 -231.712 -233.762 -231.682L-233.05 -239.651C-233.389 -239.681 -233.728 -239.711 -234.069 -239.74L-234.756 -231.769ZM-218.158 -229.901C-217.836 -229.856 -217.514 -229.81 -217.193 -229.765L-216.063 -237.684C-216.392 -237.731 -216.721 -237.778 -217.052 -237.824L-218.158 -229.901ZM-201.764 -227.155C-201.438 -227.091 -201.114 -227.027 -200.791 -226.962L-199.224 -234.807C-199.556 -234.874 -199.89 -234.94 -200.224 -235.005L-201.764 -227.155ZM-185.573 -223.493C-185.253 -223.411 -184.933 -223.328 -184.615 -223.245L-182.595 -230.986C-182.922 -231.071 -183.251 -231.156 -183.581 -231.241L-185.573 -223.493ZM-169.611 -218.863C-169.297 -218.761 -168.985 -218.659 -168.674 -218.557L-166.176 -226.157C-166.497 -226.262 -166.818 -226.368 -167.142 -226.472L-169.611 -218.863ZM-153.966 -213.203C-153.658 -213.08 -153.353 -212.956 -153.049 -212.833L-150.037 -220.244C-150.351 -220.372 -150.667 -220.499 -150.986 -220.627L-153.966 -213.203ZM-138.866 -206.461C-138.563 -206.311 -138.266 -206.162 -137.973 -206.015L-134.375 -213.16C-134.682 -213.314 -134.992 -213.47 -135.308 -213.626L-138.866 -206.461ZM-124.677 -198.439C-124.561 -198.36 -124.478 -198.303 -124.426 -198.267C-124.4 -198.249 -124.382 -198.236 -124.372 -198.229C-124.367 -198.226 -124.364 -198.223 -124.363 -198.223C-124.362 -198.222 -124.362 -198.222 -124.363 -198.223C-124.363 -198.223 -124.363 -198.223 -124.364 -198.223C-124.364 -198.224 -124.364 -198.224 -124.365 -198.224C-124.365 -198.224 -124.365 -198.224 -124.365 -198.224C-124.365 -198.224 -124.365 -198.225 -124.366 -198.225C-124.366 -198.225 -124.366 -198.225 -124.366 -198.225C-124.366 -198.225 -124.366 -198.225 -122.049 -201.486C-119.733 -204.747 -119.733 -204.747 -119.733 -204.747C-119.733 -204.747 -119.733 -204.747 -119.733 -204.747C-119.733 -204.747 -119.733 -204.747 -119.734 -204.747C-119.734 -204.747 -119.734 -204.748 -119.734 -204.748C-119.735 -204.748 -119.735 -204.748 -119.736 -204.749C-119.737 -204.749 -119.738 -204.75 -119.739 -204.751C-119.741 -204.753 -119.744 -204.755 -119.748 -204.757C-119.755 -204.762 -119.764 -204.769 -119.775 -204.777C-119.797 -204.792 -119.827 -204.813 -119.866 -204.84C-119.942 -204.893 -120.051 -204.967 -120.191 -205.063L-124.677 -198.439ZM-123.492 -197.755C-123.345 -197.698 -123.197 -197.64 -123.049 -197.583L-120.132 -205.032C-120.29 -205.094 -120.448 -205.155 -120.606 -205.216L-123.492 -197.755ZM-109.148 -191.064C-108.869 -190.911 -108.59 -190.757 -108.311 -190.601L-104.415 -197.589C-104.711 -197.754 -105.007 -197.917 -105.304 -198.08L-109.148 -191.064ZM-95.294 -182.33C-95.0331 -182.144 -94.7726 -181.956 -94.5124 -181.767L-89.8154 -188.243C-90.0896 -188.442 -90.3643 -188.64 -90.6394 -188.837L-95.294 -182.33ZM-82.4451 -172.057C-82.2034 -171.843 -81.9621 -171.628 -81.7211 -171.412L-76.3789 -177.367C-76.6312 -177.593 -76.8839 -177.818 -77.1371 -178.043L-82.4451 -172.057ZM-70.6164 -160.536C-70.3941 -160.299 -70.1721 -160.061 -69.9505 -159.823L-64.0903 -165.269C-64.321 -165.517 -64.5522 -165.765 -64.7837 -166.011L-70.6164 -160.536ZM-59.7901 -148.006C-59.5868 -147.751 -59.3839 -147.495 -59.1814 -147.238L-52.9031 -152.196C-53.113 -152.462 -53.3234 -152.727 -53.5341 -152.992L-59.7901 -148.006ZM-49.9321 -134.657C-49.7474 -134.387 -49.5631 -134.117 -49.3792 -133.846L-42.7604 -138.339C-42.9504 -138.619 -43.1408 -138.898 -43.3317 -139.177L-49.9321 -134.657ZM-41.0039 -120.638C-40.8371 -120.356 -40.6708 -120.074 -40.5048 -119.791L-33.6062 -123.842C-33.7771 -124.133 -33.9485 -124.424 -34.1203 -124.714L-41.0039 -120.638ZM-32.9688 -106.065C-32.8194 -105.774 -32.6704 -105.482 -32.5219 -105.19L-25.391 -108.817C-25.5437 -109.117 -25.6969 -109.417 -25.8505 -109.716L-32.9688 -106.065ZM-25.7959 -91.0324C-25.6634 -90.7333 -25.5313 -90.4337 -25.3996 -90.1338L-18.0747 -93.3504C-18.2099 -93.6582 -18.3455 -93.9657 -18.4816 -94.2728L-25.7959 -91.0324ZM-19.4612 -75.6138C-19.3451 -75.3081 -19.2294 -75.0021 -19.1141 -74.6958L-11.6267 -77.5133C-11.7449 -77.8274 -11.8635 -78.1412 -11.9826 -78.4546L-19.4612 -75.6138ZM-13.948 -59.8726C-13.848 -59.5615 -13.7484 -59.2501 -13.6492 -58.9384L-6.02578 -61.3639C-6.12736 -61.6832 -6.22939 -62.0022 -6.33187 -62.321L-13.948 -59.8726ZM-9.24656 -43.8631C-9.16247 -43.5475 -9.07881 -43.2317 -8.9956 -42.9157L-1.25927 -44.9526C-1.34449 -45.2763 -1.43015 -45.5997 -1.51627 -45.9229L-9.24656 -43.8631ZM-5.35391 -27.6343C-5.28569 -27.315 -5.21792 -26.9956 -5.1506 -26.6759L2.67766 -28.3247C2.60873 -28.652 2.53935 -28.979 2.4695 -29.3059L-5.35391 -27.6343ZM-2.27304 -11.2314C-2.22077 -10.9092 -2.16897 -10.5869 -2.11762 -10.2644L5.78286 -11.5223C5.73029 -11.8525 5.67725 -12.1825 5.62373 -12.5124L-2.27304 -11.2314ZM-0.0125248 5.30204C0.0235923 5.62648 0.0592359 5.95101 0.0944049 6.27564L8.04787 5.41399C8.01185 5.08154 7.97535 4.74918 7.93836 4.41693L-0.0125248 5.30204ZM1.41383 21.9196C1.43355 22.2466 1.45278 22.5737 1.47152 22.9008L9.45843 22.4433C9.43923 22.1082 9.41953 21.773 9.39933 21.438L1.41383 21.9196ZM1.98849 38.5826C1.99127 38.9098 1.99354 39.237 1.99531 39.5642L9.99519 39.5209C9.99338 39.1855 9.99105 38.85 9.9882 38.5146L1.98849 38.5826ZM1.68889 55.2491C1.67428 55.5757 1.65914 55.9022 1.64349 56.2288L9.63431 56.6119C9.65037 56.2769 9.6659 55.9418 9.68089 55.6068L1.68889 55.2491ZM0.488963 71.8684C0.456427 72.1934 0.423356 72.5184 0.389748 72.8433L8.3473 73.6664C8.38181 73.3327 8.41577 72.999 8.44919 72.6652L0.488963 71.8684ZM-1.63937 88.3852C-1.69039 88.7077 -1.74197 89.0301 -1.7941 89.3524L6.10326 90.6297C6.15686 90.2984 6.20988 89.9669 6.26233 89.6354L-1.63937 88.3852ZM-4.72488 104.739C-4.79496 105.058 -4.8656 105.377 -4.93681 105.695L2.87032 107.441C2.94362 107.113 3.01633 106.785 3.08845 106.457L-4.72488 104.739ZM-8.79548 120.865C-8.88511 121.179 -8.97532 121.492 -9.06612 121.805L-1.38267 124.033C-1.2891 123.71 -1.19613 123.388 -1.10377 123.065L-8.79548 120.865ZM-13.8763 136.691C-13.9859 136.998 -14.096 137.304 -14.2068 137.61L-6.6839 140.332C-6.56961 140.016 -6.45595 139.7 -6.3429 139.383L-13.8763 136.691ZM-19.9875 152.141C-20.1172 152.439 -20.2475 152.737 -20.3784 153.034L-13.056 156.256C-12.9208 155.949 -12.7862 155.642 -12.6522 155.334L-19.9875 152.141ZM-27.1349 167.121C-27.2856 167.41 -27.4369 167.699 -27.5888 167.988L-20.5092 171.713C-20.3521 171.415 -20.1956 171.116 -20.0397 170.817L-27.1349 167.121ZM-35.3168 181.546C-35.4878 181.824 -35.6594 182.101 -35.8316 182.378L-29.0377 186.602C-28.8594 186.316 -28.6818 186.029 -28.5048 185.741L-35.3168 181.546ZM-44.5175 195.333C-44.7081 195.597 -44.8994 195.861 -45.0913 196.125L-38.625 200.835C-38.4263 200.562 -38.2282 200.289 -38.0307 200.015L-44.5175 195.333ZM-54.7071 208.402C-54.9163 208.651 -55.1262 208.899 -55.3367 209.147L-49.2371 214.324C-49.019 214.067 -48.8016 213.809 -48.5849 213.552L-54.7071 208.402ZM-65.8429 220.684C-66.0691 220.916 -66.2961 221.147 -66.5236 221.378L-60.8246 226.993C-60.5889 226.754 -60.3539 226.514 -60.1195 226.274L-65.8429 220.684ZM-77.8725 232.125C-78.1139 232.339 -78.3559 232.552 -78.5985 232.764L-73.3271 238.782C-73.076 238.562 -72.8255 238.341 -72.5757 238.121L-77.8725 232.125ZM-90.7157 242.67C-90.9775 242.87 -91.2399 243.069 -91.5029 243.268L-86.6784 249.649C-86.4064 249.444 -86.1351 249.238 -85.8644 249.031L-90.7157 242.67ZM-104.214 252.238C-104.489 252.418 -104.764 252.599 -105.039 252.778L-100.668 259.479C-100.384 259.293 -100.1 259.107 -99.8161 258.92L-104.214 252.238ZM-118.359 260.881C-118.642 261.041 -118.927 261.202 -119.211 261.362L-115.295 268.337C-115.001 268.172 -114.708 268.007 -114.415 267.841L-118.359 260.881ZM-133.094 268.615C-133.384 268.756 -133.675 268.896 -133.966 269.037L-130.499 276.246C-130.199 276.102 -129.9 275.957 -129.601 275.812L-133.094 268.615ZM-148.36 275.459C-148.514 275.523 -148.669 275.586 -148.823 275.65L-145.782 283.049C-145.624 282.984 -145.465 282.919 -145.306 282.853L-148.36 275.459ZM-705.626 282.306C-705.497 282.211 -705.368 282.116 -705.239 282.022L-709.951 275.557C-710.092 275.66 -710.233 275.763 -710.374 275.867L-705.626 282.306ZM-691.911 273.919C-691.62 273.772 -691.328 273.624 -691.034 273.478L-694.598 266.316C-694.912 266.472 -695.225 266.629 -695.536 266.788L-691.911 273.919ZM-676.487 267.343C-676.174 267.231 -675.859 267.12 -675.544 267.01L-678.178 259.457C-678.51 259.572 -678.841 259.689 -679.171 259.806L-676.487 267.343ZM-660.295 262.494C-659.973 262.414 -659.65 262.334 -659.326 262.255L-661.221 254.483C-661.558 254.565 -661.894 254.648 -662.229 254.731L-660.295 262.494ZM-643.668 259.051C-643.342 258.996 -643.016 258.942 -642.689 258.888L-643.988 250.994C-644.325 251.05 -644.662 251.106 -644.999 251.163L-643.668 259.051ZM-626.794 256.764C-626.461 256.729 -626.129 256.694 -625.796 256.661L-626.603 248.702C-626.945 248.736 -627.286 248.771 -627.627 248.807L-626.794 256.764ZM-609.778 255.444C-609.441 255.426 -609.104 255.409 -608.767 255.393L-609.159 247.402C-609.504 247.419 -609.848 247.437 -610.193 247.455L-609.778 255.444ZM-592.686 254.954C-592.35 254.952 -592.013 254.95 -591.676 254.949L-591.708 246.949C-592.052 246.95 -592.395 246.952 -592.738 246.954L-592.686 254.954ZM-575.561 255.193C-575.226 255.204 -574.89 255.215 -574.554 255.228L-574.268 247.233C-574.609 247.22 -574.951 247.209 -575.293 247.197L-575.561 255.193ZM-558.437 256.084C-558.103 256.108 -557.768 256.131 -557.433 256.156L-556.858 248.176C-557.198 248.152 -557.538 248.128 -557.878 248.104L-558.437 256.084ZM-541.349 257.572C-541.013 257.607 -540.678 257.642 -540.342 257.678L-539.501 249.722C-539.842 249.686 -540.182 249.65 -540.523 249.615L-541.349 257.572ZM-524.313 259.616C-523.979 259.661 -523.645 259.707 -523.312 259.752L-522.22 251.827C-522.559 251.781 -522.897 251.734 -523.235 251.688L-524.313 259.616ZM-507.339 262.187C-507.007 262.243 -506.675 262.298 -506.343 262.354L-505.011 254.466C-505.348 254.409 -505.684 254.353 -506.021 254.296L-507.339 262.187ZM-490.453 265.269C-490.123 265.334 -489.792 265.4 -489.462 265.466L-487.895 257.621C-488.23 257.554 -488.565 257.487 -488.9 257.421L-490.453 265.269ZM-473.661 268.855C-473.333 268.931 -473.006 269.006 -472.678 269.082L-470.876 261.287C-471.208 261.211 -471.54 261.134 -471.872 261.058L-473.661 268.855ZM-456.99 272.949C-456.664 273.034 -456.338 273.12 -456.013 273.206L-453.971 265.471C-454.301 265.383 -454.631 265.297 -454.962 265.21L-456.99 272.949ZM-440.469 277.561C-440.145 277.657 -439.821 277.753 -439.498 277.85L-437.206 270.185C-437.535 270.087 -437.863 269.989 -438.192 269.891L-440.469 277.561ZM-424.122 282.719C-423.964 282.772 -423.806 282.825 -423.648 282.878L-421.098 275.295C-421.259 275.241 -421.42 275.187 -421.581 275.133L-424.122 282.719ZM-423.648 282.878C-423.491 282.931 -423.335 282.983 -423.178 283.036L-420.637 275.45C-420.791 275.398 -420.944 275.347 -421.098 275.295L-423.648 282.878ZM-408.217 287.759C-407.9 287.853 -407.584 287.946 -407.267 288.039L-405.01 280.364C-405.321 280.273 -405.631 280.181 -405.942 280.089L-408.217 287.759ZM-392.138 292.201C-391.819 292.283 -391.501 292.364 -391.182 292.445L-389.214 284.691C-389.527 284.612 -389.839 284.532 -390.152 284.452L-392.138 292.201ZM-375.908 296.036C-375.588 296.105 -375.267 296.174 -374.947 296.242L-373.273 288.42C-373.587 288.352 -373.901 288.285 -374.216 288.217L-375.908 296.036ZM-359.554 299.253C-359.233 299.31 -358.912 299.366 -358.591 299.422L-357.213 291.542C-357.528 291.487 -357.843 291.431 -358.158 291.375L-359.554 299.253ZM-343.106 301.847C-342.785 301.891 -342.464 301.935 -342.143 301.979L-341.064 294.052C-341.379 294.009 -341.694 293.966 -342.01 293.922L-343.106 301.847ZM-326.572 303.816C-326.243 303.849 -325.914 303.882 -325.586 303.914L-324.808 295.952C-325.13 295.92 -325.453 295.888 -325.776 295.856L-326.572 303.816ZM-309.931 305.162C-309.603 305.182 -309.277 305.202 -308.95 305.221L-308.475 297.235C-308.795 297.216 -309.116 297.197 -309.437 297.177L-309.931 305.162ZM-293.291 305.874C-292.966 305.882 -292.643 305.889 -292.319 305.896L-292.146 297.898C-292.463 297.891 -292.781 297.884 -293.099 297.877L-293.291 305.874ZM-276.627 305.957C-276.297 305.953 -275.967 305.948 -275.638 305.942L-275.768 297.943C-276.091 297.949 -276.414 297.954 -276.738 297.958L-276.627 305.957ZM-259.96 305.409C-259.635 305.392 -259.312 305.375 -258.989 305.358L-259.421 297.369C-259.738 297.387 -260.056 297.403 -260.374 297.42L-259.96 305.409ZM-243.334 304.229C-243.005 304.2 -242.678 304.17 -242.351 304.14L-243.087 296.174C-243.408 296.203 -243.729 296.233 -244.052 296.262L-243.334 304.229ZM-226.8 302.42C-226.472 302.377 -226.145 302.335 -225.818 302.292L-226.859 294.36C-227.18 294.402 -227.501 294.444 -227.823 294.486L-226.8 302.42ZM-210.282 299.961C-209.964 299.907 -209.648 299.853 -209.333 299.799L-210.685 291.914C-210.994 291.967 -211.304 292.02 -211.615 292.073L-210.282 299.961ZM-193.9 296.85C-193.587 296.784 -193.275 296.717 -192.964 296.651L-194.636 288.828C-194.94 288.893 -195.246 288.958 -195.553 289.022L-193.9 296.85ZM-177.643 293.051C-177.317 292.968 -176.993 292.884 -176.672 292.801L-178.684 285.058C-178.998 285.14 -179.315 285.221 -179.634 285.303L-177.643 293.051ZM-161.567 288.506C-161.238 288.403 -160.913 288.302 -160.594 288.201L-162.993 280.57C-163.304 280.668 -163.62 280.766 -163.941 280.866L-161.567 288.506ZM-145.663 282.967C-145.514 282.907 -145.4 282.86 -145.321 282.827C-145.281 282.811 -145.251 282.798 -145.229 282.789C-145.218 282.784 -145.209 282.781 -145.203 282.778C-145.199 282.776 -145.197 282.775 -145.194 282.774C-145.193 282.774 -145.192 282.774 -145.192 282.773C-145.191 282.773 -145.191 282.773 -145.19 282.773C-145.19 282.773 -145.19 282.773 -145.19 282.773C-145.19 282.772 -145.19 282.772 -145.19 282.772C-145.19 282.772 -145.19 282.772 -145.19 282.772C-145.19 282.772 -145.19 282.772 -146.743 279.086C-148.297 275.401 -148.297 275.401 -148.297 275.401C-148.297 275.401 -148.297 275.401 -148.297 275.401C-148.297 275.401 -148.297 275.4 -148.297 275.4C-148.297 275.4 -148.297 275.4 -148.297 275.4C-148.296 275.4 -148.296 275.4 -148.296 275.4C-148.296 275.4 -148.296 275.4 -148.296 275.4C-148.296 275.4 -148.296 275.4 -148.298 275.401C-148.3 275.402 -148.304 275.404 -148.311 275.406C-148.324 275.412 -148.347 275.421 -148.377 275.434C-148.439 275.46 -148.536 275.499 -148.667 275.552L-145.663 282.967Z" fill="#565CBD"/>
</g>
<defs>
<clipPath id="clip0_3_555">
<rect width="10" height="78" fill="white"/>
</clipPath>
</defs>
</svg>
