<svg width="190" height="180" viewBox="0 0 190 180" fill="none" xmlns="http://www.w3.org/2000/svg">
<path d="M184.215 97.4292C164.255 66.8656 166.376 35.5367 156.755 20.8064C147.133 6.07611 118.459 -19.3206 50.7084 24.9336C-17.0424 69.1878 0.189552 117.295 10.7768 133.492C60.3245 209.344 219.571 151.558 184.215 97.4292V97.4292Z" fill="#F4FAFF"/>
<path d="M154.375 80.8569C150.01 80.8569 146.458 77.305 146.458 72.9403C146.458 68.5756 150.01 65.0236 154.375 65.0236C158.739 65.0236 162.291 68.5756 162.291 72.9403C162.291 77.305 158.739 80.8569 154.375 80.8569ZM154.375 70.3014C152.918 70.3014 151.736 71.4889 151.736 72.9403C151.736 74.3917 152.918 75.5792 154.375 75.5792C155.831 75.5792 157.014 74.3917 157.014 72.9403C157.014 71.4889 155.831 70.3014 154.375 70.3014Z" fill="#A9ADEC"/>
<path d="M23.75 139.097H29.0278V149.653H23.75V139.097Z" fill="#A9ADEC"/>
<path d="M23.75 169.444H29.0278V180H23.75V169.444Z" fill="#A9ADEC"/>
<path d="M5.27734 156.25H15.8329V161.528H5.27734V156.25Z" fill="#A9ADEC"/>
<path d="M35.625 156.25H46.1806V161.528H35.625V156.25Z" fill="#A9ADEC"/>
<path d="M117.431 25.6251H46.1806C40.375 25.6251 35.625 30.3751 35.625 36.1806V109.7L70.3 144.375H122.708C128.514 144.375 133.264 139.625 133.264 133.819V84.3139V25.6251H117.431Z" fill="#F2F6FF"/>
<path d="M65.0275 109.695H35.625L70.3053 144.375V114.973C70.3053 112.054 67.9461 109.695 65.0275 109.695V109.695Z" fill="#F9DC46"/>
<path d="M152.829 34.6342L145.366 27.1714C143.302 25.1078 139.962 25.1078 137.903 27.1714L87.5216 77.5531L81.9219 98.0783L102.447 92.4786L152.829 42.0969C154.892 40.0386 154.892 36.6978 152.829 34.6342V34.6342Z" fill="#F9DC46"/>
<path d="M47.5 36.1806C47.5 30.3751 52.25 25.6251 58.0556 25.6251H46.1806C40.375 25.6251 35.625 30.3751 35.625 36.1806V109.7L70.3 144.375H82.175L47.5 109.7V36.1806Z" fill="#D1D3F1"/>
<path d="M47.5 109.695H35.625L70.3053 144.375V132.5L47.5 109.695Z" fill="#F99746"/>
<path d="M99.3966 77.5531L147.572 29.3775L145.366 27.1714C143.302 25.1078 139.962 25.1078 137.903 27.1714L87.5216 77.5531L81.9219 98.0783L94.7521 94.5792L99.3966 77.5531Z" fill="#F99746"/>
<path d="M39.5827 109.7H31.666V36.1806C31.666 28.1742 38.1735 21.6667 46.1799 21.6667H117.43V29.5834H46.1799C42.5435 29.5834 39.5827 32.5442 39.5827 36.1806V109.7Z" fill="#565CBD"/>
<path d="M122.708 148.333H70.2998V140.417H122.708C126.345 140.417 129.305 137.456 129.305 133.819V84.3139H137.222V133.819C137.222 141.826 130.709 148.333 122.708 148.333Z" fill="#565CBD"/>
<path d="M70.3049 148.333C69.2757 148.333 68.2624 147.932 67.5076 147.172L32.8273 112.492C31.6979 111.357 31.3549 109.658 31.9671 108.18C32.5793 106.702 34.0254 105.736 35.6246 105.736H65.0271C70.1201 105.736 74.2632 109.879 74.2632 114.973V144.375C74.2632 145.979 73.2974 147.42 71.8196 148.033C71.334 148.233 70.8168 148.333 70.3049 148.333ZM45.1826 113.653L66.3518 134.822V114.973C66.3518 114.244 65.7607 113.653 65.0324 113.653H45.1826Z" fill="#565CBD"/>
<path d="M81.9206 102.037C80.8862 102.037 79.8728 101.63 79.1234 100.876C78.1206 99.8728 77.7301 98.4056 78.1048 97.0334L83.7045 76.5081L91.3415 78.5928L87.5678 92.4311L101.411 88.6575L103.496 96.2945L82.9709 101.894C82.6173 101.989 82.269 102.037 81.9206 102.037V102.037Z" fill="#565CBD"/>
<path d="M102.446 96.437C101.432 96.437 100.419 96.0517 99.6486 95.2759L84.7178 80.3503C83.9736 79.6061 83.5566 78.6034 83.5566 77.5531C83.5566 76.5028 83.9736 75.4947 84.7178 74.7559L135.099 24.3742C138.588 20.8961 144.673 20.8803 148.162 24.3742L155.625 31.837C159.224 35.4417 159.224 41.2947 155.625 44.8995L105.243 95.2811C104.472 96.0517 103.459 96.437 102.446 96.437ZM93.1147 77.5531L102.446 86.8842L150.03 39.2997C150.542 38.7825 150.542 37.9486 150.03 37.4314L142.567 29.9686C141.892 29.2984 141.375 29.2984 140.704 29.9686L93.1147 77.5531Z" fill="#565CBD"/>
</svg>
