<svg width="104" height="35" viewBox="0 0 104 35" fill="none" xmlns="http://www.w3.org/2000/svg">
<g clip-path="url(#clip0_1_2)">
<path d="M279.5 49.5556L280.339 47.7399V47.7399L279.5 49.5556ZM589 49.5556L587.742 48.0006C587.88 47.8892 588.032 47.7966 588.194 47.7252L589 49.5556ZM288.651 -497.732L289.366 -495.864L288.651 -497.732ZM562.897 -496.22C561.896 -496.688 561.465 -497.879 561.933 -498.879C562.401 -499.88 563.592 -500.311 564.592 -499.843L562.897 -496.22ZM2.10537 29.9843C2.95533 29.2788 4.21623 29.396 4.92167 30.2459C5.62711 31.0959 5.50996 32.3568 4.66 33.0622L2.10537 29.9843ZM17.5235 24.1847C16.5648 24.7334 15.3428 24.4009 14.7942 23.4423C14.2456 22.4836 14.578 21.2617 15.5367 20.713L17.5235 24.1847ZM16.4229 20.2117C17.3869 19.6726 18.6055 20.0171 19.1446 20.9812C19.6837 21.9452 19.3392 23.1638 18.3752 23.7029L16.4229 20.2117ZM32.6086 17.0779C31.5772 17.4734 30.4205 16.9579 30.0251 15.9265C29.6296 14.8952 30.1451 13.7385 31.1765 13.3431L32.6086 17.0779ZM32.1307 12.9816C33.1652 12.5946 34.3177 13.1194 34.7048 14.1539C35.0918 15.1885 34.567 16.3409 33.5325 16.728L32.1307 12.9816ZM48.6023 12.0983C47.5299 12.3632 46.4459 11.7086 46.181 10.6362C45.9162 9.56389 46.5708 8.47987 47.6431 8.21502L48.6023 12.0983ZM48.6362 7.97319C49.7103 7.71535 50.79 8.37702 51.0479 9.45108C51.3057 10.5251 50.644 11.6048 49.57 11.8627L48.6362 7.97319ZM65.1016 8.91756C64.0082 9.07423 62.9948 8.31486 62.8382 7.22146C62.6815 6.12805 63.4409 5.11467 64.5343 4.95801L65.1016 8.91756ZM65.5383 4.81684C66.6325 4.66593 67.6419 5.43063 67.7928 6.52483C67.9437 7.61905 67.179 8.62842 66.0848 8.77934L65.5383 4.81684ZM81.8531 7.23203C80.7505 7.29926 79.8023 6.46 79.735 5.35748C79.6678 4.25496 80.5071 3.30668 81.6096 3.23944L81.8531 7.23203ZM82.6199 3.18003C83.7227 3.11758 84.6673 3.96095 84.7298 5.06374C84.7922 6.16655 83.9488 7.11118 82.846 7.17363L82.6199 3.18003ZM98.7071 6.79246C97.6025 6.78496 96.7132 5.88347 96.7207 4.77892C96.7282 3.67438 97.6297 2.78505 98.7342 2.79255L98.7071 6.79246ZM99.7492 2.80131C100.854 2.81285 101.74 3.71759 101.728 4.82211C101.717 5.92661 100.812 6.81263 99.7073 6.80109L99.7492 2.80131ZM115.577 7.40486C114.474 7.33387 113.638 6.38274 113.709 5.28045C113.78 4.17817 114.731 3.34214 115.834 3.41313L115.577 7.40486ZM116.842 3.47967C117.944 3.55412 118.777 4.50787 118.703 5.60993C118.628 6.71198 117.675 7.54502 116.572 7.47057L116.842 3.47967ZM132.409 8.92107C131.312 8.79514 130.524 7.80347 130.65 6.7061C130.776 5.60873 131.768 4.82122 132.865 4.94715L132.409 8.92107ZM133.865 5.06326C134.962 5.19221 135.747 6.18604 135.618 7.28306C135.489 8.38007 134.495 9.16486 133.398 9.03592L133.865 5.06326ZM149.169 11.228C148.079 11.0537 147.336 10.0282 147.51 8.93745C147.684 7.84673 148.71 7.10384 149.801 7.27818L149.169 11.228ZM150.791 7.43774C151.882 7.61475 152.622 8.6421 152.445 9.73239C152.268 10.8227 151.241 11.563 150.15 11.386L150.791 7.43774ZM165.83 14.2389C164.748 14.0211 164.046 12.9667 164.264 11.8838C164.482 10.8009 165.536 10.0996 166.619 10.3174L165.83 14.2389ZM167.601 10.5159C168.683 10.7361 169.382 11.792 169.162 12.8744C168.942 13.9568 167.886 14.6558 166.803 14.4356L167.601 10.5159ZM182.356 17.8831C181.282 17.6257 180.62 16.5463 180.877 15.4721C181.135 14.398 182.214 13.7358 183.288 13.9932L182.356 17.8831ZM184.266 14.2286C185.34 14.4882 185.999 15.5691 185.74 16.6427C185.48 17.7163 184.399 18.3762 183.326 18.1165L184.266 14.2286ZM198.754 22.1152C197.689 21.821 197.065 20.7194 197.359 19.6547C197.653 18.5901 198.755 17.9655 199.819 18.2598L198.754 22.1152ZM200.787 18.5282C201.851 18.8245 202.473 19.9274 202.177 20.9914C201.881 22.0555 200.778 22.6779 199.714 22.3815L200.787 18.5282ZM215.004 26.8971C213.949 26.568 213.361 25.4464 213.69 24.3921C214.019 23.3376 215.141 22.7497 216.195 23.0788L215.004 26.8971ZM217.154 23.3789C218.208 23.7101 218.793 24.8327 218.462 25.8865C218.131 26.9403 217.009 27.5261 215.955 27.195L217.154 23.3789ZM231.091 32.2032C230.047 31.8405 229.496 30.7007 229.858 29.6574C230.221 28.614 231.361 28.0622 232.404 28.4249L231.091 32.2032ZM233.351 28.7551C234.394 29.1197 234.943 30.2605 234.579 31.3032C234.214 32.3458 233.073 32.8955 232.031 32.5309L233.351 28.7551ZM247.004 38.0197C245.973 37.6241 245.458 36.4673 245.853 35.436C246.249 34.4047 247.406 33.8894 248.437 34.2851L247.004 38.0197ZM249.374 34.6454C250.404 35.043 250.917 36.2007 250.52 37.2312C250.122 38.2618 248.965 38.7749 247.934 38.3774L249.374 34.6454ZM262.718 44.3384C261.7 43.9098 261.223 42.7371 261.651 41.7191C262.08 40.701 263.252 40.2232 264.27 40.6517L262.718 44.3384ZM265.198 41.0431C266.215 41.4736 266.69 42.6473 266.26 43.6645C265.829 44.6817 264.656 45.1573 263.639 44.7268L265.198 41.0431ZM278.212 51.1638C277.208 50.7016 276.77 49.5136 277.232 48.5104C277.694 47.5072 278.882 47.0686 279.885 47.5308L278.212 51.1638ZM280.802 47.9535C281.805 48.4158 282.243 49.6038 281.781 50.607C281.319 51.6101 280.131 52.0487 279.128 51.5864L280.802 47.9535ZM293.888 58.1198C292.871 57.6883 292.397 56.5142 292.828 55.4974C293.26 54.4807 294.434 54.0062 295.451 54.4377L293.888 58.1198ZM296.356 54.8207C297.373 55.2502 297.85 56.4234 297.42 57.441C296.991 58.4586 295.818 58.9354 294.8 58.5058L296.356 54.8207ZM309.762 64.5418C308.731 64.1452 308.216 62.988 308.613 61.9571C309.009 60.9262 310.167 60.4119 311.198 60.8084L309.762 64.5418ZM312.119 61.1619C313.151 61.5563 313.668 62.7124 313.273 63.7442C312.879 64.7759 311.723 65.2926 310.691 64.8982L312.119 61.1619ZM325.84 70.3975C324.795 70.0385 324.24 68.9007 324.599 67.8561C324.958 66.8115 326.095 66.2557 327.14 66.6146L325.84 70.3975ZM328.077 66.9355C329.122 67.2922 329.681 68.4288 329.324 69.4742C328.967 70.5196 327.831 71.0779 326.785 70.7212L328.077 66.9355ZM342.122 75.6493C341.064 75.3306 340.465 74.2149 340.784 73.1573C341.103 72.0997 342.218 71.5007 343.276 71.8194L342.122 75.6493ZM344.226 72.1044C345.284 72.4206 345.886 73.5349 345.57 74.5933C345.253 75.6516 344.139 76.2532 343.081 75.937L344.226 72.1044ZM358.599 80.255C357.529 79.9795 356.886 78.889 357.161 77.8194C357.437 76.7497 358.527 76.1059 359.597 76.3814L358.599 80.255ZM360.557 76.6275C361.628 76.9004 362.274 77.9893 362.001 79.0596C361.728 80.13 360.639 80.7764 359.569 80.5035L360.557 76.6275ZM375.255 84.1693C374.175 83.94 373.485 82.8781 373.714 81.7976C373.944 80.7171 375.005 80.0272 376.086 80.2565L375.255 84.1693ZM377.054 80.4607C378.135 80.6873 378.828 81.7473 378.601 82.8284C378.375 83.9095 377.315 84.6022 376.233 84.3756L377.054 80.4607ZM392.065 87.3449C390.976 87.1647 390.238 86.1352 390.418 85.0455C390.599 83.9557 391.628 83.2183 392.718 83.3985L392.065 87.3449ZM393.69 83.5579C394.78 83.7351 395.521 84.7626 395.343 85.8528C395.166 86.9431 394.139 87.6833 393.048 87.5061L393.69 83.5579ZM408.995 89.7339C407.897 89.6059 407.112 88.6128 407.24 87.5157C407.368 86.4185 408.361 85.6329 409.458 85.7609L408.995 89.7339ZM410.431 85.8729C411.528 85.9978 412.316 86.9887 412.192 88.0862C412.067 89.1837 411.076 89.9721 409.978 89.8473L410.431 85.8729ZM426.044 91.2932C424.942 91.2205 424.107 90.268 424.18 89.1659C424.253 88.0637 425.205 87.2291 426.307 87.3018L426.044 91.2932ZM427.317 87.3669C428.42 87.4362 429.257 88.386 429.188 89.4884C429.119 90.5908 428.169 91.4283 427.066 91.359L427.317 87.3669ZM443.209 91.9735C442.105 91.9592 441.221 91.0522 441.235 89.9478C441.25 88.8433 442.157 87.9595 443.261 87.9738L443.209 91.9735ZM444.261 87.9852C445.366 87.9959 446.252 88.9001 446.242 90.0046C446.231 91.1091 445.327 91.9958 444.222 91.985L444.261 87.9852ZM460.343 91.7257C459.239 91.7724 458.307 90.9156 458.26 89.812C458.213 88.7084 459.07 87.7759 460.174 87.7292L460.343 91.7257ZM461.158 87.686C462.261 87.6357 463.197 88.4894 463.247 89.5928C463.297 90.6962 462.444 91.6315 461.34 91.6818L461.158 87.686ZM477.415 90.5135C476.316 90.6237 475.336 89.822 475.226 88.7229C475.116 87.6239 475.917 86.6436 477.016 86.5335L477.415 90.5135ZM478.022 86.431C479.12 86.3169 480.103 87.1152 480.217 88.2138C480.331 89.3125 479.533 90.2956 478.434 90.4096L478.022 86.431ZM494.454 88.2892C493.364 88.4653 492.337 87.7242 492.161 86.6337C491.985 85.5433 492.726 84.5165 493.816 84.3404L494.454 88.2892ZM494.789 84.1814C495.879 84.0013 496.909 84.7388 497.089 85.8286C497.269 86.9184 496.531 87.9478 495.441 88.1279L494.789 84.1814ZM511.289 85.0292C510.212 85.2733 509.141 84.5979 508.897 83.5206C508.653 82.4434 509.328 81.3722 510.405 81.1281L511.289 85.0292ZM511.383 80.9045C512.46 80.6563 513.533 81.3277 513.781 82.404C514.03 83.4803 513.358 84.554 512.282 84.8023L511.383 80.9045ZM527.859 80.7048C526.8 81.0188 525.687 80.4148 525.373 79.3558C525.059 78.2968 525.663 77.1838 526.722 76.8698L527.859 80.7048ZM527.696 76.5789C528.754 76.2607 529.869 76.8601 530.187 77.9178C530.506 78.9756 529.906 80.091 528.848 80.4093L527.696 76.5789ZM544.141 75.2647C543.106 75.6511 541.954 75.1255 541.568 74.0907C541.182 73.0559 541.707 71.9038 542.742 71.5174L544.141 75.2647ZM543.697 71.1586C544.73 70.7678 545.884 71.2885 546.275 72.3216C546.666 73.3547 546.145 74.509 545.112 74.8999L543.697 71.1586ZM560.051 68.6479C559.048 69.1105 557.86 68.6723 557.398 67.6692C556.935 66.6661 557.373 65.478 558.376 65.0155L560.051 68.6479ZM559.281 64.5958C560.282 64.1286 561.472 64.5613 561.939 65.5622C562.406 66.5631 561.974 67.7532 560.973 68.2204L559.281 64.5958ZM575.356 60.8099C574.396 61.356 573.175 61.0205 572.629 60.0604C572.082 59.1003 572.418 57.8793 573.378 57.3331L575.356 60.8099ZM574.251 56.8329C575.208 56.2812 576.431 56.6098 576.983 57.5667C577.535 58.5236 577.206 59.7466 576.249 60.2983L574.251 56.8329ZM589.847 51.4326C588.973 52.1074 587.717 51.9455 587.042 51.071C586.367 50.1965 586.529 48.9405 587.404 48.2658L589.847 51.4326ZM588.638 47.5283C589.647 47.0785 590.829 47.5317 591.279 48.5406C591.729 49.5494 591.276 50.7319 590.267 51.1817L588.638 47.5283ZM604.662 43.5167C603.723 44.0994 602.49 43.8111 601.908 42.8728C601.325 41.9345 601.613 40.7014 602.551 40.1186L604.662 43.5167ZM603.379 39.6C604.313 39.01 605.548 39.2887 606.138 40.2225C606.728 41.1563 606.45 42.3916 605.516 42.9816L603.379 39.6ZM618.74 33.4898C617.88 34.1831 616.621 34.048 615.927 33.1881C615.234 32.3281 615.369 31.069 616.229 30.3758L618.74 33.4898ZM616.993 29.7559C617.848 29.0571 619.108 29.1839 619.807 30.0393C620.506 30.8946 620.379 32.1546 619.524 32.8535L616.993 29.7559ZM631.584 21.9581C630.8 22.7363 629.533 22.7318 628.755 21.9479C627.977 21.1641 627.981 19.8978 628.765 19.1195L631.584 21.9581ZM629.465 18.4208C630.245 17.6383 631.511 17.6358 632.294 18.4153C633.076 19.1949 633.079 20.4612 632.299 21.2438L629.465 18.4208ZM643.26 9.27324C642.547 10.1171 641.285 10.2235 640.441 9.51077C639.597 8.79807 639.491 7.53621 640.204 6.69233L643.26 9.27324ZM640.842 5.93282C641.551 5.08556 642.812 4.97325 643.659 5.68195C644.507 6.39064 644.619 7.65198 643.91 8.49922L640.842 5.93282ZM653.856 -4.30388C653.209 -3.40865 651.958 -3.20743 651.063 -3.85445C650.168 -4.50146 649.967 -5.7517 650.614 -6.64693L653.856 -4.30388ZM651.194 -7.45327C651.837 -8.35116 653.087 -8.55752 653.985 -7.91418C654.882 -7.27086 655.089 -6.02145 654.445 -5.12357L651.194 -7.45327ZM663.459 -18.5833C662.873 -17.6472 661.639 -17.3638 660.703 -17.9502C659.767 -18.5367 659.483 -19.7709 660.07 -20.7069L663.459 -18.5833ZM660.596 -21.5495C661.179 -22.4877 662.412 -22.7756 663.35 -22.1926C664.288 -21.6095 664.576 -20.3764 663.993 -19.4382L660.596 -21.5495ZM672.15 -33.4261C671.62 -32.4571 670.404 -32.1015 669.435 -32.6317C668.466 -33.162 668.111 -34.3773 668.641 -35.3463L672.15 -33.4261ZM669.116 -36.2173C669.643 -37.188 670.857 -37.5476 671.828 -37.0205C672.798 -36.4934 673.158 -35.2792 672.631 -34.3085L669.116 -36.2173ZM679.993 -48.7288C679.515 -47.7329 678.32 -47.3128 677.324 -47.7906C676.328 -48.2683 675.908 -49.4629 676.386 -50.4588L679.993 -48.7288ZM676.813 -51.3525C677.288 -52.3498 678.481 -52.7735 679.479 -52.2987C680.476 -51.8239 680.9 -50.6305 680.425 -49.6332L676.813 -51.3525ZM687.041 -64.4119C686.613 -63.3937 685.44 -62.9154 684.422 -63.3435C683.404 -63.7717 682.925 -64.9442 683.353 -65.9624L687.041 -64.4119ZM683.736 -66.8745C684.161 -67.8938 685.332 -68.3754 686.351 -67.95C687.371 -67.5247 687.852 -66.3535 687.427 -65.3341L683.736 -66.8745ZM693.325 -80.3844C692.945 -79.3476 691.795 -78.8159 690.758 -79.1969C689.722 -79.5779 689.19 -80.7272 689.571 -81.764L693.325 -80.3844ZM689.918 -82.7124C690.296 -83.7502 691.444 -84.2849 692.482 -83.9066C693.52 -83.5284 694.054 -82.3805 693.676 -81.3427L689.918 -82.7124ZM698.882 -96.5937C698.547 -95.5414 697.421 -94.9603 696.369 -95.2959C695.317 -95.6316 694.736 -96.7567 695.071 -97.8091L698.882 -96.5937ZM695.376 -98.7674C695.709 -99.8206 696.832 -100.404 697.885 -100.071C698.939 -99.7385 699.523 -98.6148 699.19 -97.5616L695.376 -98.7674ZM703.749 -113.036C703.457 -111.97 702.357 -111.343 701.292 -111.634C700.226 -111.926 699.599 -113.026 699.89 -114.091L703.749 -113.036ZM700.154 -115.058C700.443 -116.124 701.541 -116.754 702.607 -116.465C703.673 -116.176 704.303 -115.078 704.014 -114.011L700.154 -115.058ZM707.939 -129.673C707.691 -128.597 706.617 -127.925 705.541 -128.174C704.465 -128.422 703.793 -129.496 704.042 -130.572L707.939 -129.673ZM704.265 -131.545C704.511 -132.622 705.583 -133.296 706.66 -133.051C707.737 -132.805 708.41 -131.733 708.165 -130.656L704.265 -131.545ZM711.463 -146.472C711.257 -145.387 710.211 -144.673 709.126 -144.879C708.041 -145.084 707.327 -146.13 707.532 -147.216L711.463 -146.472ZM707.717 -148.195C707.919 -149.281 708.964 -149.997 710.05 -149.794C711.136 -149.591 711.852 -148.547 711.649 -147.461L707.717 -148.195ZM714.322 -163.399C714.159 -162.307 713.142 -161.553 712.049 -161.715C710.957 -161.878 710.203 -162.895 710.365 -163.988L714.322 -163.399ZM710.511 -164.973C710.671 -166.066 711.687 -166.822 712.78 -166.662C713.873 -166.502 714.629 -165.486 714.469 -164.393L710.511 -164.973ZM716.513 -180.398C716.393 -179.3 715.406 -178.507 714.308 -178.627C713.21 -178.747 712.417 -179.734 712.536 -180.832L716.513 -180.398ZM712.644 -181.829C712.761 -182.927 713.746 -183.722 714.845 -183.605C715.943 -183.488 716.738 -182.503 716.621 -181.404L712.644 -181.829ZM718.036 -197.478C717.959 -196.376 717.004 -195.545 715.902 -195.621C714.8 -195.697 713.969 -196.653 714.045 -197.755L718.036 -197.478ZM714.113 -198.753C714.187 -199.855 715.14 -200.688 716.242 -200.615C717.344 -200.541 718.178 -199.588 718.104 -198.485L714.113 -198.753ZM718.88 -214.613C718.848 -213.509 717.927 -212.64 716.823 -212.672C715.719 -212.705 714.85 -213.626 714.882 -214.73L718.88 -214.613ZM714.91 -215.729C714.939 -216.833 715.859 -217.704 716.963 -217.674C718.067 -217.645 718.938 -216.726 718.908 -215.622L714.91 -215.729ZM719.032 -231.771C719.045 -230.666 718.16 -229.76 717.055 -229.747C715.951 -229.735 715.045 -230.619 715.032 -231.724L719.032 -231.771ZM715.019 -232.723C715.004 -233.827 715.886 -234.735 716.991 -234.751C718.095 -234.767 719.003 -233.884 719.019 -232.779L715.019 -232.723ZM718.473 -248.917C718.532 -247.814 717.686 -246.872 716.583 -246.813C715.48 -246.754 714.538 -247.6 714.479 -248.703L718.473 -248.917ZM714.424 -249.701C714.362 -250.804 715.206 -251.748 716.309 -251.81C717.411 -251.872 718.356 -251.028 718.418 -249.926L714.424 -249.701ZM717.183 -266.029C717.29 -264.929 716.486 -263.951 715.386 -263.844C714.287 -263.737 713.309 -264.541 713.202 -265.641L717.183 -266.029ZM713.104 -266.635C712.994 -267.734 713.796 -268.714 714.895 -268.824C715.994 -268.934 716.974 -268.132 717.084 -267.033L713.104 -266.635ZM715.137 -283.071C715.293 -281.978 714.534 -280.965 713.44 -280.808C712.347 -280.651 711.334 -281.411 711.177 -282.504L715.137 -283.071ZM711.034 -283.493C710.875 -284.586 711.632 -285.601 712.725 -285.761C713.818 -285.92 714.833 -285.163 714.992 -284.07L711.034 -283.493ZM712.308 -300.003C712.516 -298.918 711.805 -297.87 710.72 -297.662C709.635 -297.454 708.587 -298.165 708.38 -299.25L712.308 -300.003ZM708.19 -300.231C707.979 -301.315 708.687 -302.365 709.772 -302.576C710.856 -302.787 711.906 -302.079 712.117 -300.995L708.19 -300.231ZM708.669 -316.778C708.93 -315.704 708.271 -314.623 707.198 -314.362C706.125 -314.101 705.043 -314.76 704.782 -315.833L708.669 -316.778ZM704.545 -316.804C704.28 -317.876 704.936 -318.96 706.008 -319.224C707.081 -319.488 708.164 -318.833 708.429 -317.76L704.545 -316.804ZM704.188 -333.355C704.503 -332.297 703.901 -331.183 702.843 -330.867C701.785 -330.551 700.67 -331.153 700.355 -332.211L704.188 -333.355ZM700.068 -333.166C699.749 -334.223 700.347 -335.339 701.405 -335.658C702.462 -335.977 703.578 -335.379 703.898 -334.321L700.068 -333.166ZM698.833 -349.683C699.206 -348.643 698.665 -347.498 697.625 -347.125C696.585 -346.753 695.44 -347.293 695.067 -348.333L698.833 -349.683ZM694.729 -349.271C694.353 -350.31 694.89 -351.457 695.929 -351.833C696.967 -352.209 698.114 -351.672 698.49 -350.633L694.729 -349.271ZM692.581 -365.688C693.012 -364.671 692.537 -363.497 691.52 -363.066C690.503 -362.635 689.329 -363.11 688.898 -364.127L692.581 -365.688ZM688.507 -365.044C688.072 -366.06 688.543 -367.235 689.558 -367.67C690.574 -368.105 691.749 -367.634 692.184 -366.618L688.507 -365.044ZM685.407 -381.304C685.898 -380.315 685.494 -379.115 684.504 -378.624C683.515 -378.133 682.315 -378.537 681.824 -379.526L685.407 -381.304ZM681.379 -380.419C680.884 -381.406 681.284 -382.608 682.272 -383.103C683.259 -383.597 684.461 -383.197 684.956 -382.21L681.379 -380.419ZM677.292 -396.462C677.844 -395.505 677.515 -394.282 676.558 -393.73C675.601 -393.178 674.378 -393.507 673.827 -394.464L677.292 -396.462ZM673.328 -395.326C672.772 -396.281 673.096 -397.505 674.051 -398.06C675.006 -398.615 676.23 -398.291 676.786 -397.336L673.328 -395.326ZM668.228 -411.079C668.84 -410.16 668.592 -408.918 667.672 -408.306C666.753 -407.694 665.511 -407.942 664.899 -408.862L668.228 -411.079ZM664.344 -409.691C663.728 -410.608 663.972 -411.851 664.889 -412.467C665.806 -413.082 667.049 -412.838 667.665 -411.922L664.344 -409.691ZM658.227 -425.063C658.899 -424.187 658.734 -422.931 657.857 -422.259C656.981 -421.586 655.726 -421.752 655.053 -422.628L658.227 -425.063ZM654.444 -423.418C653.768 -424.292 653.929 -425.548 654.802 -426.224C655.676 -426.9 656.932 -426.74 657.608 -425.866L654.444 -423.418ZM647.302 -438.339C648.032 -437.511 647.953 -436.247 647.125 -435.516C646.297 -434.785 645.033 -434.864 644.302 -435.693L647.302 -438.339ZM643.642 -436.438C642.908 -437.264 642.981 -438.528 643.807 -439.262C644.632 -439.996 645.896 -439.922 646.63 -439.097L643.642 -436.438ZM635.477 -450.839C636.263 -450.063 636.272 -448.797 635.497 -448.011C634.721 -447.224 633.455 -447.215 632.669 -447.99L635.477 -450.839ZM631.96 -448.686C631.171 -449.458 631.156 -450.724 631.929 -451.514C632.701 -452.304 633.967 -452.318 634.757 -451.546L631.96 -448.686ZM622.783 -462.505C623.622 -461.786 623.72 -460.523 623.002 -459.685C622.283 -458.846 621.021 -458.748 620.182 -459.466L622.783 -462.505ZM619.431 -460.106C618.589 -460.821 618.487 -462.084 619.202 -462.925C619.917 -463.767 621.179 -463.87 622.021 -463.155L619.431 -460.106ZM609.359 -473.215C610.246 -472.557 610.431 -471.304 609.772 -470.417C609.114 -469.53 607.861 -469.345 606.974 -470.004L609.359 -473.215ZM606.167 -470.601C605.278 -471.255 605.088 -472.508 605.742 -473.397C606.397 -474.286 607.649 -474.477 608.539 -473.822L606.167 -470.601ZM595.234 -482.973C596.164 -482.376 596.434 -481.139 595.837 -480.209C595.241 -479.28 594.004 -479.01 593.074 -479.606L595.234 -482.973ZM592.233 -480.143C591.301 -480.736 591.026 -481.972 591.619 -482.904C592.212 -483.836 593.448 -484.111 594.38 -483.518L592.233 -480.143ZM580.449 -491.777C581.416 -491.243 581.768 -490.027 581.234 -489.06C580.701 -488.092 579.484 -487.741 578.517 -488.274L580.449 -491.777ZM577.65 -488.75C576.681 -489.28 576.325 -490.495 576.854 -491.464C577.384 -492.433 578.599 -492.79 579.568 -492.26L577.65 -488.75ZM565.058 -499.624C566.058 -499.154 566.487 -497.963 566.017 -496.963C565.547 -495.964 564.356 -495.534 563.356 -496.004L565.058 -499.624ZM4.66794 -498.945C5.51778 -498.239 5.63473 -496.978 4.92915 -496.128C4.22357 -495.279 2.96265 -495.162 2.11281 -495.867L4.66794 -498.945ZM15.8127 -486.325C14.8593 -486.883 14.5387 -488.108 15.0965 -489.061C15.6543 -490.015 16.8794 -490.335 17.8327 -489.778L15.8127 -486.325ZM18.7023 -489.274C19.6607 -488.725 19.9925 -487.503 19.4434 -486.544C18.8943 -485.586 17.6722 -485.254 16.7138 -485.803L18.7023 -489.274ZM31.6814 -478.516C30.6601 -478.936 30.1731 -480.105 30.5938 -481.127C31.0145 -482.148 32.1834 -482.635 33.2048 -482.214L31.6814 -478.516ZM34.1456 -481.831C35.17 -481.417 35.6653 -480.252 35.252 -479.228C34.8387 -478.203 33.6733 -477.708 32.6489 -478.121L34.1456 -481.831ZM48.3499 -472.734C47.2887 -473.04 46.677 -474.149 46.9836 -475.21C47.2901 -476.271 48.3989 -476.883 49.4601 -476.577L48.3499 -472.734ZM50.444 -476.295C51.5069 -475.995 52.125 -474.89 51.8245 -473.827C51.524 -472.764 50.4188 -472.146 49.3558 -472.446L50.444 -476.295ZM65.4621 -468.621C64.3781 -468.833 63.6716 -469.884 63.8841 -470.968C64.0965 -472.052 65.1474 -472.759 66.2314 -472.546L65.4621 -468.621ZM67.2372 -472.351C68.3221 -472.144 69.0335 -471.096 68.8261 -470.011C68.6187 -468.927 67.5711 -468.215 66.4861 -468.423L67.2372 -472.351ZM82.8109 -465.884C81.7145 -466.018 80.9343 -467.015 81.0682 -468.112C81.2022 -469.208 82.1996 -469.988 83.296 -469.854L82.8109 -465.884ZM84.3147 -469.732C85.4116 -469.602 86.1957 -468.608 86.066 -467.511C85.9363 -466.414 84.9419 -465.63 83.845 -465.76L84.3147 -469.732ZM100.278 -464.299C99.1752 -464.366 98.336 -465.315 98.4034 -466.417C98.4707 -467.52 99.4191 -468.359 100.522 -468.292L100.278 -464.299ZM101.544 -468.231C102.647 -468.167 103.489 -467.221 103.425 -466.119C103.361 -465.016 102.416 -464.174 101.313 -464.237L101.544 -468.231ZM117.792 -463.698C116.687 -463.708 115.8 -464.611 115.81 -465.715C115.819 -466.82 116.723 -467.708 117.827 -467.698L117.792 -463.698ZM118.849 -467.69C119.953 -467.684 120.843 -466.783 120.837 -465.679C120.83 -464.574 119.93 -463.684 118.825 -463.69L118.849 -467.69ZM135.308 -463.956C134.204 -463.915 133.276 -464.776 133.235 -465.88C133.193 -466.984 134.055 -467.912 135.159 -467.953L135.308 -463.956ZM136.177 -467.993C137.281 -468.037 138.211 -467.178 138.255 -466.074C138.299 -464.971 137.44 -464.04 136.337 -463.996L136.177 -467.993ZM152.792 -464.981C151.691 -464.894 150.728 -465.716 150.641 -466.817C150.553 -467.918 151.375 -468.881 152.476 -468.968L152.792 -464.981ZM153.491 -469.05C154.592 -469.14 155.557 -468.32 155.647 -467.219C155.737 -466.118 154.917 -465.153 153.816 -465.063L153.491 -469.05ZM170.209 -466.701C169.112 -466.572 168.117 -467.356 167.988 -468.453C167.859 -469.55 168.643 -470.544 169.74 -470.674L170.209 -466.701ZM170.756 -470.795C171.853 -470.927 172.849 -470.145 172.98 -469.048C173.112 -467.951 172.33 -466.955 171.233 -466.823L170.756 -470.795ZM187.542 -469.067C186.451 -468.898 185.429 -469.646 185.26 -470.738C185.091 -471.829 185.839 -472.851 186.931 -473.02L187.542 -469.067ZM187.94 -473.177C189.031 -473.348 190.054 -472.602 190.226 -471.511C190.397 -470.42 189.651 -469.397 188.56 -469.225L187.94 -473.177ZM204.783 -472.043C203.698 -471.836 202.651 -472.548 202.445 -473.633C202.238 -474.718 202.95 -475.765 204.035 -475.972L204.783 -472.043ZM205.038 -476.164C206.123 -476.373 207.171 -475.663 207.38 -474.578C207.589 -473.493 206.879 -472.445 205.794 -472.236L205.038 -476.164ZM221.908 -475.605C220.83 -475.361 219.76 -476.038 219.517 -477.115C219.273 -478.193 219.95 -479.263 221.027 -479.507L221.908 -475.605ZM222.024 -479.733C223.101 -479.978 224.173 -479.304 224.418 -478.227C224.663 -477.15 223.989 -476.078 222.912 -475.832L222.024 -479.733ZM238.907 -479.744C237.838 -479.465 236.745 -480.104 236.466 -481.173C236.187 -482.242 236.826 -483.334 237.895 -483.614L238.907 -479.744ZM238.881 -483.873C239.949 -484.155 241.043 -483.517 241.325 -482.449C241.607 -481.381 240.969 -480.287 239.901 -480.005L238.881 -483.873ZM255.756 -484.46C254.698 -484.144 253.583 -484.746 253.267 -485.804C252.951 -486.863 253.553 -487.977 254.611 -488.293L255.756 -484.46ZM255.589 -488.586C256.647 -488.905 257.762 -488.305 258.081 -487.247C258.399 -486.19 257.8 -485.074 256.742 -484.756L255.589 -488.586ZM272.425 -489.764C271.379 -489.41 270.243 -489.971 269.889 -491.018C269.536 -492.064 270.097 -493.199 271.143 -493.553L272.425 -489.764ZM272.113 -493.882C273.159 -494.238 274.295 -493.679 274.651 -492.634C275.007 -491.588 274.448 -490.452 273.403 -490.096L272.113 -493.882ZM288.888 -495.682C287.856 -495.288 286.701 -495.805 286.307 -496.837C285.913 -497.869 286.431 -499.025 287.462 -499.419L288.888 -495.682ZM288.4 -499.777C289.432 -500.171 290.588 -499.653 290.982 -498.621C291.375 -497.589 290.858 -496.434 289.826 -496.04L288.4 -499.777ZM304.463 -501.305C303.417 -500.951 302.282 -501.512 301.928 -502.559C301.574 -503.605 302.136 -504.74 303.182 -505.094L304.463 -501.305ZM304.122 -505.41C305.17 -505.762 306.303 -505.197 306.655 -504.15C307.006 -503.103 306.441 -501.969 305.394 -501.618L304.122 -505.41ZM320.237 -506.275C319.176 -505.965 318.066 -506.573 317.756 -507.633C317.446 -508.693 318.054 -509.804 319.114 -510.114L320.237 -506.275ZM320.064 -510.39C321.125 -510.698 322.234 -510.087 322.541 -509.026C322.848 -507.965 322.237 -506.856 321.176 -506.548L320.064 -510.39ZM336.198 -510.579C335.126 -510.314 334.042 -510.968 333.777 -512.041C333.512 -513.113 334.166 -514.197 335.239 -514.462L336.198 -510.579ZM336.195 -514.697C337.268 -514.959 338.35 -514.302 338.613 -513.229C338.875 -512.156 338.218 -511.074 337.145 -510.812L336.195 -514.697ZM352.317 -514.201C351.234 -513.982 350.179 -514.682 349.96 -515.764C349.741 -516.847 350.441 -517.902 351.524 -518.121L352.317 -514.201ZM352.484 -518.314C353.567 -518.531 354.621 -517.828 354.837 -516.745C355.053 -515.662 354.351 -514.608 353.268 -514.392L352.484 -518.314ZM368.558 -517.128C367.467 -516.956 366.443 -517.7 366.27 -518.791C366.098 -519.882 366.842 -520.906 367.933 -521.079L368.558 -517.128ZM368.895 -521.23C369.986 -521.4 371.009 -520.653 371.179 -519.561C371.348 -518.47 370.601 -517.447 369.51 -517.277L368.895 -521.23ZM384.905 -519.354C383.807 -519.229 382.816 -520.017 382.691 -521.114C382.565 -522.212 383.353 -523.203 384.451 -523.329L384.905 -519.354ZM385.437 -523.44C386.535 -523.563 387.524 -522.772 387.647 -521.674C387.769 -520.577 386.979 -519.587 385.881 -519.465L385.437 -523.44ZM401.383 -520.878C400.281 -520.8 399.324 -521.63 399.247 -522.732C399.169 -523.834 399.999 -524.79 401.101 -524.868L401.383 -520.878ZM402.082 -524.936C403.184 -525.011 404.138 -524.178 404.213 -523.076C404.288 -521.974 403.456 -521.02 402.354 -520.945L402.082 -524.936ZM417.869 -521.685C416.765 -521.654 415.845 -522.525 415.815 -523.629C415.785 -524.733 416.656 -525.653 417.76 -525.683L417.869 -521.685ZM418.733 -525.708C419.837 -525.736 420.754 -524.863 420.781 -523.758C420.809 -522.654 419.936 -521.737 418.831 -521.71L418.733 -525.708ZM434.384 -521.777C433.279 -521.795 432.398 -522.705 432.416 -523.809C432.434 -524.914 433.343 -525.795 434.448 -525.777L434.384 -521.777ZM435.438 -525.76C436.542 -525.739 437.421 -524.827 437.4 -523.723C437.379 -522.619 436.468 -521.74 435.363 -521.76L435.438 -525.76ZM450.897 -521.155C449.794 -521.22 448.953 -522.167 449.019 -523.27C449.084 -524.372 450.031 -525.213 451.134 -525.148L450.897 -521.155ZM452.105 -525.089C453.208 -525.02 454.046 -524.071 453.978 -522.969C453.909 -521.866 452.96 -521.028 451.858 -521.096L452.105 -525.089ZM467.362 -519.816C466.263 -519.93 465.465 -520.912 465.578 -522.011C465.692 -523.11 466.674 -523.909 467.773 -523.795L467.362 -519.816ZM468.755 -523.692C469.853 -523.576 470.65 -522.591 470.533 -521.493C470.417 -520.395 469.433 -519.598 468.334 -519.715L468.755 -523.692ZM483.708 -517.768C482.615 -517.929 481.86 -518.946 482.021 -520.039C482.183 -521.131 483.199 -521.886 484.292 -521.725L483.708 -517.768ZM485.283 -521.578C486.375 -521.413 487.128 -520.395 486.964 -519.303C486.799 -518.21 485.781 -517.458 484.689 -517.622L485.283 -521.578ZM500.016 -514.99C498.931 -515.2 498.222 -516.249 498.432 -517.334C498.642 -518.418 499.691 -519.127 500.775 -518.918L500.016 -514.99ZM501.72 -518.734C502.804 -518.521 503.51 -517.47 503.297 -516.386C503.085 -515.302 502.034 -514.596 500.95 -514.808L501.72 -518.734ZM516.147 -511.488C515.074 -511.747 514.413 -512.828 514.672 -513.901C514.932 -514.975 516.012 -515.635 517.086 -515.376L516.147 -511.488ZM518.016 -515.15C519.089 -514.888 519.746 -513.806 519.484 -512.733C519.222 -511.66 518.14 -511.002 517.067 -511.265L518.016 -515.15ZM532.115 -507.225C531.055 -507.536 530.448 -508.648 530.759 -509.707C531.07 -510.767 532.182 -511.374 533.242 -511.063L532.115 -507.225ZM534.2 -510.78C535.259 -510.466 535.862 -509.352 535.548 -508.293C535.234 -507.235 534.12 -506.631 533.062 -506.945L534.2 -510.78ZM547.804 -502.16C546.763 -502.529 546.219 -503.672 546.588 -504.713C546.957 -505.754 548.1 -506.299 549.141 -505.93L547.804 -502.16ZM550.096 -505.589C551.136 -505.216 551.676 -504.071 551.303 -503.031C550.93 -501.991 549.785 -501.451 548.745 -501.824L550.096 -505.589ZM563.049 -496.111C562.046 -496.574 561.609 -497.762 562.072 -498.765C562.534 -499.768 563.723 -500.205 564.726 -499.743L563.049 -496.111ZM1.71381 30.3112C1.844 30.2018 1.97452 30.0929 2.10537 29.9843L4.66 33.0622C4.53507 33.1659 4.41046 33.2699 4.28619 33.3743L1.71381 30.3112ZM15.5367 20.713C15.831 20.5446 16.1264 20.3775 16.4229 20.2117L18.3752 23.7029C18.0901 23.8623 17.8062 24.0229 17.5235 24.1847L15.5367 20.713ZM31.1765 13.3431C31.4937 13.2215 31.8117 13.101 32.1307 12.9816L33.5325 16.728C33.2236 16.8436 32.9156 16.9602 32.6086 17.0779L31.1765 13.3431ZM47.6431 8.21502C47.9735 8.13344 48.3045 8.05283 48.6362 7.97319L49.57 11.8627C49.2466 11.9403 48.9241 12.0189 48.6023 12.0983L47.6431 8.21502ZM64.5343 4.95801C64.8684 4.91013 65.2031 4.86308 65.5383 4.81684L66.0848 8.77934C65.7565 8.82462 65.4288 8.87069 65.1016 8.91756L64.5343 4.95801ZM81.6096 3.23944C81.9459 3.21893 82.2827 3.19913 82.6199 3.18003L82.846 7.17363C82.5146 7.19241 82.1836 7.21187 81.8531 7.23203L81.6096 3.23944ZM98.7342 2.79255C99.0722 2.79485 99.4105 2.79777 99.7492 2.80131L99.7073 6.80109C99.3736 6.7976 99.0401 6.79472 98.7071 6.79246L98.7342 2.79255ZM115.834 3.41313C116.17 3.43476 116.506 3.45694 116.842 3.47967L116.572 7.47057C116.24 7.44813 115.908 7.42622 115.577 7.40486L115.834 3.41313ZM132.865 4.94715C133.198 4.98537 133.531 5.02408 133.865 5.06326L133.398 9.03592C133.068 8.99715 132.739 8.95888 132.409 8.92107L132.865 4.94715ZM149.801 7.27818C150.131 7.33093 150.461 7.38412 150.791 7.43774L150.15 11.386C149.823 11.3329 149.496 11.2803 149.169 11.228L149.801 7.27818ZM166.619 10.3174C166.946 10.3831 167.273 10.4493 167.601 10.5159L166.803 14.4356C166.479 14.3696 166.155 14.3041 165.83 14.2389L166.619 10.3174ZM183.288 13.9932C183.614 14.0713 183.94 14.1498 184.266 14.2286L183.326 18.1165C183.003 18.0384 182.679 17.9606 182.356 17.8831L183.288 13.9932ZM199.819 18.2598C200.142 18.3489 200.465 18.4384 200.787 18.5282L199.714 22.3815C199.394 22.2924 199.074 22.2037 198.754 22.1152L199.819 18.2598ZM216.195 23.0788C216.515 23.1785 216.834 23.2786 217.154 23.3789L215.955 27.195C215.638 27.0954 215.321 26.9961 215.004 26.8971L216.195 23.0788ZM232.404 28.4249C232.72 28.5347 233.036 28.6448 233.351 28.7551L232.031 32.5309C231.717 32.4214 231.404 32.3121 231.091 32.2032L232.404 28.4249ZM248.437 34.2851C248.749 34.4049 249.062 34.525 249.374 34.6454L247.934 38.3774C247.624 38.2579 247.314 38.1387 247.004 38.0197L248.437 34.2851ZM264.27 40.6517C264.58 40.782 264.889 40.9124 265.198 41.0431L263.639 44.7268C263.332 44.5971 263.025 44.4676 262.718 44.3384L264.27 40.6517ZM279.885 47.5308C280.037 47.6005 280.188 47.6702 280.339 47.7399L278.661 51.3712C278.512 51.302 278.362 51.2329 278.212 51.1638L279.885 47.5308ZM280.339 47.7399C280.493 47.8112 280.647 47.8824 280.802 47.9535L279.128 51.5864C278.972 51.5148 278.817 51.4431 278.661 51.3712L280.339 47.7399ZM295.451 54.4377C295.753 54.5658 296.054 54.6934 296.356 54.8207L294.8 58.5058C294.496 58.3776 294.192 58.2489 293.888 58.1198L295.451 54.4377ZM311.198 60.8084C311.505 60.9267 311.812 61.0445 312.119 61.1619L310.691 64.8982C310.381 64.7798 310.072 64.661 309.762 64.5418L311.198 60.8084ZM327.14 66.6146C327.453 66.7221 327.765 66.829 328.077 66.9355L326.785 70.7212C326.47 70.6138 326.155 70.5059 325.84 70.3975L327.14 66.6146ZM343.276 71.8194C343.593 71.9149 343.91 72.0099 344.226 72.1044L343.081 75.937C342.761 75.8416 342.442 75.7457 342.122 75.6493L343.276 71.8194ZM359.597 76.3814C359.917 76.4639 360.237 76.546 360.557 76.6275L359.569 80.5035C359.246 80.4212 358.923 80.3383 358.599 80.255L359.597 76.3814ZM376.086 80.2565C376.409 80.3251 376.732 80.3931 377.054 80.4607L376.233 84.3756C375.908 84.3074 375.582 84.2386 375.255 84.1693L376.086 80.2565ZM392.718 83.3985C393.042 83.4521 393.366 83.5053 393.69 83.5579L393.048 87.5061C392.721 87.4529 392.393 87.3991 392.065 87.3449L392.718 83.3985ZM409.458 85.7609C409.783 85.7987 410.107 85.8361 410.431 85.8729L409.978 89.8473C409.651 89.81 409.323 89.7722 408.995 89.7339L409.458 85.7609ZM426.307 87.3018C426.645 87.3241 426.981 87.3458 427.317 87.3669L427.066 91.359C426.726 91.3376 426.385 91.3157 426.044 91.2932L426.307 87.3018ZM443.261 87.9738C443.595 87.9781 443.928 87.9819 444.261 87.9852L444.222 91.985C443.885 91.9817 443.548 91.9779 443.209 91.9735L443.261 87.9738ZM460.174 87.7292C460.502 87.7153 460.83 87.7009 461.158 87.686L461.34 91.6818C461.008 91.697 460.676 91.7116 460.343 91.7257L460.174 87.7292ZM477.016 86.5335C477.352 86.4998 477.687 86.4657 478.022 86.431L478.434 90.4096C478.095 90.4448 477.756 90.4794 477.415 90.5135L477.016 86.5335ZM493.816 84.3404C494.141 84.2879 494.466 84.2349 494.789 84.1814L495.441 88.1279C495.113 88.1821 494.784 88.2359 494.454 88.2892L493.816 84.3404ZM510.405 81.1281C510.732 81.054 511.058 80.9795 511.383 80.9045L512.282 84.8023C511.952 84.8783 511.621 84.954 511.289 85.0292L510.405 81.1281ZM526.722 76.8698C527.048 76.7732 527.372 76.6762 527.696 76.5789L528.848 80.4093C528.52 80.5081 528.19 80.6066 527.859 80.7048L526.722 76.8698ZM542.742 71.5174C543.062 71.398 543.38 71.2784 543.697 71.1586L545.112 74.8999C544.79 75.0217 544.466 75.1433 544.141 75.2647L542.742 71.5174ZM558.376 65.0155C558.68 64.8754 558.982 64.7355 559.281 64.5958L560.973 68.2204C560.668 68.3627 560.361 68.5052 560.051 68.6479L558.376 65.0155ZM573.378 57.3331C573.674 57.1649 573.965 56.9982 574.251 56.8329L576.249 60.2983C575.956 60.4673 575.658 60.6379 575.356 60.8099L573.378 57.3331ZM587.404 48.2658C587.522 48.1743 587.61 48.1057 587.666 48.0611C587.694 48.0388 587.715 48.0225 587.728 48.0123C587.734 48.0073 587.738 48.0038 587.741 48.0018C587.742 48.0008 587.743 48.0002 587.743 48C587.743 47.9999 587.743 47.9999 587.743 48C587.743 48.0001 587.743 48.0001 587.743 48.0002C587.743 48.0003 587.743 48.0003 587.742 48.0004C587.742 48.0004 587.742 48.0005 587.742 48.0005C587.742 48.0005 587.742 48.0005 587.742 48.0005C587.742 48.0006 587.742 48.0006 589 49.5556C590.258 51.1105 590.258 51.1106 590.258 51.1106C590.258 51.1106 590.258 51.1106 590.258 51.1107C590.258 51.1107 590.258 51.1107 590.258 51.1108C590.257 51.1109 590.257 51.111 590.257 51.1111C590.257 51.1112 590.257 51.1115 590.256 51.1117C590.256 51.1122 590.255 51.1128 590.254 51.1135C590.252 51.1149 590.25 51.1166 590.248 51.1188C590.242 51.1231 590.235 51.129 590.226 51.1364C590.207 51.1513 590.181 51.1723 590.146 51.1994C590.078 51.2535 589.978 51.3316 589.847 51.4326L587.404 48.2658ZM588.194 47.7252C588.342 47.66 588.49 47.5943 588.638 47.5283L590.267 51.1817C590.113 51.2501 589.96 51.3182 589.806 51.3859L588.194 47.7252ZM602.551 40.1186C602.828 39.9471 603.104 39.7742 603.379 39.6L605.516 42.9816C605.232 43.1613 604.947 43.3396 604.662 43.5167L602.551 40.1186ZM616.229 30.3758C616.484 30.1703 616.738 29.9637 616.993 29.7559L619.524 32.8535C619.263 33.0667 619.001 33.2788 618.74 33.4898L616.229 30.3758ZM628.765 19.1195C628.999 18.8876 629.232 18.6547 629.465 18.4208L632.299 21.2438C632.061 21.4828 631.822 21.7209 631.584 21.9581L628.765 19.1195ZM640.204 6.69233C640.417 6.43997 640.63 6.1868 640.842 5.93282L643.91 8.49922C643.694 8.75804 643.477 9.01604 643.26 9.27324L640.204 6.69233ZM650.614 -6.64693C650.807 -6.91502 651.001 -7.18379 651.194 -7.45327L654.445 -5.12357C654.249 -4.84965 654.053 -4.57642 653.856 -4.30388L650.614 -6.64693ZM660.07 -20.7069C660.245 -20.9872 660.421 -21.2681 660.596 -21.5495L663.993 -19.4382C663.815 -19.1526 663.638 -18.8676 663.459 -18.5833L660.07 -20.7069ZM668.641 -35.3463C668.799 -35.6361 668.958 -35.9265 669.116 -36.2173L672.631 -34.3085C672.471 -34.0139 672.311 -33.7197 672.15 -33.4261L668.641 -35.3463ZM676.386 -50.4588C676.529 -50.7563 676.671 -51.0542 676.813 -51.3525L680.425 -49.6332C680.281 -49.3313 680.137 -49.0298 679.993 -48.7288L676.386 -50.4588ZM683.353 -65.9624C683.481 -66.2661 683.609 -66.5701 683.736 -66.8745L687.427 -65.3341C687.299 -65.0263 687.17 -64.7189 687.041 -64.4119L683.353 -65.9624ZM689.571 -81.764C689.687 -82.0798 689.803 -82.3959 689.918 -82.7124L693.676 -81.3427C693.56 -81.0229 693.443 -80.7035 693.325 -80.3844L689.571 -81.764ZM695.071 -97.8091C695.173 -98.1282 695.275 -98.4476 695.376 -98.7674L699.19 -97.5616C699.087 -97.2387 698.985 -96.916 698.882 -96.5937L695.071 -97.8091ZM699.89 -114.091C699.979 -114.413 700.066 -114.735 700.154 -115.058L704.014 -114.011C703.926 -113.686 703.838 -113.361 703.749 -113.036L699.89 -114.091ZM704.042 -130.572C704.116 -130.896 704.191 -131.221 704.265 -131.545L708.165 -130.656C708.09 -130.328 708.015 -130.001 707.939 -129.673L704.042 -130.572ZM707.532 -147.216C707.594 -147.542 707.656 -147.869 707.717 -148.195L711.649 -147.461C711.587 -147.131 711.525 -146.801 711.463 -146.472L707.532 -147.216ZM710.365 -163.988C710.414 -164.316 710.463 -164.645 710.511 -164.973L714.469 -164.393C714.42 -164.062 714.371 -163.73 714.322 -163.399L710.365 -163.988ZM712.536 -180.832C712.573 -181.164 712.608 -181.496 712.644 -181.829L716.621 -181.404C716.585 -181.069 716.549 -180.734 716.513 -180.398L712.536 -180.832ZM714.045 -197.755C714.068 -198.087 714.091 -198.42 714.113 -198.753L718.104 -198.485C718.082 -198.15 718.059 -197.814 718.036 -197.478L714.045 -197.755ZM714.882 -214.73C714.892 -215.063 714.901 -215.396 714.91 -215.729L718.908 -215.622C718.899 -215.285 718.89 -214.949 718.88 -214.613L714.882 -214.73ZM715.032 -231.724C715.028 -232.057 715.024 -232.39 715.019 -232.723L719.019 -232.779C719.023 -232.443 719.028 -232.107 719.032 -231.771L715.032 -231.724ZM714.479 -248.703C714.461 -249.036 714.443 -249.368 714.424 -249.701L718.418 -249.926C718.437 -249.59 718.455 -249.254 718.473 -248.917L714.479 -248.703ZM713.202 -265.641C713.17 -265.972 713.137 -266.303 713.104 -266.635L717.084 -267.033C717.117 -266.698 717.15 -266.363 717.183 -266.029L713.202 -265.641ZM711.177 -282.504C711.13 -282.834 711.082 -283.163 711.034 -283.493L714.992 -284.07C715.041 -283.737 715.089 -283.404 715.137 -283.071L711.177 -282.504ZM708.38 -299.25C708.317 -299.577 708.254 -299.904 708.19 -300.231L712.117 -300.995C712.181 -300.664 712.245 -300.333 712.308 -300.003L708.38 -299.25ZM704.782 -315.833C704.703 -316.157 704.624 -316.48 704.545 -316.804L708.429 -317.76C708.509 -317.433 708.589 -317.105 708.669 -316.778L704.782 -315.833ZM700.355 -332.211C700.26 -332.53 700.164 -332.848 700.068 -333.166L703.898 -334.321C703.995 -334 704.091 -333.677 704.188 -333.355L700.355 -332.211ZM695.067 -348.333C694.955 -348.646 694.843 -348.959 694.729 -349.271L698.49 -350.633C698.605 -350.317 698.719 -350 698.833 -349.683L695.067 -348.333ZM688.898 -364.127C688.768 -364.433 688.638 -364.739 688.507 -365.044L692.184 -366.618C692.317 -366.309 692.449 -365.999 692.581 -365.688L688.898 -364.127ZM681.824 -379.526C681.676 -379.824 681.528 -380.122 681.379 -380.419L684.956 -382.21C685.107 -381.908 685.257 -381.606 685.407 -381.304L681.824 -379.526ZM673.827 -394.464C673.661 -394.752 673.494 -395.039 673.328 -395.326L676.786 -397.336C676.955 -397.045 677.124 -396.753 677.292 -396.462L673.827 -394.464ZM664.899 -408.862C664.715 -409.138 664.53 -409.415 664.344 -409.691L667.665 -411.922C667.853 -411.641 668.041 -411.36 668.228 -411.079L664.899 -408.862ZM655.053 -422.628C654.851 -422.892 654.648 -423.155 654.444 -423.418L657.608 -425.866C657.815 -425.599 658.021 -425.331 658.227 -425.063L655.053 -422.628ZM644.302 -435.693C644.083 -435.942 643.862 -436.19 643.642 -436.438L646.63 -439.097C646.855 -438.845 647.078 -438.592 647.302 -438.339L644.302 -435.693ZM632.669 -447.99C632.433 -448.223 632.197 -448.454 631.96 -448.686L634.757 -451.546C634.997 -451.31 635.237 -451.075 635.477 -450.839L632.669 -447.99ZM620.182 -459.466C619.932 -459.68 619.682 -459.893 619.431 -460.106L622.021 -463.155C622.276 -462.939 622.53 -462.722 622.783 -462.505L620.182 -459.466ZM606.974 -470.004C606.706 -470.203 606.437 -470.402 606.167 -470.601L608.539 -473.822C608.813 -473.62 609.086 -473.418 609.359 -473.215L606.974 -470.004ZM593.074 -479.606C592.794 -479.786 592.514 -479.965 592.233 -480.143L594.38 -483.518C594.665 -483.337 594.95 -483.155 595.234 -482.973L593.074 -479.606ZM578.517 -488.274C578.229 -488.433 577.94 -488.592 577.65 -488.75L579.568 -492.26C579.862 -492.099 580.156 -491.938 580.449 -491.777L578.517 -488.274ZM563.356 -496.004C563.203 -496.076 563.05 -496.148 562.897 -496.22L564.592 -499.843C564.748 -499.77 564.903 -499.697 565.058 -499.624L563.356 -496.004ZM4.28619 -499.263C4.41306 -499.157 4.54031 -499.051 4.66794 -498.945L2.11281 -495.867C1.97943 -495.978 1.84643 -496.089 1.71381 -496.2L4.28619 -499.263ZM17.8327 -489.778C18.1213 -489.609 18.4112 -489.441 18.7023 -489.274L16.7138 -485.803C16.4122 -485.976 16.1118 -486.15 15.8127 -486.325L17.8327 -489.778ZM33.2048 -482.214C33.5174 -482.086 33.831 -481.958 34.1456 -481.831L32.6489 -478.121C32.3254 -478.252 32.0029 -478.383 31.6814 -478.516L33.2048 -482.214ZM49.4601 -476.577C49.7873 -476.482 50.1152 -476.388 50.444 -476.295L49.3558 -472.446C49.0197 -472.541 48.6844 -472.637 48.3499 -472.734L49.4601 -476.577ZM66.2314 -472.546C66.566 -472.48 66.9013 -472.416 67.2372 -472.351L66.4861 -468.423C66.1442 -468.488 65.8028 -468.554 65.4621 -468.621L66.2314 -472.546ZM83.296 -469.854C83.6351 -469.813 83.9747 -469.772 84.3147 -469.732L83.845 -465.76C83.4998 -465.8 83.1551 -465.842 82.8109 -465.884L83.296 -469.854ZM100.522 -468.292C100.862 -468.271 101.203 -468.25 101.544 -468.231L101.313 -464.237C100.968 -464.257 100.623 -464.278 100.278 -464.299L100.522 -468.292ZM117.827 -467.698C118.167 -467.695 118.508 -467.692 118.849 -467.69L118.825 -463.69C118.48 -463.692 118.136 -463.695 117.792 -463.698L117.827 -467.698ZM135.159 -467.953C135.498 -467.966 135.837 -467.979 136.177 -467.993L136.337 -463.996C135.994 -463.982 135.651 -463.969 135.308 -463.956L135.159 -467.953ZM152.476 -468.968C152.814 -468.995 153.153 -469.022 153.491 -469.05L153.816 -465.063C153.475 -465.035 153.133 -465.008 152.792 -464.981L152.476 -468.968ZM169.74 -470.674C170.079 -470.714 170.417 -470.754 170.756 -470.795L171.233 -466.823C170.892 -466.782 170.55 -466.742 170.209 -466.701L169.74 -470.674ZM186.931 -473.02C187.267 -473.072 187.603 -473.124 187.94 -473.177L188.56 -469.225C188.221 -469.172 187.881 -469.119 187.542 -469.067L186.931 -473.02ZM204.035 -475.972C204.37 -476.036 204.704 -476.1 205.038 -476.164L205.794 -472.236C205.457 -472.171 205.12 -472.107 204.783 -472.043L204.035 -475.972ZM221.027 -479.507C221.359 -479.582 221.692 -479.657 222.024 -479.733L222.912 -475.832C222.578 -475.756 222.243 -475.68 221.908 -475.605L221.027 -479.507ZM237.895 -483.614C238.224 -483.7 238.553 -483.786 238.881 -483.873L239.901 -480.005C239.57 -479.918 239.238 -479.831 238.907 -479.744L237.895 -483.614ZM254.611 -488.293C254.937 -488.391 255.264 -488.488 255.589 -488.586L256.742 -484.756C256.414 -484.657 256.085 -484.559 255.756 -484.46L254.611 -488.293ZM271.143 -493.553C271.467 -493.662 271.79 -493.772 272.113 -493.882L273.403 -490.096C273.077 -489.985 272.751 -489.874 272.425 -489.764L271.143 -493.553ZM287.462 -499.419C287.62 -499.479 287.778 -499.539 287.936 -499.6L289.366 -495.864C289.207 -495.803 289.048 -495.742 288.888 -495.682L287.462 -499.419ZM287.936 -499.6C288.091 -499.659 288.245 -499.718 288.4 -499.777L289.826 -496.04C289.673 -495.981 289.519 -495.923 289.366 -495.864L287.936 -499.6ZM303.182 -505.094C303.496 -505.2 303.809 -505.305 304.122 -505.41L305.394 -501.618C305.084 -501.514 304.774 -501.409 304.463 -501.305L303.182 -505.094ZM319.114 -510.114C319.431 -510.207 319.747 -510.299 320.064 -510.39L321.176 -506.548C320.863 -506.458 320.55 -506.366 320.237 -506.275L319.114 -510.114ZM335.239 -514.462C335.558 -514.541 335.876 -514.619 336.195 -514.697L337.145 -510.812C336.829 -510.734 336.514 -510.657 336.198 -510.579L335.239 -514.462ZM351.524 -518.121C351.844 -518.186 352.164 -518.251 352.484 -518.314L353.268 -514.392C352.951 -514.329 352.634 -514.265 352.317 -514.201L351.524 -518.121ZM367.933 -521.079C368.254 -521.13 368.575 -521.18 368.895 -521.23L369.51 -517.277C369.193 -517.228 368.876 -517.178 368.558 -517.128L367.933 -521.079ZM384.451 -523.329C384.78 -523.366 385.108 -523.403 385.437 -523.44L385.881 -519.465C385.556 -519.428 385.231 -519.392 384.905 -519.354L384.451 -523.329ZM401.101 -524.868C401.428 -524.891 401.755 -524.914 402.082 -524.936L402.354 -520.945C402.03 -520.923 401.707 -520.901 401.383 -520.878L401.101 -524.868ZM417.76 -525.683C418.085 -525.692 418.409 -525.7 418.733 -525.708L418.831 -521.71C418.511 -521.702 418.19 -521.693 417.869 -521.685L417.76 -525.683ZM434.448 -525.777C434.778 -525.772 435.108 -525.766 435.438 -525.76L435.363 -521.76C435.037 -521.766 434.711 -521.772 434.384 -521.777L434.448 -525.777ZM451.134 -525.148C451.458 -525.128 451.782 -525.109 452.105 -525.089L451.858 -521.096C451.538 -521.116 451.217 -521.135 450.897 -521.155L451.134 -525.148ZM467.773 -523.795C468.101 -523.761 468.428 -523.727 468.755 -523.692L468.334 -519.715C468.011 -519.749 467.687 -519.783 467.362 -519.816L467.773 -523.795ZM484.292 -521.725C484.623 -521.676 484.954 -521.627 485.283 -521.578L484.689 -517.622C484.363 -517.671 484.036 -517.72 483.708 -517.768L484.292 -521.725ZM500.775 -518.918C501.091 -518.857 501.406 -518.795 501.72 -518.734L500.95 -514.808C500.64 -514.869 500.328 -514.93 500.016 -514.99L500.775 -518.918ZM517.086 -515.376C517.397 -515.301 517.707 -515.226 518.016 -515.15L517.067 -511.265C516.762 -511.339 516.455 -511.413 516.147 -511.488L517.086 -515.376ZM533.242 -511.063C533.563 -510.969 533.883 -510.874 534.2 -510.78L533.062 -506.945C532.748 -507.039 532.433 -507.132 532.115 -507.225L533.242 -511.063ZM549.141 -505.93C549.464 -505.815 549.782 -505.702 550.096 -505.589L548.745 -501.824C548.436 -501.935 548.123 -502.047 547.804 -502.16L549.141 -505.93ZM564.726 -499.743C564.868 -499.677 564.977 -499.626 565.051 -499.591C565.088 -499.573 565.117 -499.56 565.136 -499.551C565.146 -499.546 565.154 -499.542 565.16 -499.54C565.162 -499.538 565.164 -499.537 565.166 -499.536C565.167 -499.536 565.168 -499.536 565.168 -499.535C565.168 -499.535 565.169 -499.535 565.169 -499.535C565.169 -499.535 565.169 -499.535 565.169 -499.535C565.169 -499.535 565.169 -499.535 565.169 -499.535C565.169 -499.535 565.169 -499.535 565.169 -499.535C565.169 -499.535 565.169 -499.535 564.304 -497.732C563.438 -495.929 563.438 -495.929 563.438 -495.929C563.438 -495.929 563.438 -495.929 563.438 -495.929L563.439 -495.929C563.439 -495.929 563.439 -495.929 563.439 -495.929C563.439 -495.929 563.439 -495.929 563.439 -495.929C563.439 -495.929 563.439 -495.929 563.438 -495.929C563.438 -495.929 563.437 -495.93 563.435 -495.93C563.432 -495.932 563.427 -495.935 563.419 -495.938C563.404 -495.945 563.38 -495.957 563.347 -495.972C563.282 -496.003 563.183 -496.049 563.049 -496.111L564.726 -499.743ZM279.5 49.5556L281.177 45.9243L279.5 49.5556ZM589 49.5556L586.484 46.4456C586.76 46.2229 587.064 46.0377 587.388 45.8949L589 49.5556ZM288.651 -497.732L290.081 -493.996L288.651 -497.732ZM562.049 -494.408C560.048 -495.345 559.185 -497.726 560.122 -499.727C561.058 -501.728 563.439 -502.591 565.44 -501.654L562.049 -494.408ZM0.82806 28.4453C2.52797 27.0344 5.04977 27.2687 6.46065 28.9686C7.87154 30.6685 7.63723 33.1903 5.93732 34.6012L0.82806 28.4453ZM18.5168 25.9206C16.5995 27.0178 14.1556 26.353 13.0584 24.4356C11.9611 22.5183 12.6259 20.0744 14.5433 18.9772L18.5168 25.9206ZM15.4467 18.4661C17.3749 17.3879 19.812 18.0769 20.8902 20.005C21.9684 21.9332 21.2794 24.3703 19.3513 25.4485L15.4467 18.4661ZM33.3246 18.9454C31.2619 19.7363 28.9486 18.7053 28.1577 16.6426C27.3668 14.5799 28.3978 12.2666 30.4605 11.4757L33.3246 18.9454ZM31.4298 11.1085C33.4989 10.3343 35.8038 11.384 36.5779 13.4531C37.3521 15.5221 36.3024 17.827 34.2333 18.6012L31.4298 11.1085ZM49.0818 14.04C46.9371 14.5697 44.7691 13.2605 44.2394 11.1158C43.7097 8.9711 45.0189 6.80308 47.1636 6.27337L49.0818 14.04ZM48.1694 6.02844C50.3175 5.51276 52.4769 6.83611 52.9926 8.98421C53.5083 11.1323 52.1849 13.2918 50.0368 13.8074L48.1694 6.02844ZM65.3853 10.8973C63.1985 11.2107 61.1717 9.69193 60.8584 7.50513C60.545 5.31832 62.0638 3.29156 64.2506 2.97823L65.3853 10.8973ZM65.2651 2.83559C67.4535 2.53377 69.4723 4.06316 69.7741 6.25159C70.0759 8.44001 68.5465 10.4588 66.3581 10.7606L65.2651 2.83559ZM81.9748 9.22832C79.7698 9.36279 77.8732 7.68427 77.7387 5.47923C77.6043 3.27418 79.2828 1.37762 81.4878 1.24315L81.9748 9.22832ZM82.5068 1.18324C84.7124 1.05832 86.6016 2.74506 86.7265 4.95066C86.8515 7.15627 85.1647 9.04552 82.9591 9.17043L82.5068 1.18324ZM98.6935 8.79241C96.4844 8.77741 94.7057 6.97443 94.7207 4.76534C94.7357 2.55626 96.5387 0.777596 98.7478 0.792595L98.6935 8.79241ZM99.7701 0.801414C101.979 0.824509 103.751 2.634 103.728 4.84301C103.705 7.05203 101.895 8.82407 99.6864 8.80098L99.7701 0.801414ZM115.448 9.40073C113.243 9.25874 111.571 7.35648 111.713 5.15191C111.855 2.94733 113.758 1.27528 115.962 1.41727L115.448 9.40073ZM116.977 1.48421C119.181 1.63313 120.847 3.54063 120.698 5.74474C120.549 7.94885 118.642 9.61493 116.438 9.46602L116.977 1.48421ZM132.181 10.908C129.986 10.6562 128.411 8.67283 128.663 6.4781C128.915 4.28336 130.898 2.70834 133.093 2.96019L132.181 10.908ZM134.098 3.07694C136.292 3.33482 137.862 5.32249 137.604 7.51652C137.346 9.71056 135.359 11.2801 133.165 11.0222L134.098 3.07694ZM148.854 13.203C146.672 12.8543 145.187 10.8032 145.535 8.62179C145.884 6.44034 147.935 4.95457 150.116 5.30324L148.854 13.203ZM151.112 5.46358C153.292 5.8176 154.773 7.8723 154.419 10.0529C154.065 12.2335 152.01 13.7142 149.83 13.3602L151.112 5.46358ZM165.436 16.1996C163.27 15.7641 161.868 13.6553 162.303 11.4895C162.739 9.32373 164.848 7.92108 167.013 8.35662L165.436 16.1996ZM167.999 8.55603C170.164 8.99641 171.562 11.1083 171.122 13.2731C170.681 15.4379 168.569 16.8358 166.405 16.3955L167.999 8.55603ZM181.89 19.828C179.742 19.3133 178.417 17.1544 178.932 15.0061C179.447 12.8577 181.606 11.5335 183.754 12.0483L181.89 19.828ZM184.736 12.2846C186.883 12.8039 188.203 14.9656 187.684 17.1128C187.165 19.26 185.003 20.5798 182.856 20.0605L184.736 12.2846ZM198.221 24.043C196.092 23.4545 194.843 21.2512 195.431 19.1219C196.02 16.9926 198.223 15.7435 200.352 16.332L198.221 24.043ZM201.324 16.6015C203.452 17.1942 204.696 19.3999 204.104 21.528C203.511 23.6562 201.305 24.9009 199.177 24.3082L201.324 16.6015ZM214.408 28.8063C212.299 28.1481 211.123 25.905 211.781 23.7962C212.439 21.6873 214.682 20.5114 216.791 21.1696L214.408 28.8063ZM217.753 21.4709C219.861 22.1331 221.033 24.3785 220.37 26.486C219.708 28.5936 217.463 29.7652 215.355 29.103L217.753 21.4709ZM230.434 34.0923C228.347 33.3669 227.244 31.0873 227.969 29.0007C228.695 26.914 230.974 25.8105 233.061 26.5358L230.434 34.0923ZM234.011 26.8672C236.097 27.5965 237.196 29.8781 236.467 31.9634C235.737 34.0487 233.456 35.148 231.37 34.4188L234.011 26.8672ZM246.288 39.887C244.225 39.0958 243.195 36.7823 243.986 34.7197C244.777 32.6571 247.091 31.6265 249.153 32.4177L246.288 39.887ZM250.094 32.7795C252.155 33.5746 253.181 35.89 252.386 37.9511C251.591 40.0122 249.275 41.0384 247.214 40.2433L250.094 32.7795ZM261.943 46.1817C259.906 45.3246 258.951 42.9792 259.808 40.9431C260.665 38.907 263.01 37.9513 265.046 38.8084L261.943 46.1817ZM265.977 39.2013C268.012 40.0623 268.963 42.4096 268.102 44.444C267.241 46.4784 264.894 47.4296 262.859 46.5686L265.977 39.2013ZM277.375 52.9803C275.368 52.0559 274.491 49.68 275.416 47.6735C276.34 45.6671 278.716 44.7899 280.722 45.7143L277.375 52.9803ZM281.639 46.1371C283.645 47.0616 284.522 49.4376 283.598 51.444C282.673 53.4503 280.297 54.3274 278.291 53.4028L281.639 46.1371ZM293.107 59.9609C291.073 59.0979 290.124 56.7497 290.987 54.7161C291.85 52.6825 294.198 51.7336 296.232 52.5966L293.107 59.9609ZM297.133 52.9781C299.169 53.8372 300.122 56.1836 299.263 58.2188C298.404 60.2541 296.057 61.2075 294.022 60.3484L297.133 52.9781ZM309.044 66.4085C306.982 65.6154 305.953 63.301 306.746 61.2391C307.539 59.1772 309.854 58.1487 311.916 58.9417L309.044 66.4085ZM312.834 59.2937C314.897 60.0826 315.93 62.3948 315.141 64.4583C314.353 66.5218 312.04 67.5551 309.977 66.7663L312.834 59.2937ZM325.19 72.289C323.101 71.571 321.989 69.2954 322.707 67.2061C323.425 65.1169 325.701 64.0053 327.79 64.7232L325.19 72.289ZM328.723 65.0426C330.814 65.756 331.93 68.0292 331.217 70.12C330.503 72.2108 328.23 73.3274 326.139 72.614L328.723 65.0426ZM341.545 77.5642C339.43 76.9269 338.232 74.6955 338.869 72.5803C339.506 70.4651 341.738 69.2671 343.853 69.9044L341.545 77.5642ZM344.799 70.1881C346.915 70.8206 348.118 73.0492 347.486 75.1659C346.853 77.2825 344.625 78.4857 342.508 77.8533L344.799 70.1881ZM358.1 82.1918C355.961 81.6408 354.673 79.4598 355.224 77.3205C355.775 75.1812 357.956 73.8936 360.096 74.4446L358.1 82.1918ZM361.051 74.6895C363.192 75.2353 364.485 77.4131 363.939 79.5537C363.393 81.6944 361.216 82.9873 359.075 82.4416L361.051 74.6895ZM374.84 86.1257C372.679 85.667 371.299 83.5433 371.758 81.3824C372.216 79.2214 374.34 77.8414 376.501 78.3001L374.84 86.1257ZM377.464 78.5032C379.626 78.9563 381.012 81.0765 380.559 83.2386C380.106 85.4008 377.985 86.7862 375.823 86.3331L377.464 78.5032ZM391.739 89.3181C389.56 88.9578 388.085 86.8988 388.445 84.7192C388.806 82.5397 390.865 81.0649 393.044 81.4253L391.739 89.3181ZM394.011 81.5838C396.192 81.9382 397.672 83.9932 397.317 86.1737C396.963 88.3543 394.908 89.8346 392.727 89.4801L394.011 81.5838ZM408.763 91.7205C406.569 91.4645 404.997 89.4782 405.253 87.2839C405.509 85.0897 407.496 83.5184 409.69 83.7743L408.763 91.7205ZM410.657 83.8857C412.852 84.1355 414.429 86.1173 414.179 88.3123C413.929 90.5072 411.947 92.0842 409.752 91.8344L410.657 83.8857ZM425.913 93.2888C423.708 93.1434 422.039 91.2386 422.185 89.0342C422.33 86.8299 424.235 85.1608 426.439 85.3062L425.913 93.2888ZM427.443 85.3708C429.648 85.5094 431.323 87.4091 431.184 89.6139C431.045 91.8187 429.146 93.4937 426.941 93.3551L427.443 85.3708ZM443.184 93.9733C440.975 93.9447 439.207 92.1308 439.236 89.9219C439.264 87.7129 441.078 85.9454 443.287 85.974L443.184 93.9733ZM444.281 85.9853C446.49 86.0068 448.263 87.8151 448.242 90.0241C448.22 92.2331 446.412 94.0064 444.203 93.9849L444.281 85.9853ZM460.427 93.7239C458.22 93.8173 456.355 92.1037 456.262 89.8965C456.168 87.6894 457.882 85.8244 460.089 85.731L460.427 93.7239ZM461.067 85.6881C463.274 85.5874 465.144 87.2948 465.245 89.5017C465.345 91.7085 463.638 93.5791 461.431 93.6798L461.067 85.6881ZM477.615 92.5036C475.417 92.7239 473.456 91.1205 473.236 88.9224C473.015 86.7242 474.619 84.7637 476.817 84.5434L477.615 92.5036ZM477.815 84.4416C480.012 84.2136 481.979 85.8101 482.207 88.0074C482.435 90.2047 480.838 92.1709 478.641 92.3989L477.815 84.4416ZM494.773 90.2636C492.592 90.6159 490.539 89.1335 490.186 86.9527C489.834 84.7718 491.316 82.7183 493.497 82.366L494.773 90.2636ZM494.463 82.2082C496.643 81.848 498.702 83.323 499.062 85.5026C499.422 87.6822 497.947 89.741 495.767 90.1012L494.463 82.2082ZM511.731 86.9798C509.577 87.468 507.434 86.1172 506.946 83.9626C506.458 81.8081 507.809 79.6658 509.963 79.1776L511.731 86.9798ZM510.934 78.9557C513.086 78.4593 515.234 79.8019 515.73 81.9546C516.227 84.1072 514.884 86.2547 512.731 86.7511L510.934 78.9557ZM528.428 82.6223C526.31 83.2503 524.084 82.0424 523.456 79.9244C522.828 77.8064 524.036 75.5803 526.154 74.9523L528.428 82.6223ZM527.12 74.6638C529.235 74.0272 531.466 75.2261 532.102 77.3415C532.739 79.457 531.54 81.6879 529.425 82.3245L527.12 74.6638ZM544.841 77.1384C542.771 77.9111 540.467 76.8598 539.694 74.7902C538.922 72.7207 539.973 70.4165 542.043 69.6438L544.841 77.1384ZM542.989 69.288C545.055 68.5064 547.364 69.5477 548.146 71.6139C548.927 73.6802 547.886 75.9888 545.82 76.7705L542.989 69.288ZM560.889 70.4641C558.883 71.3892 556.506 70.5128 555.581 68.5067C554.656 66.5005 555.533 64.1243 557.539 63.1993L560.889 70.4641ZM558.435 62.7835C560.437 61.8491 562.817 62.7145 563.752 64.7163C564.686 66.7181 563.821 69.0983 561.819 70.0327L558.435 62.7835ZM576.345 62.5482C574.425 63.6406 571.983 62.9695 570.89 61.0494C569.798 59.1292 570.469 56.687 572.389 55.5947L576.345 62.5482ZM573.253 55.1002C575.166 53.9969 577.612 54.6539 578.716 56.5678C579.819 58.4817 579.162 60.9276 577.248 62.031L573.253 55.1002ZM591.069 53.016C589.32 54.3656 586.808 54.0418 585.459 52.2928C584.109 50.5438 584.433 48.0319 586.182 46.6823L591.069 53.016ZM587.824 45.7017C589.841 44.8021 592.206 45.7084 593.106 47.7261C594.005 49.7438 593.099 52.1087 591.081 53.0083L587.824 45.7017ZM605.717 45.2157C603.84 46.3812 601.374 45.8046 600.208 43.928C599.043 42.0513 599.62 39.5851 601.496 38.4196L605.717 45.2157ZM602.311 37.9092C604.179 36.7292 606.649 37.2866 607.829 39.1542C609.009 41.0218 608.452 43.4924 606.584 44.6724L602.311 37.9092ZM619.995 35.0468C618.275 36.4333 615.757 36.1632 614.37 34.4433C612.984 32.7235 613.254 30.2053 614.974 28.8188L619.995 35.0468ZM615.727 28.2072C617.438 26.8094 619.958 27.0631 621.356 28.7739C622.753 30.4846 622.5 33.0045 620.789 34.4023L615.727 28.2072ZM632.993 23.3774C631.425 24.9339 628.892 24.9248 627.336 23.3571C625.779 21.7894 625.789 19.2567 627.356 17.7003L632.993 23.3774ZM628.048 17.0094C629.607 15.4442 632.14 15.4393 633.705 16.9984C635.27 18.5574 635.275 21.0901 633.716 22.6552L628.048 17.0094ZM644.788 10.5637C643.362 12.2514 640.839 12.4641 639.151 11.0387C637.463 9.61335 637.25 7.08964 638.676 5.40187L644.788 10.5637ZM639.308 4.6496C640.725 2.95512 643.248 2.73048 644.943 4.14787C646.637 5.56525 646.862 8.08794 645.444 9.78242L639.308 4.6496ZM655.477 -3.13235C654.183 -1.34189 651.682 -0.939445 649.892 -2.23348C648.101 -3.52752 647.699 -6.028 648.993 -7.81847L655.477 -3.13235ZM649.568 -8.61812C650.855 -10.4139 653.354 -10.8266 655.149 -9.53996C656.945 -8.2533 657.358 -5.75449 656.071 -3.95872L649.568 -8.61812ZM665.154 -17.5214C663.981 -15.6493 661.513 -15.0825 659.641 -16.2554C657.769 -17.4283 657.202 -19.8967 658.375 -21.7688L665.154 -17.5214ZM658.897 -22.6052C660.063 -24.4815 662.529 -25.0573 664.406 -23.8912C666.282 -22.7252 666.858 -20.2588 665.692 -18.3825L658.897 -22.6052ZM673.904 -32.4659C672.844 -30.528 670.413 -29.8167 668.475 -30.8773C666.537 -31.9378 665.826 -34.3685 666.886 -36.3064L673.904 -32.4659ZM667.358 -37.1717C668.412 -39.1131 670.841 -39.8323 672.782 -38.7781C674.724 -37.7239 675.443 -35.2955 674.388 -33.3541L667.358 -37.1717ZM681.796 -47.8638C680.84 -45.8719 678.451 -45.0318 676.459 -45.9873C674.467 -46.9428 673.627 -49.3321 674.583 -51.3239L681.796 -47.8638ZM675.007 -52.2122C675.957 -54.2068 678.344 -55.054 680.338 -54.1045C682.333 -53.1549 683.18 -50.7682 682.231 -48.7735L675.007 -52.2122ZM688.884 -63.6366C688.028 -61.6002 685.683 -60.6436 683.647 -61.4999C681.61 -62.3562 680.654 -64.7012 681.51 -66.7377L688.884 -63.6366ZM681.89 -67.6446C682.74 -69.6834 685.083 -70.6465 687.122 -69.7958C689.16 -68.9451 690.124 -66.6027 689.273 -64.5639L681.89 -67.6446ZM695.203 -79.6945C694.441 -77.621 692.142 -76.5577 690.069 -77.3196C687.995 -78.0816 686.932 -80.3802 687.694 -82.4538L695.203 -79.6945ZM688.039 -83.3972C688.795 -85.4728 691.091 -86.5422 693.167 -85.7857C695.242 -85.0293 696.312 -82.7334 695.555 -80.6579L688.039 -83.3972ZM700.788 -95.986C700.116 -93.8813 697.866 -92.7193 695.761 -93.3905C693.657 -94.0617 692.495 -96.312 693.166 -98.4167L700.788 -95.986ZM693.469 -99.3703C694.135 -101.477 696.382 -102.644 698.488 -101.978C700.595 -101.312 701.762 -99.0651 701.096 -96.9587L693.469 -99.3703ZM705.678 -112.508C705.095 -110.377 702.895 -109.122 700.764 -109.705C698.633 -110.288 697.378 -112.488 697.961 -114.619L705.678 -112.508ZM698.223 -115.581C698.801 -117.713 700.998 -118.973 703.13 -118.395C705.262 -117.817 706.523 -115.621 705.945 -113.488L698.223 -115.581ZM709.888 -129.224C709.392 -127.071 707.244 -125.728 705.092 -126.225C702.939 -126.721 701.596 -128.869 702.093 -131.021L709.888 -129.224ZM702.315 -131.99C702.806 -134.144 704.951 -135.492 707.104 -135C709.258 -134.509 710.606 -132.365 710.115 -130.211L702.315 -131.99ZM713.428 -146.1C713.017 -143.93 710.925 -142.503 708.754 -142.913C706.583 -143.324 705.157 -145.417 705.567 -147.587L713.428 -146.1ZM705.751 -148.562C706.156 -150.734 708.246 -152.166 710.417 -151.76C712.589 -151.354 714.02 -149.265 713.615 -147.094L705.751 -148.562ZM716.3 -163.105C715.975 -160.92 713.94 -159.412 711.755 -159.737C709.57 -160.062 708.062 -162.097 708.387 -164.282L716.3 -163.105ZM708.532 -165.263C708.852 -167.449 710.884 -168.961 713.07 -168.641C715.255 -168.321 716.768 -166.289 716.448 -164.104L708.532 -165.263ZM718.501 -180.182C718.262 -177.986 716.287 -176.399 714.091 -176.639C711.895 -176.878 710.309 -178.853 710.548 -181.049L718.501 -180.182ZM710.655 -182.041C710.889 -184.237 712.86 -185.828 715.057 -185.594C717.253 -185.359 718.844 -183.389 718.61 -181.192L710.655 -182.041ZM720.031 -197.34C719.878 -195.136 717.968 -193.473 715.764 -193.626C713.56 -193.779 711.897 -195.689 712.05 -197.893L720.031 -197.34ZM712.118 -198.886C712.265 -201.09 714.172 -202.758 716.376 -202.61C718.58 -202.463 720.247 -200.556 720.1 -198.352L712.118 -198.886ZM720.879 -214.555C720.815 -212.347 718.972 -210.609 716.764 -210.673C714.556 -210.738 712.818 -212.58 712.883 -214.788L720.879 -214.555ZM712.911 -215.782C712.97 -217.991 714.808 -219.733 717.016 -219.674C719.225 -219.615 720.967 -217.776 720.908 -215.568L712.911 -215.782ZM721.032 -231.794C721.057 -229.585 719.288 -227.773 717.079 -227.748C714.87 -227.722 713.058 -229.492 713.032 -231.701L721.032 -231.794ZM713.019 -232.695C712.988 -234.904 714.754 -236.72 716.962 -236.751C719.171 -236.782 720.987 -235.017 721.019 -232.808L713.019 -232.695ZM720.47 -249.025C720.589 -246.819 718.897 -244.934 716.691 -244.816C714.485 -244.697 712.6 -246.39 712.482 -248.596L720.47 -249.025ZM712.427 -249.589C712.303 -251.794 713.991 -253.683 716.196 -253.807C718.402 -253.931 720.29 -252.243 720.414 -250.038L712.427 -249.589ZM719.174 -266.222C719.388 -264.024 717.779 -262.068 715.58 -261.854C713.381 -261.639 711.425 -263.248 711.211 -265.447L719.174 -266.222ZM711.114 -266.436C710.894 -268.634 712.497 -270.594 714.696 -270.814C716.894 -271.034 718.854 -269.43 719.074 -267.232L711.114 -266.436ZM717.117 -283.355C717.43 -281.168 715.911 -279.141 713.724 -278.828C711.537 -278.515 709.51 -280.034 709.197 -282.221L717.117 -283.355ZM709.055 -283.204C708.736 -285.39 710.25 -287.421 712.436 -287.74C714.622 -288.059 716.652 -286.545 716.971 -284.359L709.055 -283.204ZM714.272 -300.379C714.688 -298.209 713.266 -296.113 711.096 -295.698C708.927 -295.282 706.831 -296.704 706.415 -298.874L714.272 -300.379ZM706.227 -299.849C705.805 -302.018 707.221 -304.118 709.39 -304.539C711.558 -304.961 713.658 -303.545 714.08 -301.376L706.227 -299.849ZM710.612 -317.25C711.134 -315.103 709.817 -312.94 707.67 -312.418C705.523 -311.897 703.36 -313.214 702.839 -315.361L710.612 -317.25ZM702.603 -316.326C702.074 -318.471 703.385 -320.638 705.53 -321.166C707.675 -321.694 709.842 -320.383 710.371 -318.238L702.603 -316.326ZM706.104 -333.927C706.736 -331.81 705.532 -329.582 703.415 -328.95C701.298 -328.319 699.07 -329.522 698.438 -331.639L706.104 -333.927ZM698.153 -332.588C697.515 -334.703 698.712 -336.935 700.827 -337.573C702.942 -338.211 705.174 -337.014 705.812 -334.899L698.153 -332.588ZM700.716 -350.358C701.461 -348.278 700.38 -345.988 698.3 -345.243C696.22 -344.497 693.93 -345.579 693.185 -347.658L700.716 -350.358ZM692.849 -348.59C692.097 -350.667 693.171 -352.961 695.248 -353.713C697.325 -354.465 699.619 -353.391 700.371 -351.314L692.849 -348.59ZM694.422 -366.469C695.284 -364.435 694.335 -362.087 692.301 -361.225C690.267 -360.363 687.919 -361.312 687.057 -363.346L694.422 -366.469ZM686.668 -364.257C685.799 -366.288 686.74 -368.639 688.771 -369.509C690.802 -370.378 693.153 -369.436 694.023 -367.406L686.668 -364.257ZM687.198 -382.194C688.18 -380.215 687.372 -377.814 685.393 -376.832C683.414 -375.85 681.014 -376.658 680.032 -378.637L687.198 -382.194ZM679.591 -379.523C678.601 -381.499 679.401 -383.902 681.376 -384.891C683.352 -385.88 685.755 -385.081 686.744 -383.105L679.591 -379.523ZM679.025 -397.46C680.128 -395.546 679.471 -393.1 677.557 -391.997C675.643 -390.894 673.197 -391.551 672.094 -393.465L679.025 -397.46ZM671.599 -394.321C670.488 -396.231 671.136 -398.679 673.046 -399.789C674.956 -400.9 677.404 -400.251 678.515 -398.342L671.599 -394.321ZM669.893 -412.188C671.117 -410.349 670.62 -407.866 668.781 -406.641C666.942 -405.417 664.459 -405.914 663.234 -407.753L669.893 -412.188ZM662.684 -408.576C661.452 -410.41 661.94 -412.895 663.774 -414.127C665.608 -415.359 668.093 -414.871 669.325 -413.037L662.684 -408.576ZM659.814 -426.28C661.158 -424.528 660.828 -422.017 659.075 -420.672C657.322 -419.327 654.811 -419.658 653.466 -421.411L659.814 -426.28ZM652.862 -422.195C651.511 -423.942 651.831 -426.454 653.579 -427.806C655.326 -429.158 657.838 -428.837 659.19 -427.09L652.862 -422.195ZM648.801 -439.662C650.263 -438.006 650.105 -435.478 648.448 -434.016C646.792 -432.555 644.264 -432.713 642.802 -434.37L648.801 -439.662ZM642.147 -435.109C640.679 -436.76 640.827 -439.288 642.478 -440.756C644.128 -442.224 646.656 -442.077 648.125 -440.426L642.147 -435.109ZM636.881 -452.263C638.454 -450.712 638.472 -448.18 636.921 -446.606C635.37 -445.033 632.838 -445.015 631.264 -446.566L636.881 -452.263ZM630.562 -447.256C628.983 -448.8 628.954 -451.333 630.499 -452.912C632.043 -454.492 634.576 -454.52 636.155 -452.976L630.562 -447.256ZM624.084 -464.024C625.762 -462.587 625.958 -460.062 624.521 -458.384C623.084 -456.706 620.559 -456.51 618.881 -457.947L624.084 -464.024ZM618.137 -458.582C616.453 -460.012 616.247 -462.536 617.677 -464.22C619.107 -465.904 621.632 -466.109 623.315 -464.679L618.137 -458.582ZM610.551 -474.821C612.325 -473.504 612.695 -470.998 611.378 -469.225C610.061 -467.451 607.555 -467.081 605.782 -468.398L610.551 -474.821ZM604.981 -468.99C603.202 -470.3 602.822 -472.804 604.132 -474.583C605.442 -476.362 607.946 -476.742 609.725 -475.432L604.981 -468.99ZM596.315 -484.656C598.174 -483.463 598.714 -480.988 597.521 -479.129C596.328 -477.27 593.853 -476.73 591.994 -477.923L596.315 -484.656ZM591.16 -478.456C589.296 -479.642 588.746 -482.114 589.932 -483.978C591.117 -485.842 593.59 -486.392 595.454 -485.206L591.16 -478.456ZM581.414 -493.528C583.349 -492.461 584.052 -490.028 582.986 -488.094C581.919 -486.159 579.486 -485.456 577.551 -486.523L581.414 -493.528ZM576.691 -486.995C574.753 -488.054 574.04 -490.485 575.099 -492.423C576.159 -494.362 578.589 -495.074 580.528 -494.015L576.691 -486.995ZM565.909 -501.434C567.909 -500.494 568.767 -498.111 567.827 -496.112C566.887 -494.113 564.504 -493.254 562.505 -494.195L565.909 -501.434ZM5.9455 -500.483C7.64518 -499.072 7.87908 -496.55 6.46792 -494.851C5.05677 -493.151 2.53493 -492.917 0.835245 -494.328L5.9455 -500.483ZM14.8026 -484.599C12.8959 -485.715 12.2546 -488.165 13.3702 -490.071C14.4859 -491.978 16.936 -492.619 18.8427 -491.504L14.8026 -484.599ZM19.6966 -491.009C21.6134 -489.911 22.277 -487.467 21.1787 -485.55C20.0805 -483.633 17.6363 -482.97 15.7195 -484.068L19.6966 -491.009ZM30.9197 -476.667C28.877 -477.508 27.9032 -479.846 28.7445 -481.888C29.5859 -483.931 31.9238 -484.905 33.9665 -484.064L30.9197 -476.667ZM34.894 -483.686C36.9426 -482.859 37.9333 -480.528 37.1067 -478.479C36.2801 -476.431 33.9492 -475.44 31.9006 -476.267L34.894 -483.686ZM47.7947 -470.812C45.6724 -471.425 44.449 -473.643 45.0621 -475.765C45.6753 -477.888 47.8929 -479.111 50.0152 -478.498L47.7947 -470.812ZM50.988 -478.22C53.1139 -477.619 54.35 -475.408 53.7491 -473.283C53.1481 -471.157 50.9376 -469.921 48.8118 -470.522L50.988 -478.22ZM65.0774 -466.658C62.9095 -467.083 61.4965 -469.185 61.9214 -471.353C62.3463 -473.521 64.4482 -474.934 66.6161 -474.509L65.0774 -466.658ZM67.6127 -474.316C69.7825 -473.901 71.2053 -471.806 70.7905 -469.636C70.3757 -467.466 68.2805 -466.043 66.1106 -466.458L67.6127 -474.316ZM82.5684 -463.899C80.3755 -464.167 78.8151 -466.161 79.083 -468.354C79.3509 -470.547 81.3457 -472.108 83.5386 -471.84L82.5684 -463.899ZM84.5496 -471.718C86.7434 -471.459 88.3116 -469.47 88.0522 -467.276C87.7928 -465.082 85.804 -463.514 83.6101 -463.774L84.5496 -471.718ZM100.156 -462.303C97.9507 -462.437 96.2724 -464.334 96.4071 -466.539C96.5418 -468.744 98.4385 -470.423 100.644 -470.288L100.156 -462.303ZM101.659 -470.227C103.865 -470.1 105.549 -468.209 105.422 -466.003C105.294 -463.798 103.403 -462.113 101.198 -462.241L101.659 -470.227ZM117.774 -461.698C115.565 -461.717 113.79 -463.524 113.81 -465.733C113.829 -467.942 115.636 -469.717 117.845 -469.698L117.774 -461.698ZM118.86 -469.69C121.069 -469.677 122.85 -467.876 122.837 -465.667C122.824 -463.458 121.022 -461.677 118.813 -461.69L118.86 -469.69ZM135.383 -461.958C133.175 -461.875 131.319 -463.598 131.236 -465.805C131.154 -468.013 132.876 -469.87 135.084 -469.952L135.383 -461.958ZM136.097 -469.991C138.305 -470.08 140.165 -468.362 140.254 -466.154C140.342 -463.947 138.624 -462.086 136.417 -461.998L136.097 -469.991ZM152.95 -462.987C150.748 -462.813 148.821 -464.457 148.647 -466.659C148.472 -468.861 150.116 -470.788 152.318 -470.962L152.95 -462.987ZM153.328 -471.043C155.53 -471.223 157.461 -469.584 157.64 -467.382C157.82 -465.18 156.18 -463.249 153.979 -463.07L153.328 -471.043ZM170.443 -464.715C168.249 -464.456 166.261 -466.025 166.002 -468.219C165.743 -470.413 167.312 -472.401 169.506 -472.66L170.443 -464.715ZM170.517 -472.781C172.711 -473.044 174.702 -471.48 174.966 -469.286C175.23 -467.093 173.665 -465.101 171.472 -464.838L170.517 -472.781ZM187.848 -467.09C185.665 -466.753 183.621 -468.249 183.284 -470.432C182.946 -472.615 184.442 -474.659 186.625 -474.996L187.848 -467.09ZM187.63 -475.153C189.812 -475.495 191.859 -474.003 192.201 -471.821C192.544 -469.639 191.052 -467.592 188.87 -467.25L187.63 -475.153ZM205.158 -470.078C202.987 -469.665 200.893 -471.089 200.48 -473.259C200.067 -475.429 201.491 -477.524 203.661 -477.937L205.158 -470.078ZM204.66 -478.128C206.829 -478.545 208.927 -477.125 209.344 -474.956C209.762 -472.787 208.341 -470.69 206.172 -470.272L204.66 -478.128ZM222.348 -473.654C220.193 -473.167 218.052 -474.52 217.566 -476.675C217.079 -478.83 218.432 -480.971 220.587 -481.457L222.348 -473.654ZM221.58 -481.683C223.734 -482.173 225.877 -480.825 226.368 -478.671C226.859 -476.517 225.51 -474.373 223.356 -473.882L221.58 -481.683ZM239.413 -477.809C237.276 -477.25 235.09 -478.53 234.531 -480.667C233.972 -482.804 235.252 -484.99 237.389 -485.549L239.413 -477.809ZM238.371 -485.807C240.507 -486.37 242.696 -485.095 243.259 -482.959C243.822 -480.823 242.547 -478.634 240.411 -478.071L238.371 -485.807ZM256.328 -482.544C254.212 -481.912 251.983 -483.115 251.351 -485.232C250.719 -487.349 251.922 -489.577 254.039 -490.209L256.328 -482.544ZM255.013 -490.501C257.128 -491.138 259.359 -489.939 259.996 -487.824C260.633 -485.708 259.434 -483.477 257.318 -482.841L255.013 -490.501ZM273.066 -487.869C270.973 -487.161 268.703 -488.284 267.995 -490.377C267.287 -492.469 268.41 -494.74 270.502 -495.448L273.066 -487.869ZM271.468 -495.775C273.559 -496.488 275.832 -495.37 276.544 -493.279C277.257 -491.188 276.139 -488.915 274.048 -488.203L271.468 -495.775ZM289.601 -493.813C287.537 -493.025 285.226 -494.06 284.438 -496.124C283.651 -498.188 284.686 -500.5 286.75 -501.287L289.601 -493.813ZM287.687 -501.646C289.751 -502.433 292.063 -501.398 292.85 -499.334C293.638 -497.27 292.603 -494.959 290.539 -494.171L287.687 -501.646ZM305.104 -499.41C303.011 -498.702 300.741 -499.825 300.033 -501.918C299.326 -504.011 300.449 -506.281 302.542 -506.989L305.104 -499.41ZM303.487 -507.307C305.581 -508.009 307.848 -506.88 308.551 -504.786C309.253 -502.691 308.124 -500.424 306.03 -499.722L303.487 -507.307ZM320.798 -504.355C318.677 -503.735 316.456 -504.952 315.836 -507.072C315.216 -509.192 316.433 -511.414 318.553 -512.034L320.798 -504.355ZM319.507 -512.311C321.629 -512.926 323.848 -511.704 324.462 -509.582C325.077 -507.46 323.855 -505.242 321.733 -504.627L319.507 -512.311ZM336.678 -508.637C334.534 -508.107 332.365 -509.416 331.835 -511.561C331.305 -513.705 332.614 -515.874 334.759 -516.404L336.678 -508.637ZM335.72 -516.64C337.866 -517.165 340.031 -515.85 340.555 -513.704C341.08 -511.558 339.766 -509.393 337.62 -508.869L335.72 -516.64ZM352.714 -512.241C350.549 -511.802 348.438 -513.202 348 -515.367C347.562 -517.533 348.962 -519.643 351.127 -520.082L352.714 -512.241ZM352.092 -520.276C354.258 -520.709 356.365 -519.303 356.798 -517.137C357.231 -514.971 355.826 -512.864 353.659 -512.431L352.092 -520.276ZM368.871 -515.153C366.689 -514.807 364.64 -516.297 364.295 -518.479C363.95 -520.661 365.439 -522.709 367.621 -523.054L368.871 -515.153ZM368.587 -523.206C370.77 -523.546 372.815 -522.051 373.155 -519.869C373.494 -517.686 372 -515.641 369.817 -515.301L368.587 -523.206ZM385.132 -517.367C382.937 -517.116 380.955 -518.692 380.704 -520.887C380.453 -523.082 382.029 -525.065 384.223 -525.316L385.132 -517.367ZM385.215 -525.428C387.41 -525.673 389.389 -524.092 389.634 -521.897C389.88 -519.701 388.299 -517.722 386.103 -517.477L385.215 -525.428ZM401.524 -518.883C399.32 -518.727 397.407 -520.387 397.252 -522.591C397.096 -524.794 398.756 -526.707 400.96 -526.863L401.524 -518.883ZM401.946 -526.931C404.15 -527.081 406.059 -525.416 406.209 -523.212C406.359 -521.008 404.694 -519.1 402.49 -518.95L401.946 -526.931ZM417.924 -519.685C415.715 -519.625 413.876 -521.366 413.816 -523.575C413.756 -525.783 415.497 -527.622 417.706 -527.682L417.924 -519.685ZM418.683 -527.708C420.891 -527.762 422.726 -526.016 422.781 -523.808C422.835 -521.599 421.089 -519.765 418.881 -519.71L418.683 -527.708ZM434.352 -519.778C432.143 -519.813 430.381 -521.632 430.416 -523.841C430.452 -526.05 432.271 -527.812 434.48 -527.777L434.352 -519.778ZM435.475 -527.759C437.683 -527.718 439.441 -525.894 439.4 -523.686C439.359 -521.477 437.535 -519.72 435.326 -519.761L435.475 -527.759ZM450.778 -519.158C448.573 -519.289 446.891 -521.183 447.022 -523.388C447.153 -525.594 449.047 -527.275 451.253 -527.144L450.778 -519.158ZM452.229 -527.085C454.434 -526.948 456.11 -525.05 455.974 -522.845C455.837 -520.64 453.939 -518.963 451.734 -519.1L452.229 -527.085ZM467.157 -517.827C464.959 -518.054 463.362 -520.019 463.589 -522.216C463.816 -524.414 465.781 -526.011 467.978 -525.784L467.157 -517.827ZM468.966 -525.681C471.162 -525.449 472.755 -523.479 472.522 -521.283C472.29 -519.086 470.32 -517.493 468.124 -517.726L468.966 -525.681ZM483.416 -515.789C481.23 -516.112 479.72 -518.145 480.043 -520.331C480.365 -522.516 482.398 -524.026 484.584 -523.704L483.416 -515.789ZM485.58 -523.555C487.765 -523.227 489.27 -521.19 488.941 -519.005C488.613 -516.821 486.576 -515.316 484.391 -515.644L485.58 -523.555ZM499.636 -513.027C497.467 -513.446 496.049 -515.545 496.468 -517.714C496.888 -519.883 498.986 -521.301 501.155 -520.881L499.636 -513.027ZM502.105 -520.696C504.272 -520.271 505.685 -518.169 505.26 -516.001C504.835 -513.833 502.733 -512.421 500.565 -512.846L502.105 -520.696ZM515.678 -509.544C513.53 -510.062 512.21 -512.223 512.728 -514.371C513.247 -516.518 515.408 -517.839 517.555 -517.32L515.678 -509.544ZM518.49 -517.093C520.636 -516.569 521.951 -514.404 521.427 -512.258C520.903 -510.112 518.738 -508.797 516.592 -509.322L518.49 -517.093ZM531.551 -505.306C529.432 -505.928 528.218 -508.151 528.84 -510.271C529.462 -512.39 531.685 -513.604 533.805 -512.982L531.551 -505.306ZM534.769 -512.697C536.887 -512.069 538.094 -509.842 537.465 -507.724C536.837 -505.606 534.61 -504.399 532.492 -505.028L534.769 -512.697ZM547.136 -500.275C545.054 -501.013 543.964 -503.299 544.703 -505.381C545.441 -507.463 547.727 -508.553 549.81 -507.815L547.136 -500.275ZM550.772 -507.471C552.851 -506.725 553.932 -504.435 553.186 -502.355C552.439 -500.276 550.149 -499.195 548.07 -499.942L550.772 -507.471ZM562.211 -494.295C560.205 -495.221 559.33 -497.597 560.256 -499.603C561.181 -501.609 563.558 -502.484 565.564 -501.559L562.211 -494.295ZM0.42762 28.7796C0.560762 28.6678 0.694242 28.5563 0.82806 28.4453L5.93732 34.6012C5.81535 34.7024 5.6937 34.804 5.57238 34.9059L0.42762 28.7796ZM14.5433 18.9772C14.8433 18.8055 15.1445 18.6351 15.4467 18.4661L19.3513 25.4485C19.072 25.6047 18.7938 25.7621 18.5168 25.9206L14.5433 18.9772ZM30.4605 11.4757C30.7827 11.3521 31.1058 11.2297 31.4298 11.1085L34.2333 18.6012C33.9295 18.7149 33.6266 18.8296 33.3246 18.9454L30.4605 11.4757ZM47.1636 6.27337C47.4981 6.19073 47.8334 6.10909 48.1694 6.02844L50.0368 13.8074C49.7177 13.884 49.3994 13.9616 49.0818 14.04L47.1636 6.27337ZM64.2506 2.97823C64.5882 2.92985 64.9264 2.88231 65.2651 2.83559L66.3581 10.7606C66.0332 10.8054 65.709 10.851 65.3853 10.8973L64.2506 2.97823ZM81.4878 1.24315C81.8271 1.22247 82.1667 1.20249 82.5068 1.18324L82.9591 9.17043C82.6306 9.18904 82.3025 9.20834 81.9748 9.22832L81.4878 1.24315ZM98.7478 0.792595C99.0882 0.794907 99.429 0.797844 99.7701 0.801414L99.6864 8.80098C99.3551 8.79752 99.0241 8.79465 98.6935 8.79241L98.7478 0.792595ZM115.962 1.41727C116.3 1.43903 116.638 1.46135 116.977 1.48421L116.438 9.46602C116.108 9.44372 115.778 9.42195 115.448 9.40073L115.962 1.41727ZM133.093 2.96019C133.428 2.99862 133.763 3.03754 134.098 3.07694L133.165 11.0222C132.837 10.9837 132.509 10.9456 132.181 10.908L133.093 2.96019ZM150.116 5.30324C150.448 5.35625 150.78 5.40971 151.112 5.46358L149.83 13.3602C149.504 13.3074 149.179 13.255 148.854 13.203L150.116 5.30324ZM167.013 8.35662C167.342 8.4227 167.671 8.48917 167.999 8.55603L166.405 16.3955C166.082 16.3298 165.759 16.2645 165.436 16.1996L167.013 8.35662ZM183.754 12.0483C184.082 12.1267 184.409 12.2055 184.736 12.2846L182.856 20.0605C182.534 19.9827 182.212 19.9052 181.89 19.828L183.754 12.0483ZM200.352 16.332C200.676 16.4215 201 16.5114 201.324 16.6015L199.177 24.3082C198.859 24.2195 198.54 24.1311 198.221 24.043L200.352 16.332ZM216.791 21.1696C217.112 21.2698 217.433 21.3702 217.753 21.4709L215.355 29.103C215.039 29.0038 214.724 28.9049 214.408 28.8063L216.791 21.1696ZM233.061 26.5358C233.378 26.646 233.695 26.7565 234.011 26.8672L231.37 34.4188C231.058 34.3097 230.746 34.2008 230.434 34.0923L233.061 26.5358ZM249.153 32.4177C249.467 32.5381 249.78 32.6586 250.094 32.7795L247.214 40.2433C246.906 40.1243 246.597 40.0055 246.288 39.887L249.153 32.4177ZM265.046 38.8084C265.357 38.9391 265.667 39.0701 265.977 39.2013L262.859 46.5686C262.554 46.4394 262.248 46.3104 261.943 46.1817L265.046 38.8084ZM280.722 45.7143C280.874 45.7843 281.026 45.8542 281.177 45.9243L277.823 53.1869C277.673 53.118 277.524 53.0491 277.375 52.9803L280.722 45.7143ZM281.177 45.9243C281.331 45.9953 281.485 46.0663 281.639 46.1371L278.291 53.4028C278.135 53.331 277.979 53.259 277.823 53.1869L281.177 45.9243ZM296.232 52.5966C296.533 52.7242 296.833 52.8514 297.133 52.9781L294.022 60.3484C293.717 60.2196 293.412 60.0905 293.107 59.9609L296.232 52.5966ZM311.916 58.9417C312.222 59.0595 312.528 59.1768 312.834 59.2937L309.977 66.7663C309.666 66.6475 309.355 66.5282 309.044 66.4085L311.916 58.9417ZM327.79 64.7232C328.101 64.8301 328.412 64.9366 328.723 65.0426L326.139 72.614C325.823 72.5061 325.507 72.3978 325.19 72.289L327.79 64.7232ZM343.853 69.9044C344.168 69.9995 344.484 70.094 344.799 70.1881L342.508 77.8533C342.187 77.7574 341.866 77.6611 341.545 77.5642L343.853 69.9044ZM360.096 74.4446C360.415 74.5268 360.733 74.6084 361.051 74.6895L359.075 82.4416C358.75 82.3588 358.425 82.2755 358.1 82.1918L360.096 74.4446ZM376.501 78.3001C376.822 78.3683 377.143 78.436 377.464 78.5032L375.823 86.3331C375.496 86.2645 375.168 86.1954 374.84 86.1257L376.501 78.3001ZM393.044 81.4253C393.367 81.4786 393.689 81.5315 394.011 81.5838L392.727 89.4801C392.398 89.4267 392.069 89.3727 391.739 89.3181L393.044 81.4253ZM409.69 83.7743C410.012 83.812 410.335 83.8491 410.657 83.8857L409.752 91.8344C409.423 91.797 409.093 91.759 408.763 91.7205L409.69 83.7743ZM426.439 85.3062C426.774 85.3283 427.109 85.3498 427.443 85.3708L426.941 93.3551C426.599 93.3335 426.256 93.3115 425.913 93.2888L426.439 85.3062ZM443.287 85.974C443.619 85.9783 443.95 85.982 444.281 85.9853L444.203 93.9849C443.864 93.9816 443.524 93.9777 443.184 93.9733L443.287 85.974ZM460.089 85.731C460.416 85.7172 460.741 85.7029 461.067 85.6881L461.431 93.6798C461.097 93.695 460.763 93.7097 460.427 93.7239L460.089 85.731ZM476.817 84.5434C477.15 84.51 477.483 84.4761 477.815 84.4416L478.641 92.3989C478.299 92.4343 477.957 92.4692 477.615 92.5036L476.817 84.5434ZM493.497 82.366C493.82 82.3138 494.142 82.2612 494.463 82.2082L495.767 90.1012C495.437 90.1558 495.105 90.2099 494.773 90.2636L493.497 82.366ZM509.963 79.1776C510.288 79.104 510.611 79.0301 510.934 78.9557L512.731 86.7511C512.399 86.8278 512.066 86.904 511.731 86.9798L509.963 79.1776ZM526.154 74.9523C526.477 74.8565 526.799 74.7603 527.12 74.6638L529.425 82.3245C529.094 82.4241 528.761 82.5234 528.428 82.6223L526.154 74.9523ZM542.043 69.6438C542.36 69.5254 542.675 69.4068 542.989 69.288L545.82 76.7705C545.495 76.8933 545.169 77.0159 544.841 77.1384L542.043 69.6438ZM557.539 63.1993C557.84 63.0605 558.139 62.9219 558.435 62.7835L561.819 70.0327C561.511 70.1763 561.201 70.3201 560.889 70.4641L557.539 63.1993ZM572.389 55.5947C572.681 55.4284 572.969 55.2636 573.253 55.1002L577.248 62.031C576.952 62.2019 576.651 62.3744 576.345 62.5482L572.389 55.5947ZM586.182 46.6823C586.294 46.5957 586.376 46.5318 586.426 46.492C586.451 46.472 586.469 46.4581 586.479 46.4503C586.483 46.4464 586.486 46.4441 586.487 46.4433C586.488 46.4429 586.488 46.4429 586.487 46.4433C586.487 46.4435 586.487 46.4438 586.486 46.4442C586.486 46.4443 586.486 46.4446 586.485 46.4448C586.485 46.4449 586.485 46.4451 586.485 46.4452C586.485 46.4453 586.485 46.4453 586.485 46.4454C586.485 46.4454 586.485 46.4455 586.485 46.4455C586.484 46.4456 586.484 46.4456 589 49.5556C591.516 52.6655 591.516 52.6656 591.515 52.6656C591.515 52.6656 591.515 52.6657 591.515 52.6657C591.515 52.6658 591.515 52.6659 591.515 52.666C591.515 52.6661 591.515 52.6663 591.514 52.6665C591.514 52.6668 591.514 52.6672 591.513 52.6676C591.512 52.6684 591.511 52.6692 591.51 52.6702C591.507 52.6722 591.504 52.6745 591.501 52.6773C591.494 52.6828 591.485 52.6899 591.475 52.6985C591.453 52.7157 591.424 52.7391 591.386 52.7685C591.312 52.8274 591.206 52.9103 591.069 53.016L586.182 46.6823ZM587.388 45.8949C587.533 45.8309 587.678 45.7665 587.824 45.7017L591.081 53.0083C590.925 53.078 590.769 53.1473 590.612 53.2162L587.388 45.8949ZM601.496 38.4196C601.768 38.2508 602.04 38.0807 602.311 37.9092L606.584 44.6724C606.295 44.8548 606.006 45.0359 605.717 45.2157L601.496 38.4196ZM614.974 28.8188C615.225 28.616 615.476 28.4121 615.727 28.2072L620.789 34.4023C620.525 34.6182 620.26 34.8331 619.995 35.0468L614.974 28.8188ZM627.356 17.7003C627.587 17.4709 627.818 17.2406 628.048 17.0094L633.716 22.6552C633.475 22.8969 633.234 23.1376 632.993 23.3774L627.356 17.7003ZM638.676 5.40187C638.887 5.15194 639.098 4.90118 639.308 4.6496L645.444 9.78242C645.226 10.0437 645.007 10.3041 644.788 10.5637L638.676 5.40187ZM648.993 -7.81847C649.185 -8.08431 649.377 -8.35087 649.568 -8.61812L656.071 -3.95872C655.873 -3.68257 655.675 -3.40712 655.477 -3.13235L648.993 -7.81847ZM658.375 -21.7688C658.549 -22.047 658.723 -22.3258 658.897 -22.6052L665.692 -18.3825C665.513 -18.0949 665.334 -17.8079 665.154 -17.5214L658.375 -21.7688ZM666.886 -36.3064C667.044 -36.5944 667.201 -36.8828 667.358 -37.1717L674.388 -33.3541C674.227 -33.0576 674.066 -32.7615 673.904 -32.4659L666.886 -36.3064ZM674.583 -51.3239C674.725 -51.6195 674.866 -51.9156 675.007 -52.2122L682.231 -48.7735C682.086 -48.4698 681.941 -48.1666 681.796 -47.8638L674.583 -51.3239ZM681.51 -66.7377C681.637 -67.0396 681.763 -67.3419 681.89 -67.6446L689.273 -64.5639C689.144 -64.2545 689.014 -63.9454 688.884 -63.6366L681.51 -66.7377ZM687.694 -82.4538C687.809 -82.7679 687.924 -83.0824 688.039 -83.3972L695.555 -80.6579C695.438 -80.3364 695.321 -80.0153 695.203 -79.6945L687.694 -82.4538ZM693.166 -98.4167C693.267 -98.7343 693.368 -99.0521 693.469 -99.3703L701.096 -96.9587C700.994 -96.6342 700.891 -96.31 700.788 -95.986L693.166 -98.4167ZM697.961 -114.619C698.049 -114.939 698.136 -115.26 698.223 -115.581L705.945 -113.488C705.856 -113.161 705.767 -112.834 705.678 -112.508L697.961 -114.619ZM702.093 -131.021C702.167 -131.344 702.241 -131.667 702.315 -131.99L710.115 -130.211C710.04 -129.882 709.964 -129.553 709.888 -129.224L702.093 -131.021ZM705.567 -147.587C705.629 -147.912 705.69 -148.237 705.751 -148.562L713.615 -147.094C713.553 -146.762 713.491 -146.431 713.428 -146.1L705.567 -147.587ZM708.387 -164.282C708.436 -164.609 708.484 -164.936 708.532 -165.263L716.448 -164.104C716.399 -163.771 716.35 -163.438 716.3 -163.105L708.387 -164.282ZM710.548 -181.049C710.584 -181.379 710.62 -181.71 710.655 -182.041L718.61 -181.192C718.574 -180.855 718.538 -180.518 718.501 -180.182L710.548 -181.049ZM712.05 -197.893C712.073 -198.224 712.095 -198.555 712.118 -198.886L720.1 -198.352C720.077 -198.014 720.054 -197.677 720.031 -197.34L712.05 -197.893ZM712.883 -214.788C712.892 -215.12 712.902 -215.451 712.911 -215.782L720.908 -215.568C720.899 -215.23 720.889 -214.892 720.879 -214.555L712.883 -214.788ZM713.032 -231.701C713.028 -232.032 713.024 -232.363 713.019 -232.695L721.019 -232.808C721.023 -232.47 721.028 -232.132 721.032 -231.794L713.032 -231.701ZM712.482 -248.596C712.464 -248.927 712.446 -249.258 712.427 -249.589L720.414 -250.038C720.433 -249.7 720.452 -249.362 720.47 -249.025L712.482 -248.596ZM711.211 -265.447C711.179 -265.777 711.147 -266.106 711.114 -266.436L719.074 -267.232C719.108 -266.895 719.141 -266.559 719.174 -266.222L711.211 -265.447ZM709.197 -282.221C709.15 -282.549 709.103 -282.876 709.055 -283.204L716.971 -284.359C717.02 -284.024 717.069 -283.69 717.117 -283.355L709.197 -282.221ZM706.415 -298.874C706.353 -299.199 706.29 -299.524 706.227 -299.849L714.08 -301.376C714.145 -301.044 714.209 -300.711 714.272 -300.379L706.415 -298.874ZM702.839 -315.361C702.76 -315.682 702.682 -316.004 702.603 -316.326L710.371 -318.238C710.452 -317.909 710.532 -317.58 710.612 -317.25L702.839 -315.361ZM698.438 -331.639C698.344 -331.956 698.249 -332.272 698.153 -332.588L705.812 -334.899C705.91 -334.575 706.007 -334.251 706.104 -333.927L698.438 -331.639ZM693.185 -347.658C693.073 -347.969 692.961 -348.28 692.849 -348.59L700.371 -351.314C700.486 -350.996 700.601 -350.677 700.716 -350.358L693.185 -347.658ZM687.057 -363.346C686.928 -363.65 686.798 -363.954 686.668 -364.257L694.023 -367.406C694.156 -367.094 694.289 -366.782 694.422 -366.469L687.057 -363.346ZM680.032 -378.637C679.885 -378.933 679.738 -379.228 679.591 -379.523L686.744 -383.105C686.896 -382.802 687.047 -382.498 687.198 -382.194L680.032 -378.637ZM672.094 -393.465C671.929 -393.751 671.764 -394.036 671.599 -394.321L678.515 -398.342C678.685 -398.048 678.855 -397.754 679.025 -397.46L672.094 -393.465ZM663.234 -407.753C663.052 -408.028 662.868 -408.302 662.684 -408.576L669.325 -413.037C669.515 -412.754 669.704 -412.471 669.893 -412.188L663.234 -407.753ZM653.466 -421.411C653.266 -421.672 653.064 -421.934 652.862 -422.195L659.19 -427.09C659.398 -426.82 659.606 -426.55 659.814 -426.28L653.466 -421.411ZM642.802 -434.37C642.585 -434.616 642.366 -434.863 642.147 -435.109L648.125 -440.426C648.351 -440.172 648.576 -439.917 648.801 -439.662L642.802 -434.37ZM631.264 -446.566C631.031 -446.796 630.797 -447.026 630.562 -447.256L636.155 -452.976C636.398 -452.739 636.64 -452.501 636.881 -452.263L631.264 -446.566ZM618.881 -457.947C618.633 -458.159 618.385 -458.371 618.137 -458.582L623.315 -464.679C623.572 -464.461 623.829 -464.243 624.084 -464.024L618.881 -457.947ZM605.782 -468.398C605.515 -468.596 605.249 -468.793 604.981 -468.99L609.725 -475.432C610.001 -475.229 610.276 -475.025 610.551 -474.821L605.782 -468.398ZM591.994 -477.923C591.716 -478.101 591.438 -478.279 591.16 -478.456L595.454 -485.206C595.741 -485.023 596.028 -484.84 596.315 -484.656L591.994 -477.923ZM577.551 -486.523C577.265 -486.68 576.978 -486.838 576.691 -486.995L580.528 -494.015C580.824 -493.853 581.119 -493.691 581.414 -493.528L577.551 -486.523ZM562.505 -494.195C562.353 -494.266 562.201 -494.337 562.049 -494.408L565.44 -501.654C565.597 -501.581 565.753 -501.508 565.909 -501.434L562.505 -494.195ZM5.57238 -500.795C5.69637 -500.691 5.82075 -500.587 5.9455 -500.483L0.835245 -494.328C0.698992 -494.441 0.563117 -494.555 0.427621 -494.669L5.57238 -500.795ZM18.8427 -491.504C19.1261 -491.338 19.4107 -491.173 19.6966 -491.009L15.7195 -484.068C15.4127 -484.244 15.107 -484.421 14.8026 -484.599L18.8427 -491.504ZM33.9665 -484.064C34.2746 -483.937 34.5838 -483.811 34.894 -483.686L31.9006 -476.267C31.5727 -476.399 31.2457 -476.532 30.9197 -476.667L33.9665 -484.064ZM50.0152 -478.498C50.3387 -478.404 50.663 -478.312 50.988 -478.22L48.8118 -470.522C48.472 -470.618 48.133 -470.715 47.7947 -470.812L50.0152 -478.498ZM66.6161 -474.509C66.9476 -474.444 67.2798 -474.379 67.6127 -474.316L66.1106 -466.458C65.7656 -466.524 65.4212 -466.591 65.0774 -466.658L66.6161 -474.509ZM83.5386 -471.84C83.8751 -471.799 84.2121 -471.758 84.5496 -471.718L83.6101 -463.774C83.2624 -463.815 82.9152 -463.856 82.5684 -463.899L83.5386 -471.84ZM100.644 -470.288C100.982 -470.267 101.32 -470.247 101.659 -470.227L101.198 -462.241C100.85 -462.261 100.503 -462.281 100.156 -462.303L100.644 -470.288ZM117.845 -469.698C118.183 -469.695 118.521 -469.692 118.86 -469.69L118.813 -461.69C118.467 -461.693 118.12 -461.695 117.774 -461.698L117.845 -469.698ZM135.084 -469.952C135.421 -469.965 135.759 -469.978 136.097 -469.991L136.417 -461.998C136.072 -461.984 135.727 -461.971 135.383 -461.958L135.084 -469.952ZM152.318 -470.962C152.655 -470.989 152.991 -471.016 153.328 -471.043L153.979 -463.07C153.636 -463.042 153.293 -463.014 152.95 -462.987L152.318 -470.962ZM169.506 -472.66C169.843 -472.7 170.18 -472.74 170.517 -472.781L171.472 -464.838C171.129 -464.797 170.786 -464.756 170.443 -464.715L169.506 -472.66ZM186.625 -474.996C186.96 -475.048 187.295 -475.1 187.63 -475.153L188.87 -467.25C188.529 -467.196 188.189 -467.143 187.848 -467.09L186.625 -474.996ZM203.661 -477.937C203.994 -478 204.327 -478.064 204.66 -478.128L206.172 -470.272C205.834 -470.207 205.496 -470.142 205.158 -470.078L203.661 -477.937ZM220.587 -481.457C220.918 -481.532 221.249 -481.607 221.58 -481.683L223.356 -473.882C223.02 -473.806 222.684 -473.73 222.348 -473.654L220.587 -481.457ZM237.389 -485.549C237.717 -485.635 238.044 -485.721 238.371 -485.807L240.411 -478.071C240.078 -477.984 239.746 -477.896 239.413 -477.809L237.389 -485.549ZM254.039 -490.209C254.364 -490.306 254.688 -490.404 255.013 -490.501L257.318 -482.841C256.989 -482.742 256.659 -482.643 256.328 -482.544L254.039 -490.209ZM270.502 -495.448C270.825 -495.556 271.147 -495.666 271.468 -495.775L274.048 -488.203C273.721 -488.091 273.393 -487.98 273.066 -487.869L270.502 -495.448ZM286.75 -501.287C286.907 -501.347 287.064 -501.407 287.221 -501.467L290.081 -493.996C289.921 -493.935 289.761 -493.874 289.601 -493.813L286.75 -501.287ZM287.221 -501.467C287.376 -501.527 287.532 -501.586 287.687 -501.646L290.539 -494.171C290.386 -494.113 290.234 -494.055 290.081 -493.996L287.221 -501.467ZM302.542 -506.989C302.857 -507.095 303.172 -507.201 303.487 -507.307L306.03 -499.722C305.721 -499.618 305.413 -499.514 305.104 -499.41L302.542 -506.989ZM318.553 -512.034C318.871 -512.127 319.189 -512.219 319.507 -512.311L321.733 -504.627C321.421 -504.537 321.11 -504.446 320.798 -504.355L318.553 -512.034ZM334.759 -516.404C335.079 -516.483 335.4 -516.562 335.72 -516.64L337.62 -508.869C337.306 -508.792 336.992 -508.715 336.678 -508.637L334.759 -516.404ZM351.127 -520.082C351.449 -520.147 351.77 -520.211 352.092 -520.276L353.659 -512.431C353.344 -512.368 353.029 -512.304 352.714 -512.241L351.127 -520.082ZM367.621 -523.054C367.943 -523.105 368.265 -523.156 368.587 -523.206L369.817 -515.301C369.502 -515.252 369.186 -515.203 368.871 -515.153L367.621 -523.054ZM384.223 -525.316C384.554 -525.353 384.885 -525.391 385.215 -525.428L386.103 -517.477C385.78 -517.441 385.456 -517.404 385.132 -517.367L384.223 -525.316ZM400.96 -526.863C401.289 -526.886 401.618 -526.909 401.946 -526.931L402.49 -518.95C402.168 -518.928 401.846 -518.905 401.524 -518.883L400.96 -526.863ZM417.706 -527.682C418.032 -527.691 418.358 -527.7 418.683 -527.708L418.881 -519.71C418.562 -519.702 418.243 -519.694 417.924 -519.685L417.706 -527.682ZM434.48 -527.777C434.812 -527.771 435.144 -527.766 435.475 -527.759L435.326 -519.761C435.002 -519.767 434.677 -519.772 434.352 -519.778L434.48 -527.777ZM451.253 -527.144C451.579 -527.125 451.904 -527.105 452.229 -527.085L451.734 -519.1C451.416 -519.12 451.097 -519.139 450.778 -519.158L451.253 -527.144ZM467.978 -525.784C468.308 -525.75 468.637 -525.716 468.966 -525.681L468.124 -517.726C467.802 -517.76 467.48 -517.793 467.157 -517.827L467.978 -525.784ZM484.584 -523.704C484.917 -523.655 485.249 -523.605 485.58 -523.555L484.391 -515.644C484.067 -515.693 483.742 -515.741 483.416 -515.789L484.584 -523.704ZM501.155 -520.881C501.473 -520.82 501.789 -520.758 502.105 -520.696L500.565 -512.846C500.256 -512.906 499.947 -512.967 499.636 -513.027L501.155 -520.881ZM517.555 -517.32C517.868 -517.245 518.18 -517.169 518.49 -517.093L516.592 -509.322C516.289 -509.396 515.984 -509.47 515.678 -509.544L517.555 -517.32ZM533.805 -512.982C534.129 -512.887 534.45 -512.792 534.769 -512.697L532.492 -505.028C532.181 -505.121 531.867 -505.213 531.551 -505.306L533.805 -512.982ZM549.81 -507.815C550.135 -507.699 550.456 -507.585 550.772 -507.471L548.07 -499.942C547.763 -500.052 547.452 -500.163 547.136 -500.275L549.81 -507.815ZM565.564 -501.559C565.711 -501.49 565.825 -501.437 565.903 -501.4C565.943 -501.382 565.973 -501.367 565.995 -501.357C566.006 -501.352 566.015 -501.347 566.022 -501.344C566.025 -501.343 566.028 -501.341 566.03 -501.34C566.031 -501.34 566.032 -501.339 566.033 -501.339C566.033 -501.339 566.034 -501.339 566.034 -501.338C566.034 -501.338 566.034 -501.338 566.035 -501.338C566.035 -501.338 566.035 -501.338 566.035 -501.338C566.035 -501.338 566.035 -501.338 566.035 -501.338C566.035 -501.338 566.035 -501.338 564.304 -497.732C562.573 -494.126 562.573 -494.126 562.573 -494.126C562.573 -494.126 562.573 -494.126 562.573 -494.126C562.573 -494.126 562.573 -494.126 562.573 -494.126C562.573 -494.126 562.573 -494.126 562.574 -494.125C562.574 -494.125 562.574 -494.125 562.574 -494.125C562.574 -494.125 562.575 -494.125 562.575 -494.125C562.575 -494.125 562.574 -494.125 562.573 -494.126C562.571 -494.127 562.567 -494.129 562.56 -494.132C562.547 -494.138 562.526 -494.148 562.495 -494.163C562.435 -494.191 562.34 -494.235 562.211 -494.295L565.564 -501.559Z" fill="#565CBD"/>
</g>
<defs>
<clipPath id="clip0_1_2">
<rect width="104" height="35" fill="white" transform="matrix(1 0 0 -1 0 35)"/>
</clipPath>
</defs>
</svg>
