<svg width="88" height="17" viewBox="0 0 88 17" fill="none" xmlns="http://www.w3.org/2000/svg">
<g clip-path="url(#clip0_3_6)">
<path d="M-153.523 -490.486L-152.771 -488.632L-153.523 -490.486ZM155.951 -490.486L154.792 -488.855C154.928 -488.759 155.074 -488.68 155.229 -488.62L155.951 -490.486ZM-144.373 -9.91351L-145.011 -8.0178L-145.011 -8.0178L-144.373 -9.91351ZM129.937 -11.5004C128.915 -11.0806 128.428 -9.91199 128.847 -8.89032C129.267 -7.86865 130.436 -7.38078 131.457 -7.80062L129.937 -11.5004ZM-430.781 -473.025C-429.889 -472.375 -428.638 -472.571 -427.987 -473.464C-427.337 -474.357 -427.533 -475.608 -428.426 -476.258L-430.781 -473.025ZM-415.167 -468.268C-416.156 -468.759 -417.357 -468.356 -417.848 -467.367C-418.34 -466.378 -417.937 -465.177 -416.948 -464.686L-415.167 -468.268ZM-416.043 -464.241C-415.049 -463.759 -413.853 -464.173 -413.37 -465.167C-412.888 -466.161 -413.302 -467.357 -414.296 -467.84L-416.043 -464.241ZM-399.851 -462.015C-400.899 -462.363 -402.031 -461.794 -402.378 -460.746C-402.725 -459.697 -402.157 -458.566 -401.108 -458.218L-399.851 -462.015ZM-400.146 -457.904C-399.095 -457.564 -397.968 -458.141 -397.628 -459.192C-397.288 -460.243 -397.865 -461.37 -398.916 -461.71L-400.146 -457.904ZM-383.798 -457.703C-384.878 -457.932 -385.94 -457.243 -386.17 -456.163C-386.4 -455.082 -385.71 -454.02 -384.63 -453.79L-383.798 -457.703ZM-383.645 -453.583C-382.563 -453.36 -381.505 -454.055 -381.281 -455.137C-381.057 -456.219 -381.753 -457.277 -382.835 -457.501L-383.645 -453.583ZM-367.355 -454.975C-368.452 -455.11 -369.45 -454.331 -369.585 -453.234C-369.72 -452.138 -368.94 -451.14 -367.844 -451.005L-367.355 -454.975ZM-366.86 -450.886C-365.763 -450.756 -364.769 -451.54 -364.639 -452.637C-364.509 -453.734 -365.293 -454.729 -366.39 -454.859L-366.86 -450.886ZM-350.725 -453.542C-351.828 -453.6 -352.768 -452.752 -352.825 -451.649C-352.883 -450.546 -352.035 -449.605 -350.932 -449.548L-350.725 -453.542ZM-349.94 -449.498C-348.836 -449.445 -347.899 -450.296 -347.846 -451.4C-347.793 -452.503 -348.644 -453.44 -349.748 -453.494L-349.94 -449.498ZM-334.016 -453.181C-335.121 -453.174 -336.01 -452.272 -336.003 -451.168C-335.995 -450.063 -335.093 -449.174 -333.989 -449.181L-334.016 -453.181ZM-332.984 -449.19C-331.879 -449.201 -330.993 -450.105 -331.004 -451.21C-331.015 -452.314 -331.92 -453.201 -333.024 -453.19L-332.984 -449.19ZM-317.294 -453.725C-318.397 -453.662 -319.24 -452.717 -319.177 -451.614C-319.114 -450.511 -318.17 -449.668 -317.067 -449.731L-317.294 -453.725ZM-316.068 -449.789C-314.966 -449.855 -314.125 -450.802 -314.191 -451.905C-314.257 -453.007 -315.204 -453.848 -316.307 -453.782L-316.068 -449.789ZM-300.597 -455.048C-301.696 -454.937 -302.497 -453.956 -302.386 -452.857C-302.276 -451.758 -301.295 -450.957 -300.196 -451.068L-300.597 -455.048ZM-299.205 -451.169C-298.106 -451.282 -297.307 -452.265 -297.421 -453.363C-297.534 -454.462 -298.517 -455.261 -299.615 -455.148L-299.205 -451.169ZM-283.952 -457.056C-285.046 -456.903 -285.808 -455.892 -285.655 -454.798C-285.502 -453.704 -284.491 -452.942 -283.397 -453.095L-283.952 -457.056ZM-282.414 -453.234C-281.32 -453.389 -280.56 -454.402 -280.715 -455.495C-280.871 -456.589 -281.883 -457.349 -282.977 -457.194L-282.414 -453.234ZM-267.383 -459.679C-268.471 -459.487 -269.197 -458.45 -269.006 -457.362C-268.814 -456.274 -267.777 -455.548 -266.689 -455.739L-267.383 -459.679ZM-265.712 -455.912C-264.624 -456.106 -263.9 -457.145 -264.093 -458.232C-264.287 -459.32 -265.326 -460.044 -266.413 -459.85L-265.712 -455.912ZM-250.918 -462.858C-252 -462.631 -252.692 -461.571 -252.465 -460.49C-252.238 -459.409 -251.178 -458.716 -250.097 -458.943L-250.918 -462.858ZM-249.123 -459.148C-248.043 -459.377 -247.352 -460.438 -247.581 -461.519C-247.81 -462.6 -248.871 -463.29 -249.952 -463.061L-249.123 -459.148ZM-234.552 -466.556C-235.625 -466.297 -236.285 -465.216 -236.025 -464.142C-235.765 -463.069 -234.684 -462.409 -233.611 -462.669L-234.552 -466.556ZM-232.645 -462.903C-231.572 -463.165 -230.914 -464.247 -231.176 -465.32C-231.438 -466.393 -232.52 -467.051 -233.593 -466.789L-232.645 -462.903ZM-218.302 -470.745C-219.368 -470.453 -219.996 -469.353 -219.704 -468.288C-219.413 -467.222 -218.313 -466.595 -217.248 -466.886L-218.302 -470.745ZM-216.288 -467.149C-215.223 -467.443 -214.598 -468.543 -214.891 -469.608C-215.184 -470.673 -216.285 -471.299 -217.35 -471.006L-216.288 -467.149ZM-202.179 -475.404C-203.236 -475.082 -203.831 -473.965 -203.509 -472.908C-203.187 -471.851 -202.07 -471.256 -201.013 -471.578L-202.179 -475.404ZM-200.064 -471.868C-199.008 -472.191 -198.414 -473.31 -198.738 -474.366C-199.062 -475.422 -200.18 -476.016 -201.236 -475.692L-200.064 -471.868ZM-186.194 -480.526C-187.241 -480.174 -187.804 -479.039 -187.452 -477.993C-187.1 -476.946 -185.966 -476.382 -184.919 -476.735L-186.194 -480.526ZM-183.977 -477.052C-182.931 -477.406 -182.369 -478.541 -182.723 -479.588C-183.077 -480.634 -184.212 -481.195 -185.259 -480.841L-183.977 -477.052ZM-170.372 -486.106C-171.408 -485.723 -171.938 -484.573 -171.555 -483.537C-171.172 -482.501 -170.022 -481.971 -168.986 -482.354L-170.372 -486.106ZM-168.051 -482.7C-167.015 -483.085 -166.488 -484.236 -166.872 -485.271C-167.257 -486.307 -168.408 -486.835 -169.443 -486.45L-168.051 -482.7ZM-154.729 -492.155C-155.753 -491.741 -156.248 -490.575 -155.833 -489.551C-155.419 -488.527 -154.253 -488.033 -153.229 -488.447L-154.729 -492.155ZM-152.304 -488.822C-151.28 -489.236 -150.786 -490.402 -151.2 -491.426C-151.615 -492.45 -152.781 -492.944 -153.805 -492.53L-152.304 -488.822ZM-138.915 -498.315C-139.95 -497.93 -140.477 -496.778 -140.091 -495.743C-139.706 -494.708 -138.554 -494.181 -137.519 -494.567L-138.915 -498.315ZM-136.606 -494.906C-135.57 -495.289 -135.041 -496.44 -135.425 -497.476C-135.809 -498.512 -136.959 -499.04 -137.995 -498.657L-136.606 -494.906ZM-122.941 -503.984C-123.987 -503.631 -124.55 -502.496 -124.197 -501.45C-123.844 -500.403 -122.709 -499.841 -121.663 -500.193L-122.941 -503.984ZM-120.735 -500.505C-119.688 -500.856 -119.124 -501.99 -119.475 -503.037C-119.826 -504.084 -120.959 -504.649 -122.007 -504.298L-120.735 -500.505ZM-106.803 -509.135C-107.861 -508.816 -108.46 -507.701 -108.142 -506.643C-107.823 -505.586 -106.708 -504.986 -105.65 -505.305L-106.803 -509.135ZM-104.711 -505.587C-103.652 -505.903 -103.051 -507.017 -103.367 -508.076C-103.684 -509.134 -104.798 -509.735 -105.856 -509.419L-104.711 -505.587ZM-90.5053 -513.739C-91.5733 -513.458 -92.2107 -512.363 -91.9289 -511.295C-91.6472 -510.227 -90.5529 -509.59 -89.4849 -509.872L-90.5053 -513.739ZM-88.535 -510.121C-87.4664 -510.401 -86.8268 -511.494 -87.1063 -512.562C-87.3859 -513.631 -88.4788 -514.271 -89.5474 -513.991L-88.535 -510.121ZM-74.055 -517.765C-75.1326 -517.522 -75.8092 -516.451 -75.5663 -515.374C-75.3234 -514.296 -74.2529 -513.62 -73.1754 -513.863L-74.055 -517.765ZM-72.2173 -514.078C-71.1392 -514.318 -70.4603 -515.387 -70.7009 -516.465C-70.9415 -517.543 -72.0104 -518.222 -73.0885 -517.982L-72.2173 -514.078ZM-57.4666 -521.177C-58.5526 -520.975 -59.2694 -519.931 -59.0677 -518.845C-58.8659 -517.759 -57.822 -517.042 -56.736 -517.244L-57.4666 -521.177ZM-55.7723 -517.422C-54.6859 -517.621 -53.9667 -518.664 -54.166 -519.75C-54.3652 -520.836 -55.4075 -521.556 -56.494 -521.356L-55.7723 -517.422ZM-40.761 -523.939C-41.8542 -523.781 -42.6121 -522.767 -42.4538 -521.674C-42.2956 -520.58 -41.2811 -519.822 -40.1879 -519.981L-40.761 -523.939ZM-39.2216 -520.119C-38.128 -520.275 -37.3677 -521.288 -37.5234 -522.381C-37.6791 -523.475 -38.6917 -524.235 -39.7853 -524.08L-39.2216 -520.119ZM-23.9668 -526.016C-25.0656 -525.904 -25.8653 -524.922 -25.7528 -523.823C-25.6404 -522.724 -24.6585 -521.925 -23.5596 -522.037L-23.9668 -526.016ZM-22.5941 -522.135C-21.495 -522.244 -20.6929 -523.224 -20.8026 -524.323C-20.9123 -525.422 -21.8923 -526.224 -22.9914 -526.115L-22.5941 -522.135ZM-7.07911 -527.374C-8.18181 -527.31 -9.0237 -526.364 -8.95953 -525.261C-8.89535 -524.158 -7.94941 -523.316 -6.84671 -523.381L-7.07911 -527.374ZM-5.84536 -523.437C-4.74249 -523.499 -3.89806 -524.442 -3.95927 -525.545C-4.02049 -526.648 -4.96416 -527.493 -6.06704 -527.431L-5.84536 -523.437ZM9.91004 -527.974C8.80555 -527.96 7.92103 -527.054 7.9344 -525.95C7.94778 -524.845 8.85399 -523.961 9.95847 -523.974L9.91004 -527.974ZM10.9504 -523.985C12.0549 -523.995 12.942 -524.899 12.9317 -526.003C12.9214 -527.108 12.0176 -527.995 10.9131 -527.984L10.9504 -523.985ZM26.8698 -527.775C25.766 -527.814 24.839 -526.952 24.7993 -525.848C24.7597 -524.744 25.6224 -523.817 26.7262 -523.777L26.8698 -527.775ZM27.7034 -523.741C28.8071 -523.698 29.7366 -524.558 29.7794 -525.662C29.8222 -526.766 28.9622 -527.695 27.8584 -527.738L27.7034 -523.741ZM43.7597 -526.747C42.6592 -526.842 41.6901 -526.027 41.5953 -524.926C41.5004 -523.826 42.3157 -522.857 43.4161 -522.762L43.7597 -526.747ZM44.4163 -522.674C45.5165 -522.576 46.4881 -523.388 46.5863 -524.489C46.6845 -525.589 45.8723 -526.56 44.7721 -526.658L44.4163 -522.674ZM60.6715 -524.843C59.5776 -524.996 58.567 -524.233 58.4143 -523.139C58.2616 -522.045 59.0247 -521.034 60.1186 -520.882L60.6715 -524.843ZM61.0892 -520.745C62.1827 -520.588 63.1957 -521.348 63.3518 -522.442C63.5079 -523.535 62.748 -524.548 61.6545 -524.704L61.0892 -520.745ZM77.3911 -522.043C76.3071 -522.255 75.2561 -521.549 75.0435 -520.465C74.8309 -519.381 75.5372 -518.33 76.6211 -518.118L77.3911 -522.043ZM77.601 -517.924C78.6842 -517.707 79.7376 -518.41 79.9539 -519.493C80.1702 -520.576 79.4674 -521.63 78.3842 -521.846L77.601 -517.924ZM93.9213 -518.304C92.8515 -518.579 91.7613 -517.935 91.4862 -516.865C91.2111 -515.796 91.8553 -514.705 92.9251 -514.43L93.9213 -518.304ZM93.8897 -514.18C94.9585 -513.901 96.051 -514.542 96.3299 -515.61C96.6089 -516.679 95.9685 -517.772 94.8998 -518.051L93.8897 -514.18ZM110.241 -513.57C109.19 -513.911 108.062 -513.336 107.721 -512.285C107.38 -511.234 107.956 -510.106 109.006 -509.765L110.241 -513.57ZM109.95 -509.457C111 -509.112 112.13 -509.683 112.475 -510.733C112.82 -511.782 112.249 -512.912 111.199 -513.257L109.95 -509.457ZM126.269 -507.771C125.244 -508.183 124.08 -507.685 123.668 -506.66C123.256 -505.635 123.754 -504.471 124.779 -504.059L126.269 -507.771ZM125.704 -503.686C126.727 -503.27 127.894 -503.762 128.31 -504.785C128.726 -505.808 128.233 -506.975 127.21 -507.391L125.704 -503.686ZM141.803 -500.835C140.813 -501.326 139.613 -500.923 139.122 -499.933C138.631 -498.944 139.034 -497.744 140.024 -497.253L141.803 -500.835ZM140.927 -496.801C141.913 -496.304 143.116 -496.701 143.612 -497.688C144.109 -498.675 143.712 -499.877 142.725 -500.374L140.927 -496.801ZM156.687 -492.407C155.773 -493.026 154.529 -492.787 153.91 -491.872C153.291 -490.957 153.53 -489.714 154.444 -489.095L156.687 -492.407ZM155.68 -488.445C156.709 -488.042 157.869 -488.549 158.272 -489.578C158.675 -490.606 158.167 -491.767 157.139 -492.17L155.68 -488.445ZM171.735 -485.326C170.766 -485.857 169.551 -485.502 169.02 -484.533C168.489 -483.564 168.844 -482.349 169.813 -481.818L171.735 -485.326ZM170.663 -481.348C171.628 -480.81 172.846 -481.156 173.384 -482.121C173.922 -483.086 173.576 -484.304 172.611 -484.842L170.663 -481.348ZM186.197 -476.21C185.299 -476.853 184.049 -476.646 183.407 -475.747C182.764 -474.849 182.971 -473.6 183.87 -472.957L186.197 -476.21ZM184.662 -472.386C185.556 -471.738 186.807 -471.937 187.455 -472.831C188.104 -473.725 187.904 -474.976 187.01 -475.624L184.662 -472.386ZM199.536 -465.546C198.71 -466.279 197.445 -466.204 196.713 -465.377C195.98 -464.551 196.056 -463.287 196.882 -462.554L199.536 -465.546ZM197.614 -461.9C198.437 -461.163 199.701 -461.231 200.439 -462.054C201.176 -462.876 201.108 -464.14 200.286 -464.878L197.614 -461.9ZM211.758 -453.642C211.002 -454.448 209.736 -454.488 208.931 -453.732C208.126 -452.976 208.086 -451.71 208.842 -450.905L211.758 -453.642ZM209.515 -450.184C210.266 -449.375 211.532 -449.329 212.341 -450.081C213.15 -450.833 213.197 -452.098 212.445 -452.907L209.515 -450.184ZM222.902 -440.745C222.213 -441.609 220.955 -441.751 220.091 -441.063C219.228 -440.374 219.085 -439.116 219.774 -438.252L222.902 -440.745ZM220.388 -437.478C221.073 -436.611 222.33 -436.463 223.197 -437.148C224.064 -437.832 224.212 -439.09 223.527 -439.957L220.388 -437.478ZM233.018 -427.047C232.394 -427.958 231.149 -428.191 230.238 -427.567C229.327 -426.943 229.094 -425.698 229.718 -424.787L233.018 -427.047ZM230.276 -423.969C230.896 -423.055 232.14 -422.817 233.054 -423.438C233.967 -424.058 234.205 -425.302 233.585 -426.216L230.276 -423.969ZM242.159 -412.695C241.596 -413.645 240.369 -413.96 239.419 -413.397C238.468 -412.834 238.154 -411.607 238.717 -410.657L242.159 -412.695ZM239.22 -409.804C239.779 -408.852 241.005 -408.533 241.957 -409.092C242.91 -409.651 243.228 -410.877 242.669 -411.829L239.22 -409.804ZM250.37 -397.804C249.866 -398.786 248.66 -399.175 247.678 -398.67C246.695 -398.166 246.307 -396.961 246.811 -395.978L250.37 -397.804ZM247.261 -395.097C247.762 -394.112 248.966 -393.72 249.95 -394.221C250.935 -394.722 251.327 -395.926 250.826 -396.91L247.261 -395.097ZM257.69 -382.463C257.242 -383.473 256.061 -383.929 255.051 -383.481C254.041 -383.034 253.585 -381.852 254.033 -380.843L257.69 -382.463ZM254.432 -379.938C254.876 -378.927 256.056 -378.467 257.067 -378.911C258.078 -379.355 258.538 -380.535 258.094 -381.546L254.432 -379.938ZM264.148 -366.744C263.756 -367.777 262.6 -368.296 261.568 -367.904C260.535 -367.512 260.016 -366.357 260.408 -365.324L264.148 -366.744ZM260.758 -364.4C261.147 -363.366 262.3 -362.844 263.334 -363.233C264.368 -363.622 264.89 -364.775 264.501 -365.809L260.758 -364.4ZM269.764 -350.709C269.426 -351.76 268.3 -352.339 267.248 -352.001C266.196 -351.663 265.618 -350.536 265.956 -349.485L269.764 -350.709ZM266.257 -348.545C266.592 -347.492 267.716 -346.91 268.769 -347.245C269.821 -347.58 270.403 -348.705 270.068 -349.758L266.257 -348.545ZM274.551 -334.408C274.267 -335.475 273.171 -336.11 272.104 -335.826C271.036 -335.541 270.402 -334.445 270.686 -333.378L274.551 -334.408ZM270.938 -332.425C271.22 -331.357 272.314 -330.719 273.382 -331C274.45 -331.281 275.088 -332.375 274.807 -333.443L270.938 -332.425ZM278.514 -317.888C278.283 -318.968 277.22 -319.657 276.14 -319.426C275.06 -319.195 274.371 -318.132 274.602 -317.052L278.514 -317.888ZM274.806 -316.088C275.034 -315.007 276.095 -314.316 277.176 -314.543C278.257 -314.771 278.948 -315.832 278.721 -316.913L274.806 -316.088ZM281.65 -301.192C281.473 -302.282 280.445 -303.023 279.355 -302.846C278.265 -302.669 277.524 -301.642 277.701 -300.552L281.65 -301.192ZM277.858 -299.579C278.031 -298.488 279.056 -297.745 280.147 -297.918C281.238 -298.092 281.981 -299.117 281.808 -300.208L277.858 -299.579ZM283.951 -284.362C283.828 -285.46 282.839 -286.25 281.742 -286.128C280.644 -286.006 279.853 -285.017 279.975 -283.919L283.951 -284.362ZM280.083 -282.94C280.202 -281.842 281.188 -281.048 282.287 -281.167C283.385 -281.286 284.178 -282.272 284.06 -283.371L280.083 -282.94ZM285.403 -267.442C285.336 -268.544 284.389 -269.384 283.286 -269.318C282.184 -269.251 281.344 -268.303 281.41 -267.201L285.403 -267.442ZM281.468 -266.214C281.531 -265.111 282.477 -264.268 283.579 -264.331C284.682 -264.394 285.525 -265.34 285.462 -266.442L281.468 -266.214ZM285.988 -250.468C285.979 -251.573 285.076 -252.461 283.971 -252.451C282.867 -252.442 281.979 -251.539 281.988 -250.434L285.988 -250.468ZM281.995 -249.447C282.001 -248.342 282.902 -247.451 284.006 -247.457C285.111 -247.463 286.001 -248.364 285.995 -249.468L281.995 -249.447ZM285.683 -233.483C285.732 -234.586 284.878 -235.521 283.774 -235.57C282.671 -235.619 281.736 -234.765 281.687 -233.661L285.683 -233.483ZM281.641 -232.675C281.588 -231.572 282.44 -230.635 283.543 -230.582C284.646 -230.529 285.584 -231.381 285.637 -232.484L281.641 -232.675ZM284.459 -216.534C284.569 -217.633 283.767 -218.613 282.668 -218.723C281.569 -218.833 280.589 -218.032 280.479 -216.932L284.459 -216.534ZM280.379 -215.951C280.265 -214.852 281.064 -213.869 282.163 -213.756C283.261 -213.642 284.244 -214.441 284.358 -215.539L280.379 -215.951ZM282.287 -199.677C282.46 -200.768 281.715 -201.792 280.624 -201.965C279.533 -202.138 278.509 -201.393 278.336 -200.302L282.287 -199.677ZM278.18 -199.328C278.004 -198.238 278.745 -197.211 279.835 -197.035C280.926 -196.858 281.953 -197.599 282.129 -198.69L278.18 -199.328ZM279.135 -182.972C279.372 -184.051 278.69 -185.118 277.611 -185.355C276.533 -185.592 275.466 -184.91 275.228 -183.831L279.135 -182.972ZM275.015 -182.868C274.774 -181.791 275.452 -180.721 276.53 -180.48C277.608 -180.239 278.677 -180.918 278.919 -181.995L275.015 -182.868ZM274.973 -166.485C275.277 -167.547 274.662 -168.654 273.6 -168.958C272.538 -169.262 271.431 -168.647 271.127 -167.585L274.973 -166.485ZM270.855 -166.638C270.547 -165.577 271.158 -164.468 272.219 -164.16C273.279 -163.852 274.389 -164.463 274.696 -165.524L270.855 -166.638ZM269.774 -150.29C270.145 -151.33 269.604 -152.474 268.563 -152.846C267.523 -153.218 266.379 -152.676 266.007 -151.636L269.774 -150.29ZM265.674 -150.709C265.298 -149.671 265.836 -148.524 266.874 -148.148C267.913 -147.772 269.06 -148.31 269.435 -149.349L265.674 -150.709ZM263.514 -134.464C263.955 -135.477 263.491 -136.656 262.478 -137.096C261.466 -137.537 260.287 -137.074 259.846 -136.061L263.514 -134.464ZM259.452 -135.16C259.007 -134.149 259.466 -132.969 260.477 -132.524C261.488 -132.079 262.668 -132.538 263.113 -133.549L259.452 -135.16ZM256.186 -119.107C256.697 -120.087 256.316 -121.295 255.337 -121.805C254.357 -122.315 253.149 -121.935 252.639 -120.955L256.186 -119.107ZM252.181 -120.081C251.667 -119.103 252.042 -117.894 253.02 -117.38C253.997 -116.865 255.206 -117.241 255.721 -118.218L252.181 -120.081ZM247.792 -104.308C248.371 -105.248 248.078 -106.48 247.138 -107.059C246.197 -107.638 244.965 -107.346 244.386 -106.405L247.792 -104.308ZM243.867 -105.566C243.284 -104.628 243.571 -103.394 244.509 -102.811C245.447 -102.228 246.681 -102.516 247.264 -103.454L243.867 -105.566ZM238.348 -90.1552C238.994 -91.0509 238.792 -92.301 237.896 -92.9475C237.001 -93.5939 235.751 -93.3919 235.104 -92.4963L238.348 -90.1552ZM234.525 -91.6979C233.875 -90.805 234.071 -89.5541 234.964 -88.9037C235.857 -88.2533 237.108 -88.4499 237.758 -89.3427L234.525 -91.6979ZM227.885 -76.7357C228.596 -77.581 228.487 -78.8426 227.641 -79.5536C226.796 -80.2646 225.534 -80.1558 224.823 -79.3105L227.885 -76.7357ZM224.188 -78.5586C223.474 -77.7164 223.577 -76.4543 224.419 -75.7396C225.261 -75.0249 226.523 -75.1283 227.238 -75.9704L224.188 -78.5586ZM216.45 -64.1235C217.221 -64.9137 217.206 -66.1799 216.416 -66.9517C215.626 -67.7235 214.36 -67.7085 213.588 -66.9183L216.45 -64.1235ZM212.901 -66.218C212.126 -65.4312 212.135 -64.1649 212.922 -63.3897C213.709 -62.6145 214.975 -62.624 215.751 -63.4109L212.901 -66.218ZM204.1 -52.3781C204.928 -53.1095 205.006 -54.3734 204.275 -55.2012C203.543 -56.0289 202.279 -56.1071 201.452 -55.3758L204.1 -52.3781ZM200.719 -54.7315C199.888 -54.0037 199.805 -52.7401 200.533 -51.9092C201.261 -51.0784 202.524 -50.9948 203.355 -51.7226L200.719 -54.7315ZM190.923 -41.5592C191.801 -42.2291 191.97 -43.4841 191.3 -44.3624C190.63 -45.2406 189.375 -45.4096 188.497 -44.7398L190.923 -41.5592ZM187.703 -44.137C186.822 -43.4709 186.648 -42.2166 187.314 -41.3355C187.98 -40.4544 189.234 -40.2801 190.116 -40.9462L187.703 -44.137ZM177.084 -31.7504C178.007 -32.3577 178.263 -33.5979 177.655 -34.5206C177.048 -35.4432 175.808 -35.6989 174.885 -35.0916L177.084 -31.7504ZM174.054 -34.5467C173.128 -33.9431 172.868 -32.7039 173.471 -31.7788C174.075 -30.8537 175.314 -30.593 176.239 -31.1965L174.054 -34.5467ZM162.599 -22.8988C163.56 -23.4433 163.898 -24.6637 163.353 -25.6248C162.809 -26.5859 161.588 -26.9236 160.627 -26.3791L162.599 -22.8988ZM159.768 -25.8945C158.805 -25.3537 158.462 -24.1346 159.003 -23.1714C159.544 -22.2083 160.763 -21.8659 161.726 -22.4066L159.768 -25.8945ZM147.526 -14.9871C148.52 -15.4694 148.934 -16.666 148.452 -17.6597C147.969 -18.6534 146.773 -19.0679 145.779 -18.5856L147.526 -14.9871ZM144.901 -18.1611C143.905 -17.6824 143.486 -16.4873 143.965 -15.4919C144.444 -14.4965 145.639 -14.0776 146.634 -14.5563L144.901 -18.1611ZM131.93 -7.99542C132.951 -8.41705 133.437 -9.58647 133.015 -10.6074C132.594 -11.6283 131.424 -12.1142 130.403 -11.6926L131.93 -7.99542ZM-428.417 -8.59423C-427.524 -9.24479 -427.328 -10.4958 -427.979 -11.3885C-428.629 -12.2811 -429.88 -12.4774 -430.773 -11.8268L-428.417 -8.59423ZM-416.63 -20.4292C-417.615 -19.9286 -418.007 -18.7247 -417.507 -17.74C-417.006 -16.7554 -415.802 -16.3629 -414.818 -16.8634L-416.63 -20.4292ZM-413.925 -17.3124C-412.936 -17.8044 -412.533 -19.005 -413.025 -19.9939C-413.517 -20.9828 -414.718 -21.3856 -415.707 -20.8936L-413.925 -17.3124ZM-400.5 -27.3095C-401.54 -26.9391 -402.084 -25.7951 -401.713 -24.7546C-401.343 -23.714 -400.199 -23.1708 -399.158 -23.5413L-400.5 -27.3095ZM-398.202 -23.878C-397.159 -24.2417 -396.609 -25.382 -396.972 -26.425C-397.336 -27.468 -398.476 -28.0187 -399.519 -27.655L-398.202 -23.878ZM-383.746 -32.3282C-384.818 -32.0612 -385.47 -30.9759 -385.203 -29.904C-384.936 -28.8322 -383.851 -28.1798 -382.779 -28.4468L-383.746 -32.3282ZM-381.8 -28.6882C-380.726 -28.9498 -380.069 -30.0318 -380.33 -31.1049C-380.592 -32.1781 -381.674 -32.836 -382.747 -32.5744L-381.8 -28.6882ZM-366.666 -35.8653C-367.755 -35.6816 -368.489 -34.6497 -368.306 -33.5605C-368.122 -32.4713 -367.09 -31.7373 -366.001 -31.921L-366.666 -35.8653ZM-365.014 -32.0854C-363.924 -32.2648 -363.186 -33.2937 -363.365 -34.3836C-363.544 -35.4735 -364.573 -36.2117 -365.663 -36.0324L-365.014 -32.0854ZM-349.419 -38.2038C-350.517 -38.0886 -351.315 -37.1048 -351.2 -36.0062C-351.084 -34.9077 -350.101 -34.1104 -349.002 -34.2255L-349.419 -38.2038ZM-347.997 -34.3291C-346.898 -34.4406 -346.098 -35.4218 -346.209 -36.5207C-346.321 -37.6196 -347.302 -38.4202 -348.401 -38.3087L-347.997 -34.3291ZM-332.089 -39.5482C-333.192 -39.4909 -334.04 -38.5503 -333.983 -37.4472C-333.925 -36.3441 -332.985 -35.4963 -331.882 -35.5535L-332.089 -39.5482ZM-330.865 -35.6048C-329.762 -35.6589 -328.911 -36.5971 -328.965 -37.7003C-329.019 -38.8036 -329.957 -39.6541 -331.061 -39.6L-330.865 -35.6048ZM-314.725 -40.0459C-315.83 -40.0388 -316.719 -39.1375 -316.712 -38.033C-316.705 -36.9284 -315.804 -36.0388 -314.699 -36.046L-314.725 -40.0459ZM-313.684 -36.0513C-312.58 -36.0558 -311.688 -36.9548 -311.692 -38.0593C-311.697 -39.1639 -312.596 -40.0557 -313.7 -40.0513L-313.684 -36.0513ZM-297.36 -39.8041C-298.464 -39.8412 -299.389 -38.9763 -299.426 -37.8724C-299.463 -36.7685 -298.598 -35.8434 -297.494 -35.8063L-297.36 -39.8041ZM-296.483 -35.7712C-295.379 -35.7316 -294.452 -36.5944 -294.412 -37.6982C-294.373 -38.8021 -295.235 -39.729 -296.339 -39.7686L-296.483 -35.7712ZM-280.018 -38.9011C-281.12 -38.9782 -282.076 -38.1475 -282.153 -37.0457C-282.23 -35.9438 -281.399 -34.988 -280.297 -34.9109L-280.018 -38.9011ZM-279.289 -34.8393C-278.188 -34.7599 -277.23 -35.5886 -277.151 -36.6903C-277.071 -37.7921 -277.9 -38.7495 -279.002 -38.8289L-279.289 -34.8393ZM-262.729 -37.3957C-263.828 -37.5098 -264.811 -36.7116 -264.925 -35.6129C-265.039 -34.5142 -264.241 -33.5311 -263.142 -33.4171L-262.729 -37.3957ZM-262.132 -33.3113C-261.034 -33.1951 -260.049 -33.9915 -259.933 -35.0899C-259.817 -36.1883 -260.613 -37.173 -261.712 -37.2891L-262.132 -33.3113ZM-245.505 -35.3298C-246.599 -35.4785 -247.607 -34.7118 -247.756 -33.6173C-247.904 -32.5228 -247.138 -31.5149 -246.043 -31.3662L-245.505 -35.3298ZM-245.039 -31.2288C-243.945 -31.0781 -242.936 -31.843 -242.785 -32.9372C-242.634 -34.0314 -243.399 -35.0407 -244.493 -35.1914L-245.039 -31.2288ZM-228.351 -32.7308C-229.44 -32.9128 -230.471 -32.1772 -230.653 -31.0877C-230.835 -29.9982 -230.099 -28.9675 -229.01 -28.7855L-228.351 -32.7308ZM-228.01 -28.6176C-226.921 -28.4337 -225.889 -29.1675 -225.705 -30.2567C-225.521 -31.3458 -226.255 -32.3779 -227.344 -32.5618L-228.01 -28.6176ZM-211.288 -29.6171C-212.372 -29.8316 -213.424 -29.1271 -213.638 -28.0436C-213.853 -26.96 -213.148 -25.9078 -212.065 -25.6932L-211.288 -29.6171ZM-211.07 -25.4954C-209.987 -25.279 -208.934 -25.9816 -208.717 -27.0648C-208.501 -28.1479 -209.203 -29.2015 -210.286 -29.4179L-211.07 -25.4954ZM-194.319 -25.9928C-195.396 -26.2397 -196.469 -25.5671 -196.716 -24.4905C-196.963 -23.4139 -196.29 -22.341 -195.214 -22.094L-194.319 -25.9928ZM-194.228 -21.8669C-193.151 -21.6181 -192.077 -22.2887 -191.828 -23.3649C-191.58 -24.4411 -192.25 -25.5152 -193.326 -25.7641L-194.228 -21.8669ZM-177.469 -21.8554C-178.537 -22.1353 -179.63 -21.4961 -179.91 -20.4276C-180.19 -19.3591 -179.551 -18.2659 -178.483 -17.986L-177.469 -21.8554ZM-177.502 -17.7282C-176.434 -17.4462 -175.34 -18.0834 -175.058 -19.1514C-174.776 -20.2194 -175.413 -21.3137 -176.481 -21.5957L-177.502 -17.7282ZM-160.761 -17.1913C-161.82 -17.5056 -162.934 -16.902 -163.248 -15.8431C-163.562 -14.7842 -162.959 -13.6709 -161.9 -13.3566L-160.761 -17.1913ZM-160.925 -13.0663C-159.867 -12.7499 -158.752 -13.3513 -158.436 -14.4096C-158.12 -15.4679 -158.721 -16.5823 -159.779 -16.8987L-160.925 -13.0663ZM-144.216 -11.9704C-145.263 -12.3213 -146.397 -11.7568 -146.748 -10.7094C-147.099 -9.66206 -146.534 -8.52855 -145.487 -8.17765L-144.216 -11.9704ZM-144.543 -7.86074C-143.495 -7.50987 -142.362 -8.07449 -142.011 -9.12186C-141.66 -10.1692 -142.225 -11.3027 -143.272 -11.6536L-144.543 -7.86074ZM-128.511 -6.99351C-129.57 -7.30755 -130.683 -6.70364 -130.997 -5.64466C-131.311 -4.58567 -130.707 -3.47261 -129.648 -3.15858L-128.511 -6.99351ZM-128.703 -2.87953C-127.643 -2.56784 -126.532 -3.1742 -126.22 -4.23389C-125.908 -5.29357 -126.515 -6.40528 -127.574 -6.71697L-128.703 -2.87953ZM-112.649 -2.61095C-113.719 -2.8851 -114.809 -2.23992 -115.083 -1.16991C-115.357 -0.0999048 -114.712 0.989747 -113.642 1.26389L-112.649 -2.61095ZM-112.69 1.50657C-111.619 1.77834 -110.531 1.13074 -110.259 0.0601272C-109.988 -1.01049 -110.635 -2.0987 -111.706 -2.37047L-112.69 1.50657ZM-96.6388 1.17128C-97.7184 0.937638 -98.783 1.6234 -99.0166 2.70298C-99.2502 3.78256 -98.5645 4.84713 -97.4849 5.08077L-96.6388 1.17128ZM-96.5286 5.28662C-95.4485 5.51785 -94.3855 4.82972 -94.1542 3.74963C-93.923 2.66953 -94.6111 1.60649 -95.6912 1.37525L-96.5286 5.28662ZM-80.5074 4.34468C-81.595 4.15201 -82.6329 4.87752 -82.8256 5.96515C-83.0182 7.05279 -82.2927 8.09068 -81.2051 8.28336L-80.5074 4.34468ZM-80.2464 8.45209C-79.1584 8.64235 -78.1221 7.91454 -77.9318 6.82648C-77.7416 5.73842 -78.4694 4.70214 -79.5574 4.51188L-80.2464 8.45209ZM-64.2838 6.90324C-65.3779 6.75184 -66.3876 7.51609 -66.539 8.61024C-66.6904 9.70438 -65.9262 10.7141 -64.832 10.8655L-64.2838 6.90324ZM-63.8735 10.997C-62.779 11.146 -61.771 10.3795 -61.622 9.28507C-61.473 8.19059 -62.2395 7.18257 -63.334 7.03359L-63.8735 10.997ZM-47.9748 8.84609C-49.0739 8.73621 -50.0539 9.53812 -50.1638 10.6372C-50.2737 11.7363 -49.4718 12.7164 -48.3727 12.8262L-47.9748 8.84609ZM-47.3914 12.9232C-46.2921 13.0306 -45.3138 12.2265 -45.2064 11.1272C-45.099 10.0278 -45.9031 9.04959 -47.0025 8.94219L-47.3914 12.9232ZM-31.5606 10.1731C-32.6631 10.105 -33.612 10.9435 -33.6801 12.046C-33.7482 13.1484 -32.9097 14.0974 -31.8072 14.1655L-31.5606 10.1731ZM-30.8314 14.2247C-29.7288 14.2904 -28.7817 13.4497 -28.7161 12.3471C-28.6504 11.2445 -29.4911 10.2974 -30.5937 10.2318L-30.8314 14.2247ZM-15.1472 10.876C-16.2514 10.8496 -17.168 11.7234 -17.1944 12.8276C-17.2208 13.9319 -16.347 14.8484 -15.2427 14.8748L-15.1472 10.876ZM-14.276 14.8969C-13.1717 14.9208 -12.2571 14.045 -12.2331 12.9407C-12.2092 11.8364 -13.085 10.9218 -14.1893 10.8978L-14.276 14.8969ZM1.28971 10.9578C0.185244 10.9732 -0.697625 11.881 -0.682238 12.9855C-0.66685 14.09 0.240968 14.9728 1.34543 14.9575L1.28971 10.9578ZM2.32949 14.9426C3.43392 14.9248 4.31475 14.015 4.29688 12.9105C4.27901 11.8061 3.36922 10.9253 2.26479 10.9432L2.32949 14.9426ZM17.7296 10.4172C16.6265 10.4744 15.7787 11.4151 15.8359 12.5181C15.8932 13.6212 16.8338 14.4691 17.9369 14.4118L17.7296 10.4172ZM18.9031 14.3606C20.006 14.301 20.8518 13.3585 20.7921 12.2555C20.7324 11.1526 19.7899 10.3068 18.687 10.3665L18.9031 14.3606ZM34.1279 9.25367C33.0278 9.35282 32.2164 10.325 32.3155 11.4251C32.4147 12.5252 33.3869 13.3367 34.487 13.2375L34.1279 9.25367ZM35.4654 13.1482C36.5653 13.0466 37.3746 12.0725 37.2729 10.9727C37.1713 9.87278 36.1973 9.06354 35.0974 9.16518L35.4654 13.1482ZM50.4325 7.46909C49.337 7.61035 48.5634 8.61295 48.7047 9.70845C48.846 10.8039 49.8486 11.5775 50.9441 11.4362L50.4325 7.46909ZM51.9217 11.309C53.0169 11.1652 53.7881 10.1609 53.6443 9.0657C53.5006 7.97053 52.4962 7.19928 51.401 7.34307L51.9217 11.309ZM66.7181 5.04456C65.629 5.22872 64.8954 6.26091 65.0796 7.35002C65.2637 8.43912 66.2959 9.17273 67.385 8.98857L66.7181 5.04456ZM68.3293 8.82778C69.418 8.64112 70.1492 7.60725 69.9625 6.51856C69.7759 5.42988 68.742 4.69865 67.6533 4.88531L68.3293 8.82778ZM82.8604 1.97924C81.7797 2.20748 81.0886 3.2686 81.3168 4.34934C81.5451 5.43007 82.6062 6.12115 83.6869 5.89292L82.8604 1.97924ZM84.6181 5.69511C85.6983 5.46429 86.3868 4.4015 86.156 3.32132C85.9251 2.24114 84.8624 1.5526 83.7822 1.78342L84.6181 5.69511ZM98.8641 -1.75969C97.7942 -1.48476 97.1499 -0.394639 97.4248 0.675169C97.6997 1.74498 98.7898 2.38935 99.8597 2.11443L98.8641 -1.75969ZM100.825 1.86485C101.894 1.58698 102.536 0.495092 102.258 -0.573956C101.98 -1.643 100.888 -2.28438 99.8191 -2.00651L100.825 1.86485ZM114.653 -6.22408C113.598 -5.89636 113.008 -4.77558 113.336 -3.72074C113.664 -2.66591 114.785 -2.07647 115.839 -2.40418L114.653 -6.22408ZM116.807 -2.70645C117.86 -3.03778 118.446 -4.16058 118.114 -5.21428C117.783 -6.26799 116.66 -6.85358 115.607 -6.52225L116.807 -2.70645ZM130.084 -11.5941C129.06 -11.1793 128.567 -10.0131 128.982 -8.98937C129.396 -7.96564 130.563 -7.47202 131.586 -7.88683L130.084 -11.5941ZM-431.187 -473.323C-431.052 -473.223 -430.917 -473.124 -430.781 -473.025L-428.426 -476.258C-428.555 -476.352 -428.684 -476.447 -428.813 -476.542L-431.187 -473.323ZM-416.948 -464.686C-416.647 -464.536 -416.346 -464.388 -416.043 -464.241L-414.296 -467.84C-414.588 -467.981 -414.878 -468.124 -415.167 -468.268L-416.948 -464.686ZM-401.108 -458.218C-400.789 -458.112 -400.468 -458.008 -400.146 -457.904L-398.916 -461.71C-399.229 -461.811 -399.54 -461.913 -399.851 -462.015L-401.108 -458.218ZM-384.63 -453.79C-384.302 -453.72 -383.974 -453.652 -383.645 -453.583L-382.835 -457.501C-383.156 -457.567 -383.477 -457.634 -383.798 -457.703L-384.63 -453.79ZM-367.844 -451.005C-367.517 -450.965 -367.189 -450.925 -366.86 -450.886L-366.39 -454.859C-366.712 -454.897 -367.034 -454.936 -367.355 -454.975L-367.844 -451.005ZM-350.932 -449.548C-350.601 -449.531 -350.271 -449.514 -349.94 -449.498L-349.748 -453.494C-350.074 -453.509 -350.399 -453.526 -350.725 -453.542L-350.932 -449.548ZM-333.989 -449.181C-333.654 -449.184 -333.319 -449.186 -332.984 -449.19L-333.024 -453.19C-333.355 -453.186 -333.686 -453.183 -334.016 -453.181L-333.989 -449.181ZM-317.067 -449.731C-316.734 -449.75 -316.401 -449.769 -316.068 -449.789L-316.307 -453.782C-316.636 -453.762 -316.965 -453.743 -317.294 -453.725L-317.067 -449.731ZM-300.196 -451.068C-299.866 -451.101 -299.535 -451.135 -299.205 -451.169L-299.615 -455.148C-299.943 -455.114 -300.27 -455.081 -300.597 -455.048L-300.196 -451.068ZM-283.397 -453.095C-283.069 -453.141 -282.741 -453.187 -282.414 -453.234L-282.977 -457.194C-283.302 -457.148 -283.627 -457.102 -283.952 -457.056L-283.397 -453.095ZM-266.689 -455.739C-266.363 -455.797 -266.038 -455.854 -265.712 -455.912L-266.413 -459.85C-266.736 -459.793 -267.06 -459.736 -267.383 -459.679L-266.689 -455.739ZM-250.097 -458.943C-249.773 -459.011 -249.448 -459.079 -249.123 -459.148L-249.952 -463.061C-250.274 -462.993 -250.596 -462.925 -250.918 -462.858L-250.097 -458.943ZM-233.611 -462.669C-233.289 -462.747 -232.967 -462.825 -232.645 -462.903L-233.593 -466.789C-233.912 -466.711 -234.232 -466.634 -234.552 -466.556L-233.611 -462.669ZM-217.248 -466.886C-216.928 -466.974 -216.608 -467.061 -216.288 -467.149L-217.35 -471.006C-217.667 -470.919 -217.985 -470.831 -218.302 -470.745L-217.248 -466.886ZM-201.013 -471.578C-200.697 -471.674 -200.38 -471.771 -200.064 -471.868L-201.236 -475.692C-201.55 -475.596 -201.865 -475.5 -202.179 -475.404L-201.013 -471.578ZM-184.919 -476.735C-184.605 -476.84 -184.291 -476.946 -183.977 -477.052L-185.259 -480.841C-185.57 -480.736 -185.882 -480.631 -186.194 -480.526L-184.919 -476.735ZM-168.986 -482.354C-168.674 -482.469 -168.362 -482.585 -168.051 -482.7L-169.443 -486.45C-169.753 -486.335 -170.062 -486.221 -170.372 -486.106L-168.986 -482.354ZM-153.229 -488.447C-153.077 -488.509 -152.924 -488.571 -152.771 -488.632L-154.275 -492.339C-154.426 -492.278 -154.578 -492.216 -154.729 -492.155L-153.229 -488.447ZM-152.771 -488.632C-152.616 -488.696 -152.46 -488.759 -152.304 -488.822L-153.805 -492.53C-153.961 -492.466 -154.118 -492.403 -154.275 -492.339L-152.771 -488.632ZM-137.519 -494.567C-137.214 -494.68 -136.91 -494.793 -136.606 -494.906L-137.995 -498.657C-138.301 -498.543 -138.608 -498.429 -138.915 -498.315L-137.519 -494.567ZM-121.663 -500.193C-121.353 -500.298 -121.044 -500.402 -120.735 -500.505L-122.007 -504.298C-122.318 -504.194 -122.629 -504.089 -122.941 -503.984L-121.663 -500.193ZM-105.65 -505.305C-105.337 -505.399 -105.024 -505.493 -104.711 -505.587L-105.856 -509.419C-106.172 -509.325 -106.487 -509.23 -106.803 -509.135L-105.65 -505.305ZM-89.4849 -509.872C-89.168 -509.955 -88.8514 -510.038 -88.535 -510.121L-89.5474 -513.991C-89.8664 -513.908 -90.1857 -513.824 -90.5053 -513.739L-89.4849 -509.872ZM-73.1754 -513.863C-72.8557 -513.935 -72.5364 -514.006 -72.2173 -514.078L-73.0885 -517.982C-73.4104 -517.91 -73.7325 -517.838 -74.055 -517.765L-73.1754 -513.863ZM-56.736 -517.244C-56.4145 -517.304 -56.0932 -517.363 -55.7723 -517.422L-56.494 -521.356C-56.8179 -521.297 -57.1421 -521.237 -57.4666 -521.177L-56.736 -517.244ZM-40.1879 -519.981C-39.8654 -520.027 -39.5433 -520.074 -39.2216 -520.119L-39.7853 -524.08C-40.1102 -524.033 -40.4354 -523.987 -40.761 -523.939L-40.1879 -519.981ZM-23.5596 -522.037C-23.2374 -522.07 -22.9155 -522.102 -22.5941 -522.135L-22.9914 -526.115C-23.3161 -526.082 -23.6413 -526.049 -23.9668 -526.016L-23.5596 -522.037ZM-6.84671 -523.381C-6.51244 -523.4 -6.17866 -523.419 -5.84536 -523.437L-6.06704 -527.431C-6.40391 -527.413 -6.74126 -527.393 -7.07911 -527.374L-6.84671 -523.381ZM9.95847 -523.974C10.2897 -523.978 10.6203 -523.981 10.9504 -523.985L10.9131 -527.984C10.5793 -527.981 10.2449 -527.978 9.91004 -527.974L9.95847 -523.974ZM26.7262 -523.777C27.0525 -523.766 27.3782 -523.753 27.7034 -523.741L27.8584 -527.738C27.5295 -527.751 27.1999 -527.763 26.8698 -527.775L26.7262 -523.777ZM43.4161 -522.762C43.7503 -522.733 44.0837 -522.704 44.4163 -522.674L44.7721 -526.658C44.4353 -526.689 44.0979 -526.718 43.7597 -526.747L43.4161 -522.762ZM60.1186 -520.882C60.443 -520.836 60.7665 -520.791 61.0892 -520.745L61.6545 -524.704C61.3277 -524.751 61 -524.797 60.6715 -524.843L60.1186 -520.882ZM76.6211 -518.118C76.9487 -518.053 77.2754 -517.989 77.601 -517.924L78.3842 -521.846C78.0542 -521.912 77.7231 -521.978 77.3911 -522.043L76.6211 -518.118ZM92.9251 -514.43C93.2478 -514.347 93.5694 -514.264 93.8897 -514.18L94.8998 -518.051C94.5748 -518.135 94.2487 -518.22 93.9213 -518.304L92.9251 -514.43ZM109.006 -509.765C109.323 -509.663 109.637 -509.56 109.95 -509.457L111.199 -513.257C110.881 -513.362 110.562 -513.466 110.241 -513.57L109.006 -509.765ZM124.779 -504.059C125.089 -503.935 125.398 -503.81 125.704 -503.686L127.21 -507.391C126.899 -507.518 126.585 -507.644 126.269 -507.771L124.779 -504.059ZM140.024 -497.253C140.329 -497.101 140.63 -496.95 140.927 -496.801L142.725 -500.374C142.422 -500.526 142.115 -500.68 141.803 -500.835L140.024 -497.253ZM154.444 -489.095C154.566 -489.012 154.656 -488.95 154.714 -488.91C154.743 -488.89 154.764 -488.875 154.777 -488.866C154.784 -488.861 154.788 -488.858 154.791 -488.856C154.792 -488.855 154.793 -488.855 154.793 -488.855C154.793 -488.855 154.793 -488.855 154.793 -488.855C154.793 -488.855 154.793 -488.855 154.793 -488.855C154.793 -488.855 154.793 -488.855 154.793 -488.855C154.793 -488.855 154.793 -488.855 154.793 -488.855C154.793 -488.855 154.792 -488.855 154.792 -488.855C154.792 -488.855 154.792 -488.855 155.951 -490.486C157.109 -492.116 157.109 -492.116 157.109 -492.116C157.109 -492.116 157.109 -492.116 157.109 -492.116C157.109 -492.116 157.109 -492.116 157.109 -492.117C157.108 -492.117 157.108 -492.117 157.108 -492.117C157.108 -492.117 157.108 -492.117 157.107 -492.117C157.107 -492.118 157.106 -492.118 157.105 -492.119C157.103 -492.12 157.101 -492.122 157.098 -492.124C157.093 -492.128 157.085 -492.133 157.076 -492.14C157.057 -492.153 157.03 -492.172 156.994 -492.196C156.924 -492.245 156.822 -492.316 156.687 -492.407L154.444 -489.095ZM155.229 -488.62C155.38 -488.562 155.53 -488.504 155.68 -488.445L157.139 -492.17C156.983 -492.23 156.828 -492.291 156.672 -492.351L155.229 -488.62ZM169.813 -481.818C170.097 -481.663 170.38 -481.506 170.663 -481.348L172.611 -484.842C172.319 -485.004 172.027 -485.166 171.735 -485.326L169.813 -481.818ZM183.87 -472.957C184.134 -472.768 184.398 -472.578 184.662 -472.386L187.01 -475.624C186.74 -475.821 186.468 -476.016 186.197 -476.21L183.87 -472.957ZM196.882 -462.554C197.126 -462.337 197.371 -462.119 197.614 -461.9L200.286 -464.878C200.036 -465.102 199.786 -465.325 199.536 -465.546L196.882 -462.554ZM208.842 -450.905C209.066 -450.665 209.291 -450.425 209.515 -450.184L212.445 -452.907C212.216 -453.153 211.987 -453.398 211.758 -453.642L208.842 -450.905ZM219.774 -438.252C219.979 -437.995 220.184 -437.737 220.388 -437.478L223.527 -439.957C223.319 -440.22 223.111 -440.483 222.902 -440.745L219.774 -438.252ZM229.718 -424.787C229.904 -424.515 230.09 -424.242 230.276 -423.969L233.585 -426.216C233.396 -426.493 233.208 -426.77 233.018 -427.047L229.718 -424.787ZM238.717 -410.657C238.885 -410.373 239.053 -410.089 239.22 -409.804L242.669 -411.829C242.499 -412.118 242.329 -412.407 242.159 -412.695L238.717 -410.657ZM246.811 -395.978C246.961 -395.685 247.111 -395.391 247.261 -395.097L250.826 -396.91C250.675 -397.208 250.522 -397.506 250.37 -397.804L246.811 -395.978ZM254.033 -380.843C254.166 -380.541 254.299 -380.24 254.432 -379.938L258.094 -381.546C257.96 -381.852 257.825 -382.158 257.69 -382.463L254.033 -380.843ZM260.408 -365.324C260.525 -365.016 260.642 -364.708 260.758 -364.4L264.501 -365.809C264.384 -366.121 264.266 -366.433 264.148 -366.744L260.408 -365.324ZM265.956 -349.485C266.057 -349.172 266.157 -348.858 266.257 -348.545L270.068 -349.758C269.967 -350.075 269.866 -350.392 269.764 -350.709L265.956 -349.485ZM270.686 -333.378C270.771 -333.061 270.855 -332.743 270.938 -332.425L274.807 -333.443C274.722 -333.765 274.637 -334.087 274.551 -334.408L270.686 -333.378ZM274.602 -317.052C274.671 -316.731 274.739 -316.41 274.806 -316.088L278.721 -316.913C278.652 -317.238 278.583 -317.563 278.514 -317.888L274.602 -317.052ZM277.701 -300.552C277.754 -300.228 277.806 -299.903 277.858 -299.579L281.808 -300.208C281.755 -300.536 281.703 -300.864 281.65 -301.192L277.701 -300.552ZM279.975 -283.919C280.012 -283.593 280.047 -283.266 280.083 -282.94L284.06 -283.371C284.024 -283.701 283.987 -284.031 283.951 -284.362L279.975 -283.919ZM281.41 -267.201C281.43 -266.872 281.449 -266.543 281.468 -266.214L285.462 -266.442C285.443 -266.775 285.423 -267.109 285.403 -267.442L281.41 -267.201ZM281.988 -250.434C281.991 -250.105 281.994 -249.776 281.995 -249.447L285.995 -249.468C285.993 -249.802 285.991 -250.135 285.988 -250.468L281.988 -250.434ZM281.687 -233.661C281.672 -233.333 281.657 -233.004 281.641 -232.675L285.637 -232.484C285.653 -232.817 285.668 -233.15 285.683 -233.483L281.687 -233.661ZM280.479 -216.932C280.446 -216.605 280.413 -216.278 280.379 -215.951L284.358 -215.539C284.392 -215.871 284.426 -216.202 284.459 -216.534L280.479 -216.932ZM278.336 -200.302C278.285 -199.978 278.233 -199.653 278.18 -199.328L282.129 -198.69C282.182 -199.019 282.235 -199.348 282.287 -199.677L278.336 -200.302ZM275.228 -183.831C275.158 -183.51 275.087 -183.189 275.015 -182.868L278.919 -181.995C278.991 -182.321 279.064 -182.646 279.135 -182.972L275.228 -183.831ZM271.127 -167.585C271.037 -167.269 270.946 -166.953 270.855 -166.638L274.696 -165.524C274.789 -165.844 274.882 -166.165 274.973 -166.485L271.127 -167.585ZM266.007 -151.636C265.897 -151.327 265.786 -151.018 265.674 -150.709L269.435 -149.349C269.549 -149.662 269.662 -149.976 269.774 -150.29L266.007 -151.636ZM259.846 -136.061C259.716 -135.76 259.584 -135.46 259.452 -135.16L263.113 -133.549C263.248 -133.854 263.381 -134.159 263.514 -134.464L259.846 -136.061ZM252.639 -120.955C252.487 -120.664 252.334 -120.372 252.181 -120.081L255.721 -118.218C255.877 -118.514 256.032 -118.811 256.186 -119.107L252.639 -120.955ZM244.386 -106.405C244.214 -106.125 244.041 -105.845 243.867 -105.566L247.264 -103.454C247.441 -103.738 247.617 -104.023 247.792 -104.308L244.386 -106.405ZM235.104 -92.4963C234.912 -92.2298 234.719 -91.9637 234.525 -91.6979L237.758 -89.3427C237.955 -89.6132 238.152 -89.8841 238.348 -90.1552L235.104 -92.4963ZM224.823 -79.3105C224.612 -79.0595 224.401 -78.8089 224.188 -78.5586L227.238 -75.9704C227.454 -76.2252 227.67 -76.4802 227.885 -76.7357L224.823 -79.3105ZM213.588 -66.9183C213.36 -66.6845 213.131 -66.4511 212.901 -66.218L215.751 -63.4109C215.984 -63.648 216.217 -63.8856 216.45 -64.1235L213.588 -66.9183ZM201.452 -55.3758C201.208 -55.1606 200.964 -54.9459 200.719 -54.7315L203.355 -51.7226C203.604 -51.9408 203.852 -52.1592 204.1 -52.3781L201.452 -55.3758ZM188.497 -44.7398C188.233 -44.5385 187.969 -44.3375 187.703 -44.137L190.116 -40.9462C190.385 -41.1502 190.654 -41.3545 190.923 -41.5592L188.497 -44.7398ZM174.885 -35.0916C174.609 -34.9096 174.331 -34.7279 174.054 -34.5467L176.239 -31.1965C176.521 -31.3807 176.803 -31.5654 177.084 -31.7504L174.885 -35.0916ZM160.627 -26.3791C160.341 -26.2172 160.055 -26.0556 159.768 -25.8945L161.726 -22.4066C162.018 -22.5703 162.308 -22.7343 162.599 -22.8988L160.627 -26.3791ZM145.779 -18.5856C145.487 -18.4437 145.194 -18.3022 144.901 -18.1611L146.634 -14.5563C146.932 -14.6995 147.229 -14.8431 147.526 -14.9871L145.779 -18.5856ZM130.403 -11.6926C130.248 -11.6284 130.093 -11.5644 129.937 -11.5004L131.457 -7.80062C131.615 -7.86545 131.773 -7.93038 131.93 -7.99542L130.403 -11.6926ZM-428.813 -8.30389C-428.681 -8.40094 -428.549 -8.49772 -428.417 -8.59423L-430.773 -11.8268C-430.911 -11.7259 -431.049 -11.6247 -431.187 -11.5231L-428.813 -8.30389ZM-414.818 -16.8634C-414.521 -17.014 -414.224 -17.1637 -413.925 -17.3124L-415.707 -20.8936C-416.016 -20.7398 -416.324 -20.585 -416.63 -20.4292L-414.818 -16.8634ZM-399.158 -23.5413C-398.841 -23.6543 -398.522 -23.7666 -398.202 -23.878L-399.519 -27.655C-399.847 -27.5407 -400.174 -27.4255 -400.5 -27.3095L-399.158 -23.5413ZM-382.779 -28.4468C-382.453 -28.528 -382.127 -28.6084 -381.8 -28.6882L-382.747 -32.5744C-383.081 -32.493 -383.414 -32.411 -383.746 -32.3282L-382.779 -28.4468ZM-366.001 -31.921C-365.672 -31.9764 -365.343 -32.0312 -365.014 -32.0854L-365.663 -36.0324C-365.998 -35.9773 -366.332 -35.9216 -366.666 -35.8653L-366.001 -31.921ZM-349.002 -34.2255C-348.668 -34.2606 -348.333 -34.2951 -347.997 -34.3291L-348.401 -38.3087C-348.741 -38.2742 -349.08 -38.2393 -349.419 -38.2038L-349.002 -34.2255ZM-331.882 -35.5535C-331.543 -35.5711 -331.204 -35.5882 -330.865 -35.6048L-331.061 -39.6C-331.404 -39.5832 -331.747 -39.5659 -332.089 -39.5482L-331.882 -35.5535ZM-314.699 -36.046C-314.361 -36.0482 -314.023 -36.05 -313.684 -36.0513L-313.7 -40.0513C-314.042 -40.0499 -314.384 -40.0481 -314.725 -40.0459L-314.699 -36.046ZM-297.494 -35.8063C-297.157 -35.795 -296.82 -35.7833 -296.483 -35.7712L-296.339 -39.7686C-296.68 -39.7808 -297.02 -39.7926 -297.36 -39.8041L-297.494 -35.8063ZM-280.297 -34.9109C-279.962 -34.8873 -279.626 -34.8635 -279.289 -34.8393L-279.002 -38.8289C-279.341 -38.8533 -279.679 -38.8774 -280.018 -38.9011L-280.297 -34.9109ZM-263.142 -33.4171C-262.805 -33.3821 -262.469 -33.3469 -262.132 -33.3113L-261.712 -37.2891C-262.051 -37.325 -262.39 -37.3605 -262.729 -37.3957L-263.142 -33.4171ZM-246.043 -31.3662C-245.708 -31.3207 -245.374 -31.2749 -245.039 -31.2288L-244.493 -35.1914C-244.83 -35.2378 -245.167 -35.284 -245.505 -35.3298L-246.043 -31.3662ZM-229.01 -28.7855C-228.677 -28.7299 -228.343 -28.6739 -228.01 -28.6176L-227.344 -32.5618C-227.68 -32.6184 -228.015 -32.6748 -228.351 -32.7308L-229.01 -28.7855ZM-212.065 -25.6932C-211.733 -25.6276 -211.402 -25.5616 -211.07 -25.4954L-210.286 -29.4179C-210.62 -29.4846 -210.954 -29.551 -211.288 -29.6171L-212.065 -25.6932ZM-195.214 -22.094C-194.885 -22.0186 -194.556 -21.9429 -194.228 -21.8669L-193.326 -25.7641C-193.657 -25.8406 -193.988 -25.9168 -194.319 -25.9928L-195.214 -22.094ZM-178.483 -17.986C-178.156 -17.9003 -177.829 -17.8144 -177.502 -17.7282L-176.481 -21.5957C-176.81 -21.6825 -177.139 -21.7691 -177.469 -21.8554L-178.483 -17.986ZM-161.9 -13.3566C-161.574 -13.2601 -161.25 -13.1633 -160.925 -13.0663L-159.779 -16.8987C-160.106 -16.9965 -160.434 -17.094 -160.761 -17.1913L-161.9 -13.3566ZM-145.487 -8.17765C-145.328 -8.12443 -145.169 -8.07114 -145.011 -8.0178L-143.736 -11.8092C-143.896 -11.863 -144.056 -11.9168 -144.216 -11.9704L-145.487 -8.17765ZM-145.011 -8.0178C-144.855 -7.96534 -144.699 -7.91299 -144.543 -7.86074L-143.272 -11.6536C-143.427 -11.7054 -143.581 -11.7572 -143.736 -11.8092L-145.011 -8.0178ZM-129.648 -3.15858C-129.333 -3.06514 -129.018 -2.97212 -128.703 -2.87953L-127.574 -6.71697C-127.886 -6.80873 -128.198 -6.90091 -128.511 -6.99351L-129.648 -3.15858ZM-113.642 1.26389C-113.324 1.3452 -113.007 1.4261 -112.69 1.50657L-111.706 -2.37047C-112.02 -2.45021 -112.334 -2.53038 -112.649 -2.61095L-113.642 1.26389ZM-97.4849 5.08077C-97.1659 5.1498 -96.8472 5.21841 -96.5286 5.28662L-95.6912 1.37525C-96.0069 1.30767 -96.3228 1.23968 -96.6388 1.17128L-97.4849 5.08077ZM-81.2051 8.28336C-80.8853 8.34001 -80.5658 8.39625 -80.2464 8.45209L-79.5574 4.51188C-79.8739 4.45655 -80.1905 4.40082 -80.5074 4.34468L-81.2051 8.28336ZM-64.832 10.8655C-64.5123 10.9097 -64.1928 10.9536 -63.8735 10.997L-63.334 7.03359C-63.6503 6.99053 -63.9669 6.94708 -64.2838 6.90324L-64.832 10.8655ZM-48.3727 12.8262C-48.0453 12.859 -47.7182 12.8913 -47.3914 12.9232L-47.0025 8.94219C-47.3263 8.91055 -47.6504 8.87852 -47.9748 8.84609L-48.3727 12.8262ZM-31.8072 14.1655C-31.4816 14.1856 -31.1564 14.2054 -30.8314 14.2247L-30.5937 10.2318C-30.9156 10.2126 -31.2379 10.193 -31.5606 10.1731L-31.8072 14.1655ZM-15.2427 14.8748C-14.9201 14.8825 -14.5979 14.8899 -14.276 14.8969L-14.1893 10.8978C-14.5082 10.8909 -14.8275 10.8836 -15.1472 10.876L-15.2427 14.8748ZM1.34543 14.9575C1.67392 14.9529 2.00194 14.9479 2.32949 14.9426L2.26479 10.9432C1.94023 10.9484 1.6152 10.9533 1.28971 10.9578L1.34543 14.9575ZM17.9369 14.4118C18.2595 14.3951 18.5815 14.378 18.9031 14.3606L18.687 10.3665C18.3684 10.3837 18.0493 10.4006 17.7296 10.4172L17.9369 14.4118ZM34.487 13.2375C34.8138 13.2081 35.1399 13.1783 35.4654 13.1482L35.0974 9.16518C34.7749 9.19499 34.4517 9.22448 34.1279 9.25367L34.487 13.2375ZM50.9441 11.4362C51.2708 11.3941 51.5966 11.3517 51.9217 11.309L51.401 7.34307C51.079 7.38534 50.7562 7.42735 50.4325 7.46909L50.9441 11.4362ZM67.385 8.98857C67.7008 8.93518 68.0155 8.88158 68.3293 8.82778L67.6533 4.88531C67.3426 4.93859 67.0308 4.99168 66.7181 5.04456L67.385 8.98857ZM83.6869 5.89292C83.9986 5.82709 84.309 5.76115 84.6181 5.69511L83.7822 1.78342C83.4763 1.8488 83.169 1.91407 82.8604 1.97924L83.6869 5.89292ZM99.8597 2.11443C100.184 2.03113 100.506 1.94794 100.825 1.86485L99.8191 -2.00651C99.503 -1.92435 99.1846 -1.84207 98.8641 -1.75969L99.8597 2.11443ZM115.839 -2.40418C116.166 -2.50578 116.489 -2.60655 116.807 -2.70645L115.607 -6.52225C115.293 -6.42372 114.975 -6.32431 114.653 -6.22408L115.839 -2.40418ZM131.586 -7.88683C131.731 -7.94528 131.84 -7.99033 131.915 -8.02122C131.952 -8.03666 131.981 -8.04855 132.001 -8.05681C132.011 -8.06094 132.018 -8.06416 132.024 -8.06646C132.026 -8.06761 132.029 -8.06853 132.03 -8.06922C132.031 -8.06956 132.032 -8.06985 132.032 -8.07008C132.033 -8.07019 132.033 -8.07029 132.033 -8.07037C132.033 -8.07042 132.033 -8.07045 132.033 -8.07049C132.033 -8.07051 132.033 -8.07052 132.033 -8.07054C132.033 -8.07055 132.033 -8.07056 132.033 -8.07056C132.033 -8.07057 132.034 -8.07058 131.257 -9.91351C130.48 -11.7564 130.48 -11.7565 130.48 -11.7565C130.48 -11.7565 130.48 -11.7565 130.48 -11.7565C130.48 -11.7565 130.48 -11.7565 130.48 -11.7565C130.48 -11.7565 130.48 -11.7566 130.48 -11.7566C130.48 -11.7566 130.48 -11.7566 130.48 -11.7566C130.48 -11.7566 130.48 -11.7565 130.48 -11.7564C130.479 -11.7562 130.478 -11.7557 130.476 -11.755C130.473 -11.7536 130.467 -11.7512 130.46 -11.748C130.444 -11.7415 130.42 -11.7314 130.387 -11.7178C130.321 -11.6904 130.22 -11.6489 130.084 -11.5941L131.586 -7.88683ZM-153.523 -490.486L-152.02 -486.779L-153.523 -490.486ZM155.951 -490.486L153.634 -487.225C153.905 -487.033 154.198 -486.875 154.508 -486.755L155.951 -490.486ZM-144.373 -9.91351L-145.648 -6.12208L-145.648 -6.12208L-144.373 -9.91351ZM129.177 -13.3503C127.134 -12.5106 126.158 -10.1735 126.997 -8.13013C127.837 -6.08679 130.174 -5.11104 132.218 -5.95072L129.177 -13.3503ZM-431.959 -471.409C-430.173 -470.108 -427.671 -470.501 -426.371 -472.286C-425.07 -474.072 -425.463 -476.574 -427.248 -477.875L-431.959 -471.409ZM-414.277 -470.059C-416.255 -471.042 -418.656 -470.235 -419.639 -468.257C-420.623 -466.279 -419.816 -463.878 -417.838 -462.895L-414.277 -470.059ZM-416.916 -462.442C-414.929 -461.477 -412.536 -462.306 -411.571 -464.294C-410.606 -466.281 -411.435 -468.674 -413.422 -469.639L-416.916 -462.442ZM-399.222 -463.914C-401.319 -464.609 -403.582 -463.472 -404.277 -461.375C-404.971 -459.278 -403.834 -457.014 -401.737 -456.32L-399.222 -463.914ZM-400.761 -456C-398.659 -455.321 -396.404 -456.475 -395.725 -458.577C-395.046 -460.679 -396.199 -462.934 -398.301 -463.613L-400.761 -456ZM-383.381 -459.659C-385.542 -460.118 -387.667 -458.739 -388.126 -456.579C-388.586 -454.418 -387.207 -452.294 -385.046 -451.834L-383.381 -459.659ZM-384.05 -451.625C-381.886 -451.178 -379.77 -452.569 -379.323 -454.732C-378.875 -456.895 -380.266 -459.012 -382.43 -459.459L-384.05 -451.625ZM-367.111 -456.96C-369.304 -457.23 -371.3 -455.671 -371.57 -453.479C-371.84 -451.286 -370.281 -449.29 -368.088 -449.02L-367.111 -456.96ZM-367.095 -448.9C-364.902 -448.64 -362.913 -450.208 -362.653 -452.402C-362.393 -454.596 -363.961 -456.585 -366.154 -456.845L-367.095 -448.9ZM-350.621 -455.54C-352.827 -455.654 -354.708 -453.958 -354.823 -451.752C-354.937 -449.546 -353.241 -447.665 -351.035 -447.55L-350.621 -455.54ZM-350.036 -447.5C-347.829 -447.394 -345.954 -449.097 -345.848 -451.304C-345.742 -453.51 -347.445 -455.385 -349.651 -455.491L-350.036 -447.5ZM-334.03 -455.181C-336.239 -455.166 -338.018 -453.363 -338.002 -451.154C-337.987 -448.945 -336.184 -447.166 -333.975 -447.181L-334.03 -455.181ZM-332.964 -447.19C-330.755 -447.212 -328.982 -449.021 -329.004 -451.23C-329.027 -453.439 -330.835 -455.212 -333.044 -455.19L-332.964 -447.19ZM-317.408 -455.721C-319.613 -455.596 -321.299 -453.706 -321.174 -451.501C-321.048 -449.295 -319.159 -447.609 -316.953 -447.734L-317.408 -455.721ZM-315.949 -447.793C-313.744 -447.924 -312.063 -449.819 -312.195 -452.024C-312.326 -454.229 -314.22 -455.91 -316.426 -455.779L-315.949 -447.793ZM-300.797 -457.038C-302.995 -456.816 -304.598 -454.855 -304.376 -452.657C-304.155 -450.459 -302.193 -448.856 -299.995 -449.078L-300.797 -457.038ZM-299 -449.179C-296.802 -449.406 -295.205 -451.371 -295.431 -453.569C-295.658 -455.766 -297.623 -457.364 -299.821 -457.137L-299 -449.179ZM-284.229 -459.037C-286.417 -458.731 -287.942 -456.709 -287.636 -454.521C-287.329 -452.333 -285.307 -450.808 -283.12 -451.114L-284.229 -459.037ZM-282.132 -451.254C-279.945 -451.565 -278.424 -453.59 -278.735 -455.777C-279.046 -457.964 -281.071 -459.485 -283.258 -459.174L-282.132 -451.254ZM-267.73 -461.648C-269.906 -461.265 -271.359 -459.191 -270.976 -457.015C-270.592 -454.84 -268.518 -453.386 -266.343 -453.77L-267.73 -461.648ZM-265.361 -453.943C-263.186 -454.331 -261.737 -456.408 -262.124 -458.583C-262.512 -460.758 -264.589 -462.207 -266.764 -461.819L-265.361 -453.943ZM-251.329 -464.815C-253.491 -464.361 -254.876 -462.241 -254.423 -460.079C-253.969 -457.917 -251.849 -456.532 -249.686 -456.986L-251.329 -464.815ZM-248.709 -457.192C-246.548 -457.649 -245.167 -459.772 -245.624 -461.933C-246.082 -464.095 -248.205 -465.476 -250.366 -465.018L-248.709 -457.192ZM-235.022 -468.5C-237.169 -467.981 -238.489 -465.819 -237.969 -463.672C-237.449 -461.524 -235.288 -460.205 -233.14 -460.725L-235.022 -468.5ZM-232.171 -460.96C-230.025 -461.484 -228.709 -463.648 -229.233 -465.794C-229.756 -467.94 -231.92 -469.256 -234.067 -468.732L-232.171 -460.96ZM-218.83 -472.674C-220.961 -472.091 -222.216 -469.891 -221.633 -467.76C-221.051 -465.63 -218.851 -464.374 -216.72 -464.957L-218.83 -472.674ZM-215.757 -465.221C-213.628 -465.807 -212.376 -468.009 -212.962 -470.139C-213.549 -472.269 -215.751 -473.521 -217.88 -472.934L-215.757 -465.221ZM-202.762 -477.317C-204.875 -476.674 -206.066 -474.439 -205.423 -472.325C-204.779 -470.212 -202.544 -469.021 -200.431 -469.665L-202.762 -477.317ZM-199.478 -469.956C-197.366 -470.603 -196.178 -472.84 -196.826 -474.952C-197.473 -477.064 -199.71 -478.252 -201.822 -477.604L-199.478 -469.956ZM-186.832 -482.421C-188.926 -481.717 -190.052 -479.449 -189.348 -477.355C-188.643 -475.261 -186.375 -474.135 -184.281 -474.839L-186.832 -482.421ZM-183.336 -475.158C-181.244 -475.865 -180.121 -478.136 -180.829 -480.228C-181.537 -482.321 -183.807 -483.444 -185.9 -482.736L-183.336 -475.158ZM-171.065 -487.982C-173.137 -487.217 -174.196 -484.916 -173.431 -482.844C-172.666 -480.772 -170.365 -479.712 -168.293 -480.478L-171.065 -487.982ZM-167.355 -480.825C-165.284 -481.594 -164.228 -483.897 -164.997 -485.968C-165.766 -488.039 -168.069 -489.094 -170.14 -488.325L-167.355 -480.825ZM-155.479 -494.009C-157.527 -493.181 -158.516 -490.849 -157.687 -488.801C-156.859 -486.753 -154.527 -485.765 -152.479 -486.593L-155.479 -494.009ZM-151.554 -486.968C-149.506 -487.797 -148.518 -490.128 -149.346 -492.176C-150.175 -494.224 -152.507 -495.212 -154.555 -494.384L-151.554 -486.968ZM-139.613 -500.19C-141.683 -499.419 -142.736 -497.115 -141.965 -495.045C-141.194 -492.975 -138.891 -491.922 -136.821 -492.692L-139.613 -500.19ZM-135.911 -493.03C-133.84 -493.798 -132.782 -496.099 -133.549 -498.171C-134.317 -500.242 -136.618 -501.3 -138.69 -500.532L-135.911 -493.03ZM-123.58 -505.879C-125.673 -505.173 -126.798 -502.904 -126.092 -500.81C-125.386 -498.717 -123.117 -497.592 -121.023 -498.298L-123.58 -505.879ZM-120.1 -498.609C-118.005 -499.311 -116.876 -501.578 -117.578 -503.673C-118.28 -505.767 -120.547 -506.896 -122.642 -506.194L-120.1 -498.609ZM-107.38 -511.05C-109.495 -510.413 -110.694 -508.182 -110.057 -506.067C-109.42 -503.951 -107.189 -502.753 -105.074 -503.39L-107.38 -511.05ZM-104.138 -503.67C-102.021 -504.303 -100.818 -506.532 -101.451 -508.648C-102.084 -510.765 -104.312 -511.968 -106.429 -511.335L-104.138 -503.67ZM-91.0155 -515.673C-93.1516 -515.11 -94.4263 -512.921 -93.8628 -510.785C-93.2992 -508.649 -91.1107 -507.374 -88.9747 -507.938L-91.0155 -515.673ZM-88.0288 -508.186C-85.8916 -508.746 -84.6123 -510.931 -85.1714 -513.069C-85.7306 -515.206 -87.9164 -516.485 -90.0536 -515.926L-88.0288 -508.186ZM-74.4949 -519.716C-76.6499 -519.23 -78.0031 -517.089 -77.5173 -514.934C-77.0315 -512.779 -74.8906 -511.426 -72.7356 -511.912L-74.4949 -519.716ZM-71.7817 -512.126C-69.6256 -512.607 -68.2678 -514.745 -68.7489 -516.901C-69.23 -519.057 -71.3679 -520.415 -73.524 -519.934L-71.7817 -512.126ZM-57.8319 -523.143C-60.0039 -522.74 -61.4375 -520.652 -61.034 -518.48C-60.6305 -516.308 -58.5427 -514.874 -56.3707 -515.278L-57.8319 -523.143ZM-55.4115 -515.455C-53.2386 -515.853 -51.8002 -517.938 -52.1988 -520.111C-52.5973 -522.284 -54.6819 -523.722 -56.8548 -523.324L-55.4115 -515.455ZM-41.0476 -525.919C-43.2339 -525.602 -44.7497 -523.573 -44.4332 -521.387C-44.1167 -519.201 -42.0877 -517.685 -39.9014 -518.001L-41.0476 -525.919ZM-38.9397 -518.139C-36.7527 -518.451 -35.232 -520.476 -35.5434 -522.663C-35.8547 -524.85 -37.88 -526.371 -40.0671 -526.06L-38.9397 -518.139ZM-24.1704 -528.006C-26.368 -527.781 -27.9673 -525.817 -27.7424 -523.619C-27.5176 -521.422 -25.5537 -519.822 -23.3561 -520.047L-24.1704 -528.006ZM-22.3954 -520.144C-20.1972 -520.364 -18.5931 -522.324 -18.8125 -524.522C-19.0319 -526.72 -20.9918 -528.324 -23.19 -528.105L-22.3954 -520.144ZM-7.19531 -529.37C-9.40071 -529.242 -11.0845 -527.35 -10.9561 -525.145C-10.8278 -522.939 -8.93591 -521.256 -6.73051 -521.384L-7.19531 -529.37ZM-5.73453 -521.441C-3.52878 -521.563 -1.83992 -523.45 -1.96235 -525.656C-2.08477 -527.862 -3.97213 -529.551 -6.17787 -529.428L-5.73453 -521.441ZM9.88583 -529.973C7.67685 -529.947 5.9078 -528.134 5.93455 -525.925C5.9613 -523.716 7.77371 -521.947 9.98269 -521.974L9.88583 -529.973ZM10.9691 -521.985C13.1781 -522.005 14.9522 -523.813 14.9316 -526.022C14.911 -528.231 13.1035 -530.005 10.8945 -529.984L10.9691 -521.985ZM26.9416 -529.774C24.7339 -529.853 22.8799 -528.127 22.8006 -525.92C22.7213 -523.712 24.4467 -521.858 26.6544 -521.779L26.9416 -529.774ZM27.6258 -521.742C29.8333 -521.657 31.6922 -523.377 31.7779 -525.584C31.8635 -527.792 30.1434 -529.651 27.9359 -529.736L27.6258 -521.742ZM43.9314 -528.74C41.7304 -528.93 39.7924 -527.299 39.6027 -525.098C39.413 -522.897 41.0434 -520.959 43.2444 -520.769L43.9314 -528.74ZM44.2385 -520.682C46.4388 -520.486 48.3819 -522.11 48.5784 -524.311C48.7749 -526.511 47.1504 -528.454 44.95 -528.651L44.2385 -520.682ZM60.948 -526.824C58.76 -527.129 56.7388 -525.603 56.4335 -523.415C56.1281 -521.227 57.6543 -519.206 59.8422 -518.901L60.948 -526.824ZM60.8065 -518.765C62.9935 -518.452 65.0195 -519.972 65.3317 -522.159C65.6439 -524.346 64.1242 -526.372 61.9372 -526.684L60.8065 -518.765ZM77.776 -524.005C75.6082 -524.431 73.5061 -523.018 73.0809 -520.85C72.6557 -518.682 74.0683 -516.58 76.2361 -516.155L77.776 -524.005ZM77.2094 -515.962C79.3758 -515.53 81.4826 -516.935 81.9152 -519.102C82.3477 -521.268 80.9422 -523.375 78.7758 -523.807L77.2094 -515.962ZM94.4194 -520.241C92.2799 -520.791 90.0994 -519.503 89.5492 -517.363C88.999 -515.224 90.2874 -513.043 92.427 -512.493L94.4194 -520.241ZM93.3847 -512.245C95.5223 -511.687 97.7073 -512.968 98.2651 -515.105C98.823 -517.243 97.5423 -519.428 95.4048 -519.986L93.3847 -512.245ZM110.858 -515.472C108.757 -516.154 106.501 -515.003 105.819 -512.902C105.137 -510.801 106.288 -508.545 108.389 -507.863L110.858 -515.472ZM109.326 -507.557C111.424 -506.867 113.685 -508.009 114.375 -510.108C115.065 -512.207 113.923 -514.467 111.824 -515.157L109.326 -507.557ZM127.014 -509.627C124.964 -510.45 122.635 -509.456 121.812 -507.406C120.989 -505.355 121.984 -503.026 124.034 -502.203L127.014 -509.627ZM124.951 -501.833C126.997 -501.001 129.33 -501.986 130.162 -504.032C130.994 -506.079 130.01 -508.412 127.963 -509.244L124.951 -501.833ZM142.692 -502.626C140.713 -503.609 138.313 -502.801 137.33 -500.823C136.348 -498.844 137.155 -496.444 139.134 -495.461L142.692 -502.626ZM140.027 -495.015C142.001 -494.021 144.406 -494.816 145.399 -496.789C146.392 -498.762 145.598 -501.167 143.625 -502.16L140.027 -495.015ZM157.809 -494.063C155.98 -495.301 153.492 -494.823 152.254 -492.993C151.015 -491.164 151.494 -488.677 153.323 -487.439L157.809 -494.063ZM154.951 -486.583C157.008 -485.777 159.328 -486.792 160.134 -488.849C160.94 -490.906 159.925 -493.226 157.868 -494.032L154.951 -486.583ZM172.696 -487.08C170.758 -488.141 168.327 -487.431 167.266 -485.494C166.205 -483.556 166.915 -481.125 168.852 -480.064L172.696 -487.08ZM169.689 -479.601C171.618 -478.526 174.055 -479.218 175.131 -481.147C176.206 -483.077 175.514 -485.513 173.585 -486.589L169.689 -479.601ZM187.361 -477.837C185.564 -479.122 183.065 -478.708 181.78 -476.911C180.495 -475.114 180.909 -472.616 182.706 -471.33L187.361 -477.837ZM183.488 -470.767C185.276 -469.47 187.777 -469.869 189.074 -471.657C190.371 -473.445 189.973 -475.946 188.185 -477.243L183.488 -470.767ZM200.863 -467.043C199.21 -468.509 196.682 -468.357 195.216 -466.704C193.75 -465.051 193.902 -462.523 195.555 -461.057L200.863 -467.043ZM196.279 -460.412C197.923 -458.936 200.452 -459.074 201.927 -460.718C203.403 -462.362 203.265 -464.891 201.621 -466.367L196.279 -460.412ZM213.216 -455.011C211.704 -456.622 209.173 -456.702 207.562 -455.19C205.952 -453.678 205.872 -451.147 207.384 -449.536L213.216 -455.011ZM208.049 -448.823C209.553 -447.205 212.084 -447.112 213.703 -448.616C215.321 -450.12 215.414 -452.651 213.91 -454.269L208.049 -448.823ZM224.466 -441.992C223.089 -443.719 220.572 -444.004 218.845 -442.627C217.117 -441.25 216.833 -438.733 218.21 -437.006L224.466 -441.992ZM218.819 -436.238C220.188 -434.505 222.703 -434.209 224.437 -435.578C226.17 -436.947 226.466 -439.463 225.097 -441.196L218.819 -436.238ZM234.668 -428.177C233.42 -430 230.931 -430.465 229.108 -429.217C227.285 -427.969 226.82 -425.479 228.068 -423.657L234.668 -428.177ZM228.621 -422.846C229.862 -421.018 232.349 -420.542 234.177 -421.783C236.005 -423.024 236.48 -425.512 235.24 -427.339L228.621 -422.846ZM243.88 -413.714C242.754 -415.615 240.301 -416.243 238.4 -415.118C236.499 -413.992 235.87 -411.538 236.996 -409.638L243.88 -413.714ZM237.495 -408.791C238.614 -406.886 241.065 -406.249 242.97 -407.367C244.875 -408.486 245.512 -410.937 244.394 -412.842L237.495 -408.791ZM252.15 -398.716C251.141 -400.682 248.731 -401.458 246.765 -400.45C244.799 -399.442 244.023 -397.031 245.031 -395.065L252.15 -398.716ZM245.478 -394.19C246.48 -392.221 248.888 -391.437 250.857 -392.438C252.826 -393.44 253.61 -395.848 252.609 -397.817L245.478 -394.19ZM259.518 -383.273C258.624 -385.293 256.261 -386.205 254.241 -385.31C252.221 -384.415 251.309 -382.052 252.204 -380.032L259.518 -383.273ZM252.6 -379.134C253.489 -377.111 255.848 -376.191 257.871 -377.08C259.894 -377.968 260.814 -380.328 259.925 -382.35L252.6 -379.134ZM266.017 -367.455C265.233 -369.52 262.923 -370.558 260.858 -369.774C258.793 -368.989 257.754 -366.679 258.539 -364.614L266.017 -367.455ZM258.886 -363.696C259.664 -361.628 261.971 -360.583 264.038 -361.361C266.106 -362.139 267.151 -364.446 266.373 -366.513L258.886 -363.696ZM271.668 -351.321C270.992 -353.424 268.739 -354.581 266.636 -353.905C264.533 -353.229 263.376 -350.976 264.052 -348.873L271.668 -351.321ZM264.351 -347.938C265.021 -345.833 267.27 -344.67 269.375 -345.339C271.48 -346.009 272.644 -348.259 271.974 -350.364L264.351 -347.938ZM276.484 -334.923C275.915 -337.058 273.723 -338.327 271.589 -337.758C269.454 -337.189 268.185 -334.998 268.753 -332.863L276.484 -334.923ZM269.004 -331.916C269.567 -329.779 271.755 -328.503 273.891 -329.066C276.027 -329.628 277.303 -331.816 276.741 -333.953L269.004 -331.916ZM280.47 -318.306C280.008 -320.466 277.882 -321.843 275.722 -321.382C273.562 -320.92 272.184 -318.795 272.646 -316.634L280.47 -318.306ZM272.849 -315.676C273.305 -313.514 275.426 -312.131 277.588 -312.586C279.75 -313.041 281.133 -315.163 280.678 -317.325L272.849 -315.676ZM283.624 -301.512C283.27 -303.693 281.215 -305.174 279.035 -304.82C276.854 -304.467 275.373 -302.412 275.727 -300.231L283.624 -301.512ZM275.882 -299.264C276.23 -297.083 278.28 -295.596 280.462 -295.943C282.643 -296.29 284.13 -298.341 283.783 -300.522L275.882 -299.264ZM285.938 -284.583C285.694 -286.779 283.716 -288.36 281.52 -288.116C279.325 -287.872 277.743 -285.894 277.987 -283.698L285.938 -284.583ZM278.094 -282.724C278.332 -280.528 280.306 -278.941 282.502 -279.178C284.698 -279.416 286.286 -281.39 286.048 -283.586L278.094 -282.724ZM287.399 -267.562C287.266 -269.767 285.371 -271.447 283.166 -271.314C280.961 -271.181 279.281 -269.286 279.414 -267.08L287.399 -267.562ZM279.472 -266.099C279.598 -263.894 281.488 -262.208 283.694 -262.334C285.899 -262.461 287.585 -264.351 287.458 -266.557L279.472 -266.099ZM287.988 -250.485C287.969 -252.694 286.163 -254.47 283.954 -254.451C281.745 -254.432 279.97 -252.626 279.988 -250.417L287.988 -250.485ZM279.995 -249.436C280.007 -247.227 281.808 -245.446 284.017 -245.457C286.226 -245.469 288.007 -247.27 287.995 -249.479L279.995 -249.436ZM287.681 -233.393C287.78 -235.6 286.071 -237.469 283.864 -237.568C281.657 -237.667 279.788 -235.958 279.689 -233.751L287.681 -233.393ZM279.643 -232.771C279.538 -230.565 281.241 -228.69 283.447 -228.584C285.654 -228.478 287.529 -230.182 287.634 -232.388L279.643 -232.771ZM286.449 -216.335C286.669 -218.533 285.066 -220.493 282.867 -220.713C280.669 -220.933 278.709 -219.33 278.489 -217.132L286.449 -216.335ZM278.39 -216.157C278.162 -213.959 279.76 -211.994 281.957 -211.766C284.154 -211.539 286.12 -213.136 286.347 -215.334L278.39 -216.157ZM284.262 -199.365C284.608 -201.547 283.119 -203.595 280.937 -203.941C278.755 -204.286 276.706 -202.797 276.361 -200.615L284.262 -199.365ZM276.206 -199.648C275.853 -197.467 277.335 -195.413 279.516 -195.06C281.697 -194.708 283.751 -196.189 284.103 -198.37L276.206 -199.648ZM281.088 -182.543C281.563 -184.7 280.198 -186.834 278.041 -187.308C275.883 -187.783 273.75 -186.418 273.275 -184.261L281.088 -182.543ZM273.063 -183.305C272.581 -181.149 273.938 -179.011 276.094 -178.528C278.25 -178.046 280.388 -179.403 280.87 -181.559L273.063 -183.305ZM276.896 -165.935C277.504 -168.059 276.274 -170.274 274.15 -170.881C272.026 -171.488 269.812 -170.259 269.205 -168.135L276.896 -165.935ZM268.934 -167.195C268.319 -165.073 269.54 -162.855 271.662 -162.239C273.783 -161.624 276.002 -162.845 276.617 -164.967L268.934 -167.195ZM271.657 -149.617C272.401 -151.697 271.317 -153.986 269.236 -154.729C267.156 -155.473 264.867 -154.389 264.124 -152.309L271.657 -149.617ZM263.793 -151.39C263.042 -149.312 264.117 -147.019 266.194 -146.267C268.271 -145.516 270.565 -146.591 271.316 -148.668L263.793 -151.39ZM265.348 -133.666C266.229 -135.692 265.302 -138.049 263.277 -138.93C261.251 -139.812 258.894 -138.885 258.013 -136.859L265.348 -133.666ZM257.622 -135.966C256.732 -133.944 257.65 -131.583 259.672 -130.694C261.694 -129.804 264.054 -130.722 264.944 -132.744L257.622 -135.966ZM257.96 -118.183C258.981 -120.143 258.22 -122.558 256.261 -123.579C254.301 -124.599 251.886 -123.839 250.865 -121.879L257.96 -118.183ZM250.411 -121.012C249.382 -119.057 250.133 -116.638 252.088 -115.61C254.043 -114.581 256.462 -115.332 257.491 -117.287L250.411 -121.012ZM249.495 -103.259C250.654 -105.14 250.068 -107.604 248.187 -108.762C246.306 -109.921 243.842 -109.335 242.683 -107.454L249.495 -103.259ZM242.168 -106.622C241.002 -104.745 241.577 -102.279 243.453 -101.113C245.329 -99.9462 247.796 -100.521 248.962 -102.398L242.168 -106.622ZM239.969 -88.9847C241.262 -90.776 240.858 -93.2762 239.067 -94.5691C237.276 -95.8621 234.775 -95.4581 233.483 -93.6668L239.969 -88.9847ZM232.909 -92.8754C231.608 -91.0898 232.001 -88.5879 233.787 -87.2871C235.572 -85.9864 238.074 -86.3795 239.375 -88.1651L232.909 -92.8754ZM229.415 -75.4483C230.837 -77.1389 230.619 -79.6621 228.929 -81.0842C227.238 -82.5062 224.715 -82.2885 223.293 -80.5979L229.415 -75.4483ZM222.663 -79.8527C221.234 -78.1684 221.441 -75.6441 223.125 -74.2147C224.809 -72.7853 227.334 -72.992 228.763 -74.6763L222.663 -79.8527ZM217.88 -62.7261C219.424 -64.3065 219.394 -66.839 217.814 -68.3825C216.233 -69.9261 213.701 -69.8961 212.157 -68.3157L217.88 -62.7261ZM211.476 -67.6216C209.926 -66.0479 209.945 -63.5153 211.519 -61.9649C213.092 -60.4146 215.625 -60.4335 217.175 -62.0073L211.476 -67.6216ZM205.424 -50.8793C207.08 -52.342 207.236 -54.8698 205.774 -56.5254C204.311 -58.1809 201.783 -58.3373 200.127 -56.8746L205.424 -50.8793ZM199.401 -56.2359C197.74 -54.7803 197.573 -52.2531 199.028 -50.5914C200.484 -48.9296 203.011 -48.7626 204.673 -50.2182L199.401 -56.2359ZM192.136 -39.9689C193.892 -41.3086 194.23 -43.8186 192.891 -45.5752C191.551 -47.3318 189.041 -47.6698 187.284 -46.3301L192.136 -39.9689ZM186.497 -45.7324C184.735 -44.4002 184.386 -41.8916 185.719 -40.1294C187.051 -38.3672 189.559 -38.0186 191.322 -39.3508L186.497 -45.7324ZM178.184 -30.0798C180.029 -31.2943 180.541 -33.7748 179.326 -35.6201C178.111 -37.4654 175.631 -37.9768 173.786 -36.7622L178.184 -30.0798ZM172.961 -36.2217C171.111 -35.0147 170.589 -32.5362 171.796 -30.686C173.003 -28.8358 175.482 -28.3144 177.332 -29.5215L172.961 -36.2217ZM163.585 -21.1587C165.507 -22.2476 166.182 -24.6885 165.093 -26.6106C164.004 -28.5328 161.563 -29.2082 159.641 -28.1193L163.585 -21.1587ZM158.789 -27.6384C156.862 -26.5569 156.178 -24.1186 157.259 -22.1923C158.341 -20.266 160.779 -19.5812 162.705 -20.6627L158.789 -27.6384ZM148.399 -13.1878C150.387 -14.1525 151.216 -16.5456 150.251 -18.533C149.286 -20.5204 146.893 -21.3495 144.906 -20.3849L148.399 -13.1878ZM144.034 -19.9635C142.043 -19.006 141.205 -16.6159 142.163 -14.625C143.12 -12.6342 145.51 -11.7965 147.501 -12.7539L144.034 -19.9635ZM132.694 -6.14686C134.736 -6.99011 135.707 -9.32896 134.864 -11.3708C134.021 -13.4127 131.682 -14.3844 129.64 -13.5411L132.694 -6.14686ZM-427.239 -6.97792C-425.454 -8.27904 -425.061 -10.7811 -426.362 -12.5664C-427.663 -14.3517 -430.165 -14.7443 -431.951 -13.4431L-427.239 -6.97792ZM-417.536 -22.2121C-419.506 -21.211 -420.291 -18.8031 -419.29 -16.8338C-418.289 -14.8644 -415.881 -14.0795 -413.911 -15.0805L-417.536 -22.2121ZM-413.034 -15.5218C-411.056 -16.5058 -410.25 -18.9069 -411.235 -20.8848C-412.219 -22.8627 -414.62 -23.6683 -416.598 -22.6842L-413.034 -15.5218ZM-401.171 -29.1937C-403.252 -28.4527 -404.338 -26.1649 -403.597 -24.0837C-402.856 -22.0026 -400.568 -20.9161 -398.487 -21.6571L-401.171 -29.1937ZM-397.544 -21.9895C-395.458 -22.7169 -394.357 -24.9975 -395.084 -27.0835C-395.811 -29.1694 -398.092 -30.2708 -400.178 -29.5435L-397.544 -21.9895ZM-384.229 -34.2689C-386.373 -33.7349 -387.678 -31.5642 -387.144 -29.4206C-386.61 -27.277 -384.439 -25.9721 -382.295 -26.5061L-384.229 -34.2689ZM-381.326 -26.7451C-379.18 -27.2683 -377.864 -29.4323 -378.387 -31.5786C-378.91 -33.7249 -381.074 -35.0407 -383.221 -34.5175L-381.326 -26.7451ZM-366.999 -37.8374C-369.177 -37.47 -370.645 -35.4063 -370.278 -33.2279C-369.91 -31.0495 -367.847 -29.5814 -365.668 -29.9489L-366.999 -37.8374ZM-364.689 -30.112C-362.509 -30.4707 -361.033 -32.5285 -361.392 -34.7084C-361.75 -36.8882 -363.808 -38.3645 -365.988 -38.0058L-364.689 -30.112ZM-349.627 -40.1929C-351.824 -39.9626 -353.419 -37.9949 -353.189 -35.7978C-352.958 -33.6007 -350.991 -32.0062 -348.794 -32.2364L-349.627 -40.1929ZM-347.796 -32.3393C-345.598 -32.5622 -343.997 -34.5246 -344.22 -36.7225C-344.442 -38.9204 -346.405 -40.5214 -348.603 -40.2985L-347.796 -32.3393ZM-332.193 -41.5455C-334.399 -41.431 -336.094 -39.5498 -335.98 -37.3436C-335.866 -35.1374 -333.984 -33.4418 -331.778 -33.5562L-332.193 -41.5455ZM-330.767 -33.6072C-328.561 -33.7154 -326.859 -35.5918 -326.968 -37.7983C-327.076 -40.0047 -328.952 -41.7058 -331.159 -41.5976L-330.767 -33.6072ZM-314.738 -42.0459C-316.947 -42.0315 -318.726 -40.2291 -318.712 -38.02C-318.698 -35.8109 -316.895 -34.0317 -314.686 -34.0461L-314.738 -42.0459ZM-313.676 -34.0514C-311.467 -34.0602 -309.684 -35.8582 -309.692 -38.0673C-309.701 -40.2764 -311.499 -42.0601 -313.708 -42.0513L-313.676 -34.0514ZM-297.293 -41.8029C-299.5 -41.8772 -301.35 -40.1475 -301.425 -37.9396C-301.499 -35.7317 -299.769 -33.8817 -297.561 -33.8075L-297.293 -41.8029ZM-296.554 -33.7725C-294.347 -33.6933 -292.493 -35.4189 -292.414 -37.6266C-292.334 -39.8343 -294.06 -41.6882 -296.268 -41.7673L-296.554 -33.7725ZM-279.878 -40.8962C-282.082 -41.0505 -283.994 -39.3891 -284.148 -37.1853C-284.302 -34.9816 -282.641 -33.07 -280.437 -32.9157L-279.878 -40.8962ZM-279.433 -32.8444C-277.23 -32.6857 -275.315 -34.3432 -275.156 -36.5466C-274.997 -38.75 -276.655 -40.665 -278.858 -40.8237L-279.433 -32.8444ZM-262.523 -39.385C-264.72 -39.6131 -266.686 -38.0167 -266.914 -35.8194C-267.142 -33.622 -265.546 -31.6559 -263.349 -31.4278L-262.523 -39.385ZM-262.342 -31.3224C-260.146 -31.0901 -258.176 -32.6827 -257.944 -34.8796C-257.712 -37.0765 -259.304 -39.0457 -261.501 -39.278L-262.342 -31.3224ZM-245.235 -37.3116C-247.424 -37.609 -249.44 -36.0756 -249.737 -33.8866C-250.035 -31.6976 -248.502 -29.6819 -246.313 -29.3844L-245.235 -37.3116ZM-245.312 -29.2475C-243.123 -28.9461 -241.105 -30.4758 -240.804 -32.6643C-240.502 -34.8528 -242.032 -36.8713 -244.22 -37.1727L-245.312 -29.2475ZM-228.021 -34.7035C-230.2 -35.0675 -232.262 -33.5962 -232.626 -31.4173C-232.99 -29.2383 -231.518 -27.1769 -229.339 -26.8129L-228.021 -34.7035ZM-228.343 -26.6456C-226.165 -26.2777 -224.101 -27.7454 -223.733 -29.9237C-223.365 -32.102 -224.833 -34.166 -227.011 -34.5339L-228.343 -26.6456ZM-210.9 -31.579C-213.067 -32.008 -215.171 -30.5991 -215.6 -28.432C-216.029 -26.2649 -214.62 -24.1604 -212.453 -23.7313L-210.9 -31.579ZM-211.462 -23.5342C-209.296 -23.1013 -207.189 -24.5066 -206.756 -26.6729C-206.323 -28.8392 -207.728 -30.9463 -209.895 -31.3791L-211.462 -23.5342ZM-193.872 -27.9422C-196.026 -28.436 -198.171 -27.0909 -198.665 -24.9377C-199.159 -22.7845 -197.814 -20.6385 -195.661 -20.1446L-193.872 -27.9422ZM-194.678 -19.9183C-192.526 -19.4206 -190.378 -20.762 -189.88 -22.9143C-189.382 -25.0666 -190.723 -27.2149 -192.876 -27.7127L-194.678 -19.9183ZM-176.962 -23.7901C-179.099 -24.35 -181.285 -23.0715 -181.845 -20.9345C-182.405 -18.7975 -181.127 -16.6112 -178.99 -16.0513L-176.962 -23.7901ZM-178.013 -15.7944C-175.877 -15.2305 -173.688 -16.505 -173.124 -18.6409C-172.56 -20.7769 -173.835 -22.9655 -175.971 -23.5294L-178.013 -15.7944ZM-160.192 -19.1086C-162.31 -19.7372 -164.537 -18.53 -165.165 -16.4122C-165.794 -14.2943 -164.587 -12.0679 -162.469 -11.4393L-160.192 -19.1086ZM-161.498 -11.1501C-159.381 -10.5173 -157.153 -11.7202 -156.52 -13.8367C-155.887 -15.9533 -157.09 -18.1821 -159.206 -18.8149L-161.498 -11.1501ZM-143.581 -13.8668C-145.675 -14.5686 -147.942 -13.4395 -148.644 -11.3448C-149.346 -9.25008 -148.217 -6.98307 -146.122 -6.28126L-143.581 -13.8668ZM-145.178 -5.96433C-143.083 -5.26259 -140.816 -6.39183 -140.114 -8.48655C-139.413 -10.5813 -140.542 -12.8483 -142.637 -13.55L-145.178 -5.96433ZM-127.942 -8.91098C-130.06 -9.53905 -132.286 -8.33125 -132.914 -6.21327C-133.542 -4.0953 -132.335 -1.86918 -130.217 -1.24111L-127.942 -8.91098ZM-129.267 -0.960807C-127.148 -0.337427 -124.925 -1.55016 -124.301 -3.66952C-123.678 -5.78888 -124.891 -8.01231 -127.01 -8.63569L-129.267 -0.960807ZM-112.152 -4.54837C-114.292 -5.09666 -116.472 -3.80631 -117.02 -1.6663C-117.568 0.473721 -116.278 2.65302 -114.138 3.20131L-112.152 -4.54837ZM-113.182 3.44509C-111.041 3.98862 -108.864 2.69343 -108.321 0.552201C-107.777 -1.58903 -109.073 -3.76546 -111.214 -4.30899L-113.182 3.44509ZM-96.2158 -0.783467C-98.3749 -1.25075 -100.504 0.120782 -100.971 2.27994C-101.439 4.43909 -100.067 6.56824 -97.9079 7.03552L-96.2158 -0.783467ZM-96.9473 7.2423C-94.7871 7.70478 -92.661 6.32851 -92.1986 4.16832C-91.7361 2.00813 -93.1123 -0.117955 -95.2725 -0.580432L-96.9473 7.2423ZM-80.1585 2.37535C-82.3338 1.98999 -84.4095 3.44101 -84.7949 5.61628C-85.1802 7.79155 -83.7292 9.86734 -81.554 10.2527L-80.1585 2.37535ZM-80.5909 10.4222C-78.4148 10.8027 -76.3422 9.3471 -75.9617 7.17098C-75.5812 4.99486 -77.0368 2.92229 -79.2129 2.54177L-80.5909 10.4222ZM-64.0097 4.92211C-66.1979 4.61932 -68.2174 6.14782 -68.5202 8.33611C-68.823 10.5244 -67.2945 12.5438 -65.1062 12.8466L-64.0097 4.92211ZM-64.1432 12.9788C-61.9543 13.2767 -59.9382 11.7438 -59.6403 9.55482C-59.3423 7.36586 -60.8753 5.34982 -63.0642 5.05187L-64.1432 12.9788ZM-47.7758 6.85601C-49.974 6.63625 -51.9341 8.24008 -52.1539 10.4383C-52.3736 12.6364 -50.7698 14.5966 -48.5716 14.8163L-47.7758 6.85601ZM-47.5859 14.9138C-45.3872 15.1286 -43.4307 13.5203 -43.2159 11.3217C-43.0011 9.12298 -44.6093 7.16647 -46.808 6.95166L-47.5859 14.9138ZM-31.4373 8.17692C-33.6422 8.04069 -35.5401 9.71771 -35.6763 11.9226C-35.8125 14.1276 -34.1355 16.0255 -31.9306 16.1617L-31.4373 8.17692ZM-30.9503 16.2212C-28.7451 16.3525 -26.8509 14.6712 -26.7196 12.466C-26.5883 10.2608 -28.2696 8.36662 -30.4748 8.23531L-30.9503 16.2212ZM-15.0994 8.87654C-17.3079 8.82377 -19.141 10.5713 -19.1938 12.7798C-19.2466 14.9884 -17.499 16.8215 -15.2905 16.8743L-15.0994 8.87654ZM-14.3194 16.8964C-12.1108 16.9443 -10.2815 15.1927 -10.2336 12.9841C-10.1857 10.7755 -11.9373 8.94618 -14.1459 8.89827L-14.3194 16.8964ZM1.26184 8.95803C-0.94708 8.98881 -2.71282 10.8044 -2.68204 13.0134C-2.65127 15.2223 -0.835633 16.988 1.37329 16.9573L1.26184 8.95803ZM2.36184 16.9424C4.57069 16.9066 6.33235 15.087 6.29662 12.8782C6.26088 10.6693 4.44129 8.90769 2.23244 8.94342L2.36184 16.9424ZM17.626 8.4199C15.4198 8.53435 13.7242 10.4156 13.8386 12.6218C13.9531 14.8279 15.8343 16.5236 18.0405 16.4092L17.626 8.4199ZM19.0111 16.3577C21.217 16.2384 22.9085 14.3534 22.7892 12.1475C22.6698 9.94158 20.7849 8.25007 18.5789 8.3694L19.0111 16.3577ZM33.9484 7.26174C31.7482 7.46004 30.1253 9.40443 30.3236 11.6046C30.5219 13.8049 32.4663 15.4277 34.6665 15.2294L33.9484 7.26174ZM35.6495 15.1397C37.8492 14.9364 39.4677 12.9884 39.2644 10.7886C39.0612 8.58886 37.1131 6.97039 34.9133 7.17367L35.6495 15.1397ZM50.1767 5.48551C47.9857 5.76804 46.4386 7.77323 46.7211 9.96423C47.0037 12.1552 49.0088 13.7023 51.1998 13.4198L50.1767 5.48551ZM52.1821 13.292C54.3724 13.0044 55.9149 10.9957 55.6273 8.80535C55.3398 6.61501 53.331 5.07251 51.1407 5.36008L52.1821 13.292ZM66.3847 3.07255C64.2065 3.44087 62.7393 5.50525 63.1076 7.68347C63.4759 9.86169 65.5403 11.3289 67.7185 10.9606L66.3847 3.07255ZM68.6673 10.799C70.8446 10.4257 72.3071 8.35795 71.9338 6.18058C71.5605 4.00321 69.4927 2.54075 67.3153 2.91408L68.6673 10.799ZM82.4472 0.0224003C80.2857 0.478873 78.9035 2.60113 79.36 4.76259C79.8165 6.92406 81.9387 8.30623 84.1002 7.84975L82.4472 0.0224003ZM85.036 7.65095C87.1964 7.1893 88.5735 5.06374 88.1118 2.90338C87.6502 0.743013 85.5246 -0.634069 83.3642 -0.17242L85.036 7.65095ZM98.3663 -3.69675C96.2266 -3.14689 94.9379 -0.966646 95.4877 1.17297C96.0376 3.31259 98.2178 4.60134 100.357 4.05149L98.3663 -3.69675ZM101.328 3.80053C103.467 3.2448 104.749 1.06102 104.194 -1.07708C103.638 -3.21518 101.454 -4.49793 99.3159 -3.9422L101.328 3.80053ZM114.059 -8.13402C111.95 -7.47858 110.771 -5.23702 111.426 -3.12735C112.082 -1.01769 114.323 0.161199 116.433 -0.49424L114.059 -8.13402ZM117.406 -0.79855C119.514 -1.46122 120.685 -3.70681 120.022 -5.81422C119.36 -7.92162 117.114 -9.09282 115.007 -8.43015L117.406 -0.79855ZM129.333 -13.4477C127.286 -12.6181 126.298 -10.2857 127.128 -8.2383C127.958 -6.19085 130.29 -5.2036 132.337 -6.03321L129.333 -13.4477ZM-432.374 -471.713C-432.236 -471.611 -432.098 -471.51 -431.959 -471.409L-427.248 -477.875C-427.374 -477.967 -427.5 -478.059 -427.626 -478.151L-432.374 -471.713ZM-417.838 -462.895C-417.532 -462.743 -417.225 -462.592 -416.916 -462.442L-413.422 -469.639C-413.709 -469.778 -413.993 -469.918 -414.277 -470.059L-417.838 -462.895ZM-401.737 -456.32C-401.413 -456.212 -401.087 -456.106 -400.761 -456L-398.301 -463.613C-398.609 -463.712 -398.916 -463.813 -399.222 -463.914L-401.737 -456.32ZM-385.046 -451.834C-384.715 -451.763 -384.383 -451.694 -384.05 -451.625L-382.43 -459.459C-382.748 -459.525 -383.065 -459.591 -383.381 -459.659L-385.046 -451.834ZM-368.088 -449.02C-367.758 -448.979 -367.427 -448.939 -367.095 -448.9L-366.154 -456.845C-366.474 -456.882 -366.793 -456.921 -367.111 -456.96L-368.088 -449.02ZM-351.035 -447.55C-350.702 -447.533 -350.369 -447.517 -350.036 -447.5L-349.651 -455.491C-349.975 -455.507 -350.298 -455.523 -350.621 -455.54L-351.035 -447.55ZM-333.975 -447.181C-333.638 -447.184 -333.301 -447.187 -332.964 -447.19L-333.044 -455.19C-333.373 -455.186 -333.702 -455.183 -334.03 -455.181L-333.975 -447.181ZM-316.953 -447.734C-316.619 -447.753 -316.284 -447.773 -315.949 -447.793L-316.426 -455.779C-316.753 -455.759 -317.081 -455.74 -317.408 -455.721L-316.953 -447.734ZM-299.995 -449.078C-299.664 -449.111 -299.332 -449.145 -299 -449.179L-299.821 -457.137C-300.146 -457.104 -300.472 -457.07 -300.797 -457.038L-299.995 -449.078ZM-283.12 -451.114C-282.79 -451.16 -282.461 -451.207 -282.132 -451.254L-283.258 -459.174C-283.582 -459.128 -283.906 -459.082 -284.229 -459.037L-283.12 -451.114ZM-266.343 -453.77C-266.015 -453.827 -265.688 -453.885 -265.361 -453.943L-266.764 -461.819C-267.086 -461.762 -267.408 -461.705 -267.73 -461.648L-266.343 -453.77ZM-249.686 -456.986C-249.361 -457.054 -249.035 -457.123 -248.709 -457.192L-250.366 -465.018C-250.687 -464.95 -251.008 -464.882 -251.329 -464.815L-249.686 -456.986ZM-233.14 -460.725C-232.817 -460.803 -232.494 -460.882 -232.171 -460.96L-234.067 -468.732C-234.385 -468.655 -234.704 -468.577 -235.022 -468.5L-233.14 -460.725ZM-216.72 -464.957C-216.399 -465.045 -216.078 -465.133 -215.757 -465.221L-217.88 -472.934C-218.197 -472.847 -218.513 -472.76 -218.83 -472.674L-216.72 -464.957ZM-200.431 -469.665C-200.113 -469.761 -199.795 -469.858 -199.478 -469.956L-201.822 -477.604C-202.135 -477.508 -202.448 -477.413 -202.762 -477.317L-200.431 -469.665ZM-184.281 -474.839C-183.966 -474.945 -183.651 -475.051 -183.336 -475.158L-185.9 -482.736C-186.21 -482.631 -186.521 -482.526 -186.832 -482.421L-184.281 -474.839ZM-168.293 -480.478C-167.98 -480.593 -167.667 -480.709 -167.355 -480.825L-170.14 -488.325C-170.448 -488.21 -170.756 -488.096 -171.065 -487.982L-168.293 -480.478ZM-152.479 -486.593C-152.326 -486.655 -152.173 -486.717 -152.02 -486.779L-155.027 -494.192C-155.178 -494.131 -155.329 -494.07 -155.479 -494.009L-152.479 -486.593ZM-152.02 -486.779C-151.864 -486.842 -151.709 -486.905 -151.554 -486.968L-154.555 -494.384C-154.712 -494.32 -154.869 -494.256 -155.027 -494.192L-152.02 -486.779ZM-136.821 -492.692C-136.517 -492.805 -136.214 -492.918 -135.911 -493.03L-138.69 -500.532C-138.997 -500.418 -139.305 -500.304 -139.613 -500.19L-136.821 -492.692ZM-121.023 -498.298C-120.715 -498.402 -120.407 -498.506 -120.1 -498.609L-122.642 -506.194C-122.954 -506.089 -123.267 -505.984 -123.58 -505.879L-121.023 -498.298ZM-105.074 -503.39C-104.761 -503.484 -104.449 -503.577 -104.138 -503.67L-106.429 -511.335C-106.746 -511.241 -107.063 -511.145 -107.38 -511.05L-105.074 -503.39ZM-88.9747 -507.938C-88.6591 -508.021 -88.3438 -508.104 -88.0288 -508.186L-90.0536 -515.926C-90.374 -515.842 -90.6946 -515.758 -91.0155 -515.673L-88.9747 -507.938ZM-72.7356 -511.912C-72.4173 -511.983 -72.0994 -512.055 -71.7817 -512.126L-73.524 -519.934C-73.8473 -519.861 -74.171 -519.789 -74.4949 -519.716L-72.7356 -511.912ZM-56.3707 -515.278C-56.0506 -515.337 -55.7309 -515.396 -55.4115 -515.455L-56.8548 -523.324C-57.1802 -523.264 -57.5059 -523.204 -57.8319 -523.143L-56.3707 -515.278ZM-39.9014 -518.001C-39.5805 -518.048 -39.2599 -518.094 -38.9397 -518.139L-40.0671 -526.06C-40.3936 -526.013 -40.7204 -525.966 -41.0476 -525.919L-39.9014 -518.001ZM-23.3561 -520.047C-23.0354 -520.08 -22.7152 -520.113 -22.3954 -520.144L-23.19 -528.105C-23.5164 -528.072 -23.8432 -528.039 -24.1704 -528.006L-23.3561 -520.047ZM-6.73051 -521.384C-6.39803 -521.403 -6.06604 -521.422 -5.73453 -521.441L-6.17787 -529.428C-6.51653 -529.409 -6.85568 -529.39 -7.19531 -529.37L-6.73051 -521.384ZM9.98269 -521.974C10.312 -521.978 10.6408 -521.982 10.9691 -521.985L10.8945 -529.984C10.5588 -529.981 10.2226 -529.978 9.88583 -529.973L9.98269 -521.974ZM26.6544 -521.779C26.9788 -521.767 27.3026 -521.755 27.6258 -521.742L27.9359 -529.736C27.6051 -529.749 27.2737 -529.762 26.9416 -529.774L26.6544 -521.779ZM43.2444 -520.769C43.5765 -520.741 43.9078 -520.712 44.2385 -520.682L44.95 -528.651C44.6112 -528.681 44.2717 -528.711 43.9314 -528.74L43.2444 -520.769ZM59.8422 -518.901C60.1644 -518.856 60.4859 -518.81 60.8065 -518.765L61.9372 -526.684C61.6083 -526.731 61.2785 -526.778 60.948 -526.824L59.8422 -518.901ZM76.2361 -516.155C76.5615 -516.091 76.886 -516.027 77.2094 -515.962L78.7758 -523.807C78.4435 -523.874 78.1103 -523.94 77.776 -524.005L76.2361 -516.155ZM92.427 -512.493C92.7474 -512.411 93.0667 -512.328 93.3847 -512.245L95.4048 -519.986C95.0775 -520.071 94.7491 -520.156 94.4194 -520.241L92.427 -512.493ZM108.389 -507.863C108.703 -507.761 109.015 -507.659 109.326 -507.557L111.824 -515.157C111.503 -515.262 111.182 -515.368 110.858 -515.472L108.389 -507.863ZM124.034 -502.203C124.342 -502.08 124.647 -501.956 124.951 -501.833L127.963 -509.244C127.649 -509.372 127.333 -509.499 127.014 -509.627L124.034 -502.203ZM139.134 -495.461C139.437 -495.311 139.734 -495.162 140.027 -495.015L143.625 -502.16C143.318 -502.314 143.008 -502.47 142.692 -502.626L139.134 -495.461ZM153.323 -487.439C153.439 -487.36 153.522 -487.303 153.574 -487.267C153.6 -487.249 153.618 -487.236 153.628 -487.229C153.633 -487.226 153.636 -487.223 153.637 -487.223C153.638 -487.222 153.638 -487.222 153.637 -487.223C153.637 -487.223 153.637 -487.223 153.636 -487.223C153.636 -487.224 153.636 -487.224 153.635 -487.224C153.635 -487.224 153.635 -487.224 153.635 -487.224C153.635 -487.224 153.635 -487.225 153.634 -487.225C153.634 -487.225 153.634 -487.225 153.634 -487.225C153.634 -487.225 153.634 -487.225 155.951 -490.486C158.267 -493.747 158.267 -493.747 158.267 -493.747C158.267 -493.747 158.267 -493.747 158.267 -493.747C158.267 -493.747 158.267 -493.747 158.266 -493.747C158.266 -493.747 158.266 -493.748 158.266 -493.748C158.265 -493.748 158.265 -493.748 158.264 -493.749C158.263 -493.749 158.262 -493.75 158.261 -493.751C158.259 -493.753 158.256 -493.755 158.252 -493.757C158.245 -493.762 158.236 -493.769 158.225 -493.777C158.203 -493.792 158.173 -493.813 158.134 -493.84C158.058 -493.893 157.949 -493.967 157.809 -494.063L153.323 -487.439ZM154.508 -486.755C154.655 -486.698 154.803 -486.64 154.951 -486.583L157.868 -494.032C157.71 -494.094 157.552 -494.155 157.394 -494.216L154.508 -486.755ZM168.852 -480.064C169.131 -479.911 169.41 -479.757 169.689 -479.601L173.585 -486.589C173.289 -486.754 172.993 -486.917 172.696 -487.08L168.852 -480.064ZM182.706 -471.33C182.967 -471.144 183.227 -470.956 183.488 -470.767L188.185 -477.243C187.91 -477.442 187.636 -477.64 187.361 -477.837L182.706 -471.33ZM195.555 -461.057C195.797 -460.843 196.038 -460.628 196.279 -460.412L201.621 -466.367C201.369 -466.593 201.116 -466.818 200.863 -467.043L195.555 -461.057ZM207.384 -449.536C207.606 -449.299 207.828 -449.061 208.049 -448.823L213.91 -454.269C213.679 -454.517 213.448 -454.765 213.216 -455.011L207.384 -449.536ZM218.21 -437.006C218.413 -436.751 218.616 -436.495 218.819 -436.238L225.097 -441.196C224.887 -441.462 224.677 -441.727 224.466 -441.992L218.21 -437.006ZM228.068 -423.657C228.253 -423.387 228.437 -423.117 228.621 -422.846L235.24 -427.339C235.05 -427.619 234.859 -427.898 234.668 -428.177L228.068 -423.657ZM236.996 -409.638C237.163 -409.356 237.329 -409.074 237.495 -408.791L244.394 -412.842C244.223 -413.133 244.051 -413.424 243.88 -413.714L236.996 -409.638ZM245.031 -395.065C245.181 -394.774 245.33 -394.482 245.478 -394.19L252.609 -397.817C252.456 -398.117 252.303 -398.417 252.15 -398.716L245.031 -395.065ZM252.204 -380.032C252.337 -379.733 252.469 -379.434 252.6 -379.134L259.925 -382.35C259.79 -382.658 259.654 -382.966 259.518 -383.273L252.204 -380.032ZM258.539 -364.614C258.655 -364.308 258.771 -364.002 258.886 -363.696L266.373 -366.513C266.255 -366.827 266.136 -367.141 266.017 -367.455L258.539 -364.614ZM264.052 -348.873C264.152 -348.561 264.252 -348.25 264.351 -347.938L271.974 -350.364C271.873 -350.683 271.771 -351.002 271.668 -351.321L264.052 -348.873ZM268.753 -332.863C268.838 -332.548 268.921 -332.232 269.004 -331.916L276.741 -333.953C276.656 -334.276 276.57 -334.6 276.484 -334.923L268.753 -332.863ZM272.646 -316.634C272.714 -316.315 272.782 -315.996 272.849 -315.676L280.678 -317.325C280.609 -317.652 280.539 -317.979 280.47 -318.306L272.646 -316.634ZM275.727 -300.231C275.779 -299.909 275.831 -299.587 275.882 -299.264L283.783 -300.522C283.73 -300.852 283.677 -301.183 283.624 -301.512L275.727 -300.231ZM277.987 -283.698C278.024 -283.374 278.059 -283.049 278.094 -282.724L286.048 -283.586C286.012 -283.918 285.975 -284.251 285.938 -284.583L277.987 -283.698ZM279.414 -267.08C279.434 -266.753 279.453 -266.426 279.472 -266.099L287.458 -266.557C287.439 -266.892 287.42 -267.227 287.399 -267.562L279.414 -267.08ZM279.988 -250.417C279.991 -250.09 279.994 -249.763 279.995 -249.436L287.995 -249.479C287.993 -249.815 287.991 -250.15 287.988 -250.485L279.988 -250.417ZM279.689 -233.751C279.674 -233.424 279.659 -233.098 279.643 -232.771L287.634 -232.388C287.65 -232.723 287.666 -233.058 287.681 -233.393L279.689 -233.751ZM278.489 -217.132C278.456 -216.807 278.423 -216.482 278.39 -216.157L286.347 -215.334C286.382 -215.667 286.416 -216.001 286.449 -216.335L278.489 -217.132ZM276.361 -200.615C276.31 -200.292 276.258 -199.97 276.206 -199.648L284.103 -198.37C284.157 -198.702 284.21 -199.033 284.262 -199.365L276.361 -200.615ZM273.275 -184.261C273.205 -183.942 273.134 -183.623 273.063 -183.305L280.87 -181.559C280.944 -181.887 281.016 -182.215 281.088 -182.543L273.275 -184.261ZM269.205 -168.135C269.115 -167.821 269.025 -167.508 268.934 -167.195L276.617 -164.967C276.711 -165.29 276.804 -165.612 276.896 -165.935L269.205 -168.135ZM264.124 -152.309C264.014 -152.002 263.904 -151.696 263.793 -151.39L271.316 -148.668C271.43 -148.984 271.544 -149.3 271.657 -149.617L264.124 -152.309ZM258.013 -136.859C257.883 -136.561 257.753 -136.263 257.622 -135.966L264.944 -132.744C265.079 -133.051 265.214 -133.358 265.348 -133.666L258.013 -136.859ZM250.865 -121.879C250.714 -121.59 250.563 -121.301 250.411 -121.012L257.491 -117.287C257.648 -117.585 257.804 -117.884 257.96 -118.183L250.865 -121.879ZM242.683 -107.454C242.512 -107.176 242.341 -106.899 242.168 -106.622L248.962 -102.398C249.141 -102.684 249.318 -102.971 249.495 -103.259L242.683 -107.454ZM233.483 -93.6668C233.292 -93.4027 233.101 -93.1389 232.909 -92.8754L239.375 -88.1651C239.574 -88.438 239.772 -88.7112 239.969 -88.9847L233.483 -93.6668ZM223.293 -80.5979C223.084 -80.3492 222.874 -80.1008 222.663 -79.8527L228.763 -74.6763C228.981 -74.9333 229.198 -75.1906 229.415 -75.4483L223.293 -80.5979ZM212.157 -68.3157C211.931 -68.084 211.704 -67.8526 211.476 -67.6216L217.175 -62.0073C217.411 -62.2465 217.646 -62.4861 217.88 -62.7261L212.157 -68.3157ZM200.127 -56.8746C199.886 -56.6613 199.644 -56.4484 199.401 -56.2359L204.673 -50.2182C204.924 -50.4382 205.174 -50.6586 205.424 -50.8793L200.127 -56.8746ZM187.284 -46.3301C187.023 -46.1305 186.76 -45.9312 186.497 -45.7324L191.322 -39.3508C191.594 -39.5565 191.865 -39.7625 192.136 -39.9689L187.284 -46.3301ZM173.786 -36.7622C173.511 -36.5817 173.236 -36.4015 172.961 -36.2217L177.332 -29.5215C177.616 -29.7072 177.9 -29.8933 178.184 -30.0798L173.786 -36.7622ZM159.641 -28.1193C159.358 -27.9586 159.073 -27.7983 158.789 -27.6384L162.705 -20.6627C162.999 -20.8276 163.292 -20.9929 163.585 -21.1587L159.641 -28.1193ZM144.906 -20.3849C144.616 -20.244 144.325 -20.1036 144.034 -19.9635L147.501 -12.7539C147.801 -12.8982 148.1 -13.0428 148.399 -13.1878L144.906 -20.3849ZM129.64 -13.5411C129.486 -13.4774 129.331 -13.4138 129.177 -13.3503L132.218 -5.95072C132.376 -6.016 132.535 -6.08137 132.694 -6.14686L129.64 -13.5411ZM-427.626 -6.69426C-427.497 -6.78907 -427.368 -6.88362 -427.239 -6.97792L-431.951 -13.4431C-432.092 -13.34 -432.233 -13.2365 -432.374 -13.1328L-427.626 -6.69426ZM-413.911 -15.0805C-413.62 -15.2285 -413.328 -15.3756 -413.034 -15.5218L-416.598 -22.6842C-416.912 -22.5279 -417.225 -22.3705 -417.536 -22.2121L-413.911 -15.0805ZM-398.487 -21.6571C-398.174 -21.7687 -397.859 -21.8795 -397.544 -21.9895L-400.178 -29.5435C-400.51 -29.4277 -400.841 -29.3112 -401.171 -29.1937L-398.487 -21.6571ZM-382.295 -26.5061C-381.973 -26.5864 -381.65 -26.6661 -381.326 -26.7451L-383.221 -34.5175C-383.558 -34.4353 -383.894 -34.3525 -384.229 -34.2689L-382.295 -26.5061ZM-365.668 -29.9489C-365.342 -30.0038 -365.016 -30.0582 -364.689 -30.112L-365.988 -38.0058C-366.325 -37.9503 -366.662 -37.8942 -366.999 -37.8374L-365.668 -29.9489ZM-348.794 -32.2364C-348.461 -32.2712 -348.129 -32.3055 -347.796 -32.3393L-348.603 -40.2985C-348.945 -40.2638 -349.286 -40.2286 -349.627 -40.1929L-348.794 -32.2364ZM-331.778 -33.5562C-331.441 -33.5737 -331.104 -33.5907 -330.767 -33.6072L-331.159 -41.5976C-331.504 -41.5807 -331.848 -41.5634 -332.193 -41.5455L-331.778 -33.5562ZM-314.686 -34.0461C-314.35 -34.0482 -314.013 -34.05 -313.676 -34.0514L-313.708 -42.0513C-314.052 -42.0499 -314.395 -42.0481 -314.738 -42.0459L-314.686 -34.0461ZM-297.561 -33.8075C-297.226 -33.7962 -296.89 -33.7845 -296.554 -33.7725L-296.268 -41.7673C-296.609 -41.7796 -296.951 -41.7915 -297.293 -41.8029L-297.561 -33.8075ZM-280.437 -32.9157C-280.103 -32.8923 -279.768 -32.8686 -279.433 -32.8444L-278.858 -40.8237C-279.198 -40.8483 -279.538 -40.8724 -279.878 -40.8962L-280.437 -32.9157ZM-263.349 -31.4278C-263.013 -31.393 -262.678 -31.3578 -262.342 -31.3224L-261.501 -39.278C-261.842 -39.314 -262.182 -39.3497 -262.523 -39.385L-263.349 -31.4278ZM-246.313 -29.3844C-245.979 -29.3391 -245.645 -29.2935 -245.312 -29.2475L-244.22 -37.1727C-244.559 -37.2193 -244.897 -37.2656 -245.235 -37.3116L-246.313 -29.3844ZM-229.339 -26.8129C-229.007 -26.7574 -228.675 -26.7016 -228.343 -26.6456L-227.011 -34.5339C-227.348 -34.5907 -227.684 -34.6473 -228.021 -34.7035L-229.339 -26.8129ZM-212.453 -23.7313C-212.123 -23.6659 -211.792 -23.6002 -211.462 -23.5342L-209.895 -31.3791C-210.23 -31.446 -210.565 -31.5127 -210.9 -31.579L-212.453 -23.7313ZM-195.661 -20.1446C-195.333 -20.0695 -195.006 -19.994 -194.678 -19.9183L-192.876 -27.7127C-193.208 -27.7894 -193.54 -27.8659 -193.872 -27.9422L-195.661 -20.1446ZM-178.99 -16.0513C-178.664 -15.9659 -178.338 -15.8803 -178.013 -15.7944L-175.971 -23.5294C-176.301 -23.6166 -176.631 -23.7034 -176.962 -23.7901L-178.99 -16.0513ZM-162.469 -11.4393C-162.145 -11.3432 -161.821 -11.2468 -161.498 -11.1501L-159.206 -18.8149C-159.535 -18.9131 -159.863 -19.011 -160.192 -19.1086L-162.469 -11.4393ZM-146.122 -6.28126C-145.964 -6.22826 -145.806 -6.1752 -145.648 -6.12208L-143.098 -13.7049C-143.259 -13.759 -143.42 -13.8129 -143.581 -13.8668L-146.122 -6.28126ZM-145.648 -6.12208C-145.491 -6.06939 -145.335 -6.0168 -145.178 -5.96433L-142.637 -13.55C-142.791 -13.6015 -142.944 -13.6532 -143.098 -13.7049L-145.648 -6.12208ZM-130.217 -1.24111C-129.9 -1.14725 -129.584 -1.05382 -129.267 -0.960807L-127.01 -8.63569C-127.321 -8.72704 -127.631 -8.8188 -127.942 -8.91098L-130.217 -1.24111ZM-114.138 3.20131C-113.819 3.283 -113.501 3.36425 -113.182 3.44509L-111.214 -4.30899C-111.527 -4.38837 -111.839 -4.46817 -112.152 -4.54837L-114.138 3.20131ZM-97.9079 7.03552C-97.5875 7.10486 -97.2673 7.17379 -96.9473 7.2423L-95.2725 -0.580432C-95.5868 -0.647703 -95.9012 -0.715381 -96.2158 -0.783467L-97.9079 7.03552ZM-81.554 10.2527C-81.2327 10.3096 -80.9117 10.3661 -80.5909 10.4222L-79.2129 2.54177C-79.5279 2.48669 -79.8431 2.43122 -80.1585 2.37535L-81.554 10.2527ZM-65.1062 12.8466C-64.7849 12.8911 -64.464 12.9351 -64.1432 12.9788L-63.0642 5.05187C-63.3791 5.009 -63.6943 4.96575 -64.0097 4.92211L-65.1062 12.8466ZM-48.5716 14.8163C-48.2427 14.8492 -47.9142 14.8817 -47.5859 14.9138L-46.808 6.95166C-47.1303 6.92017 -47.4529 6.88829 -47.7758 6.85601L-48.5716 14.8163ZM-31.9306 16.1617C-31.6035 16.1819 -31.2767 16.2017 -30.9503 16.2212L-30.4748 8.23531C-30.7953 8.21623 -31.1161 8.19676 -31.4373 8.17692L-31.9306 16.1617ZM-15.2905 16.8743C-14.9664 16.882 -14.6427 16.8894 -14.3194 16.8964L-14.1459 8.89827C-14.4634 8.89139 -14.7812 8.88415 -15.0994 8.87654L-15.2905 16.8743ZM1.37329 16.9573C1.70328 16.9527 2.0328 16.9477 2.36184 16.9424L2.23244 8.94342C1.90937 8.94865 1.58584 8.95352 1.26184 8.95803L1.37329 16.9573ZM18.0405 16.4092C18.3646 16.3923 18.6881 16.3752 19.0111 16.3577L18.5789 8.3694C18.2618 8.38656 17.9442 8.40339 17.626 8.4199L18.0405 16.4092ZM34.6665 15.2294C34.9948 15.1999 35.3225 15.1699 35.6495 15.1397L34.9133 7.17367C34.5923 7.20333 34.2707 7.23269 33.9484 7.26174L34.6665 15.2294ZM51.1998 13.4198C51.5281 13.3775 51.8555 13.3349 52.1821 13.292L51.1407 5.36008C50.8202 5.40216 50.4988 5.44397 50.1767 5.48551L51.1998 13.4198ZM67.7185 10.9606C68.0358 10.9069 68.352 10.8531 68.6673 10.799L67.3153 2.91408C67.0061 2.9671 66.6959 3.01993 66.3847 3.07255L67.7185 10.9606ZM84.1002 7.84975C84.4135 7.7836 84.7254 7.71733 85.036 7.65095L83.3642 -0.17242C83.0599 -0.107379 82.7542 -0.0424358 82.4472 0.0224003L84.1002 7.84975ZM100.357 4.05149C100.683 3.96773 101.007 3.88408 101.328 3.80053L99.3159 -3.9422C99.0016 -3.86049 98.685 -3.77867 98.3663 -3.69675L100.357 4.05149ZM116.433 -0.49424C116.762 -0.596519 117.087 -0.697972 117.406 -0.79855L115.007 -8.43015C114.696 -8.3323 114.38 -8.23358 114.059 -8.13402L116.433 -0.49424ZM132.337 -6.03321C132.486 -6.09345 132.6 -6.14029 132.679 -6.17295C132.719 -6.18928 132.749 -6.20207 132.771 -6.21122C132.782 -6.21579 132.791 -6.21946 132.797 -6.2222C132.801 -6.22357 132.803 -6.22471 132.806 -6.22562C132.807 -6.22608 132.808 -6.22648 132.808 -6.22681C132.809 -6.22698 132.809 -6.22714 132.81 -6.22728C132.81 -6.22735 132.81 -6.22741 132.81 -6.22748C132.81 -6.22751 132.81 -6.22754 132.81 -6.22757C132.81 -6.22758 132.81 -6.22761 132.81 -6.22761C132.81 -6.22763 132.81 -6.22766 131.257 -9.91351C129.703 -13.5994 129.703 -13.5994 129.703 -13.5994C129.703 -13.5994 129.703 -13.5994 129.703 -13.5995C129.703 -13.5995 129.703 -13.5995 129.703 -13.5995C129.703 -13.5996 129.703 -13.5996 129.703 -13.5997C129.704 -13.5997 129.704 -13.5998 129.704 -13.5999C129.704 -13.6 129.704 -13.6 129.704 -13.6C129.704 -13.6 129.704 -13.5997 129.702 -13.5993C129.7 -13.5983 129.696 -13.5964 129.689 -13.5936C129.676 -13.588 129.653 -13.5788 129.623 -13.566C129.561 -13.5405 129.464 -13.5008 129.333 -13.4477L132.337 -6.03321Z" fill="#565CBD"/>
</g>
<defs>
<clipPath id="clip0_3_6">
<rect width="88" height="17" fill="white"/>
</clipPath>
</defs>
</svg>
