<svg width="166" height="184" viewBox="0 0 166 184" fill="none" xmlns="http://www.w3.org/2000/svg">
<path d="M32.2116 165.008C68.7179 165.008 93.7874 183.918 111.378 183.918C128.969 183.918 165.913 173.806 165.913 92.8814C165.913 11.9572 116.213 0.0769653 96.8643 0.0769653C6.26073 0.0769653 -32.4412 165.008 32.2116 165.008Z" fill="#F5F2FF"/>
<path d="M133.799 24.7083H139.077V35.2639H133.799V24.7083Z" fill="#A9ADEC"/>
<path d="M145.674 40.5417H156.229V45.8195H145.674V40.5417Z" fill="#A9ADEC"/>
<path d="M94.8751 135.542H32.8612C27.0293 135.542 22.3057 130.818 22.3057 124.986V43.1806C22.3057 37.3486 27.0293 32.625 32.8612 32.625H94.8751C100.707 32.625 105.431 37.3486 105.431 43.1806V124.986C105.431 130.818 100.707 135.542 94.8751 135.542Z" fill="#F2F6FF"/>
<path d="M101.641 148.578L85.7812 151.375L88.5785 135.515L127.766 96.3278C129.83 94.2642 132.236 93.3353 134.295 95.3936L140.823 101.922C142.887 103.986 142.887 107.327 140.823 109.385L101.641 148.578Z" fill="#F9DC46"/>
<path d="M100.459 135.515L137.441 98.5339L134.3 95.3936C132.237 93.33 129.83 94.2642 127.772 96.3278L88.5843 135.515L85.7871 151.375L98.0421 149.211L100.459 135.515Z" fill="#F99746"/>
<path d="M34.1807 124.986V43.1806C34.1807 37.3486 38.9043 32.625 44.7362 32.625H32.8612C27.0293 32.625 22.3057 37.3486 22.3057 43.1806V124.986C22.3057 130.818 27.0293 135.542 32.8612 135.542H44.7362C38.9043 135.542 34.1807 130.818 34.1807 124.986Z" fill="#D1D3F1"/>
<path d="M85.7815 155.333C84.7418 155.333 83.7284 154.922 82.9843 154.172C82.0712 153.259 81.6595 151.956 81.8865 150.689L84.6837 134.829C84.8262 134.027 85.2115 133.288 85.7815 132.718L124.969 93.5306C126.637 91.8628 128.405 90.8178 130.226 90.443C132.743 89.9047 135.181 90.6806 137.097 92.5964L143.626 99.125C147.225 102.73 147.225 108.583 143.626 112.187L104.444 151.375C103.868 151.945 103.13 152.336 102.333 152.473L86.4729 155.27C86.2406 155.312 86.0137 155.333 85.7815 155.333ZM92.2626 137.431L90.6634 146.493L99.7254 144.894L138.026 106.588C138.538 106.071 138.538 105.237 138.026 104.719L131.545 98.2383C131.492 98.3386 131.096 98.5867 130.563 99.1197L92.2626 137.431Z" fill="#565CBD"/>
<path d="M72.4966 139.5H34.1799C26.1735 139.5 19.666 132.993 19.666 124.986V43.1806C19.666 35.1742 26.1735 28.6667 34.1799 28.6667H94.8744C102.881 28.6667 109.388 35.1742 109.388 43.1806V96.275H101.472V43.1806C101.472 39.5442 98.5107 36.5834 94.8744 36.5834H34.1799C30.5435 36.5834 27.5827 39.5442 27.5827 43.1806V124.986C27.5827 128.623 30.5435 131.583 34.1799 131.583H72.4966V139.5Z" fill="#565CBD"/>
<path d="M39.459 70.8889H89.5979V78.8056H39.459V70.8889Z" fill="#565CBD"/>
<path d="M39.459 92H68.4868V99.9167H39.459V92Z" fill="#565CBD"/>
<path d="M39.459 49.7778H63.209V57.6944H39.459V49.7778Z" fill="#565CBD"/>
</svg>
