<svg width="32" height="33" viewBox="0 0 32 33" fill="none" xmlns="http://www.w3.org/2000/svg">
<path d="M16 32.2988C24.8366 32.2988 32 25.1354 32 16.2988C32 7.46227 24.8366 0.298828 16 0.298828C7.16344 0.298828 0 7.46227 0 16.2988C0 25.1354 7.16344 32.2988 16 32.2988Z" fill="#F20000"/>
<path d="M23.6253 12.4505C23.3053 11.4568 22.2464 10.8694 21.2632 10.7326C17.7587 10.36 14.2246 10.36 10.7201 10.7326C9.74533 10.8694 8.68639 11.4652 8.36639 12.4505C7.86745 14.9926 7.86745 17.6074 8.36639 20.1494C8.69481 21.141 9.75375 21.7305 10.7369 21.8673C14.2415 22.2379 17.7755 22.2379 21.2801 21.8673C22.2548 21.7305 23.3138 21.1326 23.6338 20.1494C24.1299 17.6068 24.1271 14.992 23.6253 12.4505ZM14.0864 19.3642V13.2337L19.078 16.2989C17.3959 17.3326 15.7622 18.3389 14.0864 19.3642Z" fill="white"/>
</svg>
