<svg xmlns="http://www.w3.org/2000/svg" width="20.373" height="22.669" viewBox="0 0 20.373 22.669">
  <path id="accessabillity" d="M24.9,3.145a2.267,2.267,0,0,1-.175-.9,2.205,2.205,0,0,1,.175-.871,2.332,2.332,0,0,1,.466-.714,2.236,2.236,0,0,1,.687-.484A2.042,2.042,0,0,1,26.914,0a1.988,1.988,0,0,1,.838.181,2.387,2.387,0,0,1,.7.484,2.079,2.079,0,0,1,.466.714,2.342,2.342,0,0,1,.163.871,2.258,2.258,0,0,1-.629,1.609,2.117,2.117,0,0,1-2.4.484,2.236,2.236,0,0,1-.687-.484A2.332,2.332,0,0,1,24.9,3.145Zm8.464,12.387a.842.842,0,0,0-.71.121.991.991,0,0,0-.407.6,3.64,3.64,0,0,1-.21.7,5.525,5.525,0,0,1-.85,1.548,6.06,6.06,0,0,1-1.257,1.21,5.727,5.727,0,0,1-1.56.786,5.618,5.618,0,0,1-1.758.278,5.5,5.5,0,0,1-2.235-.46,5.975,5.975,0,0,1-1.828-1.234,5.76,5.76,0,0,1-1.234-1.827,5.8,5.8,0,0,1-.186-3.992,5.927,5.927,0,0,1,.757-1.548,5.866,5.866,0,0,1,1.164-1.258,5.942,5.942,0,0,1,1.513-.883A.854.854,0,0,0,25.1,9.1a.931.931,0,0,0-.477-1.246,1,1,0,0,0-.733-.036,7.859,7.859,0,0,0-3.562,2.831A7.658,7.658,0,0,0,18.974,15a7.405,7.405,0,0,0,.605,2.988,7.754,7.754,0,0,0,4.063,4.076,7.337,7.337,0,0,0,2.969.6,7.493,7.493,0,0,0,2.328-.363,7.839,7.839,0,0,0,2.072-1.028,7.5,7.5,0,0,0,1.676-1.609,7.41,7.41,0,0,0,1.118-2.081,6.349,6.349,0,0,0,.279-.919.9.9,0,0,0-.116-.726A.976.976,0,0,0,33.363,15.532Zm5.867,3.7L35.668,12.8a1.509,1.509,0,0,0-1.4-.9H30.313l-.466-2.371h3.1a1.026,1.026,0,0,0,.536-.1.851.851,0,0,0,.4-.387.942.942,0,0,0,.082-.726.91.91,0,0,0-.454-.581.753.753,0,0,0-.419-.121H29.452l-.21-1.113a.1.1,0,0,0-.012-.06.1.1,0,0,1-.012-.06L29.2,6.314a1.8,1.8,0,0,0-.617-.919,1.647,1.647,0,0,0-1.059-.363A1.762,1.762,0,0,0,25.749,6.8a.652.652,0,0,0,.023.194h-.023L27.03,13.4a1.458,1.458,0,0,0,.512.907,1.477,1.477,0,0,0,.978.351,1.065,1.065,0,0,0,.256-.024h5.285L37.135,20.2a1.2,1.2,0,0,0,.419.508,1.116,1.116,0,0,0,.652.194,1.1,1.1,0,0,0,.8-.339,1.122,1.122,0,0,0,.338-.823A1.155,1.155,0,0,0,39.231,19.233Z" transform="translate(-18.974)" fill="#0f85d6"/>
</svg>
