<svg xmlns="http://www.w3.org/2000/svg" width="36.378" height="36.378" viewBox="0 0 36.378 36.378">
  <g id="focus" transform="translate(0)">
    <g id="Group_184" data-name="Group 184">
      <path id="Path_276" data-name="Path 276" d="M55.8,131.09l.341-.557-.341-.557a20.5,20.5,0,0,0-4.1-4.527,18.469,18.469,0,0,0-24.189,0,20.7,20.7,0,0,0-4.126,4.525l-.348.562.348.562a20.7,20.7,0,0,0,4.126,4.525,18.469,18.469,0,0,0,24.189,0A20.489,20.489,0,0,0,55.8,131.09Zm-5.516,2.936a16.332,16.332,0,0,1-21.353,0,20.111,20.111,0,0,1-3.338-3.49,20.113,20.113,0,0,1,3.338-3.491,16.332,16.332,0,0,1,21.353,0,19.85,19.85,0,0,1,3.314,3.493A19.854,19.854,0,0,1,50.282,134.027Zm0,0" transform="translate(-21.402 -112.345)" fill="#0f85d6"/>
      <path id="Path_277" data-name="Path 277" d="M172.271,165.867a6.4,6.4,0,1,0,6.4,6.4A6.411,6.411,0,0,0,172.271,165.867Zm0,10.676a4.272,4.272,0,1,1,4.272-4.272A4.277,4.277,0,0,1,172.271,176.543Zm0,0" transform="translate(-154.082 -154.082)" fill="#0f85d6"/>
      <path id="Path_278" data-name="Path 278" d="M2.132,2.132h4.45V0H0V6.5H2.132Zm0,0" fill="#0f85d6"/>
      <path id="Path_279" data-name="Path 279" d="M419.375,0V2.132h4.45V6.5h2.131V0Zm0,0" transform="translate(-389.578)" fill="#0f85d6"/>
      <path id="Path_280" data-name="Path 280" d="M2.132,420.5H0V427H6.581V424.87H2.132Zm0,0" transform="translate(0 -390.623)" fill="#0f85d6"/>
      <path id="Path_281" data-name="Path 281" d="M423.825,424.87h-4.45V427h6.581v-6.5h-2.131Zm0,0" transform="translate(-389.578 -390.623)" fill="#0f85d6"/>
    </g>
  </g>
</svg>
