<svg xmlns="http://www.w3.org/2000/svg" width="24.198" height="25.459" viewBox="0 0 24.198 25.459">
  <path id="Path_261" data-name="Path 261" d="M32.386,5.218h-.654V3.762A3.767,3.767,0,0,0,27.969,0h-7.9a3.767,3.767,0,0,0-3.762,3.762V5.218h-.6A3.767,3.767,0,0,0,11.95,8.98v6.068a3.767,3.767,0,0,0,3.762,3.762H16.3v4.77a1.883,1.883,0,0,0,1.878,1.878H29.848a1.883,1.883,0,0,0,1.878-1.878V18.81h.66a3.767,3.767,0,0,0,3.762-3.762V8.98A3.767,3.767,0,0,0,32.386,5.218ZM17.728,3.762a2.342,2.342,0,0,1,2.337-2.337h7.894A2.342,2.342,0,0,1,30.3,3.762V5.218H17.728ZM30.3,23.591a.457.457,0,0,1-.454.454H18.181a.457.457,0,0,1-.454-.454V15.724H30.3Zm4.422-8.537a2.342,2.342,0,0,1-2.337,2.337h-.654V15.724h.939a.712.712,0,0,0,0-1.425H15.258a.712.712,0,0,0,0,1.425h1.05v1.667h-.6a2.342,2.342,0,0,1-2.337-2.337V8.986a2.342,2.342,0,0,1,2.337-2.337H32.386a2.342,2.342,0,0,1,2.337,2.337Z" transform="translate(-11.95)" fill="#484848"/>
</svg>
