<svg width="148" height="153" viewBox="0 0 148 153" fill="none" xmlns="http://www.w3.org/2000/svg">
<g filter="url(#filter0_d_341_12)">
<path d="M61.3981 19.4493C48.4709 37.6158 30.1782 43.4223 23.9481 52.1785C17.7181 60.9346 9.67506 82.8897 49.9719 111.434C90.2687 139.978 113.783 119.435 120.632 109.802C152.713 64.7111 84.2914 -12.727 61.3981 19.4493V19.4493Z" fill="#1C709E"/>
</g>
<path d="M62.2129 20.0291L62.2129 20.029C64.9414 16.1942 68.3069 14.038 72.0455 13.221C75.8053 12.3995 80.0292 12.9148 84.4704 14.5875C93.3692 17.939 102.925 25.8602 110.834 36.256C126.697 57.1062 135.471 87.2197 119.817 109.222L119.817 109.223C116.49 113.902 109.087 121.26 97.6158 123.961C86.1849 126.653 70.5216 124.765 50.5499 110.618C30.5104 96.423 22.6622 83.9857 20.4888 74.1695C18.3204 64.3758 21.7564 56.9838 24.7629 52.7582C26.2261 50.7018 28.433 48.773 31.2036 46.73C32.974 45.4246 34.9247 44.107 37.0182 42.6929C38.2115 41.887 39.4512 41.0496 40.7303 40.1653C47.7293 35.3269 55.648 29.2546 62.2129 20.0291Z" fill="#1C709E" stroke="white" stroke-width="2"/>
<g clip-path="url(#clip0_341_12)">
<path d="M104.065 61.9735C103.591 60.6767 102.156 60.0093 100.859 60.4834C99.5617 60.9573 98.8946 62.3927 99.3685 63.6895C100.451 66.6524 101 69.7704 101 72.9564V77.8865C100.217 77.609 99.3764 77.4565 98.5 77.4565H98.3662C97.7253 77.4565 97.1541 77.0733 96.9111 76.4799L96.4741 75.4133C95.4588 72.9337 93.0714 71.3315 90.3921 71.3315H86.75C85.3693 71.3315 84.25 72.4508 84.25 73.8315V102.457C84.25 103.837 85.3693 104.957 86.75 104.957H90.2583C93.0255 104.957 95.5119 103.206 96.4455 100.601L97.0196 98.9985C97.243 98.3753 97.8379 97.9565 98.5 97.9565C102.635 97.9565 106 94.592 106 90.4565V72.9564C106 69.1832 105.349 65.488 104.065 61.9735ZM101 90.4565C101 91.835 99.8785 92.9565 98.5 92.9565C95.7327 92.9565 93.2464 94.7068 92.3128 97.312L91.7386 98.9145C91.5153 99.5378 90.9204 99.9565 90.2583 99.9565H89.25V76.3315H90.3921C91.0331 76.3315 91.6043 76.7148 91.8473 77.308V77.3083L92.2842 78.3749C93.2995 80.8544 95.6869 82.4565 98.3662 82.4565H98.5C99.8785 82.4565 101 83.578 101 84.9565V90.4565ZM61.25 71.3315H57.6079C54.9285 71.3315 52.5413 72.9337 51.5259 75.4132L51.0889 76.48C50.846 77.0733 50.2747 77.4565 49.6337 77.4565H49.5C48.6236 77.4565 47.7825 77.609 47 77.8865V72.9565C47 58.0687 59.1121 45.9565 74 45.9565C81.4459 45.9565 88.3802 48.9227 93.5257 54.3084C94.4796 55.3068 96.0621 55.343 97.0602 54.3892C98.0586 53.4354 98.0947 51.8529 97.141 50.8547C94.1847 47.7602 90.7054 45.326 86.7994 43.6197C82.7542 41.8525 78.448 40.9565 74 40.9565C65.4525 40.9565 57.4165 44.2852 51.3725 50.329C45.3286 56.3732 42 64.409 42 72.9565V90.4565C42 94.592 45.3645 97.9565 49.5 97.9565C50.1621 97.9565 50.757 98.3753 50.9803 98.9983L51.5546 100.601C52.488 103.206 54.9745 104.957 57.7417 104.957H61.25C62.6308 104.957 63.75 103.837 63.75 102.457V73.8315C63.75 72.4508 62.6308 71.3315 61.25 71.3315ZM58.75 99.9565H57.7417C57.0796 99.9565 56.4848 99.5378 56.2615 98.9148L55.6871 97.3118C54.7536 94.7068 52.2673 92.9565 49.5 92.9565C48.1215 92.9565 47 91.835 47 90.4565V84.9565C47 83.578 48.1215 82.4565 49.5 82.4565H49.6337C52.3131 82.4565 54.7004 80.8544 55.7157 78.3752L56.1528 77.3083C56.1528 77.3082 56.1528 77.3082 56.1528 77.308C56.3956 76.7149 56.9669 76.3315 57.6079 76.3315H58.75V99.9565ZM78.7113 91.877L72.3695 95.5418C70.6501 96.5354 68.5 95.2947 68.5 93.3088V85.9793C68.5 83.9935 70.6501 82.7527 72.3695 83.7463L78.7113 87.411C80.4296 88.4039 80.4296 90.8842 78.7113 91.877Z" fill="url(#paint0_linear_341_12)"/>
</g>
<defs>
<filter id="filter0_d_341_12" x="0.806641" y="1.83691" width="146.236" height="150.165" filterUnits="userSpaceOnUse" color-interpolation-filters="sRGB">
<feFlood flood-opacity="0" result="BackgroundImageFix"/>
<feColorMatrix in="SourceAlpha" type="matrix" values="0 0 0 0 0 0 0 0 0 0 0 0 0 0 0 0 0 0 127 0" result="hardAlpha"/>
<feOffset dy="8"/>
<feGaussianBlur stdDeviation="9"/>
<feComposite in2="hardAlpha" operator="out"/>
<feColorMatrix type="matrix" values="0 0 0 0 0.266667 0 0 0 0 0.744186 0 0 0 0 1 0 0 0 1 0"/>
<feBlend mode="normal" in2="BackgroundImageFix" result="effect1_dropShadow_341_12"/>
<feBlend mode="normal" in="SourceGraphic" in2="effect1_dropShadow_341_12" result="shape"/>
</filter>
<linearGradient id="paint0_linear_341_12" x1="74" y1="40.9565" x2="74" y2="104.957" gradientUnits="userSpaceOnUse">
<stop stop-color="white"/>
<stop offset="1" stop-color="white"/>
</linearGradient>
<clipPath id="clip0_341_12">
<rect width="64" height="64" fill="white" transform="translate(42 40.9565)"/>
</clipPath>
</defs>
</svg>
