<svg width="151" height="143" viewBox="0 0 151 143" fill="none" xmlns="http://www.w3.org/2000/svg">
<g filter="url(#filter0_d_341_14)">
<path d="M25.0225 43.1835C29.6529 64.994 21.5518 82.3925 23.7841 92.9044C26.0165 103.416 36.7413 124.194 85.0248 113.834C133.308 103.474 134.091 72.2596 131.632 60.699C120.134 6.56801 16.8191 4.55559 25.0225 43.1835Z" fill="#237EB0"/>
</g>
<path d="M26.0007 42.9759L26.0007 42.9758C25.023 38.3721 25.7123 34.435 27.6404 31.1293C29.5793 27.8049 32.8166 25.0433 37.0532 22.9047C45.542 18.6197 57.8406 16.9425 70.8467 18.1524C96.9327 20.579 125.043 34.4929 130.654 60.9067L130.654 60.907C131.848 66.5226 132.257 76.9525 126.485 87.2271C120.733 97.4655 108.745 107.722 84.815 112.856C60.8038 118.008 46.3354 115.372 37.6367 110.331C28.9579 105.301 25.8396 97.7696 24.7623 92.6967C24.238 90.228 24.311 87.2979 24.6812 83.8755C24.9178 81.6885 25.2674 79.3607 25.6426 76.8624C25.8565 75.4384 26.0787 73.959 26.293 72.4188C27.4657 63.9914 28.3522 54.052 26.0007 42.9759Z" fill="#237EB0" stroke="white" stroke-width="2"/>
<g clip-path="url(#clip0_341_14)">
<path d="M78.8985 38.5657C76.0609 37.3692 72.9283 37.9616 70.7234 40.1116C70.6715 40.1622 70.6219 40.215 70.5746 40.2698L56.4159 56.7071H52.0116C46.4999 56.7071 42.0156 61.1913 42.0156 66.7031V73.2005C42.0156 78.7122 46.4999 83.1965 52.0116 83.1965H56.416L70.5748 99.6337C70.622 99.6886 70.6716 99.7415 70.7235 99.792C72.1808 101.213 74.04 101.957 75.9518 101.956C76.9433 101.956 77.949 101.756 78.9196 101.347C81.7441 100.156 83.4988 97.5102 83.4988 94.4418C83.4988 93.0616 82.38 91.9428 80.9998 91.9428C79.6195 91.9428 78.5008 93.0616 78.5008 94.4418C78.5008 95.9801 77.3351 96.5911 76.9779 96.7417C76.621 96.8921 75.3884 97.2945 74.2799 96.2772L59.455 79.0667C58.9804 78.5156 58.289 78.1987 57.5616 78.1987H52.0116C49.2558 78.1987 47.0136 75.9566 47.0136 73.2007V66.7033C47.0136 63.9475 49.2558 61.7053 52.0116 61.7053H57.5616C58.289 61.7053 58.9803 61.3883 59.455 60.8373L74.2798 43.6267C75.3763 42.6211 76.6018 43.0217 76.9566 43.1712C77.3189 43.3238 78.5008 43.9432 78.5008 45.4981V81.9471C78.5008 83.3273 79.6195 84.4461 80.9998 84.4461C82.38 84.4461 83.4988 83.3273 83.4988 81.9471V45.4981C83.499 42.4185 81.7361 39.7622 78.8985 38.5657Z" fill="url(#paint0_linear_341_14)"/>
<path d="M94.0666 77.1423L94.124 77.0371C94.7775 75.8383 95.9939 73.6072 95.9939 69.9527C95.9939 66.1617 94.6777 63.8394 94.0452 62.7233C93.3645 61.5227 91.8397 61.1008 90.6388 61.7814C89.4382 62.4621 89.0164 63.9871 89.6969 65.1878C90.2142 66.1003 90.9959 67.4795 90.9959 69.9527C90.9959 72.3332 90.2376 73.7242 89.7358 74.6447L89.6746 74.7569C89.0158 75.9697 89.4651 77.4869 90.6778 78.1457C91.0568 78.3515 91.4653 78.4492 91.8683 78.4492C92.7547 78.4492 93.6136 77.9763 94.0666 77.1423Z" fill="url(#paint1_linear_341_14)"/>
<path d="M97.7528 50.2489C96.7722 49.2777 95.1898 49.2852 94.2187 50.2658C93.2474 51.2464 93.2549 52.8287 94.2355 53.7999C98.5927 58.1157 100.992 63.8486 100.992 69.9423C100.992 76.0486 98.5927 81.7883 94.2355 86.1041C93.2549 87.0753 93.2474 88.6577 94.2187 89.6382C94.7073 90.1316 95.3505 90.3786 95.9942 90.3786C96.6297 90.3786 97.2655 90.1376 97.7527 89.6549C103.065 84.3934 105.99 77.3926 105.99 69.9422C105.99 62.5043 103.065 55.5104 97.7528 50.2489Z" fill="url(#paint2_linear_341_14)"/>
</g>
<defs>
<filter id="filter0_d_341_14" x="5.38672" y="6.76953" width="145.001" height="135.881" filterUnits="userSpaceOnUse" color-interpolation-filters="sRGB">
<feFlood flood-opacity="0" result="BackgroundImageFix"/>
<feColorMatrix in="SourceAlpha" type="matrix" values="0 0 0 0 0 0 0 0 0 0 0 0 0 0 0 0 0 0 127 0" result="hardAlpha"/>
<feOffset dy="8"/>
<feGaussianBlur stdDeviation="9"/>
<feComposite in2="hardAlpha" operator="out"/>
<feColorMatrix type="matrix" values="0 0 0 0 0.2375 0 0 0 0 0.730272 0 0 0 0 1 0 0 0 1 0"/>
<feBlend mode="normal" in2="BackgroundImageFix" result="effect1_dropShadow_341_14"/>
<feBlend mode="normal" in="SourceGraphic" in2="effect1_dropShadow_341_14" result="shape"/>
</filter>
<linearGradient id="paint0_linear_341_14" x1="62.7572" y1="37.9565" x2="62.7572" y2="101.956" gradientUnits="userSpaceOnUse">
<stop stop-color="white"/>
<stop offset="1" stop-color="white"/>
</linearGradient>
<linearGradient id="paint1_linear_341_14" x1="92.6825" y1="61.4561" x2="92.6825" y2="78.4492" gradientUnits="userSpaceOnUse">
<stop stop-color="white"/>
<stop offset="1" stop-color="white"/>
</linearGradient>
<linearGradient id="paint2_linear_341_14" x1="99.7425" y1="49.5254" x2="99.7425" y2="90.3786" gradientUnits="userSpaceOnUse">
<stop stop-color="white"/>
<stop offset="1" stop-color="white"/>
</linearGradient>
<clipPath id="clip0_341_14">
<rect width="64" height="64" fill="white" transform="translate(42.0029 37.9565)"/>
</clipPath>
</defs>
</svg>
