<svg width="153" height="143" viewBox="0 0 153 143" fill="none" xmlns="http://www.w3.org/2000/svg">
<g filter="url(#filter0_d_341_3)">
<path d="M130.906 75.456C118.733 56.7753 120.027 37.6268 114.16 28.6235C108.293 19.6203 90.8064 4.09761 49.4907 31.1461C8.17486 58.1946 18.6832 87.598 25.1395 97.498C55.3547 143.86 152.466 108.54 130.906 75.456Z" fill="#125D84"/>
<path d="M130.068 76.0019L130.068 76.002C132.637 79.945 133.412 83.8662 132.803 87.6444C132.191 91.4439 130.165 95.1859 126.983 98.7064C120.606 105.76 109.736 111.753 97.1665 115.307C71.9562 122.435 40.7212 119.575 25.9773 96.952L25.9772 96.9518C22.841 92.1428 18.7041 82.5597 20.3903 70.8958C22.0705 59.2731 29.5617 45.3884 50.0384 31.9828C70.5846 18.5316 85.0317 15.7818 94.9621 17.3531C104.87 18.9209 110.491 24.8247 113.322 29.1695C114.7 31.2839 115.687 34.0438 116.574 37.37C117.14 39.4954 117.652 41.7931 118.202 44.2589C118.515 45.6644 118.84 47.1246 119.195 48.6387C121.135 56.9232 123.886 66.5152 130.068 76.0019Z" stroke="white" stroke-width="2"/>
</g>
<path d="M130.068 76.0019L130.068 76.002C132.637 79.945 133.412 83.8662 132.803 87.6444C132.191 91.4439 130.165 95.1859 126.983 98.7064C120.606 105.76 109.736 111.753 97.1665 115.307C71.9562 122.435 40.7212 119.575 25.9773 96.952L25.9772 96.9518C22.841 92.1428 18.7041 82.5597 20.3903 70.8958C22.0705 59.2731 29.5617 45.3884 50.0384 31.9828C70.5846 18.5316 85.0317 15.7818 94.9621 17.3531C104.87 18.9209 110.491 24.8247 113.322 29.1695C114.7 31.2839 115.687 34.0438 116.574 37.37C117.14 39.4954 117.652 41.7931 118.202 44.2589C118.515 45.6644 118.84 47.1246 119.195 48.6387C121.135 56.9232 123.886 66.5152 130.068 76.0019Z" fill="#125D84" stroke="white" stroke-width="2"/>
<g clip-path="url(#clip0_341_3)">
<path d="M107.226 90.7118L103.114 83.1902V49.2155C103.114 47.8348 101.995 46.7156 100.614 46.7156H95.3728C93.9922 46.7156 92.873 47.8348 92.873 49.2155C92.873 50.5961 93.9922 51.7153 95.3728 51.7153H98.1143V81.2073H54.1169V51.7153H58C59.3807 51.7153 60.4999 50.5961 60.4999 49.2155C60.4999 47.8348 59.3807 46.7156 58 46.7156H51.617C50.2364 46.7156 49.1172 47.8348 49.1172 49.2155V82.7331L44.7549 90.7118C43.7052 92.6318 43.7526 94.9152 44.8819 96.8195C46.0465 98.7837 48.0994 99.9562 50.3732 99.9562H101.733C103.967 99.9562 105.98 98.8102 107.119 96.8907C108.254 94.9755 108.295 92.6655 107.226 90.7118ZM102.818 94.3408C102.708 94.5259 102.383 94.9567 101.733 94.9567H84.6085C84.5399 93.6374 83.4515 92.588 82.1152 92.588H69.741C68.4047 92.588 67.3164 93.6375 67.2477 94.9567H50.3731C49.6463 94.9567 49.2779 94.4308 49.1824 94.2697C49.0514 94.0486 48.8718 93.6042 49.1418 93.1105L52.9162 86.2073H99.0653L102.84 93.1105C103.135 93.6509 102.953 94.1132 102.818 94.3408ZM65.4996 59.6649V41.0063C65.4996 39.0257 66.6168 37.2752 68.4153 36.4378C70.2192 35.5975 72.2854 35.8714 73.8076 37.1513C73.8299 37.1699 87.3189 49.3426 87.3641 49.3902C88.7479 50.8517 89.1308 52.9266 88.3636 54.805C87.5999 56.6748 85.8819 57.8825 83.8799 57.957C83.8489 57.9581 83.818 57.9587 83.787 57.9587H81.4747L86.0016 67.3749C86.5999 68.6192 86.0761 70.1129 84.8318 70.7111C84.4826 70.8789 84.1136 70.9584 83.7504 70.9584C82.8195 70.9584 81.926 70.4362 81.4957 69.5411L75.246 56.5419C74.8737 55.7673 74.9253 54.8556 75.3828 54.1279C75.8404 53.4003 76.6396 52.9587 77.499 52.9587H83.7093C83.7303 52.9357 83.7501 52.8821 83.749 52.8519L70.5739 40.9657C70.5678 40.9615 70.5637 40.9592 70.5622 40.9586C70.5492 40.9598 70.5158 40.9721 70.5003 40.9859C70.4998 40.9903 70.4993 40.9971 70.4993 41.0063V59.6647C70.4993 59.7323 70.6035 59.8166 70.6593 59.8338C72.0312 59.8528 73.1331 60.9754 73.1241 62.3498C73.1151 63.7305 71.9895 64.8424 70.608 64.8333C67.839 64.8152 65.4996 62.4483 65.4996 59.6649Z" fill="url(#paint0_linear_341_3)"/>
</g>
<defs>
<filter id="filter0_d_341_3" x="0" y="0.956543" width="153" height="141.805" filterUnits="userSpaceOnUse" color-interpolation-filters="sRGB">
<feFlood flood-opacity="0" result="BackgroundImageFix"/>
<feColorMatrix in="SourceAlpha" type="matrix" values="0 0 0 0 0 0 0 0 0 0 0 0 0 0 0 0 0 0 127 0" result="hardAlpha"/>
<feOffset dy="4"/>
<feGaussianBlur stdDeviation="9.5"/>
<feComposite in2="hardAlpha" operator="out"/>
<feColorMatrix type="matrix" values="0 0 0 0 0.224583 0 0 0 0 0.710055 0 0 0 0 0.9625 0 0 0 1 0"/>
<feBlend mode="normal" in2="BackgroundImageFix" result="effect1_dropShadow_341_3"/>
<feBlend mode="normal" in="SourceGraphic" in2="effect1_dropShadow_341_3" result="shape"/>
</filter>
<linearGradient id="paint0_linear_341_3" x1="76" y1="35.9565" x2="76" y2="99.9562" gradientUnits="userSpaceOnUse">
<stop stop-color="white"/>
<stop offset="1" stop-color="white"/>
</linearGradient>
<clipPath id="clip0_341_3">
<rect width="64" height="64" fill="white" transform="translate(44 35.9565)"/>
</clipPath>
</defs>
</svg>
