<svg width="283" height="339" viewBox="0 0 283 339" fill="none" xmlns="http://www.w3.org/2000/svg">
<path d="M282.121 43.0895L249.855 256.969C246.264 280.766 224.111 300.058 200.371 300.058H36.9725C13.2324 300.058 -3.0979 280.766 0.493103 256.969L12.1658 179.633L18.9985 134.352L32.7704 43.0895C36.3614 19.2922 58.5148 0.00390625 82.2549 0.00390625H245.642C262.815 0.00390625 276.116 10.1028 280.793 24.7031C282.65 30.646 283.105 36.9403 282.121 43.0895V43.0895Z" fill="#2B478B"/>
<path d="M282.121 43.0895L249.855 256.969C246.264 280.766 224.111 300.058 200.371 300.058H36.9725C13.2324 300.058 -3.0979 280.766 0.493104 256.969L12.1658 179.633C12.1658 179.633 41.0153 147.891 66.5395 165.25C92.0637 182.609 98.0728 154.774 138.151 145.585C178.229 136.395 211.356 124.363 205.264 90.8516C199.171 57.3397 203.172 32.8689 234.167 36.8947C252.308 39.2501 269.587 31.518 280.796 24.7183C282.65 30.6567 283.104 36.9455 282.121 43.0895Z" fill="#233862"/>
<path d="M197.464 178.83C211.407 172.328 225.993 167.309 240.981 163.857L240.935 163.659C204.346 172.137 180.272 184.877 180.048 185.029V185.048C179.884 185.14 179.74 185.265 179.625 185.414C179.509 185.563 179.425 185.733 179.376 185.915C179.327 186.097 179.315 186.287 179.34 186.474C179.365 186.661 179.427 186.841 179.522 187.004C179.618 187.166 179.744 187.308 179.895 187.421C180.046 187.534 180.217 187.616 180.4 187.661C180.582 187.707 180.772 187.716 180.958 187.687C181.144 187.659 181.322 187.593 181.483 187.495L181.532 187.464C182.162 187.049 187.905 183.343 197.464 178.83Z" fill="#F9DDBF"/>
<path d="M209.185 153.45C220.413 148.215 232.158 144.174 244.226 141.395L244.188 141.235C214.724 148.062 195.341 158.32 195.159 158.442C195.019 158.511 194.895 158.608 194.793 158.728C194.692 158.847 194.617 158.986 194.572 159.135C194.526 159.285 194.512 159.443 194.53 159.598C194.548 159.753 194.598 159.903 194.676 160.039C194.754 160.174 194.859 160.292 194.985 160.385C195.11 160.478 195.254 160.544 195.406 160.579C195.558 160.614 195.716 160.618 195.869 160.589C196.022 160.561 196.168 160.501 196.298 160.413V160.413L196.336 160.387C196.871 160.067 201.487 157.088 209.185 153.45Z" fill="#F9DDBF"/>
<path d="M128.917 71.2082C129.869 70.6251 130.143 69.3369 129.529 68.331C128.916 67.3252 127.647 66.9825 126.696 67.5657C125.744 68.1488 125.47 69.437 126.083 70.4429C126.697 71.4487 127.966 71.7914 128.917 71.2082Z" fill="#F9DDBF"/>
<path d="M71.331 38.5905C71.8658 38.2628 72.0201 37.5392 71.6757 36.9744C71.3312 36.4096 70.6184 36.2175 70.0836 36.5452C69.5488 36.873 69.3945 37.5965 69.7389 38.1613C70.0834 38.7261 70.7962 38.9183 71.331 38.5905Z" fill="#F9DDBF"/>
<path d="M123.708 34.3896C124.937 33.6366 125.291 31.9737 124.5 30.6756C123.708 29.3775 122.07 28.9356 120.841 29.6887C119.612 30.4418 119.258 32.1046 120.05 33.4027C120.841 34.7008 122.479 35.1427 123.708 34.3896Z" fill="#F9DDBF"/>
<path d="M109.971 225.988C110.793 225.144 110.776 223.793 109.934 222.97C109.092 222.146 107.744 222.163 106.923 223.007C106.101 223.851 106.118 225.203 106.96 226.026C107.802 226.849 109.15 226.832 109.971 225.988Z" fill="#F9DDBF"/>
<path d="M195.834 205.935C196.126 205.341 195.882 204.622 195.289 204.33C194.697 204.037 193.98 204.282 193.688 204.875C193.397 205.469 193.64 206.188 194.233 206.48C194.825 206.773 195.542 206.528 195.834 205.935Z" fill="#F9DDBF"/>
<path d="M226.442 231.491C227.113 230.126 226.553 228.475 225.191 227.803C223.829 227.13 222.182 227.692 221.511 229.057C220.841 230.422 221.401 232.073 222.762 232.745C224.124 233.418 225.771 232.856 226.442 231.491Z" fill="#F9DDBF"/>
<path d="M93.1273 97.6152C98.6706 95.9015 101.778 90.0077 100.069 84.4511C98.3593 78.8944 92.4797 75.7791 86.9364 77.4928C81.3931 79.2065 78.2853 85.1003 79.9949 90.6569C81.7045 96.2136 87.5841 99.3289 93.1273 97.6152Z" fill="#F9DDBF"/>
<path d="M83.3406 85.6652C84.1435 85.6652 84.7944 85.0127 84.7944 84.2079C84.7944 83.403 84.1435 82.7505 83.3406 82.7505C82.5376 82.7505 81.8867 83.403 81.8867 84.2079C81.8867 85.0127 82.5376 85.6652 83.3406 85.6652Z" fill="#F2CCAA"/>
<path d="M92.9902 80.2846C93.269 80.2846 93.4951 80.0581 93.4951 79.7785C93.4951 79.499 93.269 79.2725 92.9902 79.2725C92.7114 79.2725 92.4854 79.499 92.4854 79.7785C92.4854 80.0581 92.7114 80.2846 92.9902 80.2846Z" fill="#F2CCAA"/>
<path d="M93.423 85.2201C93.9408 85.2201 94.3606 84.7993 94.3606 84.2802C94.3606 83.7611 93.9408 83.3403 93.423 83.3403C92.9051 83.3403 92.4854 83.7611 92.4854 84.2802C92.4854 84.7993 92.9051 85.2201 93.423 85.2201Z" fill="#F2CCAA"/>
<path d="M88.9816 88.9147C89.7593 88.9147 90.3899 88.2827 90.3899 87.503C90.3899 86.7234 89.7593 86.0913 88.9816 86.0913C88.2038 86.0913 87.5732 86.7234 87.5732 87.503C87.5732 88.2827 88.2038 88.9147 88.9816 88.9147Z" fill="#F2CCAA"/>
<path d="M89.2595 96.0529C89.6725 96.0529 90.0074 95.7173 90.0074 95.3033C90.0074 94.8893 89.6725 94.5537 89.2595 94.5537C88.8465 94.5537 88.5117 94.8893 88.5117 95.3033C88.5117 95.7173 88.8465 96.0529 89.2595 96.0529Z" fill="#F2CCAA"/>
<path d="M95.6705 91.3537C95.9011 91.3537 96.088 91.1663 96.088 90.9352C96.088 90.704 95.9011 90.5166 95.6705 90.5166C95.4399 90.5166 95.2529 90.704 95.2529 90.9352C95.2529 91.1663 95.4399 91.3537 95.6705 91.3537Z" fill="#F2CCAA"/>
<path d="M188.672 81.2928C191.032 81.2928 192.946 79.3745 192.946 77.0082C192.946 74.6419 191.032 72.7236 188.672 72.7236C186.311 72.7236 184.397 74.6419 184.397 77.0082C184.397 79.3745 186.311 81.2928 188.672 81.2928Z" fill="#6A97D8"/>
<path d="M217.055 65.4634C217.874 65.4634 218.539 64.7973 218.539 63.9756C218.539 63.1539 217.874 62.4878 217.055 62.4878C216.235 62.4878 215.57 63.1539 215.57 63.9756C215.57 64.7973 216.235 65.4634 217.055 65.4634Z" fill="#6A97D8"/>
<path d="M218.334 79.9841C219.86 79.9841 221.097 78.7439 221.097 77.214C221.097 75.6841 219.86 74.4438 218.334 74.4438C216.808 74.4438 215.57 75.6841 215.57 77.214C215.57 78.7439 216.808 79.9841 218.334 79.9841Z" fill="#6A97D8"/>
<path d="M205.268 90.8475C207.558 90.8475 209.413 88.9872 209.413 86.6923C209.413 84.3975 207.558 82.5371 205.268 82.5371C202.979 82.5371 201.123 84.3975 201.123 86.6923C201.123 88.9872 202.979 90.8475 205.268 90.8475Z" fill="#6A97D8"/>
<path d="M206.081 111.844C207.295 111.844 208.279 110.858 208.279 109.641C208.279 108.424 207.295 107.438 206.081 107.438C204.867 107.438 203.883 108.424 203.883 109.641C203.883 110.858 204.867 111.844 206.081 111.844Z" fill="#6A97D8"/>
<path d="M224.943 98.0167C225.62 98.0167 226.169 97.4664 226.169 96.7877C226.169 96.1089 225.62 95.5586 224.943 95.5586C224.266 95.5586 223.717 96.1089 223.717 96.7877C223.717 97.4664 224.266 98.0167 224.943 98.0167Z" fill="#6A97D8"/>
<path d="M151.035 169.53C151.035 169.53 165.946 185.063 166.648 190.911C167.35 196.76 159.508 205.885 159.508 205.885L151.035 169.53Z" fill="#ED7D2B"/>
<path d="M144.281 330.522C144.281 330.522 143.754 338.76 142.167 338.893C141.955 338.893 134.12 338.893 134.12 338.893L124.117 338.813C124.117 338.813 124.189 336.393 127.112 335.887C130.035 335.381 134.936 333.326 136.716 329.449C138.591 325.343 144.281 330.522 144.281 330.522Z" fill="#163560"/>
<path d="M166.564 330.568C166.564 330.568 166.036 338.806 164.449 338.939C164.237 338.939 156.402 338.939 156.402 338.939L146.399 338.859C146.399 338.859 146.472 336.435 149.394 335.933C152.317 335.431 157.218 333.372 158.998 329.495C160.87 325.393 166.564 330.568 166.564 330.568Z" fill="#163560"/>
<path d="M133.395 241.942C133.395 241.942 135.976 258.761 145.671 288.631C155.366 318.502 156.679 331.428 156.679 331.428L167.148 331.158C167.148 331.158 167.308 298.536 162.844 283.517C158.38 268.498 161.978 229.385 161.978 229.385L133.395 241.942Z" fill="#E5BE9C"/>
<path d="M128.327 230.238C128.327 230.238 127.902 255.576 132.199 286.695C136.496 317.813 134.985 331.017 134.985 331.017L145.432 331.397C145.432 331.397 151.744 300.29 149.987 284.712C148.229 269.134 158.653 231.288 158.653 231.288L128.327 230.238Z" fill="#F9DDBF"/>
<path d="M148.681 170.988L143.104 174.645L135.061 173.123C135.174 172.472 135.71 169.767 136.199 167.316C136.23 167.171 136.26 167.027 136.287 166.886C136.704 164.801 137.069 163.012 137.069 163.012L144.592 159.698L147.398 158.461C147.398 158.507 147.174 160.775 147.147 161.125C146.604 166.981 148.681 170.988 148.681 170.988Z" fill="#FFB27D"/>
<path d="M137.134 169.112C137.29 169.047 146.829 166.239 147.865 166.585C148.902 166.931 149.509 168.944 149.509 168.944L133.911 172.453C133.911 172.453 135.141 169.953 137.134 169.112Z" fill="#ED7D2B"/>
<path d="M126.71 225.786C127.314 216.395 129.212 202.27 129.299 195.052C129.379 191.599 129.77 188.16 130.468 184.778L138.371 183.393C138.371 183.393 146.032 215.105 126.71 225.786Z" fill="#ED7D2B"/>
<path d="M131.019 212.704C131.166 213.08 131.187 213.494 131.079 213.884C130.972 214.273 130.742 214.617 130.423 214.865C129.284 215.733 128.551 217.148 128.81 218.164C129.068 219.18 131.543 220.877 132.404 220.607C133.266 220.337 135.02 218.986 134.83 218.446C134.64 217.905 136.018 213.689 133.923 212.061C131.827 210.432 131.019 212.704 131.019 212.704Z" fill="#FFB27D"/>
<path d="M139.878 193.45C141.947 198.826 139.943 170.569 139.943 170.569C139.943 170.569 132.233 172 126.076 181.083C119.919 190.166 115.861 196.912 116.985 200.192C118.108 203.472 128.395 214.861 130.172 214.865C131.949 214.869 134.822 213.575 134.989 210.653" fill="#F99746"/>
<path d="M146.578 161.205C144.923 164.009 138.766 166.425 136.2 167.312C136.231 167.167 136.261 167.023 136.288 166.882C136.705 164.797 137.069 163.008 137.069 163.008L144.593 159.694C146.252 159.675 147.262 160.052 146.578 161.205Z" fill="#FCA56B"/>
<path d="M134.238 162.544C134.238 162.544 146.335 166.349 148.586 158.758C150.837 151.167 153.901 146.521 146.29 143.762C138.679 141.003 136.295 143.454 134.928 145.809C133.562 148.165 131.151 161.353 134.238 162.544Z" fill="#FFB27D"/>
<path d="M135.403 145.075C135.403 145.075 136.162 153.933 137.98 153.552C139.799 153.172 141.458 152.89 141.184 155.562C140.911 158.233 138.379 161.307 143.993 161.794C149.608 162.281 157.716 147.738 156.178 144.98C151.745 137.015 128.992 135.36 135.403 145.075Z" fill="#163560"/>
<path d="M90.2996 205.923C90.2996 205.923 93.9514 203.472 95.2344 197.552L91.2486 195.542C91.2486 195.542 88.2118 202.011 85.6192 203.001C83.0265 203.99 90.2996 205.923 90.2996 205.923Z" fill="#8CA3E5"/>
<path d="M107.381 171.882C107.381 171.882 108.14 168.838 107.487 168.636C106.834 168.435 105.156 170.508 105.255 171.193C105.354 171.878 106.774 172.849 107.381 171.882Z" fill="#2B478B"/>
<path d="M104.557 170.508C104.989 169.907 105.236 169.569 105.236 169.569C108.113 169.021 108.113 171.958 108.113 171.958C108.113 171.958 102.822 190.638 99.8116 195.881C96.8014 201.125 93.4951 201.916 89.9876 198.495C89.9579 198.465 89.93 198.433 89.9041 198.4C87.1634 195.074 101.254 175.097 104.557 170.508Z" fill="#ED7D2B"/>
<path d="M104.557 170.508C103.611 173.788 99.117 189.154 96.4332 193.807C94.3834 197.376 92.1969 198.883 89.9079 198.4C87.1634 195.074 101.254 175.097 104.557 170.508Z" fill="#F99746"/>
<path d="M105.244 168.503C105.244 168.503 103.551 165.436 103.855 164.603C104.159 163.769 105.988 167.091 105.901 167.94C105.814 168.788 105.244 168.503 105.244 168.503Z" fill="#2B478B"/>
<path d="M105.267 168.503C105.267 168.503 107.818 169.774 109.089 169.538C110.361 169.302 112.32 165.733 111.629 164.386C110.938 163.039 107.233 162.228 106.694 162.354C106.155 162.48 104.694 164.07 105.267 168.503Z" fill="#ED7D2B"/>
<path d="M83.7282 206.646C83.7282 206.646 63.6095 174.253 68.2482 166.361C72.8869 158.469 90.2042 187.955 91.7833 195.493C93.3624 203.031 87.6115 213.255 83.7282 206.646Z" fill="#E5BE9C"/>
<path d="M64.2351 274.495C64.2351 274.495 66.3495 282.128 65.5903 284.389C64.8311 286.649 63.791 293.335 63.791 293.335C63.791 293.335 74.5033 287.566 74.9133 286.208C75.3232 284.849 75.2093 275.869 72.294 273.125C69.3787 270.382 64.2351 274.495 64.2351 274.495Z" fill="#2B478B"/>
<path d="M71.7159 285.345C73.7926 284.694 74.9493 282.478 74.2992 280.396C73.6492 278.314 71.4387 277.155 69.3619 277.807C67.2851 278.458 66.1285 280.674 66.7785 282.756C67.4286 284.838 69.6391 285.997 71.7159 285.345Z" fill="#233862"/>
<path d="M70.3086 331.15C70.3086 331.15 71.6486 336.15 72.6811 336.329C73.7136 336.508 76.3936 336.116 75.752 335.4C72.6735 331.976 72.8671 327.41 72.8671 327.41L70.3086 331.15Z" fill="#A1BACE"/>
<path d="M76.9787 283.388C77.7037 286.504 76.7813 301.976 75.1945 314.788C73.976 324.643 72.3627 332.927 70.8026 332.801C67.2154 332.512 62.292 297.258 63.1195 291.325C63.1195 291.325 64.4291 289.925 66.2436 288.213C70.0624 284.617 76.1094 279.647 76.9787 283.388Z" fill="#ED7D2B"/>
<path d="M68.9727 338.783C68.9727 338.783 70.753 334.247 72.8635 333.612C74.9741 332.977 79.1269 336.002 80.1442 336.161C81.1616 336.321 84.7602 336.785 84.3768 338.722L68.9727 338.783Z" fill="#2B478B"/>
<path d="M76.9792 283.388C77.7042 286.504 76.7818 301.976 75.1951 314.788C70.4235 308.163 67.4702 294.796 66.2441 288.217C70.0629 284.617 76.1099 279.647 76.9792 283.388Z" fill="#F99746"/>
<path d="M75.145 221.775C79.9394 237.993 77.1379 263.434 75.6537 270.782C75.6537 270.831 75.6347 270.881 75.6233 270.93C73.9987 278.795 72.207 280.142 67.2494 278.601C62.2918 277.06 42.9551 235.752 52.4716 220.961C56.7877 214.256 61.4985 212.852 65.378 213.32C66.1227 213.41 66.8565 213.574 67.5683 213.811C69.3765 214.431 71.0091 215.478 72.3279 216.865C73.6468 218.251 74.6131 219.935 75.145 221.775V221.775Z" fill="#9DB0F4"/>
<path d="M75.1455 221.775C79.9398 237.993 77.1384 263.434 75.6542 270.782C68.4873 259.534 56.8982 229.587 64.7027 217.456C65.5304 216.148 66.4854 214.926 67.5535 213.807C69.365 214.425 71.0009 215.472 72.3226 216.859C73.6442 218.247 74.6126 219.933 75.1455 221.775V221.775Z" fill="#9DB0F4"/>
<path d="M66.7661 236.206C71.0736 233.792 72.6132 228.334 70.2048 224.016C67.7964 219.698 62.3521 218.155 58.0446 220.569C53.7371 222.983 52.1975 228.441 54.6059 232.759C57.0143 237.077 62.4586 238.62 66.7661 236.206Z" fill="#9DB0F4"/>
<path d="M65.9841 235.777C70.0684 233.488 71.5282 228.313 69.2446 224.219C66.961 220.125 61.7989 218.661 57.7146 220.95C53.6303 223.24 52.1705 228.414 54.4541 232.508C56.7377 236.602 61.8998 238.066 65.9841 235.777Z" fill="#9DB0F4"/>
<path d="M54.6699 165.174C54.6965 165.151 57.1525 162.735 57.3271 161.06C57.3879 160.482 57.5397 156.551 57.4752 154.565H57.7864C57.7864 154.801 57.9762 160.364 57.8927 161.129C57.6991 163.001 54.78 165.079 54.6699 165.174Z" fill="#8CA3E5"/>
<path d="M62.8996 164.61L62.6719 164.424C62.6719 164.424 64.1485 162.582 64.3953 161.445C64.5888 160.539 63.5715 158.02 63.0704 157.225H63.3134C63.5108 157.533 65.2304 160.269 64.9533 161.57C64.6762 162.871 62.968 164.531 62.8996 164.61Z" fill="#8CA3E5"/>
<path d="M48.998 199.637C48.998 199.637 57.9983 217.418 58.154 233.826L71.7778 226.501C71.7778 226.501 74.7197 218.997 77.5249 202.909C78.584 196.863 48.998 199.637 48.998 199.637Z" fill="#8CA3E5"/>
<path d="M57.9266 156.517C57.9266 156.517 59.445 162.114 56.5752 166.094L62.3868 164.74C62.3868 164.74 63.7344 158.579 62.7171 156.33C61.6998 154.081 57.9266 156.517 57.9266 156.517Z" fill="#F99746"/>
<path d="M68.0658 157.807C68.024 157.807 67.7697 157.86 67.3559 157.913C64.7899 158.248 56.154 158.887 55.0987 152.647C54.9393 151.699 54.7571 150.798 54.5863 149.941C53.4475 144.409 52.5478 140.756 58.1317 139.15C58.3898 139.078 58.6593 139.005 58.944 138.941L59.373 138.846C60.0132 138.709 60.6118 138.605 61.1685 138.534C66.7866 137.773 68.4188 140.056 69.3223 142.141C70.3244 144.485 71.0836 157.053 68.0658 157.807Z" fill="#E5BE9C"/>
<path d="M68.0656 157.807C65.2566 157.202 62.5273 155.562 61.9541 151.605C61.7909 150.463 61.6087 149.405 61.4303 148.389C60.6976 144.158 60.0485 140.851 61.1645 138.53C66.7826 137.769 68.4149 140.052 69.3183 142.137C70.3243 144.485 71.0835 157.054 68.0656 157.807Z" fill="#F9DDBF"/>
<path d="M57.6997 146.658C55.8701 147.358 54.6288 149.839 54.5794 149.938C53.4406 144.405 52.541 140.752 58.1249 139.146C57.884 139.25 57.6684 139.405 57.4928 139.6C57.3172 139.795 57.1857 140.026 57.1075 140.277C57.0292 140.528 57.006 140.793 57.0395 141.053C57.0729 141.314 57.1622 141.564 57.3011 141.787C58.2539 143.64 59.5522 145.942 57.6997 146.658Z" fill="#F99746"/>
<path d="M46.7292 273.928C46.7292 273.928 48.2932 281.695 47.3745 283.879C46.4559 286.063 44.9375 292.672 44.9375 292.672C44.9375 292.672 56.037 287.691 56.5418 286.367C57.0467 285.043 57.5781 276.093 54.864 273.129C52.1499 270.165 46.7292 273.928 46.7292 273.928Z" fill="#2B478B"/>
<path d="M53.4035 285.293C55.5216 284.792 56.834 282.666 56.3349 280.542C55.8357 278.419 53.714 277.103 51.5959 277.604C49.4778 278.104 48.1654 280.231 48.6645 282.354C49.1637 284.477 51.2854 285.793 53.4035 285.293Z" fill="#233862"/>
<path d="M48.7246 330.872C48.7246 330.872 49.7002 335.956 50.7213 336.199C51.7424 336.443 54.4414 336.253 53.8492 335.495C51.0212 331.873 51.5412 327.33 51.5412 327.33L48.7246 330.872Z" fill="#A1BACE"/>
<path d="M58.7927 283.711C59.29 286.873 57.2743 302.239 54.7652 314.914C52.8444 324.659 50.6428 332.798 49.094 332.566C45.5372 332.018 43.1533 296.5 44.4021 290.644C44.4021 290.644 45.8067 289.343 47.7426 287.768C51.8119 284.442 58.2044 279.921 58.7927 283.711Z" fill="#ED7D2B"/>
<path d="M46.9756 338.84C46.9756 338.84 48.8204 334.331 50.9386 333.726C53.0568 333.121 57.1678 336.207 58.1851 336.39C59.2025 336.572 62.7935 337.078 62.3797 339.011L46.9756 338.84Z" fill="#2B478B"/>
<path d="M58.7923 283.711C59.2896 286.874 57.2739 302.239 54.7648 314.914C50.4791 307.962 48.4938 294.415 47.7422 287.764C51.8115 284.442 58.2039 279.922 58.7923 283.711Z" fill="#F99746"/>
<path d="M72.1239 226.147C72.1012 243.065 62.1785 266.645 58.6634 273.263L58.5913 273.396C54.7953 280.469 52.7037 281.253 48.38 278.342C44.0564 275.431 37.2806 230.325 50.6197 218.868C56.6629 213.678 61.5787 213.678 65.1507 215.234C65.8388 215.532 66.4951 215.899 67.1095 216.33C68.672 217.441 69.9439 218.913 70.8169 220.623C71.69 222.332 72.1384 224.227 72.1239 226.147V226.147Z" fill="#AEC3FF"/>
<path d="M72.1235 226.147C72.1008 243.065 62.178 266.645 58.663 273.262C54.996 260.435 52.411 228.419 63.3472 219.024C64.513 218.014 65.7756 217.122 67.1166 216.36C68.6736 217.469 69.9414 218.937 70.8129 220.641C71.6844 222.344 72.1339 224.233 72.1235 226.147V226.147Z" fill="#AEC3FF"/>
<path d="M59.9971 237.576C64.8126 236.493 67.8408 231.702 66.7609 226.875C65.681 222.048 60.9018 219.013 56.0864 220.095C51.2709 221.178 48.2426 225.968 49.3225 230.795C50.4025 235.622 55.1816 238.658 59.9971 237.576Z" fill="#8CA3E5"/>
<path d="M59.3865 236.929C63.9524 235.903 66.8237 231.361 65.7998 226.784C64.7758 222.207 60.2443 219.328 55.6784 220.355C51.1125 221.381 48.2412 225.924 49.2652 230.501C50.2891 235.078 54.8206 237.956 59.3865 236.929Z" fill="#9DB0F4"/>
<path d="M80.6302 204.401C79.6584 210.71 75.8207 204.051 73.6076 205.649C72.0323 206.79 69.842 207.734 67.3632 208.457C61.1871 210.253 53.2194 210.664 48.4706 209.271C46.8725 208.803 45.9766 201.756 45.6122 197.14C45.4717 195.352 45.411 193.929 45.4186 193.396C45.4907 189.153 46.2385 181.033 47.3546 174.568C48.2542 169.367 49.393 165.234 50.6153 165.055C50.6153 165.055 71.0871 161.722 75.3614 166.018C79.6356 170.314 81.6058 198.096 80.6302 204.401Z" fill="#F9DDBF"/>
<path d="M70.5596 186.551C71.4935 194.659 71.3188 203.057 67.3596 208.457C61.1836 210.253 53.2158 210.664 48.467 209.271C46.8689 208.803 45.973 201.756 45.6086 197.14C45.3277 188.959 43.6727 186.593 48.6454 176.311" fill="#E5BE9C"/>
<path d="M71.3187 167.012C71.3187 167.012 63.0017 166.901 62.3336 167.183C61.6655 167.464 71.3947 175.147 72.5828 174.976C73.771 174.804 72.8561 167.696 71.3187 167.012Z" fill="#F99746"/>
<path d="M33.7129 200.085C33.7129 200.085 34.9276 204.321 40.1888 207.334L43.3091 204.138C43.3091 204.138 38.0783 199.267 37.934 196.493C37.7898 193.719 33.7129 200.085 33.7129 200.085Z" fill="#8CA3E5"/>
<path d="M60.8617 226.722C60.8617 226.722 63.5189 228.377 63.8985 227.814C64.2781 227.251 62.828 225.017 62.1486 224.903C61.4691 224.789 60.1329 225.862 60.8617 226.722Z" fill="#2B478B"/>
<path d="M63.0243 224.439C63.4646 225.036 63.7114 225.375 63.7114 225.375C63.3584 228.289 60.5645 227.395 60.5645 227.395C60.5645 227.395 44.424 216.661 40.3585 212.175C36.293 207.689 36.5625 204.306 40.8633 202L40.9772 201.947C44.9706 200.371 59.6724 219.907 63.0243 224.439Z" fill="#ED7D2B"/>
<path d="M63.0255 224.439C60.1975 222.536 46.9798 213.579 43.3547 209.599C40.5874 206.555 39.8168 204.013 40.9746 201.988C44.9718 200.371 59.6736 219.907 63.0255 224.439Z" fill="#F99746"/>
<path d="M64.7175 225.721C64.7175 225.721 68.1339 225.04 68.8476 225.58C69.5612 226.12 65.8336 226.862 65.0516 226.52C64.2696 226.177 64.7175 225.721 64.7175 225.721Z" fill="#2B478B"/>
<path d="M64.7021 225.74C64.7021 225.74 62.7168 227.787 62.5573 229.077C62.3979 230.367 65.1879 233.32 66.6798 233.069C68.1716 232.818 70.0658 229.526 70.0962 228.99C70.1265 228.453 69.1054 226.547 64.7021 225.74Z" fill="#ED7D2B"/>
<path d="M29.1385 200.756C29.1385 200.756 41.5135 165.862 50.6239 165.132C59.7342 164.401 48.1185 195.318 42.88 200.961C37.6416 206.604 25.9765 207.738 29.1385 200.756Z" fill="#F9DDBF"/>
</svg>
