<svg width="32" height="33" viewBox="0 0 32 33" fill="none" xmlns="http://www.w3.org/2000/svg">
<path d="M16 32.2988C24.8366 32.2988 32 25.1354 32 16.2988C32 7.46227 24.8366 0.298828 16 0.298828C7.16344 0.298828 0 7.46227 0 16.2988C0 25.1354 7.16344 32.2988 16 32.2988Z" fill="url(#paint0_linear_64_1250)"/>
<path d="M19.2337 8.29883H12.7663C11.5027 8.3005 10.2914 8.8032 9.39787 9.6967C8.50437 10.5902 8.00167 11.8016 8 13.0651V19.5325C8.00167 20.7961 8.50437 22.0075 9.39787 22.901C10.2914 23.7945 11.5027 24.2972 12.7663 24.2988H19.2337C20.4974 24.2977 21.7091 23.7952 22.6027 22.9016C23.4964 22.008 23.9989 20.7963 24 19.5325V13.0651C23.9983 11.8016 23.4956 10.5902 22.6021 9.6967C21.7086 8.8032 20.4973 8.3005 19.2337 8.29883ZM22.3916 19.5325C22.3916 20.37 22.0589 21.1733 21.4667 21.7655C20.8744 22.3577 20.0712 22.6904 19.2337 22.6904H12.7663C11.9288 22.6904 11.1256 22.3577 10.5333 21.7655C9.94113 21.1733 9.60842 20.37 9.60842 19.5325V13.0651C9.60842 12.2276 9.94113 11.4244 10.5333 10.8322C11.1256 10.24 11.9288 9.90725 12.7663 9.90725H19.2337C20.0712 9.90725 20.8744 10.24 21.4667 10.8322C22.0589 11.4244 22.3916 12.2276 22.3916 13.0651V19.5325Z" fill="white"/>
<path d="M16.0004 12.1619C15.1816 12.1614 14.3811 12.4039 13.7002 12.8585C13.0192 13.3132 12.4884 13.9596 12.1748 14.7159C11.8613 15.4723 11.7792 16.3047 11.9388 17.1078C12.0984 17.9108 12.4927 18.6485 13.0716 19.2275C13.6506 19.8065 14.3883 20.2007 15.1914 20.3603C15.9944 20.52 16.8268 20.4378 17.5832 20.1243C18.3396 19.8108 18.986 19.2799 19.4406 18.599C19.8952 17.918 20.1377 17.1175 20.1373 16.2987C20.1362 15.2019 19.7 14.1503 18.9244 13.3748C18.1488 12.5992 17.0972 12.163 16.0004 12.1619ZM16.0004 18.825C15.5008 18.825 15.0123 18.6769 14.5969 18.3993C14.1814 18.1217 13.8576 17.7271 13.6664 17.2655C13.4752 16.8039 13.4252 16.2959 13.5227 15.8058C13.6201 15.3158 13.8607 14.8656 14.2141 14.5123C14.5674 14.159 15.0175 13.9184 15.5076 13.8209C15.9976 13.7235 16.5056 13.7735 16.9672 13.9647C17.4288 14.1559 17.8234 14.4797 18.101 14.8952C18.3786 15.3106 18.5267 15.7991 18.5267 16.2987C18.5267 16.9687 18.2606 17.6113 17.7868 18.0851C17.313 18.5589 16.6704 18.825 16.0004 18.825Z" fill="white"/>
<path d="M20.1618 13.1852C20.7269 13.1852 21.185 12.7271 21.185 12.1621C21.185 11.597 20.7269 11.1389 20.1618 11.1389C19.5968 11.1389 19.1387 11.597 19.1387 12.1621C19.1387 12.7271 19.5968 13.1852 20.1618 13.1852Z" fill="white"/>
<defs>
<linearGradient id="paint0_linear_64_1250" x1="16" y1="32.1515" x2="16" y2="2.46725" gradientUnits="userSpaceOnUse">
<stop stop-color="#E09B3D"/>
<stop offset="0.24" stop-color="#C74C4D"/>
<stop offset="0.65" stop-color="#C21975"/>
<stop offset="1" stop-color="#7024C4"/>
</linearGradient>
</defs>
</svg>
