<svg width="982" height="414" viewBox="0 0 982 414" fill="none" xmlns="http://www.w3.org/2000/svg">
<g style="mix-blend-mode:multiply">
<path d="M675.591 -175.066C725.148 -143.13 787.531 -141.295 843.007 -130.136C894.654 -119.711 988.779 -74.1198 1026.38 -24.7113C1091.38 60.6707 1087.49 246.925 989.243 306.685C876.549 375.035 734.955 312.338 612.802 292.002C424.321 260.654 383.816 380.315 200.499 411.957C130.399 424.071 30.355 382.083 -3.9989 292.002C-47.5793 177.327 10.2185 125.35 -55.1233 16.6216C-79.554 -24.0505 -237.744 -195.182 -76.3042 -262.357C-18.2742 -286.51 40.8002 -302.148 99.8748 -319.988C156.744 -337.167 211.989 -357.723 263.055 -394.284C331.182 -443.032 406.099 -515.786 484.556 -466.672C585.47 -403.681 583.555 -234.459 675.591 -175.066Z" fill="#9ED8D8"/>
</g>
</svg>
