<svg width="484" height="237" viewBox="0 0 484 237" fill="none" xmlns="http://www.w3.org/2000/svg">
<g clip-path="url(#clip0_64_642)">
<path d="M23.9878 235.767C23.9878 235.767 -16.5587 185.356 7.7699 137.382C32.0985 89.4071 78.3184 100.791 143.18 52.0059C221.936 -7.22065 277.236 -10.4758 347.527 15.4158C387.261 30.0379 393.75 90.2218 456.997 127.623C514.015 161.341 467.538 218.691 437.536 227.635C407.534 236.579 387.261 236.579 387.261 236.579L23.9878 235.767Z" fill="#E7F3FE"/>
<path d="M265.383 127.386C255.262 147.986 242.575 204.271 239.113 207.355C235.652 210.44 215.66 222.392 212.198 228.175C208.736 233.957 210.275 232.029 211.813 232.415C213.351 232.801 300.242 233.184 300.242 233.184C300.242 233.184 290.246 173.429 289.093 173.042C287.941 172.656 265.383 127.386 265.383 127.386Z" fill="#A2DFF2"/>
<path d="M250.99 232.906C266.962 233.017 283.791 233.104 293.061 233.15L280.367 157.035C273.597 143.875 265.378 127.383 265.378 127.383C264.104 129.98 262.785 133.145 261.452 136.696C260.136 193.865 268.347 209.887 262.177 220.073C257.368 228.028 252.976 231.583 250.99 232.906Z" fill="#96CFE0"/>
<path d="M431.413 237H14.1454C13.2917 237 12.4731 236.66 11.8694 236.055C11.2658 235.45 10.9268 234.629 10.9268 233.773C10.9268 232.917 11.2658 232.096 11.8694 231.491C12.4731 230.885 13.2917 230.545 14.1454 230.545H431.413C431.835 230.545 432.254 230.629 432.644 230.791C433.035 230.953 433.39 231.191 433.689 231.491C433.987 231.79 434.224 232.146 434.386 232.538C434.548 232.929 434.631 233.349 434.631 233.773C434.631 234.197 434.548 234.616 434.386 235.008C434.224 235.399 433.987 235.755 433.689 236.055C433.39 236.354 433.035 236.592 432.644 236.754C432.254 236.917 431.835 237 431.413 237Z" fill="#2E5B9A"/>
<path d="M318.671 102.525C333.104 115.884 365.228 128.553 365.228 128.553C365.228 128.553 370.109 173.77 366.78 199.376C363.45 224.982 365.301 230.173 365.301 230.173H299.058C299.058 230.173 290.169 217.803 273.892 179.344C263.532 154.855 265.382 127.393 265.382 127.393L305.717 109.213L318.671 102.525Z" fill="#A2DFF2"/>
<path d="M299.059 230.169H365.298C365.298 230.169 363.448 224.975 366.777 199.373C369.52 178.289 366.694 143.91 365.611 132.424L359.587 129.834C344.463 134.203 335.748 156.822 333.199 178.922C331.484 193.712 307.048 208.271 291.062 216.289C296.302 226.333 299.059 230.169 299.059 230.169Z" fill="#96CFE0"/>
<path d="M282.815 56.1141C274.83 73.9461 284.416 90.4656 284.124 89.7693C283.833 89.0731 296.21 59.6617 296.21 59.6617L282.815 56.1141Z" fill="#2E5B9A"/>
<path d="M313.088 69.2983L323.202 106.428C323.342 106.944 323.357 107.486 323.246 108.01C323.135 108.533 322.901 109.022 322.563 109.436C320.189 112.371 316.807 118.404 309.984 120.34C308.582 120.683 307.142 120.844 305.7 120.82C305.026 120.825 304.371 120.592 303.85 120.164C303.329 119.735 302.974 119.137 302.846 118.474L296.075 83.259L313.088 69.2983Z" fill="#F09959"/>
<path d="M311.14 72.4004L307.439 73.9218L296.075 83.259L302.183 114.47C312.529 107.991 314.04 103.622 311.14 72.4004Z" fill="#E38540"/>
<path d="M312.703 85.7169C310.46 97.9264 301.35 106.184 292.354 104.169C283.358 102.153 279.063 94.243 280.104 78.3884C280.934 65.9562 287.048 52.4447 296.044 54.4709C305.04 56.4971 314.946 73.5074 312.703 85.7169Z" fill="#F09959"/>
<path d="M365.228 128.549C378.63 131.585 381.119 158.88 385.477 187.668C385.977 190.982 388.553 219.025 388.553 219.025C388.547 220.639 388.088 222.218 387.229 223.582C386.369 224.946 385.143 226.039 383.692 226.737C379.31 228.933 377.54 230.591 352.162 230.848C327.789 231.095 296.367 230.079 296.367 230.079C296.367 230.079 296.089 220.985 298.589 216.543C302.325 209.859 340.864 200.264 344.465 199.731C344.979 192.535 340.927 166.494 346.517 148.839C350.36 136.696 354.503 130.332 359.672 128.671C361.479 128.126 363.399 128.084 365.228 128.549Z" fill="#A2DFF2"/>
<path d="M310.141 230.632C322.157 230.813 338.646 230.981 352.152 230.848C377.53 230.591 379.3 228.934 383.682 226.737C388.81 224.167 389.064 219.798 389.064 219.798C389.064 219.798 386.474 189.959 385.987 186.641C383.168 167.364 380.12 145.306 373.03 134.656C379.696 154.246 380.769 170.772 380.887 177.826C380.946 181.401 380.62 186.296 379.578 189.718C378.425 193.51 375.478 195.888 370.863 194.592C361.635 192.023 350.1 197.419 350.1 197.419C350.1 197.419 358.815 194.335 367.02 197.162C375.224 199.989 392.14 218.747 373.686 225.692C368.037 227.833 334.209 229.564 310.141 230.632Z" fill="#96CFE0"/>
<path d="M300.631 217.399C300.631 217.399 304.047 211.575 311.047 211.575C318.047 211.575 317.54 223.064 316.515 226.824C315.491 230.584 311.387 230.765 311.387 230.765L296.35 230.068L300.631 217.399Z" fill="#96CFE0"/>
<path d="M285.385 227.416H190.584C189.148 227.416 187.983 228.583 187.983 230.023V230.772C187.983 232.212 189.148 233.379 190.584 233.379H285.385C286.821 233.379 287.985 232.212 287.985 230.772V230.023C287.985 228.583 286.821 227.416 285.385 227.416Z" fill="#75A1DE"/>
<path d="M298.752 218.082C284.055 212.769 280.201 214.771 276.878 213.8C268.677 211.401 266.625 213.451 261.327 228.021C260.285 230.925 263.379 231.106 266.455 231.106C269.532 231.106 273.292 225.107 274.486 224.422C275.681 223.736 278.93 223.377 278.93 223.377C278.93 223.377 277.889 223.377 276.368 226.462C274.847 229.546 272.952 230.744 275.326 230.744C277.701 230.744 278.062 226.803 282.503 227.659C286.944 228.516 285.239 230.744 296.346 230.573C307.453 230.403 315.838 230.573 315.658 223.889C315.488 217.549 316.185 214.378 310.189 213.263C305.585 212.428 298.752 218.082 298.752 218.082Z" fill="#F09959"/>
<path d="M298.944 218.082C308.77 216.968 305.888 229.24 304.846 230.267C303.805 231.294 310.318 230.615 310.318 230.615C310.318 230.615 313.37 225.692 310.808 220.038C308.245 214.384 303.117 214.12 303.117 214.12L298.76 216.519L298.944 218.082Z" fill="#A86B48"/>
<path d="M309.248 217.03C309.375 215.509 307.002 214.068 303.948 213.812C300.895 213.556 298.317 214.582 298.19 216.103C298.063 217.625 300.435 219.065 303.489 219.322C306.543 219.578 309.121 218.552 309.248 217.03Z" fill="#2E5B9A"/>
<path d="M308.482 216.284C308.596 214.925 306.477 213.639 303.75 213.41C301.023 213.182 298.721 214.097 298.607 215.456C298.494 216.814 300.613 218.101 303.34 218.33C306.067 218.558 308.369 217.642 308.482 216.284Z" fill="#3E6BAB"/>
<path d="M306.764 215.648C306.846 214.669 305.32 213.741 303.355 213.577C301.391 213.412 299.732 214.072 299.651 215.051C299.569 216.03 301.095 216.957 303.06 217.122C305.024 217.287 306.683 216.627 306.764 215.648Z" fill="#F0CEB4"/>
<path d="M187.116 214.552H91.6135C89.1637 214.539 86.7964 213.663 84.9249 212.078C83.0534 210.493 81.7968 208.299 81.3744 205.879L68.9202 136.946C67.7466 130.447 72.6561 124.452 79.1592 124.452H174.661C177.111 124.465 179.478 125.34 181.35 126.925C183.221 128.51 184.478 130.704 184.9 133.124L197.355 202.057C198.528 208.556 193.619 214.552 187.116 214.552Z" fill="#75A1DE"/>
<path d="M191.566 202.314L178.865 134.802C177.938 129.883 173.543 126.311 168.414 126.311H71.3638C70.3106 127.532 69.5453 128.976 69.1245 130.534C68.7038 132.093 68.6385 133.726 68.9334 135.314L81.8251 205.698C82.278 208.185 83.5867 210.433 85.5232 212.05C87.4597 213.668 89.9011 214.554 92.4217 214.552H181.133C187.747 214.552 192.774 208.682 191.566 202.314Z" fill="#A8CEFF"/>
<path d="M168.551 223.781H150.42C147.187 223.781 144.566 220.895 144.566 217.333V184.096C144.566 178.428 140.399 173.833 135.247 173.833H125.775C120.629 173.833 116.456 178.428 116.456 184.096V221.316C116.456 227.68 121.161 232.829 126.938 232.805L176.418 232.457C176.418 227.663 172.894 223.781 168.551 223.781Z" fill="#75A1DE"/>
<path d="M117.178 184.841V221.494C117.178 224.347 118.256 227.095 120.194 229.185C122.132 231.275 124.787 232.552 127.625 232.76L175.914 232.457C175.914 231.663 172.095 230.218 167.401 230.218H147.791C146.111 230.218 144.5 229.549 143.313 228.358C142.125 227.167 141.458 225.552 141.458 223.868V184.841C141.458 182.163 140.397 179.595 138.509 177.702C136.62 175.808 134.059 174.745 131.389 174.745H127.271C125.947 174.741 124.635 175 123.41 175.506C122.186 176.012 121.073 176.755 120.135 177.693C119.198 178.631 118.454 179.745 117.946 180.972C117.439 182.198 117.178 183.513 117.178 184.841Z" fill="#A8CEFF"/>
<path d="M218.253 219.575C225.544 215.509 234.471 216.867 237.696 220.93C240.922 224.992 241.481 227.704 234.183 227.704C226.884 227.704 212.291 228.248 209.857 227.976C207.423 227.704 218.253 219.575 218.253 219.575Z" fill="#F09959"/>
<path d="M229.064 217.121C236.901 215.223 242.258 219.798 248.796 224.167C254.473 227.962 255.612 231.649 249.338 228.502C240.147 223.896 234.755 223.353 234.755 223.353L229.064 217.121Z" fill="#F09959"/>
<path d="M221.926 219.534C217.968 219.534 214.514 218.266 211.719 218.489C208.924 218.712 200.077 227.826 201.472 228.53C201.579 228.582 201.688 228.629 201.799 228.669C202.826 229.036 203.948 229.039 204.977 228.678C206.007 228.316 206.881 227.611 207.455 226.681C208.708 224.665 210.743 222.322 213.114 223.161C215.73 224.026 218.47 224.454 221.225 224.429L221.926 219.534Z" fill="#F09959"/>
<path d="M219.604 229.323C215.549 227.698 222.034 214.148 224.198 214.148C226.361 214.148 234.468 220.651 234.468 220.651C234.468 220.651 232.562 221.73 226.09 219.568C224.468 219.025 223.118 228.241 221.229 229.316C219.34 230.392 219.604 229.323 219.604 229.323Z" fill="#F7A96F"/>
<path d="M280.104 85.5394C279.725 100.461 284.798 102.985 288.343 105.011C291.888 107.037 307.168 103.692 309.408 100.001C315.143 90.5596 310.317 81.755 311.599 81.8978C312.88 82.0405 314.057 85.7065 317.4 90.4761C317.713 90.9217 319.886 93.867 320.001 92.8887C321.553 79.5269 328.494 75.377 326.841 61.862C325.622 51.8981 319.317 52.6884 319.317 52.6884C319.317 52.6884 315.248 44.3503 302.582 45.2972C294.096 45.9309 286.53 49.2452 277.784 51.5047C269.038 53.7641 288.134 73.6432 299.481 66.3809C310.828 59.1186 305.224 75.1159 307.015 76.3588C308.807 77.6017 307.877 76.5224 308.696 84.7143C309.515 92.9061 299.148 98.2467 296.176 98.9465C286.673 101.189 285.086 99.6149 283.003 96.029C281.208 92.8887 280.104 85.5394 280.104 85.5394Z" fill="#2E5B9A"/>
<path d="M319.446 80.9055C318.356 84.6654 315.693 87.0955 313.495 86.333C311.297 85.5706 311.234 82.5035 311.491 78.1412C311.724 74.2002 315.245 71.9512 317.443 72.7136C319.64 73.476 320.536 77.1455 319.446 80.9055Z" fill="#F09959"/>
<path d="M111.803 32.6003H30.6753C29.7932 32.6003 29.0781 33.3173 29.0781 34.2018V69.2078C29.0781 70.0923 29.7932 70.8093 30.6753 70.8093H111.803C112.685 70.8093 113.4 70.0923 113.4 69.2078V34.2018C113.4 33.3173 112.685 32.6003 111.803 32.6003Z" fill="#B7E1FF"/>
<path d="M109.803 42.6373H32.6754C31.9621 42.6373 31.3838 43.2172 31.3838 43.9324V67.7212C31.3838 68.4365 31.9621 69.0163 32.6754 69.0163H109.803C110.517 69.0163 111.095 68.4365 111.095 67.7212V43.9324C111.095 43.2172 110.517 42.6373 109.803 42.6373Z" fill="white"/>
<path d="M35.1404 35.4099H33.269C32.8739 35.4099 32.5537 35.731 32.5537 36.1271V37.6729C32.5537 38.0689 32.8739 38.39 33.269 38.39H35.1404C35.5354 38.39 35.8556 38.0689 35.8556 37.6729V36.1271C35.8556 35.731 35.5354 35.4099 35.1404 35.4099Z" fill="white"/>
<path d="M41.1472 35.4099H39.2758C38.8808 35.4099 38.5605 35.731 38.5605 36.1271V37.6729C38.5605 38.0689 38.8808 38.39 39.2758 38.39H41.1472C41.5422 38.39 41.8625 38.0689 41.8625 37.6729V36.1271C41.8625 35.731 41.5422 35.4099 41.1472 35.4099Z" fill="white"/>
<path d="M47.1541 35.4099H45.2826C44.8876 35.4099 44.5674 35.731 44.5674 36.1271V37.6729C44.5674 38.0689 44.8876 38.39 45.2826 38.39H47.1541C47.5491 38.39 47.8693 38.0689 47.8693 37.6729V36.1271C47.8693 35.731 47.5491 35.4099 47.1541 35.4099Z" fill="white"/>
<path d="M107.849 48.4202H65.6839C65.3492 48.4202 65.0282 48.2869 64.7915 48.0495C64.5548 47.8122 64.4219 47.4903 64.4219 47.1547C64.4219 46.819 64.5548 46.4971 64.7915 46.2598C65.0282 46.0225 65.3492 45.8892 65.6839 45.8892H107.845C108.011 45.8889 108.175 45.9214 108.328 45.9848C108.481 46.0482 108.621 46.1412 108.738 46.2586C108.855 46.376 108.949 46.5153 109.012 46.6688C109.076 46.8222 109.109 46.9867 109.109 47.1529C109.109 47.3191 109.077 47.4837 109.013 47.6374C108.95 47.791 108.857 47.9306 108.74 48.0483C108.623 48.166 108.484 48.2594 108.331 48.3232C108.178 48.387 108.014 48.42 107.849 48.4202Z" fill="#B7E1FF"/>
<path d="M76.1351 67.9302H33.974C33.6393 67.9302 33.3183 67.7969 33.0816 67.5595C32.8449 67.3222 32.7119 67.0003 32.7119 66.6647C32.7119 66.329 32.8449 66.0072 33.0816 65.7698C33.3183 65.5325 33.6393 65.3992 33.974 65.3992H76.1351C76.4698 65.3992 76.7908 65.5325 77.0275 65.7698C77.2642 66.0072 77.3972 66.329 77.3972 66.6647C77.3972 67.0003 77.2642 67.3222 77.0275 67.5595C76.7908 67.7969 76.4698 67.9302 76.1351 67.9302Z" fill="#B7E1FF"/>
<path d="M83.9062 65.4026H79.5419C79.3041 65.4026 79.1113 65.5959 79.1113 65.8343V67.5019C79.1113 67.7403 79.3041 67.9336 79.5419 67.9336H83.9062C84.144 67.9336 84.3368 67.7403 84.3368 67.5019V65.8343C84.3368 65.5959 84.144 65.4026 83.9062 65.4026Z" fill="#B7E1FF"/>
<path d="M90.4814 65.4026H86.1171C85.8793 65.4026 85.6865 65.5959 85.6865 65.8343V67.5019C85.6865 67.7403 85.8793 67.9336 86.1171 67.9336H90.4814C90.7192 67.9336 90.912 67.7403 90.912 67.5019V65.8343C90.912 65.5959 90.7192 65.4026 90.4814 65.4026Z" fill="#B7E1FF"/>
<path d="M108.238 53.9312H38.4496C38.2226 53.9312 38.0049 53.8408 37.8444 53.6798C37.6839 53.5189 37.5938 53.3006 37.5938 53.073C37.5938 52.8454 37.6839 52.6271 37.8444 52.4662C38.0049 52.3053 38.2226 52.2148 38.4496 52.2148H108.238C108.465 52.2148 108.682 52.3053 108.843 52.4662C109.003 52.6271 109.094 52.8454 109.094 53.073C109.094 53.3006 109.003 53.5189 108.843 53.6798C108.682 53.8408 108.465 53.9312 108.238 53.9312Z" fill="#B7E1FF"/>
<path d="M108.238 57.6319H38.4496C38.2226 57.6319 38.0049 57.5415 37.8444 57.3805C37.6839 57.2196 37.5938 57.0013 37.5938 56.7737C37.5938 56.5461 37.6839 56.3278 37.8444 56.1669C38.0049 56.0059 38.2226 55.9155 38.4496 55.9155H108.238C108.465 55.9155 108.682 56.0059 108.843 56.1669C109.003 56.3278 109.094 56.5461 109.094 56.7737C109.094 57.0013 109.003 57.2196 108.843 57.3805C108.682 57.5415 108.465 57.6319 108.238 57.6319Z" fill="#B7E1FF"/>
<path d="M49.7295 59.4285H130.854C131.278 59.4285 131.684 59.5972 131.983 59.8975C132.283 60.1979 132.451 60.6052 132.451 61.0299V96.0325C132.451 96.4581 132.282 96.8664 131.982 97.1674C131.682 97.4683 131.275 97.6374 130.85 97.6374H49.7295C49.5193 97.6374 49.3112 97.5959 49.117 97.5153C48.9228 97.4346 48.7464 97.3164 48.5977 97.1674C48.4491 97.0183 48.3312 96.8414 48.2507 96.6467C48.1703 96.4519 48.1289 96.2432 48.1289 96.0325V61.0299C48.1298 60.6049 48.2989 60.1976 48.5989 59.8973C48.899 59.5971 49.3056 59.4285 49.7295 59.4285Z" fill="#9EC8FF"/>
<path d="M128.855 69.4653H51.7271C51.0138 69.4653 50.4355 70.0452 50.4355 70.7604V94.5492C50.4355 95.2645 51.0138 95.8443 51.7271 95.8443H128.855C129.569 95.8443 130.147 95.2645 130.147 94.5492V70.7604C130.147 70.0452 129.569 69.4653 128.855 69.4653Z" fill="white"/>
<path d="M54.1921 62.2379H52.3207C51.9257 62.2379 51.6055 62.559 51.6055 62.9551V64.5008C51.6055 64.8969 51.9257 65.218 52.3207 65.218H54.1921C54.5872 65.218 54.9074 64.8969 54.9074 64.5008V62.9551C54.9074 62.559 54.5872 62.2379 54.1921 62.2379Z" fill="white"/>
<path d="M60.198 62.238H58.3266C57.9316 62.238 57.6113 62.5591 57.6113 62.9552V64.501C57.6113 64.8971 57.9316 65.2181 58.3266 65.2181H60.198C60.593 65.2181 60.9132 64.8971 60.9132 64.501V62.9552C60.9132 62.5591 60.593 62.238 60.198 62.238Z" fill="white"/>
<path d="M66.2083 62.238H64.3334C63.9384 62.238 63.6182 62.5591 63.6182 62.9552V64.501C63.6182 64.8971 63.9384 65.2181 64.3334 65.2181H66.2083C66.6033 65.2181 66.9236 64.8971 66.9236 64.501V62.9552C66.9236 62.5591 66.6033 62.238 66.2083 62.238Z" fill="white"/>
<path d="M126.9 75.248H84.7386C84.4039 75.248 84.0829 75.1147 83.8462 74.8774C83.6095 74.6401 83.4766 74.3182 83.4766 73.9825C83.4766 73.6469 83.6095 73.325 83.8462 73.0877C84.0829 72.8504 84.4039 72.717 84.7386 72.717H126.903C127.238 72.7175 127.559 72.8513 127.795 73.0889C128.031 73.3266 128.164 73.6486 128.164 73.9843C128.163 74.3199 128.03 74.6416 127.793 74.8786C127.556 75.1156 127.234 75.2485 126.9 75.248Z" fill="#9EC8FF"/>
<path d="M95.1892 94.7617H53.0316C52.6969 94.7617 52.3759 94.6284 52.1392 94.3911C51.9025 94.1537 51.7695 93.8319 51.7695 93.4962C51.7695 93.1606 51.9025 92.8387 52.1392 92.6014C52.3759 92.364 52.6969 92.2307 53.0316 92.2307H95.1927C95.3585 92.2309 95.5225 92.2639 95.6755 92.3277C95.8286 92.3915 95.9676 92.4849 96.0846 92.6026C96.2017 92.7203 96.2944 92.8599 96.3576 93.0135C96.4208 93.1672 96.4533 93.3318 96.4531 93.498C96.4528 93.6641 96.4199 93.8287 96.3563 93.9821C96.2927 94.1356 96.1995 94.2749 96.0822 94.3923C95.9648 94.5097 95.8255 94.6027 95.6723 94.6661C95.5191 94.7294 95.355 94.762 95.1892 94.7617Z" fill="#9EC8FF"/>
<path d="M102.96 92.2307H98.5956C98.3578 92.2307 98.165 92.424 98.165 92.6624V94.33C98.165 94.5685 98.3578 94.7617 98.5956 94.7617H102.96C103.198 94.7617 103.39 94.5685 103.39 94.33V92.6624C103.39 92.424 103.198 92.2307 102.96 92.2307Z" fill="#9EC8FF"/>
<path d="M109.536 92.2307H105.172C104.934 92.2307 104.741 92.424 104.741 92.6624V94.33C104.741 94.5685 104.934 94.7617 105.172 94.7617H109.536C109.774 94.7617 109.967 94.5685 109.967 94.33V92.6624C109.967 92.424 109.774 92.2307 109.536 92.2307Z" fill="#9EC8FF"/>
<path d="M127.306 80.7593H57.4867C57.2597 80.7593 57.0421 80.6689 56.8816 80.508C56.7211 80.347 56.6309 80.1287 56.6309 79.9011C56.6309 79.6735 56.7211 79.4553 56.8816 79.2943C57.0421 79.1334 57.2597 79.043 57.4867 79.043H127.306C127.533 79.043 127.751 79.1334 127.911 79.2943C128.072 79.4553 128.162 79.6735 128.162 79.9011C128.162 80.1287 128.072 80.347 127.911 80.508C127.751 80.6689 127.533 80.7593 127.306 80.7593Z" fill="#9EC8FF"/>
<path d="M127.306 84.4637H57.4867C57.2597 84.4637 57.0421 84.3733 56.8816 84.2123C56.7211 84.0514 56.6309 83.8331 56.6309 83.6055C56.6309 83.3779 56.7211 83.1596 56.8816 82.9987C57.0421 82.8377 57.2597 82.7473 57.4867 82.7473H127.306C127.533 82.7473 127.751 82.8377 127.911 82.9987C128.072 83.1596 128.162 83.3779 128.162 83.6055C128.162 83.8331 128.072 84.0514 127.911 84.2123C127.751 84.3733 127.533 84.4637 127.306 84.4637Z" fill="#9EC8FF"/>
<path d="M151.506 99.2598C157.551 99.2598 162.45 94.3468 162.45 88.2863C162.45 82.2258 157.551 77.3127 151.506 77.3127C145.462 77.3127 140.562 82.2258 140.562 88.2863C140.562 94.3468 145.462 99.2598 151.506 99.2598Z" fill="#9CD499"/>
<path d="M150.416 92.3421H150.385C150.272 92.3379 150.161 92.3107 150.059 92.2623C149.957 92.2138 149.866 92.145 149.791 92.0601L146.819 88.6727C146.682 88.5052 146.616 88.2912 146.634 88.0756C146.651 87.86 146.752 87.6597 146.913 87.5168C147.075 87.3739 147.286 87.2994 147.502 87.3092C147.717 87.3189 147.92 87.4121 148.069 87.569L150.461 90.295L156.183 84.6794C156.341 84.5243 156.554 84.4384 156.775 84.4407C156.996 84.443 157.207 84.5333 157.362 84.6916C157.517 84.85 157.602 85.0634 157.6 85.2851C157.598 85.5068 157.508 85.7184 157.35 85.8736L150.999 92.1054C150.843 92.2577 150.634 92.3427 150.416 92.3421Z" fill="white"/>
<path d="M232.582 5.86963H162.985C161.194 5.86963 159.742 7.32545 159.742 9.12131V34.0555C159.742 35.8513 161.194 37.3072 162.985 37.3072H232.582C234.373 37.3072 235.825 35.8513 235.825 34.0555V9.12131C235.825 7.32545 234.373 5.86963 232.582 5.86963Z" fill="#9EC8FF"/>
<path d="M168.93 32.5621V49.9067L188.863 29.9197C188.863 29.9197 169.346 32.5621 168.93 32.5621Z" fill="#9EC8FF"/>
<path d="M229.138 8.9856H166.426C164.907 8.9856 163.676 10.2201 163.676 11.7429V31.4305C163.676 32.9534 164.907 34.1878 166.426 34.1878H229.138C230.656 34.1878 231.888 32.9534 231.888 31.4305V11.7429C231.888 10.2201 230.656 8.9856 229.138 8.9856Z" fill="white"/>
<path d="M200.824 15.2139H170.013C169.654 15.2139 169.311 15.0713 169.058 14.8173C168.804 14.5633 168.662 14.2188 168.662 13.8597C168.662 13.5005 168.804 13.156 169.058 12.902C169.311 12.6481 169.654 12.5054 170.013 12.5054H200.824C201.182 12.5054 201.525 12.6481 201.779 12.902C202.032 13.156 202.174 13.5005 202.174 13.8597C202.174 14.2188 202.032 14.5633 201.779 14.8173C201.525 15.0713 201.182 15.2139 200.824 15.2139Z" fill="#9EC8FF"/>
<path d="M226.562 18.8765H169.412C168.998 18.8765 168.662 19.2131 168.662 19.6285V19.6459C168.662 20.0612 168.998 20.3979 169.412 20.3979H226.562C226.976 20.3979 227.312 20.0612 227.312 19.6459V19.6285C227.312 19.2131 226.976 18.8765 226.562 18.8765Z" fill="#9EC8FF"/>
<path d="M226.562 21.8252H169.412C168.998 21.8252 168.662 22.1619 168.662 22.5772V22.5946C168.662 23.0099 168.998 23.3466 169.412 23.3466H226.562C226.976 23.3466 227.312 23.0099 227.312 22.5946V22.5772C227.312 22.1619 226.976 21.8252 226.562 21.8252Z" fill="#9EC8FF"/>
<path d="M214.747 30.125H212.875C212.48 30.125 212.16 30.4461 212.16 30.8422V32.388C212.16 32.784 212.48 33.1051 212.875 33.1051H214.747C215.142 33.1051 215.462 32.784 215.462 32.388V30.8422C215.462 30.4461 215.142 30.125 214.747 30.125Z" fill="#9EC8FF"/>
<path d="M220.753 30.125H218.881C218.486 30.125 218.166 30.4461 218.166 30.8422V32.388C218.166 32.784 218.486 33.1051 218.881 33.1051H220.753C221.148 33.1051 221.468 32.784 221.468 32.388V30.8422C221.468 30.4461 221.148 30.125 220.753 30.125Z" fill="#9EC8FF"/>
<path d="M226.759 30.125H224.888C224.493 30.125 224.173 30.4461 224.173 30.8422V32.388C224.173 32.784 224.493 33.1051 224.888 33.1051H226.759C227.155 33.1051 227.475 32.784 227.475 32.388V30.8422C227.475 30.4461 227.155 30.125 226.759 30.125Z" fill="#9EC8FF"/>
</g>
<defs>
<clipPath id="clip0_64_642">
<rect width="484" height="237" fill="white"/>
</clipPath>
</defs>
</svg>
