<svg width="64" height="48" viewBox="0 0 64 48" fill="none" xmlns="http://www.w3.org/2000/svg">
<path d="M41 47.4999H56.75C58.5402 47.4999 60.2571 46.7887 61.523 45.5228C62.7888 44.257 63.5 42.5401 63.5 40.7499V24.9999C63.5 23.2097 62.7888 21.4928 61.523 20.2269C60.2571 18.961 58.5402 18.2499 56.75 18.2499H50C50.1304 14.3626 51.74 10.6718 54.5 7.93138C55.1291 7.30204 55.5576 6.50031 55.7311 5.62752C55.9047 4.75473 55.8156 3.85008 55.4751 3.02794C55.1345 2.20578 54.5579 1.50305 53.8181 1.00857C53.0782 0.514091 52.2084 0.250069 51.3185 0.249878C46.7942 0.258205 42.4576 2.05916 39.2584 5.25832C36.0593 8.45748 34.2583 12.7941 34.25 17.3184V40.7499C34.25 42.5401 34.9612 44.257 36.227 45.5228C37.4929 46.7887 39.2098 47.4999 41 47.4999Z" fill="#CBE9FF"/>
<path d="M7.25 47.4999H23C24.7902 47.4999 26.5071 46.7887 27.773 45.5228C29.0388 44.257 29.75 42.5401 29.75 40.7499V24.9999C29.75 23.2097 29.0388 21.4928 27.773 20.2269C26.5071 18.961 24.7902 18.2499 23 18.2499H16.25C16.3804 14.3626 17.99 10.6718 20.75 7.93138C21.3791 7.30204 21.8076 6.50031 21.9811 5.62752C22.1547 4.75473 22.0656 3.85008 21.725 3.02794C21.3845 2.20578 20.8079 1.50305 20.0681 1.00857C19.3282 0.514091 18.4584 0.250069 17.5685 0.249878C13.0442 0.258205 8.70761 2.05916 5.50844 5.25832C2.30928 8.45748 0.508327 12.7941 0.5 17.3184V40.7499C0.5 42.5401 1.21116 44.257 2.47703 45.5228C3.7429 46.7887 5.45979 47.4999 7.25 47.4999Z" fill="#CBE9FF"/>
</svg>
