<svg width="982" height="217" viewBox="0 0 982 217" fill="none" xmlns="http://www.w3.org/2000/svg">
<g style="mix-blend-mode:multiply">
<path d="M350.409 589.066C300.852 557.13 238.469 555.295 182.993 544.136C131.346 533.711 37.2214 488.12 -0.382061 438.711C-65.3757 353.329 -61.4877 167.075 36.7571 107.315C149.451 38.965 291.045 101.662 413.198 121.998C601.679 153.346 642.184 33.6847 825.501 2.04271C895.601 -10.0708 995.645 31.9174 1030 121.998C1073.58 236.673 1015.78 288.65 1081.12 397.378C1105.55 438.051 1263.74 609.182 1102.3 676.357C1044.27 700.51 985.2 716.148 926.125 733.988C869.256 751.167 814.011 771.723 762.945 808.284C694.818 857.032 619.901 929.786 541.444 880.672C440.53 817.681 442.445 648.459 350.409 589.066Z" fill="#BA9EE7"/>
</g>
</svg>
