<svg width="6" height="10" viewBox="0 0 6 10" fill="none" xmlns="http://www.w3.org/2000/svg">
<path d="M5.99978 8.99992C5.99997 8.86858 5.97418 8.73849 5.92389 8.61716C5.87361 8.49582 5.79982 8.38563 5.70678 8.29292L2.41428 4.99992L5.70678 1.70692C5.88894 1.51832 5.98973 1.26571 5.98745 1.00352C5.98518 0.741321 5.88001 0.490508 5.6946 0.3051C5.50919 0.119692 5.25838 0.0145233 4.99618 0.0122448C4.73399 0.00996641 4.48138 0.110761 4.29278 0.292919L0.292786 4.29292C0.105315 4.48045 0 4.73476 0 4.99992C0 5.26508 0.105315 5.51939 0.292786 5.70692L4.29278 9.70692C4.4338 9.84364 4.61173 9.93612 4.80466 9.97295C4.99759 10.0098 5.19708 9.98936 5.37854 9.9142C5.56001 9.83904 5.71552 9.71243 5.8259 9.54998C5.93629 9.38752 5.99673 9.19631 5.99978 8.99992Z" fill="#565CBD"/>
</svg>
