<svg width="478" height="286" viewBox="0 0 478 286" fill="none" xmlns="http://www.w3.org/2000/svg">
<g opacity="0.2">
<path opacity="0.2" d="M25.2561 285.982H478C478 285.982 480.184 114.082 372.731 156.719C265.277 199.355 374.397 17.9233 209.835 42.3301C170.322 48.1899 163.085 73.0816 131.103 109.822C109.855 134.232 87.5837 116.351 56.5284 127.659C-21.4919 156.084 -5.24058 274.696 25.2561 285.982Z" fill="#ABC7F2"/>
</g>
<g opacity="0.2">
<path opacity="0.2" d="M470.725 106.081L473.341 92.16C473.427 91.6989 473.328 91.2222 473.064 90.8347C472.8 90.4472 472.394 90.1805 471.934 90.0932L462.025 88.2208C461.569 88.1331 461.154 87.8971 460.845 87.5491C460.536 87.2012 460.35 86.7609 460.316 86.2964C460.014 82.4403 459.174 78.6457 457.821 75.0235C457.673 74.6329 457.66 74.2037 457.784 73.8049C457.908 73.406 458.163 73.0605 458.506 72.8239L466.761 67.1797C466.998 67.0173 467.202 66.8095 467.36 66.5682C467.517 66.3268 467.626 66.0567 467.679 65.7733C467.733 65.4899 467.73 65.1987 467.671 64.9163C467.612 64.6339 467.499 64.3659 467.336 64.1277L459.948 53.2819C459.59 52.7561 459.038 52.3944 458.414 52.2764C457.789 52.1584 457.144 52.2937 456.619 52.6526L448.442 58.2506C448.09 58.4915 447.669 58.6085 447.244 58.583C446.819 58.5576 446.415 58.3913 446.094 58.1102C443.198 55.5986 439.968 53.5034 436.496 51.8848C436.104 51.706 435.783 51.3999 435.585 51.0159C435.387 50.6319 435.324 50.1923 435.406 49.768L437.364 39.3475C437.407 39.1187 437.405 38.8836 437.357 38.6557C437.309 38.4277 437.217 38.2114 437.086 38.0191C436.955 37.8268 436.788 37.6623 436.593 37.5349C436.399 37.4076 436.181 37.3199 435.953 37.2769L422.043 34.6502C421.584 34.5635 421.109 34.6631 420.724 34.9273C420.338 35.1915 420.072 35.5985 419.986 36.0588L418.078 46.2041C417.986 46.7013 417.732 47.154 417.356 47.4913C416.98 47.8287 416.504 48.0318 416.001 48.0688C412.346 48.3249 408.742 49.0678 405.283 50.278C404.819 50.4435 404.312 50.4507 403.843 50.2983C403.374 50.1458 402.968 49.8424 402.688 49.4351L396.929 40.9871C396.652 40.5801 396.224 40.3002 395.741 40.2089C395.257 40.1176 394.758 40.2224 394.351 40.5002L382.834 48.3786C382.628 48.5194 382.452 48.6993 382.316 48.9081C382.18 49.117 382.086 49.3507 382.04 49.5959C381.994 49.8411 381.997 50.0929 382.048 50.3371C382.099 50.5812 382.198 50.8129 382.338 51.0189L388.067 59.4284C388.322 59.8043 388.444 60.2554 388.413 60.7092C388.381 61.163 388.198 61.593 387.894 61.93C385.294 64.8503 383.121 68.1255 381.44 71.6577C381.272 72.0128 380.992 72.3022 380.643 72.4808C380.294 72.6594 379.896 72.7171 379.511 72.6449L369.285 70.7206C369.066 70.679 368.841 70.6812 368.623 70.7269C368.404 70.7726 368.197 70.861 368.013 70.987C367.829 71.113 367.671 71.2741 367.549 71.4612C367.427 71.6483 367.343 71.8576 367.302 72.0772L364.676 86.0501C364.632 86.2839 364.634 86.5241 364.683 86.757C364.731 86.9899 364.825 87.211 364.958 87.4076C365.092 87.6042 365.263 87.7724 365.462 87.9027C365.66 88.033 365.883 88.1228 366.116 88.1669L376.069 90.0259C376.446 90.0978 376.787 90.2949 377.038 90.5854C377.29 90.876 377.436 91.2429 377.453 91.6269C377.64 95.5093 378.372 99.3457 379.628 103.023C379.813 103.565 379.815 104.152 379.635 104.696C379.454 105.239 379.101 105.708 378.63 106.031L371.015 111.244C370.812 111.382 370.639 111.56 370.505 111.765C370.371 111.971 370.278 112.201 370.233 112.442C370.187 112.684 370.19 112.932 370.24 113.172C370.29 113.413 370.387 113.641 370.525 113.844L378.413 125.423C378.549 125.622 378.722 125.793 378.924 125.925C379.126 126.057 379.351 126.148 379.588 126.193C379.825 126.238 380.068 126.235 380.304 126.185C380.54 126.136 380.763 126.04 380.962 125.904L388.923 120.454C389.273 120.216 389.693 120.102 390.115 120.131C390.537 120.16 390.937 120.331 391.251 120.616C394.281 123.339 397.697 125.599 401.387 127.32C401.767 127.496 402.078 127.794 402.271 128.167C402.463 128.54 402.527 128.966 402.45 129.379L400.692 138.73C400.644 138.979 400.646 139.235 400.697 139.484C400.749 139.732 400.849 139.968 400.991 140.178C401.134 140.387 401.317 140.567 401.529 140.705C401.741 140.844 401.978 140.939 402.227 140.985L415.695 143.529C416.231 143.63 416.784 143.513 417.234 143.205C417.684 142.897 417.994 142.423 418.095 141.886L419.847 132.56C419.92 132.176 420.119 131.828 420.411 131.57C420.704 131.313 421.075 131.16 421.464 131.138C425.602 130.887 429.679 130.013 433.557 128.544C433.922 128.405 434.322 128.393 434.695 128.51C435.067 128.627 435.389 128.866 435.609 129.189L440.921 136.986C441.244 137.464 441.744 137.793 442.309 137.901C442.875 138.009 443.46 137.888 443.937 137.564L455.126 129.905C455.556 129.609 455.852 129.155 455.949 128.641C456.045 128.127 455.934 127.596 455.64 127.164L450.148 119.101C449.923 118.769 449.814 118.372 449.838 117.971C449.862 117.57 450.019 117.188 450.283 116.886C452.88 113.895 455.035 110.545 456.681 106.939C456.878 106.499 457.217 106.139 457.643 105.915C458.069 105.691 458.557 105.616 459.03 105.704L468.642 107.52C469.108 107.606 469.59 107.502 469.98 107.232C470.37 106.962 470.638 106.548 470.725 106.081V106.081ZM414.622 115.087C411.202 114.507 407.933 113.242 405.012 111.366C402.091 109.491 399.577 107.044 397.621 104.172C395.665 101.3 394.307 98.0618 393.628 94.6515C392.949 91.2412 392.963 87.7286 393.67 84.3239C396.474 70.7879 409.614 61.7915 423.213 64.0969C426.635 64.6754 429.905 65.9403 432.828 67.8158C435.751 69.6913 438.266 72.1389 440.223 75.0119C442.18 77.8849 443.538 81.1243 444.217 84.536C444.896 87.9478 444.881 91.4618 444.173 94.8676C441.364 108.406 428.221 117.398 414.622 115.087Z" fill="#ABC7F2"/>
</g>
<g opacity="0.2">
<path opacity="0.2" d="M374.463 30.8438L375.591 24.8359C375.627 24.6368 375.584 24.4314 375.47 24.2643C375.356 24.0972 375.181 23.9817 374.983 23.943L370.706 23.1348C370.509 23.0968 370.33 22.9947 370.197 22.8444C370.063 22.6941 369.983 22.504 369.969 22.3034C369.837 20.6385 369.474 19.0003 368.888 17.4367C368.824 17.2682 368.819 17.0831 368.872 16.9111C368.926 16.7391 369.036 16.5901 369.184 16.488L372.743 14.0517C372.845 13.9816 372.933 13.892 373.001 13.7879C373.069 13.6838 373.116 13.5673 373.139 13.445C373.162 13.3228 373.16 13.1972 373.135 13.0755C373.109 12.9537 373.06 12.8382 372.99 12.7355L369.802 8.05347C369.647 7.82638 369.409 7.67023 369.139 7.61934C368.869 7.56846 368.591 7.62702 368.364 7.78213L364.834 10.1972C364.682 10.3007 364.5 10.3508 364.317 10.3396C364.133 10.3285 363.959 10.2567 363.82 10.1356C362.573 9.04971 361.182 8.14298 359.686 7.44152C359.517 7.36377 359.38 7.23208 359.295 7.06724C359.21 6.90241 359.182 6.71383 359.215 6.53129L360.06 2.03403C360.096 1.8346 360.053 1.62875 359.939 1.46119C359.825 1.29364 359.65 1.17793 359.451 1.1392L353.447 0.00574789C353.249 -0.0298712 353.045 0.0138904 352.878 0.127618C352.712 0.241346 352.597 0.41595 352.558 0.61385L351.735 4.99372C351.695 5.20827 351.585 5.40357 351.423 5.54911C351.261 5.69464 351.055 5.7822 350.838 5.7981C349.26 5.91142 347.704 6.235 346.212 6.76029C346.011 6.83322 345.792 6.83705 345.589 6.77119C345.386 6.70532 345.211 6.57351 345.091 6.39658L342.607 2.7499C342.548 2.66278 342.472 2.58824 342.384 2.53054C342.296 2.47284 342.197 2.43311 342.094 2.41363C341.99 2.39414 341.884 2.39529 341.781 2.417C341.678 2.43871 341.58 2.48056 341.493 2.54014L336.526 5.93858C336.437 5.99923 336.361 6.0768 336.302 6.16688C336.243 6.25696 336.203 6.35777 336.183 6.46355C336.163 6.56934 336.164 6.67804 336.186 6.78344C336.208 6.88883 336.25 6.98886 336.311 7.07781L338.791 10.7033C338.9 10.8652 338.952 11.0591 338.939 11.2541C338.925 11.4492 338.847 11.634 338.716 11.779C337.594 13.0396 336.656 14.4533 335.93 15.978C335.858 16.131 335.737 16.2555 335.586 16.3324C335.435 16.4093 335.264 16.4342 335.097 16.4033L330.682 15.5701C330.492 15.5338 330.296 15.5741 330.136 15.6822C329.975 15.7903 329.864 15.9575 329.826 16.1474L328.692 22.1783C328.653 22.382 328.698 22.5925 328.814 22.7635C328.931 22.9346 329.11 23.0522 329.314 23.0905L333.602 23.9007C333.765 23.9317 333.912 24.0167 334.02 24.1421C334.129 24.2675 334.192 24.4258 334.199 24.5915C334.28 26.2672 334.596 27.923 335.138 29.5102C335.217 29.7443 335.218 29.9981 335.14 30.2328C335.062 30.4674 334.91 30.6699 334.706 30.8092L331.419 33.0587C331.243 33.1796 331.122 33.3656 331.082 33.5759C331.043 33.7863 331.088 34.0037 331.208 34.1807L334.612 39.184C334.67 39.2701 334.745 39.3438 334.832 39.4009C334.919 39.4579 335.017 39.4972 335.119 39.5165C335.221 39.5358 335.326 39.5348 335.428 39.5134C335.529 39.492 335.626 39.4507 335.712 39.3918L339.148 37.0403C339.299 36.9376 339.48 36.8887 339.662 36.9012C339.844 36.9138 340.016 36.9871 340.152 37.1095C341.46 38.2826 342.934 39.2553 344.526 39.9961C344.691 40.0719 344.825 40.2005 344.908 40.3616C344.991 40.5226 345.018 40.7069 344.985 40.8852L344.217 44.9263C344.197 45.0339 344.198 45.1444 344.22 45.2515C344.243 45.3586 344.286 45.4603 344.347 45.5507C344.409 45.6411 344.487 45.7185 344.579 45.7785C344.67 45.8384 344.772 45.8797 344.88 45.9001L350.692 46.9989C350.807 47.0206 350.925 47.0195 351.039 46.9955C351.153 46.9716 351.261 46.9253 351.357 46.8594C351.454 46.7934 351.536 46.7091 351.6 46.6112C351.664 46.5133 351.707 46.4037 351.729 46.2888L352.485 42.2649C352.516 42.0994 352.602 41.9491 352.728 41.8379C352.855 41.7267 353.014 41.661 353.182 41.6511C354.971 41.5434 356.733 41.1658 358.409 40.5311C358.566 40.4708 358.739 40.4653 358.9 40.5156C359.061 40.5658 359.201 40.6689 359.296 40.8082L361.594 44.1874C361.734 44.393 361.949 44.5345 362.193 44.5807C362.438 44.6269 362.69 44.574 362.895 44.4337L367.725 41.1276C367.817 41.0647 367.896 40.9841 367.957 40.8905C368.018 40.7969 368.06 40.6921 368.081 40.5822C368.102 40.4723 368.101 40.3593 368.078 40.2498C368.055 40.1403 368.011 40.0365 367.947 39.9441L365.577 36.4649C365.478 36.321 365.43 36.1482 365.44 35.9739C365.451 35.7995 365.519 35.6337 365.634 35.5027C366.754 34.212 367.682 32.7668 368.391 31.2113C368.476 31.0216 368.622 30.866 368.806 30.7693C368.99 30.6727 369.2 30.6406 369.404 30.6783L373.553 31.4615C373.653 31.4821 373.756 31.4824 373.857 31.4624C373.957 31.4423 374.053 31.4024 374.137 31.3448C374.222 31.2872 374.295 31.2133 374.351 31.1272C374.406 31.0412 374.444 30.9448 374.463 30.8438V30.8438ZM350.247 34.731C348.058 34.3603 346.029 33.3419 344.422 31.8067C342.814 30.2715 341.701 28.2895 341.226 26.1155C340.751 23.9414 340.934 21.6745 341.754 19.606C342.573 17.5375 343.991 15.7618 345.825 14.507C347.658 13.2523 349.824 12.5758 352.045 12.5644C354.265 12.553 356.438 13.2073 358.284 14.4432C360.13 15.6792 361.566 17.4402 362.406 19.5003C363.247 21.5603 363.454 23.8252 363.001 26.004C362.413 28.8296 360.756 31.317 358.378 32.9442C356 34.5714 353.086 35.2118 350.247 34.731V34.731Z" fill="#ABC7F2"/>
</g>
<path d="M341.384 77.1961L344.252 105.692C344.252 105.692 326.784 138.139 343.563 151.823C354.948 161.108 362.567 142.719 376.018 141.753C378.419 134.475 374.983 123.181 374.983 123.181C381.577 128.171 380.811 136.844 379.91 141.655C392.597 141.289 403.378 139.8 407.766 128.248C412.501 115.778 402.272 109.306 402.272 109.306C409.227 112.172 414.388 123.075 414.388 123.075C415.277 108.394 405.862 95.3641 387.781 94.3076C369.7 93.2511 375.66 76.2743 356.754 62.592C337.848 48.9098 319.286 60.3213 319.286 60.3213C301.128 65.2554 301.714 83.05 301.714 83.05L341.384 77.1961Z" fill="#6D2F3B"/>
<g opacity="0.2">
<path opacity="0.2" d="M70.8141 78.1391C70.3358 78.1393 69.8624 78.0423 69.4225 77.854C68.9827 77.6656 68.5855 77.3898 68.255 77.0431C67.9244 76.6965 67.6675 76.2863 67.4996 75.8373C67.3317 75.3883 67.2564 74.9098 67.2782 74.4308C67.3639 72.6424 67.5143 70.9791 67.7293 69.4409C68.0508 67.025 68.6625 64.6569 69.551 62.3881C70.3997 60.2542 71.5288 58.2434 72.9084 56.4091C74.4458 54.4026 76.1675 52.5452 78.051 50.8611C79.6686 49.4294 81.1684 48.0329 82.5505 46.6718C83.8466 45.4081 85.0405 44.0433 86.121 42.5902C87.0953 41.277 87.8769 39.8305 88.4418 38.295C88.9968 36.7452 89.275 35.1095 89.2634 33.4629C89.2634 29.4063 88.3228 26.3754 86.4416 24.3702C84.5604 22.365 81.7865 21.3624 78.1201 21.3624C76.6532 21.3608 75.1951 21.59 73.7991 22.0417C72.4064 22.489 71.1272 23.2343 70.0501 24.2259C68.9055 25.2986 68.0041 26.6052 67.4068 28.0573C67.0523 28.8983 66.7916 29.7761 66.6294 30.6745C66.4809 31.4943 66.0508 32.2361 65.4136 32.7711C64.7765 33.3061 63.9726 33.6006 63.1414 33.6034H49.3664C48.869 33.603 48.3773 33.4977 47.9232 33.2943C47.4691 33.0909 47.0628 32.794 46.7307 32.4228C46.3986 32.0515 46.1482 31.6144 45.9958 31.1398C45.8433 30.6652 45.7922 30.1637 45.8458 29.668C46.2106 26.2875 47.0168 23.2676 48.2645 20.6081C49.9781 16.9569 52.2874 13.9376 55.1924 11.5501C58.0974 9.16257 61.5136 7.38445 65.4411 6.21572C69.5575 5.02003 73.825 4.42887 78.1105 4.46069C83.1104 4.46069 87.5863 5.08098 91.5381 6.32156C95.4899 7.56214 98.823 9.36399 101.537 11.7271C104.28 14.1307 106.421 17.1472 107.788 20.533C109.24 24.0418 109.966 28.0394 109.966 32.5257C109.966 35.6766 109.49 38.5169 108.538 41.0468C107.576 43.5948 106.279 46.0029 104.682 48.2074C103.007 50.5172 101.145 52.6844 99.1148 54.6868C97.0186 56.7625 94.8046 58.8748 92.473 61.0237C91.2431 62.1491 90.1305 63.3967 89.1521 64.7474C88.2868 65.9589 87.5677 67.2689 87.0098 68.65C86.4479 70.053 86.0611 71.5202 85.858 73.0183C85.7748 73.6175 85.7044 74.2403 85.6469 74.8869C85.5706 75.7724 85.1663 76.5972 84.5136 77.1988C83.8609 77.8004 83.0072 78.1352 82.1206 78.1372H70.7949L70.8141 78.1391ZM65.1225 100.119C65.1074 98.6232 65.3865 97.1388 65.9441 95.7509C66.4717 94.4485 67.2618 93.2693 68.2649 92.2871C69.3151 91.2772 70.5548 90.4864 71.9121 89.9605C75.0001 88.8147 78.3952 88.8147 81.4832 89.9605C82.8406 90.4864 84.0803 91.2772 85.1305 92.2871C86.1333 93.2695 86.9233 94.4487 87.4513 95.7509C88.0083 97.1389 88.2875 98.6232 88.2729 100.119C88.2801 101.594 87.997 103.055 87.4398 104.42C86.9123 105.723 86.1222 106.902 85.119 107.884C84.0737 108.892 82.832 109.672 81.4717 110.176C78.3754 111.274 74.9969 111.274 71.9006 110.176C70.5403 109.672 69.2986 108.892 68.2533 107.884C67.2499 106.902 66.4598 105.723 65.9326 104.42C65.3827 103.054 65.1074 101.592 65.1225 100.119V100.119Z" fill="#ABC7F2"/>
</g>
<path d="M162.452 127.73C191.449 127.73 214.955 106.355 214.955 79.9883C214.955 53.6213 191.449 32.2466 162.452 32.2466C133.456 32.2466 109.949 53.6213 109.949 79.9883C109.949 106.355 133.456 127.73 162.452 127.73Z" fill="#BA9EE7"/>
<g opacity="0.7">
<path opacity="0.7" d="M314.101 281.191C314.707 281.022 313.615 182.552 335.042 171.31C356.468 160.067 403.408 158.541 418.262 177.344C433.116 196.147 418.262 285.983 418.262 285.983L314.101 281.191Z" fill="#ABC7F2"/>
</g>
<path d="M306.86 182.863C303.504 205.132 305.132 229.652 295.329 263.279C295.192 263.741 294.925 264.153 294.561 264.468C291.148 267.459 281.859 279.601 252.063 278.164C226.135 276.913 217.18 279.42 217.18 279.42L203.743 259.984C203.743 259.984 208.926 269.194 248.051 254.812C262.939 249.339 266.967 247.168 266.967 247.168C266.967 247.168 283.684 198.147 286.099 169.123C286.961 158.732 310.238 160.44 306.86 182.863Z" fill="#F9AB97"/>
<path d="M229.36 260.652C229.36 260.652 216.629 263.652 213.413 260.096C206.898 252.886 204.184 245.552 200.441 244.376C191.564 241.591 181.732 245.211 181.556 246.458C181.396 247.592 185.817 248.157 187.33 247.832C190.238 247.209 195.496 250.23 195.496 250.23C195.496 250.23 189.545 250.086 186.931 250.776C184.88 251.319 178.283 254.081 178.329 254.643C178.498 256.663 182.723 255.924 186.992 255.395C190.015 255.01 195.089 255.641 195.089 255.641C195.089 255.641 191.91 256.796 189.33 257.417C186.451 258.116 180.832 261.884 180.857 262.733C180.941 265.529 185.092 263.117 189.027 262.182C193.482 261.118 197.857 264.055 197.857 264.055C197.857 264.055 194.325 265.09 192.421 266.379C190.516 267.669 187.499 270.902 188.228 271.306C189.572 272.05 191.194 271.184 194.463 269.318C196.327 268.254 201.264 269.566 203.391 272.572C203.796 273.149 206.879 281.709 217.182 279.423C224.927 277.704 229.36 260.652 229.36 260.652Z" fill="#FABBA5"/>
<path d="M266.733 247.288C270.654 246.829 274.624 247.01 278.488 247.824C281.944 248.561 285.74 249.643 288.226 252.301C288.264 252.342 288.315 252.366 288.371 252.369C288.426 252.372 288.48 252.352 288.521 252.315C288.562 252.278 288.587 252.226 288.589 252.17C288.592 252.115 288.573 252.061 288.535 252.02C285.998 249.308 282.145 248.182 278.623 247.43C274.687 246.6 270.644 246.415 266.65 246.883C266.391 246.912 266.483 247.311 266.74 247.28L266.733 247.288Z" fill="#DC826F"/>
<path d="M290.386 143.758C291.971 145.197 293.744 146.414 295.655 147.376C295.325 143.476 295.152 136.913 296.922 131.789C296.864 132.206 295.498 142.44 300.6 149.197C304.09 149.988 312.117 149.022 316.532 146.986C328.392 141.511 333.095 139.567 333.095 139.567L316.753 60.8276C316.753 60.8276 301.454 63.0464 294.183 75.6049C286.911 88.1633 288.639 103.164 293.39 112.018C298.141 120.872 287.836 126.785 290.386 143.758Z" fill="#6D2F3B"/>
<path d="M347.502 144.905C347.502 144.905 336.932 155.05 322.015 150.101C322.015 150.101 322.94 142.525 322.428 135.191C322.203 131.989 321.704 128.84 320.733 126.371C320.585 125.987 320.424 125.631 320.253 125.288C316.414 117.627 342.76 108.228 342.954 108.161C342.893 108.277 340.885 111.958 340.493 117.694C340.408 118.96 340.408 120.23 340.493 121.495C340.596 123.05 340.823 124.595 341.173 126.114C342.676 132.566 344.795 138.859 347.502 144.905V144.905Z" fill="#FABBA5"/>
<path d="M338.545 119.151C338.618 120.417 338.776 121.677 339.019 122.921C335.218 131.31 323.038 138.682 322.836 138.803C322.209 135.655 321.314 132.587 320.042 130.268C325.411 126.239 335.078 119.338 338.545 119.151Z" fill="#ED938B"/>
<path d="M339.597 121.436C328.985 133.832 316.506 135.768 313.319 135.483C310.133 135.199 309.499 132.501 303.7 126.358C299.702 122.125 298.026 117.698 297.728 114.173C297.587 112.791 297.707 111.394 298.081 110.057C298.187 109.705 298.273 109.387 298.327 109.095C298.874 106.368 297.484 105.823 296.379 101.52C296.12 100.514 296.187 99.1379 296.471 97.5907C296.596 96.9037 296.757 96.1821 296.949 95.445C298.371 89.9894 301.383 83.6679 301.383 83.6679C319.124 64.8899 338.23 78.5048 341.338 86.1561C344.446 93.8074 350.208 109.039 339.597 121.436Z" fill="#FABBA5"/>
<path d="M326.451 92.181C326.451 92.181 323.011 87.2161 313.534 92.1194C307.898 95.0349 309.436 97.6405 312.766 96.4377C316.097 95.235 316.369 91.7192 326.451 92.181Z" fill="#752D4B"/>
<path d="M300.629 99.2957C299.225 99.3168 297.649 97.9775 296.469 97.581C296.594 96.894 296.755 96.1724 296.947 95.4354C297.465 95.3517 297.994 95.368 298.505 95.4835C302.74 96.3379 302.972 99.2668 300.629 99.2957Z" fill="#752D4B"/>
<path d="M304.957 105.914C305.364 107.471 302.078 103.316 300.479 103.31C299.008 103.31 297.455 104.569 296.064 104.184C295.988 104.162 295.921 104.114 295.875 104.049C295.83 103.984 295.808 103.906 295.813 103.826C295.818 103.747 295.85 103.672 295.904 103.613C295.957 103.555 296.029 103.516 296.108 103.504C296.952 103.366 297.759 103.057 298.481 102.596C300.191 101.497 303.846 101.655 304.957 105.914Z" fill="#752D4B"/>
<path d="M302.694 105.205C302.581 105.508 302.397 105.779 302.158 105.995C301.918 106.212 301.63 106.367 301.318 106.448C300.684 106.591 298.807 106.389 298.45 104.605C298.393 104.227 298.379 103.843 298.408 103.462L300.598 102.665L301.282 102.759L302.262 102.736L303.151 103.196C303.151 103.196 302.838 104.845 302.694 105.205Z" fill="#752D4B"/>
<path d="M313.175 102.517C313.175 102.517 313.256 98.2835 314.884 96.5996C316.512 94.9158 322.553 93.6669 323.929 94.6541C325.305 95.6413 326.108 97.6715 326.108 97.6715C326.108 97.6715 317.704 94.5463 313.175 102.517Z" fill="#EF9F8A"/>
<path d="M320.299 100.367C320.433 101.034 320.296 101.726 319.92 102.292C319.545 102.858 318.96 103.251 318.295 103.385C317.63 103.518 316.94 103.382 316.375 103.005C315.811 102.628 315.419 102.042 315.285 101.376C315.201 100.95 315.225 100.509 315.357 100.095C315.488 99.6809 315.723 99.3072 316.038 99.0087C316.982 98.8163 317.917 98.645 318.796 98.5142C319.374 98.7612 319.841 99.2134 320.107 99.7842C320.195 99.97 320.259 100.166 320.299 100.367V100.367Z" fill="#752D4B"/>
<path d="M326.221 98.247C326.232 99.3843 324.159 99.188 323.027 99.1649C322.752 99.1649 322.476 99.1437 322.203 99.1225C321.351 99.023 320.493 98.9735 319.635 98.9744C318.895 99.0032 318.163 99.1453 317.466 99.3958C316.42 99.7636 315.464 100.35 314.662 101.117C313.86 101.884 313.23 102.813 312.814 103.843C312.849 103.704 313.676 98.4144 318.806 96.7941C322.533 95.624 326.213 97.4252 326.221 98.247Z" fill="#752D4B"/>
<g opacity="0.2">
<path opacity="0.2" d="M331.674 103.135C329.782 102.319 327.365 102.448 325.397 103.471L322.161 105.155C320.049 106.258 317.798 107.464 316.836 109.341C316.553 109.843 316.461 110.431 316.577 110.996C316.905 112.343 318.408 112.577 319.794 112.624C323.579 112.731 327.324 111.826 330.644 110.001C331.157 109.714 331.652 109.397 332.127 109.05C334.561 107.266 334.329 104.285 331.674 103.14V103.135Z" fill="#ED4C62"/>
</g>
<g opacity="0.2">
<path opacity="0.2" d="M303.257 112.052C303.416 112.963 302.94 113.421 302.462 113.734C301.828 114.149 301.109 114.417 300.358 114.516C299.607 114.616 298.844 114.546 298.124 114.312C297.989 114.27 297.856 114.222 297.726 114.167C297.585 112.785 297.705 111.389 298.08 110.051C298.185 109.699 298.272 109.381 298.325 109.089C298.428 109.098 298.53 109.116 298.63 109.143L300.109 109.528C301.068 109.784 302.109 110.082 302.829 111.067C303.045 111.358 303.191 111.695 303.257 112.052V112.052Z" fill="#ED4C62"/>
</g>
<path d="M303.124 99.825C305.221 100.402 306.486 102.359 306.729 104.463C307.027 107.036 305.81 109.506 304.681 111.725C304.151 112.766 303.424 114.208 304.418 115.212C305.528 116.336 307.998 116.34 309.432 116.346C309.741 116.346 309.776 115.865 309.467 115.865C308.267 115.865 306.754 115.838 305.647 115.343C303.362 114.323 304.958 112.299 305.647 110.898C306.415 109.331 307.071 107.684 307.225 105.933C307.468 103.166 306.121 100.15 303.291 99.3689C302.994 99.2861 302.836 99.7422 303.134 99.825H303.124Z" fill="#EF9F8A"/>
<path d="M318.631 118.63C318.554 120.091 317.928 125.027 313.047 126.782C308.248 128.514 306.752 123.26 306.328 121.778C306.245 121.48 306.209 121.295 306.209 121.295C306.267 121.186 307.169 119.525 308.424 119.115C308.693 119.023 308.98 119 309.259 119.046C309.539 119.092 309.804 119.206 310.029 119.379C310.031 119.378 310.033 119.377 310.035 119.377C310.037 119.377 310.039 119.378 310.041 119.379C310.041 119.379 311.471 117.716 313.052 118.416C314.454 119.034 316.728 119.28 318.132 118.553H318.149C318.22 118.516 318.288 118.476 318.354 118.432C318.389 118.451 318.421 118.473 318.452 118.497C318.515 118.537 318.574 118.582 318.631 118.63Z" fill="#FF676D"/>
<path d="M314.389 123.652L314.237 123.664C313.604 124.078 312.959 124.497 312.235 124.717C311.954 124.774 311.686 124.879 311.44 125.026C311.21 125.196 311.056 125.527 311.206 125.775C311.356 126.023 311.665 126.065 311.941 126.052C312.836 126.01 313.669 125.592 314.394 125.053C314.661 124.861 314.938 124.593 314.943 124.259C314.941 124.107 314.884 123.961 314.781 123.849C314.679 123.738 314.539 123.667 314.389 123.652V123.652Z" fill="#FF8091"/>
<g opacity="0.2">
<path opacity="0.2" d="M305.906 114.812C307.267 114.745 308.63 114.907 309.937 115.293C310.532 115.468 310.845 114.556 310.25 114.379C308.862 113.963 307.414 113.783 305.967 113.848C305.355 113.877 305.28 114.841 305.898 114.81L305.906 114.812Z" fill="#FF6576"/>
</g>
<path d="M318.347 118.426L318.155 118.555H318.137C313.707 121.332 306.215 121.287 306.215 121.287C306.215 121.287 307.587 124.366 311.112 124.274C314.183 124.207 317.615 119.655 318.458 118.501C318.427 118.476 318.395 118.454 318.36 118.435L318.347 118.426Z" fill="white"/>
<path d="M318.013 118.364C318.427 118.586 318.798 118.88 319.109 119.232C319.13 119.251 319.157 119.261 319.185 119.261C319.213 119.26 319.24 119.25 319.261 119.232C319.282 119.213 319.295 119.187 319.298 119.159C319.302 119.132 319.295 119.103 319.279 119.08C318.956 118.713 318.57 118.406 318.139 118.174C318.011 118.107 317.882 118.297 318.013 118.366V118.364Z" fill="#F13A56"/>
<path d="M305.956 120.802C306.057 120.951 306.105 121.129 306.095 121.308C306.085 121.488 306.015 121.659 305.898 121.795C305.804 121.909 305.996 122.034 306.09 121.922C306.235 121.744 306.317 121.522 306.323 121.292C306.33 121.062 306.261 120.837 306.127 120.65C306.042 120.529 305.873 120.683 305.956 120.802V120.802Z" fill="#F13A56"/>
<path d="M313.682 218.462C313.389 219.299 322.321 247.661 300.437 244.476C286.56 242.455 285.338 231.227 282.155 230.813C267.888 228.994 266.875 221.892 271.745 214.215C276.615 206.539 283.737 173.442 287.614 163.498C292.183 151.76 310.402 146.993 310.402 146.993C310.402 146.993 313.989 217.625 313.682 218.462Z" fill="#BA9EE7"/>
<path d="M362.219 235.787C362.776 198.909 372.255 157.177 363.029 153.062C353.804 148.948 354.967 146.712 345.878 140.881C336.788 135.05 339.635 136.215 322.583 143.169C312.336 147.349 304.347 150.973 304.347 150.973C304.347 150.973 290.334 187.863 289.526 197.419C288.286 212.125 296.244 215.801 296.244 215.801C296.244 215.801 311.519 238.893 313.536 249.862C314.123 253.058 318.85 266.618 318.85 266.618L377.119 257.756C377.119 257.756 362.067 245.861 362.219 235.787Z" fill="#BA9EE7"/>
<g opacity="0.2">
<path opacity="0.2" d="M310.851 129.732C312.274 128.852 313.952 128.48 315.613 128.675C316.231 128.742 316.297 127.778 315.682 127.713C313.848 127.501 311.995 127.908 310.417 128.867C309.889 129.187 310.317 130.053 310.851 129.73V129.732Z" fill="#FF6576"/>
</g>
<path d="M311.112 279.097C311.399 276.378 314.192 254.466 312.052 250.394C308.779 244.182 305.798 236.178 304.356 228.923C310.44 239.215 323.289 245.246 325.386 253.261C329.259 268.061 371.001 250.85 371.001 250.85L355.539 279.421L311.112 279.097Z" fill="#9E86C5"/>
<path d="M344.369 143.695C354.028 147.146 363.19 151.864 371.614 157.725C372.04 158.022 372.574 157.41 372.146 157.11C363.669 151.204 354.45 146.449 344.728 142.969C344.24 142.794 343.878 143.524 344.369 143.699V143.695Z" fill="#FF4F67"/>
<path d="M372.22 157.85C374.443 156.923 376.856 156.545 379.255 156.75C379.772 156.794 379.935 155.995 379.415 155.951C376.871 155.721 374.31 156.109 371.948 157.082C371.466 157.275 371.733 158.045 372.218 157.852L372.22 157.85Z" fill="#FF4F67"/>
<path d="M318.04 64.328C331.93 58.8878 348.492 56.9519 361.382 65.9849C364.26 68.0013 366.75 70.5246 368.729 73.4322C370.975 76.7306 372.445 80.4158 374.397 83.8739C378.62 91.3654 387.575 91.7984 395.021 93.9653C398.477 94.9698 401.871 96.3515 404.619 98.7319C407.864 101.545 409.845 105.433 411.231 109.437C411.34 109.751 410.875 109.989 410.764 109.672C409.472 105.943 407.683 102.309 404.775 99.571C402.166 97.1135 398.836 95.6664 395.449 94.6369C389.458 92.8126 381.801 92.4277 376.948 88.0651C374.443 85.8117 373.153 82.5788 371.673 79.6287C369.902 76.0975 367.903 72.6625 365.122 69.824C360.056 64.6571 353.078 61.5935 345.981 60.5774C336.556 59.2304 327.039 61.3606 318.278 64.7918C317.967 64.913 317.731 64.4473 318.043 64.3242L318.04 64.328Z" fill="#6D2F3B"/>
<path d="M310.904 81.6915C310.904 81.6915 301.182 82.8826 297.905 92.2428C297.905 92.2428 297.851 78.7722 303.253 76.9768C308.655 75.1813 310.904 81.6915 310.904 81.6915Z" fill="#6D2F3B"/>
<path d="M396.622 190.884C393.267 213.153 417.673 229.65 407.875 263.277C407.738 263.739 407.471 264.151 407.107 264.466C403.694 267.457 394.405 279.599 364.609 278.162C338.681 276.911 325.559 273.397 325.559 273.397L316.279 259.988C316.279 259.988 321.462 269.198 360.588 254.815C375.476 249.342 379.503 247.172 379.503 247.172C379.503 247.172 369.602 218.279 365.436 208.717C361.271 199.155 400.001 168.463 396.622 190.884Z" fill="#FABBA5"/>
<path d="M385.456 210.453C372.337 208.623 369.763 228.927 358.773 223.418C357.739 222.878 356.831 222.124 356.111 221.205C348.342 211.687 350.957 182.213 350.957 182.213L358.288 144.286C358.288 144.286 380.171 150.494 385.047 163.05C389.587 174.743 398.601 185.084 402.348 198.553C402.629 199.547 402.876 200.56 403.091 201.591C404.521 208.39 398.574 212.283 385.456 210.453Z" fill="#BA9EE7"/>
<path d="M360.595 254.817C360.595 254.817 337.679 260.319 328.692 257.817C319.341 255.216 307.192 250.01 302.305 250.769C293.114 252.193 287.269 260.336 287.833 261.462C288.345 262.484 292.302 260.427 293.361 259.295C295.398 257.123 301.435 256.601 301.435 256.601C301.435 256.601 296.462 259.873 294.705 261.939C293.329 263.556 289.472 269.591 289.829 270.022C291.115 271.586 294.17 268.567 297.379 265.694C299.652 263.66 304.175 261.268 304.175 261.268C304.175 261.268 302.215 264.025 300.449 266.015C298.485 268.228 295.999 274.538 296.502 275.221C298.16 277.473 300.203 273.124 302.906 270.107C305.964 266.689 311.229 266.604 311.229 266.604C311.229 266.604 308.914 269.471 308.081 271.617C307.248 273.763 306.603 278.145 307.432 278.058C308.968 277.898 309.803 276.266 311.429 272.862C312.356 270.924 315.256 272.381 318.712 273.632C319.37 273.871 328.672 275.957 335.844 268.196C341.23 262.392 360.595 254.817 360.595 254.817Z" fill="#FABBA5"/>
<path d="M379.279 247.288C383.201 246.829 387.171 247.01 391.034 247.825C394.49 248.562 398.287 249.643 400.773 252.301C400.81 252.337 400.859 252.357 400.911 252.358C400.963 252.359 401.013 252.34 401.052 252.304C401.09 252.269 401.113 252.221 401.117 252.169C401.121 252.117 401.105 252.066 401.072 252.025C398.534 249.314 394.682 248.188 391.159 247.436C387.224 246.606 383.181 246.421 379.187 246.889C378.928 246.918 379.02 247.317 379.277 247.286L379.279 247.288Z" fill="#DC826F"/>
<path opacity="0.4" d="M396.941 203.745C393.543 205.631 387.331 198.108 384.506 196.413C381.68 194.718 379.941 205.971 377.468 208.171C374.996 210.37 371.873 204.27 368.7 205.762C365.526 207.253 369.523 212.025 365.371 215.737C361.219 219.45 355.472 212.61 355.472 212.61C355.472 212.61 354.878 215.82 356.75 218.672C357.981 220.546 362.096 222.885 362.106 222.888C362.991 223.34 363.933 223.668 364.906 223.864C371.364 221.201 375.169 209.021 385.456 210.457C398.574 212.285 404.521 208.392 403.101 201.591C402.886 200.565 402.638 199.552 402.358 198.553C401.362 199.246 399.667 202.232 396.941 203.745Z" fill="#DCC9FC"/>
<path d="M371.761 157.448C360.939 165.222 354.571 178.468 355.253 191.798C355.28 192.321 356.09 192.264 356.063 191.74C355.399 178.699 361.63 165.727 372.222 158.12C372.646 157.816 372.189 157.142 371.763 157.448H371.761Z" fill="#8A60CE"/>
<path d="M355.652 194.968C356.007 198.418 356.178 201.896 355.946 205.359C355.741 208.404 354.756 211.541 355.297 214.596C356.119 219.215 359.797 223.064 364.373 224.045C364.886 224.155 365.043 223.356 364.532 223.246C359.753 222.221 355.927 217.727 355.946 212.764C355.958 209.837 356.714 206.924 356.825 203.987C356.917 200.958 356.797 197.926 356.464 194.914C356.411 194.394 355.601 194.45 355.654 194.972L355.652 194.968Z" fill="#8A60CE"/>
<path d="M352.235 195.503C353.754 197.288 354.985 199.301 355.883 201.468C356.075 201.949 356.843 201.682 356.651 201.197C355.731 198.962 354.47 196.884 352.913 195.039C352.579 194.642 351.905 195.098 352.243 195.499L352.235 195.503Z" fill="#8A60CE"/>
<path d="M387.036 194.348C387.785 197.96 386.796 201.559 385.811 205.023C385.667 205.527 386.466 205.683 386.608 205.182C387.643 201.545 388.585 197.856 387.802 194.077C387.696 193.567 386.93 193.842 387.034 194.348H387.036Z" fill="#8A60CE"/>
<path d="M386.28 205.473C387.431 204.388 388.261 203.005 388.677 201.476C388.819 200.97 388.021 200.814 387.881 201.316C387.49 202.706 386.724 203.96 385.665 204.94C385.281 205.298 385.901 205.829 386.28 205.473V205.473Z" fill="#8A60CE"/>
<path d="M368.41 196.705C370.048 200.16 372.55 203.132 375.672 205.332C376.096 205.631 376.631 205.019 376.203 204.717C373.189 202.61 370.768 199.76 369.174 196.442C368.951 195.974 368.181 196.249 368.406 196.713L368.41 196.705Z" fill="#8A60CE"/>
<path d="M376.236 204.805C374.768 202.779 373.47 200.635 372.353 198.395C372.123 197.933 371.355 198.202 371.585 198.666C372.728 200.972 374.059 203.179 375.564 205.265C375.87 205.688 376.542 205.23 376.234 204.805H376.236Z" fill="#8A60CE"/>
<path d="M308.208 77.3325C309.198 77.9868 316.711 96.7302 334.151 98.8355C351.591 100.941 339.361 123.439 339.656 134.821C339.952 146.204 345.949 159.011 359.067 149.408C372.186 139.805 363.882 125.757 371.278 126.62L362.789 101.614L338.428 71.2496L324.906 69.916L311.187 74.6673L308.208 77.3325Z" fill="#6D2F3B"/>
<path d="M317.617 69.5239C317.778 77.9083 325.487 82.8655 332.782 84.7533C339.921 86.5988 347.49 86.4333 354.46 88.9869C359.72 90.9113 364.774 94.7408 366.34 100.364C367.93 106.07 365.726 111.925 364.48 117.466C363.52 121.699 363.156 125.891 364.638 130.057C366.12 134.223 368.817 137.874 371.057 141.674C371.228 141.965 370.761 142.198 370.59 141.909C366.993 135.803 362.586 130.063 363.127 122.596C363.609 115.955 367.014 109.57 366.281 102.835C365.434 95.0622 358.458 90.4726 351.5 88.5944C344.192 86.6277 336.416 86.8624 329.275 84.1933C322.94 81.8321 317.243 76.6517 317.104 69.4738C317.104 69.139 317.619 69.1756 317.625 69.5104L317.617 69.5239Z" fill="#964D5F"/>
<path d="M320.562 67.4473C324.745 74.3577 333.454 76.9479 340.747 79.0878C348.039 81.2277 356.334 81.9743 362.605 86.6929C365.174 88.5932 367.136 91.2005 368.255 94.1979C369.717 98.0852 370.733 101.582 373.535 104.772C378.323 110.222 384.548 114.031 388.432 120.321C392.257 126.514 393.444 134.477 389.443 140.885C389.265 141.17 388.831 140.885 389.009 140.595C393.424 133.534 391.257 124.913 386.625 118.57C382.51 112.934 376.334 109.35 372.103 103.853C369.892 100.977 369.045 97.7657 367.79 94.4327C366.385 90.7033 363.813 87.8898 360.415 85.8577C353.679 81.8319 345.313 81.1411 337.938 78.7722C331.27 76.6303 323.925 73.992 320.098 67.682C319.923 67.3934 320.389 67.1605 320.564 67.4473H320.562Z" fill="#964D5F"/>
<path d="M400.822 136.988C402.323 125.192 395.419 114.689 385.406 109.062C385.112 108.897 385.406 108.464 385.696 108.627C395.87 114.341 402.867 125.065 401.342 137.025C401.3 137.356 400.78 137.323 400.822 136.988V136.988Z" fill="#964D5F"/>
<path d="M349.439 121.104C348.596 126.562 350.222 131.831 352.942 136.534C355.186 140.414 358.267 145.59 362.743 147.118C362.806 147.143 362.856 147.191 362.884 147.252C362.912 147.313 362.915 147.382 362.893 147.446C362.872 147.509 362.827 147.562 362.767 147.593C362.708 147.624 362.639 147.631 362.575 147.613C358.098 146.085 355.186 141.274 352.863 137.413C349.882 132.474 348.022 126.87 348.92 121.056C348.972 120.727 349.496 120.76 349.441 121.093L349.439 121.104Z" fill="#964D5F"/>
<path d="M326.242 65.7213C325.582 65.4653 325.612 64.43 326.127 63.9431C326.641 63.4563 327.398 63.3658 328.095 63.2369C328.791 63.108 329.553 62.8944 329.918 62.2882C330.147 61.9033 330.179 61.4434 330.367 61.0431C330.838 60.0482 332.095 59.7538 333.183 59.6364C342.23 58.6646 351.644 61.9745 358.102 68.4L355.222 68.4558L355.455 70.0646L349.412 69.6354C349.149 69.6162 348.859 69.6066 348.657 69.7759C348.12 70.2262 348.849 71.0056 349.051 71.6772C349.277 72.4469 348.648 73.2648 347.888 73.5284C347.127 73.7921 346.296 73.6535 345.507 73.4996C338.489 72.1333 331.598 69.8875 325.373 66.364L326.242 65.7213Z" fill="#8C4959"/>
<path d="M334.519 103.015C334.519 103.015 337.608 95.2545 342.409 97.5214C347.21 99.7883 344.077 106.398 342.908 108.929C341.656 111.637 340.66 111.856 337.47 111.706C334.279 111.556 334.519 103.015 334.519 103.015Z" fill="#FABBA5"/>
<path d="M337.13 111.194C341.57 115.549 344.64 105.852 344.943 103.056C345.173 100.916 344.772 98.416 342.622 97.4134C340.288 96.3242 337.975 97.6231 336.66 99.6033C336.623 99.6627 336.611 99.7342 336.626 99.8025C336.641 99.8708 336.681 99.9306 336.74 99.9693C336.798 100.008 336.868 100.023 336.937 100.01C337.006 99.9973 337.067 99.9585 337.107 99.9016C338.478 97.8387 341.507 96.4781 343.478 98.6911C344.722 100.088 344.569 102.313 344.246 104.008C343.782 106.394 341.261 114.486 337.539 110.836C337.293 110.595 336.89 110.951 337.138 111.194H337.13Z" fill="#EF9F8A"/>
<path d="M339.789 99.4669C339.111 99.9383 338.456 100.527 338.253 101.362C338.021 102.292 338.47 102.546 338.681 103.381C339.207 105.467 337.564 105.473 337.211 107.018C337.07 107.626 337.211 108.009 337.556 108.484C337.76 108.764 338.161 108.406 337.957 108.127C337.521 107.526 338.234 106.323 338.616 105.865C338.723 105.736 338.85 105.617 338.948 105.481C339.207 105.156 339.384 104.773 339.462 104.364C339.51 104.021 339.449 103.672 339.288 103.366C338.879 102.446 338.802 103.038 339.144 101.58C339.416 100.425 339.336 100.437 340.153 99.8729C340.437 99.6805 340.078 99.2744 339.796 99.4707L339.789 99.4669Z" fill="#EF9F8A"/>
<path d="M346.277 113.794C352.94 111.886 356.518 103.942 354.27 96.0511C352.022 88.1597 344.798 83.309 338.135 85.2167C331.472 87.1244 327.893 95.0681 330.142 102.96C332.39 110.851 339.614 115.702 346.277 113.794Z" fill="white"/>
<path d="M348.477 113.165C355.14 111.257 358.718 103.313 356.47 95.4217C354.222 87.5303 346.998 82.6796 340.335 84.5873C333.672 86.495 330.094 94.4387 332.342 102.33C334.59 110.222 341.814 115.072 348.477 113.165Z" fill="#ABC7F2"/>
<path d="M348.072 109.997C353.319 108.494 356.137 102.239 354.367 96.0243C352.596 89.8099 346.907 85.99 341.66 87.4923C336.414 88.9946 333.595 95.2502 335.366 101.465C337.136 107.679 342.825 111.499 348.072 109.997Z" fill="white"/>
<path d="M344.868 98.7338C344.868 98.7338 328.006 59.44 310.148 62.6961C310.148 62.6961 314.166 59.2861 320.806 59.5074C327.445 59.7287 341.153 77.4233 347.974 97.5984C347.974 97.5984 348.358 98.6606 346.943 99.3303C345.528 100 344.868 98.7338 344.868 98.7338Z" fill="#51497A"/>
<path d="M61.5385 286.002L423.821 286.002C426.194 286.002 428.117 284.074 428.117 281.695C428.117 279.317 426.194 277.388 423.821 277.388L61.5385 277.388C59.1659 277.388 57.2425 279.317 57.2425 281.695C57.2425 284.074 59.1659 286.002 61.5385 286.002Z" fill="#2D2B4E"/>
<path d="M48.2895 286.002L336.253 286.002C338.625 286.002 340.549 284.074 340.549 281.695C340.549 279.317 338.625 277.388 336.253 277.388L48.2895 277.388C45.9168 277.388 43.9934 279.317 43.9934 281.695C43.9934 284.074 45.9168 286.002 48.2895 286.002Z" fill="#666294"/>
<path d="M141.696 277.471H259.175L248.566 203.315C248.38 202.018 247.735 200.831 246.748 199.972C245.761 199.113 244.498 198.639 243.191 198.637H135.566C134.927 198.638 134.295 198.776 133.713 199.042C133.132 199.309 132.614 199.697 132.196 200.182C131.777 200.666 131.467 201.235 131.287 201.85C131.107 202.465 131.06 203.112 131.151 203.746L141.696 277.471Z" fill="#51497A"/>
<path d="M246.275 277.471H299.285C299.285 276.114 298.747 274.813 297.79 273.853C296.833 272.894 295.535 272.354 294.181 272.354H246.268V277.471H246.275Z" fill="#51497A"/>
<path d="M185.633 240.209C185.057 237.754 185.422 235.47 186.629 233.944C187.053 233.403 187.595 232.968 188.213 232.671C188.832 232.375 189.51 232.226 190.196 232.235C193.636 232.235 197.25 235.729 198.258 240.025C198.834 242.48 198.469 244.764 197.262 246.29C196.839 246.831 196.297 247.267 195.678 247.564C195.06 247.86 194.381 248.01 193.695 248.001C190.252 247.999 186.637 244.505 185.633 240.209ZM187.261 234.436C186.207 235.768 185.902 237.802 186.418 240.017C187.341 243.968 190.605 247.183 193.692 247.183C194.256 247.195 194.815 247.074 195.325 246.831C195.835 246.587 196.28 246.227 196.627 245.78C197.68 244.449 197.986 242.415 197.469 240.2C196.546 236.247 193.283 233.033 190.196 233.033C189.631 233.023 189.071 233.145 188.561 233.39C188.051 233.636 187.606 233.997 187.261 234.446V234.436Z" fill="white"/>
<path d="M219.022 277.471C219.022 277.471 152.128 278.691 134.752 229.004L141.686 277.471H219.013H219.022Z" fill="#383463"/>
<g opacity="0.4">
<path opacity="0.4" d="M96.9588 236.286C95.7187 234.005 93.1733 227.449 92.4093 218.966C91.8558 212.651 92.2904 206.288 93.6973 200.108C95.4672 192.237 98.7862 184.43 103.562 176.896L103.439 176.819C98.6538 184.366 95.329 192.193 93.5553 200.081C92.1441 206.28 91.7088 212.662 92.2653 218.995C93.0332 227.499 95.5882 234.073 96.8301 236.363L96.9588 236.286Z" fill="#288B54"/>
<path opacity="0.4" d="M103.595 170.099C105.19 167.301 106.282 167.066 107.484 167.655C108.686 168.244 109.425 169.493 108.636 171.527C106.716 176.449 102.086 180.798 101.278 180.402C100.689 180.115 101.374 173.996 103.595 170.099Z" fill="#84B884"/>
<path opacity="0.4" d="M106.532 180.781C109.559 179.694 110.538 180.225 111.072 181.457C111.605 182.688 111.356 184.116 109.436 185.15C104.793 187.651 98.4485 187.932 98.0914 187.103C97.8304 186.502 102.316 182.296 106.532 180.781Z" fill="#84B884"/>
<path opacity="0.4" d="M101.209 180.548C104.088 176.828 104.773 171.888 107.793 168.261C107.799 168.253 107.808 168.248 107.818 168.247C107.827 168.246 107.837 168.249 107.845 168.255C107.852 168.261 107.857 168.27 107.858 168.28C107.86 168.29 107.857 168.299 107.851 168.307C104.831 171.938 104.144 176.874 101.266 180.594C101.263 180.598 101.26 180.601 101.255 180.604C101.251 180.606 101.246 180.607 101.242 180.608C101.237 180.608 101.232 180.608 101.227 180.607C101.223 180.605 101.218 180.603 101.215 180.6C101.211 180.597 101.208 180.593 101.205 180.589C101.203 180.585 101.201 180.58 101.201 180.575C101.2 180.57 101.201 180.566 101.202 180.561C101.203 180.556 101.206 180.552 101.209 180.548Z" fill="#288B54"/>
<path opacity="0.4" d="M104.593 174.094C103.716 173.496 103.09 172.593 102.839 171.56C102.829 171.513 102.902 171.506 102.912 171.56C103.162 172.574 103.777 173.459 104.639 174.046C104.678 174.071 104.639 174.129 104.593 174.104V174.094Z" fill="#288B54"/>
<path opacity="0.4" d="M105.511 171.99C106.646 171.967 107.754 171.645 108.726 171.059C108.767 171.036 108.811 171.094 108.769 171.119C107.786 171.713 106.666 172.038 105.519 172.064C105.473 172.064 105.463 171.99 105.519 171.99H105.511Z" fill="#288B54"/>
<path opacity="0.4" d="M103.284 170.842C103.631 171.809 104.185 172.689 104.906 173.42C104.939 173.453 104.895 173.511 104.86 173.478C104.129 172.739 103.567 171.848 103.215 170.869C103.213 170.86 103.214 170.851 103.218 170.843C103.222 170.835 103.229 170.829 103.237 170.825C103.245 170.822 103.254 170.822 103.263 170.825C103.271 170.828 103.278 170.834 103.282 170.842V170.842H103.284Z" fill="#288B54"/>
<path opacity="0.4" d="M89.5591 180.562C87.699 177.933 87.9448 176.844 88.9833 175.997C90.0218 175.15 91.4615 175.006 92.9722 176.574C96.6194 180.384 98.6062 186.431 97.9056 187C97.4007 187.42 92.1506 184.222 89.5591 180.562Z" fill="#84B884"/>
<path opacity="0.4" d="M98.009 187.126C95.8533 182.944 91.6743 180.24 89.6606 175.964C89.6414 175.922 89.7086 175.895 89.7278 175.937C91.7415 180.211 95.9205 182.913 98.0762 187.099C98.0973 187.141 98.0301 187.166 98.009 187.126Z" fill="#288B54"/>
<path opacity="0.4" d="M93.5996 181.333C92.6908 181.883 91.6099 182.073 90.5686 181.866C90.5225 181.857 90.534 181.784 90.5782 181.793C91.6005 181.997 92.6621 181.812 93.5555 181.274C93.5958 181.249 93.638 181.308 93.5977 181.333H93.5996Z" fill="#288B54"/>
<path opacity="0.4" d="M92.0777 179.613C92.5313 178.571 92.7066 177.428 92.5863 176.297C92.5863 176.288 92.5902 176.278 92.597 176.271C92.6039 176.265 92.6131 176.261 92.6228 176.261C92.6325 176.261 92.6418 176.265 92.6486 176.271C92.6555 176.278 92.6593 176.288 92.6593 176.297C92.781 177.441 92.6037 178.596 92.1448 179.65C92.143 179.654 92.1402 179.658 92.1368 179.661C92.1333 179.665 92.1293 179.667 92.1248 179.669C92.1204 179.671 92.1156 179.672 92.1108 179.672C92.106 179.672 92.1013 179.671 92.0969 179.669C92.0924 179.667 92.0885 179.664 92.0851 179.661C92.0817 179.657 92.0791 179.653 92.0773 179.649C92.0755 179.644 92.0747 179.639 92.0747 179.635C92.0748 179.63 92.0758 179.625 92.0777 179.621V179.621V179.613Z" fill="#288B54"/>
<path opacity="0.4" d="M90.1022 181.158C91.1234 181.255 92.1534 181.123 93.1179 180.773C93.1265 180.771 93.1356 180.772 93.1435 180.776C93.1514 180.78 93.1576 180.787 93.1609 180.795C93.1642 180.803 93.1644 180.812 93.1614 180.821C93.1584 180.829 93.1525 180.836 93.1448 180.84C92.1684 181.197 91.1254 181.333 90.0907 181.237C90.0446 181.237 90.0542 181.16 90.1003 181.164L90.1022 181.158Z" fill="#288B54"/>
<path opacity="0.4" d="M83.7136 192.32C81.5406 189.241 81.8285 187.976 83.0436 186.989C84.2588 186.002 85.9384 185.835 87.7006 187.67C91.964 192.119 94.2791 199.182 93.4594 199.848C92.8778 200.329 86.7466 196.598 83.7136 192.32Z" fill="#84B884"/>
<path opacity="0.4" d="M93.5883 199.986C91.0775 195.098 86.1844 191.948 83.8386 186.952C83.8156 186.902 83.8943 186.871 83.9173 186.921C86.2631 191.925 91.1562 195.065 93.667 199.955C93.692 200.003 93.6133 200.034 93.5883 199.986Z" fill="#288B54"/>
<path opacity="0.4" d="M88.44 193.218C87.3788 193.861 86.1164 194.084 84.9002 193.842C84.8465 193.83 84.858 193.746 84.9118 193.757C86.1063 193.996 87.3466 193.779 88.3901 193.149C88.4362 193.12 88.488 193.189 88.44 193.218V193.218Z" fill="#288B54"/>
<path opacity="0.4" d="M86.6624 191.209C87.221 190.022 87.3727 188.636 87.2575 187.337C87.2562 187.326 87.2595 187.315 87.2665 187.306C87.2735 187.297 87.2837 187.292 87.2949 187.29C87.3061 187.289 87.3174 187.292 87.3262 187.299C87.335 187.306 87.3407 187.317 87.342 187.328C87.4591 188.642 87.3074 190.041 86.7411 191.244C86.7368 191.254 86.7285 191.263 86.7181 191.267C86.7076 191.271 86.6959 191.271 86.6855 191.267C86.675 191.263 86.6667 191.254 86.6624 191.244C86.6581 191.233 86.6581 191.222 86.6624 191.211V191.211V191.209Z" fill="#288B54"/>
<path opacity="0.4" d="M84.3549 193.014C85.5484 193.124 86.7514 192.968 87.8774 192.556C87.8878 192.552 87.8994 192.552 87.9097 192.557C87.92 192.561 87.928 192.57 87.9321 192.58C87.9361 192.591 87.9359 192.602 87.9314 192.613C87.9269 192.623 87.9185 192.631 87.9081 192.635C86.768 193.052 85.5499 193.21 84.3415 193.099C84.2858 193.099 84.2992 193.01 84.353 193.014H84.3549Z" fill="#288B54"/>
<path opacity="0.4" d="M104.254 193.336C107.878 192.35 108.97 193.06 109.477 194.544C109.984 196.028 109.563 197.667 107.233 198.691C101.597 201.168 94.1795 200.91 93.8436 199.913C93.5998 199.188 99.2127 194.708 104.254 193.336Z" fill="#84B884"/>
<path opacity="0.4" d="M93.6725 199.977C99.1165 199.303 103.752 195.78 109.239 195.299C109.25 195.297 109.261 195.301 109.27 195.308C109.279 195.315 109.284 195.325 109.286 195.336C109.287 195.347 109.284 195.359 109.277 195.367C109.27 195.376 109.259 195.382 109.248 195.383C103.762 195.864 99.1261 199.388 93.6821 200.061C93.6709 200.063 93.6596 200.059 93.6508 200.052C93.642 200.045 93.6363 200.035 93.635 200.024C93.6338 200.013 93.637 200.001 93.644 199.993C93.651 199.984 93.6613 199.978 93.6725 199.977V199.977Z" fill="#288B54"/>
<path opacity="0.4" d="M101.787 197.458C101.552 196.234 101.782 194.966 102.43 193.903C102.459 193.857 102.526 193.903 102.497 193.957C101.867 195.001 101.644 196.242 101.871 197.44C101.883 197.494 101.799 197.504 101.787 197.45V197.458Z" fill="#288B54"/>
<path opacity="0.4" d="M104.278 196.482C105.198 197.419 106.44 198.039 107.697 198.379C107.749 198.393 107.738 198.478 107.686 198.464C106.415 198.12 105.156 197.502 104.23 196.54C104.192 196.501 104.246 196.434 104.284 196.472L104.278 196.482Z" fill="#288B54"/>
<path opacity="0.4" d="M103.39 193.688C102.877 194.771 102.608 195.953 102.601 197.152C102.601 197.206 102.516 197.217 102.516 197.161C102.521 195.945 102.792 194.745 103.311 193.645C103.315 193.635 103.323 193.627 103.334 193.622C103.344 193.618 103.356 193.618 103.366 193.622C103.377 193.627 103.385 193.635 103.39 193.646C103.394 193.656 103.394 193.668 103.39 193.678V193.688Z" fill="#288B54"/>
<path opacity="0.4" d="M104.551 203.396C108.63 202.288 109.857 203.086 110.427 204.755C110.997 206.423 110.523 208.269 107.903 209.421C101.568 212.208 93.2214 211.923 92.8375 210.795C92.5591 209.981 98.8785 204.939 104.551 203.396Z" fill="#84B884"/>
<path opacity="0.4" d="M91.8663 210.88C98.224 210.11 103.749 206.158 110.154 205.603C110.161 205.603 110.167 205.603 110.173 205.605C110.179 205.607 110.185 205.609 110.19 205.613C110.195 205.617 110.199 205.622 110.202 205.628C110.205 205.633 110.207 205.639 110.208 205.646C110.209 205.652 110.208 205.658 110.207 205.665C110.205 205.671 110.202 205.676 110.198 205.681C110.194 205.686 110.189 205.691 110.184 205.694C110.178 205.697 110.172 205.699 110.166 205.7C103.76 206.254 98.2355 210.197 91.8778 210.976C91.8651 210.978 91.8523 210.974 91.8422 210.966C91.8321 210.958 91.8256 210.947 91.8241 210.934C91.8225 210.921 91.8261 210.908 91.8341 210.898C91.842 210.888 91.8536 210.882 91.8663 210.88Z" fill="#288B54"/>
<path opacity="0.4" d="M101.771 208.034C101.508 206.66 101.766 205.238 102.495 204.045C102.528 203.993 102.603 204.045 102.57 204.104C101.857 205.277 101.606 206.674 101.866 208.022C101.879 208.082 101.783 208.094 101.77 208.034H101.771Z" fill="#288B54"/>
<path opacity="0.4" d="M104.574 206.937C105.605 207.992 107.01 208.692 108.413 209.071C108.473 209.087 108.459 209.183 108.4 209.166C106.973 208.781 105.549 208.078 104.507 207.01C104.464 206.966 104.524 206.891 104.566 206.935L104.574 206.937Z" fill="#288B54"/>
<path opacity="0.4" d="M103.574 203.793C102.996 205.014 102.693 206.347 102.687 207.699C102.687 207.761 102.591 207.772 102.591 207.711C102.595 206.343 102.901 204.992 103.486 203.756C103.488 203.75 103.492 203.745 103.497 203.741C103.501 203.736 103.506 203.733 103.512 203.73C103.518 203.728 103.525 203.727 103.531 203.727C103.537 203.727 103.543 203.729 103.549 203.731C103.555 203.734 103.56 203.737 103.565 203.742C103.569 203.746 103.572 203.752 103.575 203.758C103.577 203.764 103.578 203.77 103.578 203.776C103.578 203.782 103.577 203.789 103.574 203.795V203.795V203.793Z" fill="#288B54"/>
<path opacity="0.4" d="M81.3181 200.616C77.6152 198.576 76.233 199.061 75.2867 200.55C74.3403 202.04 74.3672 203.943 76.6438 205.683C82.1531 209.889 90.3248 211.575 90.9621 210.574C91.4267 209.845 86.4741 203.456 81.3181 200.616Z" fill="#84B884"/>
<path opacity="0.4" d="M91.8529 210.973C85.858 208.711 81.4122 203.581 75.3194 201.528C75.2598 201.509 75.2982 201.42 75.3577 201.439C81.4525 203.493 85.8983 208.623 91.8913 210.884C91.903 210.889 91.9122 210.899 91.9169 210.911C91.9215 210.923 91.9213 210.936 91.9162 210.948C91.9111 210.959 91.9016 210.969 91.8897 210.973C91.8778 210.978 91.8646 210.978 91.8529 210.973V210.973Z" fill="#288B54"/>
<path opacity="0.4" d="M82.8424 205.744C83.4115 204.494 83.495 203.077 83.0766 201.768C83.072 201.756 83.0723 201.743 83.0776 201.731C83.0828 201.72 83.0924 201.71 83.1044 201.706C83.1164 201.701 83.1296 201.702 83.1413 201.707C83.153 201.712 83.1622 201.722 83.1668 201.734C83.5924 203.063 83.5082 204.504 82.9307 205.775C82.9256 205.787 82.916 205.796 82.9042 205.801C82.8923 205.805 82.879 205.805 82.8673 205.8C82.8556 205.795 82.8464 205.785 82.8417 205.773C82.837 205.761 82.8373 205.748 82.8424 205.736V205.736V205.744Z" fill="#288B54"/>
<path opacity="0.4" d="M80.514 204.133C79.2509 204.922 77.7037 205.276 76.2256 205.313C76.1641 205.313 76.1526 205.219 76.2141 205.217C77.6768 205.18 79.2048 204.832 80.4564 204.062C80.5082 204.029 80.5658 204.106 80.512 204.139L80.514 204.133Z" fill="#288B54"/>
<path opacity="0.4" d="M82.27 201.216C82.5477 202.551 82.5281 203.931 82.2124 205.257C82.199 205.317 82.103 205.303 82.1184 205.244C82.4322 203.925 82.4518 202.553 82.1759 201.225C82.1625 201.164 82.2585 201.154 82.2719 201.214L82.27 201.216Z" fill="#288B54"/>
</g>
<g opacity="0.4">
<path opacity="0.4" d="M80.441 229.504C80.057 228.092 78.5693 224.426 75.6016 220.666C73.3854 217.87 70.7467 215.439 67.7812 213.461C64.0149 210.936 59.6401 209.035 54.7759 207.817L54.7951 207.738C59.6689 208.96 64.0533 210.863 67.8272 213.395C70.8014 215.378 73.4479 217.815 75.6707 220.618C78.6461 224.387 80.1453 228.065 80.5235 229.483L80.441 229.504Z" fill="#288B54"/>
<path opacity="0.4" d="M52.1306 205.065C50.403 204.543 49.8616 204.872 49.5967 205.578C49.3318 206.285 49.5142 207.083 50.6237 207.607C53.3112 208.875 56.8836 208.846 57.0602 208.376C57.1907 208.017 54.5359 205.784 52.1306 205.065Z" fill="#84B884"/>
<path opacity="0.4" d="M55.0638 210.559C53.4072 211.292 53.2133 211.889 53.4706 212.599C53.7278 213.309 54.3824 213.796 55.5668 213.47C58.4289 212.685 61.1336 210.336 60.9551 209.858C60.8284 209.514 57.3693 209.541 55.0638 210.559Z" fill="#84B884"/>
<path opacity="0.4" d="M57.1466 208.396C54.5321 207.996 52.3476 206.246 49.7062 205.938C49.7019 205.94 49.6982 205.942 49.6955 205.946C49.6928 205.95 49.6914 205.954 49.6914 205.959C49.6914 205.963 49.6928 205.968 49.6955 205.971C49.6982 205.975 49.7019 205.978 49.7062 205.979C52.3438 206.289 54.534 208.036 57.1466 208.436C57.1509 208.435 57.1547 208.432 57.1573 208.429C57.16 208.425 57.1614 208.421 57.1614 208.416C57.1614 208.412 57.16 208.407 57.1573 208.404C57.1547 208.4 57.1509 208.397 57.1466 208.396V208.396Z" fill="#288B54"/>
<path opacity="0.4" d="M53.2671 207.076C53.3944 206.491 53.3007 205.879 53.0041 205.359C52.9906 205.336 52.958 205.359 52.9714 205.384C53.2619 205.896 53.3529 206.497 53.2267 207.072C53.2267 207.097 53.2613 207.103 53.2671 207.072V207.076Z" fill="#288B54"/>
<path opacity="0.4" d="M52.0789 206.574C51.6068 207.005 51.0304 207.305 50.407 207.443C50.382 207.443 50.3858 207.49 50.407 207.484C51.038 207.344 51.6217 207.042 52.1 206.606C52.1192 206.589 52.1 206.554 52.0751 206.574H52.0789Z" fill="#288B54"/>
<path opacity="0.4" d="M52.5433 205.238C52.7757 205.768 52.8897 206.343 52.8773 206.922C52.8773 206.949 52.9176 206.955 52.9176 206.922C52.9303 206.336 52.815 205.754 52.5797 205.217C52.5771 205.213 52.5731 205.21 52.5684 205.208C52.5638 205.207 52.5588 205.207 52.5543 205.209C52.5498 205.211 52.546 205.214 52.5437 205.218C52.5413 205.223 52.5405 205.228 52.5413 205.232V205.232L52.5433 205.238Z" fill="#288B54"/>
<path opacity="0.4" d="M61.9073 203.874C61.6501 202.076 61.128 201.728 60.3716 201.786C59.6153 201.843 58.9761 202.344 58.9684 203.573C58.9511 206.548 60.4811 209.787 60.9859 209.749C61.3583 209.722 62.2663 206.375 61.9073 203.874Z" fill="#84B884"/>
<path opacity="0.4" d="M60.997 209.837C60.2599 207.291 60.9202 204.565 60.0891 202.036C60.0891 202.011 60.043 202.036 60.0507 202.051C60.8819 204.578 60.2196 207.307 60.9586 209.853C60.9586 209.878 61.0047 209.862 60.997 209.837Z" fill="#288B54"/>
<path opacity="0.4" d="M60.5558 205.757C61.1398 205.628 61.6547 205.285 61.9993 204.795C62.0147 204.774 61.982 204.747 61.9667 204.77C61.6281 205.251 61.123 205.588 60.55 205.715C60.5251 205.715 60.5289 205.761 60.55 205.755L60.5558 205.757Z" fill="#288B54"/>
<path opacity="0.4" d="M60.5133 204.465C59.9254 204.216 59.412 203.818 59.0237 203.31C59.02 203.307 59.0155 203.305 59.0107 203.305C59.006 203.305 59.0013 203.307 58.9975 203.31C58.9938 203.312 58.9911 203.317 58.9899 203.321C58.9887 203.326 58.9892 203.331 58.9911 203.335C59.3837 203.849 59.903 204.251 60.498 204.503C60.503 204.505 60.5085 204.505 60.5134 204.503C60.5182 204.501 60.5222 204.497 60.5244 204.492C60.5265 204.487 60.5268 204.481 60.5251 204.476C60.5234 204.471 60.5199 204.467 60.5152 204.465V204.465H60.5133Z" fill="#288B54"/>
<path opacity="0.4" d="M61.9169 204.328C61.5359 204.763 61.0632 205.109 60.5329 205.34C60.5288 205.342 60.5258 205.346 60.5244 205.351C60.523 205.356 60.5231 205.361 60.5249 205.365C60.5268 205.37 60.53 205.374 60.5343 205.376C60.5385 205.378 60.5435 205.379 60.5482 205.378C61.0845 205.144 61.5625 204.794 61.9476 204.353C61.9649 204.333 61.9323 204.306 61.915 204.328H61.9169Z" fill="#288B54"/>
<path opacity="0.4" d="M68.8388 206.412C68.5393 204.312 67.9289 203.91 67.0516 203.973C66.1744 204.037 65.4219 204.626 65.4123 206.061C65.3912 209.535 67.1783 213.32 67.7696 213.274C68.1976 213.234 69.2573 209.325 68.8388 206.412Z" fill="#84B884"/>
<path opacity="0.4" d="M67.7809 213.37C66.9152 210.399 67.6945 207.212 66.7213 204.258C66.7117 204.23 66.6675 204.247 66.6771 204.276C67.6504 207.226 66.8691 210.415 67.7368 213.388C67.7368 213.417 67.7905 213.399 67.7809 213.37Z" fill="#288B54"/>
<path opacity="0.4" d="M67.2611 208.606C67.9434 208.456 68.5452 208.056 68.9484 207.484C68.9657 207.459 68.9273 207.428 68.91 207.453C68.5148 208.015 67.9248 208.409 67.2553 208.558C67.2246 208.558 67.2304 208.612 67.2553 208.606H67.2611Z" fill="#288B54"/>
<path opacity="0.4" d="M67.2054 207.095C66.5177 206.806 65.9175 206.341 65.4644 205.748C65.46 205.744 65.4548 205.743 65.4493 205.743C65.4439 205.743 65.4386 205.744 65.4343 205.748C65.43 205.751 65.4268 205.756 65.4253 205.761C65.4238 205.766 65.424 205.772 65.426 205.777C65.8835 206.378 66.4905 206.848 67.1862 207.141C67.1916 207.142 67.1972 207.141 67.202 207.138C67.2067 207.135 67.2105 207.131 67.2127 207.126C67.2149 207.121 67.2153 207.116 67.214 207.11C67.2127 207.105 67.2097 207.1 67.2054 207.097V207.097V207.095Z" fill="#288B54"/>
<path opacity="0.4" d="M68.8505 206.935C68.4055 207.444 67.8535 207.848 67.2342 208.117C67.2301 208.12 67.2272 208.125 67.2259 208.13C67.2246 208.135 67.2249 208.14 67.2268 208.145C67.2287 208.15 67.2321 208.154 67.2366 208.157C67.241 208.16 67.2462 208.162 67.2514 208.161C67.8781 207.888 68.4367 207.479 68.8869 206.964C68.908 206.941 68.8697 206.91 68.8485 206.933L68.8505 206.935Z" fill="#288B54"/>
<path opacity="0.4" d="M60.8474 214.802C58.9854 215.809 58.8145 216.522 59.1812 217.325C59.5478 218.127 60.3541 218.633 61.7016 218.147C64.9649 216.967 67.8885 213.98 67.6409 213.442C67.4623 213.049 63.4369 213.401 60.8474 214.802Z" fill="#84B884"/>
<path opacity="0.4" d="M67.7371 213.399C65.2551 215.241 61.9975 215.603 59.5711 217.54C59.566 217.544 59.5627 217.55 59.5618 217.556C59.5609 217.563 59.5625 217.569 59.5663 217.574C59.5701 217.579 59.5758 217.583 59.5821 217.583C59.5884 217.584 59.5948 217.583 59.5999 217.579C62.0263 215.643 65.2819 215.279 67.7659 213.438C67.7692 213.433 67.771 213.428 67.771 213.423C67.771 213.417 67.7692 213.412 67.766 213.407C67.7627 213.403 67.7582 213.4 67.7529 213.398C67.7477 213.397 67.7422 213.397 67.7371 213.399V213.399Z" fill="#288B54"/>
<path opacity="0.4" d="M63.4503 215.526C63.0729 214.937 62.4906 214.51 61.8167 214.329C61.786 214.329 61.7803 214.369 61.8167 214.377C62.4781 214.558 63.0491 214.978 63.4196 215.556C63.4369 215.583 63.4734 215.556 63.458 215.527L63.4503 215.526Z" fill="#288B54"/>
<path opacity="0.4" d="M62.0551 216.095C62.0216 216.842 61.7933 217.567 61.3928 218.198C61.3775 218.225 61.414 218.254 61.4312 218.229C61.8368 217.591 62.0684 216.858 62.1031 216.103C62.1031 216.072 62.057 216.064 62.0551 216.103V216.095Z" fill="#288B54"/>
<path opacity="0.4" d="M61.337 214.609C61.9663 214.854 62.5344 215.233 63.0013 215.722C63.0224 215.743 63.0608 215.722 63.0396 215.693C62.5677 215.198 61.993 214.813 61.3562 214.565C61.3507 214.564 61.3452 214.565 61.3404 214.568C61.3357 214.571 61.3319 214.575 61.3297 214.58C61.3275 214.585 61.3271 214.591 61.3284 214.596C61.3297 214.601 61.3327 214.606 61.337 214.609V214.609Z" fill="#288B54"/>
<path opacity="0.4" d="M64.6175 219.024C62.5232 220.156 62.3312 220.96 62.744 221.863C63.1567 222.765 64.0646 223.335 65.5792 222.786C69.2476 221.46 72.5397 218.099 72.2613 217.492C72.0617 217.052 67.5334 217.448 64.6175 219.024Z" fill="#84B884"/>
<path opacity="0.4" d="M72.6916 217.15C69.7949 219.303 66.0133 219.844 63.1838 222.103C63.1791 222.108 63.1763 222.114 63.1758 222.12C63.1754 222.127 63.1774 222.134 63.1814 222.139C63.1854 222.144 63.1912 222.148 63.1977 222.149C63.2041 222.15 63.2108 222.149 63.2165 222.145C66.0536 219.882 69.8276 219.347 72.7242 217.188C72.7289 217.184 72.7318 217.177 72.7322 217.171C72.7327 217.164 72.7307 217.158 72.7267 217.153C72.7226 217.147 72.7169 217.144 72.7104 217.143C72.7039 217.141 72.6972 217.143 72.6916 217.146V217.15Z" fill="#288B54"/>
<path opacity="0.4" d="M67.5468 219.838C67.1227 219.175 66.4669 218.695 65.7078 218.491C65.6733 218.491 65.6675 218.537 65.7078 218.545C66.4522 218.747 67.0949 219.22 67.5103 219.871C67.5295 219.9 67.5717 219.871 67.5525 219.838H67.5468Z" fill="#288B54"/>
<path opacity="0.4" d="M65.9789 220.479C65.9426 221.32 65.6857 222.136 65.2341 222.846C65.2168 222.875 65.259 222.909 65.2763 222.878C65.7338 222.162 65.9947 221.337 66.0326 220.486C66.0326 220.452 65.9789 220.444 65.9789 220.486V220.479Z" fill="#288B54"/>
<path opacity="0.4" d="M65.1703 218.807C65.879 219.08 66.5188 219.507 67.0439 220.057C67.0669 220.082 67.1111 220.057 67.0861 220.025C66.5555 219.467 65.9085 219.034 65.1915 218.757C65.1848 218.754 65.1774 218.754 65.1707 218.756C65.1641 218.759 65.1588 218.764 65.156 218.771C65.1532 218.778 65.1531 218.785 65.1558 218.792C65.1585 218.798 65.1637 218.804 65.1703 218.807V218.807Z" fill="#288B54"/>
<path opacity="0.4" d="M69.2017 222.544C66.8674 223.012 66.4489 223.722 66.5795 224.707C66.71 225.692 67.4107 226.502 69.0212 226.423C72.9161 226.231 77.0471 223.989 76.9588 223.327C76.8935 222.848 72.4496 221.894 69.2017 222.544Z" fill="#84B884"/>
<path opacity="0.4" d="M77.4673 223.127C74.0677 224.331 70.2956 223.735 66.9286 225.066C66.9254 225.068 66.9224 225.07 66.9199 225.072C66.9174 225.075 66.9154 225.078 66.9141 225.081C66.9128 225.085 66.9121 225.088 66.9121 225.092C66.9121 225.095 66.9129 225.099 66.9142 225.102C66.9156 225.105 66.9177 225.108 66.9202 225.111C66.9227 225.113 66.9257 225.115 66.929 225.117C66.9323 225.118 66.9359 225.119 66.9394 225.119C66.943 225.119 66.9465 225.118 66.9498 225.116C70.3167 223.785 74.0888 224.381 77.4884 223.177C77.495 223.174 77.5002 223.169 77.5029 223.162C77.5056 223.155 77.5056 223.148 77.5028 223.141C77.5 223.134 77.4947 223.129 77.488 223.126C77.4813 223.124 77.4739 223.124 77.4673 223.127Z" fill="#288B54"/>
<path opacity="0.4" d="M71.7642 224.187C71.5546 223.425 71.0676 222.77 70.3994 222.351C70.3687 222.334 70.3476 222.384 70.3783 222.401C71.0296 222.812 71.5051 223.45 71.7124 224.193C71.7124 224.226 71.7738 224.22 71.7662 224.193L71.7642 224.187Z" fill="#288B54"/>
<path opacity="0.4" d="M70.0847 224.335C69.8034 225.128 69.3188 225.833 68.6796 226.379C68.6546 226.402 68.6796 226.444 68.7122 226.421C69.359 225.87 69.8496 225.158 70.1346 224.356C70.1462 224.324 70.0963 224.302 70.0847 224.335V224.335Z" fill="#288B54"/>
<path opacity="0.4" d="M69.7927 222.5C70.3903 222.97 70.8768 223.566 71.2171 224.247C71.2324 224.278 71.2823 224.259 71.267 224.226C70.9224 223.537 70.4301 222.933 69.8253 222.457C69.8197 222.454 69.813 222.453 69.8066 222.454C69.8001 222.455 69.7943 222.459 69.7903 222.464C69.7863 222.469 69.7843 222.476 69.7847 222.482C69.7852 222.489 69.788 222.495 69.7927 222.5Z" fill="#288B54"/>
<path opacity="0.4" d="M73.0291 208.858C73.7528 206.585 74.5034 206.246 75.467 206.487C76.4307 206.727 77.1543 207.514 76.8971 209.11C76.2752 212.968 73.5897 216.834 72.9427 216.672C72.4724 216.557 72.0233 212.021 73.0291 208.858Z" fill="#84B884"/>
<path opacity="0.4" d="M72.7337 217.188C74.3078 213.934 74.1388 210.112 75.8319 206.904C75.8473 206.874 75.7993 206.852 75.782 206.883C74.087 210.091 74.2559 213.913 72.6838 217.167C72.6824 217.17 72.6817 217.174 72.6816 217.177C72.6816 217.181 72.6823 217.185 72.6836 217.188C72.685 217.191 72.6869 217.194 72.6894 217.197C72.6919 217.199 72.6949 217.201 72.6982 217.203C72.7015 217.204 72.705 217.205 72.7085 217.205C72.7121 217.205 72.7156 217.204 72.7189 217.203C72.7222 217.201 72.7252 217.199 72.7278 217.197C72.7303 217.194 72.7323 217.192 72.7337 217.188V217.188V217.188Z" fill="#288B54"/>
<path opacity="0.4" d="M74.3902 211.544C73.6731 211.253 73.0904 210.704 72.7566 210.004C72.7538 209.998 72.7485 209.992 72.7419 209.99C72.7352 209.987 72.7277 209.987 72.7211 209.99C72.7145 209.993 72.7093 209.998 72.7066 210.005C72.7039 210.011 72.7039 210.019 72.7067 210.026C73.0475 210.735 73.6403 211.292 74.3691 211.586C74.3724 211.588 74.3759 211.588 74.3795 211.588C74.383 211.588 74.3865 211.588 74.3898 211.586C74.3931 211.585 74.3961 211.583 74.3987 211.581C74.4012 211.578 74.4032 211.575 74.4046 211.572C74.406 211.568 74.4067 211.565 74.4068 211.561C74.4068 211.558 74.4061 211.554 74.4048 211.551C74.4034 211.548 74.4015 211.545 74.399 211.542C74.3965 211.54 74.3935 211.538 74.3902 211.536V211.536V211.544Z" fill="#288B54"/>
<path opacity="0.4" d="M74.7183 209.982C75.5453 209.788 76.3066 209.379 76.9259 208.796C76.9508 208.773 76.9259 208.729 76.8932 208.754C76.2818 209.33 75.5297 209.735 74.7126 209.928C74.678 209.928 74.6857 209.989 74.7126 209.982H74.7183Z" fill="#288B54"/>
<path opacity="0.4" d="M72.874 209.473C73.2772 210.127 73.8193 210.682 74.4615 211.101C74.4903 211.121 74.5249 211.078 74.4942 211.059C73.856 210.642 73.3172 210.09 72.9163 209.441C72.8971 209.412 72.8548 209.441 72.874 209.473V209.473Z" fill="#288B54"/>
<path opacity="0.4" d="M81.6023 214.384C83.4067 212.268 84.3684 212.242 85.2956 212.937C86.2228 213.632 86.6393 214.81 85.6526 216.401C83.2416 220.273 78.6058 223.217 77.9742 222.751C77.525 222.419 79.0876 217.334 81.6023 214.384Z" fill="#84B884"/>
<path opacity="0.4" d="M77.5211 223.213C80.6866 220.427 82.2222 216.228 85.4971 213.547C85.5037 213.542 85.508 213.535 85.5091 213.526C85.5102 213.518 85.5079 213.51 85.5029 213.503C85.4978 213.496 85.4903 213.492 85.482 213.491C85.4737 213.49 85.4653 213.492 85.4587 213.497C82.1839 216.178 80.6482 220.379 77.4828 223.163C77.452 223.19 77.4828 223.24 77.5211 223.213Z" fill="#288B54"/>
<path opacity="0.4" d="M81.848 217.891C81.2075 217.255 80.8281 216.401 80.7845 215.499C80.7845 215.458 80.7212 215.466 80.7212 215.499C80.7679 216.417 81.1563 217.285 81.8096 217.931C81.8384 217.96 81.8787 217.91 81.848 217.881V217.891Z" fill="#288B54"/>
<path opacity="0.4" d="M82.9132 216.361C83.8906 216.528 84.8947 216.432 85.8233 216.084C85.8309 216.081 85.8371 216.075 85.8403 216.067C85.8435 216.06 85.8436 216.051 85.8406 216.043C85.8375 216.036 85.8316 216.03 85.824 216.026C85.8165 216.023 85.8079 216.023 85.8003 216.026C84.8814 216.371 83.8879 216.465 82.9209 216.299C82.8806 216.299 82.8729 216.353 82.9209 216.363L82.9132 216.361Z" fill="#288B54"/>
<path opacity="0.4" d="M81.1528 214.974C81.2915 215.863 81.6252 216.71 82.1299 217.454C82.135 217.461 82.1425 217.465 82.1508 217.466C82.1591 217.467 82.1674 217.465 82.1741 217.46C82.1807 217.455 82.185 217.447 82.1861 217.439C82.1872 217.431 82.1849 217.422 82.1798 217.416C81.683 216.68 81.3552 215.844 81.22 214.966C81.22 214.957 81.2167 214.949 81.2107 214.943C81.2048 214.937 81.1967 214.934 81.1883 214.934C81.1799 214.934 81.1719 214.937 81.166 214.943C81.16 214.949 81.1567 214.957 81.1567 214.966V214.966L81.1528 214.974Z" fill="#288B54"/>
</g>
<path d="M94.5633 234.111C94.5633 234.032 94.9357 226.146 99.7558 216.116C102.643 210.145 106.444 204.663 111.022 199.869C116.827 193.757 123.989 188.533 132.31 184.343L132.243 184.207C123.902 188.407 116.725 193.636 110.907 199.769C106.319 204.574 102.509 210.069 99.6157 216.055C94.784 226.112 94.4135 234.025 94.4116 234.104L94.5633 234.111Z" fill="#288B54"/>
<path d="M135.983 178.268C138.914 176.615 140.014 176.992 140.782 178.168C141.549 179.344 141.54 180.862 139.741 182.263C135.389 185.654 128.895 187.061 128.381 186.27C128.007 185.694 131.896 180.568 135.983 178.268Z" fill="#B2EFB2"/>
<path d="M132.894 189.437C136.194 190.089 136.789 191.094 136.608 192.487C136.428 193.88 135.439 195.029 133.153 194.923C127.646 194.666 121.798 191.506 121.921 190.569C122.019 189.889 128.3 188.529 132.894 189.437Z" fill="#B2EFB2"/>
<path d="M128.249 186.36C132.821 184.561 136.09 180.518 140.743 178.874C140.789 178.857 140.809 178.932 140.763 178.949C136.111 180.593 132.842 184.636 128.268 186.435C128.222 186.452 128.205 186.379 128.249 186.36Z" fill="#288B54"/>
<path d="M134.741 182.396C134.272 181.386 134.194 180.238 134.52 179.174C134.523 179.165 134.53 179.158 134.539 179.154C134.548 179.15 134.558 179.149 134.567 179.152C134.576 179.155 134.584 179.161 134.589 179.17C134.593 179.178 134.595 179.188 134.593 179.197C134.273 180.242 134.349 181.368 134.808 182.359C134.829 182.403 134.762 182.44 134.741 182.396Z" fill="#288B54"/>
<path d="M136.695 180.997C137.727 181.582 138.893 181.89 140.079 181.889C140.089 181.889 140.099 181.894 140.106 181.901C140.113 181.908 140.118 181.918 140.118 181.928C140.118 181.938 140.113 181.948 140.106 181.955C140.099 181.962 140.089 181.966 140.079 181.966C138.879 181.967 137.7 181.655 136.656 181.062C136.648 181.056 136.643 181.048 136.64 181.038C136.638 181.029 136.64 181.018 136.645 181.01C136.651 181.002 136.659 180.995 136.668 180.993C136.678 180.99 136.688 180.992 136.697 180.997V180.997H136.695Z" fill="#288B54"/>
<path d="M135.303 178.77C135.099 179.826 135.126 180.914 135.382 181.959C135.384 181.969 135.383 181.98 135.378 181.988C135.372 181.997 135.364 182.004 135.354 182.006C135.349 182.007 135.344 182.008 135.339 182.007C135.334 182.006 135.329 182.005 135.325 182.002C135.316 181.997 135.309 181.988 135.307 181.978C135.049 180.92 135.023 179.818 135.23 178.749C135.23 178.701 135.313 178.724 135.303 178.772V178.77Z" fill="#288B54"/>
<path d="M117.777 180.104C117.516 176.742 118.32 175.897 119.706 175.697C121.092 175.497 122.463 176.142 122.969 178.368C124.206 183.756 122.747 190.249 121.818 190.384C121.146 190.48 118.142 184.784 117.777 180.104Z" fill="#B2EFB2"/>
<path d="M121.845 190.551C122.133 185.634 119.865 180.962 120.328 176.039C120.328 175.991 120.409 175.991 120.405 176.039C119.942 180.962 122.209 185.636 121.921 190.551C121.921 190.561 121.917 190.571 121.91 190.578C121.903 190.586 121.893 190.59 121.883 190.59C121.873 190.59 121.863 190.586 121.856 190.578C121.849 190.571 121.845 190.561 121.845 190.551Z" fill="#288B54"/>
<path d="M120.985 182.969C119.875 182.971 118.804 182.559 117.979 181.814C117.942 181.78 117.998 181.728 118.034 181.762C118.845 182.493 119.897 182.896 120.987 182.896C120.997 182.896 121.007 182.9 121.014 182.907C121.021 182.914 121.025 182.924 121.025 182.934C121.025 182.945 121.021 182.954 121.014 182.962C121.007 182.969 120.997 182.973 120.987 182.973L120.985 182.969Z" fill="#288B54"/>
<path d="M120.549 180.604C121.516 179.914 122.286 178.982 122.781 177.9C122.802 177.856 122.868 177.9 122.847 177.941C122.345 179.033 121.566 179.975 120.587 180.671C120.547 180.698 120.51 180.631 120.551 180.604H120.549Z" fill="#288B54"/>
<path d="M117.94 180.928C118.812 181.562 119.811 181.997 120.868 182.203C120.916 182.203 120.893 182.286 120.845 182.277C119.782 182.069 118.777 181.631 117.9 180.993C117.86 180.964 117.9 180.899 117.94 180.928V180.928Z" fill="#288B54"/>
<path d="M106.236 187.514C105.931 183.589 106.87 182.601 108.49 182.367C110.11 182.132 111.709 182.886 112.306 185.486C113.752 191.775 112.045 199.363 110.963 199.52C110.166 199.634 106.663 192.981 106.236 187.514Z" fill="#B2EFB2"/>
<path d="M110.988 199.717C111.335 193.977 108.665 188.517 109.218 182.767C109.218 182.709 109.312 182.711 109.306 182.767C108.755 188.515 111.418 193.975 111.076 199.717C111.076 199.729 111.071 199.74 111.063 199.748C111.055 199.757 111.043 199.761 111.032 199.761C111.02 199.761 111.009 199.757 111.001 199.748C110.992 199.74 110.988 199.729 110.988 199.717Z" fill="#288B54"/>
<path d="M109.986 190.863C108.689 190.865 107.438 190.385 106.475 189.516C106.432 189.475 106.498 189.416 106.54 189.454C107.489 190.309 108.72 190.78 109.995 190.776C110.007 190.776 110.018 190.781 110.026 190.789C110.035 190.798 110.039 190.809 110.039 190.821C110.039 190.832 110.035 190.844 110.026 190.852C110.018 190.86 110.007 190.865 109.995 190.865L109.986 190.863Z" fill="#288B54"/>
<path d="M109.475 188.101C110.615 187.332 111.488 186.177 112.082 184.944C112.107 184.892 112.181 184.944 112.156 184.99C111.558 186.231 110.669 187.405 109.517 188.178C109.469 188.211 109.427 188.132 109.475 188.1V188.101Z" fill="#288B54"/>
<path d="M106.428 188.477C107.446 189.217 108.613 189.725 109.847 189.966C109.903 189.978 109.878 190.062 109.822 190.051C108.58 189.808 107.406 189.297 106.382 188.552C106.336 188.519 106.382 188.442 106.428 188.477Z" fill="#288B54"/>
<path d="M124.129 199.484C127.911 200.55 128.51 201.776 128.172 203.381C127.834 204.986 126.575 206.231 123.935 205.896C117.549 205.086 111.034 200.864 111.266 199.784C111.425 198.999 118.864 197.999 124.129 199.484Z" fill="#B2EFB2"/>
<path d="M111.062 199.744C116.32 202.053 122.357 201.424 127.554 203.929C127.605 203.954 127.554 204.029 127.508 204.004C122.325 201.503 116.289 202.136 111.037 199.828C110.986 199.805 111.01 199.721 111.062 199.744Z" fill="#288B54"/>
<path d="M119.701 201.859C120.144 200.637 121.025 199.624 122.173 199.018C122.184 199.013 122.196 199.012 122.207 199.015C122.219 199.019 122.228 199.026 122.234 199.037C122.239 199.047 122.24 199.06 122.237 199.071C122.234 199.082 122.226 199.092 122.215 199.097C121.088 199.691 120.222 200.685 119.785 201.884C119.781 201.894 119.774 201.903 119.764 201.908C119.754 201.913 119.742 201.914 119.731 201.911C119.721 201.908 119.712 201.9 119.706 201.891C119.7 201.881 119.698 201.87 119.701 201.859Z" fill="#288B54"/>
<path d="M122.463 202.325C122.791 203.672 123.572 204.882 124.519 205.867C124.527 205.876 124.531 205.888 124.531 205.899C124.53 205.911 124.525 205.923 124.517 205.931C124.508 205.939 124.496 205.943 124.485 205.943C124.473 205.943 124.461 205.938 124.453 205.929C123.493 204.932 122.706 203.699 122.376 202.346C122.373 202.334 122.375 202.322 122.381 202.312C122.388 202.302 122.397 202.295 122.409 202.292C122.42 202.289 122.432 202.291 122.443 202.297C122.453 202.303 122.46 202.313 122.463 202.325V202.325V202.325Z" fill="#288B54"/>
<path d="M123.156 199.336C122.112 200.033 121.236 200.953 120.589 202.03C120.583 202.039 120.573 202.045 120.562 202.047C120.551 202.049 120.54 202.047 120.531 202.041C120.521 202.036 120.515 202.027 120.511 202.016C120.508 202.005 120.509 201.994 120.514 201.984C121.169 200.894 122.057 199.963 123.113 199.257C123.161 199.225 123.204 199.303 123.156 199.336Z" fill="#288B54"/>
<path d="M119.002 208.675C123.258 209.876 123.931 211.253 123.549 213.058C123.167 214.863 121.753 216.266 118.783 215.889C111.596 214.977 104.265 210.226 104.522 209.011C104.71 208.128 113.084 207.002 119.002 208.675Z" fill="#B2EFB2"/>
<path d="M103.599 208.561C109.742 211.271 116.796 210.738 122.854 213.676C122.912 213.705 122.854 213.79 122.802 213.761C116.752 210.828 109.697 211.363 103.57 208.657C103.512 208.632 103.539 208.534 103.599 208.561Z" fill="#288B54"/>
<path d="M114.021 211.346C114.519 209.971 115.512 208.832 116.804 208.152C116.816 208.145 116.83 208.144 116.842 208.148C116.855 208.151 116.866 208.16 116.872 208.172C116.879 208.184 116.88 208.197 116.876 208.21C116.872 208.223 116.864 208.234 116.852 208.24C115.583 208.908 114.607 210.026 114.117 211.377C114.115 211.383 114.112 211.389 114.107 211.394C114.103 211.399 114.098 211.404 114.092 211.407C114.087 211.41 114.08 211.412 114.074 211.412C114.067 211.413 114.061 211.412 114.054 211.411C114.048 211.409 114.042 211.406 114.037 211.401C114.032 211.397 114.028 211.392 114.025 211.386C114.021 211.38 114.019 211.374 114.019 211.368C114.018 211.361 114.019 211.354 114.021 211.348V211.348V211.346Z" fill="#288B54"/>
<path d="M117.128 211.869C117.497 213.374 118.376 214.756 119.432 215.855C119.441 215.864 119.446 215.877 119.445 215.891C119.445 215.904 119.439 215.917 119.43 215.926C119.42 215.935 119.407 215.94 119.394 215.94C119.38 215.939 119.368 215.934 119.359 215.924C118.282 214.802 117.393 213.422 117.021 211.892C117.017 211.879 117.019 211.865 117.026 211.854C117.033 211.842 117.044 211.834 117.057 211.831C117.07 211.827 117.084 211.829 117.095 211.836C117.107 211.843 117.115 211.854 117.119 211.867V211.867L117.128 211.869Z" fill="#288B54"/>
<path d="M117.908 208.507C116.737 209.293 115.754 210.329 115.028 211.54C115.021 211.55 115.01 211.556 114.998 211.558C114.986 211.56 114.974 211.558 114.963 211.552C114.953 211.545 114.945 211.535 114.942 211.524C114.938 211.512 114.939 211.499 114.944 211.488C115.681 210.262 116.679 209.215 117.868 208.421C117.921 208.384 117.969 208.473 117.916 208.509L117.908 208.507Z" fill="#288B54"/>
<path d="M112.124 216.919C116.539 216.815 117.591 217.935 117.754 219.773C117.917 221.61 116.975 223.367 114.024 223.879C106.887 225.12 98.4889 222.725 98.3795 221.499C98.3027 220.602 105.968 217.063 112.124 216.919Z" fill="#B2EFB2"/>
<path d="M97.3622 221.341C104.017 222.124 110.607 219.544 117.255 220.571C117.318 220.581 117.316 220.681 117.255 220.671C110.607 219.647 104.01 222.228 97.3622 221.441C97.2989 221.441 97.3008 221.333 97.3622 221.341Z" fill="#288B54"/>
<path d="M108.139 220.939C108.217 219.478 108.832 218.099 109.866 217.067C109.876 217.058 109.889 217.053 109.902 217.053C109.916 217.054 109.928 217.059 109.937 217.069C109.947 217.079 109.951 217.092 109.951 217.105C109.951 217.118 109.945 217.131 109.935 217.14C108.92 218.154 108.316 219.509 108.24 220.943C108.24 220.956 108.235 220.969 108.226 220.978C108.216 220.987 108.204 220.993 108.191 220.993C108.177 220.993 108.165 220.987 108.155 220.978C108.146 220.969 108.141 220.956 108.141 220.943V220.943L108.139 220.939Z" fill="#288B54"/>
<path d="M111.264 220.527C112.053 221.857 113.302 222.914 114.642 223.658C114.652 223.666 114.658 223.677 114.66 223.689C114.663 223.701 114.66 223.713 114.654 223.724C114.648 223.734 114.638 223.742 114.626 223.745C114.614 223.749 114.602 223.748 114.591 223.743C113.235 222.991 111.974 221.921 111.177 220.575C111.171 220.564 111.17 220.55 111.173 220.537C111.177 220.524 111.186 220.513 111.198 220.507C111.209 220.501 111.223 220.499 111.236 220.503C111.249 220.507 111.259 220.516 111.266 220.527V220.527H111.264Z" fill="#288B54"/>
<path d="M111.032 217.075C110.139 218.175 109.497 219.458 109.152 220.833C109.15 220.839 109.147 220.845 109.143 220.85C109.139 220.855 109.134 220.86 109.128 220.863C109.122 220.866 109.116 220.868 109.109 220.868C109.103 220.869 109.096 220.868 109.09 220.867C109.084 220.865 109.078 220.862 109.073 220.857C109.068 220.853 109.063 220.848 109.06 220.842C109.057 220.836 109.055 220.83 109.054 220.824C109.054 220.817 109.054 220.81 109.056 220.804C109.403 219.42 110.049 218.129 110.947 217.023C110.987 216.973 111.074 217.023 111.032 217.075V217.075Z" fill="#288B54"/>
<path d="M99.635 193.669C97.4044 189.843 95.9033 189.537 94.2601 190.363C92.6169 191.188 91.6168 192.914 92.7244 195.701C95.4119 202.436 101.85 208.356 102.958 207.801C103.764 207.397 102.741 198.994 99.635 193.669Z" fill="#B2EFB2"/>
<path d="M103.549 208.644C99.3857 203.381 98.1283 196.394 93.7593 191.263C93.7171 191.213 93.79 191.144 93.8322 191.194C98.1955 196.324 99.4528 203.318 103.622 208.575C103.663 208.625 103.59 208.694 103.549 208.644Z" fill="#288B54"/>
<path d="M98.2626 199.089C99.4452 198.27 100.281 197.039 100.606 195.635C100.62 195.572 100.716 195.601 100.702 195.664C100.369 197.095 99.5126 198.348 98.3029 199.178C98.2492 199.215 98.2012 199.126 98.255 199.089H98.2626Z" fill="#288B54"/>
<path d="M97.0222 196.394C95.4539 196.411 93.9009 195.903 92.5418 195.141C92.5323 195.133 92.5258 195.123 92.5237 195.111C92.5216 195.098 92.5239 195.086 92.5303 195.076C92.5367 195.065 92.5467 195.057 92.5583 195.054C92.57 195.05 92.5826 195.051 92.5937 195.056C93.9374 195.809 95.4731 196.311 97.0241 196.294C97.0373 196.294 97.05 196.299 97.0594 196.308C97.0688 196.318 97.074 196.33 97.074 196.344C97.074 196.357 97.0688 196.37 97.0594 196.379C97.05 196.388 97.0373 196.394 97.0241 196.394V196.394H97.0222Z" fill="#288B54"/>
<path d="M100.168 194.716C99.7 196.069 98.9404 197.303 97.9437 198.33C97.9389 198.334 97.9333 198.338 97.9271 198.34C97.9209 198.342 97.9144 198.344 97.9078 198.343C97.8945 198.343 97.8818 198.337 97.8727 198.328C97.8635 198.318 97.8585 198.305 97.8589 198.292C97.8593 198.278 97.8649 198.266 97.8746 198.256C98.8595 197.244 99.6099 196.027 100.073 194.691C100.076 194.678 100.085 194.667 100.097 194.661C100.108 194.654 100.122 194.653 100.135 194.657C100.148 194.661 100.158 194.669 100.165 194.681C100.171 194.693 100.172 194.707 100.168 194.719V194.719V194.716Z" fill="#288B54"/>
<path d="M86.3399 207.182C82.2109 204.076 80.4583 204.424 79.057 206.062C77.6557 207.699 77.362 210.007 79.8248 212.503C85.7641 218.539 95.3601 221.99 96.3008 220.889C96.9803 220.075 92.0872 211.5 86.3399 207.182Z" fill="#B2EFB2"/>
<path d="M97.3028 221.52C90.4421 217.747 85.9426 210.782 78.9284 207.243C78.8612 207.209 78.9284 207.111 78.9898 207.143C86.0059 210.682 90.5074 217.647 97.3642 221.42C97.4295 221.457 97.3642 221.557 97.3028 221.52Z" fill="#288B54"/>
<path d="M87.3034 213.64C88.2003 212.225 88.5423 210.528 88.2632 208.875C88.2497 208.802 88.363 208.773 88.3764 208.846C88.6616 210.531 88.312 212.261 87.3955 213.701C87.3862 213.712 87.3735 213.719 87.3597 213.721C87.3459 213.723 87.3317 213.72 87.3198 213.713C87.3079 213.705 87.299 213.694 87.2945 213.681C87.2901 213.667 87.2905 213.653 87.2957 213.64V213.64H87.3034Z" fill="#288B54"/>
<path d="M84.7641 211.29C83.0959 212.025 81.1725 212.185 79.3757 211.977C79.3009 211.977 79.3028 211.852 79.3757 211.86C81.1533 212.066 83.0537 211.914 84.7045 211.186C84.7737 211.156 84.8293 211.259 84.7602 211.288L84.7641 211.29Z" fill="#288B54"/>
<path d="M87.3877 208.069C87.4895 209.732 87.2275 211.398 86.6199 212.949C86.593 213.018 86.4798 212.986 86.5086 212.915C87.1143 211.374 87.3764 209.718 87.2764 208.065C87.2764 207.99 87.3897 207.994 87.3935 208.065L87.3877 208.069Z" fill="#288B54"/>
<path d="M100.109 277.6H81.2719C77.3463 277.6 74.0197 273.472 73.4764 267.924L69.8618 231.084H110.68L106.764 269.379C106.282 274.103 103.447 277.6 100.109 277.6Z" fill="#BED4F5"/>
<path d="M110.133 228.282H69.6872C68.6748 228.282 67.854 229.105 67.854 230.12V232.321C67.854 233.336 68.6748 234.159 69.6872 234.159H110.133C111.146 234.159 111.966 233.336 111.966 232.321V230.12C111.966 229.105 111.146 228.282 110.133 228.282Z" fill="#BED4F5"/>
<path d="M71.1787 234.159C71.1787 234.159 76.3904 236.69 89.9121 236.905C103.434 237.121 108.34 234.159 108.34 234.159H71.1787Z" fill="#9DBCED"/>
<g opacity="0.2">
<path opacity="0.2" d="M253.733 125.488C266.662 125.488 277.142 114.981 277.142 102.02C277.142 89.0596 266.662 78.5527 253.733 78.5527C240.804 78.5527 230.323 89.0596 230.323 102.02C230.323 114.981 240.804 125.488 253.733 125.488Z" fill="#ABC7F2"/>
</g>
<path d="M253.316 105.767C253.241 105.767 253.169 105.737 253.115 105.684C253.062 105.63 253.032 105.558 253.032 105.482V88.9137C253.032 88.8371 253.063 88.7637 253.117 88.7095C253.171 88.6554 253.244 88.625 253.32 88.625C253.397 88.625 253.47 88.6554 253.524 88.7095C253.578 88.7637 253.608 88.8371 253.608 88.9137V104.94L265.02 96.9652C265.082 96.9218 265.159 96.9049 265.233 96.918C265.307 96.9312 265.373 96.9735 265.417 97.0355C265.46 97.0975 265.477 97.1742 265.464 97.2487C265.45 97.3232 265.408 97.3895 265.346 97.4328L253.485 105.719C253.435 105.753 253.376 105.77 253.316 105.767V105.767Z" fill="#BED4F5"/>
<path d="M253.733 83.4636C254.106 83.4636 254.409 83.1604 254.409 82.7863C254.409 82.4122 254.106 82.1089 253.733 82.1089C253.36 82.1089 253.057 82.4122 253.057 82.7863C253.057 83.1604 253.36 83.4636 253.733 83.4636Z" fill="#BED4F5"/>
<path d="M253.733 121.93C254.106 121.93 254.409 121.627 254.409 121.253C254.409 120.878 254.106 120.575 253.733 120.575C253.36 120.575 253.057 120.878 253.057 121.253C253.057 121.627 253.36 121.93 253.733 121.93Z" fill="#BED4F5"/>
<path d="M272.917 102.698C273.291 102.698 273.593 102.395 273.593 102.021C273.593 101.647 273.291 101.343 272.917 101.343C272.544 101.343 272.242 101.647 272.242 102.021C272.242 102.395 272.544 102.698 272.917 102.698Z" fill="#BED4F5"/>
<path d="M234.548 102.698C234.921 102.698 235.224 102.395 235.224 102.021C235.224 101.647 234.921 101.343 234.548 101.343C234.175 101.343 233.873 101.647 233.873 102.021C233.873 102.395 234.175 102.698 234.548 102.698Z" fill="#BED4F5"/>
<path d="M262.909 119.68C263.24 119.507 263.368 119.098 263.196 118.766C263.023 118.434 262.615 118.306 262.284 118.479C261.953 118.651 261.825 119.06 261.997 119.392C262.17 119.724 262.578 119.853 262.909 119.68Z" fill="#BED4F5"/>
<path d="M245.181 85.5691C245.512 85.3963 245.64 84.9872 245.468 84.6554C245.295 84.3236 244.887 84.1948 244.556 84.3677C244.225 84.5405 244.097 84.9496 244.269 85.2814C244.442 85.6132 244.85 85.742 245.181 85.5691Z" fill="#BED4F5"/>
<path d="M262.909 119.68C263.24 119.507 263.368 119.098 263.196 118.766C263.023 118.434 262.615 118.306 262.284 118.479C261.953 118.651 261.825 119.06 261.997 119.392C262.17 119.724 262.578 119.853 262.909 119.68Z" fill="#BED4F5"/>
<path d="M245.181 85.5691C245.512 85.3963 245.64 84.9872 245.468 84.6554C245.295 84.3236 244.887 84.1948 244.556 84.3677C244.225 84.5405 244.097 84.9496 244.269 85.2814C244.442 85.6132 244.85 85.742 245.181 85.5691Z" fill="#BED4F5"/>
<path d="M270.787 112.203C270.978 111.882 270.873 111.466 270.552 111.275C270.232 111.083 269.817 111.189 269.626 111.51C269.435 111.831 269.54 112.247 269.861 112.439C270.181 112.63 270.596 112.525 270.787 112.203Z" fill="#BED4F5"/>
<path d="M237.824 92.5066C238.015 92.1852 237.91 91.7695 237.59 91.578C237.269 91.3864 236.854 91.4917 236.663 91.8131C236.472 92.1345 236.577 92.5503 236.898 92.7418C237.218 92.9333 237.633 92.828 237.824 92.5066Z" fill="#BED4F5"/>
<path d="M237.598 112.461C237.919 112.269 238.024 111.853 237.833 111.532C237.642 111.211 237.227 111.105 236.907 111.297C236.586 111.488 236.481 111.904 236.672 112.225C236.863 112.547 237.278 112.652 237.598 112.461Z" fill="#BED4F5"/>
<path d="M270.559 92.7687C270.879 92.5772 270.984 92.1614 270.793 91.8401C270.602 91.5187 270.188 91.4134 269.867 91.6049C269.547 91.7964 269.441 92.2122 269.633 92.5336C269.824 92.8549 270.238 92.9602 270.559 92.7687Z" fill="#BED4F5"/>
<path d="M245.465 119.384C245.637 119.052 245.509 118.643 245.178 118.47C244.847 118.298 244.439 118.426 244.266 118.758C244.094 119.09 244.222 119.499 244.553 119.672C244.884 119.845 245.292 119.716 245.465 119.384Z" fill="#BED4F5"/>
<path d="M263.195 85.2743C263.367 84.9425 263.239 84.5334 262.908 84.3605C262.577 84.1877 262.169 84.3165 261.996 84.6483C261.824 84.9801 261.952 85.3892 262.283 85.562C262.614 85.7349 263.022 85.606 263.195 85.2743Z" fill="#BED4F5"/>
<path d="M178.45 166.041C178.034 166.039 177.635 165.873 177.34 165.577C177.046 165.282 176.879 164.882 176.878 164.465V156.378C176.879 155.961 177.046 155.561 177.34 155.266C177.635 154.97 178.034 154.804 178.45 154.802C178.867 154.804 179.266 154.97 179.56 155.266C179.855 155.561 180.021 155.961 180.022 156.378V164.461C180.022 164.879 179.856 165.28 179.561 165.576C179.267 165.872 178.867 166.039 178.45 166.041V166.041Z" fill="#75ACF2"/>
<path d="M189.747 146.452H189.016C188.349 146.452 187.808 146.994 187.808 147.663V173.17C187.808 173.839 188.349 174.381 189.016 174.381H189.747C190.414 174.381 190.954 173.839 190.954 173.17V147.663C190.954 146.994 190.414 146.452 189.747 146.452Z" fill="#75ACF2"/>
<path d="M200.312 169.285C199.896 169.283 199.497 169.117 199.202 168.822C198.908 168.526 198.742 168.126 198.74 167.709V153.128C198.742 152.71 198.908 152.31 199.202 152.015C199.497 151.72 199.896 151.553 200.312 151.552V151.552C200.729 151.553 201.128 151.72 201.422 152.015C201.717 152.31 201.883 152.71 201.885 153.128V167.707C201.884 168.125 201.718 168.525 201.423 168.821C201.129 169.117 200.729 169.283 200.312 169.285Z" fill="#75ACF2"/>
<path d="M211.245 181.268C210.828 181.267 210.429 181.1 210.135 180.805C209.84 180.51 209.674 180.11 209.672 179.692V141.145C209.674 140.727 209.84 140.327 210.135 140.032C210.429 139.737 210.828 139.57 211.245 139.569C211.661 139.57 212.06 139.737 212.355 140.032C212.649 140.327 212.815 140.727 212.817 141.145V179.69C212.816 180.108 212.65 180.508 212.355 180.804C212.061 181.1 211.661 181.267 211.245 181.268Z" fill="#75ACF2"/>
<path d="M222.177 171.278C221.76 171.277 221.361 171.11 221.067 170.815C220.772 170.52 220.606 170.12 220.604 169.702V151.132C220.606 150.715 220.772 150.315 221.067 150.019C221.361 149.724 221.76 149.558 222.177 149.556V149.556C222.594 149.557 222.994 149.724 223.289 150.019C223.584 150.315 223.75 150.716 223.751 151.134V169.702C223.749 170.12 223.583 170.521 223.288 170.816C222.993 171.111 222.593 171.277 222.177 171.278V171.278Z" fill="#75ACF2"/>
<path d="M233.107 179.386C232.69 179.384 232.291 179.218 231.997 178.923C231.702 178.627 231.536 178.227 231.535 177.81V143.027C231.536 142.609 231.702 142.209 231.997 141.914C232.291 141.619 232.69 141.452 233.107 141.451V141.451C233.523 141.452 233.922 141.619 234.217 141.914C234.511 142.209 234.677 142.609 234.679 143.027V177.81C234.677 178.227 234.511 178.627 234.217 178.923C233.922 179.218 233.523 179.384 233.107 179.386V179.386Z" fill="#75ACF2"/>
<path d="M244.039 172.62C243.622 172.619 243.223 172.452 242.928 172.157C242.633 171.862 242.466 171.462 242.465 171.044V149.791C242.466 149.373 242.633 148.973 242.928 148.677C243.223 148.382 243.622 148.216 244.039 148.215C244.455 148.216 244.854 148.383 245.149 148.678C245.443 148.973 245.61 149.373 245.611 149.791V171.044C245.61 171.461 245.443 171.861 245.149 172.156C244.854 172.452 244.455 172.618 244.039 172.62V172.62Z" fill="#75ACF2"/>
<path d="M186.67 110.059C186.67 110.059 200.409 131.971 225.956 125.178C225.956 125.178 203.881 114.787 197.464 91.0016C191.047 67.2163 186.67 110.059 186.67 110.059Z" fill="#BA9EE7"/>
<path d="M124.618 160.418C145.177 160.418 161.843 145.264 161.843 126.57C161.843 107.876 145.177 92.7222 124.618 92.7222C104.06 92.7222 87.3936 107.876 87.3936 126.57C87.3936 145.264 104.06 160.418 124.618 160.418Z" fill="#9ED8D8"/>
<path d="M108.423 148.248C108.423 148.248 97.752 159.28 83.7466 152.179C83.7466 152.179 97.8422 148.87 104.496 135.845C111.149 122.821 108.423 148.248 108.423 148.248Z" fill="#9ED8D8"/>
<path d="M124.797 118.472H106.68C106.254 118.472 105.908 118.819 105.908 119.246V119.432C105.908 119.86 106.254 120.206 106.68 120.206H124.797C125.223 120.206 125.569 119.86 125.569 119.432V119.246C125.569 118.819 125.223 118.472 124.797 118.472Z" fill="white"/>
<path d="M117.201 124.434H99.0842C98.658 124.434 98.3125 124.78 98.3125 125.207V125.394C98.3125 125.821 98.658 126.167 99.0842 126.167H117.201C117.628 126.167 117.973 125.821 117.973 125.394V125.207C117.973 124.78 117.628 124.434 117.201 124.434Z" fill="white"/>
<path d="M147.896 124.434H121.275C120.848 124.434 120.503 124.78 120.503 125.207V125.394C120.503 125.821 120.848 126.167 121.275 126.167H147.896C148.322 126.167 148.667 125.821 148.667 125.394V125.207C148.667 124.78 148.322 124.434 147.896 124.434Z" fill="white"/>
<path d="M141.451 118.472H128.402C128.037 118.472 127.742 118.769 127.742 119.134V119.544C127.742 119.91 128.037 120.206 128.402 120.206H141.451C141.816 120.206 142.112 119.91 142.112 119.544V119.134C142.112 118.769 141.816 118.472 141.451 118.472Z" fill="white"/>
<path d="M124.797 130.397H106.68C106.254 130.397 105.908 130.744 105.908 131.171V131.358C105.908 131.785 106.254 132.131 106.68 132.131H124.797C125.223 132.131 125.569 131.785 125.569 131.358V131.171C125.569 130.744 125.223 130.397 124.797 130.397Z" fill="white"/>
<path d="M133.076 135.672H114.959C114.533 135.672 114.188 136.018 114.188 136.445V136.632C114.188 137.059 114.533 137.406 114.959 137.406H133.076C133.503 137.406 133.848 137.059 133.848 136.632V136.445C133.848 136.018 133.503 135.672 133.076 135.672Z" fill="white"/>
<path d="M133.076 113.7H114.959C114.533 113.7 114.188 114.046 114.188 114.473V114.66C114.188 115.087 114.533 115.434 114.959 115.434H133.076C133.503 115.434 133.848 115.087 133.848 114.66V114.473C133.848 114.046 133.503 113.7 133.076 113.7Z" fill="white"/>
<path d="M141.451 130.397H128.402C128.037 130.397 127.742 130.694 127.742 131.059V131.469C127.742 131.835 128.037 132.131 128.402 132.131H141.451C141.816 132.131 142.112 131.835 142.112 131.469V131.059C142.112 130.694 141.816 130.397 141.451 130.397Z" fill="white"/>
</svg>
