<svg width="192" height="187" viewBox="0 0 192 187" fill="none" xmlns="http://www.w3.org/2000/svg">
<g clip-path="url(#clip0_2_12)">
<path d="M140.056 79.8463C94.7595 103.888 80.0718 53.1948 58.9173 35.5273C32.3461 -4.74464 8.6198 8.15937 1.52722 81.7194C-5.56536 155.279 40.5544 178.935 58.9172 183.935C144.891 207.369 202.077 59.2887 140.056 79.8463Z" fill="#ECF2FF"/>
<path d="M91.5704 132.847L90.7482 131.456C78.1901 110.217 44.8185 65.1445 44.4814 64.6918L44 64.0427L55.3695 52.8891L91.3592 77.8347C114.019 48.6464 135.16 28.5985 148.949 16.8914C164.034 4.08486 173.853 -1.81083 173.952 -1.86732L174.176 -2H193.462L191.619 -0.37144C144.24 41.5184 92.8864 130.551 92.3749 131.446L91.5704 132.847Z" fill="#F99746"/>
</g>
<defs>
<clipPath id="clip0_2_12">
<rect width="192" height="187" fill="white"/>
</clipPath>
</defs>
</svg>
