<svg width="160" height="160" viewBox="0 0 160 160" fill="none" xmlns="http://www.w3.org/2000/svg">
<circle cx="80" cy="80" r="80" fill="#ECF2FF"/>
<g clip-path="url(#clip0_1118_5)">
<path d="M79.2445 78.0605C86.2593 78.0605 92.3336 75.5446 97.2967 70.5807C102.26 65.6176 104.776 59.545 104.776 52.5294C104.776 45.5163 102.26 39.4429 97.2959 34.4782C92.332 29.5159 86.2585 27 79.2445 27C72.2289 27 66.1563 29.5159 61.1932 34.479C56.2301 39.442 53.7134 45.5155 53.7134 52.5294C53.7134 59.545 56.2301 65.6185 61.194 70.5815C66.1579 75.5438 72.2314 78.0605 79.2445 78.0605Z" fill="white"/>
<path d="M123.917 108.509C123.774 106.443 123.485 104.19 123.058 101.811C122.628 99.4139 122.074 97.1479 121.411 95.0767C120.726 92.9361 119.794 90.8221 118.643 88.7963C117.448 86.6936 116.044 84.8627 114.468 83.3561C112.821 81.7799 110.804 80.5126 108.472 79.5883C106.147 78.6688 103.572 78.203 100.816 78.203C99.7343 78.203 98.6878 78.6469 96.6668 79.9627C95.423 80.7739 93.9681 81.712 92.3442 82.7495C90.9557 83.6343 89.0746 84.4632 86.7512 85.2137C84.4843 85.9472 82.1827 86.3192 79.911 86.3192C77.6394 86.3192 75.3386 85.9472 73.0693 85.2137C70.7483 84.464 68.8672 83.6351 67.4803 82.7503C65.8717 81.7225 64.416 80.7844 63.1536 79.9619C61.1351 78.6461 60.0878 78.2021 59.0057 78.2021C56.2496 78.2021 53.6747 78.6688 51.3512 79.5891C49.0205 80.5118 47.0028 81.7791 45.3538 83.3569C43.7792 84.8643 42.3745 86.6944 41.1808 88.7963C40.03 90.8221 39.0984 92.9353 38.4126 95.0776C37.7503 97.1487 37.1963 99.4139 36.7661 101.811C36.3399 104.187 36.0503 106.441 35.9072 108.511C35.7665 110.539 35.6953 112.644 35.6953 114.771C35.6953 120.304 37.4543 124.783 40.9229 128.087C44.3486 131.347 48.8814 133.001 54.3936 133.001H105.433C110.946 133.001 115.477 131.348 118.903 128.087C122.373 124.786 124.132 120.305 124.132 114.77C124.131 112.634 124.059 110.527 123.917 108.509Z" fill="white"/>
</g>
<path d="M29.3985 58.662V62.722C29.3985 64.01 29.2445 64.71 29.0625 65.172C28.7825 65.872 28.2505 66.46 27.5785 66.432V70.1H29.2585V68H34.9985V70.1H36.6785V66.432H35.6985V58.662H29.3985ZM31.1625 60.23H33.8785V66.432H30.1125C30.3785 66.18 30.6445 65.844 30.8405 65.326C31.0085 64.878 31.1625 64.164 31.1625 62.722V60.23ZM40.7934 61.742C39.6454 61.742 38.8614 62.12 38.3434 62.596C37.7414 63.142 37.3214 63.982 37.3214 64.976C37.3214 65.956 37.7414 66.796 38.3434 67.342C38.8614 67.818 39.6454 68.196 40.7934 68.196C41.9414 68.196 42.7254 67.818 43.2434 67.342C43.8454 66.796 44.2654 65.956 44.2654 64.976C44.2654 63.982 43.8454 63.142 43.2434 62.596C42.7254 62.12 41.9414 61.742 40.7934 61.742ZM40.7934 66.684C39.7994 66.684 39.0854 65.9 39.0854 64.976C39.0854 64.024 39.8134 63.254 40.7934 63.254C41.7734 63.254 42.5014 64.024 42.5014 64.976C42.5014 65.9 41.7874 66.684 40.7934 66.684ZM50.4304 57.92C50.2904 58.354 49.9404 58.578 49.0444 58.76C48.2324 58.928 47.0984 59.166 46.3144 60.244C45.8664 60.86 45.3904 62.008 45.3904 64.332C45.3904 65.2 45.4744 66.488 46.4824 67.398C47.2664 68.112 48.2464 68.196 48.9044 68.196C49.8704 68.196 50.6404 67.958 51.3124 67.342C51.8024 66.894 52.3344 66.124 52.3344 64.948C52.3344 63.66 51.7324 62.918 51.3964 62.596C50.8084 62.022 50.0384 61.742 49.1284 61.742C48.3724 61.742 47.4624 61.98 47.0004 62.568H46.9724C47.0144 61.924 47.2944 61.35 47.6584 61.014C48.1484 60.552 48.8624 60.44 49.3804 60.286L50.0104 60.104C50.3884 59.992 51.7184 59.586 51.9984 57.92H50.4304ZM48.8624 66.684C47.8544 66.684 47.1544 65.928 47.1544 64.976C47.1544 64.01 47.8404 63.254 48.8624 63.254C49.8844 63.254 50.5704 64.01 50.5704 64.976C50.5704 65.928 49.8704 66.684 48.8624 66.684ZM58.3008 62.722C57.7268 61.826 56.8168 61.742 56.3548 61.742C54.5628 61.742 53.3448 63.17 53.3448 64.962C53.3448 66.74 54.5768 68.196 56.4388 68.196C56.8728 68.196 57.6848 68.098 58.3008 67.216V68H60.0088V61.938H58.3008V62.722ZM56.7888 63.254C57.7688 63.254 58.4688 63.996 58.4688 64.962C58.4688 65.928 57.7688 66.684 56.7888 66.684C55.8088 66.684 55.1088 65.928 55.1088 64.962C55.1088 63.996 55.8088 63.254 56.7888 63.254ZM61.6372 61.938V68H64.7592C65.0252 68 65.6272 67.972 66.1172 67.608C66.4112 67.384 66.7612 66.978 66.7612 66.264C66.7612 65.732 66.5652 65.368 66.2992 65.13C66.0752 64.934 65.7812 64.794 65.5012 64.738C66.0472 64.5 66.3412 64.01 66.3412 63.492C66.3412 62.988 66.1032 62.568 65.7532 62.302C65.2772 61.938 64.7172 61.938 64.3112 61.938H61.6372ZM63.3452 64.346V63.282H64.1012C64.2692 63.282 64.4652 63.282 64.6052 63.38C64.7032 63.45 64.8012 63.59 64.8012 63.814C64.8012 63.996 64.7312 64.136 64.5772 64.234C64.3952 64.346 64.1572 64.346 64.1292 64.346H63.3452ZM63.3452 66.656V65.438H64.1852C64.3392 65.438 64.5912 65.452 64.7732 65.578C64.8852 65.648 64.9972 65.788 64.9972 66.012C64.9972 66.25 64.8852 66.418 64.7732 66.502C64.5912 66.642 64.3252 66.656 64.1432 66.656H63.3452ZM68.022 61.938V68H71.144C71.55 68 72.054 67.944 72.502 67.552C72.796 67.3 73.146 66.81 73.146 66.012C73.146 65.41 72.95 64.99 72.684 64.71C72.264 64.248 71.592 64.094 71.06 64.094H69.73V61.938H68.022ZM69.73 66.656V65.438H70.57C70.724 65.438 70.976 65.452 71.158 65.578C71.27 65.648 71.382 65.788 71.382 66.012C71.382 66.25 71.27 66.418 71.158 66.502C70.976 66.642 70.71 66.656 70.528 66.656H69.73ZM78.3366 63.394V61.938H73.2686V63.394H74.9486V68H76.6566V63.394H78.3366ZM83.6149 66.054C83.3349 66.544 82.8449 66.852 82.2009 66.852C81.5429 66.852 81.1649 66.53 80.9829 66.278C80.7869 66.012 80.6889 65.62 80.6889 65.256H85.2249V65.116C85.2249 64.458 85.1409 63.506 84.4969 62.736C84.0769 62.232 83.3629 61.742 82.1309 61.742C81.4029 61.742 80.5629 61.896 79.8489 62.596C79.4149 63.03 78.9249 63.772 78.9249 64.976C78.9249 65.928 79.2049 66.712 79.8769 67.342C80.4789 67.916 81.2209 68.196 82.2009 68.196C84.3149 68.196 85.0009 66.754 85.1829 66.306L83.6149 66.054ZM80.7449 64.164C80.8849 63.352 81.5429 62.946 82.1729 62.946C82.8029 62.946 83.4749 63.338 83.6149 64.164H80.7449ZM94.4629 62.722C93.8889 61.826 92.9789 61.742 92.5169 61.742C90.7249 61.742 89.5069 63.17 89.5069 64.962C89.5069 66.74 90.7389 68.196 92.6009 68.196C93.0349 68.196 93.8469 68.098 94.4629 67.216V68H96.1709V61.938H94.4629V62.722ZM92.9509 63.254C93.9309 63.254 94.6309 63.996 94.6309 64.962C94.6309 65.928 93.9309 66.684 92.9509 66.684C91.9709 66.684 91.2709 65.928 91.2709 64.962C91.2709 63.996 91.9709 63.254 92.9509 63.254ZM97.7993 61.938V68H100.921C101.187 68 101.789 67.972 102.279 67.608C102.573 67.384 102.923 66.978 102.923 66.264C102.923 65.732 102.727 65.368 102.461 65.13C102.237 64.934 101.943 64.794 101.663 64.738C102.209 64.5 102.503 64.01 102.503 63.492C102.503 62.988 102.265 62.568 101.915 62.302C101.439 61.938 100.879 61.938 100.473 61.938H97.7993ZM99.5073 64.346V63.282H100.263C100.431 63.282 100.627 63.282 100.767 63.38C100.865 63.45 100.963 63.59 100.963 63.814C100.963 63.996 100.893 64.136 100.739 64.234C100.557 64.346 100.319 64.346 100.291 64.346H99.5073ZM99.5073 66.656V65.438H100.347C100.501 65.438 100.753 65.452 100.935 65.578C101.047 65.648 101.159 65.788 101.159 66.012C101.159 66.25 101.047 66.418 100.935 66.502C100.753 66.642 100.487 66.656 100.305 66.656H99.5073ZM108.832 62.722C108.258 61.826 107.348 61.742 106.886 61.742C105.094 61.742 103.876 63.17 103.876 64.962C103.876 66.74 105.108 68.196 106.97 68.196C107.404 68.196 108.216 68.098 108.832 67.216V68H110.54V61.938H108.832V62.722ZM107.32 63.254C108.3 63.254 109 63.996 109 64.962C109 65.928 108.3 66.684 107.32 66.684C106.34 66.684 105.64 65.928 105.64 64.962C105.64 63.996 106.34 63.254 107.32 63.254ZM116.508 63.394V61.938H111.44V63.394H113.12V68H114.828V63.394H116.508ZM122.053 62.722C121.479 61.826 120.569 61.742 120.107 61.742C118.315 61.742 117.097 63.17 117.097 64.962C117.097 66.74 118.329 68.196 120.191 68.196C120.625 68.196 121.437 68.098 122.053 67.216V68H123.761V61.938H122.053V62.722ZM120.541 63.254C121.521 63.254 122.221 63.996 122.221 64.962C122.221 65.928 121.521 66.684 120.541 66.684C119.561 66.684 118.861 65.928 118.861 64.962C118.861 63.996 119.561 63.254 120.541 63.254ZM127.097 67.216C127.769 68.126 128.623 68.196 129.043 68.196C129.939 68.196 130.639 67.846 131.101 67.412C131.451 67.076 132.053 66.334 132.053 64.962C132.053 63.758 131.591 63.002 131.143 62.554C130.457 61.868 129.603 61.742 129.071 61.742C127.951 61.742 127.363 62.344 127.097 62.722V61.938H125.389V71.206H127.097V67.216ZM128.609 63.254C129.015 63.254 129.463 63.408 129.771 63.688C130.107 64.01 130.289 64.514 130.289 64.962C130.289 65.41 130.121 65.914 129.757 66.25C129.533 66.46 129.169 66.684 128.609 66.684C128.077 66.684 127.713 66.474 127.489 66.278C127.153 65.984 126.929 65.522 126.929 64.962C126.929 64.402 127.125 63.982 127.503 63.66C127.811 63.38 128.161 63.254 128.609 63.254ZM43.8638 79.938V86H45.5718L48.3718 82.262V86H50.0798V79.938H48.3718L45.5718 83.676V79.938H43.8638ZM57.0737 79.938H52.1737V83.508C52.1737 83.746 52.1457 84.054 51.9637 84.278C51.8517 84.418 51.6417 84.572 51.2637 84.572C51.1797 84.572 51.0817 84.558 50.9977 84.544V86C51.1657 86.042 51.3337 86.056 51.5017 86.056C52.4957 86.056 53.0137 85.552 53.1397 85.412C53.6437 84.866 53.7137 84.11 53.7137 83.62V81.394H55.3657V86H57.0737V79.938ZM58.6977 79.938V86H60.4057L63.2057 82.262V86H64.9137V79.938H63.2057L60.4057 83.676V79.938H58.6977ZM75.1753 79.938H70.2753V83.508C70.2753 83.746 70.2473 84.054 70.0653 84.278C69.9533 84.418 69.7433 84.572 69.3653 84.572C69.2813 84.572 69.1833 84.558 69.0993 84.544V86C69.2673 86.042 69.4353 86.056 69.6033 86.056C70.5973 86.056 71.1153 85.552 71.2413 85.412C71.7453 84.866 71.8153 84.11 71.8153 83.62V81.394H73.4673V86H75.1753V79.938ZM79.9633 79.742C78.8153 79.742 78.0313 80.12 77.5133 80.596C76.9113 81.142 76.4913 81.982 76.4913 82.976C76.4913 83.956 76.9113 84.796 77.5133 85.342C78.0313 85.818 78.8153 86.196 79.9633 86.196C81.1113 86.196 81.8953 85.818 82.4133 85.342C83.0153 84.796 83.4353 83.956 83.4353 82.976C83.4353 81.982 83.0153 81.142 82.4133 80.596C81.8953 80.12 81.1113 79.742 79.9633 79.742ZM79.9633 84.684C78.9693 84.684 78.2553 83.9 78.2553 82.976C78.2553 82.024 78.9833 81.254 79.9633 81.254C80.9433 81.254 81.6713 82.024 81.6713 82.976C81.6713 83.9 80.9573 84.684 79.9633 84.684ZM84.7563 86H86.4643V81.394H88.6203V79.938H84.7563V86ZM92.5278 79.742C91.3798 79.742 90.5958 80.12 90.0778 80.596C89.4758 81.142 89.0558 81.982 89.0558 82.976C89.0558 83.956 89.4758 84.796 90.0778 85.342C90.5958 85.818 91.3798 86.196 92.5278 86.196C93.6758 86.196 94.4598 85.818 94.9778 85.342C95.5798 84.796 95.9998 83.956 95.9998 82.976C95.9998 81.982 95.5798 81.142 94.9778 80.596C94.4598 80.12 93.6758 79.742 92.5278 79.742ZM92.5278 84.684C91.5338 84.684 90.8198 83.9 90.8198 82.976C90.8198 82.024 91.5478 81.254 92.5278 81.254C93.5078 81.254 94.2358 82.024 94.2358 82.976C94.2358 83.9 93.5218 84.684 92.5278 84.684ZM101.661 81.394V79.938H96.5928V81.394H98.2728V86H99.9808V81.394H101.661ZM102.557 79.938V86H104.265L107.065 82.262V86H108.773V79.938H107.065L104.265 83.676V79.938H102.557ZM110.391 79.938V86H112.099V81.394H114.423V86H116.131V79.938H110.391ZM28.0933 97.938V104H31.2153C31.4813 104 32.0833 103.972 32.5733 103.608C32.8673 103.384 33.2173 102.978 33.2173 102.264C33.2173 101.732 33.0213 101.368 32.7553 101.13C32.5313 100.934 32.2373 100.794 31.9573 100.738C32.5033 100.5 32.7973 100.01 32.7973 99.492C32.7973 98.988 32.5593 98.568 32.2093 98.302C31.7333 97.938 31.1733 97.938 30.7673 97.938H28.0933ZM29.8013 100.346V99.282H30.5573C30.7253 99.282 30.9213 99.282 31.0613 99.38C31.1593 99.45 31.2573 99.59 31.2573 99.814C31.2573 99.996 31.1873 100.136 31.0333 100.234C30.8513 100.346 30.6133 100.346 30.5853 100.346H29.8013ZM29.8013 102.656V101.438H30.6413C30.7953 101.438 31.0473 101.452 31.2293 101.578C31.3413 101.648 31.4533 101.788 31.4533 102.012C31.4533 102.25 31.3413 102.418 31.2293 102.502C31.0473 102.642 30.7812 102.656 30.5993 102.656H29.8013ZM39.126 98.722C38.552 97.826 37.642 97.742 37.18 97.742C35.388 97.742 34.17 99.17 34.17 100.962C34.17 102.74 35.402 104.196 37.264 104.196C37.698 104.196 38.51 104.098 39.126 103.216V104H40.834V97.938H39.126V98.722ZM37.614 99.254C38.594 99.254 39.294 99.996 39.294 100.962C39.294 101.928 38.594 102.684 37.614 102.684C36.634 102.684 35.934 101.928 35.934 100.962C35.934 99.996 36.634 99.254 37.614 99.254ZM42.4624 104H51.5064V97.938H49.7984V102.544H47.8384V97.938H46.1304V102.544H44.1704V97.938H42.4624V104ZM57.5085 102.054C57.2285 102.544 56.7385 102.852 56.0945 102.852C55.4365 102.852 55.0585 102.53 54.8765 102.278C54.6805 102.012 54.5825 101.62 54.5825 101.256H59.1185V101.116C59.1185 100.458 59.0345 99.506 58.3905 98.736C57.9705 98.232 57.2565 97.742 56.0245 97.742C55.2965 97.742 54.4565 97.896 53.7425 98.596C53.3085 99.03 52.8185 99.772 52.8185 100.976C52.8185 101.928 53.0985 102.712 53.7705 103.342C54.3725 103.916 55.1145 104.196 56.0945 104.196C58.2085 104.196 58.8945 102.754 59.0765 102.306L57.5085 102.054ZM54.6385 100.164C54.7785 99.352 55.4365 98.946 56.0665 98.946C56.6965 98.946 57.3685 99.338 57.5085 100.164H54.6385ZM60.4409 97.938V104H62.1489L64.9489 100.262V104H66.6569V97.938H64.9489L62.1489 101.676V97.938H60.4409ZM64.7249 94.9C64.5849 95.502 64.0529 95.782 63.5489 95.782C62.9609 95.782 62.4849 95.404 62.3729 94.9L61.2529 95.432C61.6589 96.594 62.8069 96.874 63.5489 96.874C64.2909 96.874 65.4389 96.594 65.8449 95.432L64.7249 94.9ZM71.5425 97.938V104H73.2505V101.746L73.5025 101.494L75.6025 104H77.7865L74.9025 100.64L77.6465 97.938H75.5185L73.2505 100.29V97.938H71.5425ZM81.5698 97.742C80.4218 97.742 79.6378 98.12 79.1198 98.596C78.5177 99.142 78.0978 99.982 78.0978 100.976C78.0978 101.956 78.5177 102.796 79.1198 103.342C79.6378 103.818 80.4218 104.196 81.5698 104.196C82.7178 104.196 83.5018 103.818 84.0198 103.342C84.6218 102.796 85.0418 101.956 85.0418 100.976C85.0418 99.982 84.6218 99.142 84.0198 98.596C83.5018 98.12 82.7178 97.742 81.5698 97.742ZM81.5698 102.684C80.5758 102.684 79.8618 101.9 79.8618 100.976C79.8618 100.024 80.5898 99.254 81.5698 99.254C82.5498 99.254 83.2778 100.024 83.2778 100.976C83.2778 101.9 82.5638 102.684 81.5698 102.684ZM86.0469 104H87.7549L88.2589 100.71L89.7709 104H90.3869L91.8989 100.71L92.4029 104H94.1109L93.0049 97.938H91.7449L90.0789 101.424L88.4129 97.938H87.1529L86.0469 104ZM95.0854 97.938V104H96.7934V99.394H99.1174V104H100.825V97.938H95.0854ZM107.103 98.722C106.529 97.826 105.619 97.742 105.157 97.742C103.365 97.742 102.147 99.17 102.147 100.962C102.147 102.74 103.379 104.196 105.241 104.196C105.675 104.196 106.487 104.098 107.103 103.216V104H108.811V97.938H107.103V98.722ZM105.591 99.254C106.571 99.254 107.271 99.996 107.271 100.962C107.271 101.928 106.571 102.684 105.591 102.684C104.611 102.684 103.911 101.928 103.911 100.962C103.911 99.996 104.611 99.254 105.591 99.254ZM110.439 104H112.147V101.536H114.527V104H116.235V97.938H114.527V100.08H112.147V97.938H110.439V104ZM117.863 97.938V104H119.571L122.371 100.262V104H124.079V97.938H122.371L119.571 101.676V97.938H117.863ZM125.697 97.938V104H127.405L130.205 100.262V104H131.913V97.938H130.205L127.405 101.676V97.938H125.697Z" fill="#A6A7BD"/>
<defs>
<clipPath id="clip0_1118_5">
<rect width="106" height="106" fill="white" transform="translate(27 27)"/>
</clipPath>
</defs>
</svg>
