<svg width="32" height="33" viewBox="0 0 32 33" fill="none" xmlns="http://www.w3.org/2000/svg">
<path d="M16 32.2988C24.8366 32.2988 32 25.1354 32 16.2988C32 7.46227 24.8366 0.298828 16 0.298828C7.16344 0.298828 0 7.46227 0 16.2988C0 25.1354 7.16344 32.2988 16 32.2988Z" fill="#7553FB"/>
<g clip-path="url(#clip0_404_20)">
<path d="M24.3666 17.7185C24.9036 13.1982 24.1086 10.3445 22.6746 9.05373L22.6753 9.05298C20.3608 6.84872 12.5443 6.52247 9.7753 9.15198C8.5318 10.4382 8.0938 12.326 8.0458 14.663C7.9978 17.0007 7.9408 21.38 12.0216 22.568H12.0253L12.0216 24.3822C12.0216 24.3822 11.9938 25.1172 12.4633 25.265C13.0003 25.439 13.2433 25.0977 14.9136 23.1027C17.7066 23.345 19.8516 22.79 20.0953 22.709C20.6593 22.52 23.8506 22.0977 24.3666 17.7185ZM15.1888 21.8262C15.1888 21.8262 13.4211 24.0305 12.8713 24.6027C12.6913 24.7887 12.4941 24.7715 12.4971 24.4025C12.4971 24.1602 12.5106 21.3905 12.5106 21.3905C9.0508 20.399 9.2548 16.67 9.2923 14.7192C9.3298 12.7677 9.6868 11.1695 10.7398 10.0932C13.1691 7.81547 20.0218 8.32473 21.7678 9.96573C23.9023 11.858 23.1426 17.204 23.1471 17.3862C22.7083 21.0417 20.1223 21.2735 19.6468 21.4317C19.4436 21.4992 17.5573 21.9845 15.1888 21.8262Z" fill="white"/>
<path d="M16.1658 10.5215C15.877 10.5215 15.877 10.9715 16.1658 10.9752C18.406 10.9925 20.251 12.554 20.2713 15.4182C20.2713 15.7205 20.7138 15.7167 20.71 15.4145H20.7093C20.6853 12.3282 18.6708 10.5387 16.1658 10.5215Z" fill="white"/>
<path d="M19.1137 14.9436C19.1069 15.2421 19.5487 15.2564 19.5524 14.9541C19.5892 13.2524 18.5399 11.8506 16.5682 11.7029C16.2794 11.6819 16.2494 12.1356 16.5374 12.1566C18.2474 12.2864 19.1482 13.4534 19.1137 14.9436Z" fill="white"/>
<path d="M18.6407 16.8794C18.2702 16.6649 17.8929 16.7984 17.7369 17.0092L17.4107 17.4314C17.2449 17.6459 16.9352 17.6174 16.9352 17.6174C14.6747 17.0197 14.0702 14.6542 14.0702 14.6542C14.0702 14.6542 14.0424 14.3339 14.2494 14.1622L14.6574 13.8247C14.8614 13.6627 14.9904 13.2727 14.7827 12.8894C14.2277 11.8867 13.8549 11.5409 13.6652 11.2754C13.4657 11.0257 13.1657 10.9694 12.8537 11.1382H12.8469C12.1982 11.5177 11.4879 12.2279 11.7152 12.9592C12.1029 13.7302 12.8154 16.1879 15.0864 18.0449C16.1537 18.9232 17.8427 19.8232 18.5597 20.0309L18.5664 20.0414C19.2729 20.2769 19.9599 19.5389 20.3267 18.8707V18.8654C20.4894 18.5422 20.4354 18.2362 20.1977 18.0359C19.7762 17.6249 19.1402 17.1712 18.6407 16.8794Z" fill="white"/>
<path d="M16.876 13.3768C17.5968 13.4188 17.9463 13.7953 17.9838 14.5686C17.9973 14.8708 18.436 14.8498 18.4225 14.5476C18.3745 13.5381 17.848 12.9756 16.9 12.9231C16.6113 12.9058 16.5843 13.3596 16.876 13.3768Z" fill="white"/>
</g>
<defs>
<clipPath id="clip0_404_20">
<rect width="18" height="18" fill="white" transform="translate(7 7.29883)"/>
</clipPath>
</defs>
</svg>
