<svg width="32" height="33" viewBox="0 0 32 33" fill="none" xmlns="http://www.w3.org/2000/svg">
<path d="M16 32.2988C24.8366 32.2988 32 25.1354 32 16.2988C32 7.46227 24.8366 0.298828 16 0.298828C7.16344 0.298828 0 7.46227 0 16.2988C0 25.1354 7.16344 32.2988 16 32.2988Z" fill="#2AA81A"/>
<path d="M21.644 10.6547C20.3126 9.30821 18.5437 8.48211 16.6566 8.32553C14.7695 8.16895 12.8886 8.69222 11.3535 9.80085C9.81843 10.9095 8.73027 12.5304 8.28552 14.371C7.84076 16.2116 8.06873 18.1506 8.92825 19.8378L8.08614 23.9263C8.07712 23.9671 8.07678 24.0094 8.08512 24.0504C8.09346 24.0913 8.1103 24.1301 8.13456 24.1642C8.16931 24.2157 8.21897 24.2555 8.27691 24.278C8.33485 24.3006 8.3983 24.3049 8.45877 24.2905L12.4588 23.341C14.1414 24.178 16.0664 24.3908 17.8913 23.9414C19.7161 23.4921 21.3222 22.4098 22.4238 20.8873C23.5255 19.3647 24.0511 17.5006 23.9071 15.6268C23.7632 13.753 22.959 11.9911 21.6377 10.6547H21.644ZM20.3935 20.6273C19.4727 21.5465 18.287 22.1539 17.0031 22.3643C15.7191 22.5746 14.4016 22.3773 13.2356 21.8L12.6756 21.5221L10.2188 22.1031V22.0715L10.7367 19.5936L10.463 19.0547C9.86682 17.8856 9.65632 16.5577 9.8617 15.2615C10.0671 13.9653 10.6778 12.7675 11.6061 11.84C12.7718 10.6755 14.3521 10.0214 15.9998 10.0214C17.6475 10.0214 19.2278 10.6755 20.3935 11.84L20.4209 11.8778C21.5714 13.046 22.2137 14.6216 22.2078 16.2612C22.2019 17.9008 21.5482 19.4717 20.3893 20.6315L20.3935 20.6273Z" fill="white"/>
<path d="M20.176 18.8252C19.875 19.2989 19.3971 19.8779 18.8013 20.0231C17.7486 20.2758 16.1465 20.0231 14.1402 18.1684L14.115 18.1452C12.3697 16.5157 11.9065 15.1579 12.0097 14.0821C12.0707 13.4694 12.5802 12.9179 13.0097 12.5558C13.078 12.4982 13.1588 12.4574 13.2456 12.4366C13.3325 12.4158 13.423 12.4157 13.51 12.4361C13.5969 12.4566 13.6779 12.4971 13.7464 12.5544C13.8148 12.6117 13.869 12.6843 13.9044 12.7663L14.5507 14.2273C14.5929 14.3214 14.6088 14.4251 14.5965 14.5275C14.5843 14.6298 14.5444 14.7269 14.4813 14.8084L14.1528 15.2294C14.0846 15.3168 14.0439 15.4226 14.036 15.5332C14.0282 15.6438 14.0534 15.7543 14.1086 15.8505C14.4206 16.3103 14.7939 16.7253 15.2181 17.0842C15.6746 17.5234 16.1922 17.8943 16.755 18.1852C16.8577 18.2266 16.9704 18.2365 17.0787 18.2136C17.1871 18.1908 17.2862 18.1362 17.3634 18.0568L17.7402 17.6736C17.8119 17.5965 17.9036 17.5408 18.005 17.5125C18.1064 17.4843 18.2137 17.4847 18.315 17.5136L19.8518 17.9536C19.9389 17.9784 20.0189 18.0234 20.0854 18.0848C20.1519 18.1463 20.203 18.2225 20.2346 18.3074C20.2661 18.3922 20.2773 18.4833 20.2671 18.5733C20.2569 18.6632 20.2257 18.7496 20.176 18.8252Z" fill="white"/>
</svg>
