<svg width="170" height="184" viewBox="0 0 170 184" fill="none" xmlns="http://www.w3.org/2000/svg">
<path d="M34.2116 165.008C70.7179 165.008 95.7874 183.918 113.378 183.918C130.969 183.918 167.913 173.806 167.913 92.8814C167.913 11.9572 118.213 0.0769653 98.8643 0.0769653C8.26073 0.0769653 -30.4412 165.008 34.2116 165.008Z" fill="white"/>
<path d="M6.26562 21.343L9.99758 17.6111L17.4615 25.075L13.7295 28.807L6.26562 21.343Z" fill="#A9ADEC"/>
<path d="M5.33398 46.5381L12.7979 39.0741L16.5298 42.8061L9.06594 50.27L5.33398 46.5381Z" fill="#A9ADEC"/>
<path d="M26.7939 25.0822L34.2578 17.6183L37.9898 21.3502L30.5259 28.8141L26.7939 25.0822Z" fill="#A9ADEC"/>
<path d="M153.611 168.528C149.246 168.528 145.694 164.976 145.694 160.611C145.694 156.246 149.246 152.694 153.611 152.694C157.976 152.694 161.528 156.246 161.528 160.611C161.528 164.976 157.976 168.528 153.611 168.528ZM153.611 157.972C152.16 157.972 150.972 159.154 150.972 160.611C150.972 162.068 152.16 163.25 153.611 163.25C155.062 163.25 156.25 162.068 156.25 160.611C156.25 159.154 155.062 157.972 153.611 157.972Z" fill="#A9ADEC"/>
<path d="M85.7388 97.8847C82.8677 100.756 68.0371 105.194 68.0371 105.194C68.0371 105.194 72.481 90.3586 75.3468 87.4928C78.2179 84.6217 82.8677 84.6217 85.7388 87.4928C88.6099 90.3639 88.6099 95.0136 85.7388 97.8847Z" fill="#F3F3F1"/>
<path d="M130.479 59.4044C127.703 63.7797 122.172 69.8544 122.172 69.8544C122.003 79.3386 121.47 91.3139 114.725 99.9272L73.8218 59.0139H41.4584C38.5451 59.0139 36.1807 61.3783 36.1807 64.2917V123.667H133.82V64.2917C133.82 62.0644 132.432 60.1803 130.479 59.4044ZM85.7443 97.8847C82.8732 100.756 68.0426 105.194 68.0426 105.194C68.0426 105.194 72.4865 90.3639 75.3523 87.4928C78.2235 84.6217 82.8732 84.6217 85.7443 87.4928C88.6101 90.3639 88.6101 95.0136 85.7443 97.8847Z" fill="#F9DC46"/>
<path d="M143.246 32.6989C143.267 31.6222 142.85 30.5878 142.085 29.8278C141.325 29.0625 140.063 28.6508 139.214 28.6667C126.025 28.9147 111.426 35.4433 100.602 45.6347C90.0777 45.8669 78.324 46.875 69.3624 53.8944C68.4704 54.5911 67.9215 55.6414 67.8529 56.7761C67.7843 57.9108 68.2065 59.0139 69.014 59.8161L111.922 102.719C112.667 103.469 113.675 103.886 114.725 103.886C114.804 103.886 114.878 103.886 114.962 103.88C116.092 103.812 117.142 103.263 117.844 102.371C124.784 93.5042 125.84 81.9247 126.088 71.4958C136.401 60.6131 143.003 45.9514 143.246 32.6989Z" fill="#F2F6FF"/>
<path d="M53.3334 59.0139H41.4584C38.5451 59.0139 36.1807 61.3783 36.1807 64.2917V123.667H48.0557V64.2917C48.0557 61.3783 50.4201 59.0139 53.3334 59.0139Z" fill="#F99746"/>
<path d="M86.1082 88.0469C85.9657 87.8728 85.9024 87.6564 85.7388 87.4928C82.8677 84.6217 78.2179 84.6217 75.3468 87.4928C72.4757 90.3639 68.0371 105.194 68.0371 105.194C68.0371 105.194 75.3416 103.004 80.6879 100.708C82.1129 96.465 84.3296 90.4272 86.1082 88.0469Z" fill="#D5DBE1"/>
<path d="M92.5688 59.8161C91.7665 59.0139 91.3443 57.9108 91.4077 56.7761C91.471 55.6414 92.0252 54.5911 92.9171 53.8944C101.879 46.875 113.632 45.8722 124.156 45.6347C129.74 40.3781 136.327 36.1242 143.204 33.1792C143.209 33.0208 143.235 32.8572 143.241 32.6989C143.262 31.6222 142.845 30.5878 142.08 29.8278C141.325 29.0625 140.063 28.6508 139.214 28.6667C126.025 28.9147 111.426 35.4433 100.602 45.6347C90.0777 45.8669 78.324 46.875 69.3624 53.8944C68.4704 54.5911 67.9215 55.6414 67.8529 56.7761C67.7843 57.9108 68.2065 59.0139 69.014 59.8161L111.922 102.719C112.667 103.469 113.675 103.886 114.725 103.886C114.804 103.886 114.878 103.886 114.962 103.88C116.092 103.812 117.142 103.263 117.844 102.371C120.583 98.8717 122.383 94.945 123.597 90.8389L92.5688 59.8161Z" fill="#D1D3F1"/>
<path d="M21.666 121.028H148.333V128.944H21.666V121.028Z" fill="#565CBD"/>
<path d="M129.861 85.4028H137.778V124.986H129.861V85.4028Z" fill="#565CBD"/>
<path d="M40.1393 124.986H32.2227V64.2917C32.2227 59.1986 36.3657 55.0555 41.4588 55.0555H54.6532V62.9722H41.4588C40.7304 62.9722 40.1393 63.5633 40.1393 64.2917V124.986Z" fill="#565CBD"/>
<path d="M102.517 91.62C101.503 91.62 100.49 91.2295 99.7195 90.4589L81.4531 72.1925C79.9648 70.7042 79.9015 68.3081 81.3106 66.7458L96.2731 50.1367C107.298 37.4014 124.171 28.9517 139.213 28.6667C140.042 28.6614 141.319 29.0625 142.084 29.8278C142.85 30.5878 143.266 31.6222 143.245 32.6989C142.966 47.7406 134.516 64.6136 121.717 75.6917L105.166 90.6014C104.417 91.2822 103.467 91.62 102.517 91.62ZM89.7129 69.2528L102.665 82.2045L116.476 69.7595C126.288 61.2675 133.339 48.5639 134.975 36.937C123.353 38.5731 110.655 45.6189 102.211 55.3775L89.7129 69.2528Z" fill="#565CBD"/>
<path d="M114.725 103.886C113.675 103.886 112.661 103.469 111.922 102.719L99.7148 90.4536L105.325 84.8697L114.055 93.6414C117.591 86.7275 118.071 78.1247 118.213 69.7805L126.13 69.9178C125.94 80.7319 125.133 93.0555 117.844 102.36C117.142 103.252 116.092 103.801 114.962 103.87C114.878 103.88 114.799 103.886 114.725 103.886Z" fill="#565CBD"/>
<path d="M81.2796 72.0236L69.014 59.8161C68.2118 59.0139 67.7896 57.9108 67.8529 56.7761C67.9162 55.6414 68.4704 54.5911 69.3623 53.8945C78.6671 46.6111 90.9907 45.7931 101.805 45.6031L101.947 53.5197C93.6032 53.6675 84.9951 54.1478 78.0865 57.6839L86.8582 66.4133L81.2796 72.0236Z" fill="#565CBD"/>
<path d="M68.0372 109.153C67.0027 109.153 65.9894 108.746 65.2399 107.992C64.2108 106.962 63.8255 105.453 64.2477 104.054C65.6727 99.3097 69.3302 87.9203 72.5549 84.6903C76.8247 80.4258 84.2663 80.4153 88.5413 84.6903C90.6788 86.8278 91.8558 89.6672 91.8558 92.6861C91.8558 95.705 90.6788 98.5444 88.5413 100.682C85.3113 103.907 73.9166 107.564 69.1719 108.984C68.8025 109.1 68.4172 109.153 68.0372 109.153ZM80.5455 89.2978C79.6377 89.2978 78.788 89.6514 78.1494 90.29C77.3049 91.1978 75.7744 94.7867 74.2649 98.9719C78.4449 97.4625 82.0338 95.9319 82.9522 95.0822C83.5908 94.4436 83.9444 93.5939 83.9444 92.6914C83.9444 91.7889 83.5908 90.9339 82.9522 90.2953C82.303 89.6514 81.448 89.2978 80.5455 89.2978Z" fill="#565CBD"/>
<path d="M0.555664 121.028H169.445V128.944H0.555664V121.028Z" fill="#565CBD"/>
</svg>
