<svg width="190" height="160" viewBox="0 0 190 160" fill="none" xmlns="http://www.w3.org/2000/svg">
<path d="M137.827 7.60645C110.569 -9.48912 52.6471 6.1818 27.0928 16.1542C-28.2742 41.7973 14.2504 106.847 39.8699 114.454C76.3983 125.299 90.9783 118.728 103.755 135.823C116.532 152.919 125.05 170.014 163.381 152.919C201.712 135.823 193.194 97.358 171.899 84.5365C150.604 71.715 171.899 28.9759 137.827 7.60645Z" fill="#FFF6F6"/>
<path fill-rule="evenodd" clip-rule="evenodd" d="M48.8193 66.1667C48.8193 63.9806 50.5916 62.2083 52.7777 62.2083H73.8888C76.0748 62.2083 77.8471 63.9806 77.8471 66.1667C77.8471 68.3527 76.0748 70.125 73.8888 70.125H56.736V76.7222C56.736 97.855 73.8671 114.986 94.9999 114.986C116.133 114.986 133.264 97.855 133.264 76.7222V70.125H116.111C113.925 70.125 112.153 68.3527 112.153 66.1667C112.153 63.9806 113.925 62.2083 116.111 62.2083H137.222C139.408 62.2083 141.18 63.9806 141.18 66.1667V76.7222C141.18 102.227 120.505 122.903 94.9999 122.903C69.495 122.903 48.8193 102.227 48.8193 76.7222V66.1667Z" fill="#F9DC46"/>
<path fill-rule="evenodd" clip-rule="evenodd" d="M94.9994 114.986C97.1854 114.986 98.9577 116.758 98.9577 118.944V134.778C98.9577 136.964 97.1854 138.736 94.9994 138.736C92.8133 138.736 91.041 136.964 91.041 134.778V118.944C91.041 116.758 92.8133 114.986 94.9994 114.986Z" fill="#F9DC46"/>
<path d="M95.0001 25.2639C81.1544 25.2639 69.9307 36.4879 69.9307 50.3333V82C69.9307 95.8457 81.1544 107.069 95.0001 107.069C108.846 107.069 120.07 95.8457 120.07 82V50.3333C120.07 36.4879 108.846 25.2639 95.0001 25.2639Z" fill="#F9DC46"/>
<path fill-rule="evenodd" clip-rule="evenodd" d="M69.9307 50.3333C69.9307 36.4879 81.1544 25.2639 95.0001 25.2639C97.2833 25.2639 99.4952 25.5691 101.597 26.141C90.9526 29.037 83.1251 38.7711 83.1251 50.3333V82C83.1251 93.562 90.9526 103.296 101.597 106.192C99.4952 106.764 97.2833 107.069 95.0001 107.069C81.1544 107.069 69.9307 95.8457 69.9307 82V50.3333Z" fill="#F99746"/>
<path fill-rule="evenodd" clip-rule="evenodd" d="M69.9307 50.3333C69.9307 36.4879 81.1544 25.2639 95.0001 25.2639C108.846 25.2639 120.07 36.4879 120.07 50.3333V82C120.07 95.8457 108.846 107.069 95.0001 107.069C81.1544 107.069 69.9307 95.8457 69.9307 82V50.3333ZM95.0001 33.1806C85.527 33.1806 77.8473 40.8602 77.8473 50.3333V82C77.8473 91.4731 85.527 99.1528 95.0001 99.1528C104.473 99.1528 112.153 91.4731 112.153 82V50.3333C112.153 40.8602 104.473 33.1806 95.0001 33.1806Z" fill="#565CBD"/>
<path fill-rule="evenodd" clip-rule="evenodd" d="M48.8193 66.1667C48.8193 63.9806 50.5916 62.2083 52.7777 62.2083H73.8888V70.125H56.736V76.7222C56.736 97.855 73.8671 114.986 94.9999 114.986C116.133 114.986 133.264 97.855 133.264 76.7222V70.125H116.111V62.2083H137.222C139.408 62.2083 141.18 63.9806 141.18 66.1667V76.7222C141.18 102.227 120.505 122.903 94.9999 122.903C69.495 122.903 48.8193 102.227 48.8193 76.7222V66.1667Z" fill="#565CBD"/>
<path fill-rule="evenodd" clip-rule="evenodd" d="M91.042 134.778V118.944H98.9587V134.778H91.042Z" fill="#565CBD"/>
<path fill-rule="evenodd" clip-rule="evenodd" d="M105.555 138.736H84.4443V130.819H105.555V138.736Z" fill="#565CBD"/>
<path fill-rule="evenodd" clip-rule="evenodd" d="M58.0533 132.137V142.692H52.7754V132.137H58.0533Z" fill="#A9ADEC"/>
<path fill-rule="evenodd" clip-rule="evenodd" d="M47.4999 126.861H36.9443V121.583H47.4999V126.861Z" fill="#A9ADEC"/>
</svg>
