<svg width="75" height="24" viewBox="0 0 75 24" fill="none" xmlns="http://www.w3.org/2000/svg">
<g clip-path="url(#clip0_4_557)">
<path d="M267.477 -19.4858L268.229 -17.6325L267.477 -19.4858ZM576.951 -19.4858L575.792 -17.8553C575.928 -17.7592 576.074 -17.6803 576.229 -17.6205L576.951 -19.4858ZM276.627 461.086L275.989 462.982L275.989 462.982L276.627 461.086ZM550.937 459.5C549.915 459.919 549.428 461.088 549.847 462.11C550.267 463.131 551.436 463.619 552.457 463.199L550.937 459.5ZM-9.78132 -2.02517C-8.88856 -1.37474 -7.63756 -1.57119 -6.98713 -2.46395C-6.33671 -3.35671 -6.53316 -4.60771 -7.42592 -5.25814L-9.78132 -2.02517ZM5.83275 2.73231C4.84363 2.24066 3.64323 2.64395 3.15159 3.63307C2.65994 4.62219 3.06323 5.82259 4.05235 6.31423L5.83275 2.73231ZM4.95717 6.75871C5.95084 7.24111 7.14742 6.82664 7.62982 5.83298C8.11221 4.83931 7.69775 3.64273 6.70408 3.16034L4.95717 6.75871ZM21.1494 8.98452C20.1009 8.63721 18.9693 9.20566 18.622 10.2542C18.2747 11.3028 18.8431 12.4343 19.8917 12.7816L21.1494 8.98452ZM20.8538 13.0964C21.9049 13.4361 23.0323 12.8594 23.3719 11.8083C23.7115 10.7572 23.1348 9.62986 22.0838 9.29022L20.8538 13.0964ZM37.2024 13.2974C36.122 13.0676 35.0598 13.7571 34.83 14.8375C34.6001 15.9179 35.2896 16.98 36.37 17.2099L37.2024 13.2974ZM37.3553 17.4165C38.437 17.6402 39.4952 16.9446 39.7189 15.863C39.9425 14.7813 39.247 13.7231 38.1653 13.4994L37.3553 17.4165ZM53.6445 16.0249C52.5482 15.89 51.5501 16.6694 51.4152 17.7657C51.2804 18.862 52.0598 19.8601 53.1561 19.9949L53.6445 16.0249ZM54.1398 20.1137C55.2367 20.2436 56.2313 19.4598 56.3612 18.3629C56.4911 17.266 55.7072 16.2714 54.6103 16.1415L54.1398 20.1137ZM70.2755 17.4576C69.1724 17.4004 68.2318 18.2483 68.1746 19.3514C68.1174 20.4545 68.9653 21.3951 70.0684 21.4523L70.2755 17.4576ZM71.0602 21.5018C72.1635 21.5549 73.101 20.7035 73.154 19.6002C73.2071 18.4969 72.3557 17.5595 71.2524 17.5064L71.0602 21.5018ZM86.9837 17.8188C85.8792 17.8264 84.9899 18.728 84.9975 19.8325C85.0051 20.937 85.9067 21.8263 87.0112 21.8187L86.9837 17.8188ZM88.016 21.8102C89.1205 21.7991 90.0069 20.8947 89.9958 19.7902C89.9847 18.6857 89.0803 17.7993 87.9758 17.8104L88.016 21.8102ZM103.706 17.2754C102.603 17.3382 101.76 18.283 101.823 19.3858C101.886 20.4886 102.83 21.3317 103.933 21.269L103.706 17.2754ZM104.932 21.2108C106.034 21.145 106.875 20.1979 106.809 19.0953C106.743 17.9927 105.796 17.1521 104.693 17.2179L104.932 21.2108ZM120.403 15.9524C119.304 16.0631 118.503 17.0437 118.614 18.1427C118.724 19.2417 119.705 20.0429 120.804 19.9322L120.403 15.9524ZM121.795 19.8312C122.894 19.7179 123.693 18.7353 123.579 17.6366C123.466 16.5378 122.483 15.739 121.385 15.8523L121.795 19.8312ZM137.048 13.9437C135.954 14.0968 135.192 15.1078 135.345 16.2017C135.498 17.2956 136.509 18.0582 137.603 17.905L137.048 13.9437ZM138.586 17.7662C139.68 17.6107 140.44 16.5981 140.285 15.5045C140.129 14.411 139.117 13.6506 138.023 13.8061L138.586 17.7662ZM153.617 11.3214C152.529 11.5129 151.803 12.5501 151.994 13.6379C152.186 14.7257 153.223 15.4523 154.311 15.2608L153.617 11.3214ZM155.288 15.0876C156.376 14.8939 157.1 13.8553 156.907 12.7679C156.713 11.6804 155.674 10.9559 154.587 11.1496L155.288 15.0876ZM170.082 8.14235C169 8.36915 168.308 9.42937 168.535 10.5104C168.762 11.5914 169.822 12.2839 170.903 12.0571L170.082 8.14235ZM171.877 11.8519C172.957 11.6231 173.648 10.5616 173.419 9.48096C173.19 8.40035 172.129 7.70982 171.048 7.93863L171.877 11.8519ZM186.448 4.44357C185.375 4.7034 184.715 5.78434 184.975 6.85792C185.235 7.93149 186.316 8.59116 187.389 8.33133L186.448 4.44357ZM188.355 8.09666C189.428 7.83493 190.086 6.75284 189.824 5.67972C189.562 4.60661 188.48 3.94884 187.407 4.21056L188.355 8.09666ZM202.698 0.255415C201.632 0.546731 201.004 1.64662 201.296 2.71208C201.587 3.77754 202.687 4.40511 203.752 4.11379L202.698 0.255415ZM204.712 3.85061C205.777 3.55748 206.402 2.45652 206.109 1.39156C205.816 0.326599 204.715 -0.299092 203.65 -0.00595773L204.712 3.85061ZM218.821 -4.40414C217.764 -4.08226 217.169 -2.96475 217.491 -1.90812C217.813 -0.851494 218.93 -0.255869 219.987 -0.577757L218.821 -4.40414ZM220.936 -0.867809C221.992 -1.19148 222.586 -2.30999 222.262 -3.36607C221.938 -4.42215 220.82 -5.01589 219.764 -4.69223L220.936 -0.867809ZM234.806 -9.52578C233.759 -9.17363 233.196 -8.03945 233.548 -6.99252C233.9 -5.94559 235.034 -5.38236 236.081 -5.73451L234.806 -9.52578ZM237.023 -6.05218C238.069 -6.40611 238.631 -7.54125 238.277 -8.58758C237.923 -9.63391 236.788 -10.1952 235.741 -9.84127L237.023 -6.05218ZM250.628 -15.1062C249.592 -14.7235 249.062 -13.5733 249.445 -12.5371C249.828 -11.501 250.978 -10.9713 252.014 -11.354L250.628 -15.1062ZM252.949 -11.7002C253.985 -12.0848 254.512 -13.2359 254.128 -14.2714C253.743 -15.3069 252.592 -15.8345 251.557 -15.45L252.949 -11.7002ZM266.271 -21.1551C265.247 -20.7408 264.752 -19.5749 265.167 -18.551C265.581 -17.527 266.747 -17.0328 267.771 -17.447L266.271 -21.1551ZM268.696 -17.8218C269.72 -18.2362 270.214 -19.4021 269.8 -20.426C269.385 -21.4499 268.219 -21.9441 267.195 -21.5298L268.696 -17.8218ZM282.085 -27.3152C281.05 -26.9298 280.523 -25.7782 280.909 -24.743C281.294 -23.7079 282.446 -23.1812 283.481 -23.5667L282.085 -27.3152ZM284.394 -23.9058C285.43 -24.2895 285.959 -25.4402 285.575 -26.476C285.191 -27.5118 284.041 -28.0404 283.005 -27.6568L284.394 -23.9058ZM298.059 -32.9837C297.013 -32.6308 296.45 -31.4962 296.803 -30.4495C297.156 -29.4029 298.291 -28.8405 299.337 -29.1935L298.059 -32.9837ZM300.265 -29.5052C301.312 -29.8562 301.876 -30.9897 301.525 -32.037C301.174 -33.0844 300.041 -33.6488 298.993 -33.2978L300.265 -29.5052ZM314.197 -38.1349C313.139 -37.8165 312.54 -36.7009 312.858 -35.6432C313.177 -34.5856 314.292 -33.9863 315.35 -34.3047L314.197 -38.1349ZM316.289 -34.5866C317.348 -34.9029 317.949 -36.0173 317.633 -37.0756C317.316 -38.1339 316.202 -38.7354 315.144 -38.419L316.289 -34.5866ZM330.495 -42.7393C329.427 -42.4576 328.789 -41.3633 329.071 -40.2953C329.353 -39.2273 330.447 -38.5899 331.515 -38.8717L330.495 -42.7393ZM332.465 -39.1213C333.534 -39.4008 334.173 -40.4937 333.894 -41.5623C333.614 -42.6309 332.521 -43.2706 331.453 -42.991L332.465 -39.1213ZM346.945 -46.7648C345.867 -46.5219 345.191 -45.4515 345.434 -44.3739C345.677 -43.2964 346.747 -42.6198 347.825 -42.8627L346.945 -46.7648ZM348.783 -43.0776C349.861 -43.3182 350.54 -44.3871 350.299 -45.4652C350.059 -46.5432 348.99 -47.2222 347.912 -46.9816L348.783 -43.0776ZM363.533 -50.1768C362.447 -49.9751 361.731 -48.9311 361.932 -47.8452C362.134 -46.7592 363.178 -46.0424 364.264 -46.2441L363.533 -50.1768ZM365.228 -46.422C366.314 -46.6213 367.033 -47.6636 366.834 -48.75C366.635 -49.8365 365.592 -50.5556 364.506 -50.3564L365.228 -46.422ZM380.239 -52.9394C379.146 -52.7812 378.388 -51.7667 378.546 -50.6735C378.704 -49.5803 379.719 -48.8224 380.812 -48.9807L380.239 -52.9394ZM381.778 -49.1194C382.872 -49.2751 383.632 -50.2878 383.477 -51.3813C383.321 -52.4749 382.308 -53.2352 381.215 -53.0795L381.778 -49.1194ZM397.033 -55.0162C395.934 -54.9037 395.135 -53.9218 395.247 -52.823C395.36 -51.7242 396.342 -50.9245 397.44 -51.037L397.033 -55.0162ZM398.406 -51.1345C399.505 -51.2442 400.307 -52.2242 400.197 -53.3233C400.088 -54.4224 399.108 -55.2245 398.009 -55.1148L398.406 -51.1345ZM413.921 -56.3738C412.818 -56.3096 411.976 -55.3637 412.04 -54.261C412.105 -53.1582 413.051 -52.3164 414.153 -52.3805L413.921 -56.3738ZM415.155 -52.4375C416.258 -52.4987 417.102 -53.4423 417.041 -54.5452C416.98 -55.6481 416.036 -56.4925 414.933 -56.4313L415.155 -52.4375ZM430.91 -56.9736C429.806 -56.9602 428.921 -56.054 428.934 -54.9496C428.948 -53.8451 429.854 -52.9605 430.958 -52.9739L430.91 -56.9736ZM431.95 -52.9845C433.055 -52.9948 433.942 -53.8986 433.932 -55.0031C433.921 -56.1076 433.018 -56.9947 431.913 -56.9844L431.95 -52.9845ZM447.87 -56.7748C446.766 -56.8145 445.839 -55.9517 445.799 -54.8479C445.76 -53.744 446.622 -52.817 447.726 -52.7774L447.87 -56.7748ZM448.703 -52.7409C449.807 -52.6981 450.737 -53.5581 450.779 -54.6618C450.822 -55.7656 449.962 -56.6951 448.858 -56.7379L448.703 -52.7409ZM464.76 -55.7473C463.659 -55.8422 462.69 -55.0269 462.595 -53.9265C462.5 -52.826 463.316 -51.8569 464.416 -51.7621L464.76 -55.7473ZM465.416 -51.6743C466.517 -51.5761 467.488 -52.3883 467.586 -53.4885C467.685 -54.5887 466.872 -55.5602 465.772 -55.6585L465.416 -51.6743ZM481.672 -53.8431C480.578 -53.9958 479.567 -53.2328 479.414 -52.1388C479.262 -51.0448 480.025 -50.0342 481.119 -49.8815L481.672 -53.8431ZM482.089 -49.7445C483.183 -49.5884 484.196 -50.3483 484.352 -51.4418C484.508 -52.5353 483.748 -53.5483 482.655 -53.7044L482.089 -49.7445ZM498.391 -51.0427C497.307 -51.2553 496.256 -50.549 496.043 -49.4651C495.831 -48.3812 496.537 -47.3301 497.621 -47.1175L498.391 -51.0427ZM498.601 -46.9236C499.684 -46.7073 500.738 -47.4101 500.954 -48.4933C501.17 -49.5765 500.467 -50.6299 499.384 -50.8462L498.601 -46.9236ZM514.921 -47.3042C513.852 -47.5793 512.761 -46.935 512.486 -45.8653C512.211 -44.7955 512.855 -43.7053 513.925 -43.4302L514.921 -47.3042ZM514.89 -43.1803C515.959 -42.9014 517.051 -43.5417 517.33 -44.6105C517.609 -45.6793 516.969 -46.7718 515.9 -47.0507L514.89 -43.1803ZM531.241 -42.5701C530.19 -42.911 529.062 -42.3356 528.721 -41.285C528.38 -40.2343 528.956 -39.1062 530.006 -38.7654L531.241 -42.5701ZM530.95 -38.4571C532 -38.1122 533.13 -38.6832 533.475 -39.7326C533.82 -40.7819 533.249 -41.9122 532.199 -42.2571L530.95 -38.4571ZM547.269 -36.7712C546.244 -37.1828 545.08 -36.6854 544.668 -35.6604C544.256 -34.6353 544.754 -33.4708 545.779 -33.0592L547.269 -36.7712ZM546.704 -32.6856C547.727 -32.2696 548.894 -32.7619 549.31 -33.7852C549.726 -34.8085 549.233 -35.9752 548.21 -36.3911L546.704 -32.6856ZM562.803 -29.8351C561.813 -30.3264 560.613 -29.9226 560.122 -28.9333C559.631 -27.944 560.034 -26.7438 561.024 -26.2525L562.803 -29.8351ZM561.927 -25.8009C562.913 -25.3043 564.116 -25.7015 564.612 -26.6881C565.109 -27.6747 564.712 -28.8771 563.725 -29.3738L561.927 -25.8009ZM577.687 -21.4066C576.773 -22.026 575.529 -21.7866 574.91 -20.872C574.291 -19.9574 574.53 -18.7139 575.444 -18.0946L577.687 -21.4066ZM576.68 -17.4449C577.709 -17.0422 578.869 -17.5494 579.272 -18.5779C579.675 -19.6065 579.167 -20.7667 578.139 -21.1695L576.68 -17.4449ZM592.735 -14.3259C591.766 -14.8566 590.551 -14.5015 590.02 -13.5328C589.489 -12.5641 589.844 -11.3486 590.813 -10.8179L592.735 -14.3259ZM591.663 -10.3482C592.628 -9.81029 593.846 -10.1563 594.384 -11.121C594.922 -12.0858 594.576 -13.3039 593.611 -13.8418L591.663 -10.3482ZM607.197 -5.21031C606.299 -5.85297 605.049 -5.64569 604.407 -4.74733C603.764 -3.84897 603.971 -2.59972 604.87 -1.95705L607.197 -5.21031ZM605.662 -1.38643C606.556 -0.737911 607.807 -0.937029 608.455 -1.83117C609.104 -2.72532 608.904 -3.9759 608.01 -4.62442L605.662 -1.38643ZM620.536 5.45356C619.71 4.72067 618.445 4.79649 617.713 5.62291C616.98 6.44932 617.056 7.71338 617.882 8.44626L620.536 5.45356ZM618.614 9.09961C619.437 9.83721 620.701 9.76862 621.439 8.94641C622.176 8.12421 622.108 6.85973 621.286 6.12214L618.614 9.09961ZM632.758 17.3575C632.002 16.5522 630.736 16.5122 629.931 17.2682C629.126 18.0242 629.086 19.2899 629.842 20.0952L632.758 17.3575ZM630.515 20.8156C631.266 21.6247 632.532 21.6711 633.341 20.9191C634.15 20.1672 634.197 18.9017 633.445 18.0926L630.515 20.8156ZM643.902 30.2547C643.213 29.391 641.955 29.2489 641.091 29.9373C640.228 30.6258 640.085 31.8841 640.774 32.7479L643.902 30.2547ZM641.388 33.5221C642.073 34.389 643.33 34.5367 644.197 33.8521C645.064 33.1676 645.212 31.9099 644.527 31.043L641.388 33.5221ZM654.018 43.9531C653.394 43.0418 652.149 42.809 651.238 43.4332C650.327 44.0573 650.094 45.302 650.718 46.2134L654.018 43.9531ZM651.276 47.031C651.896 47.9448 653.14 48.1827 654.054 47.5623C654.967 46.9418 655.205 45.698 654.585 44.7842L651.276 47.031ZM663.159 58.3051C662.596 57.3547 661.369 57.0405 660.419 57.6033C659.468 58.1661 659.154 59.3929 659.717 60.3433L663.159 58.3051ZM660.22 61.196C660.779 62.1485 662.005 62.4672 662.957 61.9079C663.91 61.3486 664.228 60.1231 663.669 59.1706L660.22 61.196ZM671.37 73.1963C670.866 72.2135 669.66 71.8254 668.678 72.3295C667.695 72.8336 667.307 74.039 667.811 75.0218L671.37 73.1963ZM668.261 75.9031C668.762 76.8876 669.966 77.2799 670.95 76.7792C671.935 76.2785 672.327 75.0744 671.826 74.0899L668.261 75.9031ZM678.69 88.5373C678.242 87.5274 677.061 87.0714 676.051 87.5188C675.041 87.9662 674.585 89.1476 675.033 90.1575L678.69 88.5373ZM675.432 91.0621C675.876 92.0734 677.056 92.5332 678.067 92.0891C679.078 91.645 679.538 90.4651 679.094 89.4538L675.432 91.0621ZM685.148 104.256C684.756 103.223 683.6 102.704 682.568 103.096C681.535 103.488 681.016 104.643 681.408 105.676L685.148 104.256ZM681.758 106.6C682.147 107.634 683.3 108.156 684.334 107.767C685.368 107.378 685.89 106.225 685.501 105.191L681.758 106.6ZM690.764 120.291C690.426 119.24 689.3 118.661 688.248 118.999C687.196 119.337 686.618 120.464 686.956 121.515L690.764 120.291ZM687.257 122.455C687.592 123.508 688.716 124.09 689.769 123.755C690.821 123.42 691.403 122.295 691.068 121.242L687.257 122.455ZM695.551 136.592C695.267 135.525 694.171 134.89 693.104 135.174C692.036 135.459 691.402 136.555 691.686 137.622L695.551 136.592ZM691.938 138.575C692.22 139.643 693.314 140.281 694.382 140C695.45 139.719 696.088 138.625 695.807 137.557L691.938 138.575ZM699.514 153.112C699.283 152.032 698.22 151.343 697.14 151.574C696.06 151.805 695.371 152.868 695.602 153.948L699.514 153.112ZM695.806 154.912C696.034 155.993 697.095 156.684 698.176 156.457C699.257 156.229 699.948 155.168 699.721 154.087L695.806 154.912ZM702.65 169.808C702.473 168.718 701.445 167.977 700.355 168.154C699.265 168.331 698.524 169.358 698.701 170.448L702.65 169.808ZM698.858 171.421C699.031 172.512 700.056 173.255 701.147 173.082C702.238 172.908 702.981 171.883 702.808 170.792L698.858 171.421ZM704.951 186.638C704.828 185.54 703.839 184.75 702.742 184.872C701.644 184.994 700.853 185.983 700.975 187.081L704.951 186.638ZM701.083 188.06C701.202 189.158 702.188 189.952 703.287 189.833C704.385 189.714 705.178 188.728 705.06 187.629L701.083 188.06ZM706.403 203.558C706.336 202.456 705.389 201.616 704.286 201.682C703.184 201.749 702.344 202.697 702.41 203.799L706.403 203.558ZM702.468 204.786C702.531 205.889 703.477 206.732 704.579 206.669C705.682 206.606 706.525 205.66 706.462 204.558L702.468 204.786ZM706.988 220.532C706.979 219.427 706.076 218.539 704.971 218.549C703.867 218.558 702.979 219.461 702.988 220.566L706.988 220.532ZM702.995 221.553C703.001 222.658 703.902 223.549 705.006 223.543C706.111 223.537 707.001 222.636 706.995 221.532L702.995 221.553ZM706.683 237.517C706.732 236.414 705.878 235.479 704.774 235.43C703.671 235.381 702.736 236.235 702.687 237.339L706.683 237.517ZM702.641 238.325C702.588 239.428 703.44 240.365 704.543 240.418C705.646 240.471 706.584 239.619 706.637 238.516L702.641 238.325ZM705.459 254.466C705.569 253.367 704.767 252.387 703.668 252.277C702.569 252.167 701.589 252.968 701.479 254.068L705.459 254.466ZM701.379 255.049C701.265 256.148 702.064 257.131 703.163 257.244C704.261 257.358 705.244 256.559 705.358 255.461L701.379 255.049ZM703.287 271.323C703.46 270.232 702.715 269.208 701.624 269.035C700.533 268.862 699.509 269.607 699.336 270.698L703.287 271.323ZM699.18 271.672C699.004 272.762 699.745 273.789 700.835 273.965C701.926 274.142 702.953 273.401 703.129 272.31L699.18 271.672ZM700.135 288.028C700.372 286.949 699.69 285.882 698.611 285.645C697.533 285.408 696.466 286.09 696.228 287.169L700.135 288.028ZM696.015 288.132C695.774 289.209 696.452 290.279 697.53 290.52C698.608 290.761 699.677 290.082 699.919 289.005L696.015 288.132ZM695.973 304.515C696.277 303.453 695.662 302.346 694.6 302.042C693.538 301.738 692.431 302.353 692.127 303.415L695.973 304.515ZM691.855 304.362C691.547 305.423 692.158 306.532 693.219 306.84C694.279 307.148 695.389 306.537 695.696 305.476L691.855 304.362ZM690.774 320.71C691.145 319.67 690.604 318.526 689.563 318.154C688.523 317.782 687.379 318.324 687.007 319.364L690.774 320.71ZM686.674 320.291C686.298 321.329 686.836 322.476 687.874 322.852C688.913 323.228 690.06 322.69 690.435 321.651L686.674 320.291ZM684.514 336.536C684.955 335.523 684.491 334.344 683.478 333.904C682.466 333.463 681.287 333.926 680.846 334.939L684.514 336.536ZM680.452 335.84C680.007 336.851 680.466 338.031 681.477 338.476C682.488 338.921 683.668 338.462 684.113 337.451L680.452 335.84ZM677.186 351.893C677.697 350.913 677.316 349.705 676.337 349.195C675.357 348.685 674.149 349.065 673.639 350.045L677.186 351.893ZM673.181 350.919C672.667 351.897 673.042 353.106 674.02 353.62C674.997 354.135 676.206 353.759 676.721 352.782L673.181 350.919ZM668.792 366.692C669.371 365.752 669.078 364.52 668.138 363.941C667.197 363.362 665.965 363.654 665.386 364.595L668.792 366.692ZM664.867 365.434C664.284 366.372 664.571 367.606 665.509 368.189C666.447 368.772 667.681 368.484 668.264 367.546L664.867 365.434ZM659.348 380.845C659.994 379.949 659.792 378.699 658.896 378.053C658.001 377.406 656.751 377.608 656.104 378.504L659.348 380.845ZM655.525 379.302C654.875 380.195 655.071 381.446 655.964 382.096C656.857 382.747 658.108 382.55 658.758 381.657L655.525 379.302ZM648.885 394.264C649.596 393.419 649.487 392.157 648.641 391.446C647.796 390.735 646.534 390.844 645.823 391.69L648.885 394.264ZM645.188 392.441C644.474 393.284 644.577 394.546 645.419 395.26C646.261 395.975 647.523 395.872 648.238 395.03L645.188 392.441ZM637.45 406.877C638.221 406.086 638.206 404.82 637.416 404.048C636.626 403.277 635.36 403.292 634.588 404.082L637.45 406.877ZM633.901 404.782C633.126 405.569 633.135 406.835 633.922 407.61C634.709 408.385 635.975 408.376 636.751 407.589L633.901 404.782ZM625.1 418.622C625.928 417.891 626.006 416.627 625.275 415.799C624.543 414.971 623.279 414.893 622.452 415.624L625.1 418.622ZM621.719 416.269C620.888 416.996 620.805 418.26 621.533 419.091C622.261 419.922 623.524 420.005 624.355 419.277L621.719 416.269ZM611.923 429.441C612.801 428.771 612.97 427.516 612.3 426.638C611.63 425.759 610.375 425.59 609.497 426.26L611.923 429.441ZM608.703 426.863C607.822 427.529 607.648 428.783 608.314 429.664C608.98 430.546 610.234 430.72 611.116 430.054L608.703 426.863ZM598.084 439.25C599.007 438.642 599.263 437.402 598.655 436.479C598.048 435.557 596.808 435.301 595.885 435.908L598.084 439.25ZM595.054 436.453C594.128 437.057 593.868 438.296 594.471 439.221C595.075 440.146 596.314 440.407 597.239 439.803L595.054 436.453ZM583.599 448.101C584.56 447.557 584.898 446.336 584.353 445.375C583.809 444.414 582.588 444.076 581.627 444.621L583.599 448.101ZM580.768 445.106C579.805 445.646 579.462 446.865 580.003 447.829C580.544 448.792 581.763 449.134 582.726 448.593L580.768 445.106ZM568.526 456.013C569.52 455.531 569.934 454.334 569.452 453.34C568.969 452.347 567.773 451.932 566.779 452.414L568.526 456.013ZM565.901 452.839C564.905 453.318 564.486 454.513 564.965 455.508C565.444 456.504 566.639 456.922 567.634 456.444L565.901 452.839ZM552.93 463.005C553.951 462.583 554.437 461.414 554.015 460.393C553.594 459.372 552.424 458.886 551.403 459.307L552.93 463.005ZM-7.41691 462.406C-6.52425 461.755 -6.32799 460.504 -6.97855 459.612C-7.62911 458.719 -8.88013 458.523 -9.7728 459.173L-7.41691 462.406ZM4.36981 450.571C3.38515 451.071 2.99267 452.275 3.49318 453.26C3.9937 454.245 5.19767 454.637 6.18233 454.137L4.36981 450.571ZM7.07515 453.688C8.06408 453.196 8.46689 451.995 7.97486 451.006C7.48283 450.017 6.28227 449.614 5.29334 450.106L7.07515 453.688ZM20.5002 443.69C19.4596 444.061 18.9164 445.205 19.2869 446.245C19.6574 447.286 20.8013 447.829 21.8419 447.459L20.5002 443.69ZM22.7975 447.122C23.8405 446.758 24.3912 445.618 24.0275 444.575C23.6639 443.532 22.5235 442.981 21.4806 443.345L22.7975 447.122ZM37.2542 438.672C36.1824 438.939 35.5299 440.024 35.797 441.096C36.064 442.168 37.1493 442.82 38.2211 442.553L37.2542 438.672ZM39.2004 442.312C40.2736 442.05 40.9315 440.968 40.6699 439.895C40.4082 438.822 39.3262 438.164 38.2531 438.426L39.2004 442.312ZM54.3339 435.135C53.2447 435.318 52.5107 436.35 52.6944 437.439C52.8781 438.529 53.91 439.263 54.9992 439.079L54.3339 435.135ZM55.9862 438.915C57.0761 438.735 57.8143 437.706 57.635 436.616C57.4556 435.526 56.4267 434.788 55.3368 434.968L55.9862 438.915ZM71.5811 432.796C70.4826 432.911 69.6854 433.895 69.8005 434.994C69.9156 436.092 70.8995 436.89 71.998 436.774L71.5811 432.796ZM73.0026 436.671C74.1016 436.559 74.9021 435.578 74.7906 434.479C74.6792 433.38 73.698 432.58 72.599 432.691L73.0026 436.671ZM88.911 431.452C87.8079 431.509 86.9601 432.45 87.0173 433.553C87.0746 434.656 88.0152 435.504 89.1183 435.446L88.911 431.452ZM90.1351 435.395C91.2383 435.341 92.0889 434.403 92.0348 433.3C91.9807 432.196 91.0425 431.346 89.9393 431.4L90.1351 435.395ZM106.275 430.954C105.17 430.961 104.281 431.862 104.288 432.967C104.295 434.072 105.196 434.961 106.301 434.954L106.275 430.954ZM107.316 434.949C108.42 434.944 109.312 434.045 109.308 432.941C109.303 431.836 108.404 430.944 107.3 430.949L107.316 434.949ZM123.64 431.196C122.536 431.159 121.611 432.024 121.574 433.128C121.537 434.232 122.402 435.157 123.506 435.194L123.64 431.196ZM124.517 435.229C125.621 435.268 126.548 434.406 126.588 433.302C126.627 432.198 125.765 431.271 124.661 431.231L124.517 435.229ZM140.982 432.099C139.88 432.022 138.924 432.852 138.847 433.954C138.77 435.056 139.601 436.012 140.703 436.089L140.982 432.099ZM141.711 436.161C142.812 436.24 143.77 435.411 143.849 434.31C143.929 433.208 143.1 432.25 141.998 432.171L141.711 436.161ZM158.271 433.604C157.172 433.49 156.189 434.288 156.075 435.387C155.961 436.486 156.759 437.469 157.858 437.583L158.271 433.604ZM158.868 437.689C159.966 437.805 160.951 437.009 161.067 435.91C161.183 434.812 160.387 433.827 159.288 433.711L158.868 437.689ZM175.495 435.67C174.401 435.521 173.393 436.288 173.244 437.383C173.096 438.477 173.862 439.485 174.957 439.634L175.495 435.67ZM175.961 439.771C177.055 439.922 178.064 439.157 178.215 438.063C178.366 436.969 177.601 435.959 176.507 435.809L175.961 439.771ZM192.649 438.269C191.56 438.087 190.529 438.823 190.347 439.912C190.165 441.002 190.901 442.032 191.99 442.214L192.649 438.269ZM192.99 442.382C194.079 442.566 195.111 441.832 195.295 440.743C195.479 439.654 194.745 438.622 193.656 438.438L192.99 442.382ZM209.712 441.383C208.628 441.168 207.576 441.873 207.362 442.956C207.147 444.04 207.852 445.092 208.935 445.307L209.712 441.383ZM209.93 445.505C211.013 445.721 212.066 445.018 212.283 443.935C212.499 442.852 211.797 441.799 210.714 441.582L209.93 445.505ZM226.681 445.007C225.604 444.76 224.531 445.433 224.284 446.509C224.037 447.586 224.71 448.659 225.786 448.906L226.681 445.007ZM226.772 449.133C227.849 449.382 228.923 448.711 229.172 447.635C229.42 446.559 228.75 445.485 227.674 445.236L226.772 449.133ZM243.531 449.145C242.463 448.865 241.37 449.504 241.09 450.572C240.81 451.641 241.449 452.734 242.517 453.014L243.531 449.145ZM243.498 453.272C244.566 453.554 245.66 452.917 245.942 451.849C246.224 450.781 245.587 449.686 244.519 449.404L243.498 453.272ZM260.239 453.809C259.18 453.494 258.066 454.098 257.752 455.157C257.438 456.216 258.041 457.329 259.1 457.643L260.239 453.809ZM260.075 457.934C261.133 458.25 262.248 457.649 262.564 456.59C262.88 455.532 262.279 454.418 261.221 454.101L260.075 457.934ZM276.784 459.03C275.737 458.679 274.603 459.243 274.252 460.291C273.901 461.338 274.466 462.471 275.513 462.822L276.784 459.03ZM276.457 463.139C277.505 463.49 278.638 462.926 278.989 461.878C279.34 460.831 278.775 459.697 277.728 459.346L276.457 463.139ZM292.489 464.006C291.43 463.692 290.317 464.296 290.003 465.355C289.689 466.414 290.293 467.527 291.352 467.841L292.489 464.006ZM292.297 468.12C293.357 468.432 294.468 467.826 294.78 466.766C295.092 465.706 294.485 464.595 293.426 464.283L292.297 468.12ZM308.351 468.389C307.281 468.115 306.191 468.76 305.917 469.83C305.643 470.9 306.288 471.99 307.358 472.264L308.351 468.389ZM308.31 472.507C309.381 472.778 310.469 472.131 310.741 471.06C311.012 469.99 310.365 468.901 309.294 468.63L308.31 472.507ZM324.361 472.171C323.282 471.938 322.217 472.623 321.983 473.703C321.75 474.783 322.436 475.847 323.515 476.081L324.361 472.171ZM324.471 476.287C325.551 476.518 326.615 475.83 326.846 474.75C327.077 473.67 326.389 472.606 325.309 472.375L324.471 476.287ZM340.493 475.345C339.405 475.152 338.367 475.878 338.174 476.965C337.982 478.053 338.707 479.091 339.795 479.283L340.493 475.345ZM340.754 479.452C341.842 479.642 342.878 478.915 343.068 477.826C343.258 476.738 342.531 475.702 341.443 475.512L340.754 479.452ZM356.716 477.903C355.622 477.752 354.612 478.516 354.461 479.61C354.31 480.704 355.074 481.714 356.168 481.865L356.716 477.903ZM357.127 481.997C358.221 482.146 359.229 481.38 359.378 480.285C359.527 479.191 358.76 478.183 357.666 478.034L357.127 481.997ZM373.025 479.846C371.926 479.736 370.946 480.538 370.836 481.637C370.726 482.736 371.528 483.716 372.627 483.826L373.025 479.846ZM373.609 483.923C374.708 484.031 375.686 483.227 375.794 482.127C375.901 481.028 375.097 480.05 373.998 479.942L373.609 483.923ZM389.439 481.173C388.337 481.105 387.388 481.944 387.32 483.046C387.252 484.148 388.09 485.097 389.193 485.166L389.439 481.173ZM390.169 485.225C391.271 485.29 392.218 484.45 392.284 483.347C392.35 482.244 391.509 481.297 390.406 481.232L390.169 485.225ZM405.853 481.876C404.749 481.85 403.832 482.723 403.806 483.828C403.779 484.932 404.653 485.848 405.757 485.875L405.853 481.876ZM406.724 485.897C407.828 485.921 408.743 485.045 408.767 483.941C408.791 482.836 407.915 481.922 406.811 481.898L406.724 485.897ZM422.29 481.958C421.185 481.973 420.302 482.881 420.318 483.986C420.333 485.09 421.241 485.973 422.345 485.957L422.29 481.958ZM423.329 485.943C424.434 485.925 425.315 485.015 425.297 483.911C425.279 482.806 424.369 481.925 423.265 481.943L423.329 485.943ZM438.73 481.417C437.627 481.474 436.779 482.415 436.836 483.518C436.893 484.621 437.834 485.469 438.937 485.412L438.73 481.417ZM439.903 485.361C441.006 485.301 441.852 484.358 441.792 483.256C441.732 482.153 440.79 481.307 439.687 481.366L439.903 485.361ZM455.128 480.254C454.028 480.353 453.216 481.325 453.316 482.425C453.415 483.525 454.387 484.337 455.487 484.238L455.128 480.254ZM456.465 484.148C457.565 484.047 458.375 483.073 458.273 481.973C458.171 480.873 457.197 480.064 456.097 480.165L456.465 484.148ZM471.433 478.469C470.337 478.61 469.563 479.613 469.705 480.708C469.846 481.804 470.849 482.578 471.944 482.436L471.433 478.469ZM472.922 482.309C474.017 482.165 474.788 481.161 474.644 480.066C474.501 478.971 473.496 478.199 472.401 478.343L472.922 482.309ZM487.718 476.045C486.629 476.229 485.895 477.261 486.08 478.35C486.264 479.439 487.296 480.173 488.385 479.989L487.718 476.045ZM489.329 479.828C490.418 479.641 491.149 478.607 490.963 477.519C490.776 476.43 489.742 475.699 488.653 475.885L489.329 479.828ZM503.86 472.979C502.78 473.207 502.089 474.269 502.317 475.349C502.545 476.43 503.606 477.121 504.687 476.893L503.86 472.979ZM505.618 476.695C506.698 476.464 507.387 475.402 507.156 474.321C506.925 473.241 505.862 472.553 504.782 472.783L505.618 476.695ZM519.864 469.24C518.794 469.515 518.15 470.605 518.425 471.675C518.7 472.745 519.79 473.389 520.86 473.114L519.864 469.24ZM521.825 472.865C522.894 472.587 523.536 471.495 523.258 470.426C522.98 469.357 521.888 468.716 520.819 468.993L521.825 472.865ZM535.653 464.776C534.598 465.104 534.008 466.224 534.336 467.279C534.664 468.334 535.785 468.924 536.839 468.596L535.653 464.776ZM537.807 468.294C538.86 467.962 539.446 466.839 539.114 465.786C538.783 464.732 537.66 464.146 536.607 464.478L537.807 468.294ZM551.084 459.406C550.06 459.821 549.567 460.987 549.982 462.011C550.396 463.034 551.563 463.528 552.586 463.113L551.084 459.406ZM-10.1871 -2.32257C-10.0522 -2.22309 -9.91692 -2.12396 -9.78132 -2.02517L-7.42592 -5.25814C-7.55529 -5.35239 -7.68429 -5.44695 -7.81294 -5.54182L-10.1871 -2.32257ZM4.05235 6.31423C4.35281 6.46358 4.65442 6.61173 4.95717 6.75871L6.70408 3.16034C6.41245 3.01876 6.12201 2.87608 5.83275 2.73231L4.05235 6.31423ZM19.8917 12.7816C20.2115 12.8876 20.5322 12.9925 20.8538 13.0964L22.0838 9.29022C21.7714 9.18927 21.4599 9.08737 21.1494 8.98452L19.8917 12.7816ZM36.37 17.2099C36.6977 17.2796 37.0262 17.3485 37.3553 17.4165L38.1653 13.4994C37.8436 13.4329 37.5226 13.3656 37.2024 13.2974L36.37 17.2099ZM53.1561 19.9949C53.4835 20.0352 53.8114 20.0748 54.1398 20.1137L54.6103 16.1415C54.2878 16.1033 53.9659 16.0644 53.6445 16.0249L53.1561 19.9949ZM70.0684 21.4523C70.3986 21.4694 70.7292 21.4859 71.0602 21.5018L71.2524 17.5064C70.9264 17.4908 70.6007 17.4745 70.2755 17.4576L70.0684 21.4523ZM87.0112 21.8187C87.3458 21.8164 87.6807 21.8136 88.016 21.8102L87.9758 17.8104C87.6447 17.8137 87.3141 17.8165 86.9837 17.8188L87.0112 21.8187ZM103.933 21.269C104.266 21.2501 104.599 21.2307 104.932 21.2108L104.693 17.2179C104.364 17.2375 104.035 17.2567 103.706 17.2754L103.933 21.269ZM120.804 19.9322C121.134 19.899 121.465 19.8653 121.795 19.8312L121.385 15.8523C121.057 15.8861 120.73 15.9194 120.403 15.9524L120.804 19.9322ZM137.603 17.905C137.931 17.8591 138.259 17.8129 138.586 17.7662L138.023 13.8061C137.698 13.8523 137.373 13.8982 137.048 13.9437L137.603 17.905ZM154.311 15.2608C154.637 15.2034 154.962 15.1457 155.288 15.0876L154.587 11.1496C154.264 11.2072 153.94 11.2644 153.617 11.3214L154.311 15.2608ZM170.903 12.0571C171.227 11.989 171.552 11.9206 171.877 11.8519L171.048 7.93863C170.726 8.00685 170.404 8.07475 170.082 8.14235L170.903 12.0571ZM187.389 8.33133C187.711 8.25339 188.033 8.17517 188.355 8.09666L187.407 4.21056C187.088 4.28852 186.768 4.36619 186.448 4.44357L187.389 8.33133ZM203.752 4.11379C204.072 4.02633 204.392 3.93861 204.712 3.85061L203.65 -0.00595773C203.333 0.0814299 203.015 0.168555 202.698 0.255415L203.752 4.11379ZM219.987 -0.577757C220.303 -0.674197 220.62 -0.770882 220.936 -0.867809L219.764 -4.69223C219.45 -4.59596 219.135 -4.49993 218.821 -4.40414L219.987 -0.577757ZM236.081 -5.73451C236.395 -5.84017 236.709 -5.94606 237.023 -6.05218L235.741 -9.84127C235.43 -9.73588 235.118 -9.63072 234.806 -9.52578L236.081 -5.73451ZM252.014 -11.354C252.326 -11.4692 252.638 -11.5846 252.949 -11.7002L251.557 -15.45C251.247 -15.3352 250.938 -15.2206 250.628 -15.1062L252.014 -11.354ZM267.771 -17.447C267.923 -17.5088 268.076 -17.5706 268.229 -17.6325L266.725 -21.3391C266.574 -21.2777 266.422 -21.2164 266.271 -21.1551L267.771 -17.447ZM268.229 -17.6325C268.384 -17.6957 268.54 -17.7588 268.696 -17.8218L267.195 -21.5298C267.039 -21.4663 266.882 -21.4028 266.725 -21.3391L268.229 -17.6325ZM283.481 -23.5667C283.786 -23.6801 284.09 -23.7932 284.394 -23.9058L283.005 -27.6568C282.699 -27.5433 282.392 -27.4295 282.085 -27.3152L283.481 -23.5667ZM299.337 -29.1935C299.647 -29.2978 299.956 -29.4017 300.265 -29.5052L298.993 -33.2978C298.682 -33.1935 298.371 -33.0888 298.059 -32.9837L299.337 -29.1935ZM315.35 -34.3047C315.663 -34.3991 315.976 -34.493 316.289 -34.5866L315.144 -38.419C314.828 -38.3247 314.513 -38.23 314.197 -38.1349L315.35 -34.3047ZM331.515 -38.8717C331.832 -38.9553 332.149 -39.0385 332.465 -39.1213L331.453 -42.991C331.134 -42.9075 330.814 -42.8237 330.495 -42.7393L331.515 -38.8717ZM347.825 -42.8627C348.144 -42.9348 348.464 -43.0064 348.783 -43.0776L347.912 -46.9816C347.59 -46.9098 347.267 -46.8375 346.945 -46.7648L347.825 -42.8627ZM364.264 -46.2441C364.586 -46.3038 364.907 -46.3631 365.228 -46.422L364.506 -50.3564C364.182 -50.297 363.858 -50.2371 363.533 -50.1768L364.264 -46.2441ZM380.812 -48.9807C381.135 -49.0274 381.457 -49.0736 381.778 -49.1194L381.215 -53.0795C380.89 -53.0333 380.565 -52.9866 380.239 -52.9394L380.812 -48.9807ZM397.44 -51.037C397.763 -51.0699 398.084 -51.1025 398.406 -51.1345L398.009 -55.1148C397.684 -55.0823 397.359 -55.0495 397.033 -55.0162L397.44 -51.037ZM414.153 -52.3805C414.488 -52.4 414.821 -52.419 415.155 -52.4375L414.933 -56.4313C414.596 -56.4126 414.259 -56.3934 413.921 -56.3738L414.153 -52.3805ZM430.958 -52.9739C431.29 -52.9779 431.62 -52.9815 431.95 -52.9845L431.913 -56.9844C431.579 -56.9813 431.245 -56.9777 430.91 -56.9736L430.958 -52.9739ZM447.726 -52.7774C448.053 -52.7657 448.378 -52.7535 448.703 -52.7409L448.858 -56.7379C448.529 -56.7506 448.2 -56.7629 447.87 -56.7748L447.726 -52.7774ZM464.416 -51.7621C464.75 -51.7333 465.084 -51.704 465.416 -51.6743L465.772 -55.6585C465.435 -55.6886 465.098 -55.7182 464.76 -55.7473L464.416 -51.7621ZM481.119 -49.8815C481.443 -49.8363 481.766 -49.7906 482.089 -49.7445L482.655 -53.7044C482.328 -53.751 482 -53.7973 481.672 -53.8431L481.119 -49.8815ZM497.621 -47.1175C497.949 -47.0532 498.275 -46.9886 498.601 -46.9236L499.384 -50.8462C499.054 -50.9121 498.723 -50.9776 498.391 -51.0427L497.621 -47.1175ZM513.925 -43.4302C514.248 -43.3472 514.569 -43.2639 514.89 -43.1803L515.9 -47.0507C515.575 -47.1355 515.249 -47.22 514.921 -47.3042L513.925 -43.4302ZM530.006 -38.7654C530.323 -38.6627 530.637 -38.56 530.95 -38.4571L532.199 -42.2571C531.881 -42.3616 531.562 -42.4659 531.241 -42.5701L530.006 -38.7654ZM545.779 -33.0592C546.089 -32.9345 546.398 -32.81 546.704 -32.6856L548.21 -36.3911C547.899 -36.5177 547.585 -36.6444 547.269 -36.7712L545.779 -33.0592ZM561.024 -26.2525C561.329 -26.1007 561.63 -25.9501 561.927 -25.8009L563.725 -29.3738C563.422 -29.5263 563.115 -29.6801 562.803 -29.8351L561.024 -26.2525ZM575.444 -18.0946C575.566 -18.0121 575.656 -17.9502 575.714 -17.9099C575.743 -17.8898 575.764 -17.8751 575.777 -17.8659C575.784 -17.8613 575.788 -17.8582 575.791 -17.8564C575.792 -17.8555 575.793 -17.855 575.793 -17.8548C575.793 -17.8547 575.793 -17.8547 575.793 -17.8548C575.793 -17.8548 575.793 -17.8549 575.793 -17.855C575.793 -17.855 575.793 -17.8551 575.793 -17.8551C575.793 -17.8551 575.793 -17.8552 575.793 -17.8552C575.793 -17.8552 575.792 -17.8552 575.792 -17.8553C575.792 -17.8553 575.792 -17.8553 576.951 -19.4858C578.109 -21.1163 578.109 -21.1163 578.109 -21.1164C578.109 -21.1164 578.109 -21.1164 578.109 -21.1164C578.109 -21.1164 578.109 -21.1165 578.109 -21.1165C578.108 -21.1166 578.108 -21.1167 578.108 -21.1168C578.108 -21.1169 578.108 -21.1171 578.107 -21.1174C578.107 -21.1178 578.106 -21.1183 578.105 -21.119C578.103 -21.1202 578.101 -21.1218 578.098 -21.1237C578.093 -21.1276 578.085 -21.133 578.076 -21.1397C578.057 -21.1531 578.03 -21.172 577.994 -21.1964C577.924 -21.2452 577.822 -21.3156 577.687 -21.4066L575.444 -18.0946ZM576.229 -17.6205C576.38 -17.5623 576.53 -17.5038 576.68 -17.4449L578.139 -21.1695C577.983 -21.2304 577.828 -21.2909 577.672 -21.3511L576.229 -17.6205ZM590.813 -10.8179C591.097 -10.6625 591.38 -10.5059 591.663 -10.3482L593.611 -13.8418C593.319 -14.0044 593.027 -14.1658 592.735 -14.3259L590.813 -10.8179ZM604.87 -1.95705C605.134 -1.7679 605.398 -1.57769 605.662 -1.38643L608.01 -4.62442C607.74 -4.82077 607.468 -5.01607 607.197 -5.21031L604.87 -1.95705ZM617.882 8.44626C618.126 8.66312 618.371 8.88091 618.614 9.09961L621.286 6.12214C621.036 5.89836 620.786 5.67549 620.536 5.45356L617.882 8.44626ZM629.842 20.0952C630.066 20.3345 630.291 20.5747 630.515 20.8156L633.445 18.0926C633.216 17.8468 632.987 17.6018 632.758 17.3575L629.842 20.0952ZM640.774 32.7479C640.979 33.0053 641.184 33.2633 641.388 33.5221L644.527 31.043C644.319 30.7796 644.111 30.5168 643.902 30.2547L640.774 32.7479ZM650.718 46.2134C650.904 46.4853 651.09 46.7579 651.276 47.031L654.585 44.7842C654.396 44.5066 654.208 44.2296 654.018 43.9531L650.718 46.2134ZM659.717 60.3433C659.885 60.627 660.053 60.9112 660.22 61.196L663.669 59.1706C663.499 58.8816 663.329 58.5931 663.159 58.3051L659.717 60.3433ZM667.811 75.0218C667.961 75.3151 668.111 75.6089 668.261 75.9031L671.826 74.0899C671.675 73.7916 671.522 73.4937 671.37 73.1963L667.811 75.0218ZM675.033 90.1575C675.166 90.4586 675.299 90.7602 675.432 91.0621L679.094 89.4538C678.96 89.1479 678.825 88.8424 678.69 88.5373L675.033 90.1575ZM681.408 105.676C681.525 105.984 681.642 106.292 681.758 106.6L685.501 105.191C685.384 104.879 685.266 104.567 685.148 104.256L681.408 105.676ZM686.956 121.515C687.057 121.828 687.157 122.142 687.257 122.455L691.068 121.242C690.967 120.925 690.866 120.608 690.764 120.291L686.956 121.515ZM691.686 137.622C691.771 137.939 691.855 138.257 691.938 138.575L695.807 137.557C695.722 137.235 695.637 136.913 695.551 136.592L691.686 137.622ZM695.602 153.948C695.671 154.269 695.739 154.59 695.806 154.912L699.721 154.087C699.652 153.762 699.583 153.437 699.514 153.112L695.602 153.948ZM698.701 170.448C698.754 170.772 698.806 171.097 698.858 171.421L702.808 170.792C702.755 170.464 702.703 170.136 702.65 169.808L698.701 170.448ZM700.975 187.081C701.012 187.407 701.047 187.734 701.083 188.06L705.06 187.629C705.024 187.299 704.987 186.969 704.951 186.638L700.975 187.081ZM702.41 203.799C702.43 204.128 702.449 204.457 702.468 204.786L706.462 204.558C706.443 204.225 706.423 203.891 706.403 203.558L702.41 203.799ZM702.988 220.566C702.991 220.895 702.994 221.224 702.995 221.553L706.995 221.532C706.993 221.198 706.991 220.865 706.988 220.532L702.988 220.566ZM702.687 237.339C702.672 237.667 702.657 237.996 702.641 238.325L706.637 238.516C706.653 238.183 706.668 237.85 706.683 237.517L702.687 237.339ZM701.479 254.068C701.446 254.395 701.413 254.722 701.379 255.049L705.358 255.461C705.392 255.129 705.426 254.798 705.459 254.466L701.479 254.068ZM699.336 270.698C699.285 271.022 699.233 271.347 699.18 271.672L703.129 272.31C703.182 271.981 703.235 271.652 703.287 271.323L699.336 270.698ZM696.228 287.169C696.158 287.49 696.087 287.811 696.015 288.132L699.919 289.005C699.991 288.679 700.064 288.354 700.135 288.028L696.228 287.169ZM692.127 303.415C692.037 303.731 691.946 304.047 691.855 304.362L695.696 305.476C695.789 305.156 695.882 304.835 695.973 304.515L692.127 303.415ZM687.007 319.364C686.897 319.673 686.786 319.982 686.674 320.291L690.435 321.651C690.549 321.338 690.662 321.024 690.774 320.71L687.007 319.364ZM680.846 334.939C680.716 335.24 680.584 335.54 680.452 335.84L684.113 337.451C684.248 337.146 684.381 336.841 684.514 336.536L680.846 334.939ZM673.639 350.045C673.487 350.336 673.334 350.628 673.181 350.919L676.721 352.782C676.877 352.486 677.032 352.189 677.186 351.893L673.639 350.045ZM665.386 364.595C665.214 364.875 665.041 365.155 664.867 365.434L668.264 367.546C668.441 367.262 668.617 366.977 668.792 366.692L665.386 364.595ZM656.104 378.504C655.912 378.77 655.719 379.036 655.525 379.302L658.758 381.657C658.955 381.387 659.152 381.116 659.348 380.845L656.104 378.504ZM645.823 391.69C645.612 391.94 645.401 392.191 645.188 392.441L648.238 395.03C648.454 394.775 648.67 394.52 648.885 394.264L645.823 391.69ZM634.588 404.082C634.36 404.316 634.131 404.549 633.901 404.782L636.751 407.589C636.984 407.352 637.217 407.114 637.45 406.877L634.588 404.082ZM622.452 415.624C622.208 415.839 621.964 416.054 621.719 416.269L624.355 419.277C624.604 419.059 624.852 418.841 625.1 418.622L622.452 415.624ZM609.497 426.26C609.233 426.462 608.969 426.662 608.703 426.863L611.116 430.054C611.385 429.85 611.654 429.646 611.923 429.441L609.497 426.26ZM595.885 435.908C595.609 436.09 595.331 436.272 595.054 436.453L597.239 439.803C597.521 439.619 597.803 439.435 598.084 439.25L595.885 435.908ZM581.627 444.621C581.341 444.783 581.055 444.944 580.768 445.106L582.726 448.593C583.018 448.43 583.308 448.266 583.599 448.101L581.627 444.621ZM566.779 452.414C566.487 452.556 566.194 452.698 565.901 452.839L567.634 456.444C567.932 456.3 568.229 456.157 568.526 456.013L566.779 452.414ZM551.403 459.307C551.248 459.372 551.093 459.436 550.937 459.5L552.457 463.199C552.615 463.135 552.773 463.07 552.93 463.005L551.403 459.307ZM-7.81294 462.696C-7.68134 462.599 -7.54933 462.502 -7.41691 462.406L-9.7728 459.173C-9.91129 459.274 -10.0494 459.375 -10.1871 459.477L-7.81294 462.696ZM6.18233 454.137C6.47862 453.986 6.77623 453.836 7.07515 453.688L5.29334 450.106C4.98423 450.26 4.67638 450.415 4.36981 450.571L6.18233 454.137ZM21.8419 447.459C22.1594 447.346 22.478 447.233 22.7975 447.122L21.4806 443.345C21.1528 443.459 20.826 443.574 20.5002 443.69L21.8419 447.459ZM38.2211 442.553C38.5468 442.472 38.8732 442.392 39.2004 442.312L38.2531 438.426C37.9194 438.507 37.5864 438.589 37.2542 438.672L38.2211 442.553ZM54.9992 439.079C55.3276 439.024 55.6566 438.969 55.9862 438.915L55.3368 434.968C55.0019 435.023 54.6676 435.078 54.3339 435.135L54.9992 439.079ZM71.998 436.774C72.3324 436.739 72.6673 436.705 73.0026 436.671L72.599 432.691C72.2593 432.726 71.92 432.761 71.5811 432.796L71.998 436.774ZM89.1183 435.446C89.4569 435.429 89.7958 435.412 90.1351 435.395L89.9393 431.4C89.5962 431.417 89.2534 431.434 88.911 431.452L89.1183 435.446ZM106.301 434.954C106.639 434.952 106.977 434.95 107.316 434.949L107.3 430.949C106.958 430.95 106.616 430.952 106.275 430.954L106.301 434.954ZM123.506 435.194C123.843 435.205 124.18 435.217 124.517 435.229L124.661 431.231C124.32 431.219 123.98 431.207 123.64 431.196L123.506 435.194ZM140.703 436.089C141.038 436.113 141.374 436.137 141.711 436.161L141.998 432.171C141.659 432.147 141.321 432.123 140.982 432.099L140.703 436.089ZM157.858 437.583C158.195 437.618 158.531 437.653 158.868 437.689L159.288 433.711C158.949 433.675 158.61 433.639 158.271 433.604L157.858 437.583ZM174.957 439.634C175.292 439.679 175.626 439.725 175.961 439.771L176.507 435.809C176.17 435.762 175.833 435.716 175.495 435.67L174.957 439.634ZM191.99 442.214C192.323 442.27 192.657 442.326 192.99 442.382L193.656 438.438C193.32 438.382 192.985 438.325 192.649 438.269L191.99 442.214ZM208.935 445.307C209.267 445.372 209.598 445.438 209.93 445.505L210.714 441.582C210.38 441.515 210.046 441.449 209.712 441.383L208.935 445.307ZM225.786 448.906C226.115 448.981 226.444 449.057 226.772 449.133L227.674 445.236C227.343 445.159 227.012 445.083 226.681 445.007L225.786 448.906ZM242.517 453.014C242.844 453.1 243.171 453.186 243.498 453.272L244.519 449.404C244.19 449.318 243.861 449.231 243.531 449.145L242.517 453.014ZM259.1 457.643C259.426 457.74 259.75 457.837 260.075 457.934L261.221 454.101C260.894 454.004 260.566 453.906 260.239 453.809L259.1 457.643ZM275.513 462.822C275.672 462.876 275.831 462.929 275.989 462.982L277.264 459.191C277.104 459.137 276.944 459.083 276.784 459.03L275.513 462.822ZM275.989 462.982C276.145 463.035 276.301 463.087 276.457 463.139L277.728 459.346C277.573 459.295 277.419 459.243 277.264 459.191L275.989 462.982ZM291.352 467.841C291.667 467.935 291.982 468.028 292.297 468.12L293.426 464.283C293.114 464.191 292.802 464.099 292.489 464.006L291.352 467.841ZM307.358 472.264C307.676 472.345 307.993 472.426 308.31 472.507L309.294 468.63C308.98 468.55 308.666 468.47 308.351 468.389L307.358 472.264ZM323.515 476.081C323.834 476.15 324.153 476.218 324.471 476.287L325.309 472.375C324.993 472.308 324.677 472.24 324.361 472.171L323.515 476.081ZM339.795 479.283C340.115 479.34 340.434 479.396 340.754 479.452L341.443 475.512C341.126 475.457 340.81 475.401 340.493 475.345L339.795 479.283ZM356.168 481.865C356.488 481.91 356.807 481.954 357.127 481.997L357.666 478.034C357.35 477.991 357.033 477.947 356.716 477.903L356.168 481.865ZM372.627 483.826C372.955 483.859 373.282 483.891 373.609 483.923L373.998 479.942C373.674 479.911 373.35 479.879 373.025 479.846L372.627 483.826ZM389.193 485.166C389.518 485.186 389.844 485.205 390.169 485.225L390.406 481.232C390.084 481.213 389.762 481.193 389.439 481.173L389.193 485.166ZM405.757 485.875C406.08 485.883 406.402 485.89 406.724 485.897L406.811 481.898C406.492 481.891 406.173 481.884 405.853 481.876L405.757 485.875ZM422.345 485.957C422.674 485.953 423.002 485.948 423.329 485.943L423.265 481.943C422.94 481.948 422.615 481.953 422.29 481.958L422.345 485.957ZM438.937 485.412C439.259 485.395 439.582 485.378 439.903 485.361L439.687 481.366C439.368 481.384 439.049 481.401 438.73 481.417L438.937 485.412ZM455.487 484.238C455.814 484.208 456.14 484.178 456.465 484.148L456.097 480.165C455.775 480.195 455.452 480.224 455.128 480.254L455.487 484.238ZM471.944 482.436C472.271 482.394 472.597 482.352 472.922 482.309L472.401 478.343C472.079 478.385 471.756 478.427 471.433 478.469L471.944 482.436ZM488.385 479.989C488.701 479.935 489.016 479.882 489.329 479.828L488.653 475.885C488.343 475.939 488.031 475.992 487.718 476.045L488.385 479.989ZM504.687 476.893C504.999 476.827 505.309 476.761 505.618 476.695L504.782 472.783C504.476 472.849 504.169 472.914 503.86 472.979L504.687 476.893ZM520.86 473.114C521.184 473.031 521.506 472.948 521.825 472.865L520.819 468.993C520.503 469.076 520.185 469.158 519.864 469.24L520.86 473.114ZM536.839 468.596C537.166 468.494 537.489 468.393 537.807 468.294L536.607 464.478C536.293 464.576 535.975 464.676 535.653 464.776L536.839 468.596ZM552.586 463.113C552.731 463.055 552.84 463.01 552.915 462.979C552.952 462.963 552.981 462.951 553.001 462.943C553.011 462.939 553.018 462.936 553.024 462.934C553.026 462.932 553.029 462.931 553.03 462.931C553.031 462.93 553.032 462.93 553.032 462.93C553.033 462.93 553.033 462.93 553.033 462.93C553.033 462.93 553.033 462.93 553.033 462.93C553.033 462.929 553.033 462.929 553.033 462.929C553.033 462.929 553.033 462.929 553.033 462.929C553.033 462.929 553.034 462.929 552.257 461.086C551.48 459.244 551.48 459.244 551.48 459.244C551.48 459.244 551.48 459.244 551.48 459.244C551.48 459.244 551.48 459.243 551.48 459.243C551.48 459.243 551.48 459.243 551.48 459.243C551.48 459.243 551.48 459.243 551.48 459.243C551.48 459.243 551.48 459.243 551.48 459.244C551.479 459.244 551.478 459.244 551.476 459.245C551.473 459.246 551.467 459.249 551.46 459.252C551.444 459.258 551.42 459.269 551.387 459.282C551.321 459.31 551.22 459.351 551.084 459.406L552.586 463.113ZM267.477 -19.4858L268.98 -15.7792L267.477 -19.4858ZM576.951 -19.4858L574.634 -16.2248C574.905 -16.0326 575.198 -15.8748 575.508 -15.7551L576.951 -19.4858ZM276.627 461.086L275.352 464.878L275.352 464.878L276.627 461.086ZM550.177 457.65C548.134 458.489 547.158 460.827 547.997 462.87C548.837 464.913 551.174 465.889 553.218 465.049L550.177 457.65ZM-10.959 -0.408679C-9.17349 0.89217 -6.6715 0.499265 -5.37065 -1.28626C-4.0698 -3.07178 -4.4627 -5.57378 -6.24823 -6.87462L-10.959 -0.408679ZM6.72295 0.941345C4.7447 -0.0419408 2.34391 0.764631 1.36062 2.74287C0.377339 4.72112 1.18391 7.12191 3.16215 8.1052L6.72295 0.941345ZM4.08372 8.5579C6.07105 9.52269 8.46421 8.69376 9.429 6.70643C10.3938 4.7191 9.56486 2.32594 7.57754 1.36115L4.08372 8.5579ZM21.7783 7.08596C19.6812 6.39133 17.418 7.52825 16.7234 9.62534C16.0288 11.7224 17.1657 13.9856 19.2628 14.6802L21.7783 7.08596ZM20.2388 14.9995C22.341 15.6788 24.5957 14.5254 25.275 12.4233C25.9543 10.3212 24.8008 8.0664 22.6987 7.38712L20.2388 14.9995ZM37.6185 11.3412C35.4578 10.8815 33.3334 12.2605 32.8737 14.4213C32.4141 16.5821 33.7931 18.7064 35.9538 19.1661L37.6185 11.3412ZM36.9503 19.3751C39.1137 19.8224 41.2301 18.4313 41.6774 16.2679C42.1248 14.1046 40.7336 11.9882 38.5703 11.5408L36.9503 19.3751ZM53.8887 14.0398C51.6961 13.7701 49.7 15.3289 49.4302 17.5215C49.1605 19.7141 50.7192 21.7102 52.9118 21.98L53.8887 14.0398ZM53.9046 22.0998C56.0984 22.3597 58.0875 20.7919 58.3473 18.5981C58.6072 16.4043 57.0394 14.4152 54.8456 14.1554L53.9046 22.0998ZM70.379 15.4603C68.1728 15.3459 66.2917 17.0417 66.1773 19.2478C66.0629 21.454 67.7586 23.3352 69.9648 23.4496L70.379 15.4603ZM70.9641 23.4995C73.1707 23.6057 75.0456 21.9029 75.1517 19.6963C75.2579 17.4898 73.5551 15.6149 71.3485 15.5088L70.9641 23.4995ZM86.9699 15.8188C84.7609 15.834 82.9824 17.6372 82.9975 19.8462C83.0127 22.0553 84.8159 23.8338 87.0249 23.8187L86.9699 15.8188ZM88.0361 23.8101C90.2451 23.7879 92.0179 21.9791 91.9957 19.7701C91.9735 17.561 90.1647 15.7883 87.9557 15.8105L88.0361 23.8101ZM103.592 15.2787C101.387 15.4042 99.7005 17.2939 99.826 19.4994C99.9515 21.705 101.841 23.3912 104.047 23.2657L103.592 15.2787ZM105.051 23.2072C107.256 23.0757 108.937 21.1814 108.805 18.9762C108.674 16.771 106.78 15.0899 104.574 15.2214L105.051 23.2072ZM120.203 13.9624C118.005 14.1838 116.402 16.1451 116.624 18.3431C116.845 20.5412 118.807 22.1435 121.005 21.9222L120.203 13.9624ZM122 21.8207C124.198 21.594 125.795 19.6289 125.569 17.4314C125.342 15.2339 123.377 13.6362 121.179 13.8629L122 21.8207ZM136.771 11.963C134.583 12.2693 133.058 14.2913 133.364 16.479C133.671 18.6668 135.693 20.192 137.88 19.8857L136.771 11.963ZM138.868 19.7463C141.055 19.4352 142.576 17.4101 142.265 15.2229C141.954 13.0358 139.929 11.5149 137.742 11.826L138.868 19.7463ZM153.27 9.35167C151.094 9.73476 149.641 11.8091 150.024 13.9847C150.408 16.1604 152.482 17.6136 154.657 17.2305L153.27 9.35167ZM155.639 17.0566C157.814 16.6692 159.263 14.5921 158.876 12.4172C158.488 10.2423 156.411 8.79319 154.236 9.18058L155.639 17.0566ZM169.671 6.18496C167.509 6.63857 166.124 8.759 166.577 10.9211C167.031 13.0831 169.151 14.4681 171.314 14.0145L169.671 6.18496ZM172.291 13.8085C174.452 13.3509 175.833 11.2279 175.376 9.06667C174.918 6.90545 172.795 5.5244 170.634 5.98201L172.291 13.8085ZM185.978 2.49969C183.831 3.01936 182.511 5.18124 183.031 7.32839C183.551 9.47553 185.712 10.7949 187.86 10.2752L185.978 2.49969ZM188.829 10.0397C190.975 9.51626 192.291 7.35206 191.767 5.20583C191.244 3.0596 189.08 1.74407 186.933 2.26752L188.829 10.0397ZM202.17 -1.67377C200.039 -1.09114 198.784 1.10863 199.367 3.23955C199.949 5.37047 202.149 6.62561 204.28 6.04298L202.17 -1.67377ZM205.243 5.7789C207.372 5.19263 208.624 2.99072 208.038 0.860796C207.451 -1.26913 205.249 -2.52051 203.12 -1.93424L205.243 5.7789ZM218.238 -6.31734C216.125 -5.67356 214.934 -3.43855 215.577 -1.32529C216.221 0.787963 218.456 1.97921 220.569 1.33544L218.238 -6.31734ZM221.522 1.0444C223.634 0.397064 224.822 -1.83996 224.174 -3.95212C223.527 -6.06429 221.29 -7.25177 219.178 -6.60444L221.522 1.0444ZM234.168 -11.4214C232.074 -10.7171 230.948 -8.44875 231.652 -6.35489C232.357 -4.26103 234.625 -3.13457 236.719 -3.83887L234.168 -11.4214ZM237.664 -4.15763C239.756 -4.8655 240.879 -7.13578 240.171 -9.22843C239.463 -11.3211 237.193 -12.4437 235.1 -11.7358L237.664 -4.15763ZM249.935 -16.9823C247.863 -16.2169 246.804 -13.9165 247.569 -11.8442C248.334 -9.77187 250.635 -8.71243 252.707 -9.47786L249.935 -16.9823ZM253.645 -9.82534C255.716 -10.5944 256.772 -12.8967 256.003 -14.9677C255.234 -17.0386 252.931 -18.094 250.86 -17.3249L253.645 -9.82534ZM265.521 -23.0091C263.473 -22.1806 262.484 -19.8488 263.313 -17.8009C264.141 -15.753 266.473 -14.7645 268.521 -15.593L265.521 -23.0091ZM269.446 -15.9679C271.494 -16.7965 272.482 -19.1284 271.654 -21.1762C270.825 -23.224 268.493 -24.2124 266.445 -23.3837L269.446 -15.9679ZM281.387 -29.1895C279.317 -28.4186 278.264 -26.1153 279.035 -24.0451C279.806 -21.9748 282.109 -20.9215 284.179 -21.6924L281.387 -29.1895ZM285.089 -22.0303C287.16 -22.7976 288.218 -25.099 287.451 -27.1706C286.683 -29.2422 284.382 -30.2996 282.31 -29.5323L285.089 -22.0303ZM297.42 -34.8789C295.327 -34.173 294.202 -31.9037 294.908 -29.8104C295.614 -27.7171 297.883 -26.5924 299.977 -27.2983L297.42 -34.8789ZM300.9 -27.6088C302.995 -28.3108 304.124 -30.578 303.422 -32.6726C302.72 -34.7672 300.453 -35.8962 298.358 -35.1941L300.9 -27.6088ZM313.62 -40.05C311.505 -39.4131 310.306 -37.182 310.943 -35.0667C311.58 -32.9513 313.811 -31.7528 315.926 -32.3897L313.62 -40.05ZM316.862 -32.6704C318.979 -33.3031 320.182 -35.5318 319.549 -37.6484C318.916 -39.765 316.688 -40.9679 314.571 -40.3352L316.862 -32.6704ZM329.984 -44.6732C327.848 -44.1096 326.574 -41.9211 327.137 -39.7851C327.701 -37.649 329.889 -36.3743 332.025 -36.9379L329.984 -44.6732ZM332.971 -37.1864C335.108 -37.7455 336.388 -39.9313 335.829 -42.0685C335.269 -44.2057 333.084 -45.485 330.946 -44.9259L332.971 -37.1864ZM346.505 -48.7158C344.35 -48.23 342.997 -46.0892 343.483 -43.9341C343.969 -41.7791 346.109 -40.4259 348.264 -40.9117L346.505 -48.7158ZM349.218 -41.1256C351.374 -41.6068 352.732 -43.7447 352.251 -45.9008C351.77 -48.0569 349.632 -49.4147 347.476 -48.9336L349.218 -41.1256ZM363.168 -52.1432C360.996 -51.7397 359.562 -49.6518 359.966 -47.4799C360.369 -45.3079 362.457 -43.8742 364.629 -44.2778L363.168 -52.1432ZM365.588 -44.4548C367.761 -44.8534 369.2 -46.9379 368.801 -49.1108C368.403 -51.2837 366.318 -52.7221 364.145 -52.3236L365.588 -44.4548ZM379.952 -54.9188C377.766 -54.6023 376.25 -52.5733 376.567 -50.3869C376.883 -48.2006 378.912 -46.6848 381.099 -47.0013L379.952 -54.9188ZM382.06 -47.1394C384.247 -47.4507 385.768 -49.4761 385.457 -51.6632C385.145 -53.8502 383.12 -55.3709 380.933 -55.0595L382.06 -47.1394ZM396.83 -57.0058C394.632 -56.7809 393.033 -54.8171 393.258 -52.6194C393.482 -50.4217 395.446 -48.8225 397.644 -49.0473L396.83 -57.0058ZM398.605 -49.1444C400.803 -49.3638 402.407 -51.3237 402.187 -53.5219C401.968 -55.7202 400.008 -57.3243 397.81 -57.1049L398.605 -49.1444ZM413.805 -58.3704C411.599 -58.242 409.916 -56.3502 410.044 -54.1448C410.172 -51.9393 412.064 -50.2556 414.269 -50.3839L413.805 -58.3704ZM415.265 -50.4405C417.471 -50.563 419.16 -52.4503 419.038 -54.6561C418.915 -56.8618 417.028 -58.5507 414.822 -58.4282L415.265 -50.4405ZM430.886 -58.9735C428.677 -58.9467 426.908 -57.1343 426.935 -54.9253C426.961 -52.7164 428.774 -50.9473 430.983 -50.9741L430.886 -58.9735ZM431.969 -50.9846C434.178 -51.0052 435.952 -52.8127 435.932 -55.0218C435.911 -57.2308 434.104 -59.0049 431.894 -58.9843L431.969 -50.9846ZM447.942 -58.7735C445.734 -58.8528 443.88 -57.1274 443.801 -54.9197C443.721 -52.712 445.447 -50.858 447.654 -50.7787L447.942 -58.7735ZM448.626 -50.7424C450.833 -50.6567 452.692 -52.3768 452.778 -54.5843C452.864 -56.7918 451.143 -58.6507 448.936 -58.7364L448.626 -50.7424ZM464.931 -57.7399C462.73 -57.9296 460.792 -56.2992 460.603 -54.0982C460.413 -51.8972 462.043 -49.9592 464.244 -49.7695L464.931 -57.7399ZM465.238 -49.6823C467.439 -49.4858 469.382 -51.1103 469.578 -53.3106C469.775 -55.511 468.15 -57.4541 465.95 -57.6506L465.238 -49.6823ZM481.948 -55.8239C479.76 -56.1293 477.739 -54.6032 477.433 -52.4152C477.128 -50.2273 478.654 -48.2061 480.842 -47.9007L481.948 -55.8239ZM481.807 -47.7646C483.993 -47.4524 486.019 -48.9721 486.332 -51.1591C486.644 -53.3461 485.124 -55.3721 482.937 -55.6843L481.807 -47.7646ZM498.776 -53.0053C496.608 -53.4305 494.506 -52.0179 494.081 -49.8501C493.656 -47.6822 495.068 -45.5801 497.236 -45.1549L498.776 -53.0053ZM498.209 -44.9623C500.376 -44.5297 502.483 -45.9353 502.915 -48.1017C503.348 -50.2681 501.942 -52.3749 499.776 -52.8074L498.209 -44.9623ZM515.419 -49.2411C513.28 -49.7913 511.099 -48.5029 510.549 -46.3634C509.999 -44.2239 511.287 -42.0434 513.427 -41.4932L515.419 -49.2411ZM514.385 -41.2451C516.522 -40.6873 518.707 -41.9679 519.265 -44.1055C519.823 -46.243 518.542 -48.428 516.405 -48.9859L514.385 -41.2451ZM531.858 -44.4725C529.757 -45.1542 527.501 -44.0035 526.819 -41.9022C526.137 -39.8009 527.288 -37.5447 529.389 -36.863L531.858 -44.4725ZM530.326 -36.5571C532.424 -35.8673 534.685 -37.0094 535.375 -39.1081C536.065 -41.2067 534.923 -43.4672 532.824 -44.1571L530.326 -36.5571ZM548.014 -38.6272C545.964 -39.4503 543.635 -38.4556 542.812 -36.4055C541.989 -34.3555 542.984 -32.0263 545.034 -31.2032L548.014 -38.6272ZM545.951 -30.8328C547.997 -30.0009 550.33 -30.9855 551.162 -33.032C551.994 -35.0785 551.01 -37.412 548.963 -38.2439L545.951 -30.8328ZM563.692 -31.6264C561.713 -32.609 559.313 -31.8015 558.33 -29.8228C557.348 -27.8442 558.155 -25.4437 560.134 -24.4612L563.692 -31.6264ZM561.027 -24.0145C563.001 -23.0212 565.406 -23.8156 566.399 -25.7888C567.392 -27.762 566.598 -30.1669 564.625 -31.1602L561.027 -24.0145ZM578.809 -23.0627C576.98 -24.3013 574.492 -23.8226 573.254 -21.9934C572.015 -20.1642 572.494 -17.6772 574.323 -16.4385L578.809 -23.0627ZM575.951 -15.5826C578.008 -14.7771 580.328 -15.7916 581.134 -17.8486C581.94 -19.9057 580.925 -22.2263 578.868 -23.0318L575.951 -15.5826ZM593.696 -16.08C591.758 -17.1414 589.327 -16.4312 588.266 -14.4937C587.205 -12.5563 587.915 -10.1252 589.852 -9.06383L593.696 -16.08ZM590.689 -8.60138C592.618 -7.52556 595.055 -8.21759 596.131 -10.1471C597.206 -12.0766 596.514 -14.5128 594.585 -15.5887L590.689 -8.60138ZM608.361 -6.83693C606.564 -8.12227 604.065 -7.7077 602.78 -5.91098C601.495 -4.11426 601.909 -1.61576 603.706 -0.330424L608.361 -6.83693ZM604.488 0.232561C606.276 1.5296 608.777 1.13137 610.074 -0.656924C611.371 -2.44521 610.973 -4.94637 609.185 -6.24341L604.488 0.232561ZM621.863 3.95721C620.21 2.49144 617.682 2.64308 616.216 4.2959C614.75 5.94873 614.902 8.47684 616.555 9.94261L621.863 3.95721ZM617.279 10.5884C618.923 12.0635 621.452 11.9264 622.927 10.2819C624.403 8.63754 624.265 6.10859 622.621 4.6334L617.279 10.5884ZM634.216 15.9887C632.704 14.378 630.173 14.2981 628.562 15.8101C626.952 17.322 626.872 19.8534 628.384 21.4641L634.216 15.9887ZM629.049 22.177C630.553 23.7953 633.084 23.888 634.703 22.3842C636.321 20.8803 636.414 18.3494 634.91 16.7311L629.049 22.177ZM645.466 29.0082C644.089 27.2806 641.572 26.9964 639.845 28.3733C638.117 29.7503 637.833 32.2669 639.21 33.9944L645.466 29.0082ZM639.819 34.7616C641.188 36.4953 643.703 36.7909 645.437 35.4217C647.17 34.0526 647.466 31.5372 646.097 29.8035L639.819 34.7616ZM655.668 42.823C654.42 41.0004 651.931 40.5348 650.108 41.783C648.285 43.0313 647.82 45.5208 649.068 47.3435L655.668 42.823ZM649.621 48.1544C650.862 49.9821 653.349 50.4578 655.177 49.2169C657.005 47.9761 657.48 45.4885 656.24 43.6608L649.621 48.1544ZM664.88 57.286C663.754 55.3851 661.301 54.7567 659.4 55.8824C657.499 57.0081 656.87 59.4615 657.996 61.3624L664.88 57.286ZM658.495 62.2087C659.614 64.1137 662.065 64.7512 663.97 63.6326C665.875 62.514 666.512 60.0629 665.394 58.1579L658.495 62.2087ZM673.15 72.2836C672.141 70.3179 669.731 69.5417 667.765 70.5499C665.799 71.5581 665.023 73.9689 666.031 75.9346L673.15 72.2836ZM666.478 76.8096C667.48 78.7788 669.888 79.5633 671.857 78.5619C673.826 77.5605 674.61 75.1524 673.609 73.1833L666.478 76.8096ZM680.518 87.7272C679.624 85.7074 677.261 84.7954 675.241 85.6902C673.221 86.585 672.309 88.9478 673.204 90.9676L680.518 87.7272ZM673.6 91.8662C674.489 93.8889 676.848 94.8086 678.871 93.9203C680.894 93.0321 681.814 90.6723 680.925 88.6496L673.6 91.8662ZM687.017 103.545C686.233 101.48 683.923 100.442 681.858 101.226C679.793 102.011 678.754 104.321 679.539 106.386L687.017 103.545ZM679.886 107.304C680.664 109.372 682.971 110.417 685.038 109.639C687.106 108.861 688.151 106.554 687.373 104.487L679.886 107.304ZM692.668 119.679C691.992 117.576 689.739 116.419 687.636 117.095C685.533 117.771 684.376 120.024 685.052 122.127L692.668 119.679ZM685.351 123.062C686.021 125.167 688.27 126.33 690.375 125.661C692.48 124.991 693.644 122.741 692.974 120.636L685.351 123.062ZM697.484 136.077C696.915 133.942 694.723 132.673 692.589 133.242C690.454 133.811 689.185 136.002 689.753 138.137L697.484 136.077ZM690.004 139.084C690.567 141.221 692.755 142.497 694.891 141.934C697.027 141.372 698.303 139.184 697.741 137.047L690.004 139.084ZM701.47 152.694C701.008 150.534 698.882 149.157 696.722 149.618C694.562 150.08 693.184 152.205 693.646 154.366L701.47 152.694ZM693.849 155.324C694.305 157.486 696.426 158.869 698.588 158.414C700.75 157.959 702.133 155.837 701.678 153.675L693.849 155.324ZM704.624 169.488C704.27 167.307 702.215 165.826 700.035 166.18C697.854 166.533 696.373 168.588 696.727 170.769L704.624 169.488ZM696.882 171.736C697.23 173.917 699.28 175.404 701.462 175.057C703.643 174.71 705.13 172.659 704.783 170.478L696.882 171.736ZM706.938 186.417C706.694 184.221 704.716 182.64 702.52 182.884C700.325 183.128 698.743 185.106 698.987 187.302L706.938 186.417ZM699.094 188.276C699.332 190.472 701.306 192.059 703.502 191.822C705.698 191.584 707.286 189.61 707.048 187.414L699.094 188.276ZM708.399 203.438C708.266 201.233 706.371 199.553 704.166 199.686C701.961 199.819 700.281 201.714 700.414 203.92L708.399 203.438ZM700.472 204.901C700.598 207.106 702.488 208.792 704.694 208.666C706.899 208.539 708.585 206.649 708.458 204.443L700.472 204.901ZM708.988 220.515C708.969 218.306 707.163 216.53 704.954 216.549C702.745 216.568 700.97 218.374 700.988 220.583L708.988 220.515ZM700.995 221.564C701.007 223.773 702.808 225.554 705.017 225.543C707.226 225.531 709.007 223.73 708.995 221.521L700.995 221.564ZM708.681 237.607C708.78 235.4 707.071 233.531 704.864 233.432C702.657 233.333 700.788 235.042 700.689 237.249L708.681 237.607ZM700.643 238.229C700.538 240.435 702.241 242.31 704.447 242.416C706.654 242.522 708.529 240.818 708.634 238.612L700.643 238.229ZM707.449 254.665C707.669 252.467 706.066 250.507 703.867 250.287C701.669 250.067 699.709 251.67 699.489 253.868L707.449 254.665ZM699.39 254.843C699.162 257.041 700.76 259.006 702.957 259.234C705.154 259.461 707.12 257.864 707.347 255.666L699.39 254.843ZM705.262 271.635C705.608 269.453 704.119 267.405 701.937 267.059C699.755 266.714 697.706 268.203 697.361 270.385L705.262 271.635ZM697.206 271.352C696.853 273.533 698.335 275.587 700.516 275.94C702.697 276.292 704.751 274.811 705.103 272.63L697.206 271.352ZM702.088 288.457C702.563 286.3 701.198 284.166 699.041 283.692C696.883 283.217 694.75 284.582 694.275 286.739L702.088 288.457ZM694.063 287.695C693.581 289.851 694.938 291.989 697.094 292.472C699.25 292.954 701.388 291.597 701.87 289.441L694.063 287.695ZM697.896 305.065C698.504 302.941 697.274 300.726 695.15 300.119C693.026 299.512 690.812 300.741 690.205 302.865L697.896 305.065ZM689.934 303.805C689.319 305.927 690.54 308.145 692.662 308.761C694.783 309.376 697.002 308.155 697.617 306.033L689.934 303.805ZM692.657 321.383C693.401 319.303 692.317 317.014 690.236 316.271C688.156 315.527 685.867 316.611 685.124 318.691L692.657 321.383ZM684.793 319.61C684.042 321.688 685.117 323.981 687.194 324.733C689.271 325.484 691.565 324.409 692.316 322.332L684.793 319.61ZM686.348 337.334C687.229 335.308 686.302 332.951 684.277 332.07C682.251 331.188 679.894 332.115 679.013 334.141L686.348 337.334ZM678.622 335.034C677.732 337.056 678.65 339.417 680.672 340.306C682.694 341.196 685.054 340.278 685.944 338.256L678.622 335.034ZM678.96 352.817C679.981 350.857 679.22 348.442 677.261 347.421C675.301 346.401 672.886 347.161 671.865 349.121L678.96 352.817ZM671.411 349.988C670.382 351.943 671.133 354.362 673.088 355.39C675.043 356.419 677.462 355.668 678.491 353.713L671.411 349.988ZM670.495 367.741C671.654 365.86 671.068 363.396 669.187 362.238C667.306 361.079 664.842 361.665 663.683 363.546L670.495 367.741ZM663.168 364.378C662.002 366.255 662.577 368.721 664.453 369.887C666.329 371.054 668.796 370.479 669.962 368.602L663.168 364.378ZM660.969 382.015C662.262 380.224 661.858 377.724 660.067 376.431C658.276 375.138 655.775 375.542 654.483 377.333L660.969 382.015ZM653.909 378.125C652.608 379.91 653.001 382.412 654.787 383.713C656.572 385.014 659.074 384.621 660.375 382.835L653.909 378.125ZM650.415 395.552C651.837 393.861 651.619 391.338 649.929 389.916C648.238 388.494 645.715 388.712 644.293 390.402L650.415 395.552ZM643.663 391.147C642.234 392.832 642.441 395.356 644.125 396.785C645.809 398.215 648.334 398.008 649.763 396.324L643.663 391.147ZM638.88 408.274C640.424 406.693 640.394 404.161 638.814 402.617C637.233 401.074 634.701 401.104 633.157 402.684L638.88 408.274ZM632.476 403.378C630.926 404.952 630.945 407.485 632.519 409.035C634.092 410.585 636.625 410.566 638.175 408.993L632.476 403.378ZM626.424 420.121C628.08 418.658 628.236 416.13 626.774 414.475C625.311 412.819 622.783 412.663 621.127 414.125L626.424 420.121ZM620.401 414.764C618.74 416.22 618.573 418.747 620.028 420.409C621.484 422.07 624.011 422.237 625.673 420.782L620.401 414.764ZM613.136 431.031C614.892 429.691 615.23 427.181 613.891 425.425C612.551 423.668 610.041 423.33 608.284 424.67L613.136 431.031ZM607.497 425.268C605.735 426.6 605.386 429.108 606.719 430.871C608.051 432.633 610.559 432.981 612.322 431.649L607.497 425.268ZM599.184 440.92C601.029 439.706 601.541 437.225 600.326 435.38C599.111 433.535 596.631 433.023 594.786 434.238L599.184 440.92ZM593.961 434.778C592.111 435.985 591.589 438.464 592.796 440.314C594.003 442.164 596.482 442.686 598.332 441.479L593.961 434.778ZM584.585 449.841C586.507 448.752 587.182 446.311 586.093 444.389C585.004 442.467 582.563 441.792 580.641 442.881L584.585 449.841ZM579.789 443.362C577.862 444.443 577.178 446.881 578.259 448.808C579.341 450.734 581.779 451.419 583.705 450.337L579.789 443.362ZM569.399 457.812C571.387 456.848 572.216 454.454 571.251 452.467C570.286 450.48 567.893 449.65 565.906 450.615L569.399 457.812ZM565.034 451.037C563.043 451.994 562.205 454.384 563.163 456.375C564.12 458.366 566.51 459.204 568.501 458.246L565.034 451.037ZM553.694 464.853C555.736 464.01 556.707 461.671 555.864 459.629C555.021 457.587 552.682 456.616 550.64 457.459L553.694 464.853ZM-6.23897 464.022C-4.45364 462.721 -4.06112 460.219 -5.36224 458.434C-6.66336 456.648 -9.16541 456.256 -10.9507 457.557L-6.23897 464.022ZM3.46355 448.788C1.49422 449.789 0.709265 452.197 1.7103 454.166C2.71132 456.136 5.11927 456.921 7.0886 455.919L3.46355 448.788ZM7.96605 455.478C9.94391 454.494 10.7495 452.093 9.76547 450.115C8.78141 448.137 6.3803 447.332 4.40244 448.316L7.96605 455.478ZM19.8294 441.806C17.7482 442.547 16.6618 444.835 17.4028 446.916C18.1437 448.997 20.4315 450.084 22.5127 449.343L19.8294 441.806ZM23.456 449.01C25.542 448.283 26.6434 446.002 25.916 443.917C25.1887 441.831 22.908 440.729 20.8221 441.457L23.456 449.01ZM36.7707 436.731C34.6271 437.265 33.3223 439.436 33.8563 441.579C34.3903 443.723 36.5609 445.028 38.7046 444.494L36.7707 436.731ZM39.6741 444.255C41.8204 443.732 43.1362 441.568 42.6129 439.421C42.0897 437.275 39.9257 435.959 37.7794 436.483L39.6741 444.255ZM54.0013 433.163C51.8229 433.53 50.3548 435.594 50.7222 437.772C51.0896 439.95 53.1534 441.419 55.3318 441.051L54.0013 433.163ZM56.311 440.888C58.4908 440.529 59.9671 438.471 59.6084 436.292C59.2498 434.112 57.1919 432.635 55.0121 432.994L56.311 440.888ZM71.3727 430.807C69.1756 431.037 67.5811 433.005 67.8114 435.202C68.0416 437.399 70.0094 438.994 72.2065 438.764L71.3727 430.807ZM73.2044 438.661C75.4023 438.438 77.0033 436.475 76.7804 434.277C76.5575 432.08 74.5951 430.479 72.3972 430.702L73.2044 438.661ZM88.8074 429.455C86.6012 429.569 84.9056 431.45 85.02 433.656C85.1345 435.863 87.0157 437.558 89.2219 437.444L88.8074 429.455ZM90.233 437.393C92.4395 437.285 94.1405 435.408 94.0324 433.202C93.9243 430.995 92.0479 429.294 89.8414 429.402L90.233 437.393ZM106.262 428.954C104.053 428.968 102.274 430.771 102.288 432.98C102.302 435.189 104.105 436.968 106.314 436.954L106.262 428.954ZM107.324 436.949C109.533 436.94 111.316 435.142 111.308 432.933C111.299 430.724 109.501 428.94 107.292 428.949L107.324 436.949ZM123.707 429.197C121.5 429.123 119.65 430.853 119.575 433.06C119.501 435.268 121.231 437.118 123.439 437.193L123.707 429.197ZM124.446 437.228C126.653 437.307 128.507 435.581 128.586 433.373C128.666 431.166 126.94 429.312 124.732 429.233L124.446 437.228ZM141.122 430.104C138.918 429.949 137.006 431.611 136.852 433.815C136.698 436.018 138.359 437.93 140.563 438.084L141.122 430.104ZM141.567 438.156C143.77 438.314 145.685 436.657 145.844 434.453C146.003 432.25 144.345 430.335 142.142 430.176L141.567 438.156ZM158.477 431.615C156.28 431.387 154.314 432.983 154.086 435.181C153.858 437.378 155.454 439.344 157.651 439.572L158.477 431.615ZM158.658 439.678C160.854 439.91 162.824 438.317 163.056 436.12C163.288 433.923 161.696 431.954 159.499 431.722L158.658 439.678ZM175.765 433.688C173.576 433.391 171.56 434.924 171.263 437.113C170.965 439.302 172.498 441.318 174.687 441.616L175.765 433.688ZM175.688 441.752C177.877 442.054 179.895 440.524 180.196 438.336C180.498 436.147 178.968 434.129 176.78 433.827L175.688 441.752ZM192.979 436.296C190.8 435.932 188.738 437.404 188.374 439.583C188.01 441.762 189.482 443.823 191.661 444.187L192.979 436.296ZM192.657 444.354C194.835 444.722 196.899 443.255 197.267 441.076C197.635 438.898 196.167 436.834 193.989 436.466L192.657 444.354ZM210.1 439.421C207.933 438.992 205.829 440.401 205.4 442.568C204.971 444.735 206.38 446.84 208.547 447.269L210.1 439.421ZM209.538 447.466C211.704 447.899 213.811 446.493 214.244 444.327C214.677 442.161 213.272 440.054 211.105 439.621L209.538 447.466ZM227.128 443.058C224.974 442.564 222.829 443.909 222.335 446.062C221.841 448.216 223.186 450.361 225.339 450.855L227.128 443.058ZM226.322 451.082C228.474 451.579 230.622 450.238 231.12 448.086C231.618 445.933 230.277 443.785 228.124 443.287L226.322 451.082ZM244.038 447.21C241.901 446.65 239.715 447.928 239.155 450.065C238.595 452.202 239.873 454.389 242.01 454.949L244.038 447.21ZM242.987 455.206C245.123 455.769 247.312 454.495 247.876 452.359C248.44 450.223 247.165 448.034 245.029 447.471L242.987 455.206ZM260.808 451.891C258.69 451.263 256.463 452.47 255.835 454.588C255.206 456.706 256.413 458.932 258.531 459.561L260.808 451.891ZM259.502 459.85C261.619 460.483 263.847 459.28 264.48 457.163C265.113 455.047 263.91 452.818 261.794 452.185L259.502 459.85ZM277.419 457.133C275.325 456.431 273.058 457.561 272.356 459.655C271.654 461.75 272.783 464.017 274.878 464.719L277.419 457.133ZM275.822 465.036C277.917 465.737 280.184 464.608 280.886 462.513C281.587 460.419 280.458 458.152 278.363 457.45L275.822 465.036ZM293.058 462.089C290.94 461.461 288.714 462.669 288.086 464.787C287.458 466.905 288.665 469.131 290.783 469.759L293.058 462.089ZM291.733 470.039C293.852 470.663 296.075 469.45 296.699 467.33C297.322 465.211 296.109 462.988 293.99 462.364L291.733 470.039ZM308.848 466.452C306.708 465.903 304.528 467.194 303.98 469.334C303.432 471.474 304.722 473.653 306.862 474.201L308.848 466.452ZM307.818 474.445C309.959 474.989 312.136 473.693 312.679 471.552C313.223 469.411 311.927 467.235 309.786 466.691L307.818 474.445ZM324.784 470.217C322.625 469.749 320.496 471.121 320.029 473.28C319.561 475.439 320.933 477.568 323.092 478.036L324.784 470.217ZM324.053 478.242C326.213 478.705 328.339 477.329 328.801 475.168C329.264 473.008 327.888 470.882 325.727 470.42L324.053 478.242ZM340.842 473.375C338.666 472.99 336.59 474.441 336.205 476.616C335.82 478.792 337.271 480.867 339.446 481.253L340.842 473.375ZM340.409 481.422C342.585 481.803 344.658 480.347 345.038 478.171C345.419 475.995 343.963 473.922 341.787 473.542L340.409 481.422ZM356.99 475.922C354.802 475.619 352.783 477.148 352.48 479.336C352.177 481.524 353.706 483.544 355.894 483.847L356.99 475.922ZM356.857 483.979C359.046 484.277 361.062 482.744 361.36 480.555C361.658 478.366 360.125 476.35 357.936 476.052L356.857 483.979ZM373.224 477.856C371.026 477.636 369.066 479.24 368.846 481.438C368.626 483.636 370.23 485.597 372.428 485.816L373.224 477.856ZM373.414 485.914C375.613 486.129 377.569 484.52 377.784 482.322C377.999 480.123 376.391 478.166 374.192 477.952L373.414 485.914ZM389.563 479.177C387.358 479.041 385.46 480.718 385.324 482.923C385.187 485.128 386.864 487.025 389.069 487.162L389.563 479.177ZM390.05 487.221C392.255 487.352 394.149 485.671 394.28 483.466C394.412 481.261 392.73 479.367 390.525 479.235L390.05 487.221ZM405.901 479.877C403.692 479.824 401.859 481.571 401.806 483.78C401.753 485.988 403.501 487.821 405.709 487.874L405.901 479.877ZM406.681 487.896C408.889 487.944 410.719 486.193 410.766 483.984C410.814 481.775 409.063 479.946 406.854 479.898L406.681 487.896ZM422.262 479.958C420.053 479.989 418.287 481.804 418.318 484.013C418.349 486.222 420.164 487.988 422.373 487.957L422.262 479.958ZM423.362 487.942C425.571 487.907 427.332 486.087 427.297 483.878C427.261 481.669 425.441 479.908 423.232 479.943L423.362 487.942ZM438.626 479.42C436.42 479.534 434.724 481.416 434.839 483.622C434.953 485.828 436.834 487.524 439.04 487.409L438.626 479.42ZM440.011 487.358C442.217 487.238 443.909 485.353 443.789 483.147C443.67 480.942 441.785 479.25 439.579 479.369L440.011 487.358ZM454.948 478.262C452.748 478.46 451.125 480.404 451.324 482.605C451.522 484.805 453.466 486.428 455.666 486.229L454.948 478.262ZM456.649 486.14C458.849 485.936 460.468 483.988 460.264 481.789C460.061 479.589 458.113 477.97 455.913 478.174L456.649 486.14ZM471.177 476.486C468.986 476.768 467.439 478.773 467.721 480.964C468.004 483.155 470.009 484.702 472.2 484.42L471.177 476.486ZM473.182 484.292C475.372 484.004 476.915 481.996 476.627 479.805C476.34 477.615 474.331 476.073 472.141 476.36L473.182 484.292ZM487.385 474.073C485.206 474.441 483.739 476.505 484.108 478.683C484.476 480.862 486.54 482.329 488.718 481.961L487.385 474.073ZM489.667 481.799C491.845 481.426 493.307 479.358 492.934 477.181C492.56 475.003 490.493 473.541 488.315 473.914L489.667 481.799ZM503.447 471.022C501.286 471.479 499.904 473.601 500.36 475.763C500.816 477.924 502.939 479.306 505.1 478.85L503.447 471.022ZM506.036 478.651C508.196 478.189 509.573 476.064 509.112 473.903C508.65 471.743 506.525 470.366 504.364 470.828L506.036 478.651ZM519.366 467.303C517.227 467.853 515.938 470.033 516.488 472.173C517.038 474.313 519.218 475.601 521.357 475.051L519.366 467.303ZM522.328 474.801C524.467 474.245 525.749 472.061 525.194 469.923C524.638 467.785 522.454 466.502 520.316 467.058L522.328 474.801ZM535.059 462.866C532.95 463.521 531.771 465.763 532.426 467.873C533.082 469.982 535.323 471.161 537.433 470.506L535.059 462.866ZM538.406 470.201C540.514 469.539 541.685 467.293 541.022 465.186C540.36 463.078 538.114 461.907 536.007 462.57L538.406 470.201ZM550.333 457.552C548.286 458.382 547.298 460.714 548.128 462.762C548.958 464.809 551.29 465.796 553.337 464.967L550.333 457.552ZM-11.3741 -0.712947C-11.2361 -0.611168 -11.0977 -0.509745 -10.959 -0.408679L-6.24823 -6.87462C-6.37447 -6.9666 -6.50036 -7.05887 -6.62588 -7.15145L-11.3741 -0.712947ZM3.16215 8.1052C3.46821 8.25732 3.7754 8.40822 4.08372 8.5579L7.57754 1.36115C7.29147 1.22227 7.00661 1.08234 6.72295 0.941345L3.16215 8.1052ZM19.2628 14.6802C19.5873 14.7877 19.9126 14.8941 20.2388 14.9995L22.6987 7.38712C22.3909 7.28766 22.0841 7.18727 21.7783 7.08596L19.2628 14.6802ZM35.9538 19.1661C36.2853 19.2366 36.6175 19.3063 36.9503 19.3751L38.5703 11.5408C38.2523 11.4751 37.935 11.4085 37.6185 11.3412L35.9538 19.1661ZM52.9118 21.98C53.2422 22.0206 53.5732 22.0606 53.9046 22.0998L54.8456 14.1554C54.5261 14.1175 54.2071 14.079 53.8887 14.0398L52.9118 21.98ZM69.9648 23.4496C70.2975 23.4668 70.6306 23.4835 70.9641 23.4995L71.3485 15.5088C71.0249 15.4932 70.7018 15.477 70.379 15.4603L69.9648 23.4496ZM87.0249 23.8187C87.3617 23.8163 87.6987 23.8135 88.0361 23.8101L87.9557 15.8105C87.6267 15.8138 87.2982 15.8166 86.9699 15.8188L87.0249 23.8187ZM104.047 23.2657C104.381 23.2467 104.716 23.2272 105.051 23.2072L104.574 15.2214C104.247 15.241 103.919 15.2601 103.592 15.2787L104.047 23.2657ZM121.005 21.9222C121.336 21.8888 121.668 21.8549 122 21.8207L121.179 13.8629C120.854 13.8965 120.528 13.9297 120.203 13.9624L121.005 21.9222ZM137.88 19.8857C138.21 19.8396 138.539 19.7931 138.868 19.7463L137.742 11.826C137.418 11.872 137.094 11.9177 136.771 11.963L137.88 19.8857ZM154.657 17.2305C154.985 17.1729 155.312 17.1149 155.639 17.0566L154.236 9.18058C153.914 9.23795 153.592 9.29498 153.27 9.35167L154.657 17.2305ZM171.314 14.0145C171.639 13.9461 171.965 13.8775 172.291 13.8085L170.634 5.98201C170.313 6.04997 169.992 6.11762 169.671 6.18496L171.314 14.0145ZM187.86 10.2752C188.183 10.197 188.506 10.1185 188.829 10.0397L186.933 2.26752C186.615 2.34519 186.296 2.42259 185.978 2.49969L187.86 10.2752ZM204.28 6.04298C204.601 5.95522 204.922 5.86719 205.243 5.7789L203.12 -1.93424C202.803 -1.84716 202.487 -1.76033 202.17 -1.67377L204.28 6.04298ZM220.569 1.33544C220.887 1.23867 221.205 1.14166 221.522 1.0444L219.178 -6.60444C218.865 -6.5085 218.552 -6.4128 218.238 -6.31734L220.569 1.33544ZM236.719 -3.83887C237.034 -3.9449 237.349 -4.05115 237.664 -4.15763L235.1 -11.7358C234.79 -11.6308 234.479 -11.526 234.168 -11.4214L236.719 -3.83887ZM252.707 -9.47786C253.02 -9.59347 253.333 -9.7093 253.645 -9.82534L250.86 -17.3249C250.552 -17.2105 250.244 -17.0963 249.935 -16.9823L252.707 -9.47786ZM268.521 -15.593C268.674 -15.655 268.827 -15.7171 268.98 -15.7792L265.973 -23.1924C265.822 -23.1313 265.671 -23.0702 265.521 -23.0091L268.521 -15.593ZM268.98 -15.7792C269.136 -15.8422 269.291 -15.9051 269.446 -15.9679L266.445 -23.3837C266.288 -23.3201 266.131 -23.2563 265.973 -23.1924L268.98 -15.7792ZM284.179 -21.6924C284.483 -21.8055 284.786 -21.9181 285.089 -22.0303L282.31 -29.5323C282.003 -29.4184 281.695 -29.3042 281.387 -29.1895L284.179 -21.6924ZM299.977 -27.2983C300.285 -27.4022 300.593 -27.5057 300.9 -27.6088L298.358 -35.1941C298.046 -35.0895 297.733 -34.9844 297.42 -34.8789L299.977 -27.2983ZM315.926 -32.3897C316.239 -32.4836 316.551 -32.5772 316.862 -32.6704L314.571 -40.3352C314.254 -40.2406 313.937 -40.1455 313.62 -40.05L315.926 -32.3897ZM332.025 -36.9379C332.341 -37.0211 332.656 -37.104 332.971 -37.1864L330.946 -44.9259C330.626 -44.8421 330.305 -44.7578 329.984 -44.6732L332.025 -36.9379ZM348.264 -40.9117C348.583 -40.9834 348.901 -41.0547 349.218 -41.1256L347.476 -48.9336C347.153 -48.8614 346.829 -48.7889 346.505 -48.7158L348.264 -40.9117ZM364.629 -44.2778C364.949 -44.3372 365.269 -44.3962 365.588 -44.4548L364.145 -52.3236C363.82 -52.2639 363.494 -52.2037 363.168 -52.1432L364.629 -44.2778ZM381.099 -47.0013C381.42 -47.0478 381.74 -47.0938 382.06 -47.1394L380.933 -55.0595C380.606 -55.0131 380.28 -54.9662 379.952 -54.9188L381.099 -47.0013ZM397.644 -49.0473C397.965 -49.0801 398.285 -49.1125 398.605 -49.1444L397.81 -57.1049C397.484 -57.0723 397.157 -57.0393 396.83 -57.0058L397.644 -49.0473ZM414.269 -50.3839C414.602 -50.4033 414.934 -50.4221 415.265 -50.4405L414.822 -58.4282C414.483 -58.4094 414.144 -58.3902 413.805 -58.3704L414.269 -50.3839ZM430.983 -50.9741C431.312 -50.978 431.641 -50.9816 431.969 -50.9846L431.894 -58.9843C431.559 -58.9812 431.223 -58.9776 430.886 -58.9735L430.983 -50.9741ZM447.654 -50.7787C447.979 -50.767 448.303 -50.7549 448.626 -50.7424L448.936 -58.7364C448.605 -58.7492 448.274 -58.7616 447.942 -58.7735L447.654 -50.7787ZM464.244 -49.7695C464.576 -49.7409 464.908 -49.7118 465.238 -49.6823L465.95 -57.6506C465.611 -57.6808 465.272 -57.7106 464.931 -57.7399L464.244 -49.7695ZM480.842 -47.9007C481.164 -47.8558 481.486 -47.8104 481.807 -47.7646L482.937 -55.6843C482.608 -55.7313 482.279 -55.7778 481.948 -55.8239L480.842 -47.9007ZM497.236 -45.1549C497.562 -45.0911 497.886 -45.0269 498.209 -44.9623L499.776 -52.8074C499.444 -52.8738 499.11 -52.9397 498.776 -53.0053L497.236 -45.1549ZM513.427 -41.4932C513.747 -41.4108 514.067 -41.3281 514.385 -41.2451L516.405 -48.9859C516.078 -49.0713 515.749 -49.1564 515.419 -49.2411L513.427 -41.4932ZM529.389 -36.863C529.703 -36.7612 530.015 -36.6592 530.326 -36.5571L532.824 -44.1571C532.503 -44.2624 532.182 -44.3675 531.858 -44.4725L529.389 -36.863ZM545.034 -31.2032C545.342 -31.0796 545.647 -30.9561 545.951 -30.8328L548.963 -38.2439C548.649 -38.3715 548.333 -38.4993 548.014 -38.6272L545.034 -31.2032ZM560.134 -24.4612C560.437 -24.311 560.734 -24.1621 561.027 -24.0145L564.625 -31.1602C564.318 -31.3143 564.008 -31.4697 563.692 -31.6264L560.134 -24.4612ZM574.323 -16.4385C574.439 -16.3604 574.522 -16.3027 574.574 -16.2667C574.6 -16.2487 574.618 -16.2361 574.628 -16.2291C574.633 -16.2255 574.636 -16.2234 574.637 -16.2227C574.638 -16.2223 574.638 -16.2223 574.637 -16.2227C574.637 -16.2229 574.637 -16.2231 574.636 -16.2235C574.636 -16.2237 574.636 -16.2239 574.635 -16.2241C574.635 -16.2242 574.635 -16.2243 574.635 -16.2244C574.635 -16.2245 574.635 -16.2245 574.634 -16.2246C574.634 -16.2246 574.634 -16.2247 574.634 -16.2247C574.634 -16.2247 574.634 -16.2248 576.951 -19.4858C579.267 -22.7468 579.267 -22.7469 579.267 -22.7469C579.267 -22.7469 579.267 -22.747 579.267 -22.747C579.267 -22.7471 579.267 -22.7471 579.266 -22.7472C579.266 -22.7474 579.266 -22.7475 579.266 -22.7477C579.265 -22.748 579.265 -22.7483 579.264 -22.7487C579.263 -22.7494 579.262 -22.7502 579.261 -22.7511C579.259 -22.7528 579.256 -22.755 579.252 -22.7574C579.245 -22.7624 579.236 -22.7688 579.225 -22.7765C579.203 -22.792 579.173 -22.8131 579.134 -22.8396C579.058 -22.8927 578.949 -22.9674 578.809 -23.0627L574.323 -16.4385ZM575.508 -15.7551C575.655 -15.698 575.803 -15.6405 575.951 -15.5826L578.868 -23.0318C578.71 -23.0937 578.552 -23.1553 578.394 -23.2165L575.508 -15.7551ZM589.852 -9.06383C590.131 -8.91087 590.41 -8.75672 590.689 -8.60138L594.585 -15.5887C594.289 -15.7536 593.993 -15.9174 593.696 -16.08L589.852 -9.06383ZM603.706 -0.330424C603.967 -0.143813 604.227 0.0438498 604.488 0.232561L609.185 -6.24341C608.91 -6.44231 608.636 -6.64016 608.361 -6.83693L603.706 -0.330424ZM616.555 9.94261C616.797 10.1569 617.038 10.3722 617.279 10.5884L622.621 4.6334C622.369 4.40708 622.116 4.18168 621.863 3.95721L616.555 9.94261ZM628.384 21.4641C628.606 21.7009 628.828 21.9386 629.049 22.177L634.91 16.7311C634.679 16.4828 634.448 16.2354 634.216 15.9887L628.384 21.4641ZM639.21 33.9944C639.413 34.2495 639.616 34.5052 639.819 34.7616L646.097 29.8035C645.887 29.5377 645.677 29.2726 645.466 29.0082L639.21 33.9944ZM649.068 47.3435C649.253 47.6132 649.437 47.8835 649.621 48.1544L656.24 43.6608C656.05 43.3809 655.859 43.1017 655.668 42.823L649.068 47.3435ZM657.996 61.3624C658.163 61.644 658.329 61.9261 658.495 62.2087L665.394 58.1579C665.223 57.8667 665.051 57.5761 664.88 57.286L657.996 61.3624ZM666.031 75.9346C666.181 76.2258 666.33 76.5175 666.478 76.8096L673.609 73.1833C673.456 72.8829 673.303 72.583 673.15 72.2836L666.031 75.9346ZM673.204 90.9676C673.337 91.2667 673.469 91.5663 673.6 91.8662L680.925 88.6496C680.79 88.3418 680.654 88.0343 680.518 87.7272L673.204 90.9676ZM679.539 106.386C679.655 106.692 679.771 106.998 679.886 107.304L687.373 104.487C687.255 104.173 687.136 103.859 687.017 103.545L679.539 106.386ZM685.052 122.127C685.152 122.439 685.252 122.75 685.351 123.062L692.974 120.636C692.873 120.317 692.771 119.998 692.668 119.679L685.052 122.127ZM689.753 138.137C689.838 138.452 689.921 138.768 690.004 139.084L697.741 137.047C697.656 136.724 697.57 136.4 697.484 136.077L689.753 138.137ZM693.646 154.366C693.714 154.685 693.782 155.004 693.849 155.324L701.678 153.675C701.609 153.348 701.539 153.021 701.47 152.694L693.646 154.366ZM696.727 170.769C696.779 171.091 696.831 171.413 696.882 171.736L704.783 170.478C704.73 170.148 704.677 169.817 704.624 169.488L696.727 170.769ZM698.987 187.302C699.024 187.626 699.059 187.951 699.094 188.276L707.048 187.414C707.012 187.082 706.975 186.749 706.938 186.417L698.987 187.302ZM700.414 203.92C700.434 204.247 700.453 204.574 700.472 204.901L708.458 204.443C708.439 204.108 708.42 203.773 708.399 203.438L700.414 203.92ZM700.988 220.583C700.991 220.91 700.994 221.237 700.995 221.564L708.995 221.521C708.993 221.185 708.991 220.85 708.988 220.515L700.988 220.583ZM700.689 237.249C700.674 237.576 700.659 237.902 700.643 238.229L708.634 238.612C708.65 238.277 708.666 237.942 708.681 237.607L700.689 237.249ZM699.489 253.868C699.456 254.193 699.423 254.518 699.39 254.843L707.347 255.666C707.382 255.333 707.416 254.999 707.449 254.665L699.489 253.868ZM697.361 270.385C697.31 270.708 697.258 271.03 697.206 271.352L705.103 272.63C705.157 272.298 705.21 271.967 705.262 271.635L697.361 270.385ZM694.275 286.739C694.205 287.058 694.134 287.377 694.063 287.695L701.87 289.441C701.944 289.113 702.016 288.785 702.088 288.457L694.275 286.739ZM690.205 302.865C690.115 303.179 690.025 303.492 689.934 303.805L697.617 306.033C697.711 305.71 697.804 305.388 697.896 305.065L690.205 302.865ZM685.124 318.691C685.014 318.998 684.904 319.304 684.793 319.61L692.316 322.332C692.43 322.016 692.544 321.7 692.657 321.383L685.124 318.691ZM679.013 334.141C678.883 334.439 678.753 334.737 678.622 335.034L685.944 338.256C686.079 337.949 686.214 337.642 686.348 337.334L679.013 334.141ZM671.865 349.121C671.714 349.41 671.563 349.699 671.411 349.988L678.491 353.713C678.648 353.415 678.804 353.116 678.96 352.817L671.865 349.121ZM663.683 363.546C663.512 363.824 663.341 364.101 663.168 364.378L669.962 368.602C670.141 368.316 670.318 368.029 670.495 367.741L663.683 363.546ZM654.483 377.333C654.292 377.597 654.101 377.861 653.909 378.125L660.375 382.835C660.574 382.562 660.772 382.289 660.969 382.015L654.483 377.333ZM644.293 390.402C644.084 390.651 643.874 390.899 643.663 391.147L649.763 396.324C649.981 396.067 650.198 395.809 650.415 395.552L644.293 390.402ZM633.157 402.684C632.931 402.916 632.704 403.147 632.476 403.378L638.175 408.993C638.411 408.754 638.646 408.514 638.88 408.274L633.157 402.684ZM621.127 414.125C620.886 414.339 620.644 414.552 620.401 414.764L625.673 420.782C625.924 420.562 626.174 420.341 626.424 420.121L621.127 414.125ZM608.284 424.67C608.023 424.87 607.76 425.069 607.497 425.268L612.322 431.649C612.594 431.444 612.865 431.238 613.136 431.031L608.284 424.67ZM594.786 434.238C594.511 434.418 594.236 434.599 593.961 434.778L598.332 441.479C598.616 441.293 598.9 441.107 599.184 440.92L594.786 434.238ZM580.641 442.881C580.358 443.041 580.073 443.202 579.789 443.362L583.705 450.337C583.999 450.172 584.292 450.007 584.585 449.841L580.641 442.881ZM565.906 450.615C565.616 450.756 565.325 450.896 565.034 451.037L568.501 458.246C568.801 458.102 569.1 457.957 569.399 457.812L565.906 450.615ZM550.64 457.459C550.486 457.523 550.331 457.586 550.177 457.65L553.218 465.049C553.376 464.984 553.535 464.919 553.694 464.853L550.64 457.459ZM-6.62588 464.306C-6.49732 464.211 -6.36835 464.116 -6.23897 464.022L-10.9507 457.557C-11.0923 457.66 -11.2334 457.763 -11.3741 457.867L-6.62588 464.306ZM7.0886 455.919C7.37975 455.772 7.67223 455.624 7.96605 455.478L4.40244 448.316C4.08823 448.472 3.77526 448.629 3.46355 448.788L7.0886 455.919ZM22.5127 449.343C22.8261 449.231 23.1406 449.12 23.456 449.01L20.8221 441.457C20.4902 441.572 20.1593 441.689 19.8294 441.806L22.5127 449.343ZM38.7046 444.494C39.0269 444.414 39.3501 444.334 39.6741 444.255L37.7794 436.483C37.4424 436.565 37.1062 436.648 36.7707 436.731L38.7046 444.494ZM55.3318 441.051C55.6576 440.996 55.984 440.942 56.311 440.888L55.0121 432.994C54.6746 433.05 54.3377 433.106 54.0013 433.163L55.3318 441.051ZM72.2065 438.764C72.5386 438.729 72.8713 438.694 73.2044 438.661L72.3972 430.702C72.0553 430.736 71.7138 430.771 71.3727 430.807L72.2065 438.764ZM89.2219 437.444C89.5586 437.426 89.8956 437.409 90.233 437.393L89.8414 429.402C89.4964 429.419 89.1517 429.437 88.8074 429.455L89.2219 437.444ZM106.314 436.954C106.65 436.952 106.987 436.95 107.324 436.949L107.292 428.949C106.948 428.95 106.605 428.952 106.262 428.954L106.314 436.954ZM123.439 437.193C123.774 437.204 124.11 437.215 124.446 437.228L124.732 429.233C124.391 429.22 124.049 429.209 123.707 429.197L123.439 437.193ZM140.563 438.084C140.897 438.108 141.232 438.131 141.567 438.156L142.142 430.176C141.802 430.152 141.462 430.128 141.122 430.104L140.563 438.084ZM157.651 439.572C157.987 439.607 158.322 439.642 158.658 439.678L159.499 431.722C159.158 431.686 158.818 431.65 158.477 431.615L157.651 439.572ZM174.687 441.616C175.021 441.661 175.355 441.707 175.688 441.752L176.78 433.827C176.441 433.781 176.103 433.734 175.765 433.688L174.687 441.616ZM191.661 444.187C191.993 444.243 192.325 444.298 192.657 444.354L193.989 436.466C193.652 436.409 193.316 436.353 192.979 436.296L191.661 444.187ZM208.547 447.269C208.877 447.334 209.208 447.4 209.538 447.466L211.105 439.621C210.77 439.554 210.435 439.487 210.1 439.421L208.547 447.269ZM225.339 450.855C225.667 450.931 225.994 451.006 226.322 451.082L228.124 443.287C227.792 443.211 227.46 443.134 227.128 443.058L225.339 450.855ZM242.01 454.949C242.336 455.034 242.662 455.12 242.987 455.206L245.029 447.471C244.699 447.383 244.369 447.297 244.038 447.21L242.01 454.949ZM258.531 459.561C258.855 459.657 259.179 459.753 259.502 459.85L261.794 452.185C261.465 452.087 261.137 451.989 260.808 451.891L258.531 459.561ZM274.878 464.719C275.036 464.772 275.194 464.825 275.352 464.878L277.902 457.295C277.741 457.241 277.58 457.187 277.419 457.133L274.878 464.719ZM275.352 464.878C275.509 464.931 275.665 464.983 275.822 465.036L278.363 457.45C278.209 457.398 278.056 457.347 277.902 457.295L275.352 464.878ZM290.783 469.759C291.1 469.853 291.416 469.946 291.733 470.039L293.99 462.364C293.679 462.273 293.369 462.181 293.058 462.089L290.783 469.759ZM306.862 474.201C307.181 474.283 307.499 474.364 307.818 474.445L309.786 466.691C309.473 466.612 309.161 466.532 308.848 466.452L306.862 474.201ZM323.092 478.036C323.412 478.105 323.733 478.174 324.053 478.242L325.727 470.42C325.413 470.352 325.099 470.285 324.784 470.217L323.092 478.036ZM339.446 481.253C339.767 481.31 340.088 481.366 340.409 481.422L341.787 473.542C341.472 473.487 341.157 473.431 340.842 473.375L339.446 481.253ZM355.894 483.847C356.215 483.891 356.536 483.935 356.857 483.979L357.936 476.052C357.621 476.009 357.306 475.966 356.99 475.922L355.894 483.847ZM372.428 485.816C372.757 485.849 373.086 485.882 373.414 485.914L374.192 477.952C373.87 477.92 373.547 477.888 373.224 477.856L372.428 485.816ZM389.069 487.162C389.397 487.182 389.723 487.202 390.05 487.221L390.525 479.235C390.205 479.216 389.884 479.197 389.563 479.177L389.069 487.162ZM405.709 487.874C406.034 487.882 406.357 487.889 406.681 487.896L406.854 479.898C406.537 479.891 406.219 479.884 405.901 479.877L405.709 487.874ZM422.373 487.957C422.703 487.953 423.033 487.948 423.362 487.942L423.232 479.943C422.909 479.949 422.586 479.954 422.262 479.958L422.373 487.957ZM439.04 487.409C439.365 487.392 439.688 487.375 440.011 487.358L439.579 479.369C439.262 479.387 438.944 479.403 438.626 479.42L439.04 487.409ZM455.666 486.229C455.995 486.2 456.322 486.17 456.649 486.14L455.913 478.174C455.592 478.203 455.271 478.233 454.948 478.262L455.666 486.229ZM472.2 484.42C472.528 484.377 472.855 484.335 473.182 484.292L472.141 476.36C471.82 476.402 471.499 476.444 471.177 476.486L472.2 484.42ZM488.718 481.961C489.036 481.907 489.352 481.853 489.667 481.799L488.315 473.914C488.006 473.967 487.696 474.02 487.385 474.073L488.718 481.961ZM505.1 478.85C505.413 478.784 505.725 478.717 506.036 478.651L504.364 470.828C504.06 470.893 503.754 470.958 503.447 471.022L505.1 478.85ZM521.357 475.051C521.683 474.968 522.007 474.884 522.328 474.801L520.316 467.058C520.002 467.14 519.685 467.221 519.366 467.303L521.357 475.051ZM537.433 470.506C537.762 470.403 538.087 470.302 538.406 470.201L536.007 462.57C535.696 462.668 535.38 462.766 535.059 462.866L537.433 470.506ZM553.337 464.967C553.486 464.907 553.6 464.86 553.679 464.827C553.719 464.811 553.749 464.798 553.771 464.789C553.782 464.784 553.791 464.781 553.797 464.778C553.801 464.776 553.803 464.775 553.806 464.774C553.807 464.774 553.808 464.774 553.808 464.773C553.809 464.773 553.809 464.773 553.81 464.773C553.81 464.773 553.81 464.773 553.81 464.773C553.81 464.772 553.81 464.772 553.81 464.772C553.81 464.772 553.81 464.772 553.81 464.772C553.81 464.772 553.81 464.772 552.257 461.086C550.703 457.401 550.703 457.401 550.703 457.401C550.703 457.401 550.703 457.401 550.703 457.401C550.703 457.401 550.703 457.4 550.703 457.4C550.703 457.4 550.703 457.4 550.703 457.4C550.704 457.4 550.704 457.4 550.704 457.4C550.704 457.4 550.704 457.4 550.704 457.4C550.704 457.4 550.704 457.4 550.702 457.401C550.7 457.402 550.696 457.404 550.689 457.406C550.676 457.412 550.653 457.421 550.623 457.434C550.561 457.46 550.464 457.499 550.333 457.552L553.337 464.967Z" fill="#565CBD"/>
</g>
<defs>
<clipPath id="clip0_4_557">
<rect width="75" height="24" fill="white"/>
</clipPath>
</defs>
</svg>
