<svg width="184" height="166" viewBox="0 0 184 166" fill="none" xmlns="http://www.w3.org/2000/svg">
<path d="M165.008 133.788C165.008 97.2817 183.918 72.2122 183.918 54.6214C183.918 37.0306 173.806 0.0861206 92.8816 0.0861206C11.9574 0.0861206 0.0771484 49.787 0.0771484 69.1353C0.0771484 159.739 165.008 198.441 165.008 133.788Z" fill="#F3FFFF"/>
<path d="M163.251 88.2778C158.886 88.2778 155.334 84.7258 155.334 80.3611C155.334 75.9964 158.886 72.4445 163.251 72.4445C167.615 72.4445 171.167 75.9964 171.167 80.3611C171.167 84.7258 167.615 88.2778 163.251 88.2778ZM163.251 77.7222C161.794 77.7222 160.612 78.9097 160.612 80.3611C160.612 81.8125 161.794 83 163.251 83C164.707 83 165.89 81.8125 165.89 80.3611C165.89 78.9097 164.707 77.7222 163.251 77.7222Z" fill="#A9ADEC"/>
<path d="M111.792 142.375H43.1807V34.1806C43.1807 28.3486 47.9043 23.625 53.7362 23.625H138.181C130.892 23.625 124.986 29.5308 124.986 36.8194V129.181C124.986 136.469 119.08 142.375 111.792 142.375Z" fill="#F2F6FF"/>
<path d="M89.6191 65.8314L93.3188 84.3194L74.8308 80.6197L34.1549 39.9492C32.1124 37.9066 32.1124 34.5975 34.1549 32.555L41.5491 25.1555C43.5916 23.113 46.9008 23.113 48.9433 25.1555L89.6191 65.8314Z" fill="#F9DC46"/>
<path d="M124.985 44.7361H151.374V36.8194C151.374 29.5308 145.468 23.625 138.18 23.625C130.891 23.625 124.985 29.5308 124.985 36.8194V44.7361Z" fill="#F9DC46"/>
<path d="M111.792 142.375H43.1806C37.3486 142.375 32.625 137.651 32.625 131.819V115.986H98.5972V129.181C98.5972 136.469 104.503 142.375 111.792 142.375Z" fill="#F9DC46"/>
<path d="M86.7058 80.6197L46.0299 39.9492C43.9874 37.9066 43.9874 34.5975 46.0299 32.555L51.1863 27.3986L48.9485 25.1555C46.906 23.113 43.5969 23.113 41.5544 25.1555L34.1549 32.5497C32.1124 34.5922 32.1124 37.9014 34.1549 39.9439L74.8308 80.6197L93.3188 84.3194L92.8227 81.8442L86.7058 80.6197Z" fill="#F99746"/>
<path d="M144.118 25.0975C142.324 24.1897 140.329 23.625 138.181 23.625C130.892 23.625 124.986 29.5308 124.986 36.8194V44.7361H136.861V36.8194C136.861 31.6789 139.833 27.2772 144.118 25.0975Z" fill="#F99746"/>
<path d="M44.5 131.819V115.986H32.625V131.819C32.625 137.651 37.3486 142.375 43.1806 142.375H55.0556C49.2236 142.375 44.5 137.651 44.5 131.819Z" fill="#F99746"/>
<path d="M43.1807 47.375V115.986H55.0557V61.8889L43.1807 47.375Z" fill="#D1D3F1"/>
<path d="M93.3187 88.2778C93.0601 88.2778 92.8015 88.2514 92.5429 88.1986L74.0549 84.5042C73.2896 84.3511 72.5823 83.9711 72.0335 83.4222L31.3576 42.7464C27.774 39.1628 27.774 33.3361 31.3576 29.7525L38.7518 22.3583C42.3301 18.78 48.1568 18.7642 51.7404 22.3583L92.4162 63.0342C92.9704 63.583 93.3451 64.2903 93.4982 65.0556L97.1979 83.5436C97.4565 84.8419 97.0501 86.1825 96.116 87.1219C95.3665 87.8661 94.3585 88.2778 93.3187 88.2778ZM76.7835 76.9728L88.2732 79.2739L85.9721 67.7842L46.1512 27.9528C45.6551 27.4567 44.8476 27.4567 44.3515 27.9528L36.9521 35.3522C36.456 35.8483 36.456 36.6558 36.9521 37.1519L76.7835 76.9728Z" fill="#565CBD"/>
<path d="M39.2227 71.3361H47.1393V116.197H39.2227V71.3361Z" fill="#565CBD"/>
<path d="M69.7812 19.6667H138.181V27.5834H69.7812V19.6667Z" fill="#565CBD"/>
<path d="M151.375 48.6944H124.986C122.801 48.6944 121.027 46.9211 121.027 44.7361V36.8194C121.027 27.3617 128.722 19.6667 138.18 19.6667C147.638 19.6667 155.333 27.3617 155.333 36.8194V44.7361C155.333 46.9211 153.56 48.6944 151.375 48.6944ZM128.944 40.7778H147.416V36.8194C147.416 31.7264 143.273 27.5833 138.18 27.5833C133.087 27.5833 128.944 31.7264 128.944 36.8194V40.7778Z" fill="#565CBD"/>
<path d="M113.11 146.333H43.1799C35.1735 146.333 28.666 139.826 28.666 131.819V116.208C28.666 114.023 30.4393 112.249 32.6243 112.249H98.5966C100.782 112.249 102.555 114.023 102.555 116.208V129.181C102.555 134.274 106.698 138.417 111.791 138.417C116.884 138.417 121.027 134.274 121.027 129.181V44.7361H128.944V129.181C128.944 138.195 121.956 145.605 113.11 146.281V146.333ZM36.5827 120.166V131.819C36.5827 135.456 39.5435 138.417 43.1799 138.417H97.3405C95.6305 135.746 94.6382 132.579 94.6382 129.181V120.166H36.5827Z" fill="#565CBD"/>
<path d="M7.55566 138.417H176.445V146.333H7.55566V138.417Z" fill="#565CBD"/>
</svg>
