<svg width="186" height="176" viewBox="0 0 186 176" fill="none" xmlns="http://www.w3.org/2000/svg">
<path d="M40.8242 22.3655C31.2978 57.6053 6.49756 76.8691 1.90589 93.853C-2.68577 110.837 -2.56439 149.138 75.5573 170.259C153.679 191.381 178.115 146.504 183.161 127.821C206.81 40.3575 57.6973 -40.0495 40.8242 22.3655Z" fill="#FBFFFB"/>
<path d="M37.4297 27.1747L44.8936 19.7108L48.6255 23.4428L41.1616 30.9067L37.4297 27.1747Z" fill="#A9ADEC"/>
<path d="M15.9746 48.6343L23.4385 41.1704L27.1705 44.9024L19.7066 52.3663L15.9746 48.6343Z" fill="#A9ADEC"/>
<path d="M15.9717 22.512L19.7036 18.78L27.1675 26.2439L23.4356 29.9759L15.9717 22.512Z" fill="#A9ADEC"/>
<path d="M168.742 120.068C164.377 120.068 160.825 116.516 160.825 112.151C160.825 107.786 164.377 104.234 168.742 104.234C173.107 104.234 176.659 107.786 176.659 112.151C176.659 116.516 173.107 120.068 168.742 120.068ZM168.742 109.512C167.285 109.512 166.103 110.7 166.103 112.151C166.103 113.602 167.285 114.79 168.742 114.79C170.199 114.79 171.381 113.602 171.381 112.151C171.381 110.7 170.193 109.512 168.742 109.512Z" fill="#A9ADEC"/>
<path d="M93.0001 144.736C119.962 144.736 141.82 122.879 141.82 95.9167C141.82 68.9544 119.962 47.0972 93.0001 47.0972C66.0379 47.0972 44.1807 68.9544 44.1807 95.9167C44.1807 122.879 66.0379 144.736 93.0001 144.736Z" fill="#F2F6FF"/>
<path d="M45.025 104.836C44.3389 105.047 43.6 105.153 42.8611 105.153C37.7417 105.153 33.625 101.036 33.625 95.9167C33.625 90.7972 37.7417 86.6806 42.8611 86.6806C43.6 86.6806 44.3389 86.7861 45.025 86.9972V104.836Z" fill="#F9DC46"/>
<path d="M140.975 86.9445C141.661 86.7861 142.4 86.6806 143.138 86.6806C148.258 86.6806 152.375 90.7972 152.375 95.9167C152.375 101.036 148.258 105.153 143.138 105.153C142.4 105.153 141.661 105.047 140.975 104.889V86.9445Z" fill="#F9DC46"/>
<path d="M143.424 118.347C139.756 118.347 136.594 120.384 135.222 123.303C133.85 120.384 130.688 118.347 127.02 118.347C122.086 118.347 118.069 122.052 118.069 126.607C118.069 135.558 135.222 147.375 135.222 147.375C135.222 147.375 152.375 135.558 152.375 126.607C152.375 122.052 148.364 118.347 143.424 118.347Z" fill="#F9DC46"/>
<path d="M56.0547 95.9167C56.0547 70.9686 74.7802 50.4275 98.9366 47.4931C96.9839 47.2556 95.0152 47.0972 92.9991 47.0972C66.035 47.0972 44.1797 68.9525 44.1797 95.9167C44.1797 122.881 66.035 144.736 92.9991 144.736C95.0152 144.736 96.9839 144.578 98.9366 144.34C74.7802 141.406 56.0547 120.865 56.0547 95.9167Z" fill="#D1D3F1"/>
<path d="M64.2568 44.4583C60.5887 44.4583 57.4273 46.4956 56.0551 49.4142C54.6829 46.4956 51.5215 44.4583 47.8535 44.4583C42.9187 44.4583 38.9023 48.1633 38.9023 52.7181C38.9023 61.6692 56.0551 73.4861 56.0551 73.4861C56.0551 73.4861 73.2079 61.6692 73.2079 52.7181C73.2079 48.1633 69.1968 44.4583 64.2568 44.4583Z" fill="#F9DC46"/>
<path d="M147.096 123.303C147.613 122.205 148.447 121.292 149.402 120.501C147.813 119.176 145.729 118.342 143.422 118.342C142.636 118.342 141.887 118.479 141.158 118.653C143.823 119.308 146.019 121.012 147.096 123.303Z" fill="#F99746"/>
<path d="M129.943 126.607C129.943 124.179 131.104 122.015 132.915 120.501C131.331 119.197 129.305 118.342 127.019 118.342C122.085 118.342 118.068 122.047 118.068 126.602C118.068 135.553 135.221 147.37 135.221 147.37C135.221 147.37 137.913 145.507 141.159 142.715C136.203 138.461 129.943 132.017 129.943 126.607Z" fill="#F99746"/>
<path d="M67.9297 49.4142C68.4469 48.3164 69.2808 47.4033 70.2361 46.6117C68.6475 45.287 66.5627 44.4531 64.2564 44.4531C63.47 44.4531 62.7205 44.5903 61.9922 44.7645C64.6575 45.4189 66.853 47.1236 67.9297 49.4142Z" fill="#F99746"/>
<path d="M50.7773 52.7181C50.7773 50.2903 51.9385 48.1264 53.7487 46.6117C52.1654 45.3081 50.1387 44.4531 47.8535 44.4531C42.9187 44.4531 38.9023 48.1581 38.9023 52.7128C38.9023 61.6639 56.0551 73.4808 56.0551 73.4808C56.0551 73.4808 58.7468 71.6178 61.9926 68.8258C57.0368 64.572 50.7773 58.1278 50.7773 52.7181Z" fill="#F99746"/>
<path d="M137.666 124L130.979 119.762C135.481 112.663 137.861 104.414 137.861 95.9167C137.861 71.1797 117.737 51.0556 92.9998 51.0556C86.5292 51.0556 80.3964 52.3697 74.7545 54.9664L71.4453 47.7728C78.1323 44.7011 85.3839 43.1389 92.9998 43.1389C122.101 43.1389 145.778 66.815 145.778 95.9167C145.778 105.923 142.975 115.629 137.666 124Z" fill="#565CBD"/>
<path d="M92.9995 148.694C63.8978 148.694 40.2217 125.018 40.2217 95.9167C40.2217 85.9628 42.9872 76.2886 48.2175 67.9497L54.9256 72.1561C50.4817 79.2336 48.1383 87.4511 48.1383 95.9167C48.1383 120.654 68.2625 140.778 92.9995 140.778C102.721 140.778 111.904 137.764 119.557 132.064L124.286 138.413C115.256 145.137 104.436 148.694 92.9995 148.694Z" fill="#565CBD"/>
<path d="M42.8605 109.111C35.5877 109.111 29.666 103.195 29.666 95.9167C29.666 88.6386 35.5877 82.7222 42.8605 82.7222C44.011 82.7222 45.1299 82.8858 46.1855 83.2131L43.8632 90.7814C43.5624 90.6864 43.2194 90.6389 42.8605 90.6389C39.9524 90.6389 37.5827 93.0033 37.5827 95.9167C37.5827 98.83 39.9524 101.194 42.8605 101.194C43.2194 101.194 43.5624 101.147 43.8632 101.057L46.1855 108.626C45.1299 108.948 44.011 109.111 42.8605 109.111Z" fill="#565CBD"/>
<path d="M92.9989 69.5278C89.4522 69.5278 85.9636 68.7044 82.9131 67.1422L86.5178 60.0911C88.46 61.0833 90.6978 61.6111 92.9989 61.6111C101.005 61.6111 107.513 55.1036 107.513 47.0972C107.513 39.0908 101.005 32.5833 92.9989 32.5833C84.9925 32.5833 78.485 39.0908 78.485 47.0972C78.485 48.0894 78.5695 48.9286 78.7489 49.6675L71.0434 51.4936C70.7214 50.1478 70.5684 48.7122 70.5684 47.0972C70.5684 34.7261 80.6331 24.6667 92.9989 24.6667C105.365 24.6667 115.429 34.7261 115.429 47.0972C115.429 59.4683 105.365 69.5278 92.9989 69.5278Z" fill="#565CBD"/>
<path d="M92.9988 123.599C86.581 123.599 80.1632 121.155 75.2812 116.268L80.881 110.668C87.3621 117.144 98.646 117.144 105.127 110.668L110.727 116.268C105.834 121.155 99.4165 123.599 92.9988 123.599Z" fill="#565CBD"/>
<path d="M135.221 151.333C134.435 151.333 133.654 151.101 132.978 150.631C129.828 148.462 114.11 137.104 114.11 126.607C114.11 119.873 119.9 114.389 127.02 114.389C130.076 114.389 132.957 115.408 135.221 117.165C137.486 115.408 140.373 114.389 143.423 114.389C150.543 114.389 156.333 119.873 156.333 126.607C156.333 137.099 140.615 148.462 137.465 150.631C136.789 151.101 136.008 151.333 135.221 151.333ZM127.02 122.306C124.27 122.306 122.027 124.237 122.027 126.607C122.027 130.75 129.242 137.912 135.221 142.477C141.201 137.907 148.416 130.739 148.416 126.607C148.416 124.237 146.178 122.306 143.423 122.306C141.381 122.306 139.57 123.356 138.805 124.987C137.501 127.768 132.941 127.768 131.638 124.987C130.873 123.356 129.062 122.306 127.02 122.306Z" fill="#565CBD"/>
<path d="M82.4431 93.2778H74.5265C74.5265 91.8264 73.3443 90.6389 71.8876 90.6389C70.4309 90.6389 69.2487 91.8264 69.2487 93.2778H61.332C61.332 87.4564 66.0662 82.7222 71.8876 82.7222C77.709 82.7222 82.4431 87.4564 82.4431 93.2778Z" fill="#565CBD"/>
<path d="M124.666 93.2778H116.749C116.749 91.8264 115.567 90.6389 114.11 90.6389C112.654 90.6389 111.471 91.8264 111.471 93.2778H103.555C103.555 87.4564 108.289 82.7222 114.11 82.7222C119.932 82.7222 124.666 87.4564 124.666 93.2778Z" fill="#565CBD"/>
<path d="M56.0545 77.4444C55.2681 77.4444 54.487 77.2122 53.8114 76.7425C50.6606 74.5733 34.9434 63.2156 34.9434 52.7181C34.9434 45.9836 40.7331 40.5 47.8528 40.5C50.9034 40.5 53.7903 41.5186 56.0545 43.2761C58.3186 41.5186 61.2056 40.5 64.2561 40.5C71.3759 40.5 77.1656 45.9836 77.1656 52.7181C77.1656 63.2103 61.4484 74.5733 58.2975 76.7425C57.622 77.2122 56.8409 77.4444 56.0545 77.4444ZM47.8528 48.4167C45.1031 48.4167 42.86 50.3483 42.86 52.7181C42.86 56.8611 50.0747 64.0231 56.0545 68.5883C62.0342 64.0178 69.2489 56.8506 69.2489 52.7181C69.2489 50.3483 67.0111 48.4167 64.2561 48.4167C62.2136 48.4167 60.4034 49.4669 59.6381 51.0978C58.3345 53.8792 53.7745 53.8792 52.4709 51.0978C51.7056 49.4669 49.8953 48.4167 47.8528 48.4167Z" fill="#565CBD"/>
<path d="M143.138 109.111C142.151 109.111 141.122 108.99 140.077 108.747L141.866 101.036C142.325 101.147 142.753 101.194 143.138 101.194C146.046 101.194 148.416 98.83 148.416 95.9167C148.416 93.0033 146.046 90.6389 143.138 90.6389C142.753 90.6389 142.325 90.6917 141.866 90.7972L140.077 83.0864C148.807 81.0703 156.333 87.6569 156.333 95.9167C156.333 103.195 150.411 109.111 143.138 109.111Z" fill="#565CBD"/>
</svg>
