<svg width="50" height="50" viewBox="0 0 50 50" fill="none" xmlns="http://www.w3.org/2000/svg">
<path d="M25 0C11.2048 0 0 11.2048 0 25C0 38.7952 11.2048 50 25 50C38.7952 50 50 38.7952 50 25C50 11.2048 38.7952 0 25 0ZM25 47.8313C12.4096 47.8313 2.16867 37.5904 2.16867 25C2.16867 12.4096 12.4096 2.16867 25 2.16867C37.5904 2.16867 47.8313 12.4096 47.8313 25C47.8313 37.5904 37.5904 47.8313 25 47.8313Z" fill="#00309D"/>
<path d="M38.012 19.578H30.4216V11.9877C30.4216 11.3852 29.9397 10.9033 29.3373 10.9033H20.6626C20.0602 10.9033 19.5783 11.3852 19.5783 11.9877V19.578H11.9879C11.3855 19.578 10.9036 20.0599 10.9036 20.6624V29.3371C10.9036 29.9395 11.3855 30.4214 11.9879 30.4214H19.5783V38.0118C19.5783 38.6142 20.0602 39.0961 20.6626 39.0961H29.3373C29.9397 39.0961 30.4216 38.6142 30.4216 38.0118V30.4214H38.012C38.6144 30.4214 39.0963 29.9395 39.0963 29.3371V20.6624C39.0361 20.0599 38.5542 19.578 38.012 19.578ZM36.9879 28.2527H36.9277H29.3373C28.7349 28.2527 28.253 28.7346 28.253 29.3371V36.9274H21.7469V29.3371C21.7469 28.7346 21.265 28.2527 20.6626 28.2527H13.0722V21.7467H20.6626C21.265 21.7467 21.7469 21.2648 21.7469 20.6624V13.072H28.3132V20.6624C28.3132 21.2648 28.7951 21.7467 29.3975 21.7467H36.9879V28.2527Z" fill="#009ACF"/>
</svg>
