<svg width="68" height="68" viewBox="0 0 68 68" fill="none" xmlns="http://www.w3.org/2000/svg">
<path d="M60.5625 7.96875C56.9009 7.96875 53.9219 4.98977 53.9219 1.32812C53.9219 0.594734 53.3271 0 52.5938 0H15.4062C14.6729 0 14.0781 0.594734 14.0781 1.32812C14.0781 4.98977 11.0991 7.96875 7.4375 7.96875C6.70411 7.96875 6.10938 8.56348 6.10938 9.29688V30.9705C6.10938 47.8612 17.1189 62.9963 33.6186 67.9441C33.743 67.9813 33.8714 68 34 68C34.1286 68 34.2573 67.9813 34.3816 67.944C50.5239 63.1017 61.8906 48.2307 61.8906 30.9705V9.29688C61.8906 8.56348 61.2959 7.96875 60.5625 7.96875ZM59.2344 30.9705C59.2344 46.8347 49.1113 60.5734 34 65.2831C19.0092 60.611 8.76562 46.7479 8.76562 30.9705V10.5304C12.8311 9.94633 16.0557 6.72177 16.6398 2.65625H51.3602C51.9443 6.72177 55.1688 9.94633 59.2344 10.5304V30.9705Z" fill="#00309D"/>
<path d="M34 19.3906C27.409 19.3906 22.0469 24.7528 22.0469 31.3438C22.0469 37.9347 27.409 43.2969 34 43.2969C40.591 43.2969 45.9531 37.9347 45.9531 31.3438C45.9531 24.7528 40.591 19.3906 34 19.3906ZM34 40.6406C28.8737 40.6406 24.7031 36.47 24.7031 31.3438C24.7031 26.2175 28.8737 22.0469 34 22.0469C39.1263 22.0469 43.2969 26.2175 43.2969 31.3438C43.2969 36.47 39.1263 40.6406 34 40.6406Z" fill="#009ACF"/>
<path d="M40.2516 27.7482C39.7328 27.2298 38.8921 27.2298 38.3732 27.7482L32.6719 33.4498L30.9547 31.7328C30.436 31.2143 29.5953 31.2143 29.0764 31.7328C28.5577 32.2514 28.5577 33.0924 29.0764 33.6111L31.7326 36.2674C31.9921 36.5265 32.3319 36.6562 32.6719 36.6562C33.0119 36.6562 33.3516 36.5265 33.611 36.2672L40.2516 29.6266C40.7702 29.108 40.7702 28.267 40.2516 27.7482Z" fill="#009ACF"/>
</svg>
