<svg width="61" height="58" viewBox="0 0 61 58" fill="none" xmlns="http://www.w3.org/2000/svg">
<path d="M30.2965 58C28.1716 58 26.0478 57.5733 24.0809 56.7209L14.6762 52.6471C11.2738 51.1724 7.67623 50.2384 3.98372 49.8706L0.895257 49.5628C0.386769 49.5124 0 49.0862 0 48.5773V38.9239C0 38.7096 0.0699598 38.5011 0.199072 38.3299C0.429996 38.0222 5.96535 30.8165 14.4208 32.6913C19.1764 33.7444 23.0054 35.7149 25.38 37.1828C27.104 38.2483 29.1249 38.8111 31.2242 38.8111H40.629C42.25 38.8111 43.6748 39.6657 44.4716 40.9477L52.5716 31.6491C54.142 29.5595 56.7112 28.2798 59.4009 28.2798H60.0061C60.3423 28.2798 60.6551 28.4487 60.8382 28.7286C61.0219 29.0086 61.051 29.3628 60.9162 29.6689L53.5903 46.2587C51.9886 49.887 48.7272 52.6278 44.8669 53.5896L43.5781 53.9104L36.0805 56.8988C34.2353 57.6339 32.2657 58 30.2965 58ZM1.98845 47.6807L4.18166 47.8994C8.0795 48.2877 11.8772 49.2744 15.4696 50.8307L24.8738 54.9044C28.1807 56.3372 31.9943 56.3933 35.3427 55.0586L42.9018 52.0458C42.9439 52.0293 42.9866 52.0157 43.0304 52.005L44.3846 51.6672C47.6534 50.8528 50.4148 48.5325 51.7702 45.4607L58.4522 30.3291C56.7413 30.5802 55.1669 31.4989 54.1181 32.892L45.1451 43.1966C45.1462 43.2351 45.1468 43.2731 45.1468 43.3122C45.1468 45.794 43.1202 47.8133 40.6295 47.8133H27.5078C25.8021 47.8133 24.1162 48.0859 22.498 48.6232L22.1329 47.6994L21.824 46.758L21.8746 46.7416C23.6908 46.1386 25.5876 45.832 27.5078 45.832H40.6295C42.0236 45.832 43.1589 44.7013 43.1589 43.3116C43.1589 41.922 42.0242 40.7913 40.6295 40.7913H31.2248C28.7546 40.7913 26.3714 40.1254 24.3329 38.8655C22.0896 37.4787 18.4734 35.618 13.9908 34.6245C7.5875 33.2094 2.97983 38.1061 1.98902 39.2741V47.6807H1.98845Z" fill="#00309D"/>
<path d="M39.1491 28.056C37.6202 28.056 35.9059 27.5856 34.0187 26.6454C33.7901 26.5309 33.6137 26.3325 33.5273 26.0928C33.4505 25.878 31.6742 20.7869 34.497 17.022C36.5486 14.2852 40.4061 13.0525 45.9687 13.3614C46.4761 13.3892 46.8805 13.7944 46.9055 14.3011C46.9254 14.6944 47.3355 23.9783 42.5845 27.0693C41.5744 27.7273 40.4266 28.056 39.1491 28.056ZM35.2865 25.0557C37.8978 26.2759 39.9852 26.3955 41.4981 25.411C44.3153 23.5776 44.9245 18.1351 44.9392 15.3025C40.5807 15.1965 37.6134 16.1753 36.0896 18.2071C34.2764 20.6265 34.9811 23.9545 35.2865 25.0557Z" fill="#00309D"/>
<path d="M23.9468 15.078C22.1841 15.078 20.1507 14.7017 18.3761 13.4067C15.3662 11.2088 13.9829 7.02455 14.2639 0.970551C14.2878 0.464446 14.6905 0.057521 15.1984 0.0274834C15.6284 0.00311323 25.8061 -0.538131 29.2307 4.58413C30.8256 6.96844 30.6947 10.0912 28.8434 13.8675C28.7308 14.097 28.534 14.2744 28.2934 14.3622C28.1597 14.4115 26.2935 15.078 23.9468 15.078ZM27.9504 13.4328H27.9601H27.9504ZM16.2205 1.97653C16.1346 6.82562 17.2534 10.1309 19.5507 11.8085C22.3013 13.8164 26.0569 12.9629 27.2377 12.62C28.5886 9.69903 28.7029 7.36686 27.5767 5.68249C25.4836 2.55178 19.3453 1.93969 16.2205 1.97653Z" fill="#00309D"/>
<path d="M31.7099 40.4433C31.6786 40.4433 31.6473 40.4416 31.6155 40.4387C31.0859 40.3889 30.6895 39.9326 30.7162 39.4027C30.7748 38.2375 30.8749 37.1323 31.0109 36.085C31.4244 29.0754 31.2111 12.752 20.8536 8.23614C20.3508 8.01681 20.121 7.43306 20.3411 6.93149C20.5607 6.43105 21.1482 6.20265 21.6505 6.42142C27.754 9.08229 31.5939 15.707 32.7525 25.5792C32.8565 26.4639 32.9345 27.3361 32.9925 28.1857C35.7203 21.3172 39.8935 18.8904 40.142 18.7516C40.6198 18.4824 41.2261 18.6535 41.4957 19.129C41.7636 19.6051 41.5953 20.2075 41.1192 20.4762C41.014 20.5374 34.6146 24.3641 33.0084 36.1649C32.8861 38.1836 32.7098 39.4707 32.6933 39.5886C32.6245 40.0828 32.2007 40.4433 31.7099 40.4433Z" fill="#009ACF"/>
</svg>
