<svg width="65" height="65" viewBox="0 0 65 65" fill="none" xmlns="http://www.w3.org/2000/svg">
<path d="M43.9819 21.0181C43.4546 9.34323 33.8189 0 22.0161 0C9.87581 0 0 9.87685 0 22.0161C0 33.8189 9.34323 43.4546 21.0181 43.9819C21.5454 55.6568 31.1811 65 42.9839 65C55.1242 65 65 55.1231 65 42.9839C65 31.1811 55.6568 21.5454 43.9819 21.0181ZM2.09677 22.0161C2.09677 11.0322 11.0322 2.09677 22.0161 2.09677C33.0001 2.09677 41.9355 11.0322 41.9355 22.0161C41.9355 33.0001 33.0001 41.9355 22.0161 41.9355C11.0322 41.9355 2.09677 33.0001 2.09677 22.0161ZM42.9839 62.9032C32.3354 62.9032 23.6369 54.4973 23.1148 43.9767C34.3766 43.4169 43.4169 34.3766 43.9767 23.1148C54.4973 23.6369 62.9032 32.3354 62.9032 42.9839C62.9032 53.9678 53.9678 62.9032 42.9839 62.9032Z" fill="#00309D"/>
<path d="M29.2899 14.6774H29.1473C28.187 14.6774 27.3325 15.3221 27.0683 16.2458L25.3699 22.0161L25.1613 21.9511V15.7918C25.1613 14.5988 24.1915 13.629 22.9995 13.629C21.9113 13.629 20.9898 14.4425 20.8545 15.5234L19.001 30.3466L18.871 30.3382V13.694C18.871 12.502 17.9012 11.5322 16.6914 11.5322C15.622 11.5322 14.7026 12.3311 14.5506 13.3889L12.977 24.4096C12.8302 25.4359 11.938 26.2096 10.9011 26.2096H10.4839V28.3064H10.9011C12.9749 28.3064 14.7592 26.758 15.0528 24.7052L16.6914 13.629L16.7742 13.694V30.3371C16.7742 31.5302 17.744 32.5 18.936 32.5C20.0242 32.5 20.9457 31.6864 21.081 30.6055L22.9345 15.7824L23.0645 15.7908V21.9501C23.0645 23.1431 24.0343 24.1129 25.2263 24.1129H25.3689C26.3292 24.1129 27.1836 23.4681 27.4478 22.5445L29.1462 16.7742L29.3549 16.8392V24.1129H31.4516V16.8392C31.4516 15.6471 30.4819 14.6774 29.2899 14.6774Z" fill="#009ACF"/>
<path d="M31.4515 26.21H29.3547V28.3067H31.4515V26.21Z" fill="#009ACF"/>
<path d="M22.0161 4.19336C17.6863 4.19336 13.5032 5.78062 10.2385 8.66263L11.6255 10.2352C14.5076 7.69078 18.1979 6.29013 22.0161 6.29013C30.6873 6.29013 37.7419 13.3447 37.7419 22.0159C37.7419 25.8352 36.3413 29.5245 33.7968 32.4065L35.3684 33.7946C38.2514 30.5288 39.8387 26.3458 39.8387 22.0159C39.8387 12.1884 31.8437 4.19336 22.0161 4.19336Z" fill="#009ACF"/>
<path d="M32.4067 33.7967C29.5247 36.3411 25.8344 37.7417 22.0162 37.7417C13.345 37.7417 6.29038 30.6871 6.29038 22.0159C6.29038 18.1967 7.69102 14.5074 10.2355 11.6254L8.66393 10.2373C5.78086 13.503 4.1936 17.6861 4.1936 22.0159C4.1936 31.8435 12.1886 39.8385 22.0162 39.8385C26.346 39.8385 30.5291 38.2513 33.7938 35.3692L32.4067 33.7967Z" fill="#00309D"/>
<path d="M45.8837 25.417L45.544 27.4855C53.1721 28.7372 58.7097 35.2551 58.7097 42.9838C58.7097 51.655 51.6551 58.7096 42.9838 58.7096C35.2551 58.7096 28.7373 53.173 27.4855 45.5429L25.416 45.8826C26.8345 54.5307 34.2235 60.8064 42.9838 60.8064C52.8114 60.8064 60.8064 52.8113 60.8064 42.9838C60.8064 34.2234 54.5308 26.8355 45.8837 25.417Z" fill="#009ACF"/>
<path d="M34.3881 50.6719L32.825 52.0704C33.2569 52.5527 33.7308 53.0108 34.2329 53.4333L35.5801 51.8261C35.1545 51.4697 34.7529 51.0807 34.3881 50.6719Z" fill="#009ACF"/>
<path d="M52.5945 49.3604C50.4484 52.5883 46.8556 54.5163 42.9839 54.5163C40.8368 54.5163 38.7432 53.9229 36.9274 52.8001L35.8245 54.5834C37.9716 55.9117 40.4468 56.6131 42.9839 56.6131C47.5591 56.6131 51.805 54.336 54.3411 50.5209L52.5945 49.3604Z" fill="#009ACF"/>
</svg>
