<svg width="46" height="71" viewBox="0 0 46 71" fill="none" xmlns="http://www.w3.org/2000/svg">
<path d="M22.7883 8.26803C22.6932 7.36877 22.4177 6.49785 21.9783 5.70704C21.5237 4.89402 20.8952 4.19113 20.1373 3.64845C18.5295 2.49662 16.2038 1.89619 13.1232 2.23317C9.44122 2.63753 5.58743 0.462532 5.14559 0.211334C4.66264 -0.143865 3.98255 -0.0407819 3.62694 0.441394C3.46631 0.659048 3.39298 0.928778 3.42121 1.19774C4.06555 7.51444 5.56902 11.7909 7.45296 14.4989C8.51705 16.1567 10.0911 17.4252 11.9388 18.1137C13.5152 18.6439 15.2303 18.5872 16.7683 17.9544C17.2224 17.7771 17.6598 17.5597 18.0754 17.305C17.9937 17.1621 17.9077 17.0212 17.8177 16.8823C17.5064 16.4114 17.1396 15.9795 16.7254 15.5956C16.4883 15.7307 16.2423 15.8494 15.989 15.951C14.9286 16.3894 13.7453 16.4307 12.6568 16.0674C11.2558 15.5215 10.0681 14.5397 9.26939 13.2675C7.77206 11.117 6.5386 7.79014 5.85744 2.96838C7.6616 3.74648 10.5213 4.68387 13.3318 4.37141C15.8294 4.0957 17.6275 4.5307 18.8548 5.38845C19.3595 5.74564 19.7788 6.2102 20.0821 6.74859C20.3794 7.28606 20.565 7.87791 20.6283 8.48859C20.6885 9.07339 20.6617 9.66386 20.5485 10.2408C21.1965 10.7507 21.7945 11.321 22.3342 11.9441C22.754 10.7668 22.9089 9.51176 22.7883 8.26803Z" fill="#00309D"/>
<path d="M32.8955 11.0682C32.4077 10.7197 31.7291 10.8322 31.3801 11.3192C31.3715 11.3312 31.3632 11.3434 31.3551 11.3557C30.5819 12.483 29.4221 13.1202 28.2316 13.7696C26.3906 14.7867 24.4576 15.8344 23.2241 18.4689C21.7575 13.0834 18.6892 11.3925 15.719 9.77499C14.0683 8.87436 12.4605 7.9921 11.3682 6.39302C11.0192 5.90594 10.3408 5.79351 9.85274 6.14197C9.37884 6.48048 9.25688 7.1319 9.57629 7.61837C10.9632 9.64633 12.7919 10.6511 14.6758 11.6804C17.7932 13.3775 21.0702 15.1727 21.7575 22.9475C21.8556 22.9475 22.7086 22.9475 23.0277 22.9475C23.3468 22.9475 24.1569 22.9475 24.2551 22.9782C24.9117 18.0768 27.1393 16.8514 29.2625 15.7118C30.6985 14.9031 32.0854 14.1434 33.147 12.581C33.496 12.0941 33.3834 11.4167 32.8955 11.0682Z" fill="#009ACF"/>
<path d="M23.0152 25.0737C10.3126 25.0653 0.00828934 35.3394 4.92692e-06 48.0217C-0.00398387 54.1105 2.41415 59.9514 6.72281 64.2605C11.0289 68.5785 16.8818 71.0041 22.9848 70.9999C35.6874 71.0084 45.9916 60.7341 46 48.052C46.0083 35.3698 35.7177 25.082 23.0152 25.0737ZM34.27 30.5694C38.2085 33.107 41.1766 36.8946 42.6956 41.3219C41.3115 40.1522 39.8269 39.1066 38.2588 38.1973C35.258 36.3592 33.0366 34.9868 34.27 30.5694ZM6.45893 60.6947C3.66571 57.0675 2.15503 52.6183 2.16331 48.043C2.15012 42.5289 4.33874 37.237 8.24469 33.3387C9.24495 36.0835 11.2087 37.7684 13.0067 39.3062C14.6452 40.7092 16.1118 41.9713 16.1425 43.7297C16.1425 44.998 15.3816 45.9599 14.5102 47.0259C13.2902 48.3393 12.4079 49.9288 11.9389 51.6578C11.7645 52.7722 11.7274 53.904 11.8285 55.0275C11.896 56.8349 11.9819 58.9364 11.4112 60.2536C10.8957 61.479 9.57019 61.9691 6.45893 60.6947ZM22.9848 68.8311V68.8249C22.1357 68.8251 21.2873 68.7739 20.4443 68.6718C19.7959 67.2199 20.2757 65.513 21.5857 64.6097C22.543 63.9113 25.1817 64.6955 27.9616 65.5226C29.3976 65.9515 30.8642 66.3865 32.2572 66.6561C29.3773 68.0896 26.2029 68.8341 22.9848 68.8311ZM35.4421 64.6955C33.7055 64.9957 31.079 64.2115 28.5569 63.4702C25.2492 62.4837 22.1073 61.5525 20.2786 62.8881C18.512 64.0545 17.6386 66.18 18.0755 68.249C14.7946 67.4542 11.7573 65.8728 9.22654 63.6417C11.0468 63.8923 12.7945 62.8371 13.4178 61.1114C14.1726 59.3591 14.0806 56.988 14.0315 54.954C13.949 54.0256 13.9654 53.0911 14.0806 52.1663C14.4894 50.7639 15.2231 49.4774 16.2223 48.4106C17.3575 47.0259 18.3762 45.7761 18.3394 43.7175C18.2903 40.9727 16.4984 39.4287 14.4488 37.6765C12.6937 36.1693 10.7668 34.5028 10.0611 31.7642C13.7334 28.8437 18.2899 27.2538 22.9848 27.2549C26.2302 27.2498 29.4313 28.0052 32.3309 29.4605C30.2506 35.8262 33.1593 37.6152 37.099 40.0537C39.2161 41.3587 41.6892 42.872 43.6406 45.6045C43.7356 46.418 43.7827 47.2362 43.7818 48.0552C43.7755 54.6021 40.6868 60.7653 35.4421 64.6955Z" fill="#00309D"/>
<path d="M36.8006 6.51804C36.571 6.49521 36.3403 6.54591 36.1416 6.66293C36.1416 6.66293 33.1408 8.44582 30.3487 8.13948C27.9984 7.88216 26.2065 8.34167 24.9607 9.23617C24.363 9.65984 23.8664 10.21 23.5064 10.8475C23.1698 11.4677 22.961 12.1488 22.8927 12.851C22.8126 13.5315 22.8436 14.2206 22.9848 14.8912C23.5987 14.2298 24.2912 13.6455 25.0467 13.1512V13.0899C25.0887 12.6751 25.2139 12.2729 25.4149 11.9074C25.6209 11.5481 25.9038 11.2386 26.2433 11.0007C27.0717 10.388 28.3543 10.1062 30.1278 10.3022C31.9108 10.4263 33.698 10.1281 35.3439 9.43223C34.8345 12.6917 33.9693 14.9463 32.9322 16.4474C32.3754 17.342 31.5449 18.0337 30.5635 18.4202C29.9898 18.6152 29.3725 18.6429 28.7839 18.4998C28.217 19.0221 27.7126 19.608 27.2804 20.246L27.5136 20.344C28.7156 20.838 30.056 20.8816 31.2876 20.4665C32.7111 19.9352 33.9234 18.9569 34.7425 17.6789C36.16 15.6386 37.2892 12.4282 37.774 7.70448C37.8333 7.1085 37.3975 6.57731 36.8006 6.51804Z" fill="#00309D"/>
</svg>
