<svg width="74" height="43" viewBox="0 0 74 43" fill="none" xmlns="http://www.w3.org/2000/svg">
<path d="M63.8264 11.3064C48.9654 -3.7688 24.7871 -3.7688 9.92608 11.3064L0 21.3743L10.1723 31.6933C17.6022 39.2302 27.362 43 37.1231 43C46.8842 43 56.6428 39.2315 64.0739 31.6933L74 21.6241L63.8264 11.3064ZM62.3052 29.9003C48.4192 43.9852 25.8258 43.9852 11.9398 29.9003L3.53494 21.3743L11.6936 13.0981C25.5796 -0.986818 48.1729 -0.986818 62.059 13.0981L70.4638 21.6241L62.3052 29.9003Z" fill="#00309D"/>
<path d="M36.9643 4.97803C28.0045 4.97803 20.7146 12.373 20.7146 21.462C20.7146 30.551 28.0045 37.9459 36.9643 37.9459C45.9242 37.9459 53.2141 30.551 53.2141 21.462C53.2141 12.373 45.9254 4.97803 36.9643 4.97803ZM36.9643 35.41C29.3832 35.41 23.2146 29.1524 23.2146 21.462C23.2146 13.7716 29.3832 7.51402 36.9643 7.51402C44.5455 7.51402 50.7141 13.7716 50.7141 21.462C50.7141 29.1524 44.5467 35.41 36.9643 35.41Z" fill="#00309D"/>
<path d="M40.3753 15.9757C38.9184 13.6767 37.4403 11.7807 37.4255 11.7618L36.9999 11.2173L36.5744 11.7618C36.5596 11.7807 35.0815 13.6767 33.6246 15.9757C31.6311 19.1213 30.6204 21.5031 30.6204 23.0548C30.6204 26.8364 33.4822 29.9129 37 29.9129C40.5177 29.9129 43.3796 26.8364 43.3796 23.0548C43.3796 21.5031 42.3688 19.1213 40.3753 15.9757Z" fill="#009ACF"/>
</svg>
