<svg width="58" height="58" viewBox="0 0 58 58" fill="none" xmlns="http://www.w3.org/2000/svg">
<path d="M0 0H58V58H0V0Z" fill="#00309D"/>
<path d="M33.596 28.882L24.689 19.57C24.6148 19.4924 24.5127 19.4475 24.4054 19.4452C24.298 19.4428 24.1941 19.4832 24.1165 19.5575C24.039 19.6317 23.9941 19.7338 23.9917 19.8411C23.9894 19.9485 24.0298 20.0524 24.104 20.13L32.743 29.162L24.104 38.194C24.0298 38.2716 23.9894 38.3755 23.9917 38.4828C23.9941 38.5902 24.039 38.6922 24.1165 38.7665C24.1941 38.8407 24.298 38.8811 24.4054 38.8788C24.5127 38.8765 24.6148 38.8316 24.689 38.754L33.596 29.445C33.6688 29.3693 33.7095 29.2685 33.7095 29.1635C33.7095 29.0585 33.6688 28.9576 33.596 28.882Z" fill="#F8F8F8"/>
</svg>
