<svg width="58" height="58" viewBox="0 0 58 58" fill="none" xmlns="http://www.w3.org/2000/svg">
<path d="M58 0H0V58H58V0Z" fill="#00309D"/>
<path d="M24.404 28.8822L33.311 19.5702C33.3852 19.4927 33.4873 19.4478 33.5946 19.4454C33.702 19.4431 33.8059 19.4835 33.8835 19.5577C33.961 19.632 34.0059 19.734 34.0083 19.8414C34.0106 19.9488 33.9702 20.0527 33.896 20.1302L25.257 29.1622L33.896 38.1942C33.9702 38.2718 34.0106 38.3757 34.0083 38.4831C34.0059 38.5904 33.961 38.6925 33.8835 38.7667C33.8059 38.841 33.702 38.8814 33.5946 38.879C33.4873 38.8767 33.3852 38.8318 33.311 38.7542L24.404 29.4452C24.3312 29.3696 24.2905 29.2687 24.2905 29.1637C24.2905 29.0588 24.3312 28.9579 24.404 28.8822Z" fill="#F8F8F8"/>
</svg>
