<svg width="58" height="58" viewBox="0 0 58 58" fill="none" xmlns="http://www.w3.org/2000/svg">
<path d="M58 0H0V58H58V0Z" fill="white"/>
<path d="M33.896 28.8822L24.989 19.5702C24.9148 19.4927 24.8127 19.4478 24.7054 19.4454C24.598 19.4431 24.4941 19.4835 24.4165 19.5577C24.339 19.632 24.2941 19.734 24.2917 19.8414C24.2894 19.9488 24.3298 20.0527 24.404 20.1302L33.043 29.1622L24.404 38.1942C24.3298 38.2718 24.2894 38.3757 24.2917 38.4831C24.2941 38.5904 24.339 38.6925 24.4165 38.7667C24.4941 38.841 24.598 38.8814 24.7054 38.879C24.8127 38.8767 24.9148 38.8318 24.989 38.7542L33.896 29.4452C33.9688 29.3696 34.0095 29.2687 34.0095 29.1637C34.0095 29.0588 33.9688 28.9579 33.896 28.8822Z" fill="#00309D"/>
</svg>
