<svg width="800" height="789" viewBox="0 0 800 789" fill="none" xmlns="http://www.w3.org/2000/svg">
<path d="M686.659 357.229L685.651 361.1L693.393 363.115L694.401 359.245L686.659 357.229ZM629.421 192.953L638.797 238.18L673.276 207.447L629.421 192.953ZM694.401 359.245C698.022 345.337 697.494 322.348 691.732 296.864C685.944 271.263 674.769 242.658 656.622 217.491L650.133 222.17C667.537 246.308 678.332 273.871 683.929 298.628C689.553 323.503 689.826 345.065 686.659 357.229L694.401 359.245Z" fill="#008E62"/>
<path d="M511.351 107.026L514.394 109.622L519.586 103.535L516.542 100.939L511.351 107.026ZM338.562 86.8637L383.348 98.1576L370.735 53.7249L338.562 86.8637ZM516.542 100.939C505.607 91.6136 484.692 82.0596 459.247 76.1263C433.685 70.1658 403.071 67.7429 372.508 73.0923L373.887 80.9725C403.2 75.842 432.711 78.1533 457.43 83.9173C482.266 89.7086 501.787 98.8696 511.351 107.026L516.542 100.939Z" fill="#008E62"/>
<path d="M201.499 138.573L205.372 137.577L203.38 129.829L199.506 130.825L201.499 138.573ZM85.6011 268.305L120.604 238.17L77.005 222.924L85.6011 268.305ZM199.506 130.825C185.588 134.404 165.74 146.015 146.249 163.415C126.668 180.894 107.074 204.54 93.866 232.617L101.105 236.022C113.772 209.094 132.641 186.285 151.576 169.383C170.601 152.4 189.325 141.703 201.499 138.573L199.506 130.825Z" fill="#008E62"/>
<path d="M170.11 224.979L168.093 228.433L161.184 224.4L163.201 220.946L170.11 224.979ZM326.567 148.929L288.017 174.369L285.261 128.263L326.567 148.929ZM163.201 220.946C170.446 208.535 187.037 192.614 209.099 178.617C231.262 164.555 259.362 152.166 289.979 147.13L291.277 155.024C261.913 159.854 234.817 171.774 213.385 185.372C191.851 199.034 176.447 214.123 170.11 224.979L163.201 220.946Z" fill="#FF8080"/>
<path d="M450.33 138.977L446.353 139.406L445.495 131.452L449.472 131.023L450.33 138.977ZM604.428 219.7L561.067 203.789L596.527 174.193L604.428 219.7ZM449.472 131.023C463.76 129.482 486.422 133.377 510.785 142.816C535.26 152.298 561.915 167.549 584.148 189.193L578.567 194.925C557.244 174.167 531.563 159.445 507.895 150.276C484.115 141.063 462.827 137.629 450.33 138.977L449.472 131.023Z" fill="#FF8080"/>
<path d="M712.349 377.816L710.614 374.211L717.823 370.742L719.558 374.346L712.349 377.816ZM687.837 550.042L688.323 503.856L728.078 527.369L687.837 550.042ZM719.558 374.346C725.79 387.295 729.702 409.955 728.959 436.072C728.212 462.309 722.758 492.53 709.8 520.723L702.531 517.382C714.959 490.343 720.24 461.216 720.962 435.844C721.688 410.352 717.801 389.142 712.349 377.816L719.558 374.346Z" fill="#FF8080"/>
<path d="M524.71 676.43L527.495 673.559L533.237 679.128L530.452 682L524.71 676.43ZM354.595 712.811L398.115 697.341L389.753 742.765L354.595 712.811ZM530.452 682C520.447 692.316 500.526 703.801 475.755 712.11C450.869 720.456 420.621 725.758 389.689 723.317L390.318 715.342C419.985 717.683 449.146 712.596 473.211 704.525C497.389 696.415 515.958 685.453 524.71 676.43L530.452 682Z" fill="#FF8080"/>
<path d="M218.172 679.31L222.089 680.122L220.464 687.956L216.547 687.143L218.172 679.31ZM96.2896 555.184L132.674 583.636L89.8417 600.919L96.2896 555.184ZM216.547 687.143C202.475 684.224 182.103 673.561 161.813 657.1C141.43 640.563 120.743 617.866 106.227 590.443L113.298 586.7C127.22 613.001 147.142 634.895 166.853 650.887C186.658 666.954 205.864 676.757 218.172 679.31L216.547 687.143Z" fill="#FF8080"/>
<path d="M68.9968 385.12L70.0201 381.253L62.2863 379.207L61.263 383.074L68.9968 385.12ZM125.579 549.623L116.384 504.359L81.7825 534.955L125.579 549.623ZM61.263 383.074C57.5867 396.967 58.0228 419.957 63.6828 445.464C69.3688 471.089 80.4301 499.737 98.4765 524.977L104.984 520.324C87.6761 496.117 76.9913 468.511 71.4928 443.731C65.9682 418.835 65.7814 397.272 68.9968 385.12L61.263 383.074Z" fill="#008E62"/>
<path d="M214.417 625.55L212.053 622.324L205.6 627.052L207.964 630.279L214.417 625.55ZM377.925 684.947L336.941 663.646L338.987 709.789L377.925 684.947ZM207.964 630.279C216.459 641.871 234.613 655.983 258.009 667.614C281.512 679.299 310.747 688.704 341.72 690.534L342.192 682.548C312.486 680.793 284.299 671.75 261.571 660.451C238.735 649.098 221.847 635.689 214.417 625.55L207.964 630.279Z" fill="#008E62"/>
<path d="M561.269 633.112L557.502 634.459L560.195 641.992L563.961 640.646L561.269 633.112ZM664.818 493.326L632.717 526.535L677.528 537.731L664.818 493.326ZM563.961 640.646C577.494 635.809 596.197 622.431 614.016 603.323C631.917 584.127 649.266 558.787 659.851 529.621L652.331 526.892C642.179 554.865 625.476 579.304 608.165 597.867C590.772 616.518 573.105 628.882 561.269 633.112L563.961 640.646Z" fill="#008E62"/>
</svg>
