<svg width="71" height="71" viewBox="0 0 71 71" fill="none" xmlns="http://www.w3.org/2000/svg">
<path d="M0 29C0 12.9837 12.9837 0 29 0H71V69C71 70.1046 70.1046 71 69 71H0V29Z" fill="#009ACF" fill-opacity="0.06"/>
<path d="M48.9377 37.9768C48.3283 37.0598 47.7906 36.2163 47.2887 35.4461C47.217 35.336 47.1094 35.226 47.0019 35.1527C46.5717 34.8592 45.9981 35.0059 45.7113 35.4461C45.2453 36.2163 44.7075 37.0232 44.0623 37.9768C41.2302 42.2313 37 48.6497 37 52.3173C37 54.9947 38.0755 57.4154 39.7962 59.1759C41.517 60.8997 43.883 62 46.5 62C49.117 62 51.483 60.8997 53.2038 59.1392C54.9245 57.3787 56 54.9581 56 52.2807C56 48.613 51.7698 42.2313 48.9377 37.9768ZM51.9132 57.8188C50.5151 59.2492 48.6151 60.0928 46.5 60.0928C44.3849 60.0928 42.4849 59.2126 41.0868 57.8188C39.6887 56.3885 38.8642 54.4446 38.8642 52.2807C38.8642 49.1998 42.9151 43.0748 45.6038 39.0037C45.9264 38.5269 46.2132 38.0501 46.5 37.6467C46.7868 38.0501 47.0736 38.5269 47.3962 39.0037C50.0849 43.1115 54.1358 49.1998 54.1358 52.2807C54.1358 54.4446 53.2755 56.3885 51.9132 57.8188Z" fill="#009ACF" fill-opacity="0.4"/>
<path d="M52.0565 51.6205C51.5546 51.5838 51.1244 51.9872 51.0885 52.5007C51.0527 53.3076 50.8017 54.0778 50.4074 54.738C50.0131 55.3982 49.4395 55.985 48.7583 56.3518C48.3282 56.6085 48.1489 57.1953 48.3999 57.6355C48.6866 58.1489 49.2602 58.2956 49.6904 58.0389C50.6583 57.4888 51.447 56.6819 51.9848 55.7649C52.5583 54.848 52.881 53.7477 52.9168 52.6108C52.9527 52.0973 52.5583 51.6572 52.0565 51.6205Z" fill="#009ACF" fill-opacity="0.4"/>
</svg>
