<svg width="649" height="747" viewBox="0 0 649 747" fill="none" xmlns="http://www.w3.org/2000/svg">
<path d="M384.828 56.5332C331.14 95.2988 284.957 72.6855 268.577 56.5332L276.278 109.395L299.749 104.623L302.316 152.713L281.779 147.206L286.547 175.473L305.249 173.637L310.017 219.892H294.981L297.915 247.057L310.017 243.386L313.684 287.805H305.249L306.716 311.299H316.618V368.199H333.854L336.054 311.299H343.755L345.589 286.704H338.621L341.188 243.386L355.124 247.057L357.691 219.892H343.755L347.789 173.637L366.125 175.473L370.893 147.206L347.789 150.877L350.356 104.623L378.594 109.395L384.828 56.5332Z" fill="#00309D"/>
<path d="M274.078 31.4581C290.458 53.3616 334.147 84.0265 377.861 31.4581C362.703 7.71907 320.725 -25.5155 274.078 31.4581Z" fill="black"/>
<ellipse cx="326.152" cy="30.102" rx="30.0713" ry="30.102" fill="#00309D"/>
<path d="M474.843 144.778L340.531 416.977L308.952 398.93L474.843 144.778Z" fill="#00309D"/>
<path d="M177.269 673.082L340.43 417.165L308.66 399.457L177.269 673.082Z" fill="#00309D"/>
<path d="M481.466 669.033L311.734 417.434L343.035 398.908L481.466 669.033Z" fill="#00309D"/>
<path d="M170.307 148.63L311.621 417.254L342.721 398.393L170.307 148.63Z" fill="#00309D"/>
<path d="M628.864 405.655L326.229 425.501L326.031 389.101L628.864 405.655Z" fill="#00309D"/>
<path d="M23.0225 412.202L326.015 425.507L325.428 389.112L23.0225 412.202Z" fill="#00309D"/>
<path d="M383.728 689.777C330.039 651.012 283.857 673.625 267.477 689.777L275.178 636.915L298.648 641.687L301.215 593.597L280.679 599.104L285.446 570.837L304.149 572.673L308.916 526.418H293.881L296.814 499.253L308.916 502.924L312.583 458.505H304.149L305.616 435.011H315.517V378.111H332.753L334.954 435.011H342.655L344.488 459.607H337.521L340.088 502.924L354.023 499.253L356.59 526.418H342.655L346.689 572.673L365.025 570.837L369.792 599.104L346.689 595.433L349.256 641.687L377.493 636.915L383.728 689.777Z" fill="#00309D"/>
<path d="M272.978 714.852C289.358 692.949 333.047 662.284 376.76 714.852C361.602 738.591 319.625 771.826 272.978 714.852Z" fill="black"/>
<ellipse rx="30.0713" ry="30.102" transform="matrix(1 0 0 -1 325.052 716.208)" fill="#00309D"/>
<path d="M600.101 497.961C539.591 524.833 535.819 576.159 541.497 598.462L499.772 565.156L515.721 547.271L475.526 520.809L469.924 541.339L447.94 522.968L458.952 507.725L421.449 480.286L413.869 493.284L391.911 477.054L401.179 468.442L364.705 442.879L360.453 450.171L340.923 437.059L345.914 428.499L296.824 399.815L305.512 384.914L355.713 411.696L359.595 405.038L381.739 415.852L378.227 421.876L416.893 441.493L420.751 427.595L445.482 439.07L438.457 451.118L480.397 470.948L488.057 454.171L514.847 464.299L500.033 482.422L541.233 503.52L551.351 476.702L600.101 497.961Z" fill="#00309D"/>
<path d="M565.904 606.347C555.264 581.144 550.832 527.916 618.223 516.625C631.062 541.697 638.574 594.741 565.904 606.347Z" fill="black"/>
<ellipse rx="30.0942" ry="30.0791" transform="matrix(0.503729 -0.863862 -0.863413 -0.504498 593.326 562.011)" fill="#00309D"/>
<path d="M52.6645 320.768C112.732 292.919 115.674 241.539 109.636 219.33L151.894 251.956L136.236 270.097L176.854 295.904L182.123 275.286L204.401 293.299L193.637 308.719L231.579 335.547L238.947 322.427L261.165 338.3L252.037 347.061L288.92 372.029L293.053 364.669L312.793 377.463L307.941 386.103L357.489 413.988L349.042 429.027L298.415 403.062L294.641 409.782L272.325 399.329L275.74 393.249L236.761 374.26L233.128 388.219L208.215 377.146L215.045 364.986L172.79 345.838L165.402 362.737L138.451 353.045L152.97 334.684L111.434 314.256L101.752 341.234L52.6645 320.768Z" fill="#00309D"/>
<path d="M85.1054 211.842C96.1513 236.869 101.443 290.019 34.2446 302.4C21.0013 277.54 12.6328 224.624 85.1054 211.842Z" fill="black"/>
<ellipse rx="30.0947" ry="30.0787" transform="matrix(-0.48969 0.871897 0.871469 0.490451 58.4033 256.616)" fill="#00309D"/>
<path d="M105.614 596.085C114.02 530.356 72.1272 500.524 50.1299 493.825L100.211 475.369L107.223 498.292L150.664 477.598L136.029 462.161L163.118 452.864L170.433 470.192L213.313 452.309L206.137 439.083L231.384 428.698L233.938 441.096L274.681 423.121L270.655 415.702L291.98 405.779L296.706 414.488L346.656 387.331L354.882 402.493L305.982 431.586L309.658 438.36L288.942 451.712L285.616 445.583L248.815 468.515L258.689 479.022L236.067 494.245L229.416 481.987L190.737 507.612L201.099 522.865L178.561 540.55L170.757 518.475L131.377 542.809L149.044 565.371L105.614 596.085Z" fill="#00309D"/>
<path d="M30.7435 510.631C57.7895 514.586 105.561 538.381 80.277 601.924C52.2031 599.92 2.99291 578.857 30.7435 510.631Z" fill="black"/>
<ellipse rx="30.095" ry="30.0783" transform="matrix(0.476905 0.878955 0.878545 -0.477659 54.4075 557.086)" fill="#00309D"/>
<path d="M541.606 218.661C534.246 284.515 576.609 313.675 598.71 320.024L548.929 339.275L541.553 316.467L498.447 337.851L513.326 353.052L486.388 362.78L478.798 345.571L436.208 364.135L443.594 377.245L418.515 388.031L415.764 375.676L375.312 394.297L379.455 401.652L358.291 411.913L353.427 403.28L303.916 431.23L295.449 416.202L343.88 386.333L340.097 379.618L360.598 365.938L364.021 372.013L400.453 348.496L390.413 338.149L412.79 322.567L419.635 334.717L457.902 308.479L447.298 293.393L469.552 275.351L477.706 297.299L516.694 272.34L498.67 250.063L541.606 218.661Z" fill="#00309D"/>
<path d="M617.828 302.91C590.722 299.387 542.579 276.356 566.849 212.419C594.951 213.975 644.49 234.251 617.828 302.91Z" fill="black"/>
<ellipse rx="30.0946" ry="30.0787" transform="matrix(-0.490832 -0.871254 -0.870824 0.491595 593.429 256.839)" fill="#00309D"/>
<path d="M364.656 408.213C364.656 429.503 347.415 446.758 326.152 446.758C304.889 446.758 287.648 429.503 287.648 408.213C287.648 386.923 304.889 369.668 326.152 369.668C347.415 369.668 364.656 386.923 364.656 408.213Z" fill="#FDFF9F" stroke="white" stroke-width="3.67098"/>
<path d="M331.346 388.08V392.02H330.618C327.657 392.087 325.34 393.09 323.667 395.031C321.994 396.955 321.032 399.857 320.781 403.739C322.403 401.698 324.478 400.677 327.004 400.677C329.698 400.677 331.831 401.79 333.403 404.015C334.993 406.223 335.787 409.126 335.787 412.723C335.787 416.554 334.909 419.582 333.152 421.807C331.412 424.032 329.07 425.144 326.126 425.144C323.165 425.144 320.781 423.831 318.974 421.205C317.167 418.578 316.264 415.09 316.264 410.74V408.958C316.264 403.94 316.807 399.941 317.895 396.963C318.982 393.985 320.58 391.777 322.688 390.338C324.813 388.883 327.447 388.13 330.593 388.08H331.346ZM326.251 404.542C325.047 404.542 323.934 405.002 322.914 405.922C321.893 406.842 321.157 408.013 320.705 409.435V411.267C320.705 414.228 321.224 416.646 322.261 418.519C323.315 420.376 324.603 421.305 326.126 421.305C327.782 421.305 329.079 420.544 330.015 419.021C330.952 417.482 331.421 415.458 331.421 412.948C331.421 410.472 330.952 408.457 330.015 406.901C329.079 405.328 327.824 404.542 326.251 404.542Z" fill="black"/>
</svg>
