<svg width="25" height="25" viewBox="0 0 25 25" fill="none" xmlns="http://www.w3.org/2000/svg">
<path d="M14.5155 24.8374C14.4113 24.8544 14.3068 24.87 14.2019 24.8843C14.3068 24.87 14.4113 24.8544 14.5155 24.8374Z" fill="#00309D"/>
<path d="M14.7656 24.7947C14.7158 24.8038 14.666 24.8122 14.6162 24.8208C14.666 24.8122 14.7158 24.8038 14.7656 24.7947Z" fill="#00309D"/>
<path d="M13.9227 24.9189C13.8008 24.9327 13.6782 24.9449 13.5552 24.9552C13.6782 24.9449 13.8008 24.9327 13.9227 24.9189Z" fill="#00309D"/>
<path d="M14.1628 24.8896C14.1043 24.8975 14.0453 24.9047 13.9866 24.9116C14.0453 24.9047 14.1043 24.8975 14.1628 24.8896Z" fill="#00309D"/>
<path d="M15.1059 24.7271C15.062 24.7364 15.0179 24.7457 14.9739 24.7547C15.0179 24.7457 15.062 24.7364 15.1059 24.7271Z" fill="#00309D"/>
<path d="M15.9504 24.5173C15.9149 24.5274 15.8795 24.537 15.844 24.5469C15.8795 24.537 15.9149 24.5274 15.9504 24.5173Z" fill="#00309D"/>
<path d="M15.6949 24.5872C15.6564 24.5973 15.6177 24.6076 15.579 24.6173C15.6177 24.6076 15.6564 24.5975 15.6949 24.5872Z" fill="#00309D"/>
<path d="M15.3609 24.6707C15.3201 24.6802 15.2789 24.6892 15.2377 24.6983C15.2789 24.6892 15.3201 24.6802 15.3609 24.6707Z" fill="#00309D"/>
<path d="M13.5511 24.9556C13.4853 24.9611 13.4195 24.9661 13.3535 24.9704C13.4195 24.9661 13.4853 24.9611 13.5511 24.9556Z" fill="#00309D"/>
<path d="M25 12.5C25 5.5975 19.4025 0 12.5 0C5.5975 0 0 5.5975 0 12.5C0 19.4025 5.5975 25 12.5 25C12.5734 25 12.6465 24.9985 12.7197 24.9971V15.2664H10.0342V12.1367H12.7197V9.83353C12.7197 7.16248 14.3503 5.70869 16.733 5.70869C17.874 5.70869 18.8547 5.79376 19.1406 5.83172V8.62331H17.4976C16.2014 8.62331 15.9504 9.23939 15.9504 10.1433V12.1367H19.0498L18.6459 15.2664H15.9504V24.5171C21.1752 23.0192 25 18.2056 25 12.5Z" fill="#00309D"/>
<path d="M13.3259 24.9722C13.1958 24.9806 13.0651 24.9872 12.9341 24.9916C13.0651 24.9872 13.1958 24.9806 13.3259 24.9722Z" fill="#00309D"/>
<path d="M12.9275 24.9919C12.8584 24.9942 12.7892 24.9959 12.72 24.9971C12.7892 24.9959 12.8584 24.9942 12.9275 24.9919Z" fill="#00309D"/>
</svg>
