<svg width="193" height="38" viewBox="0 0 193 38" fill="none" xmlns="http://www.w3.org/2000/svg">
<path d="M53.1059 24.3265H53.2848C54.6563 24.3265 55.7297 23.9688 56.5049 23.2532C57.2886 22.5291 57.6804 21.5409 57.6804 20.2887C57.6804 19.1301 57.3184 18.2016 56.5943 17.503C55.8702 16.796 54.8821 16.4425 53.6298 16.4425H53.1059V24.3265ZM49.5408 30.2556V27.3805H49.2597C47.6752 27.3805 46.2867 27.1036 45.094 26.5499C43.9014 25.9877 42.9601 25.1486 42.2701 24.0326C41.5886 22.9167 41.2478 21.6772 41.2478 20.3142C41.2478 18.9938 41.5503 17.8055 42.1551 16.7491C42.7684 15.6843 43.6501 14.8537 44.8002 14.2574C45.9502 13.6526 47.3047 13.3502 48.8636 13.3502H49.5408V11.0501H53.1059V13.3502H53.7831C55.3335 13.3502 56.6838 13.6526 57.8338 14.2574C58.9838 14.8537 59.8655 15.6843 60.4788 16.7491C61.0922 17.8055 61.3989 18.9938 61.3989 20.3142C61.3989 21.6772 61.0539 22.9167 60.3638 24.0326C59.6823 25.1486 58.7453 25.9877 57.5527 26.5499C56.36 27.1036 54.9715 27.3805 53.387 27.3805H53.1059V30.2556H49.5408ZM49.5408 16.4425H49.0169C47.7647 16.4425 46.7765 16.7917 46.0524 17.4903C45.3283 18.1888 44.9663 19.1216 44.9663 20.2887C44.9663 21.5154 45.3496 22.495 46.1163 23.2276C46.883 23.9602 47.9649 24.3265 49.3619 24.3265H49.5408V16.4425ZM71.3601 30H67.3989V14.6152H62.326V11.3185H76.433V14.6152H71.3601V30ZM89.9594 30L88.6049 25.5532H81.7942L80.4397 30H76.1719L82.7653 11.2418H87.6082L94.2273 30H89.9594ZM87.6593 22.2309C86.4071 18.2016 85.7 15.9228 85.5382 15.3947C85.3848 14.8665 85.2741 14.4491 85.2059 14.1424C84.9248 15.2328 84.1198 17.929 82.7909 22.2309H87.6593ZM110.59 30H106.642V14.6152H102.067L101.863 16.3275C101.335 20.6805 100.866 23.7387 100.457 25.5021C100.057 27.257 99.4692 28.4922 98.694 29.2078C97.9188 29.9233 96.871 30.2726 95.5506 30.2556C94.835 30.2556 94.2046 30.1619 93.6594 29.9744V26.7288C94.1535 26.8992 94.6178 26.9844 95.0522 26.9844C95.5037 26.9844 95.8615 26.7799 96.1256 26.371C96.3897 25.9536 96.6367 25.1869 96.8667 24.071C97.1052 22.9465 97.4162 21.1107 97.7995 18.5636C98.1914 16.008 98.5236 13.593 98.7962 11.3185H110.59V30ZM125.957 30L124.602 25.5532H117.792L116.437 30H112.169L118.763 11.2418H123.606L130.225 30H125.957ZM123.657 22.2309C122.404 18.2016 121.697 15.9228 121.536 15.3947C121.382 14.8665 121.271 14.4491 121.203 14.1424C120.922 15.2328 120.117 17.929 118.788 22.2309H123.657ZM143.61 11.3185V14.5896H135.765V30H131.803V11.3185H143.61ZM156.472 30H145.713V11.3185H156.472V14.5641H149.674V18.6659H156V21.9115H149.674V26.7288H156.472V30ZM174.382 30H170.433V14.6152H165.859L165.654 16.3275C165.126 20.6805 164.657 23.7387 164.249 25.5021C163.848 27.257 163.26 28.4922 162.485 29.2078C161.71 29.9233 160.662 30.2726 159.342 30.2556C158.626 30.2556 157.996 30.1619 157.451 29.9744V26.7288C157.945 26.8992 158.409 26.9844 158.843 26.9844C159.295 26.9844 159.653 26.7799 159.917 26.371C160.181 25.9536 160.428 25.1869 160.658 24.071C160.896 22.9465 161.207 21.1107 161.591 18.5636C161.983 16.008 162.315 13.593 162.587 11.3185H174.382V30ZM191.473 24.1604C191.473 28.0535 188.9 30 183.755 30H178.312V11.3185H182.273V18.487H183.832C186.268 18.487 188.151 18.981 189.48 19.9692C190.809 20.9574 191.473 22.3545 191.473 24.1604ZM182.273 26.7544H183.602C184.939 26.7544 185.919 26.5414 186.541 26.1155C187.163 25.681 187.473 25.0293 187.473 24.1604C187.473 23.3 187.158 22.6824 186.528 22.3076C185.897 21.9243 184.816 21.7326 183.282 21.7326H182.273V26.7544Z" fill="#191B1A"/>
<path d="M53.1059 24.3265H52.9014V24.531H53.1059V24.3265ZM56.5049 23.2532L56.6435 23.4034L56.6436 23.4033L56.5049 23.2532ZM56.5943 17.503L56.4515 17.6493L56.4524 17.6502L56.5943 17.503ZM53.1059 16.4425V16.238H52.9014V16.4425H53.1059ZM49.5408 30.2556H49.3364V30.46H49.5408V30.2556ZM49.5408 27.3805H49.7453V27.176H49.5408V27.3805ZM45.094 26.5499L45.0069 26.7349L45.008 26.7354L45.094 26.5499ZM42.2701 24.0326L42.0956 24.1392L42.0962 24.1402L42.2701 24.0326ZM42.1551 16.7491L41.9779 16.6471L41.9777 16.6476L42.1551 16.7491ZM44.8002 14.2574L44.8943 14.4389L44.8953 14.4384L44.8002 14.2574ZM49.5408 13.3502V13.5546H49.7453V13.3502H49.5408ZM49.5408 11.0501V10.8457H49.3364V11.0501H49.5408ZM53.1059 11.0501H53.3103V10.8457H53.1059V11.0501ZM53.1059 13.3502H52.9014V13.5546H53.1059V13.3502ZM57.8338 14.2574L57.7386 14.4384L57.7397 14.4389L57.8338 14.2574ZM60.4788 16.7491L60.3017 16.8512L60.302 16.8518L60.4788 16.7491ZM60.3638 24.0326L60.1899 23.9251L60.1894 23.9261L60.3638 24.0326ZM57.5527 26.5499L57.6388 26.7354L57.6398 26.7348L57.5527 26.5499ZM53.1059 27.3805V27.176H52.9014V27.3805H53.1059ZM53.1059 30.2556V30.46H53.3103V30.2556H53.1059ZM49.5408 16.4425H49.7453V16.238H49.5408V16.4425ZM46.0524 17.4903L46.1944 17.6374L46.0524 17.4903ZM49.5408 24.3265V24.531H49.7453V24.3265H49.5408ZM53.1059 24.531H53.2848V24.1221H53.1059V24.531ZM53.2848 24.531C54.6918 24.531 55.8203 24.1633 56.6435 23.4034L56.3662 23.1029C55.639 23.7742 54.6208 24.1221 53.2848 24.1221V24.531ZM56.6436 23.4033C57.4765 22.6338 57.8849 21.5871 57.8849 20.2887H57.476C57.476 21.4947 57.1006 22.4244 56.3661 23.103L56.6436 23.4033ZM57.8849 20.2887C57.8849 19.0838 57.5064 18.0989 56.7363 17.3559L56.4524 17.6502C57.1304 18.3043 57.476 19.1765 57.476 20.2887H57.8849ZM56.7371 17.3568C55.9663 16.604 54.9221 16.238 53.6298 16.238V16.6469C54.842 16.6469 55.7742 16.988 56.4515 17.6493L56.7371 17.3568ZM53.6298 16.238H53.1059V16.6469H53.6298V16.238ZM52.9014 16.4425V24.3265H53.3103V16.4425H52.9014ZM49.7453 30.2556V27.3805H49.3364V30.2556H49.7453ZM49.5408 27.176H49.2597V27.5849H49.5408V27.176ZM49.2597 27.176C47.699 27.176 46.3408 26.9034 45.1801 26.3645L45.008 26.7354C46.2325 27.3039 47.6515 27.5849 49.2597 27.5849V27.176ZM45.1812 26.365C44.0242 25.8195 43.1131 25.0072 42.444 23.9251L42.0962 24.1402C42.8071 25.2899 43.7786 26.1558 45.0069 26.7348L45.1812 26.365ZM42.4446 23.9261C41.7835 22.8436 41.4523 21.6413 41.4523 20.3142H41.0434C41.0434 21.7131 41.3937 22.9898 42.0956 24.1392L42.4446 23.9261ZM41.4523 20.3142C41.4523 19.0263 41.7469 17.8735 42.3325 16.8507L41.9777 16.6476C41.3536 17.7374 41.0434 18.9613 41.0434 20.3142H41.4523ZM42.3323 16.8512C42.925 15.8221 43.777 15.0183 44.8943 14.4389L44.706 14.0759C43.5233 14.6892 42.6119 15.5465 41.9779 16.6471L42.3323 16.8512ZM44.8953 14.4384C46.0107 13.8518 47.3312 13.5546 48.8636 13.5546V13.1457C47.2781 13.1457 45.8897 13.4534 44.705 14.0765L44.8953 14.4384ZM48.8636 13.5546H49.5408V13.1457H48.8636V13.5546ZM49.7453 13.3502V11.0501H49.3364V13.3502H49.7453ZM49.5408 11.2546H53.1059V10.8457H49.5408V11.2546ZM52.9014 11.0501V13.3502H53.3103V11.0501H52.9014ZM53.1059 13.5546H53.7831V13.1457H53.1059V13.5546ZM53.7831 13.5546C55.3068 13.5546 56.6231 13.8517 57.7386 14.4384L57.929 14.0765C56.7444 13.4535 55.3603 13.1457 53.7831 13.1457V13.5546ZM57.7397 14.4389C58.857 15.0183 59.7089 15.8221 60.3017 16.8512L60.656 16.6471C60.0221 15.5465 59.1107 14.6892 57.9279 14.0759L57.7397 14.4389ZM60.302 16.8518C60.8958 17.8744 61.1944 19.0269 61.1944 20.3142H61.6033C61.6033 18.9608 61.2886 17.7365 60.6557 16.6465L60.302 16.8518ZM61.1944 20.3142C61.1944 21.6408 60.8592 22.8428 60.19 23.9251L60.5377 24.1402C61.2485 22.9906 61.6033 21.7136 61.6033 20.3142H61.1944ZM60.1894 23.9261C59.5289 25.0076 58.6223 25.8196 57.4655 26.365L57.6398 26.7348C58.8683 26.1557 59.8358 25.2895 60.5383 24.1392L60.1894 23.9261ZM57.4666 26.3645C56.3059 26.9034 54.9478 27.176 53.387 27.176V27.5849C54.9952 27.5849 56.4142 27.3039 57.6388 26.7354L57.4666 26.3645ZM53.387 27.176H53.1059V27.5849H53.387V27.176ZM52.9014 27.3805V30.2556H53.3103V27.3805H52.9014ZM53.1059 30.0511H49.5408V30.46H53.1059V30.0511ZM49.5408 16.238H49.0169V16.6469H49.5408V16.238ZM49.0169 16.238C47.7253 16.238 46.6814 16.5993 45.9105 17.3431L46.1944 17.6374C46.8715 16.9841 47.804 16.6469 49.0169 16.6469V16.238ZM45.9105 17.3431C45.14 18.0864 44.7618 19.0758 44.7618 20.2887H45.1707C45.1707 19.1674 45.5167 18.2912 46.1944 17.6374L45.9105 17.3431ZM44.7618 20.2887C44.7618 21.5616 45.1616 22.5981 45.975 23.3754L46.2575 23.0798C45.5376 22.3919 45.1707 21.4691 45.1707 20.2887H44.7618ZM45.975 23.3754C46.7906 24.1548 47.9294 24.531 49.3619 24.531V24.1221C48.0003 24.1221 46.9753 23.7657 46.2575 23.0798L45.975 23.3754ZM49.3619 24.531H49.5408V24.1221H49.3619V24.531ZM49.7453 24.3265V16.4425H49.3364V24.3265H49.7453ZM71.3601 30V30.2044H71.5646V30H71.3601ZM67.3989 30H67.1945V30.2044H67.3989V30ZM67.3989 14.6152H67.6034V14.4108H67.3989V14.6152ZM62.326 14.6152H62.1216V14.8197H62.326V14.6152ZM62.326 11.3185V11.114H62.1216V11.3185H62.326ZM76.433 11.3185H76.6375V11.114H76.433V11.3185ZM76.433 14.6152V14.8197H76.6375V14.6152H76.433ZM71.3601 14.6152V14.4108H71.1557V14.6152H71.3601ZM71.3601 29.7956H67.3989V30.2044H71.3601V29.7956ZM67.6034 30V14.6152H67.1945V30H67.6034ZM67.3989 14.4108H62.326V14.8197H67.3989V14.4108ZM62.5305 14.6152V11.3185H62.1216V14.6152H62.5305ZM62.326 11.5229H76.433V11.114H62.326V11.5229ZM76.2286 11.3185V14.6152H76.6375V11.3185H76.2286ZM76.433 14.4108H71.3601V14.8197H76.433V14.4108ZM71.1557 14.6152V30H71.5646V14.6152H71.1557ZM89.9594 30L89.7638 30.0596L89.8079 30.2044H89.9594V30ZM88.6049 25.5532L88.8005 25.4937L88.7564 25.3488H88.6049V25.5532ZM81.7942 25.5532V25.3488H81.6428L81.5986 25.4937L81.7942 25.5532ZM80.4397 30V30.2044H80.5912L80.6353 30.0596L80.4397 30ZM76.1719 30L75.979 29.9322L75.8833 30.2044H76.1719V30ZM82.7653 11.2418V11.0373H82.6205L82.5725 11.174L82.7653 11.2418ZM87.6082 11.2418L87.801 11.1738L87.7529 11.0373H87.6082V11.2418ZM94.2273 30V30.2044H94.5162L94.4201 29.932L94.2273 30ZM87.6593 22.2309V22.4354H87.937L87.8546 22.1703L87.6593 22.2309ZM85.5382 15.3947L85.3418 15.4517L85.3427 15.4546L85.5382 15.3947ZM85.2059 14.1424L85.4055 14.0981L85.008 14.0914L85.2059 14.1424ZM82.7909 22.2309L82.5956 22.1706L82.5138 22.4354H82.7909V22.2309ZM90.155 29.9404L88.8005 25.4937L88.4093 25.6128L89.7638 30.0596L90.155 29.9404ZM88.6049 25.3488H81.7942V25.7577H88.6049V25.3488ZM81.5986 25.4937L80.2442 29.9404L80.6353 30.0596L81.9898 25.6128L81.5986 25.4937ZM80.4397 29.7956H76.1719V30.2044H80.4397V29.7956ZM76.3647 30.0678L82.9582 11.3096L82.5725 11.174L75.979 29.9322L76.3647 30.0678ZM82.7653 11.4462H87.6082V11.0373H82.7653V11.4462ZM87.4154 11.3098L94.0345 30.068L94.4201 29.932L87.801 11.1738L87.4154 11.3098ZM94.2273 29.7956H89.9594V30.2044H94.2273V29.7956ZM87.8546 22.1703C86.6022 18.1406 85.8954 15.8624 85.7337 15.3348L85.3427 15.4546C85.5047 15.9832 86.2119 18.2625 87.4641 22.2916L87.8546 22.1703ZM85.7345 15.3377C85.5816 14.8111 85.4723 14.3985 85.4055 14.0981L85.0064 14.1868C85.0759 14.4997 85.188 14.9219 85.3418 15.4517L85.7345 15.3377ZM85.008 14.0914C84.7283 15.176 83.925 17.8669 82.5956 22.1706L82.9862 22.2913C84.3146 17.991 85.1213 15.2896 85.4039 14.1935L85.008 14.0914ZM82.7909 22.4354H87.6593V22.0265H82.7909V22.4354ZM110.59 30V30.2044H110.795V30H110.59ZM106.642 30H106.437V30.2044H106.642V30ZM106.642 14.6152H106.846V14.4108H106.642V14.6152ZM102.067 14.6152V14.4108H101.886L101.864 14.591L102.067 14.6152ZM101.863 16.3275L102.066 16.3521L102.066 16.3517L101.863 16.3275ZM100.457 25.5021L100.258 25.4559L100.258 25.4566L100.457 25.5021ZM95.5506 30.2556L95.5532 30.0511H95.5506V30.2556ZM93.6594 29.9744H93.455V30.1204L93.5929 30.1678L93.6594 29.9744ZM93.6594 26.7288L93.7261 26.5355L93.455 26.4421V26.7288H93.6594ZM96.1256 26.371L96.2973 26.482L96.2984 26.4803L96.1256 26.371ZM96.8667 24.071L96.6667 24.0285L96.6665 24.0297L96.8667 24.071ZM97.7995 18.5636L97.5974 18.5326L97.5973 18.5332L97.7995 18.5636ZM98.7962 11.3185V11.114H98.6148L98.5932 11.2941L98.7962 11.3185ZM110.59 11.3185H110.795V11.114H110.59V11.3185ZM110.59 29.7956H106.642V30.2044H110.59V29.7956ZM106.846 30V14.6152H106.437V30H106.846ZM106.642 14.4108H102.067V14.8197H106.642V14.4108ZM101.864 14.591L101.66 16.3032L102.066 16.3517L102.27 14.6394L101.864 14.591ZM101.66 16.3028C101.132 20.6559 100.664 23.7044 100.258 25.4559L100.657 25.5483C101.068 23.7731 101.538 20.7051 102.066 16.3521L101.66 16.3028ZM100.258 25.4566C99.861 27.1966 99.2855 28.3835 98.5553 29.0575L98.8326 29.358C99.6529 28.6009 100.253 27.3173 100.657 25.5476L100.258 25.4566ZM98.5553 29.0575C97.8276 29.7293 96.8351 30.0677 95.5532 30.0511L95.5479 30.46C96.9068 30.4775 98.0099 30.1174 98.8326 29.358L98.5553 29.0575ZM95.5506 30.0511C94.8524 30.0511 94.2452 29.9596 93.7259 29.7811L93.5929 30.1678C94.164 30.3641 94.8176 30.46 95.5506 30.46V30.0511ZM93.8639 29.9744V26.7288H93.455V29.9744H93.8639ZM93.5928 26.9221C94.1041 27.0984 94.591 27.1888 95.0522 27.1888V26.7799C94.6445 26.7799 94.2029 26.7 93.7261 26.5355L93.5928 26.9221ZM95.0522 27.1888C95.5794 27.1888 95.9991 26.9437 96.2973 26.4819L95.9538 26.2601C95.7239 26.6161 95.4281 26.7799 95.0522 26.7799V27.1888ZM96.2984 26.4803C96.5842 26.0286 96.8368 25.229 97.0669 24.1122L96.6665 24.0297C96.4366 25.1449 96.1951 25.8787 95.9528 26.2617L96.2984 26.4803ZM97.0667 24.1134C97.3066 22.9825 97.6183 21.1415 98.0017 18.5941L97.5973 18.5332C97.214 21.0799 96.9039 22.9105 96.6667 24.0286L97.0667 24.1134ZM98.0016 18.5946C98.3937 16.0371 98.7263 13.6198 98.9992 11.3428L98.5932 11.2941C98.3209 13.5661 97.989 15.979 97.5974 18.5326L98.0016 18.5946ZM98.7962 11.5229H110.59V11.114H98.7962V11.5229ZM110.386 11.3185V30H110.795V11.3185H110.386ZM125.957 30L125.761 30.0596L125.805 30.2044H125.957V30ZM124.602 25.5532L124.798 25.4937L124.754 25.3488H124.602V25.5532ZM117.792 25.5532V25.3488H117.64L117.596 25.4937L117.792 25.5532ZM116.437 30V30.2044H116.589L116.633 30.0596L116.437 30ZM112.169 30L111.976 29.9322L111.881 30.2044H112.169V30ZM118.763 11.2418V11.0373H118.618L118.57 11.174L118.763 11.2418ZM123.606 11.2418L123.798 11.1738L123.75 11.0373H123.606V11.2418ZM130.225 30V30.2044H130.514L130.417 29.932L130.225 30ZM123.657 22.2309V22.4354H123.934L123.852 22.1703L123.657 22.2309ZM121.536 15.3947L121.339 15.4517L121.34 15.4546L121.536 15.3947ZM121.203 14.1424L121.403 14.0981L121.005 14.0914L121.203 14.1424ZM118.788 22.2309L118.593 22.1706L118.511 22.4354H118.788V22.2309ZM126.152 29.9404L124.798 25.4937L124.407 25.6128L125.761 30.0596L126.152 29.9404ZM124.602 25.3488H117.792V25.7577H124.602V25.3488ZM117.596 25.4937L116.242 29.9404L116.633 30.0596L117.987 25.6128L117.596 25.4937ZM116.437 29.7956H112.169V30.2044H116.437V29.7956ZM112.362 30.0678L118.956 11.3096L118.57 11.174L111.976 29.9322L112.362 30.0678ZM118.763 11.4462H123.606V11.0373H118.763V11.4462ZM123.413 11.3098L130.032 30.068L130.417 29.932L123.798 11.1738L123.413 11.3098ZM130.225 29.7956H125.957V30.2044H130.225V29.7956ZM123.852 22.1703C122.6 18.1406 121.893 15.8624 121.731 15.3348L121.34 15.4546C121.502 15.9832 122.209 18.2625 123.461 22.2916L123.852 22.1703ZM121.732 15.3377C121.579 14.8111 121.47 14.3985 121.403 14.0981L121.004 14.1868C121.073 14.4997 121.185 14.9219 121.339 15.4517L121.732 15.3377ZM121.005 14.0914C120.726 15.176 119.922 17.8669 118.593 22.1706L118.984 22.2913C120.312 17.991 121.119 15.2896 121.401 14.1935L121.005 14.0914ZM118.788 22.4354H123.657V22.0265H118.788V22.4354ZM143.61 11.3185H143.815V11.114H143.61V11.3185ZM143.61 14.5896V14.7941H143.815V14.5896H143.61ZM135.765 14.5896V14.3852H135.56V14.5896H135.765ZM135.765 30V30.2044H135.969V30H135.765ZM131.803 30H131.599V30.2044H131.803V30ZM131.803 11.3185V11.114H131.599V11.3185H131.803ZM143.406 11.3185V14.5896H143.815V11.3185H143.406ZM143.61 14.3852H135.765V14.7941H143.61V14.3852ZM135.56 14.5896V30H135.969V14.5896H135.56ZM135.765 29.7956H131.803V30.2044H135.765V29.7956ZM132.008 30V11.3185H131.599V30H132.008ZM131.803 11.5229H143.61V11.114H131.803V11.5229ZM156.472 30V30.2044H156.677V30H156.472ZM145.713 30H145.509V30.2044H145.713V30ZM145.713 11.3185V11.114H145.509V11.3185H145.713ZM156.472 11.3185H156.677V11.114H156.472V11.3185ZM156.472 14.5641V14.7685H156.677V14.5641H156.472ZM149.674 14.5641V14.3596H149.47V14.5641H149.674ZM149.674 18.6658H149.47V18.8703H149.674V18.6658ZM156 18.6658H156.204V18.4614H156V18.6658ZM156 21.9115V22.1159H156.204V21.9115H156ZM149.674 21.9115V21.707H149.47V21.9115H149.674ZM149.674 26.7288H149.47V26.9333H149.674V26.7288ZM156.472 26.7288H156.677V26.5244H156.472V26.7288ZM156.472 29.7956H145.713V30.2044H156.472V29.7956ZM145.918 30V11.3185H145.509V30H145.918ZM145.713 11.5229H156.472V11.114H145.713V11.5229ZM156.268 11.3185V14.5641H156.677V11.3185H156.268ZM156.472 14.3596H149.674V14.7685H156.472V14.3596ZM149.47 14.5641V18.6658H149.879V14.5641H149.47ZM149.674 18.8703H156V18.4614H149.674V18.8703ZM155.795 18.6658V21.9115H156.204V18.6658H155.795ZM156 21.707H149.674V22.1159H156V21.707ZM149.47 21.9115V26.7288H149.879V21.9115H149.47ZM149.674 26.9333H156.472V26.5244H149.674V26.9333ZM156.268 26.7288V30H156.677V26.7288H156.268ZM174.382 30V30.2044H174.586V30H174.382ZM170.433 30H170.229V30.2044H170.433V30ZM170.433 14.6152H170.638V14.4108H170.433V14.6152ZM165.859 14.6152V14.4108H165.677L165.656 14.591L165.859 14.6152ZM165.654 16.3275L165.857 16.3521L165.857 16.3517L165.654 16.3275ZM164.249 25.5021L164.049 25.4559L164.049 25.4566L164.249 25.5021ZM159.342 30.2556L159.344 30.0511H159.342V30.2556ZM157.451 29.9744H157.246V30.1204L157.384 30.1678L157.451 29.9744ZM157.451 26.7288L157.517 26.5355L157.246 26.4421V26.7288H157.451ZM159.917 26.371L160.089 26.482L160.09 26.4803L159.917 26.371ZM160.658 24.071L160.458 24.0285L160.458 24.0297L160.658 24.071ZM161.591 18.5636L161.389 18.5326L161.389 18.5332L161.591 18.5636ZM162.587 11.3185V11.114H162.406L162.384 11.2941L162.587 11.3185ZM174.382 11.3185H174.586V11.114H174.382V11.3185ZM174.382 29.7956H170.433V30.2044H174.382V29.7956ZM170.638 30V14.6152H170.229V30H170.638ZM170.433 14.4108H165.859V14.8197H170.433V14.4108ZM165.656 14.591L165.451 16.3032L165.857 16.3517L166.062 14.6394L165.656 14.591ZM165.451 16.3028C164.923 20.6559 164.456 23.7044 164.049 25.4559L164.448 25.5483C164.859 23.7731 165.329 20.7051 165.857 16.3521L165.451 16.3028ZM164.049 25.4566C163.652 27.1966 163.077 28.3835 162.346 29.0575L162.624 29.358C163.444 28.6009 164.044 27.3173 164.448 25.5476L164.049 25.4566ZM162.346 29.0575C161.619 29.7293 160.626 30.0677 159.344 30.0511L159.339 30.46C160.698 30.4775 161.801 30.1174 162.624 29.358L162.346 29.0575ZM159.342 30.0511C158.644 30.0511 158.036 29.9596 157.517 29.7811L157.384 30.1678C157.955 30.3641 158.609 30.46 159.342 30.46V30.0511ZM157.655 29.9744V26.7288H157.246V29.9744H157.655ZM157.384 26.9221C157.895 27.0984 158.382 27.1888 158.843 27.1888V26.7799C158.436 26.7799 157.994 26.7 157.517 26.5355L157.384 26.9221ZM158.843 27.1888C159.371 27.1888 159.79 26.9437 160.089 26.4819L159.745 26.2601C159.515 26.6161 159.219 26.7799 158.843 26.7799V27.1888ZM160.09 26.4803C160.375 26.0286 160.628 25.229 160.858 24.1122L160.458 24.0297C160.228 25.1449 159.986 25.8787 159.744 26.2617L160.09 26.4803ZM160.858 24.1134C161.098 22.9825 161.409 21.1415 161.793 18.5941L161.389 18.5332C161.005 21.0799 160.695 22.9105 160.458 24.0286L160.858 24.1134ZM161.793 18.5946C162.185 16.0371 162.517 13.6198 162.79 11.3428L162.384 11.2941C162.112 13.5661 161.78 15.979 161.389 18.5326L161.793 18.5946ZM162.587 11.5229H174.382V11.114H162.587V11.5229ZM174.177 11.3185V30H174.586V11.3185H174.177ZM178.312 30H178.107V30.2044H178.312V30ZM178.312 11.3185V11.114H178.107V11.3185H178.312ZM182.273 11.3185H182.477V11.114H182.273V11.3185ZM182.273 18.487H182.068V18.6914H182.273V18.487ZM182.273 26.7544H182.068V26.9588H182.273V26.7544ZM186.541 26.1155L186.656 26.2841L186.658 26.2831L186.541 26.1155ZM186.528 22.3076L186.422 22.4823L186.423 22.4833L186.528 22.3076ZM182.273 21.7326V21.5281H182.068V21.7326H182.273ZM191.269 24.1604C191.269 26.0577 190.645 27.4506 189.42 28.3771C188.185 29.3117 186.308 29.7956 183.755 29.7956V30.2044C186.348 30.2044 188.329 29.7151 189.667 28.7031C191.015 27.6831 191.677 26.1562 191.677 24.1604H191.269ZM183.755 29.7956H178.312V30.2044H183.755V29.7956ZM178.516 30V11.3185H178.107V30H178.516ZM178.312 11.5229H182.273V11.114H178.312V11.5229ZM182.068 11.3185V18.487H182.477V11.3185H182.068ZM182.273 18.6914H183.832V18.2825H182.273V18.6914ZM183.832 18.6914C186.244 18.6914 188.077 19.1811 189.358 20.1333L189.602 19.8052C188.224 18.781 186.292 18.2825 183.832 18.2825V18.6914ZM189.358 20.1333C190.629 21.079 191.269 22.4123 191.269 24.1604H191.677C191.677 22.2966 190.988 20.8358 189.602 19.8052L189.358 20.1333ZM182.273 26.9588H183.602V26.5499H182.273V26.9588ZM183.602 26.9588C184.952 26.9588 185.983 26.7453 186.656 26.2841L186.425 25.9468C185.855 26.3375 184.926 26.5499 183.602 26.5499V26.9588ZM186.658 26.2831C187.343 25.8044 187.678 25.0849 187.678 24.1604H187.269C187.269 24.9738 186.982 25.5577 186.424 25.9479L186.658 26.2831ZM187.678 24.1604C187.678 23.2427 187.336 22.5505 186.632 22.1319L186.423 22.4833C186.98 22.8143 187.269 23.3574 187.269 24.1604H187.678ZM186.634 22.1329C185.952 21.7182 184.821 21.5281 183.282 21.5281V21.937C184.811 21.937 185.843 22.1303 186.422 22.4823L186.634 22.1329ZM183.282 21.5281H182.273V21.937H183.282V21.5281ZM182.068 21.7326V26.7544H182.477V21.7326H182.068Z" fill="white"/>
<path d="M13.9023 35.5456C23.3871 35.5456 31.0761 28.2194 31.0761 19.182C31.0761 10.1446 23.3871 2.81836 13.9023 2.81836" stroke="#8C8C8C" stroke-width="4.90678"/>
<path d="M26.5784 19.1819C26.5784 25.736 21.2681 31.0468 14.7203 31.0468C8.17259 31.0468 2.86229 25.736 2.86229 19.1819C2.86229 12.6277 8.17259 7.31688 14.7203 7.31688C21.2681 7.31688 26.5784 12.6277 26.5784 19.1819Z" stroke="#191B1A" stroke-width="5.72458"/>
</svg>
