<svg width="255" height="120" viewBox="0 0 255 120" fill="none" xmlns="http://www.w3.org/2000/svg">
<path d="M22.5652 90.3751C19.59 87.2019 17.2286 83.6392 15.37 79.9012L2.79905 79.9012C5.39983 86.9528 9.35675 93.5457 14.6773 99.2412C35.3955 121.407 68.9514 121.385 89.6716 99.24C110.485 76.979 110.485 40.8894 89.6712 18.6197C68.9702 -3.52036 35.4551 -3.5399 14.7315 18.5611C14.547 18.7845 14.3071 19.0045 14.0327 19.1756L12.6372 20.0459L11.5137 18.8448L5.82233 12.76L5.85243 36.8474L28.3997 36.8924L22.3687 30.4335L21.8305 29.8571L21.8305 29.0685L21.8305 29.0519L21.8305 28.1138L22.4096 27.6323C22.4297 27.6064 22.4602 27.5683 22.4977 27.5252C22.5183 27.5015 22.5443 27.4726 22.5751 27.4406C22.5803 27.4352 22.5858 27.4296 22.5915 27.4238C38.9129 10.0304 65.4641 10.0401 81.782 27.4511L81.7854 27.4547C97.9988 44.8413 98.0002 73.0102 81.7843 90.3733L81.7833 90.3744C65.4719 107.813 38.8841 107.813 22.5652 90.3751ZM22.5652 90.3751C22.5651 90.375 22.565 90.3749 22.5648 90.3748L24.0252 89.0082L22.5662 90.3762C22.5659 90.3759 22.5655 90.3755 22.5652 90.3751ZM-3.40517e-06 77.9012L2.10168 77.9012L0.672069 79.9012C0.436518 79.2381 0.212497 78.5713 -3.40517e-06 77.9012Z" fill="#009ACF" fill-opacity="0.54" stroke="white" stroke-width="4"/>
<path d="M232.435 90.3751C235.41 87.202 237.771 83.6393 239.63 79.9012L252.201 79.9012C249.6 86.9528 245.643 93.5457 240.323 99.2412C219.604 121.407 186.049 121.385 165.328 99.24C144.515 76.9789 144.515 40.8891 165.329 18.6195C186.03 -3.52036 219.545 -3.53981 240.268 18.5611C240.453 18.7845 240.693 19.0045 240.967 19.1756L242.363 20.0459L243.486 18.8448L249.178 12.76L249.148 36.8474L226.6 36.8924L232.631 30.4335L233.17 29.8571L233.17 29.0685L233.17 29.0519L233.17 28.1138L232.59 27.6323C232.57 27.6065 232.54 27.5683 232.502 27.5252C232.482 27.5015 232.456 27.4726 232.425 27.4406C232.42 27.4352 232.414 27.4296 232.409 27.4238C216.087 10.0304 189.536 10.0401 173.218 27.4511L173.215 27.4547C157.001 44.8413 157 73.0103 173.216 90.3733L173.217 90.3744C189.528 107.813 216.116 107.813 232.435 90.3751ZM232.435 90.3751C232.435 90.375 232.435 90.3749 232.435 90.3748L230.975 89.0082L232.434 90.3762C232.434 90.3759 232.434 90.3755 232.435 90.3751ZM255 77.9012L252.898 77.9012L254.328 79.9012C254.563 79.2381 254.788 78.5713 255 77.9012Z" fill="#009ACF" fill-opacity="0.54" stroke="white" stroke-width="4"/>
<path d="M157.57 26.3277C111.798 2.80707 67.3555 43.8771 50.8555 67.3522C119.77 155.418 188.855 104.046 214.784 67.3522C187.013 36.1737 165.07 27.0115 157.57 26.3277Z" fill="#A5E8FF"/>
<path d="M194.491 43.3983C160.15 6.9623 104.278 6.9623 69.9373 43.3983L47 67.7318L70.5063 92.6721C87.6754 110.889 110.228 120 132.785 120C155.341 120 177.891 110.892 195.063 92.6721L218 68.3355L194.491 43.3983ZM190.976 88.3387C158.888 122.381 106.679 122.381 74.5906 88.3387L55.1686 67.7318L74.0216 47.7286C106.11 13.6862 158.319 13.6862 190.406 47.7286L209.829 68.3355L190.976 88.3387Z" fill="#00309D"/>
<path d="M129.528 43.4258C118.378 43.4258 109.309 53.0489 109.309 64.8785C109.309 66.5702 110.603 67.9432 112.197 67.9432C113.791 67.9432 115.086 66.5702 115.086 64.8785C115.086 56.4292 121.564 49.5551 129.528 49.5551C131.122 49.5551 132.416 48.1822 132.416 46.4905C132.416 44.7988 131.125 43.4258 129.528 43.4258Z" fill="#00309D"/>
<path d="M132.418 28.1025C111.713 28.1025 94.8677 45.9757 94.8677 67.9433C94.8677 89.911 111.713 107.784 132.418 107.784C153.122 107.784 169.968 89.911 169.968 67.9433C169.968 45.9757 153.125 28.1025 132.418 28.1025ZM132.418 101.655C114.899 101.655 100.645 86.5306 100.645 67.9433C100.645 49.3561 114.899 34.2319 132.418 34.2319C149.936 34.2319 164.191 49.3561 164.191 67.9433C164.191 86.5306 149.939 101.655 132.418 101.655Z" fill="#00309D"/>
</svg>
