<svg width="255" height="191" viewBox="0 0 255 191" fill="none" xmlns="http://www.w3.org/2000/svg">
<ellipse cx="130.5" cy="95.5001" rx="66.1989" ry="66.1989" fill="#009ACF" fill-opacity="0.4"/>
<circle cx="130.5" cy="95.5" r="95.5" fill="#009ACF" fill-opacity="0.12"/>
<path d="M157.57 57.5727C111.798 35.6201 67.3555 73.9521 50.8555 95.8622C119.77 178.057 188.855 130.11 214.784 95.8622C187.013 66.7622 165.07 58.2109 157.57 57.5727Z" fill="#A5E8FF"/>
<path d="M194.491 73.5052C160.15 39.4983 104.278 39.4983 69.9373 73.5052L47 96.2165L70.5063 119.494C87.6754 136.496 110.228 145 132.785 145C155.341 145 177.891 136.499 195.063 119.494L218 96.78L194.491 73.5052ZM190.976 115.45C158.888 147.222 106.679 147.222 74.5906 115.45L55.1686 96.2165L74.0216 77.5469C106.11 45.7739 158.319 45.7739 190.406 77.5469L209.829 96.78L190.976 115.45Z" fill="#00309D"/>
<path d="M129.528 73.5308C118.378 73.5308 109.309 82.5123 109.309 93.5533C109.309 95.1322 110.603 96.4137 112.197 96.4137C113.791 96.4137 115.086 95.1322 115.086 93.5533C115.086 85.6673 121.564 79.2515 129.528 79.2515C131.122 79.2515 132.416 77.97 132.416 76.3911C132.416 74.8122 131.125 73.5308 129.528 73.5308Z" fill="#00309D"/>
<path d="M132.418 59.229C111.713 59.229 94.8677 75.9107 94.8677 96.4138C94.8677 116.917 111.713 133.599 132.418 133.599C153.122 133.599 169.968 116.917 169.968 96.4138C169.968 75.9107 153.125 59.229 132.418 59.229ZM132.418 127.878C114.899 127.878 100.645 113.762 100.645 96.4138C100.645 79.0656 114.899 64.9497 132.418 64.9497C149.936 64.9497 164.191 79.0656 164.191 96.4138C164.191 113.762 149.939 127.878 132.418 127.878Z" fill="#00309D"/>
</svg>
