<svg width="171" height="159" viewBox="0 0 171 159" fill="none" xmlns="http://www.w3.org/2000/svg">
<circle cx="86.5" cy="79.5" r="73.4484" fill="#C4C4C4" stroke="black" stroke-width="12.1032"/>
<circle cx="86.5" cy="79.4995" r="76.3452" fill="#C4C4C4"/>
<circle cx="86.5" cy="79.4995" r="64.2421" stroke="#009ACF" stroke-opacity="0.4" stroke-width="24.2064"/>
<circle cx="86.5001" cy="79.5001" r="55.9154" fill="#C4C4C4" stroke="#00B980" stroke-width="28.2407"/>
<path d="M137.702 79.7105C137.702 107.873 114.872 130.703 86.7104 130.703C58.5482 130.703 35.7183 107.873 35.7183 79.7105C35.7183 51.5483 58.5482 28.7184 86.7104 28.7184C114.872 28.7184 137.702 51.5483 137.702 79.7105Z" fill="#C4C4C4" stroke="#FDFF9F" stroke-width="24.2064"/>
<path d="M135.427 79.9203C135.427 106.942 113.522 128.848 86.5001 128.848C59.4783 128.848 37.5728 106.942 37.5728 79.9203C37.5728 52.8986 59.4783 30.9931 86.5001 30.9931C113.522 30.9931 135.427 52.8986 135.427 79.9203Z" fill="#C4C4C4" stroke="#FF6363" stroke-width="16.1376"/>
<path d="M119.538 79.9209C119.538 98.0513 104.841 112.749 86.7103 112.749C68.5799 112.749 53.8823 98.0513 53.8823 79.9209C53.8823 61.7905 68.5799 47.0929 86.7103 47.0929C104.841 47.0929 119.538 61.7905 119.538 79.9209Z" fill="#C4C4C4" stroke="#FF6DBC" stroke-width="40.3439"/>
<path d="M123.546 80.0258C123.546 100.428 107.007 116.967 86.6052 116.967C66.2031 116.967 49.664 100.428 49.664 80.0258C49.664 59.6238 66.2031 43.0847 86.6052 43.0847C107.007 43.0847 123.546 59.6238 123.546 80.0258Z" fill="#C4C4C4" stroke="#8A3797" stroke-width="11.2963"/>
<mask id="path-11-inside-1" fill="white">
<ellipse cx="86.7103" cy="80.1312" rx="39.9603" ry="39.9603"/>
</mask>
<ellipse cx="86.7103" cy="80.1312" rx="39.9603" ry="39.9603" fill="#C4C4C4"/>
<path d="M86.3267 80.1312C86.3267 80.1577 86.3247 80.1417 86.3339 80.0967C86.3426 80.054 86.3564 80.0096 86.3734 79.9695C86.4052 79.8944 86.4336 79.8654 86.439 79.86C86.4444 79.8546 86.4735 79.8261 86.5486 79.7943C86.5887 79.7774 86.6331 79.7635 86.6757 79.7548C86.7207 79.7456 86.7368 79.7476 86.7103 79.7476V160.435C131.061 160.435 167.015 124.482 167.015 80.1312H86.3267ZM86.7103 79.7476C86.6838 79.7476 86.6999 79.7456 86.7449 79.7548C86.7875 79.7635 86.8319 79.7774 86.872 79.7943C86.9471 79.8261 86.9762 79.8546 86.9816 79.86C86.987 79.8654 87.0154 79.8944 87.0472 79.9695C87.0642 80.0096 87.078 80.054 87.0867 80.0967C87.0959 80.1417 87.0939 80.1577 87.0939 80.1312H6.40608C6.40608 124.482 42.3595 160.435 86.7103 160.435V79.7476ZM87.0939 80.1312C87.0939 80.1047 87.0959 80.1208 87.0867 80.1658C87.078 80.2084 87.0642 80.2528 87.0472 80.2929C87.0154 80.368 86.987 80.3971 86.9816 80.4025C86.9762 80.4079 86.9471 80.4363 86.872 80.4681C86.8319 80.4851 86.7875 80.4989 86.7449 80.5076C86.6999 80.5168 86.6838 80.5148 86.7103 80.5148V-0.173019C42.3595 -0.173019 6.40608 35.7804 6.40608 80.1312H87.0939ZM86.7103 80.5148C86.7368 80.5148 86.7207 80.5168 86.6757 80.5076C86.6331 80.4989 86.5887 80.4851 86.5486 80.4681C86.4735 80.4363 86.4444 80.4079 86.439 80.4025C86.4336 80.3971 86.4052 80.368 86.3734 80.2929C86.3564 80.2528 86.3426 80.2084 86.3339 80.1658C86.3247 80.1208 86.3267 80.1047 86.3267 80.1312H167.015C167.015 35.7804 131.061 -0.173019 86.7103 -0.173019V80.5148Z" fill="#009ACF" fill-opacity="0.4" mask="url(#path-11-inside-1)"/>
<mask id="path-13-inside-2" fill="white">
<ellipse cx="86.7103" cy="80.1305" rx="29.4444" ry="29.4444"/>
</mask>
<ellipse cx="86.7103" cy="80.1305" rx="29.4444" ry="29.4444" fill="#C4C4C4"/>
<path d="M75.8108 80.1305C75.8108 74.1109 80.6907 69.231 86.7103 69.231V149.919C125.253 149.919 156.499 118.674 156.499 80.1305H75.8108ZM86.7103 69.231C92.7299 69.231 97.6098 74.1109 97.6098 80.1305H16.922C16.922 118.674 48.1673 149.919 86.7103 149.919V69.231ZM97.6098 80.1305C97.6098 86.1501 92.7299 91.03 86.7103 91.03V10.3421C48.1673 10.3421 16.922 41.5874 16.922 80.1305H97.6098ZM86.7103 91.03C80.6907 91.03 75.8108 86.1501 75.8108 80.1305H156.499C156.499 41.5874 125.253 10.3421 86.7103 10.3421V91.03Z" fill="#00B980" mask="url(#path-13-inside-2)"/>
<path d="M98.4113 80.6572C98.4113 87.1776 93.1255 92.4634 86.6051 92.4634C80.0847 92.4634 74.7989 87.1776 74.7989 80.6572C74.7989 74.1368 80.0847 68.851 86.6051 68.851C93.1255 68.851 98.4113 74.1368 98.4113 80.6572Z" stroke="#FDFF9F" stroke-width="16.1376"/>
<mask id="path-16-inside-3" fill="white">
<ellipse cx="86.5" cy="80.7621" rx="15.7738" ry="15.7738"/>
</mask>
<path d="M86.1363 80.7621C86.1363 80.7416 86.1436 80.6815 86.1715 80.6155C86.1948 80.5604 86.2216 80.5261 86.2428 80.5049C86.264 80.4837 86.2983 80.4569 86.3535 80.4335C86.4194 80.4057 86.4796 80.3983 86.5 80.3983V112.673C104.124 112.673 118.411 98.3863 118.411 80.7621H86.1363ZM86.5 80.3983C86.5205 80.3983 86.5806 80.4057 86.6466 80.4335C86.7017 80.4569 86.736 80.4837 86.7572 80.5049C86.7784 80.5261 86.8052 80.5604 86.8286 80.6155C86.8564 80.6815 86.8638 80.7416 86.8638 80.7621H54.5886C54.5886 98.3863 68.8758 112.673 86.5 112.673V80.3983ZM86.8638 80.7621C86.8638 80.7826 86.8564 80.8427 86.8286 80.9086C86.8052 80.9638 86.7784 80.9981 86.7572 81.0193C86.736 81.0405 86.7017 81.0673 86.6466 81.0906C86.5806 81.1185 86.5205 81.1258 86.5 81.1258V48.8507C68.8758 48.8507 54.5886 63.1379 54.5886 80.7621H86.8638ZM86.5 81.1258C86.4796 81.1258 86.4194 81.1185 86.3535 81.0906C86.2983 81.0673 86.264 81.0405 86.2428 81.0193C86.2216 80.9981 86.1948 80.9638 86.1715 80.9086C86.1436 80.8427 86.1363 80.7826 86.1363 80.7621H118.411C118.411 63.1379 104.124 48.8507 86.5 48.8507V81.1258Z" fill="#FF6363" mask="url(#path-16-inside-3)"/>
<circle cx="86.3949" cy="80.8667" r="8.06878" stroke="#FF6DBC" stroke-width="8.04893"/>
<path d="M110.57 40.5727C64.7983 18.6201 20.3555 56.9521 3.85547 78.8622C72.7698 161.057 141.855 113.11 167.784 78.8622C140.013 49.7622 118.07 41.2109 110.57 40.5727Z" fill="#A5E8FF"/>
<path d="M147.491 56.5052C113.15 22.4983 57.2783 22.4983 22.9373 56.5052L0 79.2165L23.5063 102.494C40.6754 119.496 63.2285 128 85.7845 128C108.341 128 130.891 119.499 148.063 102.494L171 79.78L147.491 56.5052ZM143.976 98.4496C111.888 130.222 59.6786 130.222 27.5906 98.4496L8.16858 79.2165L27.0216 60.5469C59.1095 28.7739 111.319 28.7739 143.406 60.5469L162.829 79.78L143.976 98.4496Z" fill="#00309D"/>
<path d="M82.5278 56.5308C71.3784 56.5308 62.3086 65.5123 62.3086 76.5533C62.3086 78.1322 63.6026 79.4137 65.1971 79.4137C66.7915 79.4137 68.0855 78.1322 68.0855 76.5533C68.0855 68.6673 74.5643 62.2515 82.5278 62.2515C84.1223 62.2515 85.4163 60.97 85.4163 59.3911C85.4163 57.8122 84.1252 56.5308 82.5278 56.5308Z" fill="#00309D"/>
<path d="M85.4177 42.229C64.7132 42.229 47.8677 58.9107 47.8677 79.4138C47.8677 99.9169 64.7132 116.599 85.4177 116.599C106.122 116.599 122.968 99.9169 122.968 79.4138C122.968 58.9107 106.125 42.229 85.4177 42.229ZM85.4177 110.878C67.8992 110.878 53.6446 96.7619 53.6446 79.4138C53.6446 62.0656 67.8992 47.9497 85.4177 47.9497C102.936 47.9497 117.191 62.0656 117.191 79.4138C117.191 96.7619 102.939 110.878 85.4177 110.878Z" fill="#00309D"/>
</svg>
