<svg width="171" height="187" viewBox="0 0 171 187" fill="none" xmlns="http://www.w3.org/2000/svg">
<path d="M52 187L72.2073 152H31.7927L52 187ZM48.5 0V155.5H55.5V0H48.5Z" fill="#009ACF" fill-opacity="0.54"/>
<path d="M121 0L141.207 35H100.793L121 0ZM117.5 187V31.5H124.5V187H117.5Z" fill="#009ACF" fill-opacity="0.54"/>
<path d="M146.453 66.6646C113.518 35.1118 59.9335 35.1118 26.9983 66.6646L5 87.7369L27.5441 109.335C44.0103 125.11 65.6402 133 87.2729 133C108.906 133 130.533 125.112 147.002 109.335L169 88.2598L146.453 66.6646ZM143.082 105.582C112.307 135.062 62.2356 135.062 31.4612 105.582L12.8342 87.7369L30.9154 70.4146C61.6898 40.9346 111.762 40.9346 142.536 70.4146L161.163 88.2598L143.082 105.582Z" fill="#00309D"/>
<path d="M84.1507 66.6885C73.4577 66.6885 64.7592 75.0219 64.7592 85.2661C64.7592 86.7311 66.0002 87.9201 67.5294 87.9201C69.0585 87.9201 70.2996 86.7311 70.2996 85.2661C70.2996 77.9492 76.5132 71.9964 84.1507 71.9964C85.6799 71.9964 86.9209 70.8074 86.9209 69.3424C86.9209 67.8774 85.6826 66.6885 84.1507 66.6885Z" fill="#00309D"/>
<path d="M86.921 53.4189C67.064 53.4189 50.9081 68.8968 50.9081 87.9203C50.9081 106.944 67.064 122.422 86.921 122.422C106.778 122.422 122.934 106.944 122.934 87.9203C122.934 68.8968 106.781 53.4189 86.921 53.4189ZM86.921 117.114C70.1196 117.114 56.4485 104.016 56.4485 87.9203C56.4485 71.8241 70.1196 58.7268 86.921 58.7268C103.722 58.7268 117.393 71.8241 117.393 87.9203C117.393 104.016 103.725 117.114 86.921 117.114Z" fill="#00309D"/>
<path d="M110.57 48.5727C64.7983 26.6201 20.3555 64.9521 3.85547 86.8622C72.7698 169.057 141.855 121.11 167.784 86.8622C140.013 57.7622 118.07 49.2109 110.57 48.5727Z" fill="#A5E8FF"/>
<path d="M147.491 64.5052C113.15 30.4983 57.2783 30.4983 22.9373 64.5052L0 87.2165L23.5063 110.494C40.6754 127.496 63.2285 136 85.7845 136C108.341 136 130.891 127.499 148.063 110.494L171 87.78L147.491 64.5052ZM143.976 106.45C111.888 138.222 59.6786 138.222 27.5906 106.45L8.16858 87.2165L27.0216 68.5469C59.1095 36.7739 111.319 36.7739 143.406 68.5469L162.829 87.78L143.976 106.45Z" fill="#00309D"/>
<path d="M82.5278 64.5308C71.3784 64.5308 62.3086 73.5123 62.3086 84.5533C62.3086 86.1322 63.6026 87.4137 65.1971 87.4137C66.7915 87.4137 68.0855 86.1322 68.0855 84.5533C68.0855 76.6673 74.5643 70.2515 82.5278 70.2515C84.1223 70.2515 85.4163 68.97 85.4163 67.3911C85.4163 65.8122 84.1252 64.5308 82.5278 64.5308Z" fill="#00309D"/>
<path d="M85.4177 50.229C64.7132 50.229 47.8677 66.9107 47.8677 87.4138C47.8677 107.917 64.7132 124.599 85.4177 124.599C106.122 124.599 122.968 107.917 122.968 87.4138C122.968 66.9107 106.125 50.229 85.4177 50.229ZM85.4177 118.878C67.8992 118.878 53.6446 104.762 53.6446 87.4138C53.6446 70.0656 67.8992 55.9497 85.4177 55.9497C102.936 55.9497 117.191 70.0656 117.191 87.4138C117.191 104.762 102.939 118.878 85.4177 118.878Z" fill="#00309D"/>
</svg>
