<svg width="83" height="83" viewBox="0 0 83 83" fill="none" xmlns="http://www.w3.org/2000/svg">
<rect width="83" height="83" fill="#009ACF" fill-opacity="0.06"/>
<path d="M67.8398 37.6579C64.7652 32.3861 60.3441 27.9647 55.0546 24.8716C49.6043 21.6846 43.3611 20 37 20C30.6389 20 24.3957 21.6846 18.9455 24.8716C13.6559 27.9647 9.2349 32.3861 6.16021 37.6579C5.9466 38.0243 5.9466 38.476 6.16021 38.8424C9.23478 44.1142 13.6559 48.5356 18.9454 51.6287C24.3957 54.8157 30.6388 56.5003 36.9999 56.5003C43.3609 56.5003 49.6042 54.8157 55.0543 51.6287C60.3438 48.5356 64.765 44.1143 67.8395 38.8424C68.0534 38.476 68.0534 38.0244 67.8398 37.6579ZM37 54.1348C25.4095 54.1348 14.5835 48.0655 8.57809 38.2501C14.5835 28.4348 25.4095 22.3654 37 22.3654C48.5905 22.3654 59.4165 28.4348 65.4219 38.2502C59.4165 48.0656 48.5905 54.1348 37 54.1348Z" fill="#00309D"/>
<path d="M36.9991 24.0581C29.1099 24.0581 22.6914 30.4247 22.6914 38.2503C22.6914 46.0759 29.1099 52.4424 36.9991 52.4424C44.8884 52.4424 51.3068 46.0758 51.3068 38.2502C51.3068 30.4246 44.8884 24.0581 36.9991 24.0581ZM36.9991 50.0771C30.4246 50.0771 25.076 44.7715 25.076 38.2502C25.076 31.7288 30.4246 26.4233 36.9991 26.4233C43.5737 26.4233 48.9223 31.7288 48.9223 38.2502C48.9223 44.7715 43.5737 50.0771 36.9991 50.0771Z" fill="#00309D"/>
<path d="M44.1532 37.0503C43.4948 37.0503 42.9609 37.5798 42.9609 38.233V38.2501C42.9609 38.9033 43.4948 39.4328 44.1532 39.4328C44.8116 39.4328 45.3455 38.9033 45.3455 38.2501V38.2328C45.3455 37.5798 44.8117 37.0503 44.1532 37.0503Z" fill="#00309D"/>
<path d="M44.209 34.075C42.7163 31.544 39.9542 29.9717 37.0009 29.9717C36.3425 29.9717 35.8086 30.5012 35.8086 31.1543C35.8086 31.8075 36.3425 32.337 37.0009 32.337C39.1106 32.337 41.0839 33.4606 42.1509 35.2694C42.3726 35.6455 42.7714 35.8551 43.1811 35.8551C43.3857 35.8551 43.5929 35.803 43.782 35.6931C44.3504 35.3631 44.5415 34.6386 44.209 34.075Z" fill="#00309D"/>
<path d="M67 54.8854C67 62.1361 61.172 68 54 68C46.828 68 41 62.1361 41 54.8854C41 47.6347 46.828 41.7708 54 41.7708C61.172 41.7708 67 47.6347 67 54.8854Z" fill="white" stroke="#009ACF" stroke-width="2"/>
</svg>
