<svg width="61" height="70" viewBox="0 0 61 70" fill="none" xmlns="http://www.w3.org/2000/svg">
<path d="M38.333 36.9605L39.8104 34.1011C40.2321 33.2849 41.1553 32.8667 42.0572 33.0417C47.6376 34.1246 52.4315 33.7459 55.2647 33.1849C56.3161 32.9767 57.4226 33.5012 57.8072 34.5016L58.7855 37.0459C58.8736 37.2749 58.9188 37.5182 58.9188 37.7636V63.3652C58.9188 63.5384 58.8984 63.7121 58.8448 63.8768C57.7463 67.2566 53.1091 68.6991 50.8764 69H46.8833C42.0933 69 39.2849 65.8754 38.2932 64.0033C38.1635 63.7585 38.1099 63.483 38.1099 63.2059V37.8785C38.1099 37.5591 38.1864 37.2443 38.333 36.9605Z" stroke="#00309D"/>
<path d="M41.1472 63.2801C43.6218 61.3201 49.9994 58.5761 55.7135 63.2801" stroke="#00309D" stroke-linecap="round"/>
<path d="M38.7224 26.2691C38.7224 25.942 39.0314 25.7029 39.3481 25.7852L43.1905 26.7833C43.2707 26.8041 43.3525 26.8183 43.435 26.8256L48.9581 27.3156C49.0325 27.3222 49.1073 27.3233 49.1819 27.3187L54.5083 26.994C54.6184 26.9873 54.7275 26.9684 54.8335 26.9378L58.6798 25.8259C58.9996 25.7335 59.3187 25.9734 59.3187 26.3062V31.7841L59.2782 31.7916C52.4831 33.0472 45.5158 33.0449 38.7224 31.7854V26.2691Z" stroke="#00309D"/>
<path d="M54.6551 23.1052L54.6551 23.1053L54.6611 23.1044L58.7459 22.5032C59.0478 22.4588 59.3187 22.6928 59.3187 22.9979V23.644C59.3187 23.8842 59.1479 24.0904 58.912 24.1352L58.2416 24.2625C52.0761 25.4334 45.7443 25.4212 39.5834 24.2266L39.1272 24.1381C38.8922 24.0925 38.7224 23.8867 38.7224 23.6472V22.9809C38.7224 22.6787 38.9884 22.4456 39.288 22.4852L43.3277 23.0194L43.5015 23.0448C47.1985 23.5835 50.9525 23.6039 54.6551 23.1052Z" stroke="#00309D"/>
<path d="M43.224 19.8723L43.224 19.8723L43.2315 19.8731L45.7891 20.1451C47.9708 20.3771 50.1685 20.4178 52.3572 20.2668L54.7918 20.0988L54.8076 20.0977L54.8232 20.0956L59.6007 19.4613C59.9081 19.9436 59.8926 20.5711 59.5543 21.0388L57.3952 21.3713C51.7717 22.2372 46.0482 22.2281 40.4275 21.3444L38.5165 21.044L38.5131 21.0388C38.1583 20.5089 38.1451 19.83 38.4593 19.2924L43.224 19.8723Z" stroke="#00309D"/>
<path d="M39.51 10.1919C39.51 6.88039 42.1945 4.19589 45.506 4.19589H52.5356C55.847 4.19589 58.5316 6.88039 58.5316 10.1919V17.9799H39.51V10.1919Z" stroke="#00309D"/>
<path d="M41.0325 3.12069C41.2718 1.63487 42.5601 0.5 44.1134 0.5H53.841C55.3944 0.5 56.6826 1.63487 56.9219 3.12069H41.0325Z" stroke="#00309D"/>
<path d="M26.4178 27.9496L16.1138 28.3217V25.1248L26.4836 24.8038L26.5156 24.8028L26.5472 24.7978L37.1436 23.1011L37.059 26.1746L26.4178 27.9496Z" stroke="#00309D"/>
<path d="M14.0232 32.951L16.1118 28.2834L21.2043 28.099L19.1623 32.951H14.0232Z" stroke="#00309D"/>
<mask id="mask0" mask-type="alpha" maskUnits="userSpaceOnUse" x="2" y="13" width="23" height="27">
<path d="M18.7265 38.7519L12.7029 28.9005L7.18318 39.0428L18.7265 38.7519ZM24.463 18.2559L13.9747 13.426L15.0361 24.9241L24.463 18.2559ZM11.3624 33.6087C9.22424 32.2308 7.35448 30.7869 6.02581 29.3739C4.67009 27.9322 4.0162 26.6695 4.0003 25.6464C3.98618 24.7375 4.48269 23.7086 6.27916 22.6861C8.09859 21.6504 11.0896 20.7303 15.6468 20.0726L15.3611 18.0931C10.7147 18.7637 7.43215 19.7285 5.28979 20.9479C3.12448 22.1804 1.97101 23.777 2.00054 25.6775C2.0283 27.4637 3.11173 29.1945 4.56881 30.744C6.05294 32.3223 8.07147 33.8673 10.279 35.2899L11.3624 33.6087Z" fill="#00309D"/>
</mask>
<g mask="url(#mask0)">
<path d="M25.5 21C25.5842 18.9158 20.0905 11.9095 19.8884 11H12.56C11.2965 11 6.74776 13.5579 -0.327924 14.6947C-5.98847 15.6042 -3.86577 20.3789 -2.09684 22.6526C-0.749095 26.7263 2.14857 35.1011 2.95721 36.0105C3.76586 36.92 5.82118 37.7158 6.74776 38L11 30.5C10.2419 29.5526 6.89944 29.4737 5.48431 28.3368C4.06917 27.2 4.89467 25.2105 5.48431 24.3579L11 26.5L25.5 21Z" fill="#00309D"/>
</g>
</svg>
