<svg width="83" height="83" viewBox="0 0 83 83" fill="none" xmlns="http://www.w3.org/2000/svg">
<rect width="83" height="83" fill="#009ACF" fill-opacity="0.06"/>
<path d="M53.3645 34.4284L60.5649 30.4262C62.5139 29.3564 63.3675 27.0074 62.5602 24.936C61.7528 22.8645 59.5347 21.7128 57.3759 22.244L46.7581 24.8373C46.2503 20.7011 43.0152 17.4287 38.8852 16.8734C34.7551 16.3182 30.7706 18.6199 29.1884 22.475C27.5535 22.3707 25.9941 23.1756 25.1321 24.5687L14.1899 41.0834L13.319 42.5042C13.3053 42.5262 13.2732 42.5867 13.2613 42.6096C11.4135 46.3055 11.6097 50.6944 13.78 54.2107C15.9502 57.727 19.7854 59.8699 23.9175 59.875H45.0009C45.0311 59.875 45.0595 59.8668 45.0925 59.8668L46.4822 61.2564C47.167 61.9461 48.099 62.3332 49.0709 62.3317C50.0431 62.3383 50.9768 61.9515 51.6595 61.2592C52.1179 60.8071 52.4481 60.2416 52.6165 59.6202L52.9658 59.9704C54.4212 61.3389 56.6911 61.3361 58.1431 59.9639C58.6072 59.5005 58.9381 58.9208 59.101 58.2855C60.5736 59.4093 62.6453 59.2926 63.9823 58.0105C65.2926 56.6896 65.4106 54.5984 64.2573 53.1384C65.5295 52.8069 66.5268 51.8197 66.8713 50.551C67.2158 49.2822 66.8546 47.9261 65.9247 46.9968L53.3645 34.4284ZM37.6675 18.625C40.5684 18.6263 43.1959 20.3374 44.3701 22.99C45.5443 25.6426 45.0445 28.7381 43.0951 30.8864C42.8652 31.1387 42.7945 31.498 42.9118 31.8186C43.0291 32.1393 43.3148 32.3682 43.6534 32.4126C45.4725 32.6558 46.8316 34.2064 46.8342 36.0417H30.8989L33.1676 28.0997C33.7484 26.0903 32.8369 23.9495 30.9859 22.9755C32.1509 20.3266 34.7738 18.6188 37.6675 18.625ZM13.8342 47.9584C13.8296 46.398 14.1883 44.858 14.8819 43.4603L15.7528 42.0394C15.7601 42.0275 15.7702 42.0083 15.7812 41.9872L26.6675 25.5669C26.6756 25.5563 26.6827 25.545 26.6886 25.533C27.2694 24.5643 28.4151 24.0891 29.511 24.3624H29.5174H29.5495C29.7296 24.4079 29.9044 24.4721 30.0711 24.554C30.9573 24.9908 31.5154 25.8962 31.5075 26.8842C31.5074 27.125 31.4728 27.3645 31.4049 27.5955L28.8015 36.7072C28.7227 36.9838 28.7783 37.2813 28.9516 37.5107C29.1249 37.7402 29.3958 37.8751 29.6834 37.875H48.6675C49.68 37.875 50.5009 38.6958 50.5009 39.7084C50.5009 40.7209 49.68 41.5417 48.6675 41.5417H34.9175C34.4113 41.5417 34.0009 41.9521 34.0009 42.4584C34.0009 42.9646 34.4113 43.375 34.9175 43.375H51.4175C52.43 43.375 53.2509 44.1958 53.2509 45.2084C53.2509 46.2209 52.43 47.0417 51.4175 47.0417H34.0009C33.4946 47.0417 33.0842 47.4521 33.0842 47.9584C33.0842 48.4646 33.4946 48.875 34.0009 48.875H48.6675C49.68 48.875 50.5009 49.6958 50.5009 50.7084C50.5009 51.7209 49.68 52.5417 48.6675 52.5417H33.0842C32.5779 52.5417 32.1675 52.9521 32.1675 53.4584C32.1675 53.9646 32.5779 54.375 33.0842 54.375H45.0009C46.0134 54.375 46.8342 55.1958 46.8342 56.2084C46.8342 57.2209 46.0134 58.0417 45.0009 58.0417H23.9175C18.3514 58.0351 13.8408 53.5245 13.8342 47.9584ZM50.3597 59.9667C49.6348 60.6548 48.4971 60.652 47.7756 59.9603L47.0569 59.2407C47.2488 59.1108 47.428 58.9632 47.5923 58.7998C48.2826 58.1144 48.6698 57.1811 48.6675 56.2084C48.666 56.0108 48.6485 55.8137 48.6153 55.6189L50.3661 57.3707L50.378 57.3835C50.7203 57.7273 50.9107 58.1938 50.907 58.6789C50.9032 59.164 50.7054 59.6274 50.3579 59.9658L50.3597 59.9667ZM56.8469 58.6678C56.1174 59.348 54.986 59.348 54.2564 58.6678L51.6797 56.091L51.6595 56.0709L49.7749 54.1917C51.0337 53.8064 51.9825 52.7656 52.2499 51.4765L56.846 56.0736C57.1938 56.4155 57.3898 56.8828 57.39 57.3705C57.3901 57.8582 57.1945 58.3256 56.8469 58.6678ZM62.6861 56.7153C61.963 57.4133 60.8169 57.4133 60.0938 56.7153L58.1413 54.7719L52.1582 48.7834C53.4525 48.5315 54.5031 47.5877 54.8917 46.3276L60.7373 52.175L60.7428 52.1796L60.7785 52.2154L62.6834 54.1202C63.3966 54.8378 63.3979 55.9962 62.6861 56.7153ZM64.6294 50.8853C63.9173 51.5693 62.7963 51.5826 62.0683 50.9155L62.0389 50.8853L54.6378 43.485C54.0734 42.4232 53.0242 41.7056 51.83 41.5646C52.4956 40.4308 52.5032 39.0273 51.8499 37.8863C51.1965 36.7454 49.9823 36.0415 48.6675 36.0417C48.663 33.8426 47.3516 31.8567 45.3309 30.989C46.1636 29.7098 46.6616 28.2419 46.7792 26.7201L57.8159 24.0251C58.9453 23.7492 60.1207 24.2571 60.6937 25.2688C61.2668 26.2804 61.0981 27.5496 60.2808 28.3765C60.1048 28.5495 59.9055 28.697 59.6886 28.8147L51.412 33.4164C51.1607 33.5561 50.9896 33.8057 50.9498 34.0905C50.91 34.3753 51.0061 34.6623 51.2094 34.8656L64.6294 48.2948C65.3439 49.0105 65.3439 50.1696 64.6294 50.8853Z" fill="#00309D"/>
<path d="M34.4311 23.64C34.6717 23.6388 34.9022 23.5429 35.0728 23.3733C36.1386 22.3055 37.7497 21.9996 39.1327 22.6023C39.5969 22.8049 40.1374 22.5927 40.3399 22.1284C40.5424 21.6642 40.3303 21.1237 39.866 20.9212C37.7949 20.0151 35.3801 20.4726 33.7839 22.0734C33.5214 22.3346 33.4417 22.7281 33.5821 23.0708C33.7225 23.4135 34.0553 23.6381 34.4256 23.64H34.4311Z" fill="#00309D"/>
<path d="M47.752 17.2501C47.752 19.022 49.1884 20.4584 50.9603 20.4584C52.7322 20.4584 54.1686 19.022 54.1686 17.2501C54.1686 15.4782 52.7322 14.0417 50.9603 14.0417C49.1884 14.0417 47.752 15.4782 47.752 17.2501ZM52.3353 17.2501C52.3353 18.0095 51.7197 18.6251 50.9603 18.6251C50.2009 18.6251 49.5853 18.0095 49.5853 17.2501C49.5853 16.4907 50.2009 15.8751 50.9603 15.8751C51.7197 15.8751 52.3353 16.4907 52.3353 17.2501Z" fill="#009ACF"/>
<path d="M62.4173 10.375C59.886 10.375 57.834 12.427 57.834 14.9583C57.834 17.4896 59.886 19.5417 62.4173 19.5417C64.9486 19.5417 67.0006 17.4896 67.0006 14.9583C66.9976 12.4283 64.9474 10.378 62.4173 10.375ZM62.4173 17.7083C60.8985 17.7083 59.6673 16.4771 59.6673 14.9583C59.6673 13.4396 60.8985 12.2083 62.4173 12.2083C63.9361 12.2083 65.1673 13.4396 65.1673 14.9583C65.1673 15.6877 64.8776 16.3872 64.3619 16.9029C63.8461 17.4186 63.1467 17.7083 62.4173 17.7083Z" fill="#009ACF"/>
<path d="M59.668 36.0417C59.668 37.5605 60.8992 38.7917 62.418 38.7917C63.9367 38.7917 65.168 37.5605 65.168 36.0417C65.168 34.523 63.9367 33.2917 62.418 33.2917C60.8992 33.2917 59.668 34.523 59.668 36.0417ZM62.418 35.1251C62.9242 35.1251 63.3346 35.5355 63.3346 36.0417C63.3346 36.548 62.9242 36.9584 62.418 36.9584C61.9117 36.9584 61.5013 36.548 61.5013 36.0417C61.5013 35.5355 61.9117 35.1251 62.418 35.1251Z" fill="#009ACF"/>
</svg>
