<svg width="44" height="92" viewBox="0 0 44 92" fill="none" xmlns="http://www.w3.org/2000/svg">
<path d="M21.1226 58.9605L22.6 56.1011C23.0217 55.2849 23.9449 54.8667 24.8468 55.0417C30.4272 56.1246 35.221 55.7459 38.0542 55.1849C39.1056 54.9767 40.2121 55.5012 40.5968 56.5016L41.5751 59.0459C41.6632 59.2749 41.7083 59.5182 41.7083 59.7636V85.3652C41.7083 85.5384 41.6879 85.7121 41.6344 85.8768C40.5359 89.2566 35.8986 90.6991 33.666 91H29.6729C24.8829 91 22.0745 87.8754 21.0828 86.0033C20.9531 85.7585 20.8994 85.483 20.8994 85.2059V59.8785C20.8994 59.5591 20.9759 59.2443 21.1226 58.9605Z" stroke="#00309D"/>
<path d="M23.937 85.2799C26.4116 83.3199 32.7892 80.5759 38.5032 85.2799" stroke="#00309D" stroke-linecap="round"/>
<path d="M42.108 48.3061V53.784L42.0675 53.7915C35.2724 55.0471 28.3051 55.0448 21.5117 53.7853V48.269C21.5117 47.9418 21.8208 47.7028 22.1374 47.7851L25.9798 48.7831C26.06 48.804 26.1418 48.8181 26.2243 48.8255L31.7474 49.3155C31.8218 49.3221 31.8966 49.3231 31.9712 49.3186L37.2976 48.9939C37.4077 48.9872 37.5168 48.9683 37.6229 48.9377L41.4691 47.8258C41.7889 47.7333 42.108 47.9733 42.108 48.3061Z" stroke="#00309D"/>
<path d="M37.3776 44.6096L37.4504 45.1043L41.5352 44.5031C41.8371 44.4587 42.108 44.6927 42.108 44.9978V45.6439C42.108 45.8841 41.9372 46.0903 41.7013 46.1351L41.0309 46.2624C34.8654 47.4333 28.5336 47.4211 22.3727 46.2264L21.9165 46.138C21.6815 46.0924 21.5117 45.8866 21.5117 45.6471V44.9808C21.5117 44.6786 21.7777 44.4455 22.0773 44.4851L26.117 45.0193L26.2908 45.0446C29.9878 45.5834 33.7418 45.6038 37.4444 45.1051L37.3776 44.6096Z" stroke="#00309D"/>
<path d="M21.3026 43.0386C20.9479 42.5088 20.9347 41.8298 21.2488 41.2922L26.0135 41.8721L26.0135 41.8722L26.0211 41.873L28.5787 42.1449C30.7603 42.3769 32.9581 42.4176 35.1468 42.2666L37.5814 42.0986L37.5971 42.0975L37.6128 42.0954L42.3902 41.4611C42.6976 41.9434 42.6822 42.5709 42.3439 43.0386L40.1847 43.3711C34.5613 44.237 28.8377 44.2279 23.217 43.3442L21.3061 43.0438L21.3026 43.0386Z" stroke="#00309D"/>
<path d="M28.2958 3.1958H35.3253C38.6368 3.1958 41.3213 5.8803 41.3213 9.1918V16.9798H22.2998V9.1918C22.2998 5.8803 24.9843 3.1958 28.2958 3.1958Z" stroke="#00309D"/>
<path d="M26.9029 0.5H36.6306C38.1839 0.5 39.4722 1.63487 39.7114 3.12069H23.8221C24.0613 1.63487 25.3496 0.5 26.9029 0.5Z" stroke="#00309D"/>
<path d="M21.7896 40.0742V34.2951C21.7896 33.5969 22.4885 33.1104 23.1601 33.3014C29.0214 34.9682 36.4399 34.065 40.5242 33.1596C41.1661 33.0173 41.7896 33.4977 41.7896 34.1552V40.1055C41.7896 40.5075 41.5495 40.8727 41.174 41.0163C34.2354 43.6709 26.2301 42.2446 22.4431 40.9974C22.0465 40.8667 21.7896 40.4918 21.7896 40.0742Z" stroke="#00309D"/>
<path d="M40.0498 33.3803C34.0058 34.8918 27.3839 34.16 23.5318 33.3153C22.7654 33.1472 22.5566 32.2057 23.1949 31.7494C29.5759 27.1885 36.4912 29.4057 40.3184 31.8217C40.9839 32.2418 40.8134 33.1893 40.0498 33.3803Z" stroke="#00309D"/>
<rect x="30.3311" y="26.8104" width="2.08333" height="2.5" rx="0.625" fill="white" stroke="#00309D" stroke-width="0.416667"/>
<path d="M6 7L0.226497 17L11.7735 17L6 7ZM7 80L7 16L5 16L5 80L7 80Z" fill="#00309D"/>
</svg>
