<svg width="56" height="96" viewBox="0 0 56 96" fill="none" xmlns="http://www.w3.org/2000/svg">
<path d="M43.1019 38.3669L40.6443 40.494C39.9527 41.0926 38.9455 41.1399 38.1744 40.6468C33.3038 37.5318 28.632 36.0924 25.7592 35.5616C24.7092 35.3676 23.8773 34.4758 23.8854 33.4075L23.9062 30.6499C23.9081 30.4027 23.9557 30.1579 24.0467 29.9282L33.5086 6.03696C33.5729 5.87472 33.6565 5.71969 33.7681 5.58558C36.0502 2.84219 40.9424 3.22764 43.1524 3.7806L46.9064 5.27177C51.4091 7.06035 52.8946 11.0245 53.1352 13.1422C53.1667 13.4195 53.1152 13.6974 53.0125 13.9568L43.6521 37.5916C43.5337 37.8906 43.345 38.1566 43.1019 38.3669Z" stroke="#00309D"/>
<path d="M50.1846 12.7521C47.1338 13.6572 40.1238 13.8365 36.4906 7.3125" stroke="#00309D" stroke-linecap="round"/>
<path d="M23.8895 41.5612L23.8407 42.059L23.8895 41.5612L19.8432 41.1607C19.5125 41.1279 19.305 40.7874 19.4274 40.4783L21.4554 35.3577L21.5025 35.3671C28.3574 36.7334 34.9066 39.3378 40.8296 43.0522L38.7876 48.2083C38.6672 48.5121 38.2927 48.6204 38.0286 48.4278L34.7704 46.0506C34.704 46.0021 34.6336 45.9591 34.5601 45.9222L29.5462 43.4009C29.48 43.3676 29.4113 43.3393 29.3409 43.3161L24.2101 41.629C24.1061 41.5947 23.9985 41.572 23.8895 41.5612Z" stroke="#00309D"/>
<path d="M22.6374 45.2043L22.6374 45.2042L22.6315 45.2028L18.5551 44.2351C18.2584 44.1647 18.0931 43.8473 18.2054 43.5639L18.447 42.9538C18.5356 42.7302 18.7706 42.6015 19.0066 42.6473L19.8708 42.8151C25.9836 44.0023 31.8186 46.333 37.0693 49.685L37.6259 50.0403C37.8279 50.1693 37.9102 50.4236 37.8219 50.6465L37.5729 51.2753C37.4617 51.556 37.129 51.6747 36.8652 51.5276L33.2524 49.5135L33.0984 49.425C29.8224 47.5418 26.302 46.1214 22.6374 45.2043Z" stroke="#00309D"/>
<path d="M32.1866 52.4894L32.1866 52.4894L32.18 52.4859L29.8208 51.248C27.8927 50.2362 25.8807 49.3939 23.8073 48.7303L21.3968 47.9589L21.3819 47.9541L21.3667 47.9503L16.636 46.7569C16.5244 46.1912 16.7718 45.6083 17.2634 45.2982L19.5801 45.832C25.0817 47.0996 30.3568 49.2046 35.2212 52.0735L37.0518 53.1531L37.0533 53.1601C37.1911 53.7874 36.9511 54.4283 36.4562 54.8124L32.1866 52.4894Z" stroke="#00309D"/>
<path d="M35.4951 55.7428L33.3553 61.1457C33.0986 61.7938 32.2719 61.9887 31.7185 61.5644C26.8177 57.8073 19.4858 55.8764 15.3098 55.1978C14.6617 55.0925 14.2601 54.4163 14.5019 53.8057L16.7042 48.2449C16.8526 47.8703 17.2116 47.6192 17.6144 47.6252C25.1241 47.7371 32.1283 52.0632 35.226 54.6415C35.5478 54.9094 35.6492 55.3536 35.4951 55.7428Z" stroke="#00309D"/>
<path d="M15.847 55.1715C22.094 56.0171 28.0555 59.1778 31.3646 61.4057C32.0178 61.8455 31.8636 62.8016 31.0992 62.9881C23.4113 64.864 17.7279 60.209 15.0233 56.5242C14.5557 55.8872 15.0645 55.0656 15.847 55.1715Z" stroke="#00309D"/>
<rect x="-0.116906" y="-0.270606" width="2.11227" height="2.51109" rx="0.625" transform="matrix(-0.929363 -0.369168 0.368214 -0.929741 22.5552 64.6394)" fill="white" stroke="#00309D" stroke-width="0.416667"/>
<path d="M21.4777 69.7052C21.3164 69.4125 21.1753 69.144 21.043 68.8984C21.0241 68.8633 20.9939 68.827 20.9625 68.8014C20.8369 68.6994 20.6515 68.7222 20.5465 68.842C20.3742 69.0529 20.1781 69.2722 19.9433 69.5309C18.9103 70.6869 17.3653 72.4324 17.2432 73.5162C17.154 74.3074 17.4119 75.0612 17.8948 75.643C18.379 76.214 19.087 76.6237 19.9106 76.7173C20.7342 76.8109 21.5154 76.5704 22.1156 76.1117C22.7158 75.6529 23.1348 74.9761 23.224 74.1848C23.3461 73.101 22.2273 71.0638 21.4777 69.7052ZM21.7534 75.6753C21.2658 76.048 20.6397 76.2294 19.9741 76.1537C19.3084 76.0781 18.7398 75.75 18.3462 75.2881C17.9538 74.8154 17.759 74.2115 17.8311 73.572C17.9337 72.6616 19.4125 70.9964 20.3942 69.8895C20.5117 69.7601 20.6178 69.6295 20.7215 69.5205C20.7983 69.65 20.8727 69.8012 20.9583 69.9536C21.6677 71.2637 22.7399 73.2077 22.6373 74.1182C22.5653 74.7577 22.2298 75.3013 21.7534 75.6753Z" fill="#00309D"/>
<path d="M22.0038 73.8487C21.8471 73.82 21.6983 73.9239 21.6699 74.0743C21.6317 74.3115 21.527 74.5302 21.3809 74.7112C21.2348 74.8922 21.0347 75.0452 20.8082 75.1293C20.6642 75.1898 20.5883 75.3568 20.6525 75.4958C20.7257 75.6578 20.9013 75.7216 21.0452 75.6611C21.3681 75.5331 21.6432 75.3228 21.843 75.071C22.0541 74.8205 22.1923 74.5069 22.2415 74.1721C22.2699 74.0217 22.1605 73.8775 22.0038 73.8487Z" fill="#00309D"/>
<path d="M10.7886 81.4967L10.8398 81.6125L10.9625 81.5815C13.3086 80.9898 15.823 81.1751 18.1122 82.1213C20.4016 83.0675 22.3145 84.712 23.5612 86.7888L23.6263 86.8973L23.7442 86.8514L26.9685 85.5946L27.4162 86.6076L14.1294 91.7864L8.35691 78.7301L9.38785 78.3282L10.7886 81.4967ZM20.5907 85.2066L20.8271 85.1207L20.6391 84.9534C19.7799 84.1891 18.7886 83.5644 17.7025 83.1155C16.6166 82.6667 15.4739 82.4093 14.3266 82.3444L14.0754 82.3302L14.1825 82.558C14.7167 83.6943 15.6785 84.6178 16.879 85.114C18.0797 85.6102 19.4118 85.6349 20.5907 85.2066ZM11.466 82.5893L11.2897 82.6303L11.363 82.7961L14.6543 90.2406L14.7123 90.3719L14.8459 90.3198L22.4218 87.3668L22.5904 87.3011L22.4944 87.1475C22.2559 86.766 21.9921 86.4016 21.7053 86.0562L21.6312 85.967L21.5263 86.0162C19.9675 86.7474 18.1187 86.7901 16.4692 86.1084C14.8197 85.4266 13.5392 84.0903 12.9491 82.4711L12.9094 82.3621L12.794 82.373C12.3475 82.4153 11.9039 82.4873 11.466 82.5893Z" fill="#00309D" stroke="#F0F9FC" stroke-width="0.3"/>
</svg>
