<svg width="83" height="83" viewBox="0 0 83 83" fill="none" xmlns="http://www.w3.org/2000/svg">
<path d="M72.781 53.1517C70.1299 49.8495 67.1386 46.8355 63.8569 44.1593C58.7885 39.9996 50.8787 34.9643 41.978 34.623C41.2933 34.5974 40.5499 34.5931 39.9889 34.6326C39.8982 34.6326 39.7958 34.6326 39.6988 34.6454C38.7459 34.691 37.7965 34.7918 36.8552 34.9472C34.9834 32.5346 33.3216 30.7502 33.247 30.6713C33.0442 30.455 32.7606 30.3329 32.4641 30.3342C32.1688 30.3346 31.887 30.4574 31.6855 30.6734C29.22 33.3524 27.0013 36.2486 25.0567 39.3266C19.0049 42.9669 13.6434 47.6472 9.21898 53.1517C8.92701 53.5339 8.92701 54.0643 9.21898 54.4465C11.8701 57.7487 14.8613 60.7627 18.1431 63.4389C23.2115 67.5986 31.1213 72.6339 40.0219 72.9752C40.3419 72.987 40.6757 72.9976 40.9979 72.9976C41.32 72.9976 41.6527 72.987 41.977 72.9752H41.9908H42.0058C50.8915 72.6243 58.7895 67.5986 63.8526 63.441C67.136 60.7643 70.1287 57.7496 72.781 54.4465C73.073 54.0643 73.073 53.5339 72.781 53.1517ZM25.0684 44.5699C25.4009 43.1751 25.9698 41.8476 26.7504 40.6449C28.4304 37.9365 30.3421 35.3788 32.4641 33.0007C33.199 33.8337 34.3637 35.1979 35.5679 36.7849C35.5869 36.8169 35.6075 36.8479 35.6297 36.8777C36.0681 37.4622 36.5182 38.0904 36.9459 38.7155C39.4129 42.3322 39.9302 44.2745 39.9302 45.2664C39.9343 49.3857 36.5983 52.7284 32.479 52.7325C30.0114 52.7349 27.7021 51.5167 26.311 49.4784C26.1755 49.2842 26.0518 49.0848 25.9366 48.8811C25.8993 48.8149 25.8694 48.7446 25.83 48.6774C25.7564 48.5376 25.6828 48.399 25.6166 48.2507C25.5793 48.1675 25.5505 48.0801 25.5175 47.9947C25.4641 47.8636 25.4108 47.7324 25.3649 47.598C25.334 47.5052 25.3116 47.4103 25.2849 47.3164C25.2465 47.1841 25.206 47.053 25.1783 46.9175V46.8951C25.0619 46.3599 25.0015 45.8141 24.998 45.2664C25.0004 45.0327 25.0239 44.7995 25.0684 44.5699ZM41.9887 46.4066C46.0763 46.9498 48.9495 50.7035 48.4063 54.791C47.8632 58.8786 44.1095 61.7518 40.0219 61.2087C36.6787 60.7644 34.0484 58.1342 33.6043 54.791C37.996 54.2595 41.4572 50.7983 41.9887 46.4066ZM11.4364 53.7991C14.8903 49.6753 18.8769 46.0288 23.2915 42.9551C23.2798 42.9893 23.2766 43.0191 23.2648 43.0543C23.1475 43.4086 23.0523 43.7697 22.9801 44.1358C22.9737 44.171 22.9705 44.2052 22.9641 44.2425C22.9021 44.5803 22.869 44.923 22.8649 45.2664C22.8695 45.8614 22.9281 46.4547 23.0398 47.0391C20.4602 53.8466 21.9672 61.528 26.9275 66.8562C21.0429 63.4393 15.8003 59.0204 11.4364 53.7991ZM41.898 70.8431C41.3061 70.8644 40.6928 70.8634 40.1083 70.8431C30.6816 70.3372 23.45 62.2851 23.9561 52.8584C24.0025 51.9943 24.1144 51.135 24.2909 50.2879C24.3762 50.4234 24.4637 50.5556 24.5533 50.6868C26.1355 53.0061 28.6584 54.5114 31.4509 54.8028C32.0077 60.075 36.7331 63.8975 42.0052 63.3406C47.2775 62.7837 51.1 58.0584 50.5431 52.7862C50.0655 48.2651 46.4821 44.699 41.9587 44.2436C41.3412 41.8007 40.236 39.5078 38.7099 37.5028C38.5808 37.314 38.4497 37.1252 38.3185 36.9375C38.8315 36.8585 39.3637 36.7988 39.9183 36.7604L40.0495 36.7636C40.3578 36.7444 40.6692 36.7369 40.9764 36.7369C41.2836 36.7369 41.5833 36.7444 41.8841 36.754C51.2977 37.2153 58.555 45.2206 58.0936 54.6342C57.6644 63.3972 50.6606 70.4066 41.898 70.8431ZM55.0693 66.8552C61.9052 59.4929 61.9052 48.1042 55.0693 40.742C60.9526 44.1593 66.1935 48.578 70.5561 53.7991C66.1935 59.0198 60.9524 63.4382 55.0693 66.8552Z" fill="#00309D"/>
<path d="M21.7988 9.00244V19.6683H27.1318V22.868C27.1318 25.8133 29.5194 28.201 32.4647 28.201C35.4099 28.201 37.7976 25.8133 37.7976 22.868V19.6683H43.1305V9.00244H21.7988ZM35.6644 22.868C35.6644 24.6352 34.2319 26.0678 32.4647 26.0678C30.6975 26.0678 29.2649 24.6352 29.2649 22.868V19.6683H35.6644V22.868ZM40.9974 17.5351H23.932V11.1356H40.9974V17.5351Z" fill="#009ACF"/>
<path d="M0 0H83V83H0V0Z" fill="#009ACF" fill-opacity="0.06"/>
</svg>
