<svg width="44" height="92" viewBox="0 0 44 92" fill="none" xmlns="http://www.w3.org/2000/svg">
<path d="M21.2077 58.9588L22.6959 56.0944C23.1183 55.2815 24.0385 54.8651 24.9379 55.039C30.5661 56.1273 35.3999 55.7449 38.2491 55.1816C39.2978 54.9743 40.401 55.4969 40.7865 56.494L41.7726 59.0443C41.8615 59.2744 41.9072 59.5189 41.9072 59.7656V85.3638C41.9072 85.5379 41.8865 85.7125 41.8324 85.878C40.7271 89.2569 36.0649 90.6991 33.82 91H29.8047C24.9893 91 22.1655 87.877 21.1676 86.0048C21.0366 85.759 20.9824 85.4823 20.9824 85.2038V59.8809C20.9824 59.5599 21.0597 59.2437 21.2077 58.9588Z" stroke="#00309D"/>
<path d="M24.0369 85.2799C26.5252 83.3199 32.9384 80.5759 38.6842 85.2799" stroke="#00309D" stroke-linecap="round"/>
<path d="M21.5952 48.2672C21.5952 47.9403 21.9038 47.7013 22.2203 47.7831L26.0931 48.7835C26.1729 48.8041 26.2543 48.8182 26.3364 48.8254L31.8919 49.3156C31.966 49.3221 32.0404 49.3232 32.1146 49.3187L37.4726 48.9938C37.5822 48.9872 37.6907 48.9685 37.7962 48.9382L41.6736 47.8235C41.9931 47.7316 42.3117 47.9715 42.3117 48.3041V53.7836L42.2676 53.7917C35.4333 55.0475 28.4277 55.045 21.5952 53.7849V48.2672Z" stroke="#00309D"/>
<path d="M37.6186 45.1052L37.6186 45.1052L37.6247 45.1043L41.7393 44.5021C42.0411 44.458 42.3117 44.6919 42.3117 44.9969V45.643C42.3117 45.8834 42.1407 46.0897 41.9045 46.1343L41.124 46.2817C34.9909 47.44 28.6941 47.4279 22.5655 46.2462L22.4708 46.7371L22.5655 46.2462L22.0005 46.1372C21.7652 46.0918 21.5952 45.8859 21.5952 45.6463V44.98C21.5952 44.6779 21.861 44.4448 22.1604 44.4842L26.2297 45.0194L26.4044 45.0447C30.1217 45.5834 33.8957 45.6038 37.6186 45.1052Z" stroke="#00309D"/>
<path d="M26.1256 41.8721L26.1256 41.8722L26.1331 41.873L28.7406 42.1487C30.9104 42.3782 33.0959 42.4185 35.2727 42.2691L37.7568 42.0986L37.7724 42.0975L37.788 42.0955L42.5948 41.4608C42.9038 41.9426 42.8884 42.5712 42.5485 43.0383L40.2818 43.3854C34.6884 44.2419 28.9965 44.233 23.4058 43.3589L21.3887 43.0435L21.3852 43.0382C21.0288 42.5089 21.0157 41.829 21.3315 41.2919L26.1256 41.8721Z" stroke="#00309D"/>
<path d="M22.3877 9.1918C22.3877 5.8803 25.0722 3.1958 28.3837 3.1958H35.5247C38.8362 3.1958 41.5207 5.8803 41.5207 9.1918V16.9798H22.3877V9.1918Z" stroke="#00309D"/>
<path d="M23.9183 3.12069C24.1575 1.63487 25.4458 0.5 26.9991 0.5H36.8212C38.3746 0.5 39.6628 1.63487 39.9021 3.12069H23.9183Z" stroke="#00309D"/>
<path d="M6 80L0.226497 70L11.7735 70L6 80ZM7 7L7 71L5 71L5 7L7 7Z" fill="#00309D"/>
<path d="M21.7896 40.0741V34.2951C21.7896 33.5968 22.4885 33.1103 23.1601 33.3013C29.0214 34.9681 36.4399 34.0649 40.5242 33.1595C41.1661 33.0172 41.7896 33.4977 41.7896 34.1552V40.1055C41.7896 40.5074 41.5495 40.8726 41.174 41.0163C34.2354 43.6709 26.2301 42.2445 22.4431 40.9973C22.0465 40.8666 21.7896 40.4918 21.7896 40.0741Z" stroke="#00309D"/>
<path d="M40.0498 33.3803C34.0058 34.8918 27.3839 34.16 23.5318 33.3153C22.7654 33.1472 22.5566 32.2057 23.1949 31.7494C29.5759 27.1885 36.4912 29.4057 40.3184 31.8217C40.9839 32.2418 40.8134 33.1893 40.0498 33.3803Z" stroke="#00309D"/>
<rect x="30.3311" y="26.8104" width="2.08333" height="2.5" rx="0.625" fill="white" stroke="#00309D" stroke-width="0.416667"/>
</svg>
