<svg width="206" height="48" viewBox="0 0 206 48" fill="none" xmlns="http://www.w3.org/2000/svg">
<path d="M33.0935 33C32.3486 33 31.9761 32.6009 31.9761 31.8028V11.3069C31.9761 10.5087 32.3486 10.1097 33.0935 10.1097H35.5198C36.2647 10.1097 36.6372 10.5087 36.6372 11.3069V19.352H37.1161C37.8291 19.352 38.5634 19.054 39.3189 18.4581C40.0745 17.8622 40.7343 17.1226 41.2983 16.2393L44.6504 11.0515C45.0548 10.4236 45.5337 10.1097 46.0871 10.1097H48.9124C49.9447 10.1097 50.1469 10.5673 49.519 11.4824L45.2251 17.7717C44.693 18.5485 44.1662 19.1977 43.6448 19.7191C43.134 20.2406 42.4901 20.7567 41.7133 21.2675V21.2835C42.5221 21.5921 43.2564 22.0337 43.9161 22.6084C44.5759 23.1724 45.2996 24.0822 46.0871 25.338L50.0138 31.6272C50.5885 32.5424 50.3863 33 49.4073 33H46.4223C45.8263 33 45.3475 32.6861 44.9856 32.0582L41.9687 26.8704C41.4047 25.8913 40.6864 25.0453 39.8138 24.3323C38.9518 23.6087 38.1324 23.2469 37.3555 23.2469H36.6372V31.8028C36.6372 32.6009 36.2647 33 35.5198 33H33.0935ZM52.2167 28.5305C52.2167 26.4021 53.233 24.8591 55.2655 23.9013C57.2981 22.9436 59.618 22.4328 62.2252 22.3689V21.7304C62.2252 20.7514 61.9805 20.0597 61.4909 19.6553C61.0014 19.2509 60.3203 19.0487 59.4477 19.0487C58.8305 19.0487 58.2825 19.1392 57.8036 19.3201C57.3353 19.4903 56.9256 19.6925 56.5745 19.9266C56.2339 20.1501 55.9253 20.3789 55.6486 20.613C55.1591 21.0387 54.7547 21.06 54.4355 20.6769L53.1106 19.0487C52.7807 18.6443 52.8605 18.2293 53.35 17.8036C53.7225 17.4737 54.1535 17.1864 54.643 16.9416C55.1432 16.6969 55.8029 16.4681 56.6224 16.2553C57.4418 16.0318 58.5059 15.92 59.8149 15.92C62.0283 15.92 63.7257 16.4308 64.9069 17.4524C66.0988 18.4741 66.6947 19.9799 66.6947 21.9699V32.0422C66.6947 32.6807 66.3755 33 65.737 33H63.1191C62.5445 33 62.2571 32.6807 62.2571 32.0422V31.5634H62.2252C61.5974 32.1699 60.8418 32.6169 59.9585 32.9042C59.0859 33.1809 58.2825 33.3193 57.5482 33.3193C55.8029 33.3193 54.478 32.8936 53.5735 32.0422C52.669 31.1803 52.2167 30.0097 52.2167 28.5305ZM56.9416 28.4347C56.9416 28.8072 57.0161 29.1317 57.1651 29.4084C57.3141 29.6745 57.5482 29.8713 57.8674 29.999C58.1867 30.1267 58.5432 30.1906 58.9369 30.1906C59.4797 30.1906 60.0064 30.1161 60.5172 29.9671C61.028 29.8181 61.5974 29.4669 62.2252 28.9136V25.4497C60.4374 25.6519 59.2402 25.9126 58.6336 26.2319C58.0271 26.5511 57.5907 26.881 57.3247 27.2215C57.0693 27.5621 56.9416 27.9665 56.9416 28.4347ZM70.3182 19.4318C69.6797 19.4318 69.3605 19.1658 69.3605 18.6337V17.0374C69.3605 16.5053 69.6797 16.2393 70.3182 16.2393H83.663C84.3015 16.2393 84.6207 16.5053 84.6207 17.0374V18.6337C84.6207 19.1658 84.3015 19.4318 83.663 19.4318H79.2254V32.0422C79.2254 32.6807 78.9061 33 78.2676 33H75.7136C75.0751 33 74.7558 32.6807 74.7558 32.0422V19.4318H70.3182ZM88.0846 33C87.5419 33 87.2705 32.6807 87.2705 32.0422V17.197C87.2705 16.5585 87.5898 16.2393 88.2283 16.2393H90.7823C91.4208 16.2393 91.74 16.5585 91.74 17.197V25.2262C91.74 25.6519 91.7187 26.0776 91.6762 26.5032H91.74L96.433 17.2769C96.7842 16.5851 97.3429 16.2393 98.1091 16.2393H101.318C101.956 16.2393 102.275 16.5585 102.275 17.197V32.0422C102.275 32.6807 101.956 33 101.318 33H98.7636C98.1251 33 97.8058 32.6807 97.8058 32.0422V24.0131C97.8058 23.5768 97.8271 23.1511 97.8697 22.7361H97.8058L93.1128 31.9624C92.7616 32.6541 92.2029 33 91.4367 33H88.0846ZM105.723 24.6196C105.723 21.906 106.42 19.7777 107.814 18.2346C109.219 16.6916 111.305 15.92 114.072 15.92C116.839 15.92 118.919 16.6916 120.313 18.2346C121.718 19.7777 122.42 21.906 122.42 24.6196C122.42 27.3333 121.718 29.4616 120.313 31.0047C118.919 32.5477 116.839 33.3193 114.072 33.3193C111.305 33.3193 109.219 32.5477 107.814 31.0047C106.42 29.4616 105.723 27.3333 105.723 24.6196ZM110.448 24.6196C110.448 26.6416 110.757 28.0782 111.374 28.9295C112.002 29.7702 112.901 30.1906 114.072 30.1906C115.242 30.1906 116.136 29.7702 116.753 28.9295C117.381 28.0782 117.695 26.6416 117.695 24.6196C117.695 22.5977 117.381 21.1664 116.753 20.3257C116.136 19.4744 115.242 19.0487 114.072 19.0487C112.901 19.0487 112.002 19.4744 111.374 20.3257C110.757 21.1664 110.448 22.5977 110.448 24.6196ZM126.826 33C126.187 33 125.868 32.6807 125.868 32.0422V17.197C125.868 16.5585 126.187 16.2393 126.826 16.2393H129.38C130.018 16.2393 130.338 16.5585 130.338 17.197V22.6562H136.084V17.197C136.084 16.5585 136.403 16.2393 137.042 16.2393H139.596C140.234 16.2393 140.554 16.5585 140.554 17.197V32.0422C140.554 32.6807 140.234 33 139.596 33H137.042C136.403 33 136.084 32.6807 136.084 32.0422V25.8488H130.338V32.0422C130.338 32.6807 130.018 33 129.38 33H126.826ZM144.002 24.6196C144.002 21.906 144.699 19.7777 146.093 18.2346C147.497 16.6916 149.583 15.92 152.35 15.92C155.117 15.92 157.197 16.6916 158.591 18.2346C159.996 19.7777 160.698 21.906 160.698 24.6196C160.698 27.3333 159.996 29.4616 158.591 31.0047C157.197 32.5477 155.117 33.3193 152.35 33.3193C149.583 33.3193 147.497 32.5477 146.093 31.0047C144.699 29.4616 144.002 27.3333 144.002 24.6196ZM148.726 24.6196C148.726 26.6416 149.035 28.0782 149.652 28.9295C150.28 29.7702 151.179 30.1906 152.35 30.1906C153.521 30.1906 154.414 29.7702 155.032 28.9295C155.66 28.0782 155.973 26.6416 155.973 24.6196C155.973 22.5977 155.66 21.1664 155.032 20.3257C154.414 19.4744 153.521 19.0487 152.35 19.0487C151.179 19.0487 150.28 19.4744 149.652 20.3257C149.035 21.1664 148.726 22.5977 148.726 24.6196ZM165.104 39.385C164.466 39.385 164.146 39.0658 164.146 38.4273V17.197C164.146 16.5585 164.466 16.2393 165.104 16.2393H167.626C168.158 16.2393 168.446 16.5585 168.488 17.197L168.552 18.1229H168.616C169.169 17.2077 169.786 16.6118 170.467 16.3351C171.149 16.0584 171.968 15.92 172.926 15.92C175.427 15.92 177.182 16.7873 178.193 18.5219C179.215 20.2459 179.726 22.2785 179.726 24.6196C179.726 26.9608 179.215 28.9987 178.193 30.7333C177.182 32.4573 175.427 33.3193 172.926 33.3193C171.968 33.3193 171.149 33.1809 170.467 32.9042C169.786 32.6275 169.169 32.0316 168.616 31.1164H168.552C168.595 31.5421 168.616 31.9678 168.616 32.3934V38.4273C168.616 39.0658 168.297 39.385 167.658 39.385H165.104ZM168.616 25.338C168.616 26.7746 168.898 27.9452 169.462 28.8497C170.036 29.7436 170.723 30.1906 171.521 30.1906C172.958 30.1906 173.894 29.6904 174.33 28.6901C174.777 27.6791 175.001 26.3223 175.001 24.6196C175.001 22.917 174.777 21.5655 174.33 20.5652C173.894 19.5542 172.958 19.0487 171.521 19.0487C170.723 19.0487 170.036 19.501 169.462 20.4055C168.898 21.2994 168.616 22.4647 168.616 23.9013V25.338ZM184.131 33C183.493 33 183.174 32.6807 183.174 32.0422V17.197C183.174 16.5585 183.493 16.2393 184.131 16.2393H188.425C189.128 16.2393 189.58 16.5851 189.782 17.2769L192.48 26.7107C192.586 27.0832 192.687 27.5248 192.783 28.0356C192.89 28.5358 192.943 28.9402 192.943 29.2488H193.007C193.007 28.9402 193.055 28.5358 193.15 28.0356C193.257 27.5248 193.363 27.0832 193.47 26.7107L196.167 17.2769C196.369 16.5851 196.822 16.2393 197.524 16.2393H201.818C202.456 16.2393 202.776 16.5585 202.776 17.197V32.0422C202.776 32.6807 202.456 33 201.818 33H199.264C198.625 33 198.306 32.6807 198.306 32.0422V23.9811C198.306 23.5448 198.327 23.1192 198.37 22.7041H198.306L195.545 32.0263C195.353 32.6754 195.066 33 194.683 33H191.267C190.884 33 190.596 32.6754 190.405 32.0263L187.643 22.7041H187.579C187.622 23.1192 187.643 23.5448 187.643 23.9811V32.0422C187.643 32.6807 187.324 33 186.685 33H184.131Z" fill="#383836"/>
<path d="M36.6372 19.352H36.4329V19.5563H36.6372V19.352ZM41.2983 16.2393L41.1267 16.1284L41.1261 16.1293L41.2983 16.2393ZM44.6504 11.0515L44.822 11.1623L44.8222 11.1621L44.6504 11.0515ZM49.519 11.4824L49.3505 11.3669L49.3503 11.3672L49.519 11.4824ZM45.2251 17.7717L45.3936 17.8872L45.3938 17.8869L45.2251 17.7717ZM43.6448 19.7191L43.5003 19.5746L43.4988 19.5762L43.6448 19.7191ZM41.7133 21.2675L41.601 21.0968L41.509 21.1573V21.2675H41.7133ZM41.7133 21.2835H41.509V21.4242L41.6405 21.4744L41.7133 21.2835ZM43.9161 22.6084L43.7819 22.7624L43.7834 22.7637L43.9161 22.6084ZM46.0871 25.338L46.2604 25.2298L46.2601 25.2294L46.0871 25.338ZM50.0138 31.6272L49.8405 31.7354L49.8408 31.7359L50.0138 31.6272ZM44.9856 32.0582L45.1627 31.9562L45.1623 31.9555L44.9856 32.0582ZM41.9687 26.8704L41.7917 26.9724L41.7921 26.9731L41.9687 26.8704ZM39.8138 24.3323L39.6824 24.4888L39.6845 24.4905L39.8138 24.3323ZM36.6372 23.2469V23.0425H36.4329V23.2469H36.6372ZM33.0935 32.7957C32.7563 32.7957 32.5399 32.706 32.4048 32.5613C32.2673 32.4139 32.1805 32.1737 32.1805 31.8028H31.7718C31.7718 32.23 31.8712 32.5884 32.1061 32.8401C32.3435 33.0944 32.6858 33.2043 33.0935 33.2043V32.7957ZM32.1805 31.8028V11.3069H31.7718V31.8028H32.1805ZM32.1805 11.3069C32.1805 10.9359 32.2673 10.6958 32.4048 10.5484C32.5399 10.4036 32.7563 10.314 33.0935 10.314V9.90534C32.6858 9.90534 32.3435 10.0152 32.1061 10.2695C31.8712 10.5212 31.7718 10.8797 31.7718 11.3069H32.1805ZM33.0935 10.314H35.5198V9.90534H33.0935V10.314ZM35.5198 10.314C35.857 10.314 36.0734 10.4036 36.2085 10.5484C36.346 10.6958 36.4329 10.9359 36.4329 11.3069H36.8415C36.8415 10.8797 36.7421 10.5212 36.5072 10.2695C36.2698 10.0152 35.9275 9.90534 35.5198 9.90534V10.314ZM36.4329 11.3069V19.352H36.8415V11.3069H36.4329ZM36.6372 19.5563H37.1161V19.1477H36.6372V19.5563ZM37.1161 19.5563C37.8887 19.5563 38.6664 19.233 39.4455 18.6185L39.1924 18.2977C38.4603 18.8751 37.7694 19.1477 37.1161 19.1477V19.5563ZM39.4455 18.6185C40.2205 18.0072 40.8953 17.2501 41.4705 16.3493L41.1261 16.1293C40.5733 16.995 39.9285 17.7171 39.1924 18.2977L39.4455 18.6185ZM41.4699 16.3502L44.822 11.1623L44.4788 10.9406L41.1267 16.1284L41.4699 16.3502ZM44.8222 11.1621C45.2036 10.57 45.6264 10.314 46.0871 10.314V9.90534C45.441 9.90534 44.906 10.2772 44.4786 10.9408L44.8222 11.1621ZM46.0871 10.314H48.9124V9.90534H46.0871V10.314ZM48.9124 10.314C49.1584 10.314 49.3375 10.3417 49.46 10.387C49.5795 10.4314 49.6295 10.486 49.6514 10.5354C49.6748 10.5885 49.684 10.6766 49.6391 10.8213C49.5943 10.9657 49.5015 11.1468 49.3505 11.3669L49.6875 11.598C49.8505 11.3605 49.9678 11.1412 50.0294 10.9424C50.091 10.7439 50.1028 10.546 50.0251 10.3703C49.9459 10.1909 49.791 10.0739 49.602 10.0039C49.4158 9.93486 49.1825 9.90534 48.9124 9.90534V10.314ZM49.3503 11.3672L45.0563 17.6565L45.3938 17.8869L49.6877 11.5977L49.3503 11.3672ZM45.0565 17.6562C44.5297 18.4254 44.0108 19.0642 43.5003 19.5747L43.7893 19.8636C44.3217 19.3312 44.8563 18.6717 45.3936 17.8872L45.0565 17.6562ZM43.4988 19.5762C43.0006 20.0848 42.3688 20.5919 41.601 21.0968L41.8256 21.4382C42.6115 20.9215 43.2674 20.3964 43.7907 19.8621L43.4988 19.5762ZM41.509 21.2675V21.2835H41.9176V21.2675H41.509ZM41.6405 21.4744C42.4265 21.7743 43.1401 22.2034 43.7819 22.7624L44.0503 22.4543C43.3726 21.864 42.6176 21.4098 41.7861 21.0926L41.6405 21.4744ZM43.7834 22.7637C44.4202 23.308 45.1309 24.1978 45.914 25.4465L46.2601 25.2294C45.4683 23.9667 44.7317 23.0367 44.0489 22.4531L43.7834 22.7637ZM45.9137 25.4462L49.8405 31.7354L50.1872 31.519L46.2604 25.2298L45.9137 25.4462ZM49.8408 31.7359C49.9787 31.9555 50.0627 32.1365 50.102 32.2813C50.1413 32.4264 50.1314 32.5175 50.1063 32.5742C50.0831 32.6267 50.0334 32.6806 49.9221 32.7237C49.8072 32.7682 49.6391 32.7957 49.4073 32.7957V33.2043C49.665 33.2043 49.8893 33.1746 50.0697 33.1047C50.2537 33.0334 50.4022 32.9157 50.4801 32.7394C50.5561 32.5673 50.5501 32.3724 50.4964 32.1743C50.4425 31.9759 50.3363 31.7566 50.1869 31.5186L49.8408 31.7359ZM49.4073 32.7957H46.4223V33.2043H49.4073V32.7957ZM46.4223 32.7957C45.9162 32.7957 45.4973 32.5368 45.1627 31.9562L44.8086 32.1602C45.1976 32.8353 45.7364 33.2043 46.4223 33.2043V32.7957ZM45.1623 31.9555L42.1453 26.7677L41.7921 26.9731L44.809 32.1609L45.1623 31.9555ZM42.1458 26.7684C41.5694 25.7679 40.8349 24.9028 39.943 24.1741L39.6845 24.4905C40.5378 25.1878 41.24 26.0148 41.7917 26.9724L42.1458 26.7684ZM39.9451 24.1758C39.0625 23.4348 38.198 23.0425 37.3555 23.0425V23.4512C38.0668 23.4512 38.8411 23.7825 39.6824 24.4888L39.9451 24.1758ZM37.3555 23.0425H36.6372V23.4512H37.3555V23.0425ZM36.4329 23.2469V31.8028H36.8415V23.2469H36.4329ZM36.4329 31.8028C36.4329 32.1737 36.346 32.4139 36.2085 32.5613C36.0734 32.706 35.857 32.7957 35.5198 32.7957V33.2043C35.9275 33.2043 36.2698 33.0944 36.5072 32.8401C36.7421 32.5884 36.8415 32.23 36.8415 31.8028H36.4329ZM35.5198 32.7957H33.0935V33.2043H35.5198V32.7957ZM62.2252 22.3689L62.2302 22.5732L62.4295 22.5683V22.3689H62.2252ZM57.8036 19.3201L57.8734 19.5121L57.8758 19.5112L57.8036 19.3201ZM56.5745 19.9266L56.6866 20.0975L56.6878 20.0967L56.5745 19.9266ZM55.6486 20.613L55.5166 20.457L55.5146 20.4589L55.6486 20.613ZM54.4355 20.6769L54.277 20.8059L54.2785 20.8077L54.4355 20.6769ZM53.1106 19.0487L53.2691 18.9197L53.2689 18.9195L53.1106 19.0487ZM53.35 17.8036L53.4841 17.9578L53.4855 17.9566L53.35 17.8036ZM54.643 16.9416L54.5532 16.7581L54.5516 16.7589L54.643 16.9416ZM56.6224 16.2553L56.6737 16.453L56.6761 16.4524L56.6224 16.2553ZM64.9069 17.4524L64.7733 17.607L64.774 17.6076L64.9069 17.4524ZM62.2571 31.5634H62.4615V31.359H62.2571V31.5634ZM62.2252 31.5634V31.359H62.1426L62.0833 31.4164L62.2252 31.5634ZM59.9585 32.9042L60.0203 33.099L60.0217 33.0985L59.9585 32.9042ZM53.5735 32.0422L53.4325 32.1902L53.4335 32.191L53.5735 32.0422ZM57.1651 29.4084L56.9852 29.5053L56.9868 29.5083L57.1651 29.4084ZM62.2252 28.9136L62.3603 29.0669L62.4295 29.0059V28.9136H62.2252ZM62.2252 25.4497H62.4295V25.221L62.2023 25.2467L62.2252 25.4497ZM57.3247 27.2215L57.1637 27.0957L57.1612 27.099L57.3247 27.2215ZM52.421 28.5305C52.421 27.5 52.6666 26.6226 53.1495 25.8893C53.633 25.1553 54.363 24.5525 55.3526 24.0862L55.1784 23.7165C54.1355 24.2079 53.3411 24.8555 52.8083 25.6645C52.275 26.4743 52.0124 27.4326 52.0124 28.5305H52.421ZM55.3526 24.0862C57.3557 23.1423 59.6469 22.6364 62.2302 22.5732L62.2202 22.1647C59.5891 22.2291 57.2405 22.7448 55.1784 23.7165L55.3526 24.0862ZM62.4295 22.3689V21.7304H62.0209V22.3689H62.4295ZM62.4295 21.7304C62.4295 20.7237 62.1783 19.9581 61.6211 19.4978L61.3608 19.8128C61.7826 20.1613 62.0209 20.779 62.0209 21.7304H62.4295ZM61.6211 19.4978C61.0833 19.0535 60.3502 18.8444 59.4477 18.8444V19.253C60.2905 19.253 60.9195 19.4483 61.3608 19.8128L61.6211 19.4978ZM59.4477 18.8444C58.8108 18.8444 58.2375 18.9377 57.7314 19.1289L57.8758 19.5112C58.3274 19.3406 58.8502 19.253 59.4477 19.253V18.8444ZM57.7338 19.1281C57.2529 19.3029 56.8281 19.512 56.4611 19.7566L56.6878 20.0967C57.0232 19.873 57.4178 19.6778 57.8734 19.5121L57.7338 19.1281ZM56.4624 19.7558C56.1157 19.9833 55.8004 20.217 55.5167 20.4571L55.7806 20.769C56.0503 20.5409 56.3521 20.317 56.6866 20.0975L56.4624 19.7558ZM55.5146 20.4589C55.2849 20.6585 55.1039 20.737 54.9675 20.7442C54.8446 20.7507 54.7215 20.7009 54.5924 20.5461L54.2785 20.8077C54.4687 21.0359 54.7075 21.1671 54.9889 21.1523C55.2569 21.1382 55.5228 20.9932 55.7827 20.7672L55.5146 20.4589ZM54.594 20.5479L53.2691 18.9197L52.9521 19.1777L54.277 20.8058L54.594 20.5479ZM53.2689 18.9195C53.1324 18.7522 53.0978 18.6071 53.1237 18.4727C53.1514 18.3285 53.2564 18.1558 53.4841 17.9578L53.216 17.6494C52.9542 17.8771 52.7745 18.1247 52.7224 18.3956C52.6684 18.6762 52.7589 18.9408 52.9523 19.1779L53.2689 18.9195ZM53.4855 17.9566C53.8434 17.6396 54.2592 17.362 54.7344 17.1244L54.5516 16.7589C54.0477 17.0108 53.6016 17.3079 53.2146 17.6507L53.4855 17.9566ZM54.7328 17.1252C55.2161 16.8887 55.8615 16.664 56.6737 16.453L56.571 16.0575C55.7444 16.2722 55.0702 16.5051 54.5532 16.7581L54.7328 17.1252ZM56.6761 16.4524C57.4713 16.2355 58.5154 16.1244 59.8149 16.1244V15.7157C58.4964 15.7157 57.4123 15.828 56.5686 16.0581L56.6761 16.4524ZM59.8149 16.1244C61.9995 16.1244 63.6421 16.6286 64.7733 17.607L65.0406 17.2979C63.8093 16.233 62.0572 15.7157 59.8149 15.7157V16.1244ZM64.774 17.6076C65.9089 18.5804 66.4904 20.0223 66.4904 21.9699H66.8991C66.8991 19.9374 66.2887 18.3677 65.0399 17.2973L64.774 17.6076ZM66.4904 21.9699V32.0422H66.8991V21.9699H66.4904ZM66.4904 32.0422C66.4904 32.33 66.4186 32.5083 66.3108 32.6161C66.203 32.7239 66.0247 32.7957 65.737 32.7957V33.2043C66.0877 33.2043 66.3883 33.1165 66.5998 32.905C66.8112 32.6936 66.8991 32.393 66.8991 32.0422H66.4904ZM65.737 32.7957H63.1191V33.2043H65.737V32.7957ZM63.1191 32.7957C62.8692 32.7957 62.7175 32.7272 62.6245 32.6239C62.5278 32.5164 62.4615 32.335 62.4615 32.0422H62.0528C62.0528 32.388 62.1301 32.6854 62.3208 32.8972C62.5151 33.1131 62.7944 33.2043 63.1191 33.2043V32.7957ZM62.4615 32.0422V31.5634H62.0528V32.0422H62.4615ZM62.2571 31.359H62.2252V31.7677H62.2571V31.359ZM62.0833 31.4164C61.4791 32.0001 60.751 32.4316 59.8953 32.7099L60.0217 33.0985C60.9326 32.8022 61.7156 32.3398 62.3672 31.7103L62.0833 31.4164ZM59.8968 32.7095C59.0394 32.9813 58.2571 33.1149 57.5482 33.1149V33.5236C58.3078 33.5236 59.1324 33.3805 60.0203 33.099L59.8968 32.7095ZM57.5482 33.1149C55.8338 33.1149 54.5672 32.6969 53.7135 31.8935L53.4335 32.191C54.3889 33.0903 55.7721 33.5236 57.5482 33.5236V33.1149ZM53.7145 31.8943C52.8578 31.078 52.421 29.9649 52.421 28.5305H52.0124C52.0124 30.0544 52.4801 31.2826 53.4325 32.1902L53.7145 31.8943ZM56.7373 28.4347C56.7373 28.8347 56.8174 29.1938 56.9852 29.5053L57.345 29.3116C57.2148 29.0697 57.1459 28.7796 57.1459 28.4347H56.7373ZM56.9868 29.5083C57.1615 29.8203 57.4348 30.046 57.7915 30.1887L57.9433 29.8093C57.6616 29.6966 57.4666 29.5287 57.3434 29.3086L56.9868 29.5083ZM57.7915 30.1887C58.1382 30.3274 58.5209 30.3949 58.9369 30.3949V29.9863C58.5654 29.9863 58.2352 29.9261 57.9433 29.8093L57.7915 30.1887ZM58.9369 30.3949C59.4986 30.3949 60.0447 30.3178 60.5744 30.1633L60.46 29.771C59.9682 29.9144 59.4607 29.9863 58.9369 29.9863V30.3949ZM60.5744 30.1633C61.1258 30.0024 61.7215 29.6299 62.3603 29.0669L62.0901 28.7603C61.4732 29.304 60.9302 29.6338 60.46 29.771L60.5744 30.1633ZM62.4295 28.9136V25.4497H62.0209V28.9136H62.4295ZM62.2023 25.2467C60.4175 25.4485 59.1835 25.7116 58.5385 26.0511L58.7288 26.4127C59.2969 26.1137 60.4573 25.8553 62.2482 25.6527L62.2023 25.2467ZM58.5385 26.0511C57.9196 26.3768 57.4549 26.723 57.1637 27.0958L57.4857 27.3473C57.7266 27.0391 58.1345 26.7255 58.7288 26.4127L58.5385 26.0511ZM57.1612 27.099C56.8767 27.4784 56.7373 27.9269 56.7373 28.4347H57.1459C57.1459 28.006 57.262 27.6457 57.4882 27.3441L57.1612 27.099ZM79.2254 19.4318V19.2275H79.021V19.4318H79.2254ZM74.7558 19.4318H74.9602V19.2275H74.7558V19.4318ZM70.3182 19.2275C70.0223 19.2275 69.8384 19.1651 69.7307 19.0753C69.6302 18.9915 69.5648 18.8574 69.5648 18.6337H69.1562C69.1562 18.942 69.2504 19.207 69.4691 19.3892C69.6807 19.5655 69.9757 19.6361 70.3182 19.6361V19.2275ZM69.5648 18.6337V17.0374H69.1562V18.6337H69.5648ZM69.5648 17.0374C69.5648 16.8137 69.6302 16.6796 69.7307 16.5958C69.8384 16.506 70.0223 16.4436 70.3182 16.4436V16.035C69.9757 16.035 69.6807 16.1056 69.4691 16.2819C69.2504 16.4641 69.1562 16.7291 69.1562 17.0374H69.5648ZM70.3182 16.4436H83.663V16.035H70.3182V16.4436ZM83.663 16.4436C83.9589 16.4436 84.1428 16.506 84.2505 16.5958C84.351 16.6796 84.4164 16.8137 84.4164 17.0374H84.825C84.825 16.7291 84.7308 16.4641 84.5121 16.2819C84.3005 16.1056 84.0056 16.035 83.663 16.035V16.4436ZM84.4164 17.0374V18.6337H84.825V17.0374H84.4164ZM84.4164 18.6337C84.4164 18.8574 84.351 18.9915 84.2505 19.0753C84.1428 19.1651 83.9589 19.2275 83.663 19.2275V19.6361C84.0056 19.6361 84.3005 19.5655 84.5121 19.3892C84.7308 19.207 84.825 18.942 84.825 18.6337H84.4164ZM83.663 19.2275H79.2254V19.6361H83.663V19.2275ZM79.021 19.4318V32.0422H79.4297V19.4318H79.021ZM79.021 32.0422C79.021 32.33 78.9492 32.5083 78.8414 32.6161C78.7337 32.7239 78.5554 32.7957 78.2676 32.7957V33.2043C78.6184 33.2043 78.9189 33.1165 79.1304 32.905C79.3419 32.6936 79.4297 32.393 79.4297 32.0422H79.021ZM78.2676 32.7957H75.7136V33.2043H78.2676V32.7957ZM75.7136 32.7957C75.4258 32.7957 75.2476 32.7239 75.1398 32.6161C75.032 32.5083 74.9602 32.33 74.9602 32.0422H74.5515C74.5515 32.393 74.6393 32.6936 74.8508 32.905C75.0623 33.1165 75.3629 33.2043 75.7136 33.2043V32.7957ZM74.9602 32.0422V19.4318H74.5515V32.0422H74.9602ZM74.7558 19.2275H70.3182V19.6361H74.7558V19.2275ZM91.6762 26.5032L91.4729 26.4829L91.4504 26.7076H91.6762V26.5032ZM91.74 26.5032V26.7076H91.8653L91.9221 26.5959L91.74 26.5032ZM96.433 17.2769L96.6151 17.3695L96.6152 17.3694L96.433 17.2769ZM97.8697 22.7361L98.0729 22.7569L98.096 22.5317H97.8697V22.7361ZM97.8058 22.7361V22.5317H97.6805L97.6237 22.6434L97.8058 22.7361ZM93.1128 31.9624L92.9307 31.8698L92.9306 31.8699L93.1128 31.9624ZM88.0846 32.7957C87.8542 32.7957 87.7158 32.7295 87.6297 32.6282C87.5382 32.5206 87.4748 32.3374 87.4748 32.0422H87.0662C87.0662 32.3856 87.1384 32.6812 87.3183 32.8929C87.5037 33.1109 87.7723 33.2043 88.0846 33.2043V32.7957ZM87.4748 32.0422V17.197H87.0662V32.0422H87.4748ZM87.4748 17.197C87.4748 16.9093 87.5466 16.731 87.6544 16.6232C87.7622 16.5154 87.9405 16.4436 88.2283 16.4436V16.035C87.8775 16.035 87.5769 16.1228 87.3655 16.3343C87.154 16.5457 87.0662 16.8463 87.0662 17.197H87.4748ZM88.2283 16.4436H90.7823V16.035H88.2283V16.4436ZM90.7823 16.4436C91.07 16.4436 91.2483 16.5154 91.3561 16.6232C91.4639 16.731 91.5357 16.9093 91.5357 17.197H91.9443C91.9443 16.8463 91.8565 16.5457 91.6451 16.3343C91.4336 16.1228 91.133 16.035 90.7823 16.035V16.4436ZM91.5357 17.197V25.2262H91.9443V17.197H91.5357ZM91.5357 25.2262C91.5357 25.6451 91.5148 26.064 91.4729 26.4829L91.8795 26.5236C91.9227 26.0912 91.9443 25.6587 91.9443 25.2262H91.5357ZM91.6762 26.7076H91.74V26.2989H91.6762V26.7076ZM91.9221 26.5959L96.6151 17.3695L96.2509 17.1842L91.5579 26.4106L91.9221 26.5959ZM96.6152 17.3694C96.7769 17.0508 96.9808 16.8223 97.223 16.6724C97.465 16.5226 97.7576 16.4436 98.1091 16.4436V16.035C97.6944 16.035 97.3246 16.1289 97.0079 16.325C96.6913 16.5209 96.4403 16.8112 96.2508 17.1844L96.6152 17.3694ZM98.1091 16.4436H101.318V16.035H98.1091V16.4436ZM101.318 16.4436C101.605 16.4436 101.784 16.5154 101.891 16.6232C101.999 16.731 102.071 16.9093 102.071 17.197H102.48C102.48 16.8463 102.392 16.5457 102.18 16.3343C101.969 16.1228 101.668 16.035 101.318 16.035V16.4436ZM102.071 17.197V32.0422H102.48V17.197H102.071ZM102.071 32.0422C102.071 32.33 101.999 32.5083 101.891 32.6161C101.784 32.7239 101.605 32.7957 101.318 32.7957V33.2043C101.668 33.2043 101.969 33.1165 102.18 32.905C102.392 32.6936 102.48 32.393 102.48 32.0422H102.071ZM101.318 32.7957H98.7636V33.2043H101.318V32.7957ZM98.7636 32.7957C98.4758 32.7957 98.2975 32.7239 98.1897 32.6161C98.0819 32.5083 98.0101 32.33 98.0101 32.0422H97.6015C97.6015 32.393 97.6893 32.6936 97.9008 32.905C98.1122 33.1165 98.4128 33.2043 98.7636 33.2043V32.7957ZM98.0101 32.0422V24.0131H97.6015V32.0422H98.0101ZM98.0101 24.0131C98.0101 23.5834 98.0311 23.1647 98.0729 22.7569L97.6664 22.7152C97.6231 23.1375 97.6015 23.5701 97.6015 24.0131H98.0101ZM97.8697 22.5317H97.8058V22.9404H97.8697V22.5317ZM97.6237 22.6434L92.9307 31.8698L93.2949 32.0551L97.9879 22.8287L97.6237 22.6434ZM92.9306 31.8699C92.7689 32.1885 92.565 32.417 92.3229 32.5669C92.0809 32.7167 91.7883 32.7957 91.4367 32.7957V33.2043C91.8514 33.2043 92.2213 33.1104 92.538 32.9143C92.8545 32.7184 93.1055 32.4281 93.295 32.0549L92.9306 31.8699ZM91.4367 32.7957H88.0846V33.2043H91.4367V32.7957ZM107.814 18.2346L107.663 18.0971L107.663 18.0976L107.814 18.2346ZM120.313 18.2346L120.161 18.3716L120.162 18.3722L120.313 18.2346ZM120.313 31.0047L120.162 30.8671L120.161 30.8677L120.313 31.0047ZM107.814 31.0047L107.663 31.1417L107.663 31.1422L107.814 31.0047ZM111.374 28.9295L111.209 29.0495L111.21 29.0518L111.374 28.9295ZM116.753 28.9295L116.589 28.8083L116.589 28.8086L116.753 28.9295ZM116.753 20.3257L116.588 20.4457L116.59 20.448L116.753 20.3257ZM111.374 20.3257L111.21 20.2044L111.209 20.2048L111.374 20.3257ZM105.928 24.6196C105.928 21.9408 106.615 19.8668 107.966 18.3716L107.663 18.0976C106.225 19.6885 105.519 21.8712 105.519 24.6196H105.928ZM107.965 18.3722C109.32 16.8843 111.343 16.1244 114.072 16.1244V15.7157C111.267 15.7157 109.118 16.4988 107.663 18.0971L107.965 18.3722ZM114.072 16.1244C116.801 16.1244 118.818 16.8843 120.161 18.3716L120.465 18.0976C119.02 16.4988 116.876 15.7157 114.072 15.7157V16.1244ZM120.162 18.3722C121.523 19.8674 122.216 21.9412 122.216 24.6196H122.624C122.624 21.8708 121.912 19.6879 120.464 18.0971L120.162 18.3722ZM122.216 24.6196C122.216 27.2981 121.523 29.3719 120.162 30.8671L120.464 31.1422C121.912 29.5514 122.624 27.3685 122.624 24.6196H122.216ZM120.161 30.8677C118.818 32.355 116.801 33.1149 114.072 33.1149V33.5236C116.876 33.5236 119.02 32.7405 120.465 31.1416L120.161 30.8677ZM114.072 33.1149C111.343 33.1149 109.32 32.355 107.965 30.8671L107.663 31.1422C109.118 32.7405 111.267 33.5236 114.072 33.5236V33.1149ZM107.966 30.8677C106.615 29.3725 105.928 27.2985 105.928 24.6196H105.519C105.519 27.3681 106.225 29.5508 107.663 31.1416L107.966 30.8677ZM110.244 24.6196C110.244 26.6509 110.552 28.1434 111.209 29.0495L111.539 28.8096C110.962 28.0131 110.652 26.6323 110.652 24.6196H110.244ZM111.21 29.0518C111.882 29.9506 112.845 30.3949 114.072 30.3949V29.9863C112.957 29.9863 112.122 29.5898 111.538 28.8073L111.21 29.0518ZM114.072 30.3949C115.298 30.3949 116.257 29.9506 116.918 29.0505L116.589 28.8086C116.015 29.5899 115.186 29.9863 114.072 29.9863V30.3949ZM116.918 29.0508C117.586 28.1444 117.899 26.6513 117.899 24.6196H117.491C117.491 26.6319 117.176 28.012 116.589 28.8083L116.918 29.0508ZM117.899 24.6196C117.899 22.5884 117.586 21.0997 116.917 20.2035L116.59 20.448C117.176 21.2331 117.491 22.607 117.491 24.6196H117.899ZM116.919 20.2058C116.258 19.2949 115.299 18.8444 114.072 18.8444V19.253C115.185 19.253 116.014 19.6539 116.588 20.4456L116.919 20.2058ZM114.072 18.8444C112.844 18.8444 111.88 19.2948 111.21 20.2044L111.538 20.447C112.123 19.654 112.958 19.253 114.072 19.253V18.8444ZM111.209 20.2048C110.551 21.1008 110.244 22.5888 110.244 24.6196H110.652C110.652 22.6066 110.962 21.232 111.539 20.4466L111.209 20.2048ZM130.338 22.6562H130.133V22.8606H130.338V22.6562ZM136.084 22.6562V22.8606H136.288V22.6562H136.084ZM136.084 25.8488H136.288V25.6444H136.084V25.8488ZM130.338 25.8488V25.6444H130.133V25.8488H130.338ZM126.826 32.7957C126.538 32.7957 126.36 32.7239 126.252 32.6161C126.144 32.5083 126.072 32.33 126.072 32.0422H125.664C125.664 32.393 125.752 32.6936 125.963 32.905C126.174 33.1165 126.475 33.2043 126.826 33.2043V32.7957ZM126.072 32.0422V17.197H125.664V32.0422H126.072ZM126.072 17.197C126.072 16.9093 126.144 16.731 126.252 16.6232C126.36 16.5154 126.538 16.4436 126.826 16.4436V16.035C126.475 16.035 126.174 16.1228 125.963 16.3343C125.752 16.5457 125.664 16.8463 125.664 17.197H126.072ZM126.826 16.4436H129.38V16.035H126.826V16.4436ZM129.38 16.4436C129.668 16.4436 129.846 16.5154 129.954 16.6232C130.061 16.731 130.133 16.9093 130.133 17.197H130.542C130.542 16.8463 130.454 16.5457 130.243 16.3343C130.031 16.1228 129.731 16.035 129.38 16.035V16.4436ZM130.133 17.197V22.6562H130.542V17.197H130.133ZM130.338 22.8606H136.084V22.4519H130.338V22.8606ZM136.288 22.6562V17.197H135.88V22.6562H136.288ZM136.288 17.197C136.288 16.9093 136.36 16.731 136.468 16.6232C136.576 16.5154 136.754 16.4436 137.042 16.4436V16.035C136.691 16.035 136.39 16.1228 136.179 16.3343C135.968 16.5457 135.88 16.8463 135.88 17.197H136.288ZM137.042 16.4436H139.596V16.035H137.042V16.4436ZM139.596 16.4436C139.884 16.4436 140.062 16.5154 140.17 16.6232C140.277 16.731 140.349 16.9093 140.349 17.197H140.758C140.758 16.8463 140.67 16.5457 140.459 16.3343C140.247 16.1228 139.947 16.035 139.596 16.035V16.4436ZM140.349 17.197V32.0422H140.758V17.197H140.349ZM140.349 32.0422C140.349 32.33 140.277 32.5083 140.17 32.6161C140.062 32.7239 139.884 32.7957 139.596 32.7957V33.2043C139.947 33.2043 140.247 33.1165 140.459 32.905C140.67 32.6936 140.758 32.393 140.758 32.0422H140.349ZM139.596 32.7957H137.042V33.2043H139.596V32.7957ZM137.042 32.7957C136.754 32.7957 136.576 32.7239 136.468 32.6161C136.36 32.5083 136.288 32.33 136.288 32.0422H135.88C135.88 32.393 135.968 32.6936 136.179 32.905C136.39 33.1165 136.691 33.2043 137.042 33.2043V32.7957ZM136.288 32.0422V25.8488H135.88V32.0422H136.288ZM136.084 25.6444H130.338V26.0531H136.084V25.6444ZM130.133 25.8488V32.0422H130.542V25.8488H130.133ZM130.133 32.0422C130.133 32.33 130.061 32.5083 129.954 32.6161C129.846 32.7239 129.668 32.7957 129.38 32.7957V33.2043C129.731 33.2043 130.031 33.1165 130.243 32.905C130.454 32.6936 130.542 32.393 130.542 32.0422H130.133ZM129.38 32.7957H126.826V33.2043H129.38V32.7957ZM146.093 18.2346L145.942 18.0971L145.941 18.0976L146.093 18.2346ZM158.591 18.2346L158.44 18.3716L158.44 18.3722L158.591 18.2346ZM158.591 31.0047L158.44 30.8671L158.44 30.8677L158.591 31.0047ZM146.093 31.0047L145.941 31.1417L145.942 31.1422L146.093 31.0047ZM149.652 28.9295L149.487 29.0495L149.489 29.0518L149.652 28.9295ZM155.032 28.9295L154.867 28.8083L154.867 28.8086L155.032 28.9295ZM155.032 20.3257L154.866 20.4457L154.868 20.448L155.032 20.3257ZM149.652 20.3257L149.488 20.2044L149.488 20.2048L149.652 20.3257ZM144.206 24.6196C144.206 21.9408 144.893 19.8668 146.244 18.3716L145.941 18.0976C144.504 19.6885 143.797 21.8712 143.797 24.6196H144.206ZM146.244 18.3722C147.598 16.8843 149.621 16.1244 152.35 16.1244V15.7157C149.545 15.7157 147.396 16.4988 145.942 18.0971L146.244 18.3722ZM152.35 16.1244C155.079 16.1244 157.096 16.8843 158.44 18.3716L158.743 18.0976C157.298 16.4988 155.155 15.7157 152.35 15.7157V16.1244ZM158.44 18.3722C159.801 19.8674 160.494 21.9412 160.494 24.6196H160.903C160.903 21.8708 160.191 19.6879 158.742 18.0971L158.44 18.3722ZM160.494 24.6196C160.494 27.2981 159.801 29.3719 158.44 30.8671L158.742 31.1422C160.191 29.5514 160.903 27.3685 160.903 24.6196H160.494ZM158.44 30.8677C157.096 32.355 155.079 33.1149 152.35 33.1149V33.5236C155.155 33.5236 157.298 32.7405 158.743 31.1416L158.44 30.8677ZM152.35 33.1149C149.621 33.1149 147.598 32.355 146.244 30.8671L145.942 31.1422C147.396 32.7405 149.545 33.5236 152.35 33.5236V33.1149ZM146.244 30.8677C144.893 29.3725 144.206 27.2985 144.206 24.6196H143.797C143.797 27.3681 144.504 29.5508 145.941 31.1416L146.244 30.8677ZM148.522 24.6196C148.522 26.6509 148.83 28.1434 149.487 29.0495L149.818 28.8096C149.24 28.0131 148.931 26.6323 148.931 24.6196H148.522ZM149.489 29.0518C150.16 29.9506 151.123 30.3949 152.35 30.3949V29.9863C151.235 29.9863 150.4 29.5898 149.816 28.8073L149.489 29.0518ZM152.35 30.3949C153.576 30.3949 154.536 29.9506 155.196 29.0505L154.867 28.8086C154.293 29.5899 153.465 29.9863 152.35 29.9863V30.3949ZM155.196 29.0508C155.865 28.1444 156.178 26.6513 156.178 24.6196H155.769C155.769 26.6319 155.454 28.012 154.867 28.8083L155.196 29.0508ZM156.178 24.6196C156.178 22.5884 155.865 21.0997 155.195 20.2035L154.868 20.448C155.454 21.2331 155.769 22.607 155.769 24.6196H156.178ZM155.197 20.2058C154.537 19.2949 153.577 18.8444 152.35 18.8444V19.253C153.464 19.253 154.292 19.6539 154.866 20.4456L155.197 20.2058ZM152.35 18.8444C151.122 18.8444 150.159 19.2948 149.488 20.2044L149.817 20.447C150.402 19.654 151.236 19.253 152.35 19.253V18.8444ZM149.488 20.2048C148.83 21.1008 148.522 22.5888 148.522 24.6196H148.931C148.931 22.6066 149.24 21.232 149.817 20.4466L149.488 20.2048ZM168.488 17.197L168.284 17.2106L168.284 17.2111L168.488 17.197ZM168.552 18.1229L168.348 18.1369L168.361 18.3272H168.552V18.1229ZM168.616 18.1229V18.3272H168.731L168.791 18.2286L168.616 18.1229ZM178.193 18.5219L178.017 18.6248L178.018 18.6261L178.193 18.5219ZM178.193 30.7333L178.017 30.6296L178.017 30.63L178.193 30.7333ZM168.616 31.1164L168.791 31.0107L168.731 30.9121H168.616V31.1164ZM168.552 31.1164V30.9121H168.326L168.349 31.1367L168.552 31.1164ZM169.462 28.8497L169.288 28.9578L169.29 28.9602L169.462 28.8497ZM174.33 28.6901L174.144 28.6075L174.143 28.6084L174.33 28.6901ZM174.33 20.5652L174.143 20.6461L174.144 20.6485L174.33 20.5652ZM169.462 20.4055L169.289 20.296L169.289 20.2965L169.462 20.4055ZM165.104 39.1807C164.816 39.1807 164.638 39.1089 164.53 39.0011C164.422 38.8933 164.351 38.715 164.351 38.4273H163.942C163.942 38.778 164.03 39.0786 164.241 39.2901C164.453 39.5015 164.753 39.5894 165.104 39.5894V39.1807ZM164.351 38.4273V17.197H163.942V38.4273H164.351ZM164.351 17.197C164.351 16.9093 164.422 16.731 164.53 16.6232C164.638 16.5154 164.816 16.4436 165.104 16.4436V16.035C164.753 16.035 164.453 16.1228 164.241 16.3343C164.03 16.5457 163.942 16.8463 163.942 17.197H164.351ZM165.104 16.4436H167.626V16.035H165.104V16.4436ZM167.626 16.4436C167.849 16.4436 167.993 16.5088 168.089 16.6154C168.19 16.7279 168.265 16.9156 168.284 17.2106L168.692 17.1835C168.669 16.84 168.579 16.5488 168.393 16.342C168.201 16.1294 167.935 16.035 167.626 16.035V16.4436ZM168.284 17.2111L168.348 18.1369L168.756 18.1088L168.692 17.183L168.284 17.2111ZM168.552 18.3272H168.616V17.9186H168.552V18.3272ZM168.791 18.2286C169.331 17.3346 169.919 16.7785 170.544 16.5244L170.391 16.1458C169.654 16.4451 169.007 17.0808 168.441 18.0172L168.791 18.2286ZM170.544 16.5244C171.195 16.2601 171.987 16.1244 172.926 16.1244V15.7157C171.949 15.7157 171.102 15.8567 170.391 16.1458L170.544 16.5244ZM172.926 16.1244C175.375 16.1244 177.052 16.9691 178.017 18.6248L178.37 18.4191C177.313 16.6056 175.478 15.7157 172.926 15.7157V16.1244ZM178.018 18.6261C179.018 20.3136 179.521 22.3089 179.521 24.6196H179.93C179.93 22.2481 179.412 20.1782 178.369 18.4178L178.018 18.6261ZM179.521 24.6196C179.521 26.9304 179.018 28.9313 178.017 30.6296L178.369 30.837C179.412 29.0662 179.93 26.9913 179.93 24.6196H179.521ZM178.017 30.63C177.052 32.2751 175.375 33.1149 172.926 33.1149V33.5236C175.478 33.5236 177.312 32.6395 178.37 30.8367L178.017 30.63ZM172.926 33.1149C171.987 33.1149 171.195 32.9792 170.544 32.7149L170.391 33.0935C171.102 33.3826 171.949 33.5236 172.926 33.5236V33.1149ZM170.544 32.7149C169.919 32.4608 169.331 31.9047 168.791 31.0107L168.441 31.2221C169.007 32.1585 169.654 32.7942 170.391 33.0935L170.544 32.7149ZM168.616 30.9121H168.552V31.3207H168.616V30.9121ZM168.349 31.1367C168.391 31.5557 168.411 31.9746 168.411 32.3934H168.82C168.82 31.9609 168.799 31.5285 168.755 31.0961L168.349 31.1367ZM168.411 32.3934V38.4273H168.82V32.3934H168.411ZM168.411 38.4273C168.411 38.715 168.34 38.8933 168.232 39.0011C168.124 39.1089 167.946 39.1807 167.658 39.1807V39.5894C168.009 39.5894 168.309 39.5015 168.521 39.2901C168.732 39.0786 168.82 38.778 168.82 38.4273H168.411ZM167.658 39.1807H165.104V39.5894H167.658V39.1807ZM168.411 25.338C168.411 26.7999 168.698 28.0114 169.288 28.9578L169.635 28.7416C169.097 27.8789 168.82 26.7493 168.82 25.338H168.411ZM169.29 28.9602C169.888 29.891 170.631 30.3949 171.521 30.3949V29.9863C170.815 29.9863 170.185 29.5963 169.634 28.7392L169.29 28.9602ZM171.521 30.3949C172.262 30.3949 172.891 30.2662 173.397 29.9957C173.907 29.7233 174.282 29.3128 174.518 28.7718L174.143 28.6084C173.943 29.0677 173.631 29.4075 173.205 29.6352C172.775 29.8649 172.217 29.9863 171.521 29.9863V30.3949ZM174.517 28.7727C174.98 27.7255 175.205 26.337 175.205 24.6196H174.797C174.797 26.3077 174.574 27.6328 174.144 28.6075L174.517 28.7727ZM175.205 24.6196C175.205 22.9025 174.98 21.5188 174.517 20.4818L174.144 20.6485C174.574 21.6121 174.797 22.9314 174.797 24.6196H175.205ZM174.518 20.4842C174.282 19.9381 173.908 19.5234 173.398 19.248C172.891 18.9745 172.262 18.8444 171.521 18.8444V19.253C172.217 19.253 172.774 19.3756 173.204 19.6076C173.63 19.8377 173.942 20.1812 174.143 20.6461L174.518 20.4842ZM171.521 18.8444C170.63 18.8444 169.887 19.355 169.289 20.296L169.634 20.5151C170.186 19.647 170.816 19.253 171.521 19.253V18.8444ZM169.289 20.2965C168.698 21.2328 168.411 22.4395 168.411 23.9013H168.82C168.82 22.4899 169.097 21.3661 169.635 20.5146L169.289 20.2965ZM168.411 23.9013V25.338H168.82V23.9013H168.411ZM189.782 17.2769L189.979 17.2207L189.978 17.2195L189.782 17.2769ZM192.48 26.7107L192.676 26.6546L192.676 26.6546L192.48 26.7107ZM192.783 28.0356L192.582 28.0733L192.583 28.0782L192.783 28.0356ZM192.943 29.2488H192.738V29.4531H192.943V29.2488ZM193.007 29.2488V29.4531H193.211V29.2488H193.007ZM193.15 28.0356L192.95 27.994L192.95 27.9972L193.15 28.0356ZM193.47 26.7107L193.273 26.6546L193.273 26.6546L193.47 26.7107ZM196.167 17.2769L195.971 17.2195L195.971 17.2207L196.167 17.2769ZM198.37 22.7041L198.573 22.725L198.596 22.4998H198.37V22.7041ZM198.306 22.7041V22.4998H198.154L198.11 22.6461L198.306 22.7041ZM195.545 32.0263L195.349 31.9682L195.349 31.9685L195.545 32.0263ZM190.405 32.0263L190.601 31.9685L190.601 31.9682L190.405 32.0263ZM187.643 22.7041L187.839 22.6461L187.796 22.4998H187.643V22.7041ZM187.579 22.7041V22.4998H187.353L187.376 22.725L187.579 22.7041ZM184.131 32.7957C183.844 32.7957 183.665 32.7239 183.558 32.6161C183.45 32.5083 183.378 32.33 183.378 32.0422H182.969C182.969 32.393 183.057 32.6936 183.269 32.905C183.48 33.1165 183.781 33.2043 184.131 33.2043V32.7957ZM183.378 32.0422V17.197H182.969V32.0422H183.378ZM183.378 17.197C183.378 16.9093 183.45 16.731 183.558 16.6232C183.665 16.5154 183.844 16.4436 184.131 16.4436V16.035C183.781 16.035 183.48 16.1228 183.269 16.3343C183.057 16.5457 182.969 16.8463 182.969 17.197H183.378ZM184.131 16.4436H188.425V16.035H184.131V16.4436ZM188.425 16.4436C188.742 16.4436 188.984 16.5212 189.167 16.661C189.351 16.8012 189.494 17.0189 189.586 17.3342L189.978 17.2195C189.868 16.8431 189.684 16.542 189.415 16.3364C189.146 16.1303 188.811 16.035 188.425 16.035V16.4436ZM189.586 17.333L192.283 26.7669L192.676 26.6546L189.979 17.2207L189.586 17.333ZM192.283 26.7669C192.388 27.1316 192.487 27.5668 192.582 28.0733L192.984 27.998C192.887 27.4829 192.785 27.0348 192.676 26.6546L192.283 26.7669ZM192.583 28.0782C192.688 28.5722 192.738 28.9607 192.738 29.2488H193.147C193.147 28.9197 193.091 28.4994 192.983 27.9931L192.583 28.0782ZM192.943 29.4531H193.007V29.0445H192.943V29.4531ZM193.211 29.2488C193.211 28.9587 193.256 28.5686 193.351 28.0741L192.95 27.9972C192.853 28.503 192.802 28.9217 192.802 29.2488H193.211ZM193.35 28.0773C193.456 27.5698 193.561 27.1333 193.666 26.7669L193.273 26.6546C193.165 27.0332 193.057 27.4798 192.95 27.994L193.35 28.0773ZM193.666 26.7669L196.364 17.333L195.971 17.2207L193.273 26.6546L193.666 26.7669ZM196.363 17.3342C196.455 17.0189 196.599 16.8012 196.782 16.661C196.965 16.5212 197.207 16.4436 197.524 16.4436V16.035C197.139 16.035 196.803 16.1303 196.534 16.3364C196.265 16.542 196.081 16.8431 195.971 17.2195L196.363 17.3342ZM197.524 16.4436H201.818V16.035H197.524V16.4436ZM201.818 16.4436C202.106 16.4436 202.284 16.5154 202.392 16.6232C202.5 16.731 202.571 16.9093 202.571 17.197H202.98C202.98 16.8463 202.892 16.5457 202.681 16.3343C202.469 16.1228 202.169 16.035 201.818 16.035V16.4436ZM202.571 17.197V32.0422H202.98V17.197H202.571ZM202.571 32.0422C202.571 32.33 202.5 32.5083 202.392 32.6161C202.284 32.7239 202.106 32.7957 201.818 32.7957V33.2043C202.169 33.2043 202.469 33.1165 202.681 32.905C202.892 32.6936 202.98 32.393 202.98 32.0422H202.571ZM201.818 32.7957H199.264V33.2043H201.818V32.7957ZM199.264 32.7957C198.976 32.7957 198.798 32.7239 198.69 32.6161C198.582 32.5083 198.511 32.33 198.511 32.0422H198.102C198.102 32.393 198.19 32.6936 198.401 32.905C198.613 33.1165 198.913 33.2043 199.264 33.2043V32.7957ZM198.511 32.0422V23.9811H198.102V32.0422H198.511ZM198.511 23.9811C198.511 23.5515 198.531 23.1328 198.573 22.725L198.167 22.6833C198.123 23.1056 198.102 23.5382 198.102 23.9811H198.511ZM198.37 22.4998H198.306V22.9085H198.37V22.4998ZM198.11 22.6461L195.349 31.9682L195.741 32.0843L198.502 22.7622L198.11 22.6461ZM195.349 31.9685C195.257 32.2788 195.148 32.4903 195.033 32.6211C194.922 32.746 194.808 32.7957 194.683 32.7957V33.2043C194.941 33.2043 195.162 33.0917 195.339 32.892C195.51 32.6982 195.641 32.4229 195.741 32.0841L195.349 31.9685ZM194.683 32.7957H191.267V33.2043H194.683V32.7957ZM191.267 32.7957C191.142 32.7957 191.027 32.746 190.917 32.6211C190.801 32.4903 190.692 32.2788 190.601 31.9685L190.209 32.0841C190.309 32.4229 190.439 32.6982 190.611 32.892C190.788 33.0917 191.009 33.2043 191.267 33.2043V32.7957ZM190.601 31.9682L187.839 22.6461L187.447 22.7622L190.209 32.0843L190.601 31.9682ZM187.643 22.4998H187.579V22.9085H187.643V22.4998ZM187.376 22.725C187.418 23.1328 187.439 23.5515 187.439 23.9811H187.848C187.848 23.5382 187.826 23.1056 187.783 22.6833L187.376 22.725ZM187.439 23.9811V32.0422H187.848V23.9811H187.439ZM187.439 32.0422C187.439 32.33 187.367 32.5083 187.259 32.6161C187.151 32.7239 186.973 32.7957 186.685 32.7957V33.2043C187.036 33.2043 187.337 33.1165 187.548 32.905C187.76 32.6936 187.848 32.393 187.848 32.0422H187.439ZM186.685 32.7957H184.131V33.2043H186.685V32.7957Z" fill="white"/>
<rect y="9.80762" width="22.884" height="22.884" fill="#E1B31F"/>
</svg>
