<svg width="205" height="47" viewBox="0 0 205 47" fill="none" xmlns="http://www.w3.org/2000/svg">
<path d="M33.0311 12.5352C34.4477 10.8571 36.9649 10.018 40.5828 10.018C44.2006 10.018 46.7179 10.8571 48.1345 12.5352C49.5511 14.1916 50.2594 17.2537 50.2594 21.7215C50.2594 26.1893 49.5511 29.2623 48.1345 30.9404C46.7179 32.5968 44.2006 33.425 40.5828 33.425C36.9649 33.425 34.4477 32.5968 33.0311 30.9404C31.6363 29.2623 30.9388 26.1893 30.9388 21.7215C30.9388 17.2537 31.6363 14.1916 33.0311 12.5352ZM44.0481 15.6409C43.4378 14.573 42.2827 14.039 40.5828 14.039C38.8828 14.039 37.7168 14.573 37.0848 15.6409C36.4746 16.7088 36.1695 18.7357 36.1695 21.7215C36.1695 24.7073 36.4746 26.7342 37.0848 27.8021C37.7168 28.87 38.8828 29.404 40.5828 29.404C42.2827 29.404 43.4378 28.87 44.0481 27.8021C44.6801 26.7342 44.9961 24.7073 44.9961 21.7215C44.9961 18.7357 44.6801 16.7088 44.0481 15.6409ZM63.2246 24.5329V24.6637C63.8784 24.7509 64.4124 24.849 64.8265 24.9579C65.2406 25.0451 65.6438 25.2412 66.0361 25.5464C66.4284 25.8515 66.7226 26.1348 66.9187 26.3963C67.1367 26.6579 67.4091 27.17 67.736 27.9328C68.0629 28.6738 68.3245 29.3604 68.5206 29.9924C68.7386 30.6244 69.0655 31.627 69.5014 33H64.4669C63.5079 29.9488 62.7996 28.0745 62.342 27.3771C61.8843 26.6797 61.0779 26.331 59.9228 26.331H58.4517C58.5607 26.8758 58.6151 27.3335 58.6151 27.704V33H53.8095V16.8832H58.6151V21.0023C58.6151 21.6561 58.5498 22.3099 58.419 22.9638H59.6286C60.8708 22.9638 61.7317 22.615 62.2112 21.9176C62.6907 21.1984 63.3118 19.5203 64.0746 16.8832H68.9783C67.9758 19.9126 67.3001 21.7433 66.9514 22.3753C66.4284 23.3343 65.6547 23.9554 64.6304 24.2387C64.2598 24.3477 63.7913 24.4458 63.2246 24.5329ZM88.3464 16.8832L82.6254 33.2288C81.7754 35.8877 80.3043 37.7511 78.2121 38.8191C76.5993 39.7344 74.3981 39.9524 71.6084 39.4729L72.0007 36.2691C73.984 36.3345 75.3897 36.1166 76.2179 35.6153C77.0679 35.114 77.7435 34.2423 78.2448 33H77.3294C76.5012 33 75.9673 32.6077 75.7275 31.8231L70.4969 16.8832H75.6295L78.6371 27.3117C78.8986 28.3142 79.073 29.1206 79.1601 29.7309H79.5524C79.9011 28.4886 80.1191 27.6822 80.2063 27.3117L83.1812 16.8832H88.3464ZM104.837 20.61H99.4755V33H94.7026V20.61H89.3412V16.8832H104.837V20.61ZM123.199 33.0327H118.884V24.5983C118.884 23.9663 118.939 23.1054 119.048 22.0157H118.917C118.677 22.8003 118.274 23.5958 117.707 24.4022L111.627 33H107.508V16.8832H111.79V25.481C111.79 26.0912 111.736 26.8867 111.627 27.8675H111.725C112.008 27.1482 112.411 26.4181 112.934 25.6771L119.08 16.8832H123.199V33.0327ZM127.725 20.4792L127.3 17.2101C130.199 16.687 132.989 16.4255 135.669 16.4255C137.849 16.4255 139.451 16.8723 140.475 17.7658C141.521 18.6376 142.044 20.1632 142.044 22.3426V33H138.219L137.729 30.5481C136.116 32.4442 134.122 33.3923 131.746 33.3923C130.199 33.3923 128.935 32.9891 127.954 32.1827C126.995 31.3545 126.516 30.2103 126.516 28.7501V27.1156C126.516 25.8297 126.952 24.8272 127.824 24.1079C128.695 23.3887 129.905 23.0291 131.452 23.0291H137.206V22.3099C137.184 21.5035 136.988 20.9587 136.617 20.6754C136.269 20.3702 135.582 20.2177 134.558 20.2177C132.793 20.2177 130.515 20.3049 127.725 20.4792ZM131.289 27.4752V28.0963C131.289 29.2078 131.91 29.7636 133.152 29.7636C134.438 29.7636 135.789 29.2405 137.206 28.1944V25.9387H132.858C131.812 25.9605 131.289 26.4726 131.289 27.4752ZM149.932 16.8832L150.292 19.2369C150.968 18.4305 151.894 17.7658 153.071 17.2428C154.269 16.7197 155.479 16.4582 156.699 16.4582C160.426 16.4582 162.29 19.335 162.29 25.0887C162.29 28.1835 161.788 30.352 160.786 31.5943C159.783 32.8147 158.225 33.425 156.111 33.425C153.932 33.425 152.134 32.9019 150.717 31.8558C150.826 32.9673 150.859 34.1224 150.815 35.3211V39.2114H146.009V16.8832H149.932ZM150.815 21.7869V29.1751C152.515 29.611 153.735 29.8289 154.476 29.8289C155.566 29.8289 156.307 29.5238 156.699 28.9136C157.114 28.3033 157.321 27.0284 157.321 25.0887C157.321 23.1926 157.135 21.9176 156.765 21.2638C156.394 20.5882 155.74 20.2504 154.803 20.2504C153.714 20.2504 152.384 20.7625 150.815 21.7869ZM165.349 20.5446L165.022 17.2101C166.613 16.7306 168.498 16.4909 170.678 16.4909C173.664 16.4909 175.723 16.7742 176.856 17.3408C177.99 17.9075 178.556 19.0844 178.556 20.8715C178.556 22.1138 178.295 23.0291 177.772 23.6176C177.249 24.206 176.366 24.5438 175.124 24.631V24.7618C176.562 24.8707 177.597 25.2739 178.23 25.9714C178.883 26.647 179.21 27.6495 179.21 28.979C179.21 30.7661 178.644 31.9539 177.51 32.5423C176.399 33.109 174.481 33.3923 171.757 33.3923C168.967 33.3923 166.559 33.1744 164.532 32.7385L164.859 29.404C167.213 29.6219 169.392 29.7309 171.397 29.7309C172.552 29.7309 173.315 29.6328 173.685 29.4366C174.056 29.2187 174.241 28.7501 174.241 28.0309C174.241 27.3771 174.045 26.9521 173.653 26.7559C173.282 26.538 172.541 26.4181 171.43 26.3963L166.788 26.331V23.2907L171.397 23.2253C172.356 23.2253 172.999 23.1272 173.326 22.9311C173.675 22.7131 173.849 22.2772 173.849 21.6234C173.849 21.035 173.653 20.6536 173.26 20.4792C172.868 20.3049 172.084 20.2177 170.907 20.2177C168.902 20.2177 167.049 20.3266 165.349 20.5446Z" fill="#00342D"/>
<path d="M33.0311 12.5352L32.875 12.4034L32.8748 12.4036L33.0311 12.5352ZM48.1345 12.5352L47.9784 12.667L47.9792 12.668L48.1345 12.5352ZM48.1345 30.9404L48.2898 31.0732L48.2906 31.0722L48.1345 30.9404ZM33.0311 30.9404L32.8739 31.0711L32.8758 31.0732L33.0311 30.9404ZM44.0481 15.6409L43.8707 15.7423L43.8722 15.745L44.0481 15.6409ZM37.0848 15.6409L36.909 15.5368L36.9074 15.5395L37.0848 15.6409ZM37.0848 27.8021L36.9074 27.9035L36.909 27.9061L37.0848 27.8021ZM44.0481 27.8021L43.8722 27.698L43.8707 27.7007L44.0481 27.8021ZM33.1872 12.667C34.5458 11.0576 36.9871 10.2223 40.5828 10.2223V9.81365C36.9428 9.81365 34.3496 10.6565 32.875 12.4034L33.1872 12.667ZM40.5828 10.2223C44.1785 10.2223 46.6198 11.0576 47.9784 12.667L48.2906 12.4034C46.816 10.6565 44.2228 9.81365 40.5828 9.81365V10.2223ZM47.9792 12.668C49.3445 14.2643 50.0551 17.2595 50.0551 21.7215H50.4638C50.4638 17.2479 49.7578 14.1188 48.2898 12.4024L47.9792 12.668ZM50.0551 21.7215C50.0551 26.183 49.3447 29.1901 47.9784 30.8086L48.2906 31.0722C49.7576 29.3345 50.4638 26.1956 50.4638 21.7215H50.0551ZM47.9792 30.8076C46.6208 32.3959 44.1792 33.2207 40.5828 33.2207V33.6293C44.2221 33.6293 46.8149 32.7977 48.2898 31.0732L47.9792 30.8076ZM40.5828 33.2207C36.9864 33.2207 34.5448 32.3959 33.1864 30.8076L32.8758 31.0732C34.3506 32.7977 36.9435 33.6293 40.5828 33.6293V33.2207ZM33.1882 30.8098C31.8428 29.1911 31.1432 26.1834 31.1432 21.7215H30.7345C30.7345 26.1952 31.4297 29.3334 32.874 31.071L33.1882 30.8098ZM31.1432 21.7215C31.1432 17.2591 31.843 14.2633 33.1874 12.6668L32.8748 12.4036C31.4295 14.1199 30.7345 17.2482 30.7345 21.7215H31.1432ZM44.2255 15.5395C43.5655 14.3846 42.3245 13.8347 40.5828 13.8347V14.2433C42.2409 14.2433 43.3101 14.7613 43.8707 15.7423L44.2255 15.5395ZM40.5828 13.8347C38.8406 13.8347 37.5908 14.3847 36.909 15.5368L37.2606 15.745C37.8428 14.7612 38.9251 14.2433 40.5828 14.2433V13.8347ZM36.9074 15.5395C36.5841 16.1052 36.3504 16.9075 36.1963 17.9316C36.0417 18.9585 35.9651 20.2225 35.9651 21.7215H36.3738C36.3738 20.2346 36.4498 18.9923 36.6003 17.9924C36.7513 16.9895 36.9752 16.2445 37.2622 15.7423L36.9074 15.5395ZM35.9651 21.7215C35.9651 23.2204 36.0417 24.4845 36.1963 25.5114C36.3504 26.5354 36.5841 27.3377 36.9074 27.9034L37.2622 27.7007C36.9752 27.1985 36.7513 26.4534 36.6003 25.4506C36.4498 24.4506 36.3738 23.2084 36.3738 21.7215H35.9651ZM36.909 27.9061C37.5908 29.0583 38.8406 29.6083 40.5828 29.6083V29.1996C38.9251 29.1996 37.8428 28.6817 37.2606 27.698L36.909 27.9061ZM40.5828 29.6083C42.3245 29.6083 43.5655 29.0583 44.2255 27.9034L43.8707 27.7007C43.3101 28.6816 42.2409 29.1996 40.5828 29.1996V29.6083ZM44.2239 27.9061C44.559 27.34 44.8013 26.537 44.961 25.5125C45.1212 24.4851 45.2004 23.2206 45.2004 21.7215H44.7918C44.7918 23.2081 44.7131 24.45 44.5572 25.4495C44.4009 26.4519 44.1692 27.1963 43.8722 27.698L44.2239 27.9061ZM45.2004 21.7215C45.2004 20.2223 45.1212 18.9579 44.961 17.9305C44.8013 16.906 44.559 16.103 44.2239 15.5368L43.8722 15.745C44.1692 16.2467 44.4009 16.9911 44.5572 17.9935C44.7131 18.9929 44.7918 20.2348 44.7918 21.7215H45.2004ZM63.2246 24.5329L63.1936 24.331L63.0203 24.3576V24.5329H63.2246ZM63.2246 24.6637H63.0203V24.8426L63.1976 24.8662L63.2246 24.6637ZM64.8265 24.9579L64.7744 25.1558L64.7844 25.1579L64.8265 24.9579ZM66.0361 25.5464L65.9106 25.7077L66.0361 25.5464ZM66.9187 26.3963L66.7551 26.5191L66.7618 26.5271L66.9187 26.3963ZM67.736 27.9328L67.5482 28.0133L67.5491 28.0153L67.736 27.9328ZM68.5206 29.9924L68.3254 30.053L68.3275 30.059L68.5206 29.9924ZM69.5014 33V33.2043H69.7806L69.6961 32.9382L69.5014 33ZM64.4669 33L64.272 33.0613L64.3169 33.2043H64.4669V33ZM62.342 27.3771L62.1711 27.4892L62.342 27.3771ZM58.4517 26.331V26.1266H58.2025L58.2513 26.371L58.4517 26.331ZM58.6151 33V33.2043H58.8195V33H58.6151ZM53.8095 33H53.6052V33.2043H53.8095V33ZM53.8095 16.8832V16.6788H53.6052V16.8832H53.8095ZM58.6151 16.8832H58.8195V16.6788H58.6151V16.8832ZM58.419 22.9638L58.2186 22.9237L58.1698 23.1681H58.419V22.9638ZM62.2112 21.9176L62.3796 22.0334L62.3812 22.031L62.2112 21.9176ZM64.0746 16.8832V16.6788H63.921L63.8783 16.8264L64.0746 16.8832ZM68.9783 16.8832L69.1723 16.9474L69.2611 16.6788H68.9783V16.8832ZM66.9514 22.3753L66.7725 22.2766L66.7721 22.2775L66.9514 22.3753ZM64.6304 24.2387L64.5759 24.0418L64.5727 24.0427L64.6304 24.2387ZM63.0203 24.5329V24.6637H63.4289V24.5329H63.0203ZM63.1976 24.8662C63.847 24.9528 64.3718 25.0495 64.7745 25.1555L64.8785 24.7603C64.4531 24.6484 63.9099 24.5489 63.2516 24.4612L63.1976 24.8662ZM64.7844 25.1579C65.1633 25.2376 65.5386 25.4183 65.9106 25.7077L66.1615 25.3851C65.749 25.0642 65.3179 24.8526 64.8686 24.758L64.7844 25.1579ZM65.9106 25.7077C66.2952 26.0068 66.5741 26.2774 66.7553 26.5189L67.0822 26.2738C66.8711 25.9922 66.5615 25.6962 66.1615 25.3851L65.9106 25.7077ZM66.7618 26.5271C66.9586 26.7633 67.2211 27.2501 67.5482 28.0133L67.9238 27.8524C67.5971 27.09 67.3148 26.5525 67.0757 26.2655L66.7618 26.5271ZM67.5491 28.0153C67.8735 28.7507 68.1321 29.4298 68.3255 30.053L68.7158 29.9318C68.5169 29.2909 68.2524 28.597 67.923 27.8504L67.5491 28.0153ZM68.3275 30.059C68.5445 30.6885 68.8708 31.689 69.3066 33.0618L69.6961 32.9382C69.2602 31.5649 68.9326 30.5604 68.7138 29.9258L68.3275 30.059ZM69.5014 32.7957H64.4669V33.2043H69.5014V32.7957ZM64.6618 32.9387C64.1818 31.4113 63.7637 30.1759 63.4076 29.2336C63.0534 28.2965 62.7552 27.6345 62.5128 27.265L62.1711 27.4892C62.3863 27.8171 62.6712 28.4409 63.0253 29.3781C63.3776 30.3102 63.7931 31.5375 64.272 33.0613L64.6618 32.9387ZM62.5128 27.265C62.0038 26.4894 61.1177 26.1266 59.9228 26.1266V26.5353C61.0381 26.5353 61.7648 26.87 62.1711 27.4892L62.5128 27.265ZM59.9228 26.1266H58.4517V26.5353H59.9228V26.1266ZM58.2513 26.371C58.3588 26.9085 58.4108 27.3518 58.4108 27.704H58.8195C58.8195 27.3152 58.7625 26.8431 58.652 26.2909L58.2513 26.371ZM58.4108 27.704V33H58.8195V27.704H58.4108ZM58.6151 32.7957H53.8095V33.2043H58.6151V32.7957ZM54.0138 33V16.8832H53.6052V33H54.0138ZM53.8095 17.0875H58.6151V16.6788H53.8095V17.0875ZM58.4108 16.8832V21.0023H58.8195V16.8832H58.4108ZM58.4108 21.0023C58.4108 21.6424 58.3468 22.2828 58.2186 22.9237L58.6193 23.0038C58.7527 22.3371 58.8195 21.6698 58.8195 21.0023H58.4108ZM58.419 23.1681H59.6286V22.7594H58.419V23.1681ZM59.6286 23.1681C60.9047 23.1681 61.8463 22.809 62.3796 22.0334L62.0428 21.8019C61.6171 22.4211 60.837 22.7594 59.6286 22.7594V23.1681ZM62.3812 22.031C62.6349 21.6504 62.9167 21.0322 63.2283 20.1905C63.5412 19.345 63.8887 18.261 64.2709 16.9399L63.8783 16.8264C63.4977 18.1424 63.1532 19.216 62.845 20.0487C62.5354 20.8852 62.267 21.4656 62.0412 21.8043L62.3812 22.031ZM64.0746 17.0875H68.9783V16.6788H64.0746V17.0875ZM68.7843 16.819C68.2834 18.3327 67.8647 19.5452 67.528 20.4575C67.1897 21.3742 66.9384 21.976 66.7725 22.2766L67.1303 22.474C67.3132 22.1426 67.574 21.513 67.9114 20.599C68.2503 19.6805 68.6707 18.4631 69.1723 16.9474L68.7843 16.819ZM66.7721 22.2775C66.2747 23.1894 65.5452 23.7737 64.5759 24.0418L64.6848 24.4356C65.7641 24.1371 66.5821 23.4792 67.1308 22.4731L66.7721 22.2775ZM64.5727 24.0427C64.214 24.1482 63.7551 24.2446 63.1936 24.331L63.2557 24.7349C63.8275 24.6469 64.3057 24.5472 64.688 24.4347L64.5727 24.0427ZM88.3464 16.8832L88.5392 16.9507L88.6344 16.6788H88.3464V16.8832ZM82.6254 33.2288L82.4325 33.1613L82.4308 33.1666L82.6254 33.2288ZM78.2121 38.8191L78.1191 38.6369L78.1112 38.6414L78.2121 38.8191ZM71.6084 39.4729L71.4056 39.4481L71.382 39.6413L71.5738 39.6743L71.6084 39.4729ZM72.0007 36.2691L72.0075 36.0649L71.8206 36.0588L71.7979 36.2443L72.0007 36.2691ZM76.2179 35.6153L76.1141 35.4393L76.1121 35.4405L76.2179 35.6153ZM78.2448 33L78.4342 33.0765L78.5475 32.7957H78.2448V33ZM75.7275 31.8231L75.9231 31.7634L75.9204 31.7556L75.7275 31.8231ZM70.4969 16.8832V16.6788H70.2089L70.3041 16.9507L70.4969 16.8832ZM75.6295 16.8832L75.8258 16.8265L75.7832 16.6788H75.6295V16.8832ZM78.6371 27.3117L78.8348 27.2601L78.8334 27.2551L78.6371 27.3117ZM79.1601 29.7309L78.9579 29.7598L78.9829 29.9352H79.1601V29.7309ZM79.5524 29.7309V29.9352H79.7073L79.7491 29.7861L79.5524 29.7309ZM80.2062 27.3117L80.0096 27.2556L80.0074 27.2649L80.2062 27.3117ZM83.1812 16.8832V16.6788H83.027L82.9847 16.8271L83.1812 16.8832ZM88.1535 16.8157L82.4326 33.1613L82.8183 33.2963L88.5392 16.9507L88.1535 16.8157ZM82.4308 33.1666C81.594 35.7841 80.1539 37.5985 78.1192 38.6371L78.305 39.001C80.4547 37.9038 81.9568 35.9913 82.82 33.2911L82.4308 33.1666ZM78.1112 38.6414C76.5563 39.5239 74.4095 39.747 71.643 39.2715L71.5738 39.6743C74.3866 40.1577 76.6424 39.9449 78.3129 38.9968L78.1112 38.6414ZM71.8112 39.4977L72.2035 36.294L71.7979 36.2443L71.4056 39.4481L71.8112 39.4977ZM71.994 36.4733C73.983 36.5389 75.4412 36.3243 76.3237 35.7901L76.1121 35.4405C75.3383 35.9089 73.985 36.1301 72.0075 36.0649L71.994 36.4733ZM76.3217 35.7913C77.2222 35.2602 77.9221 34.3457 78.4342 33.0765L78.0553 32.9235C77.5649 34.1389 76.9136 34.9678 76.1141 35.4393L76.3217 35.7913ZM78.2448 32.7957H77.3294V33.2043H78.2448V32.7957ZM77.3294 32.7957C76.9478 32.7957 76.6527 32.7057 76.4288 32.5411C76.205 32.3767 76.0331 32.1238 75.9229 31.7634L75.5321 31.8828C75.6617 32.307 75.8767 32.6426 76.1868 32.8704C76.4968 33.0982 76.8828 33.2043 77.3294 33.2043V32.7957ZM75.9204 31.7556L70.6898 16.8156L70.3041 16.9507L75.5347 31.8906L75.9204 31.7556ZM70.4969 17.0875H75.6295V16.6788H70.4969V17.0875ZM75.4331 16.9398L78.4407 27.3683L78.8334 27.2551L75.8258 16.8265L75.4331 16.9398ZM78.4394 27.3633C78.7001 28.3626 78.8723 29.1606 78.9579 29.7598L79.3624 29.702C79.2736 29.0807 79.0971 28.2658 78.8348 27.2601L78.4394 27.3633ZM79.1601 29.9352H79.5524V29.5265H79.1601V29.9352ZM79.7491 29.7861C80.0975 28.5449 80.3168 27.7341 80.4051 27.3585L80.0074 27.2649C79.9214 27.6303 79.7047 28.4323 79.3557 29.6756L79.7491 29.7861ZM80.4027 27.3678L83.3776 16.9392L82.9847 16.8271L80.0098 27.2557L80.4027 27.3678ZM83.1812 17.0875H88.3464V16.6788H83.1812V17.0875ZM104.837 20.61V20.8143H105.041V20.61H104.837ZM99.4755 20.61V20.4057H99.2712V20.61H99.4755ZM99.4755 33V33.2043H99.6798V33H99.4755ZM94.7026 33H94.4982V33.2043H94.7026V33ZM94.7026 20.61H94.9069V20.4057H94.7026V20.61ZM89.3412 20.61H89.1369V20.8143H89.3412V20.61ZM89.3412 16.8832V16.6788H89.1369V16.8832H89.3412ZM104.837 16.8832H105.041V16.6788H104.837V16.8832ZM104.837 20.4057H99.4755V20.8143H104.837V20.4057ZM99.2712 20.61V33H99.6798V20.61H99.2712ZM99.4755 32.7957H94.7026V33.2043H99.4755V32.7957ZM94.9069 33V20.61H94.4982V33H94.9069ZM94.7026 20.4057H89.3412V20.8143H94.7026V20.4057ZM89.5455 20.61V16.8832H89.1369V20.61H89.5455ZM89.3412 17.0875H104.837V16.6788H89.3412V17.0875ZM104.633 16.8832V20.61H105.041V16.8832H104.633ZM123.199 33.0327V33.237H123.404V33.0327H123.199ZM118.884 33.0327H118.68V33.237H118.884V33.0327ZM119.048 22.0157L119.251 22.036L119.273 21.8114H119.048V22.0157ZM118.917 22.0157V21.8114H118.766L118.722 21.956L118.917 22.0157ZM117.707 24.4022L117.874 24.5202L117.875 24.5196L117.707 24.4022ZM111.627 33V33.2043H111.732L111.794 33.118L111.627 33ZM107.508 33H107.303V33.2043H107.508V33ZM107.508 16.8832V16.6788H107.303V16.8832H107.508ZM111.79 16.8832H111.995V16.6788H111.79V16.8832ZM111.627 27.8675L111.424 27.8449L111.398 28.0718H111.627V27.8675ZM111.725 27.8675V28.0718H111.864L111.915 27.9423L111.725 27.8675ZM112.934 25.6771L113.101 25.795L113.102 25.7942L112.934 25.6771ZM119.08 16.8832V16.6788H118.974L118.913 16.7661L119.08 16.8832ZM123.199 16.8832H123.404V16.6788H123.199V16.8832ZM123.199 32.8284H118.884V33.237H123.199V32.8284ZM119.089 33.0327V24.5983H118.68V33.0327H119.089ZM119.089 24.5983C119.089 23.9762 119.142 23.1231 119.251 22.036L118.844 21.9954C118.735 23.0877 118.68 23.9563 118.68 24.5983H119.089ZM119.048 21.8114H118.917V22.22H119.048V21.8114ZM118.722 21.956C118.489 22.7163 118.097 23.4925 117.54 24.2847L117.875 24.5196C118.451 23.6991 118.865 22.8843 119.112 22.0754L118.722 21.956ZM117.541 24.2842L111.46 32.882L111.794 33.118L117.874 24.5201L117.541 24.2842ZM111.627 32.7957H107.508V33.2043H111.627V32.7957ZM107.712 33V16.8832H107.303V33H107.712ZM107.508 17.0875H111.79V16.6788H107.508V17.0875ZM111.586 16.8832V25.481H111.995V16.8832H111.586ZM111.586 25.481C111.586 26.0805 111.532 26.8677 111.424 27.8449L111.83 27.89C111.939 26.9057 111.995 26.1019 111.995 25.481H111.586ZM111.627 28.0718H111.725V27.6631H111.627V28.0718ZM111.915 27.9423C112.191 27.2407 112.586 26.5249 113.101 25.795L112.767 25.5593C112.237 26.3114 111.825 27.0558 111.535 27.7926L111.915 27.9423ZM113.102 25.7942L119.248 17.0002L118.913 16.7661L112.767 25.5601L113.102 25.7942ZM119.08 17.0875H123.199V16.6788H119.08V17.0875ZM122.995 16.8832V33.0327H123.404V16.8832H122.995ZM127.725 20.4792L127.523 20.5055L127.547 20.6951L127.738 20.6831L127.725 20.4792ZM127.3 17.2101L127.264 17.009L127.073 17.0435L127.098 17.2364L127.3 17.2101ZM140.475 17.7658L140.341 17.9198L140.344 17.9228L140.475 17.7658ZM142.044 33V33.2043H142.249V33H142.044ZM138.219 33L138.019 33.0401L138.052 33.2043H138.219V33ZM137.729 30.5481L137.929 30.5081L137.847 30.0945L137.573 30.4158L137.729 30.5481ZM127.954 32.1827L127.821 32.3374L127.825 32.3405L127.954 32.1827ZM127.824 24.108L127.693 23.9503L127.824 24.108ZM137.206 23.0291V23.2335H137.41V23.0291H137.206ZM137.206 22.3099H137.41L137.41 22.3044L137.206 22.3099ZM136.617 20.6754L136.483 20.8295L136.493 20.8377L136.617 20.6754ZM137.206 28.1944L137.327 28.3587L137.41 28.2975V28.1944H137.206ZM137.206 25.9387H137.41V25.7343H137.206V25.9387ZM132.858 25.9387V25.7343L132.854 25.7344L132.858 25.9387ZM127.928 20.4529L127.503 17.1837L127.098 17.2364L127.523 20.5055L127.928 20.4529ZM127.337 17.4111C130.225 16.89 133.002 16.6298 135.669 16.6298V16.2212C132.975 16.2212 130.174 16.484 127.264 17.009L127.337 17.4111ZM135.669 16.6298C137.828 16.6298 139.37 17.0733 140.341 17.9198L140.609 17.6119C139.531 16.6712 137.87 16.2212 135.669 16.2212V16.6298ZM140.344 17.9228C141.322 18.7374 141.84 20.1878 141.84 22.3426H142.249C142.249 20.1386 141.721 18.5378 140.606 17.6089L140.344 17.9228ZM141.84 22.3426V33H142.249V22.3426H141.84ZM142.044 32.7957H138.219V33.2043H142.044V32.7957ZM138.42 32.9599L137.929 30.5081L137.529 30.5882L138.019 33.0401L138.42 32.9599ZM137.573 30.4158C135.997 32.2687 134.059 33.188 131.746 33.188V33.5966C134.185 33.5966 136.235 32.6198 137.885 30.6805L137.573 30.4158ZM131.746 33.188C130.236 33.188 129.021 32.795 128.084 32.0249L127.825 32.3405C128.849 33.1832 130.162 33.5966 131.746 33.5966V33.188ZM128.088 32.0281C127.181 31.2448 126.72 30.161 126.72 28.7501H126.312C126.312 30.2597 126.81 31.4642 127.821 32.3373L128.088 32.0281ZM126.72 28.7501V27.1156H126.312V28.7501H126.72ZM126.72 27.1156C126.72 25.8812 127.136 24.9403 127.954 24.2656L127.693 23.9503C126.768 24.714 126.312 25.7781 126.312 27.1156H126.72ZM127.954 24.2656C128.777 23.586 129.935 23.2335 131.452 23.2335V22.8248C129.875 22.8248 128.613 23.1914 127.693 23.9503L127.954 24.2656ZM131.452 23.2335H137.206V22.8248H131.452V23.2335ZM137.41 23.0291V22.3099H137.002V23.0291H137.41ZM137.41 22.3044C137.388 21.4796 137.187 20.854 136.742 20.5131L136.493 20.8377C136.789 21.0634 136.98 21.5275 137.002 22.3154L137.41 22.3044ZM136.752 20.5216C136.542 20.3378 136.246 20.2128 135.885 20.1326C135.523 20.052 135.079 20.0134 134.558 20.0134V20.422C135.061 20.422 135.473 20.4596 135.797 20.5316C136.122 20.6039 136.344 20.7078 136.483 20.8291L136.752 20.5216ZM134.558 20.0134C132.787 20.0134 130.504 20.1008 127.713 20.2753L127.738 20.6831C130.526 20.5089 132.799 20.422 134.558 20.422V20.0134ZM131.084 27.4752V28.0963H131.493V27.4752H131.084ZM131.084 28.0963C131.084 28.6898 131.251 29.1706 131.618 29.499C131.981 29.8236 132.505 29.9679 133.152 29.9679V29.5592C132.557 29.5592 132.149 29.4257 131.891 29.1945C131.637 28.9671 131.493 28.6143 131.493 28.0963H131.084ZM133.152 29.9679C134.495 29.9679 135.888 29.4214 137.327 28.3587L137.085 28.03C135.69 29.0596 134.381 29.5592 133.152 29.5592V29.9679ZM137.41 28.1944V25.9387H137.002V28.1944H137.41ZM137.206 25.7343H132.858V26.143H137.206V25.7343ZM132.854 25.7344C132.301 25.7459 131.85 25.8877 131.538 26.1931C131.225 26.5001 131.084 26.9398 131.084 27.4752H131.493C131.493 27.008 131.615 26.6903 131.824 26.4851C132.035 26.2785 132.369 26.1532 132.862 26.1429L132.854 25.7344ZM149.932 16.8832L150.134 16.8523L150.108 16.6788H149.932V16.8832ZM150.292 19.2369L150.09 19.2678L150.158 19.7147L150.449 19.3682L150.292 19.2369ZM153.071 17.2428L152.989 17.0555L152.988 17.0561L153.071 17.2428ZM160.786 31.5943L160.944 31.724L160.945 31.7226L160.786 31.5943ZM150.717 31.8558L150.838 31.6914L150.469 31.4185L150.514 31.8757L150.717 31.8558ZM150.815 35.3211L150.611 35.3137V35.3211H150.815ZM150.815 39.2114V39.4157H151.019V39.2114H150.815ZM146.009 39.2114H145.805V39.4157H146.009V39.2114ZM146.009 16.8832V16.6788H145.805V16.8832H146.009ZM150.815 21.7869L150.703 21.6158L150.611 21.6762V21.7869H150.815ZM150.815 29.1751H150.611V29.3337L150.764 29.373L150.815 29.1751ZM156.699 28.9136L156.53 28.7988L156.528 28.8031L156.699 28.9136ZM156.765 21.2638L156.586 21.3621L156.587 21.3645L156.765 21.2638ZM149.73 16.914L150.09 19.2678L150.494 19.2061L150.134 16.8523L149.73 16.914ZM150.449 19.3682C151.1 18.5904 151.999 17.9427 153.154 17.4295L152.988 17.0561C151.789 17.589 150.835 18.2707 150.135 19.1057L150.449 19.3682ZM153.152 17.43C154.327 16.9174 155.509 16.6625 156.699 16.6625V16.2538C155.449 16.2538 154.212 16.522 152.989 17.0555L153.152 17.43ZM156.699 16.6625C158.501 16.6625 159.83 17.3524 160.721 18.7269C161.621 20.1167 162.085 22.2274 162.085 25.0887H162.494C162.494 22.1963 162.027 19.9918 161.064 18.5047C160.09 17.0024 158.625 16.2538 156.699 16.2538V16.6625ZM162.085 25.0887C162.085 28.1743 161.583 30.2812 160.627 31.466L160.945 31.7226C161.994 30.4228 162.494 28.1926 162.494 25.0887H162.085ZM160.628 31.4646C159.676 32.6231 158.186 33.2207 156.111 33.2207V33.6293C158.264 33.6293 159.89 33.0064 160.944 31.724L160.628 31.4646ZM156.111 33.2207C153.965 33.2207 152.212 32.706 150.838 31.6914L150.596 32.0202C152.055 33.0979 153.898 33.6293 156.111 33.6293V33.2207ZM150.514 31.8757C150.622 32.9775 150.654 34.1234 150.611 35.3137L151.019 35.3285C151.063 34.1214 151.03 32.9571 150.92 31.8359L150.514 31.8757ZM150.611 35.3211V39.2114H151.019V35.3211H150.611ZM150.815 39.007H146.009V39.4157H150.815V39.007ZM146.214 39.2114V16.8832H145.805V39.2114H146.214ZM146.009 17.0875H149.932V16.6788H146.009V17.0875ZM150.611 21.7869V29.1751H151.019V21.7869H150.611ZM150.764 29.373C152.464 29.809 153.707 30.0333 154.476 30.0333V29.6246C153.764 29.6246 152.565 29.413 150.866 28.9772L150.764 29.373ZM154.476 30.0333C155.598 30.0333 156.425 29.7184 156.871 29.0241L156.528 28.8031C156.189 29.3293 155.534 29.6246 154.476 29.6246V30.0333ZM156.869 29.0283C157.1 28.6865 157.262 28.1804 157.367 27.5324C157.473 26.8802 157.525 26.0646 157.525 25.0887H157.116C157.116 26.0524 157.065 26.8442 156.964 27.4669C156.862 28.0939 156.713 28.5304 156.53 28.7989L156.869 29.0283ZM157.525 25.0887C157.525 24.1349 157.478 23.3316 157.384 22.681C157.29 22.0338 157.146 21.5224 156.943 21.1631L156.587 21.3645C156.754 21.659 156.888 22.1121 156.979 22.7398C157.07 23.3642 157.116 24.1463 157.116 25.0887H157.525ZM156.944 21.1656C156.529 20.4093 155.796 20.046 154.803 20.046V20.4547C155.685 20.4547 156.259 20.7671 156.586 21.362L156.944 21.1656ZM154.803 20.046C153.655 20.046 152.285 20.5836 150.703 21.6158L150.927 21.958C152.484 20.9415 153.773 20.4547 154.803 20.4547V20.046ZM165.349 20.5446L165.146 20.5645L165.166 20.774L165.375 20.7473L165.349 20.5446ZM165.022 17.2101L164.963 17.0144L164.802 17.0629L164.819 17.23L165.022 17.2101ZM176.856 17.3408L176.948 17.1581L176.856 17.3408ZM177.772 23.6176L177.619 23.4818L177.772 23.6176ZM175.124 24.631L175.11 24.4272L174.919 24.4405V24.631H175.124ZM175.124 24.7618H174.919V24.9512L175.108 24.9655L175.124 24.7618ZM178.23 25.9714L178.078 26.1086L178.083 26.1134L178.23 25.9714ZM177.51 32.5423L177.603 32.7244L177.604 32.7237L177.51 32.5423ZM164.532 32.7385L164.328 32.7185L164.311 32.8999L164.489 32.9382L164.532 32.7385ZM164.859 29.4039L164.878 29.2005L164.675 29.1818L164.655 29.384L164.859 29.4039ZM173.685 29.4366L173.781 29.6174L173.789 29.6128L173.685 29.4366ZM173.653 26.7559L173.549 26.9325L173.561 26.9387L173.653 26.7559ZM171.43 26.3963L171.434 26.1921L171.433 26.192L171.43 26.3963ZM166.788 26.331H166.583V26.5324L166.785 26.5353L166.788 26.331ZM166.788 23.2907L166.785 23.0864L166.583 23.0892V23.2907H166.788ZM171.397 23.2253V23.0209L171.394 23.021L171.397 23.2253ZM173.326 22.9311L173.431 23.1063L173.434 23.1043L173.326 22.9311ZM173.26 20.4792L173.177 20.6659V20.6659L173.26 20.4792ZM165.552 20.5247L165.226 17.1901L164.819 17.23L165.146 20.5645L165.552 20.5247ZM165.081 17.4057C166.648 16.9335 168.512 16.6952 170.678 16.6952V16.2865C168.484 16.2865 166.578 16.5277 164.963 17.0144L165.081 17.4057ZM170.678 16.6952C173.664 16.6952 175.679 16.9806 176.765 17.5236L176.948 17.1581C175.767 16.5678 173.663 16.2865 170.678 16.2865V16.6952ZM176.765 17.5236C177.802 18.0419 178.352 19.1254 178.352 20.8715H178.761C178.761 19.0434 178.178 17.7731 176.948 17.1581L176.765 17.5236ZM178.352 20.8715C178.352 22.0913 178.094 22.9472 177.619 23.4818L177.925 23.7533C178.495 23.111 178.761 22.1363 178.761 20.8715H178.352ZM177.619 23.4818C177.147 24.0125 176.328 24.3417 175.11 24.4272L175.138 24.8348C176.404 24.746 177.35 24.3995 177.925 23.7533L177.619 23.4818ZM174.919 24.631V24.7618H175.328V24.631H174.919ZM175.108 24.9655C176.522 25.0726 177.496 25.4662 178.078 26.1086L178.381 25.8342C177.699 25.0817 176.603 24.6689 175.139 24.558L175.108 24.9655ZM178.083 26.1134C178.687 26.7376 179.006 27.6805 179.006 28.979H179.415C179.415 27.6186 179.08 26.5564 178.376 25.8293L178.083 26.1134ZM179.006 28.979C179.006 30.7246 178.456 31.8212 177.416 32.361L177.604 32.7237C178.832 32.0865 179.415 30.8076 179.415 28.979H179.006ZM177.417 32.3603C176.353 32.9031 174.478 33.188 171.757 33.188V33.5966C174.484 33.5966 176.445 33.3149 177.603 32.7243L177.417 32.3603ZM171.757 33.188C168.977 33.188 166.584 32.9707 164.575 32.5387L164.489 32.9382C166.534 33.378 168.957 33.5966 171.757 33.5966V33.188ZM164.735 32.7584L165.062 29.4239L164.655 29.384L164.328 32.7185L164.735 32.7584ZM164.84 29.6074C167.199 29.8258 169.385 29.9352 171.397 29.9352V29.5265C169.399 29.5265 167.226 29.418 164.878 29.2005L164.84 29.6074ZM171.397 29.9352C171.979 29.9352 172.468 29.9105 172.861 29.86C173.25 29.81 173.563 29.7327 173.781 29.6172L173.59 29.2561C173.437 29.3368 173.183 29.4066 172.809 29.4547C172.44 29.5022 171.97 29.5265 171.397 29.5265V29.9352ZM173.789 29.6128C174.256 29.3383 174.445 28.7722 174.445 28.0309H174.037C174.037 28.7281 173.856 29.0991 173.582 29.2605L173.789 29.6128ZM174.445 28.0309C174.445 27.3422 174.237 26.8196 173.744 26.5732L173.561 26.9387C173.853 27.0846 174.037 27.412 174.037 28.0309H174.445ZM173.756 26.5798C173.539 26.4518 173.231 26.3623 172.852 26.3009C172.468 26.2389 171.995 26.2031 171.434 26.1921L171.426 26.6006C171.976 26.6114 172.429 26.6464 172.786 26.7043C173.148 26.7627 173.396 26.8421 173.549 26.9321L173.756 26.5798ZM171.433 26.192L166.79 26.1267L166.785 26.5353L171.427 26.6006L171.433 26.192ZM166.992 26.331V23.2907H166.583V26.331H166.992ZM166.79 23.495L171.4 23.4296L171.394 23.021L166.785 23.0864L166.79 23.495ZM171.397 23.4296C171.882 23.4296 172.294 23.4048 172.629 23.3537C172.961 23.3031 173.234 23.2244 173.431 23.1063L173.221 22.7559C173.091 22.8339 172.879 22.9023 172.568 22.9497C172.26 22.9967 171.871 23.021 171.397 23.021V23.4296ZM173.434 23.1043C173.872 22.8307 174.053 22.3042 174.053 21.6234H173.645C173.645 22.2502 173.477 22.5955 173.218 22.7578L173.434 23.1043ZM174.053 21.6234C174.053 20.9896 173.837 20.5119 173.343 20.2925L173.177 20.6659C173.468 20.7952 173.645 21.0803 173.645 21.6234H174.053ZM173.343 20.2925C173.118 20.1924 172.799 20.1243 172.4 20.08C171.998 20.0353 171.499 20.0134 170.907 20.0134V20.422C171.491 20.422 171.973 20.4437 172.355 20.4861C172.741 20.529 173.01 20.5916 173.177 20.6659L173.343 20.2925ZM170.907 20.0134C168.894 20.0134 167.033 20.1227 165.323 20.3419L165.375 20.7473C167.065 20.5306 168.909 20.422 170.907 20.422V20.0134Z" fill="white"/>
<rect y="9.72412" width="22.8685" height="22.6897" fill="#02685A"/>
</svg>
