<svg width="255" height="110" viewBox="0 0 255 110" fill="none" xmlns="http://www.w3.org/2000/svg">
<path d="M22.6132 84.4908C38.9224 100.756 65.4337 100.757 81.7354 84.4901L81.7364 84.489C98.0163 68.2196 98.0147 41.7752 81.7375 25.4839L81.7339 25.4804C65.4261 9.24011 38.9517 9.23078 22.6401 25.4542C22.6344 25.4596 22.629 25.4649 22.6238 25.4699C22.592 25.5007 22.565 25.5287 22.5436 25.5517C22.508 25.5899 22.4785 25.6241 22.4577 25.6489L21.8305 26.1356L21.8305 27.1151L21.8305 27.1306L21.8305 27.9593L22.4166 28.5452L28.1732 34.2992L5.85226 34.2576L5.82245 12.0022L11.5617 17.7291L12.6508 18.8159L13.9805 18.0418C14.2515 17.8841 14.4943 17.678 14.6854 17.4625C35.4188 -3.1729 69.0087 -3.15416 89.7188 17.5188C110.47 38.2399 110.469 71.7701 89.7196 92.4834C68.9896 113.162 35.3569 113.183 14.629 92.4842C9.37676 87.2365 5.46222 81.1786 2.87112 74.7078L15.4085 74.7078C17.2728 78.2023 19.6383 81.5295 22.6132 84.4908ZM22.6132 84.4908C22.6136 84.4911 22.6139 84.4915 22.6142 84.4918L24.0252 83.0743L22.6128 84.4904C22.6129 84.4905 22.6131 84.4907 22.6132 84.4908Z" fill="#009ACF" fill-opacity="0.54" stroke="white" stroke-width="4"/>
<path d="M232.387 84.4908C216.078 100.756 189.566 100.757 173.265 84.4901L173.264 84.489C156.984 68.2196 156.985 41.7752 173.262 25.4839L173.266 25.4803C189.574 9.2401 216.048 9.23077 232.36 25.4543C232.366 25.4597 232.371 25.4649 232.376 25.4699C232.408 25.5007 232.435 25.5287 232.456 25.5517C232.492 25.5899 232.522 25.6241 232.542 25.6489L233.17 26.1356L233.17 27.1151L233.17 27.1306L233.17 27.9593L232.583 28.5452L226.827 34.2992L249.148 34.2575L249.178 12.0022L243.438 17.7291L242.349 18.8159L241.02 18.0418C240.748 17.8841 240.506 17.678 240.315 17.4625C219.581 -3.1729 185.991 -3.15416 165.281 17.5188C144.53 38.2399 144.531 71.7701 165.28 92.4834C186.01 113.162 219.643 113.183 240.371 92.4842C245.623 87.2365 249.538 81.1786 252.129 74.7078L239.591 74.7078C237.727 78.2023 235.362 81.5295 232.387 84.4908ZM232.387 84.4908C232.386 84.4911 232.386 84.4915 232.386 84.4918L230.975 83.0743L232.387 84.4904C232.387 84.4905 232.387 84.4907 232.387 84.4908Z" fill="#009ACF" fill-opacity="0.54" stroke="white" stroke-width="4"/>
<path d="M185.099 32.6129C152.227 1.11014 98.7446 1.11014 65.8723 32.6129L43.916 53.6519L66.417 75.2155C82.8517 90.9656 104.44 98.8433 126.032 98.8433C147.623 98.8433 169.209 90.9683 185.646 75.2155L207.603 54.1739L185.099 32.6129ZM181.734 71.4688C151.018 100.902 101.042 100.902 70.3266 71.4688L51.7352 53.6519L69.7819 36.357C100.498 6.92368 150.474 6.92368 181.189 36.357L199.781 54.1739L181.734 71.4688Z" fill="#00309D"/>
<path d="M122.916 32.6367C112.243 32.6367 103.561 40.9569 103.561 51.1849C103.561 52.6476 104.8 53.8347 106.326 53.8347C107.852 53.8347 109.091 52.6476 109.091 51.1849C109.091 43.8796 115.293 37.9362 122.916 37.9362C124.442 37.9362 125.68 36.7491 125.68 35.2865C125.68 33.8238 124.445 32.6367 122.916 32.6367Z" fill="#00309D"/>
<path d="M125.68 19.3882C105.861 19.3882 89.7363 34.8415 89.7363 53.8349C89.7363 72.8282 105.861 88.2815 125.68 88.2815C145.499 88.2815 161.624 72.8282 161.624 53.8349C161.624 34.8415 145.502 19.3882 125.68 19.3882ZM125.68 82.982C108.911 82.982 95.2662 69.9055 95.2662 53.8349C95.2662 37.7642 108.911 24.6877 125.68 24.6877C142.45 24.6877 156.095 37.7642 156.095 53.8349C156.095 69.9055 142.452 82.982 125.68 82.982Z" fill="#00309D"/>
</svg>
