<svg width="206" height="187" viewBox="0 0 206 187" fill="none" xmlns="http://www.w3.org/2000/svg">
<path d="M185 0L205.207 35H164.793L185 0ZM181.5 187V31.5H188.5V187H181.5Z" fill="#009ACF" fill-opacity="0.54"/>
<path d="M21 187L41.2073 152H0.79274L21 187ZM17.5 0V155.5H24.5V0H17.5Z" fill="#009ACF" fill-opacity="0.54"/>
<path d="M27 149L66.0374 138.54L37.46 109.963L27 149ZM137.525 33.5251L46.799 124.251L51.7487 129.201L142.475 38.4749L137.525 33.5251Z" fill="#009ACF"/>
<path d="M180 149L140.963 138.54L169.54 109.963L180 149ZM69.4749 33.5251L160.201 124.251L155.251 129.201L64.5251 38.4749L69.4749 33.5251Z" fill="#009ACF"/>
<path d="M162.453 66.6646C129.518 35.1118 75.9335 35.1118 42.9983 66.6646L21 87.7369L43.5441 109.335C60.0103 125.11 81.6402 133 103.273 133C124.906 133 146.533 125.112 163.002 109.335L185 88.2598L162.453 66.6646ZM159.082 105.582C128.307 135.062 78.2356 135.062 47.4612 105.582L28.8342 87.7369L46.9154 70.4146C77.6898 40.9346 127.762 40.9346 158.536 70.4146L177.163 88.2598L159.082 105.582Z" fill="#00309D"/>
<path d="M100.151 66.6885C89.4578 66.6885 80.7593 75.0219 80.7593 85.2661C80.7593 86.7311 82.0003 87.9201 83.5295 87.9201C85.0587 87.9201 86.2997 86.7311 86.2997 85.2661C86.2997 77.9492 92.5133 71.9964 100.151 71.9964C101.68 71.9964 102.921 70.8074 102.921 69.3424C102.921 67.8774 101.683 66.6885 100.151 66.6885Z" fill="#00309D"/>
<path d="M102.921 53.4189C83.0641 53.4189 66.9082 68.8968 66.9082 87.9203C66.9082 106.944 83.0641 122.422 102.921 122.422C122.778 122.422 138.934 106.944 138.934 87.9203C138.934 68.8968 122.781 53.4189 102.921 53.4189ZM102.921 117.114C86.1197 117.114 72.4487 104.016 72.4487 87.9203C72.4487 71.8241 86.1197 58.7268 102.921 58.7268C119.723 58.7268 133.394 71.8241 133.394 87.9203C133.394 104.016 119.725 117.114 102.921 117.114Z" fill="#00309D"/>
</svg>
