<svg width="255" height="148" viewBox="0 0 255 148" fill="none" xmlns="http://www.w3.org/2000/svg">
<path d="M101.454 143.746L66.9004 141.318L86.2901 112.605L101.454 143.746ZM100.326 13.1442C82.2437 19.8072 64.9654 37.5985 58.484 59.0356C52.0803 80.2157 56.1813 105.057 81.0424 126.367L77.137 130.924C50.4517 108.05 45.6564 80.7329 52.741 57.3007C59.7479 34.1256 78.3426 14.8508 98.2529 7.51413L100.326 13.1442Z" fill="#009ACF" fill-opacity="0.4"/>
<path d="M148.508 4.93169L183.096 6.79809L164.175 35.8227L148.508 4.93169ZM151.753 135.498C169.724 128.542 186.712 110.472 192.845 88.9326C198.905 67.6512 194.402 42.8797 169.199 21.9765L173.03 17.3572C200.082 39.7943 205.319 67.0297 198.616 90.574C191.985 113.86 173.705 133.434 153.916 141.094L151.753 135.498Z" fill="#009ACF" fill-opacity="0.4"/>
<path d="M185.099 56.6484C152.227 25.0938 98.7446 25.0938 65.8723 56.6484L43.916 77.7219L66.417 99.3209C82.8517 115.097 104.44 122.988 126.032 122.988C147.623 122.988 169.209 115.1 185.646 99.3209L207.603 78.2447L185.099 56.6484ZM181.734 95.568C151.018 125.05 101.042 125.05 70.3266 95.568L51.7352 77.7219L69.7819 60.3986C100.498 30.9169 150.474 30.9169 181.189 60.3986L199.781 78.2447L181.734 95.568Z" fill="#00309D"/>
<path d="M122.916 56.6724C112.243 56.6724 103.561 65.0062 103.561 75.251C103.561 76.7161 104.8 77.9051 106.326 77.9051C107.852 77.9051 109.091 76.7161 109.091 75.251C109.091 67.9337 115.293 61.9806 122.916 61.9806C124.442 61.9806 125.68 60.7915 125.68 59.3265C125.68 57.8614 124.445 56.6724 122.916 56.6724Z" fill="#00309D"/>
<path d="M125.68 43.4019C105.861 43.4019 89.7363 58.8806 89.7363 77.9051C89.7363 96.9297 105.861 112.408 125.68 112.408C145.499 112.408 161.624 96.9297 161.624 77.9051C161.624 58.8806 145.502 43.4019 125.68 43.4019ZM125.68 107.1C108.911 107.1 95.2662 94.0022 95.2662 77.9051C95.2662 61.808 108.911 48.7101 125.68 48.7101C142.45 48.7101 156.095 61.808 156.095 77.9051C156.095 94.0022 142.452 107.1 125.68 107.1Z" fill="#00309D"/>
</svg>
