<svg width="164" height="187" viewBox="0 0 164 187" fill="none" xmlns="http://www.w3.org/2000/svg">
<path d="M47 187L67.2073 152H26.7927L47 187ZM43.5 0V155.5H50.5V0H43.5Z" fill="#009ACF" fill-opacity="0.54"/>
<path d="M116 0L136.207 35H95.7927L116 0ZM112.5 187V31.5H119.5V187H112.5Z" fill="#009ACF" fill-opacity="0.54"/>
<path d="M141.453 66.6646C108.518 35.1118 54.9335 35.1118 21.9983 66.6646L0 87.7369L22.5441 109.335C39.0103 125.11 60.6402 133 82.2729 133C103.906 133 125.533 125.112 142.002 109.335L164 88.2598L141.453 66.6646ZM138.082 105.582C107.307 135.062 57.2356 135.062 26.4612 105.582L7.83419 87.7369L25.9154 70.4146C56.6898 40.9346 106.762 40.9346 137.536 70.4146L156.163 88.2598L138.082 105.582Z" fill="#00309D"/>
<path d="M79.1508 66.6885C68.4578 66.6885 59.7593 75.0219 59.7593 85.2661C59.7593 86.7311 61.0003 87.9201 62.5295 87.9201C64.0587 87.9201 65.2997 86.7311 65.2997 85.2661C65.2997 77.9492 71.5133 71.9964 79.1508 71.9964C80.68 71.9964 81.9211 70.8074 81.9211 69.3424C81.9211 67.8774 80.6828 66.6885 79.1508 66.6885Z" fill="#00309D"/>
<path d="M81.9211 53.4189C62.0641 53.4189 45.9082 68.8968 45.9082 87.9203C45.9082 106.944 62.0641 122.422 81.9211 122.422C101.778 122.422 117.934 106.944 117.934 87.9203C117.934 68.8968 101.781 53.4189 81.9211 53.4189ZM81.9211 117.114C65.1197 117.114 51.4487 104.016 51.4487 87.9203C51.4487 71.8241 65.1197 58.7268 81.9211 58.7268C98.7225 58.7268 112.394 71.8241 112.394 87.9203C112.394 104.016 98.7253 117.114 81.9211 117.114Z" fill="#00309D"/>
</svg>
