<svg width="941" height="941" fill="none" xmlns="http://www.w3.org/2000/svg"><path stroke="#000" stroke-width="3" d="M1.5 1.5h67v67h-67zM68.5 1.5h67v67h-67zM135.5 1.5h67v67h-67zM202.5 1.5h67v67h-67zM269.5 1.5h67v67h-67zM336.5 1.5h67v67h-67zM403.5 1.5h67v67h-67zM470.5 1.5h67v67h-67zM537.5 1.5h67v67h-67zM604.5 1.5h67v67h-67v-67zM671.5 1.5h67v67h-67zM738.5 1.5h67v67h-67zM805.5 1.5h67v67h-67zM872.5 1.5h67v67h-67zM1.5 68.5h67v67h-67zM68.5 68.5h67v67h-67zM135.5 68.5h67v67h-67zM202.5 68.5h67v67h-67zM269.5 68.5h67v67h-67zM336.5 68.5h67v67h-67zM403.5 68.5h67v67h-67zM470.5 68.5h67v67h-67zM537.5 68.5h67v67h-67zM604.5 68.5h67v67h-67zM671.5 68.5h67v67h-67zM738.5 68.5h67v67h-67zM805.5 68.5h67v67h-67zM872.5 68.5h67v67h-67zM1.5 135.5h67v67h-67zM68.5 135.5h67v67h-67zM135.5 135.5h67v67h-67zM202.5 135.5h67v67h-67zM269.5 135.5h67v67h-67zM336.5 135.5h67v67h-67zM403.5 135.5h67v67h-67zM470.5 135.5h67v67h-67zM537.5 135.5h67v67h-67zM604.5 135.5h67v67h-67zM671.5 135.5h67v67h-67zM738.5 135.5h67v67h-67zM805.5 135.5h67v67h-67zM872.5 135.5h67v67h-67zM1.5 202.5h67v67h-67zM68.5 202.5h67v67h-67zM135.5 202.5h67v67h-67zM202.5 202.5h67v67h-67zM269.5 202.5h67v67h-67zM336.5 202.5h67v67h-67zM403.5 202.5h67v67h-67zM470.5 202.5h67v67h-67zM537.5 202.5h67v67h-67zM604.5 202.5h67v67h-67zM671.5 202.5h67v67h-67zM738.5 202.5h67v67h-67zM805.5 202.5h67v67h-67zM872.5 202.5h67v67h-67zM1.5 269.5h67v67h-67zM68.5 269.5h67v67h-67zM135.5 269.5h67v67h-67zM202.5 269.5h67v67h-67zM269.5 269.5h67v67h-67zM336.5 269.5h67v67h-67zM403.5 269.5h67v67h-67zM470.5 269.5h67v67h-67zM537.5 269.5h67v67h-67zM604.5 269.5h67v67h-67zM671.5 269.5h67v67h-67zM738.5 269.5h67v67h-67zM805.5 269.5h67v67h-67zM872.5 269.5h67v67h-67zM1.5 336.5h67v67h-67zM68.5 336.5h67v67h-67zM135.5 336.5h67v67h-67zM202.5 336.5h67v67h-67zM269.5 336.5h67v67h-67zM336.5 336.5h67v67h-67zM403.5 336.5h67v67h-67zM470.5 336.5h67v67h-67zM537.5 336.5h67v67h-67zM604.5 336.5h67v67h-67zM671.5 336.5h67v67h-67zM738.5 336.5h67v67h-67zM805.5 336.5h67v67h-67zM872.5 336.5h67v67h-67zM1.5 403.5h67v67h-67zM68.5 403.5h67v67h-67zM135.5 403.5h67v67h-67zM202.5 403.5h67v67h-67zM269.5 403.5h67v67h-67zM336.5 403.5h67v67h-67zM403.5 403.5h67v67h-67zM470.5 403.5h67v67h-67zM537.5 403.5h67v67h-67zM604.5 403.5h67v67h-67zM671.5 403.5h67v67h-67zM738.5 403.5h67v67h-67zM805.5 403.5h67v67h-67zM872.5 403.5h67v67h-67zM1.5 470.5h67v67h-67zM68.5 470.5h67v67h-67zM135.5 470.5h67v67h-67zM202.5 470.5h67v67h-67zM269.5 470.5h67v67h-67zM336.5 470.5h67v67h-67zM403.5 470.5h67v67h-67zM470.5 470.5h67v67h-67zM537.5 470.5h67v67h-67zM604.5 470.5h67v67h-67zM671.5 470.5h67v67h-67zM738.5 470.5h67v67h-67zM805.5 470.5h67v67h-67zM872.5 470.5h67v67h-67zM1.5 537.5h67v67h-67zM68.5 537.5h67v67h-67zM135.5 537.5h67v67h-67zM202.5 537.5h67v67h-67zM269.5 537.5h67v67h-67zM336.5 537.5h67v67h-67zM403.5 537.5h67v67h-67zM470.5 537.5h67v67h-67zM537.5 537.5h67v67h-67zM604.5 537.5h67v67h-67zM671.5 537.5h67v67h-67zM738.5 537.5h67v67h-67zM805.5 537.5h67v67h-67zM872.5 537.5h67v67h-67zM1.5 604.5h67v67h-67zM68.5 604.5h67v67h-67zM135.5 604.5h67v67h-67zM202.5 604.5h67v67h-67zM269.5 604.5h67v67h-67zM336.5 604.5h67v67h-67zM403.5 604.5h67v67h-67zM470.5 604.5h67v67h-67zM537.5 604.5h67v67h-67zM604.5 604.5h67v67h-67zM671.5 604.5h67v67h-67zM738.5 604.5h67v67h-67zM805.5 604.5h67v67h-67zM872.5 604.5h67v67h-67zM1.5 671.5h67v67h-67zM68.5 671.5h67v67h-67zM135.5 671.5h67v67h-67zM202.5 671.5h67v67h-67zM269.5 671.5h67v67h-67zM336.5 671.5h67v67h-67zM403.5 671.5h67v67h-67zM470.5 671.5h67v67h-67zM537.5 671.5h67v67h-67zM604.5 671.5h67v67h-67zM671.5 671.5h67v67h-67zM738.5 671.5h67v67h-67zM805.5 671.5h67v67h-67zM872.5 671.5h67v67h-67zM1.5 738.5h67v67h-67zM68.5 738.5h67v67h-67zM135.5 738.5h67v67h-67zM202.5 738.5h67v67h-67zM269.5 738.5h67v67h-67zM336.5 738.5h67v67h-67zM403.5 738.5h67v67h-67zM470.5 738.5h67v67h-67zM537.5 738.5h67v67h-67zM604.5 738.5h67v67h-67zM671.5 738.5h67v67h-67zM738.5 738.5h67v67h-67zM805.5 738.5h67v67h-67zM872.5 738.5h67v67h-67zM1.5 805.5h67v67h-67zM68.5 805.5h67v67h-67zM135.5 805.5h67v67h-67zM202.5 805.5h67v67h-67zM269.5 805.5h67v67h-67zM336.5 805.5h67v67h-67zM403.5 805.5h67v67h-67zM470.5 805.5h67v67h-67zM537.5 805.5h67v67h-67zM604.5 805.5h67v67h-67zM671.5 805.5h67v67h-67zM738.5 805.5h67v67h-67zM805.5 805.5h67v67h-67zM872.5 805.5h67v67h-67zM1.5 872.5h67v67h-67zM68.5 872.5h67v67h-67zM135.5 872.5h67v67h-67zM202.5 872.5h67v67h-67zM269.5 872.5h67v67h-67zM336.5 872.5h67v67h-67zM403.5 872.5h67v67h-67zM470.5 872.5h67v67h-67zM537.5 872.5h67v67h-67zM604.5 872.5h67v67h-67zM671.5 872.5h67v67h-67zM738.5 872.5h67v67h-67zM805.5 872.5h67v67h-67zM872.5 872.5h67v67h-67z"/><circle cx="472" cy="472" r="39" fill="#000"/><path fill="#000" d="M468 2h5v939h-5z"/></svg>