<svg width="522" height="851" viewBox="0 0 522 851" fill="none" xmlns="http://www.w3.org/2000/svg">
<path opacity="0.39" d="M202.236 492.289C239.014 502.885 280.316 512.531 326.142 521.228C371.967 529.925 418.946 537.427 467.077 543.736C515.21 550.044 563.209 554.772 611.074 557.922C658.939 561.072 703.3 562.398 744.157 561.898L775.492 656.841C720.12 655.57 664.799 652.106 609.529 646.451C554.258 640.796 499.63 633.571 445.645 624.775C391.66 615.98 339.098 605.632 287.958 593.731C236.819 581.83 142.326 549.804 120.366 519.259C114.642 492.917 174.404 392.721 208.574 353.204C242.744 313.687 278.902 274.328 317.045 235.124C355.189 195.92 394.784 157.596 435.828 120.145C476.873 82.6942 519.264 46.9801 563 13L596.247 113.737C563.126 137.671 528.271 165.149 491.685 196.171C455.098 227.194 419.343 259.564 384.42 293.284C349.498 327.003 316.215 360.999 284.573 395.271C252.931 429.544 225.485 461.883 202.236 492.289Z" fill="#009ACF" fill-opacity="0.12" stroke="white" stroke-width="20" stroke-linejoin="round"/>
</svg>
