<svg width="117" height="67" viewBox="0 0 117 67" fill="none" xmlns="http://www.w3.org/2000/svg">
<path d="M75.0317 61.8543C76.4441 60.4366 79.7396 56.5378 81.2108 54.7657L79.4454 49.4492L82.9763 45.0188" stroke="#8C8C8C" stroke-width="2"/>
<path d="M102.396 45.0188L91.8035 42.3606L85.6244 41.4745V35.272" stroke="#8C8C8C" stroke-width="2"/>
<path d="M17.6545 47.6771L19.42 39.7024L28.2472 41.4745L24.7163 31.7277" stroke="#8C8C8C" stroke-width="2"/>
<path d="M20.3026 14.0061L28.2472 22.8669L22.0681 27.2973H13.2408L15.0063 34.3859H19.4199" stroke="#8C8C8C" stroke-width="2"/>
<path d="M95.3344 16.6643L90.9208 24.639L95.3344 29.0694L90.9208 34.3859H103.279V29.0694" stroke="#8C8C8C" stroke-width="2"/>
<path d="M100.502 17.617C77.1018 -5.87232 39.0302 -5.87232 15.6298 17.617L0 33.3042L16.0175 49.3825C27.7167 61.1262 43.0848 67 58.4547 67C73.8247 67 89.1908 61.1282 100.892 49.3825L116.522 33.6934L100.502 17.617ZM98.1069 46.5889C76.2417 68.5351 40.6658 68.5351 18.8006 46.5889L5.56618 33.3042L18.4129 20.4087C40.278 -1.5376 75.854 -1.5376 97.7191 20.4087L110.954 33.6934L98.1069 46.5889Z" fill="#00309D"/>
<path d="M56.2365 17.6348C48.6391 17.6348 42.4589 23.8385 42.4589 31.4648C42.4589 32.5554 43.3406 33.4405 44.4271 33.4405C45.5136 33.4405 46.3953 32.5554 46.3953 31.4648C46.3953 26.0177 50.8101 21.5862 56.2365 21.5862C57.323 21.5862 58.2048 20.7011 58.2048 19.6105C58.2048 18.5199 57.325 17.6348 56.2365 17.6348Z" fill="#00309D"/>
<path d="M58.2048 7.75623C44.0964 7.75623 32.6177 19.2786 32.6177 33.4405C32.6177 47.6025 44.0964 59.1249 58.2048 59.1249C72.3131 59.1249 83.7919 47.6025 83.7919 33.4405C83.7919 19.2786 72.3151 7.75623 58.2048 7.75623ZM58.2048 55.1734C46.2674 55.1734 36.5542 45.4233 36.5542 33.4405C36.5542 21.4578 46.2674 11.7077 58.2048 11.7077C70.1422 11.7077 79.8554 21.4578 79.8554 33.4405C79.8554 45.4233 70.1441 55.1734 58.2048 55.1734Z" fill="#00309D"/>
</svg>
