<svg width="120" height="69" viewBox="0 0 120 69" fill="none" xmlns="http://www.w3.org/2000/svg">
<path d="M103.502 18.1428C79.4034 -6.04762 40.1953 -6.04762 16.0963 18.1428L0 34.2983L16.4957 50.8566C28.5441 62.9509 44.3709 69 60.1997 69C76.0284 69 91.8532 62.9529 103.904 50.8566L120 34.6991L103.502 18.1428ZM101.035 47.9796C78.5176 70.5809 41.8797 70.5809 19.3618 47.9796L5.73234 34.2983L18.9625 21.0179C41.4804 -1.5835 78.1183 -1.5835 100.636 21.0179L114.266 34.6991L101.035 47.9796Z" fill="#00309D"/>
<path d="M57.9153 18.1611C50.0911 18.1611 43.7263 24.5501 43.7263 32.404C43.7263 33.5271 44.6344 34.4387 45.7533 34.4387C46.8722 34.4387 47.7803 33.5271 47.7803 32.404C47.7803 26.7943 52.3268 22.2305 57.9153 22.2305C59.0342 22.2305 59.9423 21.319 59.9423 20.1958C59.9423 19.0727 59.0362 18.1611 57.9153 18.1611Z" fill="#00309D"/>
<circle cx="60" cy="34.5" r="28.5" fill="#E5E5E5"/>
<path d="M60 9C45.9397 9 34.5 20.4397 34.5 34.5C34.5 48.5603 45.9397 60 60 60C74.0603 60 85.5 48.5603 85.5 34.5C85.5 20.4397 74.0623 9 60 9ZM60 56.0769C48.1033 56.0769 38.4231 46.3967 38.4231 34.5C38.4231 22.6033 48.1033 12.9231 60 12.9231C71.8967 12.9231 81.5769 22.6033 81.5769 34.5C81.5769 46.3967 71.8987 56.0769 60 56.0769Z" fill="#8C8C8C"/>
</svg>
