<svg width="117" height="69" viewBox="0 0 117 69" fill="none" xmlns="http://www.w3.org/2000/svg">
<path d="M75.3396 63.7006C76.7578 62.2405 80.0668 58.2254 81.544 56.4004L79.7713 50.9252L83.3167 46.3625" stroke="#EB6E5D" stroke-width="2"/>
<path d="M102.816 46.3626L92.1803 43.6251L85.9758 42.7125V36.3248" stroke="#EB6E5D" stroke-width="2"/>
<path d="M17.7271 49.1002L19.4997 40.8874L28.3632 42.7125L24.8178 32.6747" stroke="#EB6E5D" stroke-width="2"/>
<path d="M20.386 14.4241L28.3631 23.5494L22.1587 28.112H13.2952L15.0679 35.4122H19.4996" stroke="#EB6E5D" stroke-width="2"/>
<path d="M95.7257 17.1616L91.2939 25.3744L95.7257 29.937L91.2939 35.4122H103.703V29.937" stroke="#EB6E5D" stroke-width="2"/>
<path d="M100.915 17.617C77.4183 -5.87232 39.1904 -5.87232 15.6939 17.617L0 33.3042L16.0833 49.3825C27.8305 61.1262 43.2616 67 58.6947 67C74.1277 67 89.5568 61.1282 101.306 49.3825L117 33.6934L100.915 17.617ZM98.5096 46.5889C76.5547 68.5351 40.8327 68.5351 18.8778 46.5889L5.58903 33.3042L18.4885 20.4087C40.4434 -1.5376 76.1653 -1.5376 98.1202 20.4087L111.409 33.6934L98.5096 46.5889Z" fill="#00309D"/>
<circle cx="58.2608" cy="33.5" r="27.6739" fill="#EB6E5D"/>
<path d="M58.4436 7.98767C44.2774 7.98767 32.7515 19.854 32.7515 34.4387C32.7515 49.0234 44.2774 60.8897 58.4436 60.8897C72.6099 60.8897 84.1357 49.0234 84.1357 34.4387C84.1357 19.854 72.6118 7.98767 58.4436 7.98767ZM58.4436 56.8203C46.4572 56.8203 36.7041 46.7791 36.7041 34.4387C36.7041 22.0983 46.4572 12.0571 58.4436 12.0571C70.43 12.0571 80.1831 22.0983 80.1831 34.4387C80.1831 46.7791 70.432 56.8203 58.4436 56.8203Z" fill="#00309D"/>
<rect x="0.728261" y="0.728261" width="115.543" height="67.5435" stroke="white" stroke-width="1.45652"/>
</svg>
