<svg width="120" height="69" viewBox="0 0 120 69" fill="none" xmlns="http://www.w3.org/2000/svg">
<path d="M77.2715 63.7006C78.726 62.2406 82.1199 58.2254 83.635 56.4004L81.8169 50.9252L85.4532 46.3625" stroke="#009ACF" stroke-width="2"/>
<path d="M105.453 46.3626L94.5437 43.6251L88.1802 42.7125V36.3248" stroke="#009ACF" stroke-width="2"/>
<path d="M18.1816 49.1002L19.9998 40.8874L29.0905 42.7125L25.4542 32.6747" stroke="#009ACF" stroke-width="2"/>
<path d="M20.9088 14.4241L29.0905 23.5494L22.727 28.112H13.6362L15.4544 35.4122H19.9998" stroke="#009ACF" stroke-width="2"/>
<path d="M98.1801 17.1617L93.6348 25.3745L98.1801 29.9371L93.6348 35.4123H106.362V29.9371" stroke="#009ACF" stroke-width="2"/>
<path d="M103.502 18.1428C79.4034 -6.04762 40.1953 -6.04762 16.0963 18.1428L0 34.2983L16.4957 50.8566C28.5441 62.9509 44.3709 69 60.1997 69C76.0284 69 91.8532 62.9529 103.904 50.8566L120 34.6991L103.502 18.1428ZM101.035 47.9796C78.5176 70.5809 41.8797 70.5809 19.3618 47.9796L5.73234 34.2983L18.9625 21.0179C41.4804 -1.5835 78.1183 -1.5835 100.636 21.0179L114.266 34.6991L101.035 47.9796Z" fill="#00309D"/>
<path d="M59.9422 7.98767C45.4127 7.98767 33.5913 19.854 33.5913 34.4387C33.5913 49.0234 45.4127 60.8897 59.9422 60.8897C74.4717 60.8897 86.2931 49.0234 86.2931 34.4387C86.2931 19.854 74.4737 7.98767 59.9422 7.98767ZM59.9422 56.8203C47.6485 56.8203 37.6453 46.7791 37.6453 34.4387C37.6453 22.0983 47.6485 12.0571 59.9422 12.0571C72.2359 12.0571 82.2391 22.0983 82.2391 34.4387C82.2391 46.7791 72.238 56.8203 59.9422 56.8203Z" fill="#00309D"/>
<path d="M65.4736 25.6356C63.111 21.9466 60.7141 18.904 60.6902 18.8737L60 18L59.3099 18.8737C59.286 18.904 56.8891 21.9466 54.5266 25.6356C51.2938 30.6832 49.6548 34.5051 49.6548 36.9952C49.6548 43.0632 54.2956 48 60.0001 48C65.7046 48 70.3454 43.0632 70.3454 36.9952C70.3454 34.5051 68.7063 30.6832 65.4736 25.6356Z" fill="#009ACF"/>
</svg>
