<?xml version="1.0" standalone="no"?>
<!DOCTYPE svg PUBLIC "-//W3C//DTD SVG 1.1//EN" "http://www.w3.org/Graphics/SVG/1.1/DTD/svg11.dtd" >
<svg xmlns="http://www.w3.org/2000/svg">
<metadata>Generated by IcoMoon</metadata>
<defs>
<font id="icomoon" horiz-adv-x="1024">
<font-face units-per-em="1024" ascent="960" descent="-64" />
<missing-glyph horiz-adv-x="1024" />
<glyph unicode="&#x20;" horiz-adv-x="512" d="" />
<glyph unicode="&#xe900;" glyph-name="close" d="M1011.886 947.884c-16.154 16.154-42.344 16.154-58.498 0l-941.272-941.27c-16.154-16.154-16.154-42.344 0-58.498 8.076-8.080 18.664-12.116 29.25-12.116s21.172 4.038 29.25 12.118l941.27 941.27c16.152 16.152 16.152 42.342 0 58.496zM1011.884 6.612l-941.272 941.27c-16.152 16.154-42.344 16.154-58.496 0-16.154-16.152-16.154-42.342 0-58.496l941.272-941.272c8.076-8.078 18.664-12.116 29.25-12.116s21.174 4.038 29.248 12.114c16.15 16.156 16.15 42.346-0.002 58.5z" />
<glyph unicode="&#xe901;" glyph-name="down-arrow" d="M962.878 685.346c-12.701 12.701-33.34 12.701-46.040 0l-404.837-405.631-405.631 405.631c-12.701 12.701-33.34 12.701-46.040 0s-12.701-33.34 0-46.040l427.857-427.857c6.35-6.35 14.288-9.526 23.020-9.526 7.938 0 16.67 3.175 23.020 9.526l427.857 427.857c13.495 12.701 13.495 33.34 0.794 46.040z" />
<glyph unicode="&#xe902;" glyph-name="printer" horiz-adv-x="973" d="M821.967 750.124h-26.305v58.563c-0.114 83.536-67.814 151.222-151.345 151.313h-317.759c-83.522-0.114-151.199-67.791-151.313-151.302v-58.574h-24.133c-83.435-0.228-150.998-67.862-151.112-151.302v-244.075c0.114-83.522 67.791-151.199 151.302-151.313h23.661v-191.857c0.114-41.671 33.865-75.422 75.525-75.536h469.396c41.671 0.114 75.422 33.865 75.536 75.525v191.868h26.546c83.522 0.114 151.199 67.791 151.313 151.302v244.075c-0.114 83.522-67.791 151.199-151.302 151.313h-0.011zM232.4 808.687c0.114 51.868 42.13 93.884 93.987 93.998h317.52c51.937-0.023 94.044-42.074 94.159-93.987v-58.574h-505.665zM738.065 11.134c-0.068-10.058-8.203-18.193-18.254-18.261h-469.19c-10.058 0.068-18.193 8.203-18.261 18.254v316.429h505.705zM915.925 354.505c-0.114-51.868-42.13-93.884-93.987-93.998h-26.316v67.049h37.768c15.827 0 28.658 12.831 28.658 28.658s-12.831 28.658-28.658 28.658h-700.337c-15.827 0-28.658-12.831-28.658-28.658s12.831-28.658 28.658-28.658h42.233v-67.049h-24.133c-51.868 0.114-93.884 42.13-93.998 93.987v244.075c0.114 51.868 42.13 93.884 93.987 93.998h670.826c51.868-0.114 93.884-42.13 93.998-93.987v-0.011z" />
<glyph unicode="&#xe903;" horiz-adv-x="837" d="M112.621 14.414c-18.942 0-34.298 15.356-34.298 34.298v0 817.62h-14.706c-18.906-0.026-34.226-15.346-34.252-34.25v-832.42c0 0 0 0 0 0 0-18.926 15.33-34.272 34.25-34.298h710.025c18.922 0.026 34.252 15.372 34.252 34.298 0 0 0 0 0 0v0 14.751z" />
<glyph unicode="&#xe904;" horiz-adv-x="837" d="M837.303-0.337v832.417c-0.155 35.098-28.565 63.508-63.648 63.663h-71.122v49.597c0 8.122-6.584 14.706-14.706 14.706v0c-8.122 0-14.706-6.584-14.706-14.706v0-49.597h-154.956v49.597c0 0.014 0 0.030 0 0.046 0 8.096-6.563 14.66-14.66 14.66-0.016 0-0.032 0-0.048 0h0.002c-8.122 0-14.706-6.584-14.706-14.706v0-49.597h-154.911v49.597c0 8.122-6.584 14.706-14.706 14.706v0c-8.122 0-14.706-6.584-14.706-14.706v0-49.597h-154.956v49.597c0 8.122-6.584 14.706-14.706 14.706v0c-8.122 0-14.706-6.584-14.706-14.706v0-49.597h-56.584c-35.098-0.155-63.508-28.565-63.663-63.648v-832.432c0.155-35.098 28.565-63.508 63.648-63.663h710.038c35.157 0.077 63.645 28.518 63.8 63.648v0.015zM29.365-0.337v832.417c0.026 18.906 15.346 34.226 34.25 34.252h56.587v-26.58c-28.295-6.877-48.976-31.997-48.976-61.946 0-2.601 0.156-5.165 0.459-7.684l-0.030 0.304c3.831-31.823 30.664-56.251 63.205-56.265h0.001c0.006 0 0.013 0 0.020 0 32.553 0 59.4 24.433 63.202 55.96l0.030 0.304c0.273 2.215 0.429 4.78 0.429 7.38 0 29.949-20.68 55.068-48.54 61.856l-0.436 0.090v26.58h154.956v-26.58c-28.295-6.877-48.976-31.997-48.976-61.946 0-2.601 0.156-5.165 0.459-7.684l-0.030 0.304c3.832-31.832 30.679-56.265 63.232-56.265 0.007 0 0.014 0 0.021 0h-0.001c32.542 0.013 59.375 24.441 63.177 55.96l0.030 0.304c0.274 2.218 0.43 4.786 0.43 7.391 0 29.933-20.658 55.041-48.495 61.845l-0.436 0.090v26.58h154.911v-26.58c-28.295-6.877-48.976-31.997-48.976-61.946 0-2.601 0.156-5.165 0.459-7.684l-0.030 0.304c3.832-31.832 30.679-56.265 63.232-56.265 0.007 0 0.014 0 0.021 0h-0.001c32.542 0.013 59.375 24.441 63.177 55.96l0.030 0.304c0.273 2.215 0.429 4.78 0.429 7.38 0 29.949-20.68 55.068-48.54 61.856l-0.436 0.090v26.58h154.956v-26.58c-28.295-6.877-48.976-31.997-48.976-61.946 0-2.601 0.156-5.165 0.459-7.684l-0.030 0.304c3.832-31.832 30.679-56.265 63.232-56.265 0.007 0 0.014 0 0.021 0h-0.001c32.542 0.013 59.375 24.441 63.177 55.96l0.030 0.304c0.273 2.215 0.429 4.78 0.429 7.38 0 29.949-20.68 55.068-48.54 61.856l-0.436 0.090v26.58h71.062c0 0 0 0 0 0 18.926 0 34.272-15.33 34.298-34.25v-832.419c0-18.942-15.356-34.298-34.298-34.298v0h-710.023c-18.903 0.052-34.206 15.388-34.206 34.298 0 0 0 0 0 0v0zM134.907 812.122c18.942 0 34.298-15.356 34.298-34.298v0c0-18.942-15.356-34.298-34.298-34.298v0c-18.922 0.026-34.252 15.372-34.252 34.298 0 0 0 0 0 0v0c0 18.942 15.356 34.298 34.298 34.298v0zM319.229 812.122c18.942 0 34.298-15.356 34.298-34.298v0c0-18.942-15.356-34.298-34.298-34.298v0c0 0 0 0 0 0-18.917 0-34.252 15.335-34.252 34.252 0 0.016 0 0.032 0 0.048v-0.002c0 18.942 15.356 34.298 34.298 34.298v0zM503.551 812.122c18.922-0.026 34.252-15.372 34.252-34.298 0 0 0 0 0 0v0c0 0 0 0 0 0 0-18.926-15.33-34.272-34.25-34.298h-0.002c-18.942 0-34.298 15.356-34.298 34.298v0c0.026 18.932 15.366 34.272 34.295 34.298h0.003zM687.873 812.122c18.922-0.026 34.252-15.372 34.252-34.298 0 0 0 0 0 0v0c0 0 0 0 0 0 0-18.926-15.33-34.272-34.25-34.298h-0.002c-18.922 0.026-34.252 15.372-34.252 34.298 0 0 0 0 0 0v0c0 0 0 0 0 0 0 18.926 15.33 34.272 34.25 34.298h0.002z" />
<glyph unicode="&#xe905;" horiz-adv-x="837" d="M687.964 136.763h-538.625c-8.122 0-14.706-6.584-14.706-14.706v0c0-8.122 6.584-14.706 14.706-14.706v0h538.625c8.122 0 14.706 6.584 14.706 14.706v0c0 8.122-6.584 14.706-14.706 14.706v0z" />
<glyph unicode="&#xe906;" horiz-adv-x="837" d="M687.964 406.030h-538.625c-8.122 0-14.706-6.584-14.706-14.706v0c0-8.122 6.584-14.706 14.706-14.706v0h538.625c8.122 0 14.706 6.584 14.706 14.706v0c0 8.122-6.584 14.706-14.706 14.706v0z" />
<glyph unicode="&#xe907;" horiz-adv-x="837" d="M687.964 540.481h-538.625c-8.122 0-14.706-6.584-14.706-14.706v0c0-8.122 6.584-14.706 14.706-14.706v0h538.625c8.122 0 14.706 6.584 14.706 14.706v0c0 8.122-6.584 14.706-14.706 14.706v0z" />
<glyph unicode="&#xe908;" horiz-adv-x="837" d="M687.964 271.351h-538.625c-8.122 0-14.706-6.584-14.706-14.706v0c0-8.122 6.584-14.706 14.706-14.706v0h538.625c8.122 0 14.706 6.584 14.706 14.706v0c0 8.122-6.584 14.706-14.706 14.706v0z" />
<glyph unicode="&#xe909;" glyph-name="search2" horiz-adv-x="989" d="M973.587 27.311l-243.694 253.484c60.117 71.293 96.652 164.183 96.652 265.607 0 228.247-185.031 413.278-413.278 413.278s-413.278-185.031-413.278-413.278c0-228.247 185.031-413.278 413.278-413.278 0.068 0 0.136 0 0.205 0h-0.011c0.306-0.001 0.668-0.001 1.031-0.001 88.382 0 170.217 28.032 237.099 75.691l-1.252-0.847 245.57-255.405c9.848-10.356 23.728-16.798 39.114-16.798 29.788 0 53.936 24.148 53.936 53.936 0 14.635-5.829 27.908-15.291 37.625l0.012-0.012zM413.415 852.129c168.773 0 305.59-136.817 305.59-305.59s-136.817-305.59-305.59-305.59c-168.773 0-305.59 136.817-305.59 305.59v0c0.182 168.699 136.89 305.407 305.572 305.59h0.018z" />
<glyph unicode="&#xe90a;" glyph-name="tycp-logo" horiz-adv-x="3339" d="M337.786-64l-337.786 505.722 387.072 184.498-168.915-355.328zM351.9 960l337.831-505.589-387.072-184.587 168.915 355.283zM850.454 681.427l-103.647-156.271h187.837v-367.215h161.213v367.215h121.5l104.403 156.271zM1822.008 681.427l-142.47-192.2-152.621 192.2h-205.245l276.035-349.273v-174.214h161.169v173.635l267.754 349.852zM2309.877 313.455c-1.141-0.041-2.482-0.064-3.829-0.064-29.389 0-56.183 11.11-76.412 29.36l0.101-0.090c-19.239 17.811-31.243 43.2-31.243 71.393 0 1.369 0.028 2.732 0.084 4.087l-0.006-0.194c-0.039 1.058-0.061 2.302-0.061 3.55 0 28.951 11.957 55.109 31.202 73.805l0.025 0.024c20.217 18.549 47.284 29.917 77.006 29.917 1.102 0 2.2-0.016 3.294-0.047l-0.161 0.004h222.253l103.647 156.271h-325.899c-2.952 0.113-6.418 0.177-9.9 0.177-71.444 0-136.555-27.116-185.603-71.618l0.23 0.206c-47.36-44.508-76.859-107.552-76.859-177.485 0-2.983 0.054-5.953 0.16-8.91l-0.012 0.428c-0.053-1.952-0.084-4.251-0.084-6.556 0-72.139 29.74-137.332 77.629-183.987l0.056-0.054c48.265-46.885 114.214-75.792 186.915-75.792 2.641 0 5.273 0.038 7.896 0.114l-0.385-0.009h222.253l103.736 155.514h-326.033zM3262.509 610.193c-48.842 44.297-113.975 71.413-185.442 71.413-3.488 0-6.962-0.065-10.419-0.193l0.499 0.015h-128.623c-2.753 0.097-5.987 0.152-9.235 0.152-71.852 0-137.377-27.090-186.918-71.614l0.257 0.227c-47.308-44.581-76.765-107.655-76.765-177.609 0-2.939 0.052-5.867 0.155-8.781l-0.012 0.422c-0.054-1.967-0.085-4.283-0.085-6.606 0-72.132 29.761-137.314 77.673-183.936l0.058-0.056c48.339-46.892 114.354-75.8 187.122-75.8 2.741 0 5.472 0.041 8.194 0.122l-0.399-0.009h128.623c2.154-0.062 4.689-0.097 7.232-0.097 73.074 0 139.344 29.133 187.829 76.417l-0.056-0.054c47.573 46.455 77.075 111.233 77.075 182.902 0 2.471-0.035 4.934-0.105 7.389l0.008-0.361c0.097 2.561 0.152 5.57 0.152 8.591 0 69.919-29.482 132.953-76.692 177.348l-0.126 0.118zM3148.177 342.127c-20.431-17.831-47.337-28.703-76.781-28.703-1.478 0-2.95 0.027-4.415 0.082l0.212-0.006h-128.623c-1.451-0.067-3.152-0.105-4.862-0.105-29.366 0-56.116 11.203-76.21 29.567l0.087-0.078c-19.238 17.659-31.253 42.922-31.253 70.992 0 1.448 0.032 2.888 0.095 4.32l-0.007-0.204c-0.039 1.057-0.061 2.298-0.061 3.544 0 29.036 12.048 55.258 31.418 73.939l0.031 0.030c19.719 18.495 46.323 29.856 75.58 29.856 1.776 0 3.542-0.042 5.298-0.125l-0.248 0.009h128.623c1.058 0.035 2.301 0.056 3.548 0.056 29.883 0 57.059-11.591 77.277-30.522l-0.063 0.058c19.263-18.434 31.236-44.35 31.236-73.062 0-1.33-0.026-2.655-0.077-3.973l0.006 0.19c0.049-1.165 0.077-2.533 0.077-3.906 0-28.315-11.843-53.865-30.845-71.965l-0.041-0.038z" />
<glyph unicode="&#xe90b;" glyph-name="wheelchair-access2" horiz-adv-x="920" d="M267.688 817.935c-5.003 11.657-7.912 25.223-7.912 39.469 0 0.417 0.002 0.833 0.007 1.249l-0.001-0.063c-0.001 0.135-0.001 0.295-0.001 0.454 0 14.047 2.908 27.415 8.155 39.535l-0.249-0.645c5.271 12.479 12.368 23.168 21.088 32.293l-0.038-0.040c8.677 8.975 18.964 16.328 30.406 21.604l0.627 0.259c11.026 5.029 23.914 7.961 37.487 7.961 0.494 0 0.988-0.004 1.48-0.012l-0.074 0.001c0.123 0.001 0.268 0.001 0.414 0.001 13.578 0 26.453-3.014 37.991-8.409l-0.551 0.232c12.242-5.628 22.706-12.971 31.622-21.865l-0.002 0.002c8.931-8.942 16.069-19.677 20.827-31.619l0.223-0.634c4.66-11.491 7.365-24.82 7.365-38.781 0-0.198-0.001-0.396-0.002-0.594v0.031c0.013-0.604 0.020-1.315 0.020-2.029 0-27.442-10.837-52.353-28.465-70.686l0.032 0.033c-17.481-18.538-42.208-30.080-69.63-30.080-14.040 0-27.374 3.026-39.384 8.461l0.602-0.244c-12.069 5.535-22.356 12.888-31.006 21.835l-0.027 0.028c-8.665 9.086-15.748 19.775-20.745 31.562l-0.26 0.69zM650.022 258.391c-3.075 0.895-6.607 1.41-10.26 1.41-8.167 0-15.733-2.574-21.931-6.956l0.119 0.080c-9.162-6.332-15.776-15.788-18.326-26.801l-0.059-0.302c-2.358-12.032-5.636-22.623-9.891-32.7l0.405 1.080c-9.657-26.757-22.651-49.91-38.803-70.464l0.407 0.538c-16.347-20.937-35.051-38.966-55.981-54.107l-0.8-0.551c-20.23-14.599-43.585-26.653-68.641-34.979l-1.827-0.526c-23.542-7.963-50.656-12.558-78.844-12.558-0.2 0-0.4 0-0.599 0.001h0.031c-0.441-0.003-0.963-0.004-1.485-0.004-35.984 0-70.181 7.65-101.054 21.412l1.579-0.629c-32.013 14.044-59.379 32.815-82.6 55.768l0.026-0.026c-23.121 23.067-41.922 50.452-55.092 80.845l-0.65 1.684c-12.965 29.996-20.506 64.922-20.506 101.61 0 28.11 4.427 55.186 12.622 80.57l-0.517-1.854c8.634 26.653 20.244 49.823 34.777 70.815l-0.582-0.889c15.019 21.774 32.385 40.489 52.082 56.436l0.498 0.39c19.646 15.876 42.206 29.294 66.553 39.239l1.792 0.648c10.933 3.332 19.631 11.085 24.159 21.123l0.098 0.243c2.453 5.177 3.885 11.248 3.885 17.654 0 17.218-10.347 32.019-25.162 38.524l-0.27 0.106c-5.469 2.536-11.87 4.015-18.617 4.015-5.188 0-10.171-0.875-14.811-2.484l0.317 0.096c-66.377-26.811-121.088-70.894-160.142-126.735l-0.76-1.147c-38.28-54.876-61.163-122.968-61.163-196.404 0-0.049 0-0.097 0-0.146v0.007c-0.006-0.751-0.010-1.639-0.010-2.527 0-47.879 10.059-93.409 28.18-134.591l-0.842 2.145c36.046-82.951 100.728-147.823 181.287-183.24l2.247-0.881c38.696-17.138 83.83-27.115 131.294-27.115 0.992 0 1.983 0.004 2.973 0.013l-0.152-0.001c0.321-0.001 0.701-0.002 1.081-0.002 37.196 0 72.991 6 106.469 17.085l-2.391-0.686c35.687 11.703 66.698 27.464 94.719 47.186l-1.123-0.75c29.209 20.557 54.191 44.577 75.113 71.872l0.595 0.809c20.773 26.919 37.883 58.057 49.779 91.661l0.723 2.342c4.632 11.438 8.965 25.309 12.232 39.587l0.371 1.926c0.883 3.162 1.391 6.793 1.391 10.542 0 8.279-2.475 15.98-6.725 22.404l0.094-0.151c-6.342 9.236-15.905 15.864-27.038 18.287l-0.291 0.053zM915.046 91.256l-160.947 290.545c-10.842 24.147-34.677 40.66-62.369 40.66-0.306 0-0.612-0.002-0.918-0.006h-178.609l-21.050 107.102h140.033c1.172-0.105 2.535-0.165 3.912-0.165 7.388 0 14.372 1.729 20.571 4.804l-0.27-0.121c7.862 3.719 14.109 9.777 17.968 17.266l0.101 0.215c3.416 5.988 5.43 13.159 5.43 20.799 0 4.275-0.631 8.404-1.804 12.297l0.078-0.301c-2.942 11.443-10.389 20.765-20.291 26.137l-0.217 0.108c-5.221 3.428-11.62 5.469-18.496 5.469-0.151 0-0.303-0.001-0.454-0.003h-164.402l-9.486 50.276c0.019 0.154 0.029 0.331 0.029 0.512 0 0.807-0.212 1.565-0.583 2.221l0.012-0.022c-0.359 0.633-0.571 1.391-0.571 2.199 0 0.18 0.011 0.358 0.031 0.533l-0.002-0.021-0.813 3.027c-4.936 16.894-14.708 31.083-27.702 41.384l-0.169 0.129c-12.634 10.22-28.898 16.408-46.607 16.408-0.433 0-0.864-0.004-1.295-0.011l0.065 0.001c-0.175 0.001-0.381 0.002-0.588 0.002-43.958 0-79.593-35.635-79.593-79.593 0-0.096 0-0.192 0.001-0.288v0.015c-0.010-0.284-0.015-0.618-0.015-0.953 0-2.779 0.385-5.468 1.104-8.017l-0.050 0.207h-1.039l57.865-289.371c2.548-16.583 10.964-30.846 23.021-40.885l0.107-0.086c11.558-9.862 26.671-15.863 43.186-15.863 0.349 0 0.697 0.003 1.044 0.008l-0.053-0.001c0.395-0.012 0.859-0.018 1.324-0.018 3.628 0 7.162 0.402 10.56 1.163l-0.321-0.060h238.733l138.858-251.426c4.187-9.435 10.666-17.205 18.749-22.83l0.178-0.117c7.955-5.493 17.804-8.774 28.419-8.774 0.363 0 0.726 0.004 1.087 0.011l-0.054-0.001c0.077 0 0.167-0.001 0.258-0.001 14.095 0 26.82 5.869 35.863 15.297l0.017 0.017c9.429 9.212 15.276 22.056 15.276 36.265 0 0.321-0.003 0.64-0.009 0.96l0.001-0.048c0.001 0.116 0.001 0.254 0.001 0.392 0 8.183-1.884 15.926-5.242 22.82l0.136-0.309z" />
<glyph unicode="&#xe90c;" glyph-name="left-arrow" horiz-adv-x="1457" d="M475.16 944.581c9.365 9.458 22.352 15.314 36.707 15.314 28.524 0 51.648-23.123 51.648-51.648 0-14.169-5.706-27.006-14.945-36.337l-372.185-372.025h1228.128c0.127 0.001 0.277 0.002 0.428 0.002 28.441 0 51.517-22.965 51.698-51.363v-0.017c-0.121-28.739-23.386-52.005-52.114-52.126h-1228.14l372.189-371.335c9.205-9.479 14.881-22.43 14.881-36.707s-5.676-27.227-14.893-36.72l0.012 0.013c-9.34-9.511-22.335-15.406-36.707-15.406s-27.367 5.895-36.699 15.398l-460.282 460.016c-9.198 9.344-14.877 22.176-14.877 36.333s5.679 26.989 14.884 36.34l-0.007-0.007z" />
<glyph unicode="&#xe90d;" glyph-name="left-arrow-1" horiz-adv-x="720" d="M709.021 625.968c6.649-6.583 10.766-15.713 10.766-25.804 0-20.052-16.256-36.308-36.308-36.308-9.961 0-18.985 4.011-25.545 10.506l-261.529 261.642v-863.36c0.001-0.089 0.001-0.195 0.001-0.301 0-19.993-16.144-36.216-36.108-36.343h-0.012c-20.204 0.085-36.559 16.44-36.644 36.636v863.368l-261.045-261.645c-6.664-6.471-15.768-10.461-25.804-10.461s-19.141 3.99-25.813 10.47l0.009-0.009c-6.686 6.566-10.83 15.701-10.83 25.804s4.144 19.239 10.825 25.799l323.385 323.573c6.569 6.466 15.589 10.458 25.542 10.458s18.973-3.992 25.547-10.463l-0.005 0.005z" />
<glyph unicode="&#xe90e;" glyph-name="left-arrow-2" horiz-adv-x="1457" d="M981.478-48.581c-9.365-9.458-22.352-15.314-36.707-15.314-28.524 0-51.648 23.123-51.648 51.648 0 14.169 5.706 27.006 14.945 36.337l372.185 372.025h-1228.128c-0.127-0.001-0.277-0.002-0.428-0.002-28.441 0-51.517 22.965-51.698 51.363v0.017c0.121 28.739 23.386 52.005 52.114 52.126h1228.14l-372.189 371.335c-9.205 9.479-14.881 22.43-14.881 36.707s5.676 27.227 14.893 36.72l-0.012-0.013c9.34 9.511 22.335 15.406 36.707 15.406s27.367-5.895 36.699-15.398l460.282-460.016c9.198-9.344 14.877-22.176 14.877-36.333s-5.679-26.989-14.884-36.34l0.007 0.007z" />
<glyph unicode="&#xe90f;" glyph-name="logoReport2" horiz-adv-x="4120" d="M2428.797 495.496c24.985 18.88 40.964 48.535 40.964 81.923 0 0.305-0.001 0.611-0.004 0.915v-0.047c0.052 1.112 0.082 2.416 0.082 3.727 0 22.546-8.826 43.030-23.212 58.186l0.035-0.037c-16.759 14.81-38.918 23.852-63.188 23.852-2.759 0-5.491-0.117-8.19-0.346l0.352 0.024c-1.978 0.144-4.284 0.227-6.61 0.227-23.382 0-44.822-8.312-61.527-22.143l0.161 0.13c-16.552-16.443-28.52-37.481-33.83-61.041l-0.158-0.835c-1.518-6.682-5.078-12.368-9.978-16.522l-0.044-0.036c-4.293-3.751-9.934-6.054-16.113-6.1h-68.858c-0.227-0.008-0.494-0.012-0.762-0.012-6.446 0-12.31 2.49-16.683 6.562l0.015-0.014c-3.86 3.623-6.264 8.757-6.264 14.453 0 0.896 0.060 1.778 0.175 2.643l-0.011-0.101c2.372 36.219 14.413 69.213 33.538 96.946l-0.421-0.646c20.010 29.37 46.396 52.966 77.271 69.163l1.163 0.556c30.557 16.209 66.804 25.726 105.275 25.726 0.981 0 1.96-0.006 2.938-0.019l-0.148 0.001c2.091 0.070 4.548 0.11 7.015 0.11 40.349 0 78.195-10.711 110.852-29.445l-1.088 0.575c30.4-17.74 54.829-42.727 71.403-72.666l0.495-0.975c14.964-26.789 23.829-58.751 23.966-92.772v-0.041c0.018-1.106 0.029-2.411 0.029-3.718 0-19.079-2.234-37.637-6.454-55.425l0.325 1.625c-5.609-19.574-14.584-36.594-26.364-51.264l0.219 0.282c-17.66-21.977-37.108-41.287-58.504-58.247l-0.757-0.579-161.226-147.282h242.274c0.067 0.001 0.146 0.001 0.225 0.001 6.417 0 12.209-2.672 16.326-6.965l0.008-0.008c4.301-4.124 6.973-9.916 6.973-16.333 0-0.079 0-0.158-0.001-0.237v0.012-61.876c0.001-0.067 0.001-0.146 0.001-0.225 0-6.417-2.672-12.209-6.965-16.326l-0.008-0.008c-4.124-4.301-9.916-6.973-16.333-6.973-0.079 0-0.158 0-0.237 0.001h-406.974c-0.067-0.001-0.146-0.001-0.225-0.001-6.417 0-12.209 2.672-16.326 6.965l-0.008 0.008c-4.301 4.124-6.973 9.916-6.973 16.333 0 0.079 0 0.158 0.001 0.237v-0.012 53.161c0.873 17.151 9.94 32.012 23.335 40.839l0.195 0.121zM3141.676 381.331c0.004-0.518 0.005-1.131 0.005-1.744 0-65.117-22.494-124.981-60.135-172.244l0.432 0.562q-54.468-62.747-174.734-62.747t-174.734 62.747c-37.209 46.702-59.703 106.565-59.703 171.682 0 0.613 0.002 1.226 0.006 1.839v-0.094q-0.871 21.787-0.871 75.82 0 53.161 0.871 74.948 10.458 240.531 234.431 240.531 120.266 0 174.734-62.747c37.209-46.702 59.703-106.565 59.703-171.682 0-0.613-0.002-1.226-0.006-1.839v0.094q1.743-43.574 1.743-77.563t-1.743-77.563zM2907.245 254.094c2.697-0.249 5.834-0.391 9.003-0.391 30.185 0 57.362 12.877 76.338 33.437l0.065 0.071c19.519 27.421 31.25 61.567 31.374 98.448v0.030q1.743 21.787 1.743 73.205t-1.743 73.205c-0.123 36.911-11.854 71.057-31.731 99.008l0.358-0.529c-19.041 20.631-46.218 33.508-76.403 33.508-3.169 0-6.306-0.142-9.403-0.42l0.4 0.029c-2.697 0.249-5.834 0.391-9.003 0.391-30.185 0-57.362-12.877-76.338-33.437l-0.065-0.071c-19.519-27.421-31.25-61.567-31.374-98.448v-0.030q-1.743-43.574-1.743-73.205t1.743-73.205c0.123-36.911 11.854-71.057 31.731-99.008l-0.358 0.529c19.041-20.631 46.218-33.508 76.403-33.508 3.169 0 6.306 0.142 9.403 0.42l-0.4-0.029zM3195.708 566.958c-3.212 4.035-5.173 9.191-5.229 14.803v0.013c-0.002 0.102-0.003 0.222-0.003 0.342 0 7.453 3.773 14.026 9.513 17.911l0.076 0.049 189.113 149.025q6.972 5.229 14.815 10.022c4.433 2.91 9.842 4.682 15.658 4.793h68.005c0.067 0.001 0.146 0.001 0.225 0.001 6.417 0 12.209-2.672 16.326-6.965l0.008-0.008c4.301-4.124 6.973-9.916 6.973-16.333 0-0.079 0-0.158-0.001-0.237v0.012-562.982c0.001-0.067 0.001-0.146 0.001-0.225 0-6.417-2.672-12.209-6.965-16.326l-0.008-0.008c-4.124-4.301-9.916-6.973-16.333-6.973-0.079 0-0.158 0-0.237 0.001h-70.579c-0.067-0.001-0.146-0.001-0.225-0.001-6.417 0-12.209 2.672-16.326 6.965l-0.008 0.008c-4.301 4.124-6.973 9.916-6.973 16.333 0 0.079 0 0.158 0.001 0.237v-0.012 430.516l-123.751-96.735c-3.656-3.246-8.497-5.229-13.802-5.229-0.050 0-0.1 0-0.149 0.001h0.008c-7.814 0-14.754 3.739-19.129 9.526l-0.044 0.060zM3669.798 475.452c-31.639 28.009-51.483 68.723-51.483 114.072 0 1.565 0.024 3.124 0.071 4.678l-0.005-0.228c-0.011 0.691-0.017 1.507-0.017 2.325 0 34.001 10.604 65.524 28.684 91.445l-0.344-0.521c19.61 27.658 46.011 49.299 76.816 62.724l1.182 0.459c31.795 14.070 68.877 22.261 107.872 22.261 1.6 0 3.197-0.014 4.79-0.041l-0.24 0.003c1.354 0.024 2.95 0.038 4.55 0.038 38.995 0 76.077-8.191 109.619-22.946l-1.747 0.686c31.988-13.884 58.388-35.525 77.616-62.615l0.382-0.568c17.737-25.4 28.34-56.924 28.34-90.925 0-0.817-0.006-1.633-0.018-2.448l0.001 0.123c0.028-1.103 0.045-2.402 0.045-3.704 0-45.576-19.822-86.522-51.314-114.688l-0.148-0.13c22.482-15.577 40.695-35.74 53.583-59.238l0.449-0.894c12.089-22.522 19.191-49.276 19.191-77.69 0-0.874-0.007-1.747-0.020-2.619l0.002 0.131c0.022-1.018 0.034-2.217 0.034-3.42 0-35.839-11.094-69.087-30.036-96.497l0.371 0.567c-21.193-29.356-49.668-52.229-82.818-66.19l-1.281-0.479c-35.5-15.199-76.811-24.036-120.185-24.036-2.326 0-4.647 0.025-6.961 0.076l0.345-0.006c-1.969-0.045-4.29-0.070-6.616-0.070-43.374 0-84.685 8.837-122.229 24.809l2.044-0.773c-34.43 14.44-62.905 37.313-83.706 66.098l-0.393 0.571c-18.571 26.843-29.665 60.091-29.665 95.93 0 1.202 0.012 2.402 0.037 3.599l-0.003-0.179c-0.012 0.764-0.019 1.665-0.019 2.568 0 28.337 6.936 55.055 19.202 78.547l-0.446-0.938c13.227 24.576 31.635 44.797 53.876 59.758l0.592 0.375zM3837.124 524.255c1.171-0.037 2.549-0.058 3.931-0.058 24.897 0 48.201 6.821 68.144 18.697l-0.613-0.338c17.805 9.969 29.643 28.713 29.643 50.222 0 0.42-0.005 0.84-0.014 1.258l0.001-0.062c0.008 0.356 0.012 0.775 0.012 1.196 0 21.509-11.838 40.254-29.354 50.073l-0.289 0.149c-19.331 11.538-42.635 18.359-67.531 18.359-1.382 0-2.759-0.021-4.132-0.063l0.201 0.005c-1.171 0.037-2.549 0.058-3.931 0.058-24.897 0-48.201-6.821-68.144-18.697l0.613 0.338c-17.805-9.969-29.643-28.713-29.643-50.222 0-0.42 0.005-0.84 0.014-1.258l-0.001 0.062c-0.008-0.356-0.012-0.775-0.012-1.196 0-21.509 11.838-40.254 29.354-50.073l0.289-0.149c19.331-11.538 42.635-18.359 67.531-18.359 1.382 0 2.759 0.021 4.132 0.063l-0.201-0.005zM3837.124 254.094c1.409-0.043 3.067-0.067 4.731-0.067 30.119 0 58.382 7.944 82.809 21.852l-0.827-0.433c21.637 11.19 36.17 33.4 36.17 59.004 0 0.244-0.001 0.487-0.004 0.73v-0.037c0.001 0.112 0.001 0.245 0.001 0.379 0 25.338-14.351 47.325-35.369 58.275l-0.364 0.172c-23.559 13.484-51.783 21.435-81.864 21.435-1.859 0-3.71-0.030-5.554-0.091l0.269 0.007c-1.575 0.053-3.427 0.084-5.285 0.084-30.081 0-58.305-7.951-82.685-21.867l0.821 0.431c-21.381-11.122-35.732-33.109-35.732-58.447 0-0.133 0-0.266 0.001-0.399v0.020c-0.002-0.206-0.004-0.449-0.004-0.693 0-25.605 14.534-47.815 35.801-58.83l0.369-0.174c23.6-13.474 51.863-21.418 81.982-21.418 1.664 0 3.322 0.024 4.974 0.072l-0.243-0.006zM163.404 747.117c2.743 0.226 5.937 0.355 9.161 0.355 27.773 0 53.313-9.563 73.505-25.576l-0.245 0.188c17.091-17.625 27.626-41.692 27.626-68.22 0-2.721-0.111-5.416-0.328-8.081l0.023 0.35v-125.451c0.002-0.071 0.003-0.155 0.003-0.238 0-2.631-1.021-5.024-2.688-6.804l0.005 0.006c-1.717-1.794-4.13-2.909-6.804-2.909-0.159 0-0.317 0.004-0.473 0.012l0.022-0.001h-33.117c-0.050-0.001-0.109-0.001-0.168-0.001-2.692 0-5.125 1.11-6.867 2.897l-0.002 0.002c-1.789 1.743-2.899 4.176-2.899 6.869 0 0.059 0.001 0.118 0.002 0.177v-0.009 123.359c0.322 2.175 0.505 4.686 0.505 7.24 0 28.794-23.342 52.137-52.137 52.137-2.669 0-5.291-0.201-7.852-0.587l0.288 0.036h-28.062c-2.301-9.554-4.341-21.418-5.673-33.494l-0.122-1.365c-0.859-8.518-1.349-18.41-1.349-28.416 0-2.817 0.039-5.625 0.116-8.424l-0.009 0.412 2.179-110.941c0.002-0.071 0.003-0.155 0.003-0.238 0-2.631-1.021-5.024-2.688-6.804l0.005 0.006c-1.714-1.776-4.116-2.878-6.775-2.878-0.238 0-0.474 0.009-0.708 0.026l0.031-0.002-72.857 0.414c-0.050-0.001-0.109-0.001-0.168-0.001-2.692 0-5.125 1.11-6.867 2.897l-0.002 0.002c-1.789 1.743-2.899 4.176-2.899 6.869 0 0.059 0.001 0.118 0.002 0.177v-0.009 22.768c-0.006 0.129-0.010 0.279-0.010 0.431 0 2.673 1.114 5.086 2.904 6.8l0.003 0.003c1.775 1.662 4.168 2.683 6.799 2.683 0.084 0 0.167-0.001 0.251-0.003h-0.012l32.681-0.414v77.018c-0.076 2.728-0.12 5.939-0.12 9.16 0 9.966 0.415 19.835 1.229 29.59l-0.086-1.276c1.271 13.143 3.393 25.044 6.37 36.602l-0.357-1.633h-23.596c-0.050-0.001-0.109-0.001-0.168-0.001-2.692 0-5.125 1.11-6.867 2.897l-0.002 0.002c-1.789 1.743-2.899 4.176-2.899 6.869 0 0.059 0.001 0.118 0.002 0.177v-0.009 24.423c-0.007 0.135-0.011 0.293-0.011 0.451 0 2.674 1.115 5.087 2.905 6.8l0.003 0.003c1.775 1.662 4.168 2.683 6.799 2.683 0.084 0 0.167-0.001 0.251-0.003h-0.012zM337.702 510.747c-0.050-0.001-0.109-0.001-0.168-0.001-2.692 0-5.125 1.11-6.867 2.897l-0.002 0.002c-1.789 1.743-2.899 4.176-2.899 6.869 0 0.059 0.001 0.118 0.002 0.177v-0.009 216.5c-0.007 0.135-0.011 0.293-0.011 0.451 0 2.674 1.115 5.087 2.905 6.8l0.003 0.003c1.775 1.662 4.168 2.683 6.799 2.683 0.084 0 0.167-0.001 0.251-0.003h35.174c0.050 0.001 0.109 0.001 0.168 0.001 2.692 0 5.125-1.11 6.867-2.897l0.002-0.002c1.789-1.743 2.899-4.176 2.899-6.869 0-0.059-0.001-0.118-0.002-0.177v0.009-216.5c0.001-0.050 0.001-0.109 0.001-0.168 0-2.692-1.11-5.125-2.897-6.867l-0.002-0.002c-1.743-1.789-4.176-2.899-6.868-2.899-0.052 0-0.103 0-0.155 0.001h0.008zM446.987 607.613c-0.050-0.001-0.109-0.001-0.168-0.001-2.692 0-5.125 1.11-6.867 2.897l-0.002 0.002c-1.789 1.743-2.899 4.176-2.899 6.869 0 0.059 0.001 0.118 0.002 0.177v-0.009 119.634c-0.007 0.135-0.011 0.293-0.011 0.451 0 2.674 1.115 5.087 2.905 6.8l0.003 0.003c1.775 1.662 4.168 2.683 6.799 2.683 0.084 0 0.167-0.001 0.251-0.003h35.174c0.050 0.001 0.109 0.001 0.168 0.001 2.692 0 5.125-1.11 6.867-2.897l0.002-0.002c1.789-1.743 2.899-4.176 2.899-6.869 0-0.059-0.001-0.118-0.002-0.177v0.009-119.677c0.001-0.050 0.001-0.109 0.001-0.168 0-2.692-1.11-5.125-2.897-6.867l-0.002-0.002c-1.743-1.789-4.176-2.899-6.869-2.899-0.059 0-0.118 0.001-0.177 0.002h0.009zM674.685 510.747c-0.050-0.001-0.109-0.001-0.168-0.001-2.692 0-5.125 1.11-6.867 2.897l-0.002 0.002c-1.789 1.743-2.899 4.176-2.899 6.869 0 0.059 0.001 0.118 0.002 0.177v-0.009 123.359c0.336 2.221 0.528 4.784 0.528 7.391 0 28.698-23.264 51.963-51.963 51.963-2.608 0-5.17-0.192-7.675-0.563l0.284 0.034h-58.368c-0.050-0.001-0.109-0.001-0.168-0.001-2.692 0-5.125 1.11-6.867 2.897l-0.002 0.002c-1.789 1.743-2.899 4.176-2.899 6.869 0 0.059 0.001 0.118 0.002 0.177v-0.009 24.423c-0.007 0.135-0.011 0.293-0.011 0.451 0 2.674 1.115 5.087 2.905 6.8l0.003 0.003c1.775 1.662 4.168 2.683 6.799 2.683 0.084 0 0.167-0.001 0.251-0.003h60.426c2.809 0.232 6.081 0.364 9.383 0.364 27.729 0 53.282-9.32 73.695-24.999l-0.287 0.212c17.124-17.59 27.684-41.644 27.684-68.164 0-2.963-0.132-5.896-0.39-8.792l0.027 0.374v-125.473c0.001-0.050 0.001-0.109 0.001-0.168 0-2.692-1.11-5.125-2.897-6.867l-0.002-0.002c-1.743-1.789-4.176-2.899-6.868-2.899-0.044 0-0.088 0-0.132 0.001h0.007zM782.728 510.747c-0.069-0.002-0.151-0.003-0.233-0.003-2.693 0-5.127 1.11-6.868 2.898l-0.002 0.002c-1.789 1.743-2.899 4.176-2.899 6.869 0 0.059 0.001 0.118 0.002 0.177v-0.009 216.5c-0.007 0.135-0.011 0.293-0.011 0.451 0 2.674 1.115 5.087 2.905 6.8l0.003 0.003c1.775 1.662 4.168 2.683 6.799 2.683 0.084 0 0.167-0.001 0.251-0.003h88.989c2.852 0.242 6.173 0.38 9.526 0.38 27.812 0 53.408-9.492 73.723-25.414l-0.261 0.197c17.016-18 27.478-42.352 27.478-69.148 0-3.054-0.136-6.077-0.402-9.062l0.028 0.386v-123.773c0.001-0.050 0.001-0.109 0.001-0.168 0-2.692-1.11-5.125-2.897-6.867l-0.002-0.002c-1.82-1.794-4.32-2.902-7.080-2.902-0.1 0-0.2 0.001-0.299 0.004h-33.102c-0.050-0.001-0.109-0.001-0.168-0.001-2.692 0-5.125 1.11-6.867 2.897l-0.002 0.002c-1.789 1.743-2.899 4.176-2.899 6.869 0 0.059 0.001 0.118 0.002 0.177v-0.009 123.359c0.336 2.221 0.528 4.784 0.528 7.391 0 28.698-23.264 51.963-51.963 51.963-2.608 0-5.17-0.192-7.675-0.563l0.284 0.034h-43.466v-182.141c0.001-0.050 0.001-0.109 0.001-0.168 0-2.692-1.11-5.125-2.897-6.867l-0.002-0.002c-1.825-1.82-4.343-2.945-7.124-2.945-0.1 0-0.199 0.001-0.299 0.004h0.015zM1237.667 525.998c1.538-1.732 2.479-4.024 2.484-6.535v-0.001c0.002-0.069 0.003-0.149 0.003-0.23 0-2.337-0.951-4.452-2.486-5.979v0c-1.454-1.544-3.512-2.506-5.794-2.506 0 0-0.001 0-0.001 0h-34.86c-0.235-0.015-0.51-0.023-0.787-0.023-2.533 0-4.902 0.705-6.92 1.93l0.059-0.033c-2.152 1.6-3.999 3.447-5.549 5.529l-0.050 0.071-83.51 118.893c-8.819-6.695-15.502-15.784-19.121-26.298l-0.117-0.391c-3.004-9.504-4.735-20.434-4.735-31.768 0-0.443 0.003-0.886 0.008-1.328l-0.001 0.067v-56.298c0.005-0.12 0.008-0.261 0.008-0.403 0-2.716-1.029-5.191-2.717-7.058l0.008 0.009c-1.717-1.795-4.131-2.911-6.806-2.911-0.173 0-0.346 0.005-0.517 0.014l0.024-0.001h-28.149c-0.050-0.001-0.109-0.001-0.168-0.001-2.692 0-5.125 1.11-6.867 2.897l-0.002 0.002c-1.796 1.82-2.904 4.322-2.904 7.082 0 0.13 0.002 0.259 0.007 0.387l-0.001-0.019v56.647c-0.040 1.255-0.062 2.73-0.062 4.211 0 18.44 3.518 36.058 9.919 52.22l-0.335-0.96c8.229 17.077 20.663 31.007 35.989 40.811l0.395 0.236-40.568 57.54c-1.461 1.772-2.381 4.038-2.483 6.514l-0.001 0.022c-0.002 0.069-0.003 0.149-0.003 0.23 0 2.337 0.951 4.452 2.486 5.979v0c1.528 1.536 3.642 2.487 5.979 2.487 0.081 0 0.161-0.001 0.242-0.003h33.519c5.607-0.28 10.445-3.327 13.206-7.794l0.041-0.071 76.582-108.043c6.793 3.857 12.455 8.928 16.868 14.97l0.104 0.15c3.192 4.578 5.487 10.023 6.502 15.906l0.034 0.239c0.798 5.595 1.254 12.057 1.254 18.625 0 0.652-0.004 1.303-0.013 1.953l0.001-0.098v53.814c-0.004 0.11-0.007 0.239-0.007 0.369 0 2.761 1.109 5.262 2.906 7.084l-0.001-0.001c1.743 1.789 4.176 2.899 6.869 2.899 0.059 0 0.118-0.001 0.177-0.002h29.796c0.11 0.004 0.239 0.007 0.369 0.007 2.761 0 5.262-1.109 7.084-2.906l-0.001 0.001c1.796-1.82 2.904-4.322 2.904-7.082 0-0.13-0.002-0.259-0.007-0.387l0.001 0.019v-55.884c0.015-0.667 0.023-1.454 0.023-2.242 0-16.588-3.744-32.302-10.434-46.342l0.28 0.652c-9.244-16.256-22.396-29.338-38.214-38.239l-0.501-0.259zM1393.729 510.747c-0.050-0.001-0.109-0.001-0.168-0.001-2.692 0-5.125 1.11-6.867 2.897l-0.002 0.002c-1.789 1.743-2.899 4.176-2.899 6.869 0 0.059 0.001 0.118 0.002 0.177v-0.009 216.5c-0.007 0.135-0.011 0.293-0.011 0.451 0 2.674 1.115 5.087 2.905 6.8l0.003 0.003c1.775 1.662 4.168 2.683 6.799 2.683 0.084 0 0.167-0.001 0.251-0.003h88.989c2.852 0.242 6.173 0.38 9.526 0.38 27.812 0 53.408-9.492 73.723-25.414l-0.261 0.197c17.016-18 27.478-42.352 27.478-69.148 0-3.054-0.136-6.077-0.402-9.062l0.028 0.386v-123.773c0.001-0.050 0.001-0.109 0.001-0.168 0-2.692-1.11-5.125-2.897-6.867l-0.002-0.002c-1.82-1.795-4.322-2.904-7.082-2.904-0.122 0-0.244 0.002-0.365 0.006h-33.099c-0.050-0.001-0.109-0.001-0.168-0.001-2.692 0-5.125 1.11-6.867 2.897l-0.002 0.002c-1.789 1.743-2.899 4.176-2.899 6.869 0 0.059 0.001 0.118 0.002 0.177v-0.009 123.359c0.336 2.221 0.528 4.784 0.528 7.391 0 28.698-23.264 51.963-51.963 51.963-2.608 0-5.17-0.192-7.675-0.563l0.284 0.034h-43.466v-182.141c0.001-0.050 0.001-0.109 0.001-0.168 0-2.692-1.11-5.125-2.897-6.867l-0.002-0.002c-1.825-1.82-4.343-2.945-7.124-2.945-0.1 0-0.199 0.001-0.299 0.004h0.015zM1657.006 510.747c-0.050-0.001-0.109-0.001-0.168-0.001-2.692 0-5.125 1.11-6.867 2.897l-0.002 0.002c-1.764 1.739-2.856 4.156-2.856 6.827 0 0.074 0.001 0.148 0.003 0.221v-0.011 216.5c-0.007 0.135-0.011 0.293-0.011 0.451 0 2.674 1.115 5.087 2.905 6.8l0.003 0.003c1.775 1.662 4.168 2.683 6.799 2.683 0.084 0 0.167-0.001 0.251-0.003h35.174c0.050 0.001 0.109 0.001 0.168 0.001 2.692 0 5.125-1.11 6.867-2.897l0.002-0.002c1.789-1.743 2.899-4.176 2.899-6.869 0-0.059-0.001-0.118-0.002-0.177v0.009-216.5c0.001-0.050 0.001-0.109 0.001-0.168 0-2.692-1.11-5.125-2.897-6.867l-0.002-0.002c-1.743-1.79-4.177-2.9-6.87-2.9-0.074 0-0.148 0.001-0.222 0.003h0.011zM1935.186 747.117c0.050 0.001 0.109 0.001 0.168 0.001 2.692 0 5.125-1.11 6.867-2.897l0.002-0.002c1.789-1.743 2.899-4.176 2.899-6.869 0-0.059-0.001-0.118-0.002-0.177v0.009-24.423c0.001-0.050 0.001-0.109 0.001-0.168 0-2.692-1.11-5.125-2.897-6.867l-0.002-0.002c-1.743-1.789-4.176-2.899-6.869-2.899-0.059 0-0.118 0.001-0.177 0.002h-22.258c-3.999-5.759-6.899-12.592-8.232-19.97l-0.047-0.314c-1.846-8.458-2.903-18.174-2.903-28.136 0-0.441 0.002-0.882 0.006-1.322v0.067-133.294c-0.025-2.635-1.314-4.963-3.289-6.412l-0.022-0.016c-1.983-1.668-4.564-2.681-7.382-2.681-0.055 0-0.11 0-0.165 0.001h-33.109c-0.101-0.004-0.22-0.006-0.34-0.006-2.406 0-4.591 0.949-6.2 2.493l0.003-0.003c-1.541 1.606-2.49 3.79-2.49 6.196 0 0.119 0.002 0.238 0.007 0.357l-0.001-0.017v137.107c-0.211 2.187-0.331 4.729-0.331 7.299 0 14.17 3.65 27.488 10.062 39.065l-0.21-0.414h-104.404c-0.050-0.001-0.109-0.001-0.168-0.001-2.692 0-5.125 1.11-6.867 2.897l-0.002 0.002c-1.789 1.743-2.899 4.176-2.899 6.869 0 0.059 0.001 0.118 0.002 0.177v-0.009 24.423c-0.007 0.135-0.011 0.293-0.011 0.451 0 2.674 1.115 5.087 2.905 6.8l0.003 0.003c1.775 1.662 4.168 2.683 6.799 2.683 0.084 0 0.167-0.001 0.251-0.003h-0.012zM650.262 398.521c2.731 0.224 5.911 0.352 9.122 0.352 27.771 0 53.309-9.562 73.501-25.573l-0.245 0.188c17.091-17.625 27.626-41.692 27.626-68.22 0-2.721-0.111-5.416-0.328-8.081l0.023 0.35v-125.429c0.001-0.064 0.002-0.14 0.002-0.216 0-2.642-1.029-5.044-2.709-6.827l0.005 0.005c-1.717-1.794-4.13-2.909-6.804-2.909-0.159 0-0.317 0.004-0.473 0.012l0.022-0.001h-33.117c-0.050-0.001-0.109-0.001-0.168-0.001-2.692 0-5.125 1.11-6.867 2.897l-0.002 0.002c-1.789 1.743-2.899 4.176-2.899 6.869 0 0.059 0.001 0.118 0.002 0.177v-0.009 123.338c0.322 2.175 0.505 4.686 0.505 7.24 0 28.794-23.342 52.137-52.137 52.137-2.669 0-5.291-0.201-7.852-0.587l0.288 0.036h-28.127c-2.301-9.554-4.341-21.418-5.673-33.494l-0.122-1.365c-0.859-8.518-1.349-18.41-1.349-28.415 0-2.818 0.039-5.626 0.116-8.425l-0.009 0.412 2.070-110.941c0.002-0.071 0.003-0.155 0.003-0.238 0-2.631-1.021-5.024-2.688-6.804l0.005 0.006c-1.717-1.794-4.13-2.909-6.804-2.909-0.159 0-0.317 0.004-0.473 0.012l0.022-0.001-72.857 0.414c-0.050-0.001-0.109-0.001-0.168-0.001-2.692 0-5.125 1.11-6.867 2.897l-0.002 0.002c-1.789 1.743-2.899 4.176-2.899 6.869 0 0.059 0.001 0.118 0.002 0.177v-0.009 22.811c-0.006 0.129-0.010 0.279-0.010 0.431 0 2.673 1.114 5.086 2.904 6.8l0.003 0.003c1.775 1.662 4.168 2.683 6.799 2.683 0.084 0 0.167-0.001 0.251-0.003h-0.012l32.681-0.414v77.018c-0.073 2.667-0.114 5.807-0.114 8.957 0 10.038 0.421 19.977 1.247 29.801l-0.087-1.283c1.263 13.139 3.377 25.042 6.347 36.601l-0.356-1.632h-23.596c-0.050-0.001-0.109-0.001-0.168-0.001-2.692 0-5.125 1.11-6.867 2.897l-0.002 0.002c-1.789 1.743-2.899 4.176-2.899 6.869 0 0.059 0.001 0.118 0.002 0.177v-0.009 24.423c-0.007 0.135-0.011 0.293-0.011 0.451 0 2.674 1.115 5.087 2.905 6.8l0.003 0.003c1.775 1.662 4.168 2.683 6.799 2.683 0.084 0 0.167-0.001 0.251-0.003h-0.012zM822.054 259.083c-0.050-0.001-0.109-0.001-0.168-0.001-2.692 0-5.125 1.11-6.867 2.897l-0.002 0.002c-1.789 1.743-2.899 4.176-2.899 6.869 0 0.059 0.001 0.118 0.002 0.177v-0.009 119.568c-0.007 0.135-0.011 0.293-0.011 0.451 0 2.674 1.115 5.087 2.905 6.8l0.003 0.003c1.775 1.662 4.168 2.683 6.799 2.683 0.084 0 0.167-0.001 0.251-0.003h35.174c0.050 0.001 0.109 0.001 0.168 0.001 2.692 0 5.125-1.11 6.867-2.897l0.002-0.002c1.789-1.743 2.899-4.176 2.899-6.869 0-0.059-0.001-0.118-0.002-0.177v0.009-119.677c0.001-0.050 0.001-0.109 0.001-0.168 0-2.692-1.11-5.125-2.897-6.867l-0.002-0.002c-1.743-1.789-4.176-2.899-6.869-2.899-0.059 0-0.118 0.001-0.177 0.002h0.009zM1098.164 398.521c0.050 0.001 0.109 0.001 0.168 0.001 2.692 0 5.125-1.11 6.867-2.897l0.002-0.002c1.789-1.743 2.899-4.176 2.899-6.869 0-0.059-0.001-0.118-0.002-0.177v0.009-24.423c0.001-0.050 0.001-0.109 0.001-0.168 0-2.692-1.11-5.125-2.897-6.867l-0.002-0.002c-1.743-1.789-4.176-2.899-6.869-2.899-0.059 0-0.118 0.001-0.177 0.002h-22.345c-3.999-5.759-6.899-12.592-8.232-19.97l-0.047-0.314c-1.846-8.458-2.903-18.175-2.903-28.138 0-0.44 0.002-0.88 0.006-1.32v0.067-133.294c-0.025-2.635-1.314-4.963-3.289-6.412l-0.022-0.016c-1.982-1.667-4.563-2.68-7.381-2.68-0.025 0-0.049 0-0.074 0h-33.113c-0.101-0.004-0.22-0.006-0.34-0.006-2.406 0-4.591 0.949-6.2 2.493l0.003-0.003c-1.541 1.606-2.49 3.79-2.49 6.196 0 0.119 0.002 0.238 0.007 0.357l-0.001-0.017v137.107c-0.211 2.187-0.331 4.729-0.331 7.299 0 14.17 3.65 27.488 10.062 39.065l-0.21-0.414h-104.317c-0.050-0.001-0.109-0.001-0.168-0.001-2.692 0-5.125 1.11-6.867 2.897l-0.002 0.002c-1.789 1.743-2.899 4.176-2.899 6.869 0 0.059 0.001 0.118 0.002 0.177v-0.009 24.423c-0.007 0.135-0.011 0.293-0.011 0.451 0 2.674 1.115 5.087 2.905 6.8l0.003 0.003c1.775 1.662 4.168 2.683 6.799 2.683 0.084 0 0.167-0.001 0.251-0.003h-0.012zM1159.843 259.083c-0.050-0.001-0.109-0.001-0.168-0.001-2.692 0-5.125 1.11-6.867 2.897l-0.002 0.002c-1.789 1.743-2.899 4.176-2.899 6.869 0 0.059 0.001 0.118 0.002 0.177v-0.009 119.568c-0.007 0.135-0.011 0.293-0.011 0.451 0 2.674 1.115 5.087 2.905 6.8l0.003 0.003c1.775 1.662 4.168 2.683 6.799 2.683 0.084 0 0.167-0.001 0.251-0.003h35.174c0.050 0.001 0.109 0.001 0.168 0.001 2.692 0 5.125-1.11 6.867-2.897l0.002-0.002c1.789-1.743 2.899-4.176 2.899-6.869 0-0.059-0.001-0.118-0.002-0.177v0.009-119.677c0.001-0.050 0.001-0.109 0.001-0.168 0-2.692-1.11-5.125-2.897-6.867l-0.002-0.002c-1.743-1.789-4.176-2.899-6.869-2.899-0.059 0-0.118 0.001-0.177 0.002h0.009zM1410.397 172.152c0.042-0.313 0.066-0.675 0.066-1.043 0-2.353-0.977-4.478-2.547-5.992l-0.003-0.002c-1.82-1.796-4.322-2.904-7.082-2.904-0.13 0-0.259 0.002-0.387 0.007l0.019-0.001h-35.186c-0.089-0.003-0.195-0.005-0.3-0.005-2.454 0-4.668 1.030-6.232 2.681l-0.004 0.004c-1.716 1.971-2.899 4.448-3.302 7.178l-0.009 0.077-7.865 38.912c-7.606-11.42-17.289-20.838-28.584-27.92l-0.393-0.23c-8.314-5.452-17.903-10.641-27.926-15.019l-1.269-0.494c-8.062-3.453-17.549-6.39-27.39-8.343l-0.933-0.154-2.898-0.414q-7.037 0-7.037 6.536v32.31q0 7.037 8.715 10.349 2.070 0.828 17.582 5.795c10.284 3.198 19.128 6.99 27.483 11.564l-0.772-0.387c7.106 4.434 13.275 9.28 18.874 14.712l-0.028-0.027c5.838 5.525 10.96 11.707 15.278 18.454l0.235 0.392-7.865 39.326c-2.394 16.449-7.759 31.25-15.559 44.442l0.308-0.562c-6.193 7.918-15.747 12.959-26.479 12.959-1.025 0-2.040-0.046-3.041-0.136l0.129 0.009h-14.902c-0.163-0.010-0.355-0.016-0.547-0.016-2.699 0-5.138 1.116-6.88 2.911l-0.002 0.002c-1.789 1.743-2.899 4.176-2.899 6.869 0 0.059 0.001 0.118 0.002 0.177v-0.009 26.145c-0.004 0.103-0.006 0.225-0.006 0.347 0 2.672 1.113 5.083 2.901 6.796l0.003 0.003c1.777 1.675 4.179 2.704 6.822 2.704 0.076 0 0.152-0.001 0.227-0.003h15.719c1.267 0.056 2.754 0.087 4.248 0.087 16.623 0 32.329-3.927 46.24-10.903l-0.595 0.27c13.203-7.468 23.665-18.441 30.307-31.664l0.195-0.429c8.161-16.645 14.497-35.961 18.027-56.24l0.187-1.3zM1653.651 177.403c1.538-1.732 2.479-4.024 2.484-6.535v-0.001c0.002-0.069 0.003-0.149 0.003-0.23 0-2.337-0.951-4.452-2.486-5.979v0c-1.452-1.531-3.502-2.484-5.774-2.484-0.008 0-0.015 0-0.023 0h-34.859c-0.245-0.016-0.531-0.025-0.82-0.025-2.52 0-4.877 0.698-6.888 1.911l0.060-0.034c-2.152 1.6-3.999 3.447-5.549 5.529l-0.050 0.071-83.489 118.893c-8.83-6.698-15.522-15.795-19.143-26.32l-0.117-0.391c-3.030-9.543-4.776-20.519-4.776-31.902 0-0.35 0.002-0.7 0.005-1.050v0.053-56.298c0.005-0.127 0.009-0.276 0.009-0.426 0-2.705-1.020-5.171-2.697-7.035l0.008 0.010c-1.717-1.794-4.13-2.909-6.804-2.909-0.159 0-0.317 0.004-0.473 0.012l0.022-0.001h-28.149c-0.050-0.001-0.109-0.001-0.168-0.001-2.692 0-5.125 1.11-6.867 2.897l-0.002 0.002c-1.796 1.82-2.904 4.322-2.904 7.082 0 0.13 0.002 0.259 0.007 0.387l-0.001-0.019v56.647c-0.040 1.255-0.062 2.73-0.062 4.211 0 18.44 3.518 36.058 9.919 52.22l-0.335-0.96c8.278 17.048 20.753 30.942 36.114 40.7l0.401 0.238-40.568 57.54c-1.461 1.772-2.381 4.038-2.483 6.514l-0.001 0.022c-0.002 0.069-0.003 0.149-0.003 0.23 0 2.337 0.951 4.452 2.486 5.979v0c1.528 1.536 3.642 2.487 5.979 2.487 0.081 0 0.161-0.001 0.242-0.003h33.519c5.607-0.28 10.445-3.327 13.206-7.794l0.041-0.071 76.582-108.043c6.791 3.851 12.454 8.915 16.868 14.949l0.104 0.149c3.192 4.578 5.487 10.023 6.502 15.906l0.034 0.239c0.798 5.595 1.254 12.057 1.254 18.625 0 0.652-0.004 1.303-0.013 1.953l0.001-0.098v53.923c-0.004 0.11-0.007 0.239-0.007 0.369 0 2.761 1.109 5.262 2.906 7.084l-0.001-0.001c1.743 1.789 4.176 2.899 6.869 2.899 0.059 0 0.118-0.001 0.177-0.002h29.796c0.11 0.004 0.239 0.007 0.369 0.007 2.761 0 5.262-1.109 7.084-2.906l-0.001 0.001c1.796-1.82 2.904-4.322 2.904-7.082 0-0.13-0.002-0.259-0.007-0.387l0.001 0.019v-55.884c0.014-0.654 0.022-1.425 0.022-2.197 0-16.606-3.752-32.335-10.455-46.386l0.28 0.651c-9.244-16.256-22.396-29.338-38.214-38.239l-0.501-0.259zM1825.073 398.521c2.731 0.224 5.911 0.352 9.122 0.352 27.771 0 53.309-9.562 73.501-25.573l-0.245 0.188c17.056-17.618 27.568-41.661 27.568-68.159 0-2.75-0.113-5.474-0.335-8.166l0.023 0.353v-125.429c0.001-0.064 0.002-0.14 0.002-0.216 0-2.642-1.029-5.044-2.709-6.827l0.005 0.005c-1.716-1.792-4.128-2.905-6.8-2.905-0.129 0-0.258 0.003-0.386 0.008l0.018-0.001h-33.117c-0.050-0.001-0.109-0.001-0.168-0.001-2.692 0-5.125 1.11-6.867 2.897l-0.002 0.002c-1.789 1.743-2.899 4.176-2.899 6.869 0 0.059 0.001 0.118 0.002 0.177v-0.009 123.359c0.322 2.175 0.505 4.686 0.505 7.24 0 28.794-23.342 52.137-52.137 52.137-2.669 0-5.291-0.201-7.852-0.587l0.288 0.036h-28.149c-2.276-9.552-4.286-21.406-5.59-33.471l-0.118-1.345c-0.859-8.518-1.349-18.41-1.349-28.415 0-2.818 0.039-5.626 0.116-8.425l-0.009 0.412 2.070-110.941c0.002-0.071 0.003-0.155 0.003-0.238 0-2.631-1.021-5.024-2.688-6.804l0.005 0.006c-1.717-1.796-4.132-2.913-6.808-2.913-0.188 0-0.375 0.006-0.56 0.016l0.026-0.001-72.857 0.414c-0.050-0.001-0.109-0.001-0.168-0.001-2.692 0-5.125 1.11-6.867 2.897l-0.002 0.002c-1.789 1.743-2.899 4.176-2.899 6.869 0 0.059 0.001 0.118 0.002 0.177v-0.009 22.768c-0.006 0.129-0.010 0.279-0.010 0.431 0 2.673 1.114 5.086 2.904 6.8l0.003 0.003c1.775 1.662 4.168 2.683 6.799 2.683 0.084 0 0.167-0.001 0.251-0.003h-0.012l32.681-0.414v77.018c-0.076 2.728-0.119 5.938-0.119 9.159 0 9.966 0.415 19.836 1.229 29.592l-0.086-1.277c1.271 13.143 3.393 25.044 6.37 36.602l-0.357-1.633h-23.596c-0.050-0.001-0.109-0.001-0.168-0.001-2.692 0-5.125 1.11-6.867 2.897l-0.002 0.002c-1.789 1.743-2.899 4.176-2.899 6.869 0 0.059 0.001 0.118 0.002 0.177v-0.009 24.423c-0.007 0.135-0.011 0.293-0.011 0.451 0 2.674 1.115 5.087 2.905 6.8l0.003 0.003c1.775 1.662 4.168 2.683 6.799 2.683 0.084 0 0.167-0.001 0.251-0.003h-0.012z" />
<glyph unicode="&#xe910;" glyph-name="maximize-1" d="M982.654 960h-313.752c-22.849 0-41.372-18.523-41.372-41.372s18.523-41.372 41.372-41.372v0h272.406v-272.406c0-22.849 18.523-41.372 41.372-41.372s41.372 18.523 41.372 41.372v0 313.803c0 22.835-18.511 41.346-41.346 41.346-0.018 0-0.036 0-0.054 0h0.003zM355.15 18.539h-272.406v272.406c0 22.849-18.523 41.372-41.372 41.372s-41.372-18.523-41.372-41.372v0-313.752c0-22.835 18.511-41.346 41.346-41.346v0h313.803c22.849 0 41.372 18.523 41.372 41.372s-18.523 41.372-41.372 41.372v0zM1011.887 947.887c-7.484 7.496-17.83 12.133-29.259 12.133s-21.775-4.637-29.259-12.133l-366.037-366.088c-7.488-7.488-12.12-17.833-12.12-29.259 0-22.853 18.526-41.379 41.379-41.379 11.426 0 21.771 4.631 29.259 12.12l366.036 366.036c7.511 7.487 12.159 17.843 12.159 29.285s-4.647 21.798-12.158 29.284l-0.001 0.001zM436.667 372.667c-7.484 7.496-17.83 12.133-29.259 12.133s-21.775-4.637-29.259-12.133l-366.037-366.088c-7.488-7.488-12.12-17.833-12.12-29.259 0-22.853 18.526-41.379 41.379-41.379 11.426 0 21.771 4.631 29.259 12.12v0l366.036 366.036c7.511 7.487 12.159 17.843 12.159 29.285s-4.647 21.798-12.158 29.284l-0.001 0.001z" />
<glyph unicode="&#xe912;" glyph-name="newspaper" horiz-adv-x="780" d="M582.82 960h-582.82v-1024h779.999v822.217zM600.207 856.415l78.705-80.419h-78.901zM719.954-4.004h-659.958v904.008h479.969v-184.005h179.989zM119.992 56.041h179.989v179.989h-179.989zM179.988 176.034h59.996v-59.996h-59.996zM119.992 296.026h179.989v179.989h-179.989zM179.988 416.018h59.996v-59.996h-59.996zM119.992 536.011h179.989v179.989h-179.989zM179.988 656.003h59.996v-59.996h-59.996zM359.977 715.999h119.992v-59.996h-119.992zM359.977 596.007h299.981v-59.996h-299.981zM119.992 835.992h359.977v-59.996h-359.977zM359.977 476.015h119.992v-59.996h-119.992zM359.977 356.022h299.981v-59.996h-299.981zM359.977 236.030h119.992v-59.996h-119.992zM359.977 116.037h299.981v-59.996h-299.981z" />
<glyph unicode="&#xe913;" glyph-name="focus" d="M968.265 432.349l9.599 15.679-9.599 15.679c-32.781 48.913-70.936 90.888-114.409 126.631l-1.001 0.799c-90.661 78.889-209.938 126.978-340.447 126.978s-249.786-48.090-341.077-127.515l0.631 0.537c-44.702-36.56-83.086-78.513-114.836-125.331l-1.307-2.043-9.796-15.82 9.796-15.82c33.056-48.86 71.44-90.814 115.107-126.552l1.035-0.822c90.661-78.889 209.938-126.978 340.447-126.978s249.786 48.090 341.077 127.515l-0.631-0.537c44.484 36.584 82.642 78.616 114.098 125.52l1.313 2.078zM812.996 349.704c-80.093-69.487-185.367-111.834-300.532-111.834s-220.439 42.346-301.101 112.317l0.57-0.484c-35.235 29.060-66.123 61.305-92.925 96.808l-1.036 1.432c27.838 36.945 58.726 69.2 93.001 97.498l0.96 0.77c80.093 69.487 185.367 111.834 300.532 111.834s220.439-42.346 301.101-112.317l-0.57 0.484c35.015-29.041 65.691-61.316 92.236-96.856l1.049-1.468c-27.614-36.963-58.307-69.201-92.414-97.464l-0.928-0.747zM512 628.265c-99.496 0-180.153-80.657-180.153-180.153s80.657-180.153 180.153-180.153c99.496 0 180.153 80.657 180.153 180.153v0c-0.176 99.425-80.728 179.977-180.136 180.153h-0.017zM512 327.748c-66.413 0-120.252 53.839-120.252 120.252s53.839 120.252 120.252 120.252c66.413 0 120.252-53.839 120.252-120.252v0c-0.080-66.381-53.871-120.172-120.244-120.252h-0.008zM60.013 899.987h125.263v60.013h-185.276v-182.968h60.013zM838.752 960v-60.013h125.263v-122.954h59.985v182.968zM60.013 118.996h-60.013v-182.968h185.248v59.957h-125.234zM964.015-4.015h-125.263v-59.957h185.248v182.968h-59.985z" />
<glyph unicode="&#xe915;" horiz-adv-x="1258" d="M955.874 921.159c-7.886 3.335-17.056 5.274-26.678 5.274-14.547 0-28.060-4.43-39.262-12.015l0.247 0.158c-18.851-12.765-31.078-34.076-31.078-58.243 0-0.002 0-0.005 0-0.007v0-182.561h53.287v182.561c0.040 29.1 17.776 54.047 43.022 64.661l0.462 0.172z" />
<glyph unicode="&#xe916;" horiz-adv-x="1258" d="M85.421 94.78v80.729h-53.287v-80.778c-0.005-0.427-0.008-0.931-0.008-1.436 0-67.818 54.501-122.907 122.093-123.857l0.089-0.001h53.287c-67.685 0.965-122.183 56.059-122.183 123.882 0 0.514 0.003 1.027 0.009 1.539l-0.001-0.078z" />
<glyph unicode="&#xe917;" horiz-adv-x="1258" d="M314.219 926.318h-53.287c-45.159-0.162-81.778-36.496-82.399-81.53l-0.001-0.059-4.914-639.96h53.287l4.914 639.96c0.622 45.092 37.241 81.427 82.384 81.589h0.016z" />
<glyph unicode="&#xe918;" horiz-adv-x="1258" d="M934.525 960c-1.155 0-2.309 0-3.439 0-0.25 0.015-0.541 0.023-0.835 0.023s-0.586-0.008-0.875-0.025l0.040 0.002h-662.071c-64.759-0.216-117.274-52.327-118.144-116.909l-0.001-0.082-5.184-633.499h-128.021c-8.833 0-15.993-7.161-15.993-15.993v0-94.929c-0.002-0.332-0.004-0.725-0.004-1.118 0-84.923 65.555-154.535 148.821-160.993l0.553-0.035c0.983-0.219 2.113-0.344 3.271-0.344 0.025 0 0.049 0 0.074 0h540.089c0.786 0.006 1.551 0.069 2.3 0.183l-0.089-0.011c2.211 0 4.447-0.172 6.682-0.172 84.365 1.068 153.059 66.727 158.947 149.741l0.029 0.514c0 0.369 0 0.737 0 1.106l0.27 71.246 0.123 356.77v133.77h162.809c8.833 0 15.993 7.161 15.993 15.993v189.367c-0.139 58.135-47.215 105.227-105.33 105.395h-0.016zM159.443-32.038c-70.605 0.979-127.464 58.444-127.464 129.189 0 0.505 0.003 1.010 0.009 1.513l-0.001-0.077v78.936h510.219v-78.936c0-0.132-0.001-0.289-0.001-0.445 0-52.952 25.18-100.023 64.22-129.892l0.393-0.289zM829.155 515.327l-0.123-356.696-0.27-70.607c-4.891-66.712-59.742-119.112-127.041-120.085l-0.096-0.001c-70.608 0.993-127.464 58.463-127.464 129.213 0 0.497 0.003 0.992 0.008 1.488l-0.001-0.075v94.929c0 0.007 0 0.016 0 0.025 0 8.819-7.15 15.969-15.969 15.969-0.009 0-0.017 0-0.026 0h-382.147l5.184 633.204c0.65 47.147 38.941 85.137 86.143 85.298h591.675c-18.476-18.912-29.874-44.808-29.874-73.367 0-0.014 0-0.029 0-0.043v0.002zM1007.933 681.060h-146.791v173.545c0 40.542 32.866 73.408 73.408 73.408v0c40.542 0 73.408-32.866 73.408-73.408v0z" />
<glyph unicode="&#xe919;" horiz-adv-x="1258" d="M693.591 745.648h-14.102c-8.833 0-15.993-7.161-15.993-15.993v0c0-8.833 7.161-15.993 15.993-15.993h14.102c8.833 0 15.993 7.161 15.993 15.993v0c0 0.007 0 0.016 0 0.025 0 8.819-7.15 15.969-15.969 15.969-0.009 0-0.017 0-0.026 0h0.001z" />
<glyph unicode="&#xe91a;" horiz-adv-x="1258" d="M547.709 729.655c0-8.833 7.161-15.993 15.993-15.993v0h56.26c8.833 0 15.993 7.161 15.993 15.993v0c0 8.833-7.161 15.993-15.993 15.993v0h-56.26c-8.833 0-15.993-7.161-15.993-15.993v0z" />
<glyph unicode="&#xe91b;" horiz-adv-x="1258" d="M316.209 713.661h192.806c8.833 0 15.993 7.161 15.993 15.993v0c0 8.833-7.161 15.993-15.993 15.993v0h-192.806c-0.007 0-0.016 0-0.025 0-8.819 0-15.969-7.15-15.969-15.969 0-0.009 0-0.017 0-0.026v0.001c0-8.833 7.161-15.993 15.993-15.993v0z" />
<glyph unicode="&#xe91c;" horiz-adv-x="1258" d="M693.616 852.247h-67.389c-8.833 0-15.993-7.161-15.993-15.993v0c0-8.833 7.161-15.993 15.993-15.993v0h67.389c8.833 0 15.993 7.161 15.993 15.993v0c0 0.007 0 0.016 0 0.025 0 8.819-7.15 15.969-15.969 15.969-0.009 0-0.017 0-0.026 0h0.001z" />
<glyph unicode="&#xe91d;" horiz-adv-x="1258" d="M403.817 820.26h162.834c8.833 0 15.993 7.161 15.993 15.993v0c0 8.833-7.161 15.993-15.993 15.993h-162.834c-8.833 0-15.993-7.161-15.993-15.993v0c0-8.833 7.161-15.993 15.993-15.993v0z" />
<glyph unicode="&#xe91e;" horiz-adv-x="1258" d="M316.209 820.26h32.921c8.833 0 15.993 7.161 15.993 15.993v0c0 8.833-7.161 15.993-15.993 15.993h-32.921c-0.007 0-0.016 0-0.025 0-8.819 0-15.969-7.15-15.969-15.969 0-0.009 0-0.017 0-0.026v0.001c0-8.833 7.161-15.993 15.993-15.993v0z" />
<glyph unicode="&#xe91f;" horiz-adv-x="1258" d="M693.616 639.074h-316.455c-8.833 0-15.993-7.161-15.993-15.993v0c0-8.833 7.161-15.993 15.993-15.993v0h316.455c8.833 0 15.993 7.161 15.993 15.993v0c0 0.007 0 0.016 0 0.025 0 8.819-7.15 15.969-15.969 15.969-0.009 0-0.017 0-0.026 0h0.001z" />
<glyph unicode="&#xe920;" horiz-adv-x="1258" d="M316.209 607.087h6.265c8.833 0 15.993 7.161 15.993 15.993v0c0 8.833-7.161 15.993-15.993 15.993h-6.265c-0.007 0-0.016 0-0.025 0-8.819 0-15.969-7.15-15.969-15.969 0-0.009 0-0.017 0-0.026v0.001c0-8.833 7.161-15.993 15.993-15.993v0z" />
<glyph unicode="&#xe921;" horiz-adv-x="1258" d="M693.591 425.877h-14.102c-8.833 0-15.993-7.161-15.993-15.993v0c0-8.833 7.161-15.993 15.993-15.993h14.102c8.833 0 15.993 7.161 15.993 15.993v0c0 0.007 0 0.016 0 0.025 0 8.819-7.15 15.969-15.969 15.969-0.009 0-0.017 0-0.026 0h0.001z" />
<glyph unicode="&#xe922;" horiz-adv-x="1258" d="M635.931 409.883c0 8.833-7.161 15.993-15.993 15.993h-56.26c-8.833 0-15.993-7.161-15.993-15.993v0c0-8.833 7.161-15.993 15.993-15.993h56.26c8.833 0 15.993 7.161 15.993 15.993v0z" />
<glyph unicode="&#xe923;" horiz-adv-x="1258" d="M316.209 393.89h192.806c8.833 0 15.993 7.161 15.993 15.993v0c0 8.833-7.161 15.993-15.993 15.993v0h-192.806c-0.007 0-0.016 0-0.025 0-8.819 0-15.969-7.15-15.969-15.969 0-0.009 0-0.017 0-0.026v0.001c0-8.833 7.161-15.993 15.993-15.993v0z" />
<glyph unicode="&#xe924;" horiz-adv-x="1258" d="M693.616 532.377h-67.389c-8.833 0-15.993-7.161-15.993-15.993v0c0-8.833 7.161-15.993 15.993-15.993v0h67.389c8.833 0 15.993 7.161 15.993 15.993v0c0 0.007 0 0.016 0 0.025 0 8.819-7.15 15.969-15.969 15.969-0.009 0-0.017 0-0.026 0h0.001z" />
<glyph unicode="&#xe925;" horiz-adv-x="1258" d="M566.651 500.439c8.833 0 15.993 7.161 15.993 15.993v0c0 8.833-7.161 15.993-15.993 15.993v0h-162.834c-8.833 0-15.993-7.161-15.993-15.993v0c0-8.833 7.161-15.993 15.993-15.993v0z" />
<glyph unicode="&#xe926;" horiz-adv-x="1258" d="M316.209 500.439h32.921c8.833 0 15.993 7.161 15.993 15.993v0c0 8.833-7.161 15.993-15.993 15.993v0h-32.921c-0.007 0-0.016 0-0.025 0-8.819 0-15.969-7.15-15.969-15.969 0-0.009 0-0.017 0-0.026v0.001c0-8.833 7.161-15.993 15.993-15.993v0z" />
<glyph unicode="&#xe927;" horiz-adv-x="1258" d="M693.616 319.303h-49.97c-8.833 0-15.993-7.161-15.993-15.993v0c0-8.833 7.161-15.993 15.993-15.993v0h49.97c8.833 0 15.993 7.161 15.993 15.993v0c0 0.007 0 0.016 0 0.025 0 8.819-7.15 15.969-15.969 15.969-0.009 0-0.017 0-0.026 0h0.001z" />
<glyph unicode="&#xe928;" horiz-adv-x="1258" d="M588.933 319.303h-272.7c-0.007 0-0.016 0-0.025 0-8.819 0-15.969-7.15-15.969-15.969 0-0.009 0-0.017 0-0.026v0.001c0-8.833 7.161-15.993 15.993-15.993v0h272.7c8.833 0 15.993 7.161 15.993 15.993v0c0 8.833-7.161 15.993-15.993 15.993v0z" />
<glyph unicode="&#xe929;" horiz-adv-x="1258" d="M1188.824 922.928h-26.656c-38.246-0.042-69.239-31.035-69.28-69.277v-701.751c0-0.295 0-0.59 0-0.884-0.007-0.081-0.011-0.175-0.011-0.27s0.004-0.189 0.012-0.282l-0.001 0.012c0.063-0.703 0.158-1.332 0.289-1.948l-0.019 0.105c0.151-0.705 0.32-1.298 0.524-1.874l-0.032 0.105 0.147-0.418q0.27-0.712 0.59-1.4v-0.246l64.932-129.864v-25.919c0-8.833 7.161-15.993 15.993-15.993v0c8.833 0 15.993 7.161 15.993 15.993v0 25.894l64.932 129.864v0.246q0.319 0.688 0.59 1.4c0 0.147 0 0.27 0.147 0.418 0.164 0.46 0.334 1.052 0.47 1.657l0.021 0.112c0.112 0.511 0.208 1.14 0.266 1.78l0.005 0.063c0 0.197 0 0.369 0 0.54s0 0.59 0 0.884v701.797c-0.055 38.106-30.833 69.005-68.888 69.256h-0.024zM1124.948 167.893v649.787h34.64v-649.763zM1191.575 817.656h34.64v-649.763h-34.64zM1162.266 890.941h26.656c20.605-0.014 37.304-16.714 37.318-37.317v-4.006h-101.267v4.005c0 0.007 0 0.016 0 0.025 0 20.572 16.635 37.259 37.187 37.342h0.008zM1175.582 54.416l-40.758 81.491h81.515z" />
<glyph unicode="&#xe92a;" horiz-adv-x="714" d="M148.396-17.739c-54.345 39.723-81.773 89.856-81.773 148.991v119.933c60.676 26.967 112.796 57.293 161.156 92.474l-2.502-1.734q-18.257 12.024-35.902 24.948c-47.553-35.245-101.559-66.956-158.848-92.656l-5.513-2.211v-119.933c0-59.151 27.512-109.268 81.773-148.991 18.526-13.552 39.642-25.514 62.1-34.906l2.044-0.758c-7.371 4.348-15.030 9.29-22.536 14.843z" />
<glyph unicode="&#xe92b;" horiz-adv-x="714" d="M602.926 132.458v12.516c0 6.899-5.592 12.491-12.491 12.491s-12.491-5.592-12.491-12.491v-12.516c0-6.899 5.592-12.491 12.491-12.491s12.491 5.592 12.491 12.491v0z" />
<glyph unicode="&#xe92c;" horiz-adv-x="714" d="M282.069 853.602c-26.609-36.047-43.373-80.812-45.564-129.372l-0.018-0.513h-15.42c-6.894 0-12.482-5.589-12.482-12.482v0-53.038c0-6.894 5.589-12.482 12.482-12.482v0h25.321l1.478-21.483c-15.123-5.37-26.511-17.818-30.298-33.252l-0.067-0.323c-1.074-4.219-1.691-9.062-1.691-14.049 0-25.369 15.952-47.012 38.373-55.446l0.408-0.135c3.49-69.747 42.938-129.551 100.060-161.575l0.989-0.509v-45.141l-22.332-9.527 9.799-22.978 24.336 10.394c24.413-11.429 53.010-18.099 83.165-18.099s58.753 6.67 84.397 18.614l-1.232-0.515 23.301-9.935v-90.875h-190.871v-24.999h253.47v-129.189h-308.868v-24.982h390.182c6.894 0 12.482 5.589 12.482 12.482v0 153.288c0 0.34 0 0.696 0 1.036-3.496 39.193-26.911 72.217-59.936 89.158l-0.625 0.291-0.679 0.323-106.636 45.514v45.599c57.603 32.667 96.645 92.219 100.079 161.147l0.018 0.462c22.78 8.594 38.688 30.212 38.688 55.546 0 5-0.62 9.855-1.786 14.492l0.087-0.409c-3.845 15.717-15.182 28.142-29.918 33.438l-0.329 0.103 1.478 21.534h26.239c6.894 0 12.482 5.589 12.482 12.482v0 53.021c0 6.894-5.589 12.482-12.482 12.482v0h-15.403c-2.131 49.154-18.921 94.006-46.072 130.734l0.456-0.646c-26.198 35.468-62.264 62.287-104.135 76.568l-1.516 0.449 1.596 15.42c0.041 0.382 0.065 0.825 0.065 1.274 0 6.896-5.585 12.488-12.478 12.499h-104.157c-6.894 0-12.482-5.589-12.482-12.482v0c-0.010-0.193-0.016-0.418-0.016-0.645s0.006-0.453 0.018-0.677l-0.001 0.031 1.596-15.42c-43.41-14.773-79.48-41.658-105.234-76.611l-0.417-0.593zM582.054 271.089l16.762-7.15v-73.026h-16.711zM688.537 176.953v-140.245h-43.884v141.671c0 6.894-5.589 12.482-12.482 12.482v0h-8.373v62.412l18.274-7.795c25.704-13.304 43.611-38.543 46.439-68.18l0.027-0.346zM520.61 313.156c-20.618-9.224-44.683-14.597-70.003-14.597s-49.385 5.372-71.118 15.040l1.115-0.443v34.119c20.642-8.079 44.543-12.762 69.538-12.762 25.345 0 49.566 4.815 71.797 13.58l-1.328-0.461zM658.426 584.678c0.623-2.442 0.98-5.245 0.98-8.132 0-16.010-10.994-29.452-25.845-33.188l-0.236-0.050c-0.679-0.17-1.376-0.323-2.072-0.442-5.896-1.071-10.309-6.166-10.309-12.292 0-0.001 0-0.003 0-0.004v0-0.238c-0.963-93.593-77.059-169.094-170.788-169.094s-169.825 75.5-170.788 169.002l-0.001 0.091v0.306c0 0 0 0.001 0 0.001 0 6.132-4.421 11.231-10.25 12.283l-0.076 0.011c-16.154 2.945-28.239 16.908-28.239 33.694 0 2.107 0.19 4.169 0.555 6.17l-0.032-0.209q0.187 1.087 0.459 2.157c1.64 7.075 6.543 12.738 12.999 15.401l0.145 0.053c2.332-2.774 5.152-5.051 8.34-6.721l0.151-0.072 21.959-11.277c2.153-1.125 4.702-1.786 7.406-1.786 8.517 0 15.503 6.551 16.196 14.888l0.004 0.059 4.025 50.422h268.686c2.021-8.763 4.45-17.458 7.286-25.967l11.056-33.185c1.771-5.245 6.011-9.221 11.3-10.59l0.112-0.025c1.213-0.323 2.605-0.508 4.041-0.509h0.001c0.002 0 0.004 0 0.007 0 4.277 0 8.166 1.661 11.058 4.373l-0.009-0.008 15.437 14.401c1.695 1.595 3.2 3.359 4.498 5.274l0.070 0.11c5.973-2.898 10.358-8.27 11.859-14.747l0.029-0.147zM271.437 645.681h16.507l-2.836-35.375-10.309 5.299c-0.812 0.427-1.373 1.236-1.443 2.182l-0.001 0.009zM626.889 616.623c-0.114-1.657-0.855-3.121-1.983-4.174l-0.004-0.003-5.502-5.095-6.793 20.295c-1.97 5.944-3.736 11.973-5.282 18.070h21.534zM667.648 670.663h-70.428c-1.67 0.89-3.653 1.413-5.757 1.413s-4.087-0.523-5.824-1.446l0.067 0.033h-352.14v28.073h434.116zM404.413 909.714c5.39 1.461 9.289 6.309 9.289 12.067 0 0.457-0.025 0.909-0.073 1.354l0.005-0.055-1.257 11.888h76.423l-1.257-11.888c-0.043-0.389-0.068-0.841-0.068-1.298 0-5.759 3.899-10.606 9.202-12.047l0.087-0.020c10.815-2.922 20.067-6.342 28.919-10.474l-1.084 0.454v-19.513c-0.012-47.44-29.463-87.998-71.077-104.401l-0.761-0.264c-44.683 15.36-76.219 57.027-76.219 106.059 0 0.065 0 0.131 0 0.196v-0.010 17.9c7.784 3.693 17.047 7.118 26.639 9.749l1.23 0.288zM351.597 885.802v-4.042c0-0.075 0-0.164 0-0.253 0-60.514 39.288-111.852 93.747-129.898l0.967-0.277 2.836-0.917c1.183-0.41 2.547-0.647 3.966-0.647s2.782 0.237 4.053 0.673l-0.088-0.026c54.295 19.090 92.523 69.919 92.54 129.679v5.674c19.345-12.882 35.723-28.427 49.104-46.342l0.367-0.514c23.638-31.975 38.58-71.664 40.655-114.727l0.019-0.485h-378.26c2.166 43.482 17.089 83.097 41.068 115.626l-0.411-0.584c13.736 18.5 30.11 34.106 48.747 46.597l0.707 0.446z" />
<glyph unicode="&#xe92d;" horiz-adv-x="714" d="M428.427 825.462h49.25c6.899 0 12.491 5.592 12.491 12.491s-5.592 12.491-12.491 12.491h-49.25c-6.899 0-12.491-5.592-12.491-12.491s5.592-12.491 12.491-12.491v0z" />
<glyph unicode="&#xe92e;" horiz-adv-x="714" d="M428.427 870.806h49.25c6.899 0 12.491 5.592 12.491 12.491s-5.592 12.491-12.491 12.491h-49.25c-6.899 0-12.491-5.592-12.491-12.491s5.592-12.491 12.491-12.491v0z" />
<glyph unicode="&#xe92f;" horiz-adv-x="714" d="M371.127 291.656l-1.172 0.493c-66.096 28.753-123.037 62.291-175.258 101.744l2.135-1.545c-2.060 1.559-4.665 2.496-7.489 2.496s-5.429-0.938-7.521-2.519l0.031 0.023c-50.088-37.909-107.029-71.447-167.691-98.073l-5.432-2.126-1.172-0.493c-4.482-1.96-7.557-6.356-7.557-11.47 0-0.004 0-0.008 0-0.011v0.001-128.119c0.844-70.373 36.861-132.156 91.257-168.682l0.74-0.468c26.020-19.194 56.109-34.955 88.468-45.752l2.288-0.662c1.033-0.308 2.219-0.485 3.448-0.485s2.415 0.177 3.536 0.507l-0.088-0.022c35.759 11.408 66.862 27.159 94.828 47.037l-1.048-0.708c62.31 44.054 95.24 102.577 95.24 169.268v128.119c0 0.003 0 0.007 0 0.011 0 5.114-3.075 9.509-7.477 11.438l-0.080 0.031zM353.703 152.056c0-58.846-28.31-108.809-84.099-148.464-23.932-16.973-51.474-31.206-80.927-41.331l-2.289-0.684c-30.376 10.704-56.704 24.741-80.453 42.096l0.871-0.607c-54.345 39.723-81.773 89.856-81.773 148.991v119.933c62.802 27.912 116.808 59.622 166.73 96.54l-2.37-1.674c47.553-35.242 101.559-66.953 158.846-92.655l5.514-2.211z" />
<glyph unicode="&#xe930;" horiz-adv-x="714" d="M121.954 185.411c-2.291 2.471-5.555 4.013-9.179 4.013-6.906 0-12.505-5.598-12.505-12.505 0-3.282 1.264-6.269 3.333-8.499l-0.007 0.008 52.936-57.385c2.288-2.478 5.554-4.025 9.18-4.025 3.254 0 6.218 1.245 8.44 3.286l-0.009-0.008 100.199 91.792c2.497 2.291 4.057 5.57 4.057 9.213 0 6.898-5.592 12.489-12.489 12.489-3.255 0-6.218-1.245-8.441-3.284l0.009 0.008-91.045-83.403z" />
<glyph unicode="&#xe931;" horiz-adv-x="1031" d="M209.022 287.417c-37.461 37.471-60.631 89.232-60.631 146.404 0 41.371 12.132 79.909 33.033 112.249l-0.492-0.812 128.481 201.162-46.017 72.040-174.497-273.203c-20.45-31.541-32.608-70.107-32.608-111.512 0-114.312 92.668-206.98 206.98-206.98 16.361 0 32.278 1.898 47.544 5.487l-1.402-0.278c-39.548 9.159-73.636 28.638-100.388 55.44l-0.003 0.003z" />
<glyph unicode="&#xe932;" horiz-adv-x="1031" d="M771.763 494.468c-31.22 31.225-50.53 74.359-50.53 122.003 0 34.475 10.11 66.588 27.528 93.537l-0.41-0.677 99.418 155.644-46.017 72.017-145.411-227.661c-17.011-26.269-27.124-58.381-27.124-92.855 0-95.271 77.232-172.503 172.503-172.503 16.389 0 32.244 2.285 47.264 6.555l-1.216-0.296c-29.891 8.377-55.527 23.729-76.004 44.234l-0.002 0.002z" />
<glyph unicode="&#xe933;" horiz-adv-x="1031" d="M883.41 37.222c-0.359 0.004-0.783 0.006-1.208 0.006-33.059 0-63.269-12.197-86.376-32.337l0.157 0.134c-15.76-14.271-36.766-23.006-59.812-23.006s-44.052 8.734-59.888 23.073l0.076-0.068c-23.375 20.024-53.977 32.212-87.427 32.212s-64.052-12.188-87.61-32.365l0.183 0.153c-15.76-14.271-36.766-23.006-59.812-23.006s-44.052 8.734-59.888 23.073l0.076-0.068c-23.375 20.024-53.977 32.212-87.427 32.212s-64.052-12.188-87.61-32.365l0.183 0.153c-15.388-14.264-36.062-23.014-58.781-23.014-0.363 0-0.725 0.002-1.086 0.007l0.055-0.001c-0.307-0.004-0.669-0.006-1.032-0.006-22.718 0-43.393 8.751-58.836 23.066l0.056-0.051c-22.952 20.006-53.165 32.203-86.227 32.203-0.413 0-0.826-0.002-1.239-0.006h0.063v-46.017c0.307 0.004 0.669 0.006 1.032 0.006 22.718 0 43.393-8.751 58.836-23.066l-0.056 0.051c22.949-20.005 53.159-32.203 86.218-32.203 0.417 0 0.833 0.002 1.248 0.006h-0.064c0.359-0.004 0.783-0.006 1.208-0.006 33.059 0 63.269 12.197 86.376 32.337l-0.157-0.134c15.76 14.271 36.766 23.006 59.812 23.006s44.052-8.734 59.888-23.073l-0.076 0.068c23.375-20.024 53.977-32.212 87.427-32.212s64.052 12.188 87.61 32.365l-0.183-0.153c15.76 14.271 36.766 23.006 59.812 23.006s44.052-8.734 59.888-23.073l-0.076 0.068c23.375-20.024 53.977-32.212 87.427-32.212s64.052 12.188 87.61 32.365l-0.183-0.153c15.76 14.271 36.766 23.006 59.812 23.006s44.052-8.734 59.888-23.073l-0.076 0.068c22.949-20.006 53.159-32.203 86.219-32.203 0.425 0 0.849 0.002 1.273 0.006h-0.065v46.017c-0.307-0.004-0.669-0.006-1.032-0.006-22.718 0-43.393 8.751-58.836 23.066l0.056-0.051c-22.956 20.006-53.171 32.203-86.236 32.203-0.419 0-0.837-0.002-1.255-0.006h0.064z" />
<glyph unicode="&#xe934;" horiz-adv-x="1031" d="M883.41 175.248c-0.359 0.004-0.783 0.006-1.208 0.006-33.059 0-63.269-12.197-86.376-32.337l0.157 0.134c-15.76-14.271-36.766-23.006-59.812-23.006s-44.052 8.734-59.888 23.073l0.076-0.068c-23.375 20.024-53.977 32.212-87.427 32.212s-64.052-12.188-87.61-32.365l0.183 0.153c-15.76-14.271-36.766-23.006-59.812-23.006s-44.052 8.734-59.888 23.073l0.076-0.068c-23.375 20.024-53.977 32.212-87.427 32.212s-64.052-12.188-87.61-32.365l0.183 0.153c-15.385-14.264-36.056-23.015-58.771-23.015-0.366 0-0.731 0.002-1.096 0.007l0.055-0.001c-0.309-0.004-0.675-0.006-1.041-0.006-22.715 0-43.387 8.751-58.827 23.066l0.056-0.051c-22.952 20.006-53.165 32.203-86.227 32.203-0.413 0-0.826-0.002-1.239-0.006h0.063v-46.017c0.307 0.004 0.669 0.006 1.032 0.006 22.718 0 43.393-8.751 58.836-23.066l-0.056 0.051c22.949-20.005 53.159-32.203 86.218-32.203 0.417 0 0.833 0.002 1.248 0.006h-0.064c0.359-0.004 0.783-0.006 1.208-0.006 33.059 0 63.269 12.197 86.376 32.337l-0.157-0.134c15.76 14.271 36.766 23.006 59.812 23.006s44.052-8.734 59.888-23.073l-0.076 0.068c23.375-20.024 53.977-32.212 87.427-32.212s64.052 12.188 87.61 32.365l-0.183-0.153c15.76 14.271 36.766 23.006 59.812 23.006s44.052-8.734 59.888-23.073l-0.076 0.068c23.375-20.024 53.977-32.212 87.427-32.212s64.052 12.188 87.61 32.365l-0.183-0.153c15.76 14.271 36.766 23.006 59.812 23.006s44.052-8.734 59.888-23.073l-0.076 0.068c22.949-20.006 53.159-32.203 86.219-32.203 0.425 0 0.849 0.002 1.273 0.006h-0.065v46.017c-0.309-0.004-0.675-0.006-1.041-0.006-22.715 0-43.387 8.751-58.827 23.066l0.056-0.051c-22.956 20.006-53.171 32.203-86.236 32.203-0.419 0-0.837-0.002-1.255-0.006h0.064z" />
<glyph unicode="&#xe935;" horiz-adv-x="1031" d="M282.819 830.854c-4.151 6.436-11.285 10.637-19.399 10.637s-15.248-4.201-19.344-10.546l-0.055-0.091-174.474-273.203c-22.673-35.024-36.151-77.835-36.151-123.794 0-127.045 102.99-230.036 230.036-230.036s230.036 102.99 230.036 230.036c0 45.959-13.478 88.771-36.697 124.697l0.547-0.903zM446.394 413.879c-10.405-92.692-88.344-164.087-182.958-164.087-101.644 0-184.043 82.399-184.043 184.043 0 36.774 10.785 71.028 29.365 99.773l-0.437-0.722 155.098 242.739 155.098-242.834c18.128-28.088 28.903-62.402 28.903-99.233 0-6.932-0.382-13.775-1.125-20.509l0.074 0.83z" />
<glyph unicode="&#xe936;" horiz-adv-x="1031" d="M353.578 479.319c-8.997-3.262-15.309-11.735-15.309-21.682 0-2.757 0.485-5.4 1.374-7.85l-0.051 0.16c2.915-7.948 4.601-17.126 4.601-26.697 0-34.487-21.889-63.862-52.532-74.99l-0.555-0.176c-8.881-3.323-15.089-11.738-15.089-21.602 0-12.707 10.301-23.008 23.008-23.008 2.683 0 5.258 0.459 7.652 1.303l-0.161-0.049c49.177 17.861 83.671 64.186 83.671 118.568 0 15.079-2.652 29.539-7.516 42.939l0.278-0.876c-3.262 8.997-11.735 15.309-21.682 15.309-2.757 0-5.4-0.485-7.85-1.374l0.16 0.051z" />
<glyph unicode="&#xe937;" horiz-adv-x="1031" d="M821.128 949.386c-4.153 6.425-11.28 10.618-19.387 10.618s-15.234-4.193-19.333-10.528l-0.055-0.090-145.434-227.661c-19.285-29.78-30.749-66.184-30.749-105.266 0-108.004 87.555-195.559 195.559-195.559s195.559 87.555 195.559 195.559c0 39.082-11.464 75.486-31.213 106.033l0.464-0.767zM950.487 600.273c-8.511-75.287-71.833-133.256-148.695-133.256-41.248 0-78.596 16.695-105.657 43.695l0.003-0.003c-27.057 27.068-43.792 64.457-43.792 105.754 0 29.875 8.758 57.704 23.846 81.061l-0.356-0.588 126.035 197.316 126.035-197.316c14.708-22.799 23.45-50.649 23.45-80.541 0-5.679-0.316-11.285-0.93-16.801l0.061 0.678z" />
<glyph unicode="&#xe938;" horiz-adv-x="1031" d="M868.023 699.88c-8.997-3.262-15.309-11.735-15.309-21.682 0-2.757 0.485-5.4 1.374-7.85l-0.051 0.16c3.117-8.501 4.919-18.318 4.919-28.555 0-36.882-23.398-68.3-56.16-80.219l-0.593-0.189c-8.759-3.385-14.859-11.738-14.859-21.517 0-12.707 10.301-23.008 23.008-23.008 2.588 0 5.077 0.427 7.399 1.215l-0.162-0.048c51.371 18.621 87.413 66.995 87.413 123.786 0 15.745-2.77 30.844-7.85 44.834l0.29-0.914c-3.262 8.997-11.735 15.309-21.682 15.309-2.757 0-5.4-0.485-7.85-1.374l0.16 0.051z" />
<glyph unicode="&#xe939;" horiz-adv-x="1293" d="M1252.754 844.366c3.842 26.12 6.037 56.275 6.039 86.941v0.002c-0.001 0-0.003 0-0.004 0-270.334 0-500.78-170.784-589.33-410.344l-1.408-4.35 78.46 19.832c105.462 176.382 290.69 295.609 504.573 307.843l1.67 0.076z" />
<glyph unicode="&#xe93a;" horiz-adv-x="1293" d="M222.292 490.156c104.071-0.044 200.33-33.454 278.671-90.111l-1.393 0.959 57.688 6.18c-87.819 103.601-218.050 168.92-363.537 168.92-59.238 0-115.947-10.829-168.255-30.616l3.273 1.086c11.808-31.619 25.16-58.672 40.844-84.136l-1.179 2.057c45.875 16.246 98.782 25.642 153.881 25.66h0.008z" />
<glyph unicode="&#xe93b;" horiz-adv-x="1293" d="M1059.13 35.091c9.774 7.894 22.35 12.672 36.043 12.672 31.808 0 57.594-25.786 57.594-57.594 0-9.316-2.212-18.116-6.139-25.902l0.151 0.33h-432.365c1.18 43.53 36.748 78.367 80.453 78.367 4.331 0 8.582-0.342 12.728-1.001l-0.458 0.060c14.616 55.763 64.559 96.236 123.955 96.236 61.938 0 113.596-44.010 125.409-102.465l0.138-0.82c0.893 0.117 1.809-0.305 2.491 0.117z" />
<glyph unicode="&#xe93c;" horiz-adv-x="1293" d="M515.642-35.332h-432.365c-3.786 7.464-6.004 16.275-6.004 25.604 0 31.808 25.786 57.594 57.594 57.594 13.71 0 26.301-4.79 36.19-12.788l-0.109 0.085c0.658-0.423 1.598 0 2.35 0 11.974 59.261 63.63 103.254 125.561 103.254 59.389 0 109.33-40.456 123.766-95.313l0.199-0.892c3.688 0.599 7.939 0.941 12.27 0.941 43.705 0 79.273-34.837 80.451-78.258l0.002-0.109z" />
<glyph unicode="&#xe93d;" horiz-adv-x="1293" d="M1258.77 960c-282.66-0.004-523.612-178.576-616.199-429.061l-1.472-4.549c-1.096-2.917-1.73-6.288-1.73-9.807 0-15.833 12.835-28.668 28.668-28.668 2.501 0 4.927 0.32 7.24 0.922l-0.199-0.044 95.050 24.015c-24.431-21.291-46.681-43.242-67.514-66.489l-0.631-0.716c-42.849-47.647-79.422-102.174-107.649-161.443l-1.758-4.101c-22.079 38.012-52.065 69.147-87.887 91.919l-1.077 0.64 56.795 6.086c14.441 1.618 25.564 13.76 25.564 28.499 0 7.069-2.558 13.54-6.8 18.538l0.034-0.041c-93.112 109.846-231.193 179.103-385.449 179.103-62.846 0-123.008-11.496-178.496-32.499l3.469 1.152c-11.022-4.163-18.719-14.626-18.719-26.886 0-3.567 0.652-6.982 1.842-10.133l-0.065 0.197c73.234-193.961 257.327-329.409 473.060-329.443h3.905c15.771 0.082 28.524 12.885 28.524 28.667 0 6.059-1.88 11.679-5.088 16.309l0.062-0.095-60.437 87.953c58.292-24.75 102.528-72.944 121.423-132.426l0.415-1.513c-18.879-57.598-29.767-123.887-29.767-192.719 0-9.392 0.203-18.737 0.604-28.031l-0.045 1.325c0.597-15.351 13.179-27.572 28.619-27.587h1.106c15.357 0.586 27.584 13.178 27.584 28.625 0 0.387-0.008 0.772-0.023 1.156l0.002-0.055c-0.386 7.9-0.607 17.157-0.607 26.465 0 150.856 57.834 288.203 152.54 391.080l-0.37-0.407c33.897 37.965 71.113 71.669 111.602 101.15l2.011 1.396-40.605-160.868c-0.558-2.113-0.878-4.539-0.878-7.040 0-15.833 12.835-28.668 28.668-28.668 3.519 0 6.89 0.634 10.005 1.794l-0.198-0.065c255.001 94.094 433.54 335.041 433.54 617.687 0 0.003 0 0.006 0 0.008v-0.001c0 15.833-12.835 28.668-28.668 28.668v0zM66.758 529.068c38.030 11.695 81.746 18.43 127.035 18.43 116.87 0 223.265-44.848 302.913-118.273l-0.309 0.282-125.104-13.441c-14.431-1.629-25.542-13.765-25.542-28.497 0-6.032 1.863-11.628 5.044-16.246l-0.063 0.096 71.176-103.838c-158.971 19.879-290.595 120.391-354.001 258.689l-1.149 2.797zM1121.282 586.921c-59.892-84.928-139.231-152.32-231.764-196.543l-3.593-1.546 45.516 180.301c0.557 2.111 0.877 4.535 0.877 7.033 0 15.82-12.824 28.644-28.644 28.644-2.498 0-4.922-0.32-7.233-0.921l0.199 0.044-180.254-45.516c93.968 196.372 286.371 332.086 511.571 343.554l1.44 0.058c-5.778-118.672-45.41-227.057-109.354-316.943l1.239 1.834z" />
<glyph unicode="&#xe93e;" horiz-adv-x="1293" d="M1150.396 56.616c-13.964 12.454-32.483 20.065-52.779 20.065-8.179 0-16.070-1.236-23.495-3.531l0.563 0.15c-24.896 55.586-79.729 93.61-143.444 93.61-64.444 0-119.802-38.9-143.875-94.499l-0.391-1.015c-45.885-3.709-83.55-35.101-96.489-77.306l-0.205-0.779h-150.388c-13.136 42.98-50.793 74.372-96.281 78.059l-0.39 0.025c-24.482 56.589-79.832 95.466-144.262 95.466-63.71 0-118.541-38.013-143.051-92.595l-0.398-0.991c-6.87 2.151-14.769 3.39-22.957 3.39-20.285 0-38.795-7.605-52.832-20.119l0.079 0.069c-17.568-15.731-28.93-38.082-30.14-63.096l-0.008-0.208h-28.856v-57.335h1272.469v57.335h-112.791c-1.196 25.214-12.534 47.564-29.993 63.229l-0.084 0.075zM794.776 14.319c0.048 0 0.105 0 0.161 0 2.788 0 5.524-0.222 8.192-0.65l-0.293 0.039c1.327-0.218 2.856-0.342 4.414-0.342 13.282 0 24.454 9.033 27.709 21.29l0.045 0.2c11.392 43.238 50.142 74.605 96.219 74.605 32.862 0 61.997-15.954 80.082-40.54l0.193-0.275c8.181-11.072 14.167-24.281 17.026-38.617l0.104-0.625c2.536-12.707 13.208-22.281 26.257-23.118l0.084-0.004c1.018-0.121 2.197-0.191 3.392-0.191 5.905 0 11.415 1.69 16.073 4.612l-0.126-0.074 0.258 0.164c5.482 4.87 12.743 7.845 20.698 7.845 6.466 0 12.472-1.965 17.456-5.33l-0.111 0.070c5.604-5.131 9.417-12.137 10.439-20.020l0.017-0.165h-369.696c9.452 12.815 24.453 21.064 41.386 21.172h0.017zM117.537 13.473c4.877 3.33 10.9 5.318 17.388 5.318 7.844 0 15.010-2.905 20.479-7.698l-0.036 0.031c4.64-3.060 10.331-4.882 16.448-4.882 1.167 0 2.319 0.066 3.452 0.196l-0.139-0.013c13.153 0.819 23.848 10.401 26.358 22.939l0.031 0.183c2.973 14.952 8.957 28.151 17.32 39.488l-0.19-0.269c18.278 24.861 47.414 40.815 80.275 40.815 46.077 0 84.827-31.367 96.064-73.913l0.156-0.693c3.3-12.458 14.473-21.49 27.755-21.49 1.558 0 3.087 0.124 4.578 0.364l-0.164-0.022c2.406 0.389 5.18 0.611 8.006 0.611 0.027 0 0.055 0 0.082 0h-0.004c16.947-0.102 31.948-8.343 41.304-21.007l0.1-0.141h-369.625c1.036 8.023 4.811 15.016 10.341 20.142l0.021 0.020z" />
</font>
</defs>
</svg>
