<svg id="Layer_1" data-name="Layer 1" xmlns="http://www.w3.org/2000/svg" viewBox="0 0 190 40"><defs><style>.cls-1{fill:#fefefe;}.cls-1,.cls-2,.cls-3{fill-rule:evenodd;}.cls-2,.cls-4{fill:#b0a1fc;}</style></defs><title>Untitled-3</title><path class="cls-1" d="M2.37,31.07a9.06,9.06,0,0,0,1.08-.86A28.2,28.2,0,0,0,8,25a15.3,15.3,0,0,0,1.46-2.55l-1.8,2.12c-.84,1.13-2.57,3.12-3.55,4.33Z"/><path class="cls-1" d="M6.33,33.78c0-.11,2.83-4.32,3.28-6.79a24.37,24.37,0,0,0-3.28,6.79"/><path class="cls-1" d="M13,16.24c1.81-.89,3-.91,3.64-1.29l-1.12-.3A2.19,2.19,0,0,0,13,16.24"/><path class="cls-1" d="M8.65,15A18.12,18.12,0,0,0,11.44,16c-.2-.84-1.69-1.45-2.79-1.06"/><path class="cls-2" d="M14.9,22.07c.16.41,1.19,1.41,1.61,2.07-.44-.25-1-.84-1.47-1.18-1-.75-.6-.29-1.75,0a3.33,3.33,0,0,1-3.44-1c-.21-.12-.25-.12-.47-.25A11.69,11.69,0,0,0,8.25,23L6.06,25.35C4.7,27,1.77,30.05,1,31.76a8.17,8.17,0,0,0,2.06,1.7c3.88,2.37,7.56,2.28,11.88,2.11l-1.2-9.66a27.77,27.77,0,0,1,1.21,4.61c.18.79.38,1.59.6,2.3.1.33.33.8.4,1.06.15.6-.2,0,.08.52,0,0,.14.18.14.19s0,0,0,.11,0,.08,0,.17c-.34.12-.31-.31-.62-.39a1.06,1.06,0,0,0,.52.58l.45-.33c.41.7,1.22.4,1.94.17a12.82,12.82,0,0,0,3.7-1.79c.61-.41,1-.89,1.54-1.24-.23-.92-1.32-1.49-1-2.08-.26.07-.12.1-.26,0s0,0-.11-.13l-.14-.24a.08.08,0,0,1,0,0L22,29.24A5.53,5.53,0,0,1,21,28.05c-.61-.75-1.18-1.33-1.85-2.14s-1.21-1.33-1.89-2.1a26.5,26.5,0,0,0-2-2.07,1.69,1.69,0,0,0-.32.33M4.14,28.87c1-1.21,2.71-3.2,3.55-4.33l1.8-2.12A15.3,15.3,0,0,1,8,25a28.2,28.2,0,0,1-4.58,5.24,9.06,9.06,0,0,1-1.08.86Zm11.49-4.2a11.1,11.1,0,0,1-.79-1.09,38.73,38.73,0,0,1,5.33,6.55,7.83,7.83,0,0,1,1,1.67C21.1,31.7,16,25.12,15.63,24.67Zm-9.3,9.11A24.37,24.37,0,0,1,9.61,27C9.16,29.46,6.36,33.67,6.33,33.78Z"/><path class="cls-3" d="M8.71,21.05,7.42,22.37c-.4.46-.78.83-1.26,1.37-1.5,1.67-3.37,3.78-4.72,5.61-1,1.37-2.06,2.39-1,3.35,4,3.58,8.69,4.25,14,3.9,1.6-.11,1.1-.36,1.57-1,.93.91,2,.46,3.2.08a13.52,13.52,0,0,0,5.14-3.13c.91-.88-.22-2.07-.7-2.73-1-1.39-1.83-2.29-2.8-3.49-.29-.36-.65-.79-.93-1.09L16,21A30.74,30.74,0,0,0,18,17a29.08,29.08,0,0,0,1.38-4.5,19.83,19.83,0,0,0,2.26.7l.14-.35a18.66,18.66,0,0,0-2.2-1c0-1.06-.18-1.08-.84-1.55a1,1,0,0,0-1.53.09c-1.08-.48-1.51-2-4.57-2.4-.06-1.14,0-1.44.6-2.07,2.69-2.67-2.66-4-1.83-.77l.39,0c.13-.69-.14-1.39.81-1.39A.84.84,0,0,1,13.39,5c-.16.42-.78.81-1,1.19a4,4,0,0,0-.3,1.91A5,5,0,0,0,9.39,9c-.35.24-.69.51-1,.77a5.78,5.78,0,0,1-1,.77c-.41-.37-.84-.91-1.69-.1-.54.51-.83.56-.92,1.63-.35.13-.6.25-1,.39s-.67.17-.85.4l.1.32A8.29,8.29,0,0,0,5,12.68a27.23,27.23,0,0,0,1.56,4.48,19.56,19.56,0,0,0,1,2.05Zm3.6-6.68c-1.55-1-1.9-1-3.84-.88a15.63,15.63,0,0,1-.78-2.08C9,11,10.23,10.13,12.23,10.07a10.92,10.92,0,0,1,4.53,1.27,11,11,0,0,1-.51,1.74C14,13,14,13.28,12.31,14.37Zm-6.52-2.6a5.15,5.15,0,0,1,.67-.65c.33.42.89,2.7,1.59,3.6a3.62,3.62,0,0,1,2.73-.1,2.56,2.56,0,0,1,1.54,1.61c.43-.65.43-1.24,1.65-1.82a3.37,3.37,0,0,1,2.83-.1c.33-.64.91-2.87,1.2-3.19.18.13.38.26.56.4a25.93,25.93,0,0,1-1.21,4.31,19.74,19.74,0,0,1-1.7,3.74,5,5,0,0,1-2.89,2.53,2.12,2.12,0,0,1-2-.61A9,9,0,0,1,10,19.6L10.12,21C8.45,19.72,5.89,13.51,5.79,11.77ZM13.29,23c1.15-.32.7-.78,1.75,0,.48.34,1,.93,1.47,1.18-.42-.66-1.45-1.66-1.61-2.07a1.69,1.69,0,0,1,.32-.33,26.5,26.5,0,0,1,2,2.07c.68.77,1.3,1.37,1.89,2.1S20.34,27.3,21,28.05c.72.92,1.94,2.53,2.75,3.82-.5.35-.93.83-1.54,1.24a12.82,12.82,0,0,1-3.7,1.79c-.72.23-1.53.53-1.94-.17-.46-.95-.64-1.21-1-1.91s-.42-1.51-.6-2.3a27.77,27.77,0,0,0-1.21-4.61l1.2,9.66c-4.32.17-8,.26-11.88-2.11A8.17,8.17,0,0,1,1,31.76C1.77,30.05,4.7,27,6.06,25.35L8.25,23a11.69,11.69,0,0,1,1.13-1.19c.22.13.26.13.47.25A3.33,3.33,0,0,0,13.29,23Z"/><path class="cls-2" d="M5.79,11.77c.1,1.74,2.66,8,4.33,9.24L10,19.6a9,9,0,0,0,.82,1.89,2.12,2.12,0,0,0,2,.61,5,5,0,0,0,2.89-2.53,19.74,19.74,0,0,0,1.7-3.74,25.93,25.93,0,0,0,1.21-4.31c-.18-.14-.38-.27-.56-.4-.29.32-.87,2.55-1.2,3.19a3.37,3.37,0,0,0-2.83.1c-1.22.58-1.22,1.17-1.65,1.82a2.56,2.56,0,0,0-1.54-1.61,3.62,3.62,0,0,0-2.73.1c-.7-.9-1.26-3.18-1.59-3.6a5.15,5.15,0,0,0-.67.65M11.44,16A18.12,18.12,0,0,1,8.65,15C9.75,14.57,11.24,15.18,11.44,16Zm1.53.22a2.19,2.19,0,0,1,2.52-1.59l1.12.3C16,15.33,14.78,15.35,13,16.24Z"/><path d="M81.55,36.06V18.13h-3.8V36.06ZM79.63,15.94a2.41,2.41,0,1,0-2.35-2.41A2.41,2.41,0,0,0,79.63,15.94Zm-6.8,20.12V23.44c0-3.67-1.88-5.75-5.65-5.75A8.19,8.19,0,0,0,61,20.58V18.13h-3.8V36.06H61V23.55a5.73,5.73,0,0,1,4.49-2.41c2.13,0,3.51.93,3.51,3.71V36.06Zm-31.06.45c7,0,10.43-4.08,10.43-10.25v-15H47.92V26.15c0,3.94-2.13,6.5-6.15,6.5s-6.19-2.56-6.19-6.5V11.3H31.31v15C31.31,32.39,34.75,36.51,41.77,36.51Z"/><path class="cls-4" d="M184.32,36.06V23.85a6,6,0,0,1,4.49-2.38,5.74,5.74,0,0,1,1.19.11V17.72a7.4,7.4,0,0,0-5.68,3.05V18.13h-3.8V36.06ZM173.06,25.63h-9.85a4.89,4.89,0,0,1,4.93-4.75A4.73,4.73,0,0,1,173.06,25.63Zm-4.63,10.88a10,10,0,0,0,7.09-2.6l-1.74-2.56a7.29,7.29,0,0,1-5,2,5.34,5.34,0,0,1-5.57-4.94h13.5v-.93c0-5.64-3.36-9.76-8.61-9.76s-8.87,4.19-8.87,9.39C159.27,32.76,163.18,36.51,168.43,36.51Zm-14.37,0a4.93,4.93,0,0,0,3.58-1.15l-.91-2.93a2.42,2.42,0,0,1-1.7.63c-1.08,0-1.66-.89-1.66-2.12V21.55h3.55V18.13h-3.55v-4.9h-3.8v4.9h-2.9v3.42h2.9V31.91C149.57,34.88,151.12,36.51,154.06,36.51Zm-10.18-.45V23.44c0-3.67-1.88-5.75-5.64-5.75a8.21,8.21,0,0,0-6.16,2.89V18.13h-3.8V36.06h3.8V23.55a5.74,5.74,0,0,1,4.49-2.41c2.14,0,3.51.93,3.51,3.71V36.06Zm-23-10.43H111a4.88,4.88,0,0,1,4.92-4.75A4.74,4.74,0,0,1,120.83,25.63Zm-4.64,10.88a10,10,0,0,0,7.1-2.6l-1.74-2.56a7.31,7.31,0,0,1-5,2A5.34,5.34,0,0,1,111,28.38h13.5v-.93c0-5.64-3.37-9.76-8.62-9.76S107,21.88,107,27.08C107,32.76,110.94,36.51,116.19,36.51ZM96.61,23H90.82V15.12h5.79a3.85,3.85,0,0,1,4.13,3.94A3.85,3.85,0,0,1,96.61,23Zm8.65,13.06-5.9-9.72c2.9-.49,5.72-2.86,5.72-7.28S102,11.3,97.19,11.3H86.58V36.06h4.24V26.82H95l5.35,9.24Z"/></svg>