<svg xmlns="http://www.w3.org/2000/svg" xmlns:xlink="http://www.w3.org/1999/xlink" width="51.209" height="41.681" viewBox="0 0 51.209 41.681">
  <defs>
    <style>
      .cls-1 {
        fill: none;
      }

      .cls-2 {
        clip-path: url(#clip-path);
      }

      .cls-3, .cls-4 {
        fill: #0f85d6;
      }

      .cls-3 {
        opacity: 0.3;
      }
    </style>
    <clipPath id="clip-path">
      <rect class="cls-1" width="51.209" height="41.681"/>
    </clipPath>
  </defs>
  <g id="Component_12_1" data-name="Component 12 – 1" class="cls-2">
    <path id="Path_197" data-name="Path 197" class="cls-3" d="M-485.747,320.91a2.854,2.854,0,0,0-2.674.268,2.854,2.854,0,0,0-1.265,2.371v7.431h2.169v-7.431A2.858,2.858,0,0,1-485.747,320.91Z" transform="translate(524.655 -319.329)"/>
    <path id="Path_198" data-name="Path 198" class="cls-3" d="M-797.775,605.686V602.4h-2.169v3.288a5.042,5.042,0,0,0,4.973,5.1h2.169A5.043,5.043,0,0,1-797.775,605.686Z" transform="translate(801.252 -570.468)"/>
    <path id="Path_199" data-name="Path 199" class="cls-3" d="M-741.171,320.7h-2.169a3.366,3.366,0,0,0-3.354,3.321l-.2,26.049h2.169l.2-26.049A3.366,3.366,0,0,1-741.171,320.7Z" transform="translate(753.961 -319.329)"/>
    <g id="Group_82" data-name="Group 82">
      <path id="Path_200" data-name="Path 200" class="cls-4" d="M-773.961,308.1c-.047,0-.094,0-.14,0a.615.615,0,0,0-.068,0h-26.949a4.825,4.825,0,0,0-4.809,4.762l-.211,25.786h-5.211a.651.651,0,0,0-.651.651v3.864a6.573,6.573,0,0,0,6.08,6.6.64.64,0,0,0,.136.014H-783.8a.648.648,0,0,0,.09-.007c.09,0,.181.007.272.007a6.567,6.567,0,0,0,6.471-6.116c0-.015,0-.03,0-.045l.011-2.9.005-14.522v-5.445h6.627a.651.651,0,0,0,.651-.651V312.39A4.3,4.3,0,0,0-773.961,308.1Zm-31.549,40.38a5.259,5.259,0,0,1-5.188-5.317v-3.213h20.768v3.213a6.653,6.653,0,0,0,2.63,5.317Zm27.26-22.28-.005,14.519-.011,2.874a5.262,5.262,0,0,1-5.175,4.888,5.26,5.26,0,0,1-5.188-5.317V339.3a.65.65,0,0,0-.651-.651h-15.555l.211-25.774a3.519,3.519,0,0,1,3.507-3.472h24.083a4.275,4.275,0,0,0-1.216,2.988Zm7.277-6.746h-5.975V312.39a2.988,2.988,0,0,1,2.988-2.988,2.988,2.988,0,0,1,2.988,2.988Z" transform="translate(812 -308.1)"/>
      <path id="Path_201" data-name="Path 201" class="cls-4" d="M-561.839,388.515h-.574a.651.651,0,0,0-.651.651.651.651,0,0,0,.651.651h.574a.651.651,0,0,0,.651-.651A.65.65,0,0,0-561.839,388.515Z" transform="translate(590.071 -379.79)"/>
      <path id="Path_202" data-name="Path 202" class="cls-4" d="M-606.518,389.166a.651.651,0,0,0,.651.651h2.29a.651.651,0,0,0,.651-.651.651.651,0,0,0-.651-.651h-2.29A.651.651,0,0,0-606.518,389.166Z" transform="translate(628.812 -379.79)"/>
      <path id="Path_203" data-name="Path 203" class="cls-4" d="M-698.716,389.817h7.848a.651.651,0,0,0,.651-.651.651.651,0,0,0-.651-.651h-7.848a.65.65,0,0,0-.651.651A.651.651,0,0,0-698.716,389.817Z" transform="translate(711.587 -379.79)"/>
      <path id="Path_204" data-name="Path 204" class="cls-4" d="M-579.664,348.524h-2.743a.651.651,0,0,0-.651.651.651.651,0,0,0,.651.651h2.743a.651.651,0,0,0,.651-.651A.65.65,0,0,0-579.664,348.524Z" transform="translate(607.897 -344.138)"/>
      <path id="Path_205" data-name="Path 205" class="cls-4" d="M-665.852,349.826h6.628a.651.651,0,0,0,.651-.651.651.651,0,0,0-.651-.651h-6.628a.651.651,0,0,0-.651.651A.651.651,0,0,0-665.852,349.826Z" transform="translate(682.289 -344.138)"/>
      <path id="Path_206" data-name="Path 206" class="cls-4" d="M-698.716,349.826h1.34a.651.651,0,0,0,.651-.651.651.651,0,0,0-.651-.651h-1.34a.65.65,0,0,0-.651.651A.651.651,0,0,0-698.716,349.826Z" transform="translate(711.587 -344.138)"/>
      <path id="Path_207" data-name="Path 207" class="cls-4" d="M-662.969,428.505H-675.85a.651.651,0,0,0-.651.651.651.651,0,0,0,.651.651h12.881a.651.651,0,0,0,.651-.651A.65.65,0,0,0-662.969,428.505Z" transform="translate(691.202 -415.442)"/>
      <path id="Path_208" data-name="Path 208" class="cls-4" d="M-698.716,429.807h.255a.651.651,0,0,0,.651-.651.651.651,0,0,0-.651-.651h-.255a.65.65,0,0,0-.651.651A.651.651,0,0,0-698.716,429.807Z" transform="translate(711.587 -415.442)"/>
      <path id="Path_209" data-name="Path 209" class="cls-4" d="M-561.839,508.486h-.574a.651.651,0,0,0-.651.651.651.651,0,0,0,.651.651h.574a.651.651,0,0,0,.651-.651A.65.65,0,0,0-561.839,508.486Z" transform="translate(590.071 -486.745)"/>
      <path id="Path_210" data-name="Path 210" class="cls-4" d="M-602.927,509.137a.651.651,0,0,0-.651-.651h-2.29a.651.651,0,0,0-.651.651.651.651,0,0,0,.651.651h2.29A.651.651,0,0,0-602.927,509.137Z" transform="translate(628.812 -486.745)"/>
      <path id="Path_211" data-name="Path 211" class="cls-4" d="M-698.716,509.788h7.848a.651.651,0,0,0,.651-.651.651.651,0,0,0-.651-.651h-7.848a.65.65,0,0,0-.651.651A.651.651,0,0,0-698.716,509.788Z" transform="translate(711.587 -486.745)"/>
      <path id="Path_212" data-name="Path 212" class="cls-4" d="M-579.664,468.5h-2.743a.651.651,0,0,0-.651.651.651.651,0,0,0,.651.651h2.743a.651.651,0,0,0,.651-.651A.65.65,0,0,0-579.664,468.5Z" transform="translate(607.897 -451.094)"/>
      <path id="Path_213" data-name="Path 213" class="cls-4" d="M-659.224,469.8a.651.651,0,0,0,.651-.651.651.651,0,0,0-.651-.651h-6.628a.651.651,0,0,0-.651.651.651.651,0,0,0,.651.651Z" transform="translate(682.289 -451.094)"/>
      <path id="Path_214" data-name="Path 214" class="cls-4" d="M-698.716,469.8h1.34a.651.651,0,0,0,.651-.651.651.651,0,0,0-.651-.651h-1.34a.65.65,0,0,0-.651.651A.651.651,0,0,0-698.716,469.8Z" transform="translate(711.587 -451.094)"/>
      <path id="Path_215" data-name="Path 215" class="cls-4" d="M-573.84,548.477h-2.034a.651.651,0,0,0-.651.651.651.651,0,0,0,.651.651h2.034a.651.651,0,0,0,.651-.651A.65.65,0,0,0-573.84,548.477Z" transform="translate(602.073 -522.398)"/>
      <path id="Path_216" data-name="Path 216" class="cls-4" d="M-687.615,548.477h-11.1a.65.65,0,0,0-.651.651.651.651,0,0,0,.651.651h11.1a.651.651,0,0,0,.651-.651A.651.651,0,0,0-687.615,548.477Z" transform="translate(711.587 -522.398)"/>
    </g>
    <path id="Path_217" data-name="Path 217" class="cls-4" d="M-398.075,322h-1.085a2.823,2.823,0,0,0-2.82,2.82v28.564c0,.012,0,.024,0,.036a.139.139,0,0,0,0,.022.656.656,0,0,0,.011.075h0a.61.61,0,0,0,.02.072l.006.017q.011.029.024.057l0,.01,2.643,5.286v1.055a.651.651,0,0,0,.651.651.651.651,0,0,0,.651-.651V358.96l2.643-5.286,0-.01q.013-.028.024-.057c0-.006,0-.011.006-.017a.682.682,0,0,0,.02-.072h0a.656.656,0,0,0,.011-.075c0-.008,0-.015,0-.022s0-.024,0-.036V324.819A2.823,2.823,0,0,0-398.075,322Zm-2.6,30.733V326.284h1.41v26.448Zm2.712-26.448h1.41v26.448h-1.41Zm-1.193-2.983h1.085a1.52,1.52,0,0,1,1.519,1.519v.163h-4.122v-.163A1.52,1.52,0,0,1-399.16,323.3Zm.542,34.05-1.659-3.317h3.318Z" transform="translate(446.465 -320.491)"/>
  </g>
</svg>
