<svg xmlns="http://www.w3.org/2000/svg" xmlns:xlink="http://www.w3.org/1999/xlink" width="55.033" height="43.578" viewBox="0 0 55.033 43.578">
  <defs>
    <style>
      .cls-1 {
        fill: none;
      }

      .cls-2 {
        clip-path: url(#clip-path);
      }

      .cls-3, .cls-4 {
        fill: #0f85d6;
      }

      .cls-3 {
        opacity: 0.3;
      }
    </style>
    <clipPath id="clip-path">
      <rect class="cls-1" width="55.033" height="43.578"/>
    </clipPath>
  </defs>
  <g id="Component_8_1" data-name="Component 8 – 1" class="cls-2">
    <path id="Path_135" data-name="Path 135" class="cls-3" d="M257.864,60.831a26.785,26.785,0,0,0,.257-3.7,26.73,26.73,0,0,0-25.14,17.648l3.339-.844A26.736,26.736,0,0,1,257.864,60.831Z" transform="translate(-204.551 -55.91)"/>
    <path id="Path_136" data-name="Path 136" class="cls-3" d="M18.237,184.652a20.273,20.273,0,0,1,11.8,3.794l2.455-.263A20.242,20.242,0,0,0,10,182.251a20.245,20.245,0,0,0,1.688,3.493A20.222,20.222,0,0,1,18.237,184.652Z" transform="translate(-8.777 -164.657)"/>
    <path id="Path_137" data-name="Path 137" class="cls-3" d="M263.853,338.089a2.451,2.451,0,0,1,3.73,3h-18.4a3.425,3.425,0,0,1,3.946-3.295,5.445,5.445,0,0,1,10.618.3C263.785,338.089,263.824,338.107,263.853,338.089Z" transform="translate(-218.78 -298.728)"/>
    <path id="Path_138" data-name="Path 138" class="cls-3" d="M45.862,341.107h-18.4a2.451,2.451,0,0,1,3.731-3c.028.018.068,0,.1,0a5.446,5.446,0,0,1,10.619-.3,3.425,3.425,0,0,1,3.946,3.295Z" transform="translate(-23.918 -298.749)"/>
    <path id="Path_139" data-name="Path 139" class="cls-4" d="M53.567,47.133A27.949,27.949,0,0,0,27.281,65.586a1.22,1.22,0,0,0,1.446,1.6l4.045-1.022a32.225,32.225,0,0,0-2.9,2.86,28.868,28.868,0,0,0-4.656,7.045A11.28,11.28,0,0,0,21.43,72.13l2.417-.259a1.22,1.22,0,0,0,.8-2A21.462,21.462,0,0,0,.795,63.583,1.22,1.22,0,0,0,.074,65.15a21.469,21.469,0,0,0,20.132,14.02h.166a1.22,1.22,0,0,0,1-1.91L18.8,73.517a9.091,9.091,0,0,1,5.185,5.7,27.183,27.183,0,0,0-1.243,9.338,1.22,1.22,0,0,0,1.218,1.174h.047a1.219,1.219,0,0,0,1.173-1.265A24.58,24.58,0,0,1,31.63,70.712a29.883,29.883,0,0,1,4.835-4.364l-1.728,6.846a1.22,1.22,0,0,0,1.6,1.446A27.951,27.951,0,0,0,54.787,48.353,1.22,1.22,0,0,0,53.567,47.133ZM2.839,65.472a19.024,19.024,0,0,1,18.284,4.237l-5.324.572a1.22,1.22,0,0,0-.875,1.9L17.953,76.6A19.1,19.1,0,0,1,2.839,65.472ZM47.716,63.01A25.36,25.36,0,0,1,37.7,71.44l1.937-7.673a1.219,1.219,0,0,0-1.481-1.481l-7.671,1.937A25.518,25.518,0,0,1,52.317,49.6,25.364,25.364,0,0,1,47.716,63.01Z" transform="translate(0.002 -47.133)"/>
    <path id="Path_140" data-name="Path 140" class="cls-4" d="M55.32,328.418a3.381,3.381,0,0,0-3.222-.71,6.669,6.669,0,0,0-12.244.081,4.677,4.677,0,0,0-4.115,3.323h-6.4a4.676,4.676,0,0,0-4.114-3.323,6.67,6.67,0,0,0-12.244-.08,3.38,3.38,0,0,0-3.222.709,3.853,3.853,0,0,0-1.283,2.694H7.248v2.44H61.4v-2.44H56.6A3.852,3.852,0,0,0,55.32,328.418Zm-15.134,1.8a2.185,2.185,0,0,1,.343.026,1.22,1.22,0,0,0,1.369-.9,4.228,4.228,0,0,1,7.511-1.438,4.173,4.173,0,0,1,.729,1.67,1.219,1.219,0,0,0,1.121.984,1.289,1.289,0,0,0,.823-.185l.011-.007a1.329,1.329,0,0,1,1.619-.11,1.4,1.4,0,0,1,.445.859H38.424A2.2,2.2,0,0,1,40.186,330.216Zm-28.821.036a1.323,1.323,0,0,1,1.61.1,1.283,1.283,0,0,0,.841.2,1.219,1.219,0,0,0,1.123-.984,4.18,4.18,0,0,1,.729-1.669,4.228,4.228,0,0,1,7.511,1.438,1.22,1.22,0,0,0,1.369.9,2.245,2.245,0,0,1,.344-.026,2.2,2.2,0,0,1,1.762.9H10.924a1.408,1.408,0,0,1,.441-.858Z" transform="translate(-6.363 -289.973)"/>
  </g>
</svg>
