<svg xmlns="http://www.w3.org/2000/svg" xmlns:xlink="http://www.w3.org/1999/xlink" width="43.406" height="43.126" viewBox="0 0 43.406 43.126">
  <defs>
    <style>
      .cls-1 {
        fill: none;
      }

      .cls-2 {
        clip-path: url(#clip-path);
      }

      .cls-3, .cls-4 {
        fill: #0f85d6;
      }

      .cls-3 {
        opacity: 0.3;
      }
    </style>
    <clipPath id="clip-path">
      <rect class="cls-1" width="43.406" height="43.126"/>
    </clipPath>
  </defs>
  <g id="Component_10_1" data-name="Component 10 – 1" class="cls-2">
    <path id="Path_182" data-name="Path 182" class="cls-3" d="M30.91,84.892a8.721,8.721,0,0,1-1.183-10.859l5.411-8.472L33.2,62.527,25.851,74.033a8.717,8.717,0,0,0,9.287,13.194A8.685,8.685,0,0,1,30.91,84.892Z" transform="translate(-22.107 -56.566)"/>
    <path id="Path_183" data-name="Path 183" class="cls-3" d="M279.49,29.637a7.267,7.267,0,0,1-.986-9.049l4.187-6.555L280.753,11l-6.124,9.588A7.265,7.265,0,0,0,282.691,31.5,7.23,7.23,0,0,1,279.49,29.637Z" transform="translate(-246.987 -10.031)"/>
    <path id="Path_184" data-name="Path 184" class="cls-4" d="M37.205,402.109a5.539,5.539,0,0,0-3.682,1.356,3.759,3.759,0,0,1-5.038,0,5.675,5.675,0,0,0-7.364,0,3.759,3.759,0,0,1-5.038,0,5.675,5.675,0,0,0-7.364,0,3.646,3.646,0,0,1-2.519.969,3.646,3.646,0,0,1-2.519-.969A5.54,5.54,0,0,0,0,402.109v1.938a3.646,3.646,0,0,1,2.519.969A5.539,5.539,0,0,0,6.2,406.372a5.539,5.539,0,0,0,3.682-1.356,3.759,3.759,0,0,1,5.038,0,5.675,5.675,0,0,0,7.364,0,3.759,3.759,0,0,1,5.038,0,5.675,5.675,0,0,0,7.364,0,3.759,3.759,0,0,1,5.038,0,5.539,5.539,0,0,0,3.682,1.356v-1.938a3.646,3.646,0,0,1-2.519-.969A5.541,5.541,0,0,0,37.205,402.109Z" transform="translate(0 -363.246)"/>
    <path id="Path_185" data-name="Path 185" class="cls-4" d="M37.205,342.109a5.539,5.539,0,0,0-3.682,1.356,3.759,3.759,0,0,1-5.038,0,5.675,5.675,0,0,0-7.364,0,3.759,3.759,0,0,1-5.038,0,5.675,5.675,0,0,0-7.364,0,3.645,3.645,0,0,1-2.519.969,3.645,3.645,0,0,1-2.519-.969A5.54,5.54,0,0,0,0,342.109v1.938a3.646,3.646,0,0,1,2.519.969A5.539,5.539,0,0,0,6.2,346.372a5.539,5.539,0,0,0,3.682-1.356,3.759,3.759,0,0,1,5.038,0,5.675,5.675,0,0,0,7.364,0,3.759,3.759,0,0,1,5.038,0,5.675,5.675,0,0,0,7.364,0,3.759,3.759,0,0,1,5.038,0,5.539,5.539,0,0,0,3.682,1.356v-1.938a3.645,3.645,0,0,1-2.519-.969A5.541,5.541,0,0,0,37.205,342.109Z" transform="translate(0 -309.059)"/>
    <g id="Group_76" data-name="Group 76" transform="translate(1.405)">
      <path id="Path_186" data-name="Path 186" class="cls-4" d="M25.006,52.974a.969.969,0,0,0-1.634,0L16.024,64.48a9.688,9.688,0,1,0,16.331,0Zm6.889,17.561a7.751,7.751,0,1,1-14.238-5.012L24.189,55.3l6.532,10.227A7.783,7.783,0,0,1,31.894,70.535Z" transform="translate(-14.5 -47.535)"/>
      <path id="Path_187" data-name="Path 187" class="cls-4" d="M123.155,209.412a.969.969,0,0,0-.589,1.237,3.359,3.359,0,0,1-2.042,4.29.969.969,0,0,0,.649,1.826A5.3,5.3,0,0,0,124.392,210a.969.969,0,0,0-1.237-.589Z" transform="translate(-109.669 -189.168)"/>
      <path id="Path_188" data-name="Path 188" class="cls-4" d="M272.552,1.447a.969.969,0,0,0-1.633,0l-6.125,9.588a8.236,8.236,0,1,0,13.882,0ZM278,16.15a6.3,6.3,0,0,1-10.712,3.772h0a6.3,6.3,0,0,1-.855-7.843l5.308-8.31,5.308,8.31A6.319,6.319,0,0,1,278,16.15Z" transform="translate(-239.375 -1)"/>
      <path id="Path_189" data-name="Path 189" class="cls-4" d="M345.463,113.54a.969.969,0,0,0-.589,1.237,3.594,3.594,0,0,1-2.183,4.589.969.969,0,0,0,.648,1.826,5.532,5.532,0,0,0,3.363-7.063h0a.969.969,0,0,0-1.237-.589Z" transform="translate(-310.311 -102.585)"/>
    </g>
  </g>
</svg>
