<svg xmlns="http://www.w3.org/2000/svg" xmlns:xlink="http://www.w3.org/1999/xlink" width="42.014" height="60.296" viewBox="0 0 42.014 60.296">
  <defs>
    <style>
      .cls-1 {
        fill: none;
      }

      .cls-2 {
        clip-path: url(#clip-path);
      }

      .cls-3, .cls-4 {
        fill: #0095fb;
      }

      .cls-3 {
        opacity: 0.29;
      }

      .cls-5 {
        fill: #0f85d6;
      }
    </style>
    <clipPath id="clip-path">
      <rect class="cls-1" width="42.014" height="60.296"/>
    </clipPath>
  </defs>
  <g id="Component_11_3" data-name="Component 11 – 3" class="cls-2">
    <path id="Path_190" data-name="Path 190" class="cls-3" d="M103.858,317.626c-3.2-2.339-4.815-5.291-4.815-8.773v-7.062a51.3,51.3,0,0,0,9.342-5.343q-1.075-.708-2.114-1.469a51.282,51.282,0,0,1-9.678,5.586v7.062c0,3.483,1.62,6.434,4.815,8.773a18.234,18.234,0,0,0,3.777,2.1C104.751,318.244,104.3,317.953,103.858,317.626Z" transform="translate(-95.12 -260.054)"/>
    <g id="Group_80" data-name="Group 80" transform="translate(12.282)">
      <path id="Path_191" data-name="Path 191" class="cls-4" d="M363.741,397.064v-.737a.735.735,0,1,0-1.471,0v.737a.735.735,0,0,0,1.471,0Z" transform="translate(-340.521 -348.336)"/>
      <path id="Path_192" data-name="Path 192" class="cls-5" d="M189.133,16.265a13.993,13.993,0,0,0-2.684,7.648h-.908a.735.735,0,0,0-.735.735v3.123a.735.735,0,0,0,.735.735h1.491l.087,1.265a2.776,2.776,0,0,0-1.788,1.977,3.487,3.487,0,0,0,2.184,4.1,11.541,11.541,0,0,0,5.95,9.544V48.05l-1.315.561.577,1.353,1.433-.612a11.784,11.784,0,0,0,9.794,0l1.372.585v5.351H194.087V56.76h14.925v7.607H190.825v1.471H213.8a.735.735,0,0,0,.735-.735V56.077c0-.02,0-.041,0-.061a6.53,6.53,0,0,0-3.566-5.267l-.04-.019-6.279-2.68V45.365a11.541,11.541,0,0,0,5.894-9.516,3.487,3.487,0,0,0,2.178-4.1,2.777,2.777,0,0,0-1.781-1.975l.087-1.268h1.545a.735.735,0,0,0,.735-.735V24.649a.735.735,0,0,0-.735-.735h-.907a13.951,13.951,0,0,0-2.686-7.66,12.679,12.679,0,0,0-6.221-4.535l.094-.908a.736.736,0,0,0-.731-.811h-6.133a.735.735,0,0,0-.735.735.75.75,0,0,0,0,.076l.094.908a12.672,12.672,0,0,0-6.221,4.546Zm17.664,34.3.987.421v4.3H206.8Zm6.27,5.543v8.258h-2.584V56.024a.735.735,0,0,0-.735-.735h-.493V51.614l1.076.459A5.051,5.051,0,0,1,213.067,56.108Zm-9.888-8.02a10.314,10.314,0,0,1-8.244,0V46.079a11.531,11.531,0,0,0,8.244-.021ZM211.294,32.1a2.015,2.015,0,0,1-1.478,2.436c-.04.01-.081.019-.122.026a.735.735,0,0,0-.607.724V35.3a10.057,10.057,0,0,1-20.113,0v-.018a.735.735,0,0,0-.608-.724,2.015,2.015,0,0,1-1.632-2.335q.011-.064.027-.127a1.288,1.288,0,0,1,.774-.91,1.617,1.617,0,0,0,.5.4l1.293.664a.957.957,0,0,0,1.39-.775l.237-2.969h15.821c.119.516.262,1.028.429,1.529l.651,1.954a.953.953,0,0,0,.672.625.965.965,0,0,0,.238.03.952.952,0,0,0,.651-.257l.909-.848a1.847,1.847,0,0,0,.269-.317,1.285,1.285,0,0,1,.7.877Zm-22.787-3.592h.972l-.167,2.083-.607-.312a.158.158,0,0,1-.085-.129Zm20.93,1.711a.37.37,0,0,1-.117.246l-.324.3-.4-1.195c-.116-.35-.22-.705-.311-1.064h1.268Zm2.4-3.182H207.69a.732.732,0,0,0-.678,0H186.277V25.384h25.562Zm-15.5-14.076a.735.735,0,0,0,.543-.787l-.074-.7h4.5l-.074.7a.735.735,0,0,0,.543.787,10.385,10.385,0,0,1,1.639.59V14.7a6.607,6.607,0,0,1-4.23,6.163,6.589,6.589,0,0,1-4.488-6.256V13.553A10.323,10.323,0,0,1,196.337,12.962Zm-3.11,1.408v.238a8.056,8.056,0,0,0,5.577,7.68l.167.054a.735.735,0,0,0,.467,0,8.078,8.078,0,0,0,5.449-7.636v-.334A11.521,11.521,0,0,1,207.8,17.13a12.467,12.467,0,0,1,2.395,6.784H187.922a12.506,12.506,0,0,1,2.394-6.774,11.531,11.531,0,0,1,2.912-2.77Z" transform="translate(-184.806 -10)"/>
      <path id="Path_193" data-name="Path 193" class="cls-4" d="M285.172,64.112h2.9a.735.735,0,0,0,0-1.471h-2.9a.735.735,0,0,0,0,1.471Z" transform="translate(-272.227 -56.19)"/>
      <path id="Path_194" data-name="Path 194" class="cls-4" d="M285.172,42.324h2.9a.735.735,0,0,0,0-1.471h-2.9a.735.735,0,0,0,0,1.471Z" transform="translate(-272.227 -37.072)"/>
    </g>
    <path id="Path_195" data-name="Path 195" class="cls-4" d="M106.444,287.591l-.069-.029a49.823,49.823,0,0,1-10.194-5.9.735.735,0,0,0-.882,0,49.823,49.823,0,0,1-10.194,5.9l-.069.029a.735.735,0,0,0-.445.676v7.544a12.125,12.125,0,0,0,5.417,9.96,19.087,19.087,0,0,0,5.344,2.733.736.736,0,0,0,.406,0,20.013,20.013,0,0,0,5.522-2.728c3.669-2.594,5.608-6.04,5.608-9.967v-7.544a.735.735,0,0,0-.445-.676Zm-1.026,8.22c0,3.465-1.667,6.407-4.952,8.742a19.166,19.166,0,0,1-4.9,2.474,18.133,18.133,0,0,1-4.686-2.443c-3.2-2.339-4.815-5.291-4.815-8.773v-7.062a51.286,51.286,0,0,0,9.678-5.586,51.3,51.3,0,0,0,9.678,5.586Z" transform="translate(-84.591 -248.237)"/>
    <path id="Path_196" data-name="Path 196" class="cls-4" d="M134.047,365.964a.735.735,0,1,0-1.081,1l3.117,3.379a.735.735,0,0,0,1.037.044l5.9-5.405a.735.735,0,1,0-.993-1.085l-5.361,4.911Z" transform="translate(-126.866 -320.354)"/>
  </g>
</svg>
