<svg xmlns="http://www.w3.org/2000/svg" xmlns:xlink="http://www.w3.org/1999/xlink" width="124" height="63.633" viewBox="0 0 124 63.633">
  <defs>
    <style>
      .cls-1 {
        fill: none;
      }

      .cls-2 {
        clip-path: url(#clip-path);
      }

      .cls-3, .cls-5, .cls-7 {
        fill-rule: evenodd;
      }

      .cls-3 {
        fill: url(#linear-gradient);
      }

      .cls-4 {
        fill: url(#linear-gradient-2);
      }

      .cls-5 {
        fill: url(#linear-gradient-3);
      }

      .cls-6 {
        fill: url(#linear-gradient-4);
      }

      .cls-7 {
        fill: #fff;
      }
    </style>
    <clipPath id="clip-path">
      <rect class="cls-1" width="124" height="63.633"/>
    </clipPath>
    <linearGradient id="linear-gradient" x1="0.5" y1="1" x2="0.5" gradientUnits="objectBoundingBox">
      <stop offset="0.533" stop-color="#5d6e25"/>
      <stop offset="0.585" stop-color="#627327"/>
      <stop offset="1" stop-color="#3f461c"/>
    </linearGradient>
    <linearGradient id="linear-gradient-2" x1="0.5" y1="1" x2="0.5" gradientUnits="objectBoundingBox">
      <stop offset="0" stop-color="#00407d"/>
      <stop offset="0.763" stop-color="#0076be"/>
    </linearGradient>
    <linearGradient id="linear-gradient-3" x1="0.5" y1="1" x2="0.5" gradientUnits="objectBoundingBox">
      <stop offset="0" stop-color="#627327"/>
      <stop offset="0.498" stop-color="#b0c933"/>
      <stop offset="0.57" stop-color="#b0c933"/>
      <stop offset="1" stop-color="#627327"/>
    </linearGradient>
    <linearGradient id="linear-gradient-4" x1="0.5" y1="1" x2="0.5" gradientUnits="objectBoundingBox">
      <stop offset="0" stop-color="#0079c1"/>
      <stop offset="0.498" stop-color="#74acda"/>
      <stop offset="1" stop-color="#0079c1"/>
    </linearGradient>
  </defs>
  <g id="logo_bazan" data-name="logo bazan" class="cls-2" transform="translate(0)">
    <g id="Group_68" data-name="Group 68" transform="translate(80 14.046)">
      <path id="Path_150" data-name="Path 150" class="cls-3" d="M464,170.238l0-.007h-2.8l-.588.543-1.131.52-1.877,3.935,2.872,6.333s1.47.52,1.379.249a4.658,4.658,0,0,1,.045-1.2l2.4-8.389.324-1.094S464.831,170.289,464,170.238Z" transform="translate(-426.872 -170.231)"/>
      <path id="Path_151" data-name="Path 151" class="cls-4" d="M341.945,212.283l-5.356,18.035-1.089,3.571a.728.728,0,0,0,.638.972,7.074,7.074,0,0,0,1.178-.019l8.17-2.739,3.782-7.9-5.476-11.862Z" transform="translate(-335.46 -201.703)"/>
      <path id="Path_152" data-name="Path 152" class="cls-5" d="M427.976,203.39c.751-.09.557-.884.557-.884l-.247-.835-.122-.491-6.311-21.326-1.13-3.72c-1.129-3.72,2.94-5.9,2.94-5.9H405.6a.679.679,0,0,0-.7.9l2.815,9.492,3.164,10.638,3.329,10.688-.243.815-.49.643h14.44" transform="translate(-387.41 -170.231)"/>
      <path id="Path_153" data-name="Path 153" class="cls-6" d="M360.22,170.231s-4.288,2.2-3.159,5.925l1.129,3.72s6.538,22.1,6.625,22.361a.942.942,0,0,1-.1.975,1.244,1.244,0,0,1-.586.2H338.75a14.224,14.224,0,0,0,4.6-1.442,11.791,11.791,0,0,0,3.737-3.115c2.193-2.74.125-7.573.125-7.573l-3.164-10.638-2.815-9.492s-.225-.9.7-.9S360.22,170.231,360.22,170.231Z" transform="translate(-337.922 -170.231)"/>
    </g>
    <g id="Group_69" data-name="Group 69" transform="translate(0 20.046)">
      <path id="Path_154" data-name="Path 154" class="cls-7" d="M381.1,340.659h-2.761v-.353q0-3.31,0-6.62a4.165,4.165,0,0,0-.027-.694,1.181,1.181,0,0,0-1.106-1.063,8.775,8.775,0,0,0-2.036.007c-.934.134-1.264.68-1.2,1.729.032.522.086,1.043.1,1.565.034,1.025.076,2.051.064,3.076a2.909,2.909,0,0,1-.631,1.875,2.223,2.223,0,0,1-1.667.717,4.472,4.472,0,0,1-1.917-.3.314.314,0,0,1-.174-.22c-.015-.564-.008-1.127-.008-1.72.216.035.417.065.618.1a.816.816,0,0,0,1.072-.863q-.051-1.733-.163-3.464a2.611,2.611,0,0,1,1.152-2.523c.039-.027.077-.058.123-.092h-2.3V329.44h.333c2.156,0,4.312-.017,6.468.011a9.994,9.994,0,0,1,1.967.228,2.439,2.439,0,0,1,1.956,2.149,8.09,8.09,0,0,1,.123,1.407c.012,2.347.006,4.695.006,7.043Z" transform="translate(-345.37 -329.427)"/>
      <path id="Path_155" data-name="Path 155" class="cls-7" d="M525.866,340.677a3.114,3.114,0,0,1,.171-.443q1.1-1.9,2.208-3.8c.1-.174.209-.342.314-.514a2.792,2.792,0,0,0,.44-1.661c-.03-.482,0-.967-.02-1.45a.873.873,0,0,0-.859-.9,4.441,4.441,0,0,0-.511-.032q-2.8,0-5.591,0h-.339v-2.418h.331c2.3,0,4.595-.006,6.891.006a5.21,5.21,0,0,1,1.192.138,2,2,0,0,1,1.58,2.056c.073,1.152.041,2.312.007,3.467a3.692,3.692,0,0,1-.646,1.824q-1.113,1.793-2.246,3.573a.343.343,0,0,1-.222.156C527.679,340.681,526.794,340.677,525.866,340.677Z" transform="translate(-459.084 -329.438)"/>
      <path id="Path_156" data-name="Path 156" class="cls-7" d="M276.282,343.572H273.6V329.538h2.682Z" transform="translate(-273.421 -329.504)"/>
      <path id="Path_157" data-name="Path 157" class="cls-7" d="M291.964,331.909H289.5v-2.352h5.662v2.375c-.061.006-.119.015-.176.016a1.577,1.577,0,0,0-1.628,1.664c-.008,2.246,0,4.494,0,6.741v.382h-2.709V340.4c0-1.9.028-3.809-.01-5.713A2.855,2.855,0,0,1,291.964,331.909Z" transform="translate(-285.323 -329.518)"/>
      <path id="Path_158" data-name="Path 158" class="cls-7" d="M464.372,329.519h2.618c.119.469.193,10.153.085,11.19h-2.7Z" transform="translate(-416.196 -329.49)"/>
      <path id="Path_159" data-name="Path 159" class="cls-7" d="M522.188,347.218h2.668V356.8h-2.668Z" transform="translate(-459.466 -342.736)"/>
      <path id="Path_160" data-name="Path 160" class="cls-7" d="M272.887,394.837h1c.086.475.171.943.257,1.411l.062.009c.029-.085.059-.169.088-.255.32-.929.858-1.267,1.979-1.241a1.55,1.55,0,0,1,1.455,1.3,4.853,4.853,0,0,1-.022,2.818,1.677,1.677,0,0,1-2.216,1.2c-.29-.056-.416-.2-.367-.494a2.294,2.294,0,0,0,0-.353c.2.023.37.056.544.063a1.048,1.048,0,0,0,1.254-1.056,8.9,8.9,0,0,0-.053-1.706.947.947,0,0,0-.7-.858,1.157,1.157,0,0,0-1.22.292,3.013,3.013,0,0,0-.735,1.832c-.1.695-.164,1.393-.257,2.088a.258.258,0,0,1-.177.17c-.219.022-.44.009-.729.009.036-.474.056-.93.11-1.382.051-.437.179-.868.2-1.3a5.054,5.054,0,0,0-.138-1.121C273.131,395.8,273.007,395.339,272.887,394.837Z" transform="translate(-272.887 -378.317)"/>
      <path id="Path_161" data-name="Path 161" class="cls-7" d="M521.384,399.519c.84.077.979-.091.888-.909-.066-.6-.086-1.2-.1-1.806a1.182,1.182,0,0,1,.521-.951h-1.059V395h.477c.917,0,1.833,0,2.749,0a1.368,1.368,0,0,1,1.57,1.464c.04,1.227.008,2.456.006,3.684,0,.018-.015.035-.033.073h-.858V399.9q0-1.436,0-2.87c0-.091,0-.182-.006-.272-.065-.643-.258-.855-.9-.9a4.541,4.541,0,0,0-.99.057.774.774,0,0,0-.577.9c.046.7.1,1.406.09,2.109a2.369,2.369,0,0,1-.231.947,1.161,1.161,0,0,1-1.464.367.25.25,0,0,1-.085-.172C521.378,399.886,521.384,399.717,521.384,399.519Z" transform="translate(-458.863 -378.496)"/>
      <path id="Path_162" data-name="Path 162" class="cls-7" d="M362.2,395.857c.033-.327.047-.586.1-.839a.308.308,0,0,1,.2-.167c1.16-.273,2.067-.031,2.3,1.338a6.251,6.251,0,0,1-.04,2.483,1.791,1.791,0,0,1-1.817,1.454,5.912,5.912,0,0,1-1.257-.083,1.6,1.6,0,0,1-1.308-1.6c-.055-1.193-.014-2.391-.014-3.606h.89v.32c0,.935.021,1.873,0,2.807-.031,1.155.78,1.422,1.628,1.3a1.129,1.129,0,0,0,1.047-1.223c.018-.49.031-.984,0-1.474-.047-.823-.563-1.141-1.346-.86C362.473,395.742,362.374,395.786,362.2,395.857Z" transform="translate(-338.339 -378.311)"/>
      <path id="Path_163" data-name="Path 163" class="cls-7" d="M313.667,395.062h.875a2.155,2.155,0,0,1,.023.224c0,.956.012,1.913-.007,2.869a3.786,3.786,0,0,1-.143.916,1.52,1.52,0,0,1-1.42,1.2c-.989.065-1.986.016-3,.016v-.818H311.2c-.34-1.493-.669-2.94-1-4.408h.958q.474,2.2.946,4.389a3.712,3.712,0,0,0,.559,0,1.1,1.1,0,0,0,1-1.184c.008-.946,0-1.892,0-2.839C313.667,395.316,313.667,395.206,313.667,395.062Z" transform="translate(-300.66 -378.543)"/>
      <path id="Path_164" data-name="Path 164" class="cls-7" d="M383.259,397.5h-.888a3.7,3.7,0,0,1,.211-2.035,1.63,1.63,0,0,1,1.489-.956,3.27,3.27,0,0,1,.9.023,1.883,1.883,0,0,1,1.712,1.99,7.973,7.973,0,0,1-.117,1.944,1.722,1.722,0,0,1-1.786,1.405c-.724.011-1.449.011-2.173.015a.7.7,0,0,1-.114-.023c-.015-.261-.029-.527-.045-.832.5,0,.979.006,1.459,0,.28-.005.561-.024.84-.049a1,1,0,0,0,.943-.828,3.7,3.7,0,0,0-.009-1.932,1.339,1.339,0,0,0-1.993-.668,1.365,1.365,0,0,0-.427,1.082C383.24,396.916,383.259,397.2,383.259,397.5Z" transform="translate(-354.786 -378.117)"/>
      <path id="Path_165" data-name="Path 165" class="cls-7" d="M545.322,395.838V395c.519,0,1.029-.008,1.538,0a5.175,5.175,0,0,1,1.017.074,1.389,1.389,0,0,1,1.085,1.391,10.87,10.87,0,0,1-.071,2.042,3.19,3.19,0,0,1-.428.9h.737v.832h-3.927v-.832h1.515c.931,0,1.2-.205,1.281-1.128a7.7,7.7,0,0,0-.044-1.563c-.076-.658-.354-.873-1.026-.878C546.447,395.835,545.9,395.838,545.322,395.838Z" transform="translate(-476.743 -378.491)"/>
      <path id="Path_166" data-name="Path 166" class="cls-7" d="M331.883,400.229v-.835c.306,0,.613.007.92,0,.391-.011.782-.025,1.172-.053a.63.63,0,0,0,.585-.5,4.767,4.767,0,0,0,.015-2.437c-.107-.418-.4-.575-.94-.581s-1.107,0-1.686,0V395c.773,0,1.55-.058,2.314.016a1.385,1.385,0,0,1,1.312,1.446,10.049,10.049,0,0,1-.065,2.013,3.3,3.3,0,0,1-.417.906h.712v.852Z" transform="translate(-317.04 -378.477)"/>
      <path id="Path_167" data-name="Path 167" class="cls-7" d="M416.323,394.8c.162-.306.287-.576.442-.827.3-.477.6-.953.922-1.413a2.4,2.4,0,0,0,.231-1.719c-.028-.31-.29-.446-.72-.453-.513-.008-1.026,0-1.54,0a.428.428,0,0,1-.486-.449c-.005-.06,0-.12,0-.181V387.7h.9c0,.464,0,.924,0,1.384,0,.4.06.452.456.453.413,0,.826,0,1.238,0a.955.955,0,0,1,1.059.893,8.01,8.01,0,0,1-.006,1.747,2.555,2.555,0,0,1-.422.918c-.3.5-.634.978-.936,1.476a.413.413,0,0,1-.437.225C416.812,394.784,416.6,394.8,416.323,394.8Z" transform="translate(-379.373 -373.036)"/>
      <path id="Path_168" data-name="Path 168" class="cls-7" d="M444.4,400.239a6.825,6.825,0,0,1,.31-.653c.329-.541.664-1.077,1.016-1.6a2.138,2.138,0,0,0,.209-1.77c-.083-.359-.439-.379-.742-.383-.785-.01-1.57,0-2.355,0h-.342V395c.094,0,.19-.012.286-.012.956,0,1.913.018,2.868-.007.9-.022,1.2.459,1.256,1.167a5.029,5.029,0,0,1-.009,1.205,3.358,3.358,0,0,1-.383,1.059c-.3.543-.677,1.045-1,1.578a.451.451,0,0,1-.485.255C444.839,400.225,444.647,400.239,444.4,400.239Z" transform="translate(-399.82 -378.48)"/>
      <path id="Path_169" data-name="Path 169" class="cls-7" d="M473.24,395.846V395h1.031q1.071,0,2.143,0a1.059,1.059,0,0,1,1.235,1.117,5.418,5.418,0,0,1-.008,1.295,3.139,3.139,0,0,1-.387,1.027c-.3.532-.666,1.027-.981,1.553a.473.473,0,0,1-.508.267c-.179-.017-.361,0-.6,0a3.3,3.3,0,0,1,.185-.45c.342-.567.674-1.142,1.053-1.684a2.225,2.225,0,0,0,.286-1.843.675.675,0,0,0-.351-.363,1.191,1.191,0,0,0-.5-.068C474.985,395.842,474.13,395.846,473.24,395.846Z" transform="translate(-422.833 -378.498)"/>
      <path id="Path_170" data-name="Path 170" class="cls-7" d="M402.6,400.319v-.83h1.4c0-.272,0-.52,0-.767-.009-.745.005-1.491-.039-2.234-.025-.44-.176-.542-.62-.571-.209-.014-.42,0-.669,0v-.8a10.038,10.038,0,0,1,1.4.014.9.9,0,0,1,.762.889c.029.3.048.6.051.9.006,1.017,0,2.035,0,3.052v.349Z" transform="translate(-369.966 -378.566)"/>
      <path id="Path_171" data-name="Path 171" class="cls-7" d="M496.144,395.083v.782c-.7.149-.891.4-.891,1.143,0,1.088,0,2.175,0,3.287h-.891v-1.511q0-.816,0-1.631a1.426,1.426,0,0,1,.56-1.231H493.83v-.839Z" transform="translate(-438.243 -378.559)"/>
      <path id="Path_172" data-name="Path 172" class="cls-7" d="M465.744,400.322h-.862V395.1h.862Z" transform="translate(-416.578 -378.57)"/>
      <path id="Path_173" data-name="Path 173" class="cls-7" d="M474.479,408.07h-.86V403h.86Z" transform="translate(-423.117 -384.483)"/>
      <path id="Path_174" data-name="Path 174" class="cls-7" d="M442.872,402.967h.855v5.077h-.855Z" transform="translate(-400.105 -384.459)"/>
      <path id="Path_175" data-name="Path 175" class="cls-7" d="M514.962,395.092h.855v3.039h-.855Z" transform="translate(-454.058 -378.565)"/>
      <path id="Path_176" data-name="Path 176" class="cls-7" d="M304.048,391.423c-.266.673-.507,1.286-.749,1.9-.022.056-.052.109-.076.164-.193.444-.192.444-.727.38.182-.768.36-1.533.551-2.3a.255.255,0,0,1,.188-.139C303.474,391.414,303.716,391.423,304.048,391.423Z" transform="translate(-295.047 -375.817)"/>
      <path id="Path_177" data-name="Path 177" class="cls-7" d="M297.605,391.432c-.108.314-.2.616-.316.909-.144.374-.3.744-.456,1.112-.191.449-.194.448-.74.4.141-.593.277-1.182.423-1.769.174-.7.178-.7.916-.674C297.471,391.409,297.51,391.419,297.605,391.432Z" transform="translate(-290.255 -375.801)"/>
      <path id="Path_178" data-name="Path 178" class="cls-7" d="M427.059,334.142c1.188-1.369,1.068-3.042,1-4.7h-2.633c0,.729.017,1.434,0,2.139a3.413,3.413,0,0,1-.523,1.856,2.185,2.185,0,0,1-1.005.849c-.8-1.371-1.643-2.706-2.366-4.1-.025-.049-.051-.1-.076-.139-.093-.16-.2-.429-.324-.641h-2.851a.809.809,0,0,1-.143.013,27.341,27.341,0,0,0,6.046,8.881h-5.5v2.329h8.914c0-.357.008-1.85.008-1.85s-1.771-2.35-2.317-3.024a2.611,2.611,0,0,0,.243-.177A18.437,18.437,0,0,0,427.059,334.142Z" transform="translate(-381.587 -329.403)"/>
      <path id="Path_179" data-name="Path 179" class="cls-7" d="M488.063,338.339a1.34,1.34,0,0,1,.122-.1,2.66,2.66,0,0,0,1.195-1.679,10.433,10.433,0,0,0,.1-4.453,2.923,2.923,0,0,0-1.969-2.358,6.611,6.611,0,0,0-2.165-.3c-.815-.009-1.63-.006-2.445,0h-1.468s0,1.82,0,2.421h.335c1.1,0,2.2,0,3.3,0,.983.006,1.458.343,1.645,1.284a9.924,9.924,0,0,1,0,3.862,1.35,1.35,0,0,1-1.561,1.255c-1.159.011-2.318.005-3.475.006h-.34v2.382h8.71v-2.323C490.029,338.331,488.04,338.331,488.063,338.339Z" transform="translate(-428.888 -329.433)"/>
      <path id="Path_180" data-name="Path 180" class="cls-7" d="M323.478,338.339a1.143,1.143,0,0,1,.122-.1,2.657,2.657,0,0,0,1.194-1.679,10.437,10.437,0,0,0,.1-4.453,2.924,2.924,0,0,0-1.969-2.358,6.607,6.607,0,0,0-2.166-.3c-.814-.009-1.629-.006-2.444,0H316.85s0,1.82,0,2.421h.336c1.1,0,2.2,0,3.294,0,.983.006,1.458.343,1.646,1.284a9.942,9.942,0,0,1,0,3.862,1.349,1.349,0,0,1-1.56,1.255c-1.159.011-2.317.005-3.476.006h-.339v2.382h8.71v-2.323C325.443,338.331,323.455,338.331,323.478,338.339Z" transform="translate(-305.711 -329.433)"/>
    </g>
  </g>
</svg>
