<svg xmlns="http://www.w3.org/2000/svg" xmlns:xlink="http://www.w3.org/1999/xlink" width="189.118" height="47" viewBox="0 0 189.118 47">
  <defs>
    <style>
      .cls-1 {
        fill: none;
      }

      .cls-2 {
        clip-path: url(#clip-path);
      }

      .cls-3 {
        fill: #0f85d6;
      }
    </style>
    <clipPath id="clip-path">
      <rect class="cls-1" width="189.118" height="47"/>
    </clipPath>
  </defs>
  <g id="logo_report" data-name="logo report" class="cls-2">
    <path id="Path_269" data-name="Path 269" class="cls-3" d="M-77.64-15.68a4.7,4.7,0,0,0,1.88-3.8,3.88,3.88,0,0,0-1.06-2.84,4.389,4.389,0,0,0-3.26-1.08,4.431,4.431,0,0,0-3.12,1,5.733,5.733,0,0,0-1.56,2.84,1.388,1.388,0,0,1-.46.76,1.14,1.14,0,0,1-.74.28h-3.16a1.124,1.124,0,0,1-.8-.3.909.909,0,0,1-.28-.78,8.838,8.838,0,0,1,1.52-4.42,9.718,9.718,0,0,1,3.6-3.2,10.477,10.477,0,0,1,4.96-1.18,10.24,10.24,0,0,1,5.36,1.32,8.714,8.714,0,0,1,3.3,3.38,8.934,8.934,0,0,1,1.1,4.26,10.978,10.978,0,0,1-.28,2.64,6.632,6.632,0,0,1-1.2,2.34,16.735,16.735,0,0,1-2.72,2.7L-81.96-5h11.12a1.038,1.038,0,0,1,.76.32,1.038,1.038,0,0,1,.32.76v2.84a1.038,1.038,0,0,1-.32.76,1.038,1.038,0,0,1-.76.32H-89.52a1.038,1.038,0,0,1-.76-.32,1.038,1.038,0,0,1-.32-.76V-3.52A2.384,2.384,0,0,1-89.52-5.4Zm32.72,5.24a12.7,12.7,0,0,1-2.74,7.96Q-50.16.4-55.68.4T-63.7-2.48a12.7,12.7,0,0,1-2.74-7.96q-.04-1-.04-3.48,0-2.44.04-3.44.48-11.04,10.76-11.04,5.52,0,8.02,2.88a12.7,12.7,0,0,1,2.74,7.96q.08,2,.08,3.56T-44.92-10.44ZM-55.68-4.6a4.767,4.767,0,0,0,3.92-1.52,7.894,7.894,0,0,0,1.44-4.52q.08-1,.08-3.36t-.08-3.36a7.894,7.894,0,0,0-1.44-4.52,4.767,4.767,0,0,0-3.92-1.52,4.767,4.767,0,0,0-3.92,1.52,7.894,7.894,0,0,0-1.44,4.52q-.08,2-.08,3.36t.08,3.36A7.894,7.894,0,0,0-59.6-6.12,4.767,4.767,0,0,0-55.68-4.6Zm13.24-14.36a1.114,1.114,0,0,1-.24-.68.992.992,0,0,1,.44-.84l8.68-6.84q.32-.24.68-.46a1.371,1.371,0,0,1,.72-.22h3.12a1.038,1.038,0,0,1,.76.32,1.038,1.038,0,0,1,.32.76V-1.08a1.038,1.038,0,0,1-.32.76,1.038,1.038,0,0,1-.76.32h-3.24a1.038,1.038,0,0,1-.76-.32,1.038,1.038,0,0,1-.32-.76V-20.84l-5.68,4.44a.956.956,0,0,1-.64.24,1.1,1.1,0,0,1-.88-.44Zm21.76,4.2a6.982,6.982,0,0,1-2.36-5.44,7.345,7.345,0,0,1,1.3-4.28,8.415,8.415,0,0,1,3.58-2.9A12.507,12.507,0,0,1-13-28.4a12.507,12.507,0,0,1,5.16,1.02,8.415,8.415,0,0,1,3.58,2.9,7.345,7.345,0,0,1,1.3,4.28,7.06,7.06,0,0,1-2.36,5.44A7.9,7.9,0,0,1-2.84-12a7.658,7.658,0,0,1,.88,3.68A7.8,7.8,0,0,1-3.32-3.76,8.939,8.939,0,0,1-7.18-.7,14.343,14.343,0,0,1-13,.4,14.343,14.343,0,0,1-18.82-.7a8.939,8.939,0,0,1-3.86-3.06,7.8,7.8,0,0,1-1.36-4.56A7.8,7.8,0,0,1-23.18-12,7.592,7.592,0,0,1-20.68-14.76ZM-13-17a6.122,6.122,0,0,0,3.28-.84A2.633,2.633,0,0,0-8.36-20.2a2.633,2.633,0,0,0-1.36-2.36A6.122,6.122,0,0,0-13-23.4a6.122,6.122,0,0,0-3.28.84,2.633,2.633,0,0,0-1.36,2.36,2.633,2.633,0,0,0,1.36,2.36A6.122,6.122,0,0,0-13-17Zm0,12.4a7.693,7.693,0,0,0,3.98-.98A3.039,3.039,0,0,0-7.36-8.32,3.014,3.014,0,0,0-9-11.02,7.667,7.667,0,0,0-13-12a7.667,7.667,0,0,0-4,.98,3.014,3.014,0,0,0-1.64,2.7,3.039,3.039,0,0,0,1.66,2.74A7.693,7.693,0,0,0-13-4.6Z" transform="translate(189.118 37)"/>
    <path id="Path_268" data-name="Path 268" class="cls-3" d="M-82.5-10.849A5.434,5.434,0,0,1-78.717-9.7a4.5,4.5,0,0,1,1.254,3.486V-.456a.457.457,0,0,1-.123.323A.432.432,0,0,1-77.919,0h-1.52a.44.44,0,0,1-.323-.133.44.44,0,0,1-.133-.323V-6.118a2.393,2.393,0,0,0-2.717-2.7H-83.9a13.957,13.957,0,0,0-.266,1.6,13.769,13.769,0,0,0-.057,1.672l.1,5.092a.457.457,0,0,1-.123.323A.432.432,0,0,1-84.588,0l-3.344-.019a.44.44,0,0,1-.323-.133.44.44,0,0,1-.133-.323V-1.52a.432.432,0,0,1,.133-.332.457.457,0,0,1,.323-.123l1.5.019V-5.491a16.115,16.115,0,0,1,.047-1.72,10.805,10.805,0,0,1,.276-1.605h-1.083a.44.44,0,0,1-.323-.133.44.44,0,0,1-.133-.323v-1.121a.432.432,0,0,1,.133-.333.457.457,0,0,1,.323-.123ZM-74.5,0a.44.44,0,0,1-.323-.133.44.44,0,0,1-.133-.323v-9.937a.432.432,0,0,1,.133-.333.457.457,0,0,1,.323-.123h1.615a.44.44,0,0,1,.323.133.44.44,0,0,1,.133.323V-.456a.44.44,0,0,1-.133.323A.44.44,0,0,1-72.884,0Zm5.016-4.446a.44.44,0,0,1-.323-.133.44.44,0,0,1-.133-.323v-5.491a.432.432,0,0,1,.133-.333.457.457,0,0,1,.323-.123h1.615a.44.44,0,0,1,.323.133.44.44,0,0,1,.133.323V-4.9a.44.44,0,0,1-.133.323.44.44,0,0,1-.323.133ZM-59.033,0a.44.44,0,0,1-.323-.133.44.44,0,0,1-.133-.323V-6.118a2.385,2.385,0,0,0-2.7-2.7h-2.679a.44.44,0,0,1-.323-.133.44.44,0,0,1-.133-.323v-1.121a.432.432,0,0,1,.133-.333.457.457,0,0,1,.323-.123h2.774a5.558,5.558,0,0,1,3.8,1.121,4.487,4.487,0,0,1,1.254,3.515V-.456a.44.44,0,0,1-.133.323A.44.44,0,0,1-57.494,0Zm4.959,0A.44.44,0,0,1-54.4-.133a.44.44,0,0,1-.133-.323v-9.937a.432.432,0,0,1,.133-.333.457.457,0,0,1,.323-.123h4.085a5.49,5.49,0,0,1,3.809,1.14,4.624,4.624,0,0,1,1.244,3.572V-.456a.44.44,0,0,1-.133.323A.463.463,0,0,1-45.41,0h-1.52a.44.44,0,0,1-.323-.133.44.44,0,0,1-.133-.323V-6.118a2.385,2.385,0,0,0-2.7-2.7h-1.995v8.36a.44.44,0,0,1-.133.323A.463.463,0,0,1-52.554,0Zm20.881-.7a.454.454,0,0,1,.114.3.387.387,0,0,1-.114.285A.365.365,0,0,1-33.459,0h-1.6a.613.613,0,0,1-.351-.086,1.221,1.221,0,0,1-.257-.257L-39.5-5.8a2.552,2.552,0,0,0-.883,1.225A5,5,0,0,0-40.6-3.059V-.475a.483.483,0,0,1-.124.342A.432.432,0,0,1-41.059,0h-1.292a.44.44,0,0,1-.323-.133.463.463,0,0,1-.133-.342v-2.6a6.512,6.512,0,0,1,.437-2.546A4.522,4.522,0,0,1-40.7-7.505l-1.862-2.641a.505.505,0,0,1-.114-.3.387.387,0,0,1,.114-.285.387.387,0,0,1,.285-.114h1.539a.755.755,0,0,1,.608.361l3.515,4.959a2.428,2.428,0,0,0,.779-.694,1.843,1.843,0,0,0,.3-.741,6.376,6.376,0,0,0,.057-.94v-2.47a.463.463,0,0,1,.133-.342.44.44,0,0,1,.323-.133h1.368a.463.463,0,0,1,.342.133.463.463,0,0,1,.133.342v2.565a4.951,4.951,0,0,1-.465,2.2,4.588,4.588,0,0,1-1.777,1.767Zm7.163.7a.44.44,0,0,1-.323-.133.44.44,0,0,1-.133-.323v-9.937a.432.432,0,0,1,.133-.333.457.457,0,0,1,.323-.123h4.085a5.49,5.49,0,0,1,3.809,1.14,4.624,4.624,0,0,1,1.244,3.572V-.456a.44.44,0,0,1-.133.323A.463.463,0,0,1-17.366,0h-1.52a.44.44,0,0,1-.323-.133.44.44,0,0,1-.133-.323V-6.118a2.385,2.385,0,0,0-2.7-2.7h-1.995v8.36a.44.44,0,0,1-.133.323A.463.463,0,0,1-24.51,0Zm12.084,0a.44.44,0,0,1-.323-.133A.44.44,0,0,1-14.4-.456v-9.937a.432.432,0,0,1,.133-.333.457.457,0,0,1,.323-.123h1.615a.44.44,0,0,1,.323.133.44.44,0,0,1,.133.323V-.456a.44.44,0,0,1-.133.323A.44.44,0,0,1-12.331,0ZM-1.178-10.849a.44.44,0,0,1,.323.133.44.44,0,0,1,.133.323v1.121a.44.44,0,0,1-.133.323.44.44,0,0,1-.323.133H-2.2a2.37,2.37,0,0,0-.38.931,6.324,6.324,0,0,0-.133,1.349V-.418a.369.369,0,0,1-.152.295A.528.528,0,0,1-3.211,0h-1.52a.411.411,0,0,1-.3-.114.411.411,0,0,1-.114-.3V-6.707a3.706,3.706,0,0,1,.437-2.109H-9.5a.44.44,0,0,1-.323-.133.44.44,0,0,1-.133-.323v-1.121a.432.432,0,0,1,.133-.333.457.457,0,0,1,.323-.123Zm-58.976,16A5.434,5.434,0,0,1-56.373,6.3a4.5,4.5,0,0,1,1.254,3.486v5.757a.457.457,0,0,1-.124.323.432.432,0,0,1-.333.133h-1.52a.44.44,0,0,1-.323-.133.44.44,0,0,1-.133-.323V9.882a2.393,2.393,0,0,0-2.717-2.7H-61.56a13.958,13.958,0,0,0-.266,1.6,13.768,13.768,0,0,0-.057,1.672l.095,5.092a.457.457,0,0,1-.123.323.432.432,0,0,1-.333.133l-3.344-.019a.44.44,0,0,1-.323-.133.44.44,0,0,1-.133-.323V14.48a.432.432,0,0,1,.133-.332.457.457,0,0,1,.323-.123l1.5.019V10.509a16.115,16.115,0,0,1,.048-1.72,10.805,10.805,0,0,1,.275-1.605h-1.083a.44.44,0,0,1-.323-.133.44.44,0,0,1-.133-.323V5.607a.432.432,0,0,1,.133-.333.457.457,0,0,1,.323-.123Zm7.885,6.4a.44.44,0,0,1-.323-.133.44.44,0,0,1-.133-.323V5.607a.432.432,0,0,1,.133-.333.457.457,0,0,1,.323-.123h1.615a.44.44,0,0,1,.323.133.44.44,0,0,1,.133.323V11.1a.44.44,0,0,1-.133.323.44.44,0,0,1-.323.133Zm12.673-6.4a.44.44,0,0,1,.323.133.44.44,0,0,1,.133.323V6.728a.44.44,0,0,1-.133.323.44.44,0,0,1-.323.133h-1.026a2.37,2.37,0,0,0-.38.931,6.325,6.325,0,0,0-.133,1.349v6.118a.369.369,0,0,1-.152.295.528.528,0,0,1-.342.123h-1.52a.411.411,0,0,1-.3-.114.411.411,0,0,1-.114-.3V9.293a3.706,3.706,0,0,1,.437-2.109h-4.788a.44.44,0,0,1-.323-.133.44.44,0,0,1-.133-.323V5.607a.432.432,0,0,1,.133-.333.457.457,0,0,1,.323-.123Zm2.831,6.4a.44.44,0,0,1-.323-.133.44.44,0,0,1-.133-.323V5.607a.432.432,0,0,1,.133-.333.457.457,0,0,1,.323-.123h1.615a.44.44,0,0,1,.323.133.44.44,0,0,1,.133.323V11.1a.44.44,0,0,1-.133.323.44.44,0,0,1-.323.133Zm11.5,3.99a.382.382,0,0,1-.114.323.463.463,0,0,1-.342.133h-1.615a.394.394,0,0,1-.3-.123.649.649,0,0,1-.152-.333l-.361-1.786a4.312,4.312,0,0,1-1.33,1.292,9.04,9.04,0,0,1-1.34.712,6.734,6.734,0,0,1-1.3.39l-.133.019q-.323,0-.323-.3V14.385q0-.323.4-.475.095-.038.807-.266a6.8,6.8,0,0,0,1.226-.513,5.094,5.094,0,0,0,.865-.674,4.492,4.492,0,0,0,.712-.865l-.361-1.805a5.553,5.553,0,0,0-.7-2.014,1.539,1.539,0,0,0-1.349-.589h-.684A.44.44,0,0,1-32,7.051a.44.44,0,0,1-.133-.323v-1.2A.432.432,0,0,1-32,5.2a.457.457,0,0,1,.323-.124h.722a4.741,4.741,0,0,1,2.29.484,3.421,3.421,0,0,1,1.4,1.473,9.989,9.989,0,0,1,.836,2.641ZM-14.1,15.3a.454.454,0,0,1,.114.3.387.387,0,0,1-.114.285.365.365,0,0,1-.266.114h-1.6a.613.613,0,0,1-.351-.085,1.221,1.221,0,0,1-.257-.257L-20.406,10.2a2.552,2.552,0,0,0-.884,1.226,5,5,0,0,0-.219,1.51v2.584a.483.483,0,0,1-.123.342.432.432,0,0,1-.333.133h-1.292a.44.44,0,0,1-.323-.133.463.463,0,0,1-.133-.342v-2.6a6.512,6.512,0,0,1,.437-2.546A4.521,4.521,0,0,1-21.6,8.495l-1.862-2.641a.505.505,0,0,1-.114-.3.387.387,0,0,1,.114-.285.387.387,0,0,1,.285-.114h1.539a.755.755,0,0,1,.608.361l3.515,4.959a2.428,2.428,0,0,0,.779-.693,1.843,1.843,0,0,0,.3-.741,6.376,6.376,0,0,0,.057-.94V5.626a.463.463,0,0,1,.133-.342.44.44,0,0,1,.323-.133h1.368a.463.463,0,0,1,.342.133.463.463,0,0,1,.133.342V8.191a4.951,4.951,0,0,1-.466,2.2,4.588,4.588,0,0,1-1.777,1.767ZM-6.232,5.151A5.434,5.434,0,0,1-2.451,6.3,4.5,4.5,0,0,1-1.2,9.787v5.757a.457.457,0,0,1-.124.323A.432.432,0,0,1-1.653,16h-1.52a.44.44,0,0,1-.323-.133.44.44,0,0,1-.133-.323V9.882a2.393,2.393,0,0,0-2.717-2.7H-7.638A13.958,13.958,0,0,0-7.9,8.78a13.768,13.768,0,0,0-.057,1.672l.095,5.092a.457.457,0,0,1-.123.323A.432.432,0,0,1-8.322,16l-3.344-.019a.44.44,0,0,1-.323-.133.44.44,0,0,1-.133-.323V14.48a.432.432,0,0,1,.133-.332.457.457,0,0,1,.323-.123l1.5.019V10.509a16.117,16.117,0,0,1,.047-1.72,10.806,10.806,0,0,1,.276-1.605h-1.083a.44.44,0,0,1-.323-.133.44.44,0,0,1-.133-.323V5.607a.432.432,0,0,1,.133-.333.457.457,0,0,1,.323-.123Z" transform="translate(90 20.62)"/>
  </g>
</svg>
