<svg xmlns="http://www.w3.org/2000/svg" xmlns:xlink="http://www.w3.org/1999/xlink" width="18.334" height="22.422" viewBox="0 0 18.334 22.422">
  <defs>
    <style>
      .cls-1 {
        fill: none;
      }

      .cls-2 {
        clip-path: url(#clip-path);
      }

      .cls-3, .cls-4 {
        fill: #0f85d6;
      }

      .cls-3 {
        opacity: 0.3;
      }
    </style>
    <clipPath id="clip-path">
      <rect class="cls-1" width="18.334" height="22.422"/>
    </clipPath>
  </defs>
  <g id="report" class="cls-2">
    <path id="Path_218" data-name="Path 218" class="cls-3" d="M-1240.987,334.8a.751.751,0,0,1-.751-.751V316.146h-.322a.751.751,0,0,0-.75.75v18.227a.751.751,0,0,0,.75.751h15.547a.751.751,0,0,0,.75-.751V334.8Z" transform="translate(1243.453 -314.095)"/>
    <path id="Path_219" data-name="Path 219" class="cls-4" d="M-1236.469,298.947V280.72a1.4,1.4,0,0,0-1.394-1.394h-1.557v-1.086a.322.322,0,0,0-.322-.322.322.322,0,0,0-.322.322v1.086h-3.393v-1.086a.321.321,0,0,0-.322-.322.322.322,0,0,0-.322.322v1.086h-3.392v-1.086a.322.322,0,0,0-.322-.322.322.322,0,0,0-.322.322v1.086h-3.393v-1.086a.322.322,0,0,0-.322-.322.322.322,0,0,0-.322.322v1.086h-1.239a1.4,1.4,0,0,0-1.394,1.394v18.227a1.4,1.4,0,0,0,1.394,1.394h15.547A1.4,1.4,0,0,0-1236.469,298.947Zm-17.691,0V280.72a.751.751,0,0,1,.75-.75h1.239v.582a1.394,1.394,0,0,0-1.063,1.518,1.394,1.394,0,0,0,1.384,1.232,1.394,1.394,0,0,0,1.385-1.232,1.394,1.394,0,0,0-1.063-1.518v-.582h3.393v.582a1.394,1.394,0,0,0-1.063,1.518,1.394,1.394,0,0,0,1.385,1.232,1.394,1.394,0,0,0,1.384-1.232,1.394,1.394,0,0,0-1.062-1.518v-.582h3.392v.582a1.394,1.394,0,0,0-1.063,1.518,1.394,1.394,0,0,0,1.385,1.232,1.394,1.394,0,0,0,1.384-1.232,1.394,1.394,0,0,0-1.063-1.518v-.582h3.393v.582a1.394,1.394,0,0,0-1.063,1.518,1.394,1.394,0,0,0,1.385,1.232,1.394,1.394,0,0,0,1.384-1.232,1.394,1.394,0,0,0-1.063-1.518v-.582h1.556a.751.751,0,0,1,.751.75v18.227a.751.751,0,0,1-.751.751h-15.547A.751.751,0,0,1-1254.16,298.947Zm2.311-17.79a.751.751,0,0,1,.751.751.751.751,0,0,1-.751.751.751.751,0,0,1-.75-.751A.751.751,0,0,1-1251.848,281.157Zm4.036,0a.751.751,0,0,1,.751.751.751.751,0,0,1-.751.751.75.75,0,0,1-.75-.751.751.751,0,0,1,.751-.751Zm4.036,0a.751.751,0,0,1,.75.751.751.751,0,0,1-.75.751.751.751,0,0,1-.751-.751A.752.752,0,0,1-1243.777,281.157Zm4.036,0a.751.751,0,0,1,.75.751.751.751,0,0,1-.75.751.751.751,0,0,1-.75-.751A.751.751,0,0,1-1239.741,281.157Z" transform="translate(1254.803 -277.919)"/>
    <g id="Group_85" data-name="Group 85" transform="translate(2.948 9.186)">
      <path id="Path_220" data-name="Path 220" class="cls-4" d="M-1187.72,613.967h-11.794a.322.322,0,0,0-.322.322.322.322,0,0,0,.322.322h11.794a.322.322,0,0,0,.322-.322A.322.322,0,0,0-1187.72,613.967Z" transform="translate(1199.836 -605.127)"/>
      <path id="Path_221" data-name="Path 221" class="cls-4" d="M-1187.72,504.1h-11.794a.322.322,0,0,0-.322.322.322.322,0,0,0,.322.322h11.794a.322.322,0,0,0,.322-.322A.322.322,0,0,0-1187.72,504.1Z" transform="translate(1199.836 -501.156)"/>
      <path id="Path_222" data-name="Path 222" class="cls-4" d="M-1187.72,449.167h-11.794a.322.322,0,0,0-.322.322.322.322,0,0,0,.322.322h11.794a.322.322,0,0,0,.322-.322A.322.322,0,0,0-1187.72,449.167Z" transform="translate(1199.836 -449.167)"/>
      <path id="Path_223" data-name="Path 223" class="cls-4" d="M-1187.72,559.035h-11.794a.322.322,0,0,0-.322.322.322.322,0,0,0,.322.322h11.794a.322.322,0,0,0,.322-.322A.322.322,0,0,0-1187.72,559.035Z" transform="translate(1199.836 -553.142)"/>
    </g>
  </g>
</svg>
